<svg id="Layer_1" data-name="Layer 1" xmlns="http://www.w3.org/2000/svg" xmlns:xlink="http://www.w3.org/1999/xlink" viewBox="0 0 600 300"><defs><style>.cls-1{fill:#fca89e;}.cls-2{fill:none;}.cls-3{fill:#f0b90b;}.cls-4{fill:#1a1a1a;}.cls-5{fill:#fff;}.cls-6{fill:#abd2ed;}.cls-7{fill:#d0e0f0;}.cls-8{clip-path:url(#clip-path);}.cls-9{fill:#7f4d4e;}.cls-10{fill:#2b79e6;}.cls-11{fill:#29266b;}.cls-12{clip-path:url(#clip-path-2);}.cls-13{fill:#f79b94;}.cls-14{fill:#02c06e;}.cls-15{fill:#61b3db;}.cls-16{fill:#0f2337;}.cls-17{clip-path:url(#clip-path-3);}.cls-18{fill:#f8d188;}.cls-19{fill:#ff474c;}</style><clipPath id="clip-path"><path class="cls-1" d="M378.16,158.78c0,5-4,5.44-9,5.47a9,9,0,0,1-.1-18.07C374.05,146.16,378.14,153.79,378.16,158.78Z"/></clipPath><clipPath id="clip-path-2"><path class="cls-2" d="M372.16,216.35l26.26-2.18-7.62-42.82c-.62-3-5.51-7.53-8.4-6.66l-19.34,5.65a5.16,5.16,0,0,0-3.3,6.84Z"/></clipPath><clipPath id="clip-path-3"><path class="cls-1" d="M538.58,158.77c1.44,4.85,5.5,4.11,10.35,2.68a9.17,9.17,0,1,0-5.19-17.59C538.88,145.3,537.15,153.91,538.58,158.77Z"/></clipPath></defs><rect class="cls-3" width="600" height="300"/><path class="cls-4" d="M38.63,175.88a26.77,26.77,0,0,1-8.05-1.14,17.11,17.11,0,0,1-6.22-3.4,15.15,15.15,0,0,1-4-5.63,20.22,20.22,0,0,1-1.42-7.85,26.4,26.4,0,0,1,1.34-8.16,38.5,38.5,0,0,1,3.94-8.38l7.09,5.08c-.37.6-.78,1.36-1.22,2.26a27.85,27.85,0,0,0-1.22,3,27.14,27.14,0,0,0-.94,3.26,14.06,14.06,0,0,0-.38,3.19,5.8,5.8,0,0,0,.88,3.15,8.59,8.59,0,0,0,2.31,2.47A11.74,11.74,0,0,0,34,165.35a13.91,13.91,0,0,0,3.7.75,13.91,13.91,0,0,0,4.42-.7,13.64,13.64,0,0,0,3.78-1.88,10.35,10.35,0,0,0,2.68-2.77,7.07,7.07,0,0,0,1.14-3.4,13.37,13.37,0,0,0-.57-3.18c-.33-1.12-.73-2.25-1.17-3.37s-.93-2.23-1.45-3.31-1-2.08-1.38-3l8.09-4.5c.23.47.52,1.1.86,1.88s.7,1.66,1.07,2.64.75,2,1.13,3.13.71,2.22,1,3.35.55,2.22.74,3.29a18.39,18.39,0,0,1,.28,3,20.28,20.28,0,0,1-.52,4.57,18.18,18.18,0,0,1-1.57,4.34A17.75,17.75,0,0,1,53.54,170a16.48,16.48,0,0,1-3.8,3.08,19.26,19.26,0,0,1-5,2A24,24,0,0,1,38.63,175.88Zm-.24-30.41L33,140.05l5.43-5.43,5.42,5.43Z"/><path class="cls-4" d="M73.8,159a15.56,15.56,0,0,1-5.63-.9A9.3,9.3,0,0,1,62.29,152a15.69,15.69,0,0,1-.66-4.65q0-3.3,0-6.63t0-6.68q0-3.36-.26-6.77c-.14-2.28-.38-4.58-.74-6.91l9.16-2.78a52.72,52.72,0,0,1,.88,6.68q.25,3.47.28,7c0,2.34,0,4.65,0,6.95s-.08,4.51-.08,6.62c0,.74,0,1.4,0,2a4,4,0,0,0,.27,1.49,1.72,1.72,0,0,0,.87.89,3.84,3.84,0,0,0,1.81.22h.66V159Z"/><path class="cls-4" d="M73.51,149.36H80.4a8.27,8.27,0,0,0,2.54-.32,4,4,0,0,0,1.47-.78,2.16,2.16,0,0,0,.67-1,3.38,3.38,0,0,0,.16-1,4.15,4.15,0,0,0-.44-1.65,16.44,16.44,0,0,0-1.19-2.12c-.49-.76-1.07-1.57-1.72-2.41s-1.33-1.7-2-2.55-1.4-1.67-2.1-2.48l-2-2.26,1-8.33L99.22,115l3.59,8.52L85,130.86a36.69,36.69,0,0,1,3.92,4.65c1.07,1.53,2,3,2.8,4.34s1.52,2.64,2.18,3.8a18.69,18.69,0,0,0,2,3,8.09,8.09,0,0,0,2.43,2,7.2,7.2,0,0,0,3.34.71h1.78V159h-.76a19.16,19.16,0,0,1-6.07-.94,14.55,14.55,0,0,1-5.1-3,10.6,10.6,0,0,1-2.15,1.82A12.4,12.4,0,0,1,87,158.11a14.22,14.22,0,0,1-2.62.68,18.4,18.4,0,0,1-2.65.25H73.51Zm3.89-31.53L96.09,110l1.35,2.91L77.2,121.5Z"/><path class="cls-4" d="M102.54,149.36h4.94c.39,0,.84,0,1.34-.05s1-.09,1.56-.16,1.05-.17,1.56-.29a8.47,8.47,0,0,0,1.37-.45,3.39,3.39,0,0,0,1-.62,1,1,0,0,0,.37-.8,4.77,4.77,0,0,0-.4-1.55c-.27-.7-.62-1.5-1-2.4s-.89-1.87-1.39-2.9-1-2-1.49-3l8.75-4.32c.48,1.12,1,2.29,1.43,3.52s.87,2.44,1.23,3.66a36.46,36.46,0,0,1,.87,3.62,18.51,18.51,0,0,1,.33,3.35,11.83,11.83,0,0,1-1.18,5.49,10.48,10.48,0,0,1-3.2,3.75,13.69,13.69,0,0,1-4.78,2.16,24.16,24.16,0,0,1-5.9.7h-5.33Zm9.78,15.86-4.6,4.6L103,165.1l4.7-4.72,4.64,4.64,4.59-4.59,4.75,4.72-4.7,4.71Z"/><path class="cls-4" d="M126.2,158.28c.07-1.06.13-2.19.2-3.39l.18-3.59c.06-1.2.1-2.36.13-3.49s.05-2.18.05-3.14q0-4.48-.2-8.25c-.14-2.52-.31-4.79-.49-6.8s-.39-3.78-.59-5.3-.37-2.79-.5-3.8l9.41-3.11q.56,3.57.89,7t.51,6.47c.13,2,.21,3.89.25,5.59s.06,3.14.06,4.32,0,2.24,0,3.54,0,2.64-.05,4-.06,2.84-.11,4.28-.12,2.82-.2,4.14Z"/><path class="cls-4" d="M152.18,139.68q.58,1.68,1.17,3.57c.4,1.25.75,2.52,1.07,3.79s.57,2.53.77,3.77a23.84,23.84,0,0,1,.29,3.58,18.28,18.28,0,0,1-1.22,6.61,23.47,23.47,0,0,1-3.41,6,31.65,31.65,0,0,1-5.17,5.18,41.07,41.07,0,0,1-6.5,4.24l-5.94-7.63a49.58,49.58,0,0,0,5.06-3.09,35.33,35.33,0,0,0,4.36-3.55,19.54,19.54,0,0,0,3.12-3.82,8.65,8.65,0,0,0,1.34-3.86c-.27-.93-.57-1.86-.89-2.81s-.64-1.87-1-2.79-.67-1.8-1-2.66-.67-1.67-1-2.42Z"/><path class="cls-4" d="M185.84,159a12.23,12.23,0,0,1-2.86-.35,12.66,12.66,0,0,1-2.77-1,13.26,13.26,0,0,1-2.46-1.59,11,11,0,0,1-2-2.15,10.65,10.65,0,0,1-1.33-2.68,10.19,10.19,0,0,1-.49-3.18,11.13,11.13,0,0,1,.48-3.31,14.51,14.51,0,0,1,1.27-2.94,20.63,20.63,0,0,1,1.82-2.67c.69-.85,1.39-1.66,2.13-2.44l-1.42-1.22L184,128q1.56,1.17,3.52,2.93c1.3,1.17,2.75,2.61,4.35,4.3a37.58,37.58,0,0,1,2.77,3.58,23.67,23.67,0,0,1,1.85,3.28,14.65,14.65,0,0,1,1.32,6.07,10.27,10.27,0,0,1-3.69,8.15,11.38,11.38,0,0,1-3.83,2.08A14.5,14.5,0,0,1,185.84,159Zm4.3-10.51a.89.89,0,0,0,0-.69,8.32,8.32,0,0,0-.51-1.1q-.36-.63-.87-1.38c-.34-.49-.71-1-1.11-1.48s-.82-.95-1.25-1.4-.84-.85-1.23-1.19c-.39.44-.82,1-1.29,1.55s-.88,1.21-1.27,1.83a10,10,0,0,0-.89,1.8,2.47,2.47,0,0,0-.1,1.57,1.88,1.88,0,0,0,.7,1,3.59,3.59,0,0,0,1.12.52,6.14,6.14,0,0,0,1.27.22c.44,0,.81,0,1.14,0a11.69,11.69,0,0,0,1.27-.08,10,10,0,0,0,1.3-.25,5.06,5.06,0,0,0,1.08-.4A1.64,1.64,0,0,0,190.14,148.53Z"/><path class="cls-4" d="M212.89,139.68q.59,1.68,1.17,3.57c.4,1.25.75,2.52,1.07,3.79s.57,2.53.77,3.77a23.84,23.84,0,0,1,.29,3.58A18.28,18.28,0,0,1,215,161a23.47,23.47,0,0,1-3.41,6,31.65,31.65,0,0,1-5.17,5.18,41.53,41.53,0,0,1-6.5,4.24L194,168.76a49.58,49.58,0,0,0,5.06-3.09,35.33,35.33,0,0,0,4.36-3.55,19.54,19.54,0,0,0,3.12-3.82,8.65,8.65,0,0,0,1.34-3.86c-.28-.93-.57-1.86-.89-2.81s-.64-1.87-1-2.79-.67-1.8-1-2.66-.67-1.67-1-2.42Z"/><path class="cls-4" d="M217.41,166.81a52.07,52.07,0,0,0,5.57-1.49,36.8,36.8,0,0,0,4.61-1.86,20.63,20.63,0,0,0,3.5-2.13,9.94,9.94,0,0,0,2.23-2.29l-.8,0c-.3,0-.59,0-.87,0l-.81,0-.62,0a18.15,18.15,0,0,1-4.74-1,10.89,10.89,0,0,1-3.64-2.16,9.24,9.24,0,0,1-2.35-3.36,11.79,11.79,0,0,1-.83-4.57,14.06,14.06,0,0,1,.4-3.28,18.43,18.43,0,0,1,1.14-3.3,18.22,18.22,0,0,1,1.75-3,14.88,14.88,0,0,1,2.23-2.49,10.57,10.57,0,0,1,2.6-1.7,7,7,0,0,1,2.85-.62,8.52,8.52,0,0,1,3.84.88,12,12,0,0,1,3.24,2.37,17,17,0,0,1,2.58,3.46,25,25,0,0,1,1.89,4.14,27.56,27.56,0,0,1,1.16,4.41,25,25,0,0,1,.39,4.29,21,21,0,0,1-.84,6.05,20,20,0,0,1-2.37,5.16,21.9,21.9,0,0,1-3.66,4.29,28,28,0,0,1-4.69,3.43,34.76,34.76,0,0,1-5.47,2.58,42.93,42.93,0,0,1-6,1.73Zm12.05-24.17a2.14,2.14,0,0,0-1.32.46,4.55,4.55,0,0,0-1.06,1.16,6.37,6.37,0,0,0-.71,1.49,4.92,4.92,0,0,0-.26,1.48,1,1,0,0,0,.43.81,3.47,3.47,0,0,0,1.14.57,10.32,10.32,0,0,0,1.61.38c.6.1,1.22.17,1.85.22s1.23.08,1.83.1,1.13,0,1.6,0A10.38,10.38,0,0,0,234,147a9.14,9.14,0,0,0-1.1-2.16,6.71,6.71,0,0,0-1.55-1.59A3.2,3.2,0,0,0,229.46,142.64Z"/><path class="cls-4" d="M258.62,159a15.58,15.58,0,0,1-5.64-.9,9.85,9.85,0,0,1-3.76-2.46,9.59,9.59,0,0,1-2.11-3.72,15.69,15.69,0,0,1-.66-4.65c0-2.2,0-4.41.05-6.63s0-4.44,0-6.68-.12-4.5-.26-6.77-.39-4.58-.75-6.91l9.17-2.78a54.6,54.6,0,0,1,.88,6.68c.16,2.31.26,4.63.28,7s0,4.65,0,6.95-.08,4.51-.08,6.62c0,.74,0,1.4,0,2a4,4,0,0,0,.27,1.49,1.73,1.73,0,0,0,.86.89,3.86,3.86,0,0,0,1.81.22h.66V159Z"/><path class="cls-4" d="M287.65,159.33a7.14,7.14,0,0,1-2.32-.38,9.79,9.79,0,0,1-2-.95,9.07,9.07,0,0,1-1.62-1.26,8.43,8.43,0,0,1-1.09-1.3,9,9,0,0,1-1.14,1.4,8.88,8.88,0,0,1-1.58,1.23,8.27,8.27,0,0,1-2,.89,9,9,0,0,1-2.44.37,7,7,0,0,1-2.2-.29,8.35,8.35,0,0,1-1.92-.85,7.56,7.56,0,0,1-1.52-1.21,6.08,6.08,0,0,1-1-1.39,4.61,4.61,0,0,1-1,1.37,6.57,6.57,0,0,1-1.65,1.09,10.52,10.52,0,0,1-2.2.72,12.48,12.48,0,0,1-2.68.27h-.88v-9.68h.49a4,4,0,0,0,2.61-.86,7.44,7.44,0,0,0,1.84-2.32,18.76,18.76,0,0,0,1.37-3.41c.39-1.29.77-2.67,1.15-4.12l8.21,1.54c-.15.61-.3,1.28-.48,2s-.32,1.48-.46,2.22-.25,1.47-.34,2.18a13.25,13.25,0,0,0-.12,1.88,3.51,3.51,0,0,0,.22,1.33.73.73,0,0,0,.67.54,2.85,2.85,0,0,0,1.57-.56,5.15,5.15,0,0,0,1.25-1.36,10.13,10.13,0,0,0,1-1.92,23,23,0,0,0,.72-2.26c.2-.79.38-1.59.53-2.4s.3-1.6.43-2.35l7.33.51c0,.52-.12,1.14-.22,1.86s-.17,1.45-.24,2.21-.09,1.51-.09,2.25a8.39,8.39,0,0,0,.24,2,3,3,0,0,0,.72,1.4,1.81,1.81,0,0,0,1.4.54,2,2,0,0,0,1.36-.61,4.77,4.77,0,0,0,1-1.45,10.81,10.81,0,0,0,.62-2,21,21,0,0,0,.33-2.23c.06-.75.1-1.47.1-2.16s0-1.29-.08-1.8l8-1.2a46,46,0,0,0,.56,4.93,15,15,0,0,0,.92,3.26,4.57,4.57,0,0,0,1.27,1.8,2.69,2.69,0,0,0,1.65.55h.78V159h-.78a13.36,13.36,0,0,1-4.4-.72,9.89,9.89,0,0,1-3.74-2.41,12.78,12.78,0,0,1-1.58,1.35,9.79,9.79,0,0,1-1.83,1.08,11.74,11.74,0,0,1-2.12.72A10.55,10.55,0,0,1,287.65,159.33Zm-4.44-29.82-4.6,4.6-4.74-4.72,4.69-4.72,4.65,4.65,4.59-4.6,4.74,4.72-4.69,4.72Zm4.37-7.13-4.35,4.35-4.38-4.38,4.36-4.35Z"/><path class="cls-4" d="M327.12,158.67a5.1,5.1,0,0,1-2,.33,12.2,12.2,0,0,1-2.39-.28,22.11,22.11,0,0,1-2.57-.72c-.87-.3-1.72-.63-2.54-1s-1.59-.72-2.3-1.09-1.31-.7-1.82-1a8.72,8.72,0,0,1-1.66,1.77,9.9,9.9,0,0,1-2.08,1.29,11.52,11.52,0,0,1-2.41.78,12.66,12.66,0,0,1-2.62.27h-1.18v-9.68h1.18a6.34,6.34,0,0,0,2-.29,4.61,4.61,0,0,0,1.5-.85,6.07,6.07,0,0,0,1.17-1.33,15.12,15.12,0,0,0,1-1.76l1.16-2.33a27.45,27.45,0,0,1,1.4-2.45,22.5,22.5,0,0,1,1.67-2.3,12.36,12.36,0,0,1,2-1.91,9,9,0,0,1,2.39-1.32,7.79,7.79,0,0,1,2.81-.49,8.12,8.12,0,0,1,3.82.89,10.24,10.24,0,0,1,3,2.38,14,14,0,0,1,2.19,3.44,17.79,17.79,0,0,1,1.29,4,18.23,18.23,0,0,1,.35,4.23,13.91,13.91,0,0,1-.69,4,10.19,10.19,0,0,1-1.77,3.26A7.12,7.12,0,0,1,327.12,158.67Zm-5.54-15.62a1.65,1.65,0,0,0-1.09.45,7.12,7.12,0,0,0-1,1.13,13.06,13.06,0,0,0-.9,1.47c-.28.52-.51,1-.71,1.47a12.47,12.47,0,0,0,1.35.79,18.86,18.86,0,0,0,1.78.79,16.91,16.91,0,0,0,2.08.65,12,12,0,0,0,2.25.32,5.54,5.54,0,0,0,.15-2.31,7.05,7.05,0,0,0-.68-2.3,5.23,5.23,0,0,0-1.36-1.76A2.83,2.83,0,0,0,321.58,143.05Z"/><polygon class="cls-4" points="458.85 0 600 178.03 600 300 543.61 300 311.53 0 458.85 0"/><circle class="cls-5" cx="464.87" cy="148.26" r="123.89" transform="translate(31.33 372.14) rotate(-45)"/><path class="cls-6" d="M386.38,164.66c6.05,2.55,17.78,16.14,17.78,16.14l22.7,8.48-.71,5.71-28.68-4.37s-13.09-11.19-14.75-16.89S382.88,163.19,386.38,164.66Z"/><path class="cls-7" d="M370.52,216.9l27.9-2.73-7.62-42.82c-.62-3-5.51-7.53-8.4-6.66l-19.34,5.65a5.16,5.16,0,0,0-3.3,6.84Z"/><path class="cls-1" d="M370.93,170.15l3.37-1a2.11,2.11,0,0,0,1.25-2.71l-1.25-4.15a2.12,2.12,0,0,0-2.54-1.57l-3.37,1a2.13,2.13,0,0,0-1.25,2.71l1.25,4.15A2.12,2.12,0,0,0,370.93,170.15Z"/><path class="cls-1" d="M378.16,158.78c0,5-4,5.44-9,5.47a9,9,0,0,1-.1-18.07C374.05,146.16,378.14,153.79,378.16,158.78Z"/><g class="cls-8"><path class="cls-9" d="M365.69,151.86s.92,3.06.5,3.18-2.19,0-2.91,1.8,1,2.91,2.46,2.82,1.59,3.77-1.86,4.12-6.93-7-6.13-10.44,5.18-8.34,7.14-8.7,22,.79,22,.79Z"/></g><path class="cls-9" d="M370,162.73a4.38,4.38,0,1,0,2.93-5.46A4.39,4.39,0,0,0,370,162.73Zm1.5-.45a2.82,2.82,0,1,1,3.51,1.88A2.82,2.82,0,0,1,371.53,162.28Z"/><path class="cls-9" d="M378.16,159.62l-8.31,2.5s1.4,12.15,8,9.76C384.16,169.62,378.16,159.62,378.16,159.62Z"/><path class="cls-10" d="M398.42,214.17l.47,54.75h-5.3s-4-29.83-5.52-46.31h-3.68l.25,23.46-21.55,18.86-2.88-4.84,14.31-18.54s-4.08-20.52-4-24.65C370.38,216.23,398.42,214.17,398.42,214.17Z"/><path class="cls-11" d="M399,268.85h-5.39V273h10.93c.72,0,1-1.62.34-2Z"/><path class="cls-11" d="M363.2,264.58l-3-4.49-3.44,2.29,6.05,9.1c.4.6,1.89-.09,1.83-.81Z"/><g class="cls-12"><rect class="cls-13" x="393.03" y="177.59" width="0.48" height="15.16" transform="translate(-38.86 138.16) rotate(-19)"/></g><polygon class="cls-14" points="425.22 230.03 408.81 214.17 525.85 92.68 542.43 108.08 425.22 230.03"/><polygon class="cls-14" points="381.85 187.79 391.2 164.37 434.32 208.01 419.75 224.56 381.85 187.79"/><polygon class="cls-14" points="496.46 66.92 588.16 40.88 570.63 135.78 496.46 66.92"/><path class="cls-1" d="M510.54,142.78c-.77-1.16-1.11-4.28-.15-4.85s3.5-2.29,4.34-.24l1.09,4.15-4.3,2.41Z"/><path class="cls-15" d="M560.47,208.78H532.3l.75,60.19h5.38s4.07-30.28,5.61-47h3.73l1.12,47h5.38s6.35-47.21,6.18-56.31A36.16,36.16,0,0,0,560.47,208.78Z"/><path class="cls-11" d="M560.47,208.78H532.3l-3.52-37.42c-.32-3.05,2.63-5.67,6.39-5.67H557.6c3.75,0,6.7,2.62,6.39,5.67Z"/><path class="cls-11" d="M521.9,159.74,516,141.68c0-.49-5.15,1.45-4.51,2.57,1.05,1.83,0,17.74,5.59,23.7,3.14,3.32,15.91,14.51,16.41,13.67.8-1.34.93-4.84,1.08-9.46a2,2,0,0,0-1.82-2.09l4-2.26C535.88,167.71,521.9,159.74,521.9,159.74Z"/><path class="cls-1" d="M574.44,135.15c.41-1.32-.14-4.42-1.22-4.69s-4-1.21-4.24,1l.13,4.28,4.8,1.11Z"/><path class="cls-11" d="M567.44,154l1.42-18.39c-.13-.47,5.35-.07,5,1.2-.48,2,5.05,17,1.32,24.3-2.08,4.08-13.92,19.22-14.64,18.56-1.14-1.06-1.56-4.78-3-9.17-.34-1,.17-4.82.17-4.82C558.62,165.37,567.44,154,567.44,154Z"/><path class="cls-16" d="M533,268.89h5.47v4.2H527.35c-.73,0-1-1.65-.34-2Z"/><path class="cls-16" d="M549.05,268.89h5.47v4.2H543.43c-.74,0-1-1.65-.35-2Z"/><path class="cls-1" d="M546.25,169.65c5,0,5-3.39,5-4.21v-5.52c0-1.25-1.87-1.15-3-1.15h-3.57c-1.11,0-3,1-3,2.27v4.4A4.25,4.25,0,0,0,546.25,169.65Z"/><path class="cls-1" d="M538.58,158.77c1.44,4.85,5.5,4.11,10.35,2.68a9.17,9.17,0,1,0-5.19-17.59C538.88,145.3,537.15,153.91,538.58,158.77Z"/><g class="cls-17"><path class="cls-18" d="M548.68,148.39s0,3.24.45,3.24,2.12-.67,3.35.89-.12,3.13-1.57,3.46-.44,4.13,3,3.46,4.69-8.82,2.9-11.94-7.48-6.59-9.49-6.37-15.26,7.36-15.26,7.36Z"/></g><polygon class="cls-14" points="329.01 266.02 311.53 250.21 391.2 164.37 407.13 180.61 329.01 266.02"/><path class="cls-6" d="M363.92,171.11c3.87-1.25,18.32,18.79,18.32,18.79L408,193l-.71,5.71-31.42,1.9s-11-12.19-12.68-17.9S360.3,172.28,363.92,171.11Z"/><path class="cls-1" d="M407,192.7l-.78,6.11s6.7-1.08,7.41-2.62a1.68,1.68,0,0,0-.48-2.26Z"/><path class="cls-1" d="M426.72,189.14l-.57,5.85s6.7-.2,7.41-1.75a2.7,2.7,0,0,0-.68-2.87Z"/><rect class="cls-19" x="369.61" y="102.22" width="19.58" height="34.63"/><rect class="cls-14" x="393.58" y="73.8" width="19.58" height="30.31"/><rect class="cls-14" x="445.3" y="113.4" width="19.58" height="30.86"/><rect class="cls-14" x="470.35" y="34.64" width="19.58" height="78.76"/><rect class="cls-19" x="419.74" y="73.54" width="19.58" height="71.68"/></svg>