<svg id="Layer_1" data-name="Layer 1" xmlns="http://www.w3.org/2000/svg" viewBox="0 0 600 300"><defs><style>.cls-1{fill:#1a1a1a;}.cls-2{fill:#02c06e;}.cls-3{fill:none;stroke:#d9d9d9;stroke-miterlimit:10;stroke-width:1.31px;}.cls-4{fill:#ff474c;}.cls-5{fill:#e6e6e6;}.cls-6{fill:#fff;}.cls-7{fill:#fd8f22;}</style></defs><rect class="cls-1" x="-2.03" y="-1.72" width="603.77" height="302.87"/><polygon class="cls-2" points="252.19 74.83 245.97 74.83 245.97 62.38 238.71 62.38 238.71 74.83 231.46 74.83 231.46 155.7 238.71 155.7 238.71 164 245.97 164 245.97 155.7 252.19 155.7 252.19 74.83"/><path class="cls-3" d="M-.28,58H3.26v1H-.28Z"/><path class="cls-3" d="M5.13,58H8.68v1H5.13Z"/><path class="cls-3" d="M10.54,58h3.55v1H10.54Z"/><path class="cls-3" d="M16,58H19.5v1H16Z"/><path class="cls-3" d="M21.37,58h3.55v1H21.37Z"/><path class="cls-3" d="M26.79,58h3.54v1H26.79Z"/><path class="cls-3" d="M32.2,58h3.55v1H32.2Z"/><path class="cls-3" d="M37.62,58h3.54v1H37.62Z"/><path class="cls-3" d="M43,58h3.55v1H43Z"/><path class="cls-3" d="M48.45,58H52v1H48.45Z"/><path class="cls-3" d="M53.86,58h3.55v1H53.86Z"/><path class="cls-3" d="M59.27,58h3.55v1H59.27Z"/><path class="cls-3" d="M64.69,58h3.54v1H64.69Z"/><path class="cls-3" d="M70.1,58h3.55v1H70.1Z"/><path class="cls-3" d="M75.52,58h3.54v1H75.52Z"/><path class="cls-3" d="M80.93,58h3.55v1H80.93Z"/><path class="cls-3" d="M86.35,58h3.54v1H86.35Z"/><path class="cls-3" d="M91.76,58h3.55v1H91.76Z"/><path class="cls-3" d="M97.18,58h3.54v1H97.18Z"/><path class="cls-3" d="M102.59,58h3.55v1h-3.55Z"/><path class="cls-3" d="M108,58h3.55v1H108Z"/><path class="cls-3" d="M113.42,58H117v1h-3.54Z"/><path class="cls-3" d="M118.83,58h3.55v1h-3.55Z"/><path class="cls-3" d="M124.25,58h3.54v1h-3.54Z"/><path class="cls-3" d="M129.66,58h3.55v1h-3.55Z"/><path class="cls-3" d="M135.08,58h3.54v1h-3.54Z"/><path class="cls-3" d="M140.49,58H144v1h-3.55Z"/><path class="cls-3" d="M145.91,58h3.54v1h-3.54Z"/><path class="cls-3" d="M151.32,58h3.55v1h-3.55Z"/><path class="cls-3" d="M156.73,58h3.55v1h-3.55Z"/><path class="cls-3" d="M162.15,58h3.54v1h-3.54Z"/><path class="cls-3" d="M167.56,58h3.55v1h-3.55Z"/><path class="cls-3" d="M173,58h3.54v1H173Z"/><path class="cls-3" d="M178.39,58h3.55v1h-3.55Z"/><path class="cls-3" d="M183.81,58h3.54v1h-3.54Z"/><path class="cls-3" d="M189.22,58h3.55v1h-3.55Z"/><path class="cls-3" d="M194.64,58h3.54v1h-3.54Z"/><path class="cls-3" d="M200.05,58h3.55v1h-3.55Z"/><path class="cls-3" d="M205.46,58H209v1h-3.55Z"/><path class="cls-3" d="M210.88,58h3.54v1h-3.54Z"/><path class="cls-3" d="M216.29,58h3.55v1h-3.55Z"/><path class="cls-3" d="M221.71,58h3.54v1h-3.54Z"/><path class="cls-3" d="M227.12,58h3.55v1h-3.55Z"/><path class="cls-3" d="M232.54,58h3.54v1h-3.54Z"/><path class="cls-3" d="M238,58h3.55v1H238Z"/><path class="cls-3" d="M243.37,58h3.54v1h-3.54Z"/><path class="cls-3" d="M248.78,58h3.55v1h-3.55Z"/><path class="cls-3" d="M254.19,58h3.55v1h-3.55Z"/><path class="cls-3" d="M259.61,58h3.54v1h-3.54Z"/><path class="cls-3" d="M265,58h3.55v1H265Z"/><path class="cls-3" d="M270.44,58H274v1h-3.54Z"/><polygon class="cls-2" points="73.85 74.83 66.59 74.83 66.59 62.38 60.37 62.38 60.37 74.83 53.11 74.83 53.11 155.7 59.34 155.7 59.34 164 66.59 164 66.59 155.7 73.85 155.7 73.85 74.83"/><path class="cls-3" d="M-3.42,238.75H.12v1H-3.42Z"/><path class="cls-3" d="M2,238.75H5.53v1H2Z"/><path class="cls-3" d="M7.4,238.75H11v1H7.4Z"/><path class="cls-3" d="M12.82,238.75h3.54v1H12.82Z"/><path class="cls-3" d="M18.23,238.75h3.55v1H18.23Z"/><path class="cls-3" d="M23.65,238.75h3.54v1H23.65Z"/><path class="cls-3" d="M29.06,238.75h3.55v1H29.06Z"/><path class="cls-3" d="M34.48,238.75H38v1H34.48Z"/><path class="cls-3" d="M39.89,238.75h3.55v1H39.89Z"/><path class="cls-3" d="M45.3,238.75h3.55v1H45.3Z"/><path class="cls-3" d="M50.72,238.75h3.55v1H50.72Z"/><path class="cls-3" d="M56.13,238.75h3.55v1H56.13Z"/><path class="cls-3" d="M61.55,238.75h3.54v1H61.55Z"/><path class="cls-3" d="M67,238.75h3.55v1H67Z"/><path class="cls-3" d="M72.38,238.75h3.54v1H72.38Z"/><path class="cls-3" d="M77.79,238.75h3.55v1H77.79Z"/><path class="cls-3" d="M83.21,238.75h3.54v1H83.21Z"/><path class="cls-3" d="M88.62,238.75h3.55v1H88.62Z"/><path class="cls-3" d="M94,238.75h3.54v1H94Z"/><path class="cls-3" d="M99.45,238.75H103v1H99.45Z"/><path class="cls-3" d="M104.86,238.75h3.55v1h-3.55Z"/><path class="cls-3" d="M110.28,238.75h3.54v1h-3.54Z"/><path class="cls-3" d="M115.69,238.75h3.55v1h-3.55Z"/><path class="cls-3" d="M121.11,238.75h3.54v1h-3.54Z"/><path class="cls-3" d="M126.52,238.75h3.55v1h-3.55Z"/><path class="cls-3" d="M131.94,238.75h3.54v1h-3.54Z"/><path class="cls-3" d="M137.35,238.75h3.55v1h-3.55Z"/><path class="cls-3" d="M142.76,238.75h3.55v1h-3.55Z"/><path class="cls-3" d="M148.18,238.75h3.55v1h-3.55Z"/><path class="cls-3" d="M153.59,238.75h3.55v1h-3.55Z"/><path class="cls-3" d="M159,238.75h3.54v1H159Z"/><path class="cls-3" d="M164.42,238.75H168v1h-3.55Z"/><path class="cls-3" d="M169.84,238.75h3.54v1h-3.54Z"/><path class="cls-3" d="M175.25,238.75h3.55v1h-3.55Z"/><path class="cls-3" d="M180.67,238.75h3.54v1h-3.54Z"/><path class="cls-3" d="M186.08,238.75h3.55v1h-3.55Z"/><path class="cls-3" d="M191.49,238.75H195v1h-3.55Z"/><path class="cls-3" d="M196.91,238.75h3.54v1h-3.54Z"/><path class="cls-3" d="M202.32,238.75h3.55v1h-3.55Z"/><path class="cls-3" d="M207.74,238.75h3.54v1h-3.54Z"/><path class="cls-3" d="M213.15,238.75h3.55v1h-3.55Z"/><path class="cls-3" d="M218.57,238.75h3.54v1h-3.54Z"/><path class="cls-3" d="M224,238.75h3.55v1H224Z"/><path class="cls-3" d="M229.4,238.75h3.54v1H229.4Z"/><path class="cls-3" d="M234.81,238.75h3.55v1h-3.55Z"/><path class="cls-3" d="M240.22,238.75h3.55v1h-3.55Z"/><path class="cls-3" d="M245.64,238.75h3.54v1h-3.54Z"/><path class="cls-3" d="M251.05,238.75h3.55v1h-3.55Z"/><path class="cls-3" d="M256.47,238.75H260v1h-3.54Z"/><path class="cls-3" d="M261.88,238.75h3.55v1h-3.55Z"/><path class="cls-3" d="M267.3,238.75h3.54v1H267.3Z"/><path class="cls-3" d="M272.71,238.75h3.55v1h-3.55Z"/><polygon class="cls-4" points="164.06 124.6 156.8 124.6 156.8 112.15 149.54 112.15 149.54 123.56 143.32 123.56 143.32 195.1 149.54 195.1 149.54 204.44 156.8 204.44 156.8 195.1 164.06 195.1 164.06 124.6"/><polygon class="cls-2" points="135.03 74.83 127.77 74.83 127.77 62.38 120.51 62.38 120.51 73.79 113.25 73.79 113.25 120.45 120.51 120.45 120.51 129.78 127.77 129.78 127.77 120.45 135.03 120.45 135.03 74.83"/><polygon class="cls-4" points="44.82 153.63 37.56 153.63 37.56 142.22 30.3 142.22 30.3 153.63 23.04 153.63 23.04 227.25 30.3 227.25 30.3 236.58 37.56 236.58 37.56 227.25 44.82 227.25 44.82 153.63"/><polygon class="cls-4" points="194.13 159.85 186.87 159.85 186.87 147.41 179.61 147.41 179.61 159.85 172.35 159.85 172.35 225.17 179.61 225.17 179.61 234.5 186.87 234.5 186.87 225.17 194.13 225.17 194.13 159.85"/><polygon class="cls-2" points="223.16 73.79 215.9 73.79 215.9 61.35 209.68 61.35 209.68 73.79 202.42 73.79 202.42 166.07 208.65 166.07 208.65 175.4 215.9 175.4 215.9 166.07 223.16 166.07 223.16 73.79"/><polygon class="cls-4" points="270.86 139.11 270.86 126.67 263.6 126.67 263.6 139.11 257.38 139.11 257.38 267.68 257.38 269.76 262.04 269.76 269.25 269.76 278.12 269.76 278.12 139.11 270.86 139.11"/><rect class="cls-4" x="16.82" y="243.84" width="36.29" height="21.77" rx="4.2"/><path class="cls-5" d="M27.73,249.8a2.38,2.38,0,0,1,1.06.72,1.71,1.71,0,0,1,.38,1.1,1.79,1.79,0,0,1-.38,1.13,2,2,0,0,1-1,.66,2.07,2.07,0,0,1,1.24.71,2.12,2.12,0,0,1,.45,1.36,2,2,0,0,1-.39,1.22,2.48,2.48,0,0,1-1.1.8,4.77,4.77,0,0,1-1.68.27H22.21v-8.22h3.91A4.65,4.65,0,0,1,27.73,249.8Zm-1,2.8A.71.71,0,0,0,27,252a.68.68,0,0,0-.26-.58,1,1,0,0,0-.7-.19H24.36v1.59H26A1,1,0,0,0,26.7,252.6Zm.19,3.27a.76.76,0,0,0,.33-.66.71.71,0,0,0-.33-.61,1.47,1.47,0,0,0-.89-.22H24.36v1.73H26A1.47,1.47,0,0,0,26.89,255.87Z"/><path class="cls-5" d="M33.07,255.62a1.53,1.53,0,0,0,1.16.47,1.43,1.43,0,0,0,1.12-.46,1.74,1.74,0,0,0,.43-1.25v-4.83h2.15v4.83a3.75,3.75,0,0,1-.45,1.87,3,3,0,0,1-1.29,1.24,4.73,4.73,0,0,1-3.94,0,3.1,3.1,0,0,1-1.32-1.24,3.65,3.65,0,0,1-.46-1.87v-4.83h2.15v4.83A1.7,1.7,0,0,0,33.07,255.62Z"/><path class="cls-5" d="M46.68,249.55l-3,5.59v2.63H41.56V255.2l-3-5.65h2.15l1.94,3.53,1.9-3.53Z"/><rect class="cls-2" x="107.03" y="30.24" width="36.29" height="21.77" rx="4.2"/><path class="cls-5" d="M115.4,38.58a4.23,4.23,0,0,0-1.25-.24,1.23,1.23,0,0,0-.63.14.49.49,0,0,0-.23.43.59.59,0,0,0,.2.45,1.75,1.75,0,0,0,.5.3c.19.07.48.17.86.28a11.29,11.29,0,0,1,1.42.5,2.37,2.37,0,0,1,1,.75,2.09,2.09,0,0,1,.4,1.33,2.29,2.29,0,0,1-.43,1.41,2.74,2.74,0,0,1-1.19.87,4.79,4.79,0,0,1-1.69.29,6,6,0,0,1-2-.36,5.23,5.23,0,0,1-1.75-1l.83-1.67a5.13,5.13,0,0,0,1.47.9,3.93,3.93,0,0,0,1.51.35,1.44,1.44,0,0,0,.75-.17.57.57,0,0,0,.28-.52.61.61,0,0,0-.21-.47,1.56,1.56,0,0,0-.51-.3c-.21-.07-.5-.16-.88-.26a11.54,11.54,0,0,1-1.39-.48,2.56,2.56,0,0,1-.95-.72,2,2,0,0,1-.39-1.3,2.29,2.29,0,0,1,.41-1.34,2.52,2.52,0,0,1,1.15-.88,4.38,4.38,0,0,1,1.73-.31,6.24,6.24,0,0,1,1.76.25,6,6,0,0,1,1.52.67l-.81,1.72A7.42,7.42,0,0,0,115.4,38.58Z"/><path class="cls-5" d="M118.71,36.74h6.49v1.71h-4.34V40h3.92v1.7h-3.92v1.55h4.46V45h-6.61Z"/><path class="cls-5" d="M126.63,36.74h2.15v6.39h3.48V45h-5.63Z"/><path class="cls-5" d="M133.23,36.74h2.15v6.39h3.48V45h-5.63Z"/><rect class="cls-4" x="166.13" y="243.84" width="36.29" height="21.77" rx="4.2"/><path class="cls-5" d="M177,249.8a2.44,2.44,0,0,1,1.06.72,1.7,1.7,0,0,1,.37,1.1,1.74,1.74,0,0,1-.38,1.13,1.92,1.92,0,0,1-1,.66,2,2,0,0,1,1.24.71,2.12,2.12,0,0,1,.45,1.36,2,2,0,0,1-.38,1.22,2.46,2.46,0,0,1-1.11.8,4.68,4.68,0,0,1-1.67.27h-4.06v-8.22h3.9A4.67,4.67,0,0,1,177,249.8Zm-1,2.8a.74.74,0,0,0,.26-.6.71.71,0,0,0-.26-.58,1,1,0,0,0-.7-.19h-1.65v1.59h1.65A1,1,0,0,0,176,252.6Zm.19,3.27a.76.76,0,0,0,.33-.66.71.71,0,0,0-.33-.61,1.49,1.49,0,0,0-.89-.22h-1.65v1.73h1.65A1.49,1.49,0,0,0,176.15,255.87Z"/><path class="cls-5" d="M182.33,255.62a1.52,1.52,0,0,0,1.16.47,1.46,1.46,0,0,0,1.12-.46,1.74,1.74,0,0,0,.43-1.25v-4.83h2.14v4.83a3.75,3.75,0,0,1-.45,1.87,3,3,0,0,1-1.29,1.24,4.19,4.19,0,0,1-2,.43,4.31,4.31,0,0,1-2-.43,3.08,3.08,0,0,1-1.31-1.24,3.66,3.66,0,0,1-.47-1.87v-4.83h2.15v4.83A1.67,1.67,0,0,0,182.33,255.62Z"/><path class="cls-5" d="M195.93,249.55l-3,5.59v2.63h-2.15V255.2l-3-5.65h2.15l1.95,3.53,1.9-3.53Z"/><rect class="cls-2" x="195.17" y="30.24" width="36.29" height="21.77" rx="4.2"/><path class="cls-5" d="M203.12,38.58a4.23,4.23,0,0,0-1.25-.24,1.25,1.25,0,0,0-.63.14.49.49,0,0,0-.23.43.59.59,0,0,0,.2.45,1.75,1.75,0,0,0,.5.3c.19.07.48.17.86.28a10.74,10.74,0,0,1,1.42.5,2.37,2.37,0,0,1,.95.75,2.09,2.09,0,0,1,.4,1.33,2.29,2.29,0,0,1-.43,1.41,2.74,2.74,0,0,1-1.19.87,4.79,4.79,0,0,1-1.69.29,6,6,0,0,1-2-.36,5.23,5.23,0,0,1-1.75-1l.83-1.67a5.13,5.13,0,0,0,1.47.9,3.93,3.93,0,0,0,1.51.35,1.44,1.44,0,0,0,.75-.17.57.57,0,0,0,.28-.52.61.61,0,0,0-.21-.47,1.56,1.56,0,0,0-.51-.3c-.21-.07-.5-.16-.87-.26a11.17,11.17,0,0,1-1.4-.48,2.45,2.45,0,0,1-.94-.72,2,2,0,0,1-.4-1.3,2.29,2.29,0,0,1,.41-1.34,2.52,2.52,0,0,1,1.15-.88,4.38,4.38,0,0,1,1.73-.31,6.24,6.24,0,0,1,1.76.25,6,6,0,0,1,1.52.67l-.81,1.72A7.42,7.42,0,0,0,203.12,38.58Z"/><path class="cls-5" d="M206.43,36.74h6.49v1.71h-4.34V40h3.92v1.7h-3.92v1.55H213V45h-6.61Z"/><path class="cls-5" d="M214.35,36.74h2.15v6.39H220V45h-5.63Z"/><path class="cls-5" d="M221,36.74h2.15v6.39h3.48V45H221Z"/><rect class="cls-2" x="44.3" y="30.76" width="36.29" height="21.77" rx="4.2"/><path class="cls-5" d="M52.09,39.14a4,4,0,0,0-1.25-.25,1.13,1.13,0,0,0-.63.15.47.47,0,0,0-.23.42.63.63,0,0,0,.2.46,1.48,1.48,0,0,0,.49.29l.87.29A9.82,9.82,0,0,1,53,41a2.5,2.5,0,0,1,1,.76,2.07,2.07,0,0,1,.4,1.33,2.29,2.29,0,0,1-.44,1.4,2.54,2.54,0,0,1-1.19.87,4.49,4.49,0,0,1-1.68.3,6,6,0,0,1-2-.36,5.65,5.65,0,0,1-1.76-1L48,42.63a5.1,5.1,0,0,0,1.48.9,3.91,3.91,0,0,0,1.5.36,1.38,1.38,0,0,0,.76-.18.62.62,0,0,0,.07-1,1.4,1.4,0,0,0-.52-.3,7.91,7.91,0,0,0-.87-.27,9.68,9.68,0,0,1-1.39-.47,2.5,2.5,0,0,1-1-.73,2,2,0,0,1-.39-1.3,2.25,2.25,0,0,1,.4-1.33,2.59,2.59,0,0,1,1.15-.89A4.45,4.45,0,0,1,51,37.13a6.19,6.19,0,0,1,1.76.25,6,6,0,0,1,1.53.68l-.81,1.71A7.05,7.05,0,0,0,52.09,39.14Z"/><path class="cls-5" d="M55.4,37.29h6.49V39H57.55v1.53h3.91v1.7l-3.91,0V43.8H62v1.72H55.4Z"/><path class="cls-5" d="M63.32,37.29h2.14v6.4H69v1.83H63.32Z"/><path class="cls-5" d="M69.92,37.29h2.15v6.4h3.48v1.83H69.92Z"/><path class="cls-6" d="M301.68,96.88a17.47,17.47,0,0,0-.83,1.74,15.83,15.83,0,0,0-.66,1.86,13.9,13.9,0,0,0-.4,1.94,11.13,11.13,0,0,0-.09,2,6.06,6.06,0,0,0,.73,2.63,8.08,8.08,0,0,0,1.71,2.16,8.3,8.3,0,0,0,2.35,1.47,7,7,0,0,0,2.68.54,11.81,11.81,0,0,0,4.12-.78,11,11,0,0,0,2-1,7.36,7.36,0,0,0,1.7-1.5,6.82,6.82,0,0,0,1.62-4.55c0-1.18,0-2.59-.12-4.22s-.2-3.43-.34-5.39-.3-4.08-.47-6.34-.35-4.62-.53-7.06c-.06-.81-.13-1.68-.2-2.59s-.15-1.85-.23-2.81-.15-1.91-.23-2.86-.17-1.88-.24-2.78l9-2.09.18,4.86v0c.07,1.68.14,3.32.2,4.93l.18,4.84q.1,2.88.21,6t.19,6c.06,1.94.11,3.74.14,5.42s0,3.09,0,4.24a18.89,18.89,0,0,1-.76,5.61,15.65,15.65,0,0,1-2.06,4.31,14,14,0,0,1-3,3.16,17.34,17.34,0,0,1-3.65,2.1,18.45,18.45,0,0,1-3.93,1.17,22,22,0,0,1-3.87.36,16.77,16.77,0,0,1-3.42-.37,16.09,16.09,0,0,1-6.75-3.17,13.49,13.49,0,0,1-2.71-2.92,14,14,0,0,1-1.82-3.86,15.87,15.87,0,0,1-.62-4.88,28.16,28.16,0,0,1,1.35-8.54c.17-.48.36-1,.58-1.46s.46-1,.73-1.53Z"/><path class="cls-6" d="M339.25,105.37a14.66,14.66,0,0,1-5.2-.82,9.13,9.13,0,0,1-3.47-2.28,8.79,8.79,0,0,1-1.94-3.42,14.4,14.4,0,0,1-.61-4.29c0-2,0-4.06,0-6.11s0-4.09,0-6.16-.11-4.14-.23-6.23-.36-4.22-.69-6.37l8.45-2.56a50,50,0,0,1,.81,6.16c.15,2.12.23,4.26.26,6.41s0,4.3-.05,6.41-.08,4.15-.08,6.11c0,.67,0,1.28,0,1.83a3.57,3.57,0,0,0,.25,1.37,1.62,1.62,0,0,0,.8.83,3.46,3.46,0,0,0,1.67.2h.61v8.92Z"/><path class="cls-6" d="M339,96.45h6.36a7.82,7.82,0,0,0,2.34-.29,4,4,0,0,0,1.35-.72,2.15,2.15,0,0,0,.62-.93,3.13,3.13,0,0,0,.15-.9,3.81,3.81,0,0,0-.41-1.52,15.46,15.46,0,0,0-1.09-2c-.46-.7-1-1.45-1.59-2.23s-1.22-1.56-1.87-2.34-1.29-1.54-1.94-2.28-1.25-1.44-1.82-2.09l.9-7.68,20.7-8.74L366,72.64l-16.4,6.76a35.28,35.28,0,0,1,3.62,4.29c1,1.4,1.84,2.74,2.58,4s1.4,2.43,2,3.5A17.72,17.72,0,0,0,359.67,94a7.59,7.59,0,0,0,2.24,1.83,6.68,6.68,0,0,0,3.08.65h1.64v8.92h-.7a17.38,17.38,0,0,1-5.59-.87,13.21,13.21,0,0,1-4.7-2.78,9.81,9.81,0,0,1-2,1.68,11.27,11.27,0,0,1-2.26,1.11,13,13,0,0,1-2.41.63,17,17,0,0,1-2.45.23H339Z"/><path class="cls-6" d="M385.82,96.45v8.92h-.5a13.15,13.15,0,0,1-2.14-.18,11.72,11.72,0,0,1-2-.53,8.14,8.14,0,0,1-1.75-.86,4.1,4.1,0,0,1-1.2-1.13,5.45,5.45,0,0,1-1.69,1.22,12.4,12.4,0,0,1-2.32.84,20.18,20.18,0,0,1-2.77.48,27.15,27.15,0,0,1-3,.16h-2.68V96.45h2.68c1,0,1.8,0,2.51-.07a6.2,6.2,0,0,0,1.8-.34,2.41,2.41,0,0,0,1.12-.78,3,3,0,0,0,.48-1.42,9.27,9.27,0,0,0-.08-2.24c-.12-.9-.31-2-.58-3.24l8-2q.19.86.39,2t.33,2.43c.09.84.14,1.65.15,2.44a10.7,10.7,0,0,1-.11,2,1.56,1.56,0,0,0,.6.69,2.88,2.88,0,0,0,.82.33,5.14,5.14,0,0,0,.82.13l.64,0Zm-11.08,14.62-4.24,4.23L366.14,111l4.32-4.34,4.28,4.28,4.23-4.24,4.37,4.35L379,115.35Z"/><path class="cls-6" d="M401.7,96.45v8.92h-.5a9.75,9.75,0,0,1-3.8-.71,5.63,5.63,0,0,1-2.57-2,7.49,7.49,0,0,1-3.66,2.06,21.21,21.21,0,0,1-5.42.64h-.85V96.45h.85c1,0,1.79,0,2.47-.07a5,5,0,0,0,1.66-.34,1.91,1.91,0,0,0,.95-.78,3.07,3.07,0,0,0,.33-1.42,11.89,11.89,0,0,0-.22-2.24c-.15-.9-.37-2-.64-3.24l8-2q.21.86.39,2t.33,2.43c.09.84.14,1.65.16,2.44a10.6,10.6,0,0,1-.12,2,2.1,2.1,0,0,0,.48.69,1.72,1.72,0,0,0,.56.33,2.5,2.5,0,0,0,.56.13l.52,0ZM392.08,83l-5-5,5-5,5,5Z"/><path class="cls-6" d="M400.8,96.45h6.35a7.82,7.82,0,0,0,2.34-.29,3.85,3.85,0,0,0,1.35-.72,2.06,2.06,0,0,0,.62-.93,3.13,3.13,0,0,0,.15-.9,3.81,3.81,0,0,0-.41-1.52,15.46,15.46,0,0,0-1.09-2c-.46-.7-1-1.45-1.59-2.23s-1.22-1.56-1.87-2.34-1.29-1.54-1.93-2.28l-1.83-2.09.9-7.68,20.7-8.74,3.31,7.86L411.4,79.4A34.4,34.4,0,0,1,415,83.69c1,1.4,1.84,2.74,2.58,4s1.4,2.43,2,3.5A17.08,17.08,0,0,0,421.5,94a7.46,7.46,0,0,0,2.24,1.83,6.61,6.61,0,0,0,3.07.65h1.64v8.92h-.69a17.39,17.39,0,0,1-5.6-.87,13.21,13.21,0,0,1-4.7-2.78,9.81,9.81,0,0,1-2,1.68,11,11,0,0,1-2.26,1.11,12.77,12.77,0,0,1-2.41.63,17,17,0,0,1-2.45.23H400.8Z"/><path class="cls-6" d="M427.55,96.45h4.55c.36,0,.78,0,1.24,0s.94-.07,1.43-.14,1-.16,1.44-.27a6.2,6.2,0,0,0,1.26-.42,3,3,0,0,0,.89-.56,1,1,0,0,0,.34-.75,4.42,4.42,0,0,0-.37-1.43c-.25-.63-.57-1.37-1-2.2s-.82-1.73-1.28-2.67-.92-1.88-1.38-2.79l8.07-4c.45,1,.89,2.12,1.31,3.24s.81,2.25,1.14,3.38a33.41,33.41,0,0,1,.8,3.33,17.38,17.38,0,0,1,.31,3.09,10.86,10.86,0,0,1-1.09,5.06,9.57,9.57,0,0,1-2.95,3.45,12.78,12.78,0,0,1-4.4,2,22.47,22.47,0,0,1-5.44.64h-4.91Zm10.5-22.34-4.24,4.23L429.44,74l4.33-4.35,4.28,4.28,4.23-4.24L446.65,74l-4.32,4.35Z"/><path class="cls-6" d="M472.8,96.88a17.47,17.47,0,0,0-.83,1.74,15.83,15.83,0,0,0-.66,1.86,13.9,13.9,0,0,0-.4,1.94,11.13,11.13,0,0,0-.09,2,6.06,6.06,0,0,0,.73,2.63,8.08,8.08,0,0,0,1.71,2.16,8.3,8.3,0,0,0,2.35,1.47,7,7,0,0,0,2.68.54,11.81,11.81,0,0,0,4.12-.78,11.48,11.48,0,0,0,2-1,7.31,7.31,0,0,0,1.69-1.5,6.88,6.88,0,0,0,1.61-4.55c0-1.18,0-2.59-.13-4.22s-.18-3.43-.31-5.39-.28-4.08-.45-6.34-.35-4.62-.53-7.06c-.06-.81-.13-1.68-.2-2.59s-.15-1.85-.23-2.81-.15-1.91-.23-2.86-.17-1.88-.24-2.78l9-2.09.18,4.86v0c.07,1.68.14,3.32.2,4.93l.18,4.84c.07,1.88.14,3.8.2,5.77s.12,3.9.18,5.79a7.52,7.52,0,0,0,.28,1.11,3.92,3.92,0,0,0,.5,1,2.47,2.47,0,0,0,.74.7,1.93,1.93,0,0,0,1,.27h.45v8.92h-.45a9.17,9.17,0,0,1-1.16-.08,5.16,5.16,0,0,1-1.25-.33,17.2,17.2,0,0,1-1,5.07,15.11,15.11,0,0,1-2.18,3.92,14.32,14.32,0,0,1-3,2.87,16.83,16.83,0,0,1-3.53,1.92,20,20,0,0,1-3.77,1.07,21.9,21.9,0,0,1-3.7.33,16.77,16.77,0,0,1-3.42-.37,16.09,16.09,0,0,1-6.75-3.17,13.21,13.21,0,0,1-2.7-2.92,13.77,13.77,0,0,1-1.83-3.86,15.87,15.87,0,0,1-.62-4.88,28.16,28.16,0,0,1,1.35-8.54c.17-.48.36-1,.58-1.46s.46-1,.73-1.53Z"/><path class="cls-6" d="M517.51,96.45v8.92H517a13,13,0,0,1-2.14-.18,12.07,12.07,0,0,1-2-.53,7.84,7.84,0,0,1-1.74-.86,4.27,4.27,0,0,1-1.21-1.13,5.45,5.45,0,0,1-1.69,1.22,11.9,11.9,0,0,1-2.32.84,19.92,19.92,0,0,1-2.77.48,27.1,27.1,0,0,1-3,.16h-2.68V96.45h2.68c1,0,1.79,0,2.51-.07a6.27,6.27,0,0,0,1.8-.34,2.32,2.32,0,0,0,1.11-.78,2.91,2.91,0,0,0,.49-1.42,9.27,9.27,0,0,0-.08-2.24c-.12-.9-.32-2-.59-3.24l8-2c.14.57.27,1.25.4,2s.23,1.6.32,2.43.14,1.65.16,2.44a11.64,11.64,0,0,1-.11,2,1.48,1.48,0,0,0,.59.69,2.94,2.94,0,0,0,.83.33,5,5,0,0,0,.82.13l.64,0Zm-11.09,14.62-4.23,4.23L497.82,111l4.33-4.34,4.27,4.28,4.24-4.24L515,111l-4.33,4.35Z"/><path class="cls-6" d="M516.6,96.45h1.47a2.45,2.45,0,0,0,2.58-1.85,7.18,7.18,0,0,0,.29-1.92c0-.73,0-1.49,0-2.29,0-1,0-2.16,0-3.38s0-2.48-.07-3.79-.06-2.64-.1-4-.07-2.63-.11-3.88-.08-2.44-.12-3.56-.09-2.11-.12-3l9-1.62.27,27.17a2.23,2.23,0,0,0,.49,1.54,1.79,1.79,0,0,0,1.43.55h.49v8.92h-.47a8.47,8.47,0,0,1-1.73-.14,8.61,8.61,0,0,1-1.69-.47,8.24,8.24,0,0,1-1.51-.77,6.08,6.08,0,0,1-1.22-1,6.43,6.43,0,0,1-2.8,1.73,14.16,14.16,0,0,1-4.68.66H516.6Z"/><path class="cls-6" d="M531.2,96.45H536a49.88,49.88,0,0,0,6.07-.36,54.53,54.53,0,0,0,5.61-1,50.06,50.06,0,0,0,5-1.4c1.58-.52,3-1.08,4.37-1.66q-1.14-.44-2.55-.93c-.94-.33-1.91-.64-2.9-.93s-2-.54-3-.73a14.26,14.26,0,0,0-2.82-.3,5,5,0,0,0-1.88.41,11.59,11.59,0,0,0-1.82,1,11.38,11.38,0,0,0-1.45,1.07,3.26,3.26,0,0,0-.75.8l-6.37-4.1a18.77,18.77,0,0,1,2.3-3.24,15.61,15.61,0,0,1,2.87-2.54,13.9,13.9,0,0,1,3.36-1.68,11.68,11.68,0,0,1,3.74-.61,13.6,13.6,0,0,1,3.55.48,29.82,29.82,0,0,1,3.57,1.18c1.19.47,2.37,1,3.56,1.55s2.37,1.1,3.54,1.59a34,34,0,0,0,3.47,1.27,12.66,12.66,0,0,0,3.37.6l-.67,8.38-.52.27-.5.25a7.26,7.26,0,0,0,2.1.55c.69.07,1.23.1,1.62.1h.77v8.92h-.77a17.84,17.84,0,0,1-7.17-1.38,13.59,13.59,0,0,1-5.26-3.89c-1.86.85-3.64,1.61-5.33,2.26a52.23,52.23,0,0,1-5,1.66,37.14,37.14,0,0,1-4.95,1,38,38,0,0,1-5.22.34H531.2Z"/><path class="cls-6" d="M568.76,96.45h4.55c.36,0,.78,0,1.24,0a14.11,14.11,0,0,0,1.43-.14q.74-.11,1.44-.27a6.52,6.52,0,0,0,1.27-.42,3.31,3.31,0,0,0,.89-.56,1,1,0,0,0,.33-.75,4.42,4.42,0,0,0-.37-1.43c-.25-.63-.57-1.37-1-2.2s-.81-1.73-1.28-2.67l-1.37-2.79,8.06-4q.68,1.56,1.32,3.24c.43,1.13.8,2.25,1.13,3.38a33.41,33.41,0,0,1,.8,3.33,16.5,16.5,0,0,1,.31,3.09,11,11,0,0,1-1.08,5.06,9.67,9.67,0,0,1-3,3.45,12.92,12.92,0,0,1-4.41,2,22.47,22.47,0,0,1-5.44.64h-4.91Zm10.5-22.34L575,78.34,570.66,74,575,69.65l4.28,4.28,4.23-4.24L587.86,74l-4.32,4.35Z"/><path class="cls-6" d="M299,175.83a12.3,12.3,0,0,0-1.64,3.61,14.92,14.92,0,0,0-.52,3.89,5.4,5.4,0,0,0,.71,2.76,7.05,7.05,0,0,0,1.83,2,8.48,8.48,0,0,0,2.46,1.28,8.58,8.58,0,0,0,2.63.44,9.06,9.06,0,0,0,2.7-.44,7.84,7.84,0,0,0,2.57-1.39,7.38,7.38,0,0,0,1.92-2.45,8,8,0,0,0,.75-3.62c0-1,0-2.16-.06-3.5s-.08-2.76-.14-4.28-.12-3.06-.2-4.67-.15-3.17-.22-4.7c-.09-1.79-.19-3.66-.31-5.61s-.24-3.91-.35-5.86l4.91-.92q.14,3.08.27,6.12c.1,2,.17,4,.24,5.84,0,1.59.1,3.22.16,4.89s.1,3.28.15,4.84.08,3,.11,4.39.05,2.55.05,3.54a14.79,14.79,0,0,1-.56,4.23,12.07,12.07,0,0,1-1.49,3.26,10.41,10.41,0,0,1-2.19,2.38,13.38,13.38,0,0,1-2.64,1.6,12.73,12.73,0,0,1-2.81.89,14.77,14.77,0,0,1-2.74.27,13.21,13.21,0,0,1-2.65-.28,14.62,14.62,0,0,1-2.73-.86,12.65,12.65,0,0,1-2.58-1.5,10.53,10.53,0,0,1-2.15-2.17A10,10,0,0,1,293,187a11,11,0,0,1-.53-3.51v-.14a23.12,23.12,0,0,1,.14-2.46,20.43,20.43,0,0,1,.45-2.48,17.42,17.42,0,0,1,.75-2.35,10.24,10.24,0,0,1,1.11-2.07Z"/><path class="cls-6" d="M331.54,182.34h-.75a8,8,0,0,1-5.79-1.92q-2-1.92-2-5.79c0-.4,0-1.07,0-2s0-2,0-3.37c0-.79,0-1.64,0-2.55s0-1.84-.05-2.78-.06-1.9-.11-2.84-.1-1.87-.16-2.75-.14-1.71-.22-2.48-.19-1.45-.3-2l4.72-1.41c.13.72.26,1.61.37,2.66s.22,2.16.3,3.35.16,2.41.2,3.64.07,2.4.07,3.49c0,.67,0,1.37,0,2.12s0,1.4,0,2,0,.93,0,1.35,0,.82,0,1.21,0,.77,0,1.15,0,.76,0,1.15v.3A4.39,4.39,0,0,0,328,176a1.8,1.8,0,0,0,.5.87,2,2,0,0,0,.91.5,5,5,0,0,0,1.29.15h.84Z"/><path class="cls-6" d="M347.57,177.52v4.82h-.38a7.26,7.26,0,0,1-3.08-.59,7,7,0,0,1-2.15-1.5,3.8,3.8,0,0,1-1.83,1.21,13.73,13.73,0,0,1-2.7.62,27.51,27.51,0,0,1-3.06.23l-2.88,0h-.7v-4.82h.7a22.7,22.7,0,0,0,3.7-.25,8.51,8.51,0,0,0,2.44-.74,3.12,3.12,0,0,0,1.34-1.24,3.4,3.4,0,0,0,.41-1.72,8.2,8.2,0,0,0-.24-1.7c-.16-.71-.41-1.62-.73-2.74l4.62-1.29c.17.55.3,1,.39,1.45s.17.84.22,1.26.11.88.15,1.36.1,1.05.15,1.72a5.56,5.56,0,0,0,.28,1.29,4.65,4.65,0,0,0,.63,1.26,3.89,3.89,0,0,0,1,1,2.46,2.46,0,0,0,1.36.38Zm-8.35-16.66-3.2,3.2-3.24-3.22,3.2-3.21Zm7.1,0-3.19,3.21-3.24-3.23,3.2-3.2Z"/><path class="cls-6" d="M363.59,177.52v4.82h-.38a7.29,7.29,0,0,1-3.08-.59,7,7,0,0,1-2.15-1.5,3.8,3.8,0,0,1-1.83,1.21,13.73,13.73,0,0,1-2.7.62,27.51,27.51,0,0,1-3.06.23l-2.88,0h-.7v-4.82h.7a22.7,22.7,0,0,0,3.7-.25,8.41,8.41,0,0,0,2.44-.74,3.12,3.12,0,0,0,1.34-1.24,3.4,3.4,0,0,0,.42-1.72,7.69,7.69,0,0,0-.25-1.7c-.16-.71-.41-1.62-.73-2.74l4.62-1.29c.17.55.3,1,.39,1.45s.17.84.23,1.26.1.88.15,1.36.09,1.05.14,1.72a6.13,6.13,0,0,0,.28,1.29,4.65,4.65,0,0,0,.63,1.26,3.77,3.77,0,0,0,1,1,2.45,2.45,0,0,0,1.35.38Zm-9.78,10.38-3.2,3.2-3.23-3.22,3.19-3.21Zm7.11,0-3.2,3.22-3.23-3.24,3.19-3.19Z"/><path class="cls-6" d="M362.83,177.52h3.82a24.08,24.08,0,0,0,4.67-.46,41.25,41.25,0,0,0,4.62-1.2q2.28-.75,4.42-1.68c1.43-.62,2.78-1.24,4.05-1.87a7.64,7.64,0,0,1-1.61-.38c-.56-.2-1.13-.42-1.72-.68s-1.2-.53-1.81-.82-1.23-.55-1.84-.78a18.77,18.77,0,0,0-1.85-.58,7.29,7.29,0,0,0-1.82-.24,3.49,3.49,0,0,0-1.32.26,5.67,5.67,0,0,0-1.19.64,6.78,6.78,0,0,0-1,.83c-.29.31-.54.58-.75.84a8,8,0,0,0-.48.65l-.19.26-3.76-2.05a12.69,12.69,0,0,1,1.67-2.38,14.84,14.84,0,0,1,2.19-2,11.94,11.94,0,0,1,2.43-1.39,6.42,6.42,0,0,1,2.4-.52,9.14,9.14,0,0,1,1.93.22,16.47,16.47,0,0,1,1.95.57c.66.24,1.33.51,2,.81l2.06.92c.72.35,1.52.7,2.38,1.05s1.76.65,2.68.92a26.79,26.79,0,0,0,2.75.66,14.52,14.52,0,0,0,2.64.25l-.81,4.59c-.47.2-.93.42-1.37.65s-.89.45-1.35.67a2.82,2.82,0,0,0,1.13,1.24,6.26,6.26,0,0,0,1.58.67,8.93,8.93,0,0,0,1.62.29c.52,0,.93.05,1.23.05h.76v4.82h-.76a13.91,13.91,0,0,1-6.24-1.28,7.83,7.83,0,0,1-3.69-3.63c-1.26.63-2.57,1.23-3.93,1.82a39.71,39.71,0,0,1-4.21,1.57,34.2,34.2,0,0,1-4.54,1.1,28,28,0,0,1-4.92.42h-3.82ZM382,188.45l-3.61,3.61-3.59-3.61,3.59-3.59Z"/><path class="cls-6" d="M394.18,177.52h4a18.83,18.83,0,0,0,1.91-.1A7.64,7.64,0,0,0,402,177a3.86,3.86,0,0,0,1.45-1,2.37,2.37,0,0,0,.57-1.66,6.43,6.43,0,0,0-.21-1.37c-.14-.59-.32-1.24-.54-2s-.5-1.45-.8-2.22-.63-1.47-1-2.14l4.34-2.14c.32.71.63,1.47.94,2.27a25.62,25.62,0,0,1,.84,2.47,26.06,26.06,0,0,1,.59,2.55,14.53,14.53,0,0,1,.23,2.5,7.82,7.82,0,0,1-.81,3.71,6.83,6.83,0,0,1-2.21,2.47,9.36,9.36,0,0,1-3.27,1.38,17.64,17.64,0,0,1-4,.44h-4Zm7,10.38-3.2,3.2-3.23-3.22,3.19-3.21Zm7.11,0-3.2,3.22-3.23-3.24,3.19-3.19Z"/><path class="cls-6" d="M413.53,175a17.55,17.55,0,0,0,1.72.92c.68.31,1.37.59,2.09.84a20.31,20.31,0,0,0,2.13.62,7.73,7.73,0,0,0,1.83.25l.79,0c.31,0,.65,0,1-.08a9.75,9.75,0,0,0,1.05-.21,3.88,3.88,0,0,0,.95-.4,2.23,2.23,0,0,0,.69-.64,1.75,1.75,0,0,0,.28-.95v-.05a4.26,4.26,0,0,0-.42-1.7,12.47,12.47,0,0,0-1.16-2,21.82,21.82,0,0,0-1.69-2.09c-.64-.71-1.31-1.38-2-2s-1.38-1.24-2.08-1.78a20,20,0,0,0-1.94-1.38l2.8-4.16a35.55,35.55,0,0,1,3.41,2.67,30,30,0,0,1,3.11,3.17,24.16,24.16,0,0,1,2.46,3.51,14.2,14.2,0,0,1,1.5,3.68,9.44,9.44,0,0,1,.24,2,9.18,9.18,0,0,1-.35,2.26,5.87,5.87,0,0,1-1.57,2.58,7.9,7.9,0,0,1-3.1,2,10.39,10.39,0,0,1-3.56.58c-.21,0-.43,0-.65,0a13.58,13.58,0,0,1-2.52-.23,17.78,17.78,0,0,1-2.51-.65,20.55,20.55,0,0,1-2.37-.95,20.1,20.1,0,0,1-2.12-1.14Z"/><path class="cls-6" d="M470.48,165.58a9.86,9.86,0,0,1,1.73-.22,3.93,3.93,0,0,1,.49,0,11.46,11.46,0,0,1,1.36.09,8.63,8.63,0,0,1,1.58.36,9.43,9.43,0,0,1,1.61.67L475.54,171a7.67,7.67,0,0,0-2-.58,6.62,6.62,0,0,0-.88-.06,7.42,7.42,0,0,0-1.24.11,4.3,4.3,0,0,0-1.37.38,7.92,7.92,0,0,0-1.46.82,10.51,10.51,0,0,0-1.39,1.14,9.49,9.49,0,0,0-1.18,1.38,7.46,7.46,0,0,0-.82,1.48,4.05,4.05,0,0,0-.31,1.48,1.91,1.91,0,0,0,.39,1.27,2.89,2.89,0,0,0,1,.75,7.8,7.8,0,0,0,1.5.47q.84.18,1.77.42c.75.18,1.51.38,2.27.6a7.83,7.83,0,0,1,2.07.94,4.46,4.46,0,0,1,1.47,1.55,4.26,4.26,0,0,1,.47,2.08c0,.12,0,.24,0,.36a8.68,8.68,0,0,1-.9,3.49,9.06,9.06,0,0,1-2,2.62,11.87,11.87,0,0,1-2.88,1.86,20.3,20.3,0,0,1-3.39,1.19,25.43,25.43,0,0,1-3.57.64c-1.2.12-2.35.19-3.44.19a19.6,19.6,0,0,1-6.05-.89,12.19,12.19,0,0,1-4.61-2.62,9.89,9.89,0,0,1-2.73-4.34,11.61,11.61,0,0,1-.56-3.74,17.59,17.59,0,0,1,.15-2.25c.1-.83.23-1.67.41-2.52s.36-1.68.56-2.48.41-1.55.62-2.26.41-1.34.59-1.88.32-1,.45-1.32.2-.53.22-.58l4.14,1.67c-.3.94-.58,1.82-.83,2.64s-.47,1.63-.67,2.42-.38,1.58-.54,2.38-.29,1.64-.4,2.53a9.94,9.94,0,0,0-.08,1.2,7.15,7.15,0,0,0,.52,2.66,5.61,5.61,0,0,0,1.78,2.35,8.5,8.5,0,0,0,3.08,1.54,14.88,14.88,0,0,0,3.95.5,27,27,0,0,0,4.65-.38,19,19,0,0,0,3.75-1,9.06,9.06,0,0,0,2.53-1.44,2.7,2.7,0,0,0,1.07-1.64c0-.11-.13-.22-.36-.32a5.94,5.94,0,0,0-.85-.29c-.34-.1-.71-.19-1.12-.28l-1.17-.3a28.26,28.26,0,0,1-2.93-.89,8.14,8.14,0,0,1-2.36-1.31,5.62,5.62,0,0,1-1.56-2.05,7.61,7.61,0,0,1-.56-3.12,12.42,12.42,0,0,1,.86-4,13.69,13.69,0,0,1,2.08-3.57,13.17,13.17,0,0,1,3.06-2.75A11.32,11.32,0,0,1,470.48,165.58Z"/><path class="cls-6" d="M490.07,182.34h-.75a8,8,0,0,1-5.79-1.92c-1.32-1.28-2-3.21-2-5.79,0-.4,0-1.07,0-2s0-2,0-3.37c0-.79,0-1.64,0-2.55s0-1.84-.06-2.78-.06-1.9-.1-2.84-.1-1.87-.16-2.75-.14-1.71-.23-2.48-.18-1.45-.3-2l4.72-1.41c.14.72.27,1.61.38,2.66s.21,2.16.3,3.35.15,2.41.2,3.64.06,2.4.06,3.49c0,.67,0,1.37,0,2.12s0,1.4,0,2,0,.93,0,1.35,0,.82,0,1.21,0,.77,0,1.15,0,.76,0,1.15v.3a4.39,4.39,0,0,0,.14,1.2,1.8,1.8,0,0,0,.5.87,1.92,1.92,0,0,0,.91.5,5,5,0,0,0,1.29.15h.84Z"/><path class="cls-6" d="M489.32,177.52h1.48c.3,0,.6,0,.89,0l.91-.06,1.18-.07a8.17,8.17,0,0,1-1.37-2.59,9.72,9.72,0,0,1-.44-2.88,9.56,9.56,0,0,1,.23-2.06,8.56,8.56,0,0,1,.67-1.94,8.47,8.47,0,0,1,1.12-1.72,7.54,7.54,0,0,1,1.55-1.37,1.92,1.92,0,0,1-.42-.17l-.86-.45,2.81-4.57a2.24,2.24,0,0,1,.52.22l1.17.57,1.63.82c.6.31,1.23.62,1.89.94l2,.95q1,.47,1.83.84l3.08,1.4c.89.4,1.68.8,2.38,1.2a14.36,14.36,0,0,1,1.86,1.26,10.4,10.4,0,0,1,1.55,1.56,7.54,7.54,0,0,1,1.56,3.09,7.63,7.63,0,0,1,.23,1.82,9.34,9.34,0,0,1-.25,1.92,7.32,7.32,0,0,1-1.23,2.59,8.23,8.23,0,0,1-2.58,2.39,6.12,6.12,0,0,1-1.33.55,15.57,15.57,0,0,1-1.63.37c-.58.1-1.14.18-1.7.23s-1.05.07-1.47.07-1.12,0-1.76-.06-1.3-.12-2-.22-1.3-.22-1.93-.38a10.57,10.57,0,0,1-1.67-.54A22.35,22.35,0,0,1,495,182a43.92,43.92,0,0,1-5.3.3h-.36Zm10.83-10.19-.3,0a2.35,2.35,0,0,0-1.22.4,4.67,4.67,0,0,0-1.2,1.16,5.78,5.78,0,0,0-.85,1.68,4.44,4.44,0,0,0-.25,1.39c0,.14,0,.27,0,.39a4.72,4.72,0,0,0,.33,1.22,5.45,5.45,0,0,0,.64,1.16,4.93,4.93,0,0,0,.88.94,2.84,2.84,0,0,0,1.05.57,6.17,6.17,0,0,0,1.44-.51,4.58,4.58,0,0,0,1.24-.93,5.26,5.26,0,0,0,.95-1.42,6.82,6.82,0,0,0,.54-2,3.78,3.78,0,0,0,0-.56,3.12,3.12,0,0,0-.26-1.23,3.5,3.5,0,0,0-.78-1.11,4.1,4.1,0,0,0-1.14-.79A3.91,3.91,0,0,0,500.15,167.33Zm8,3.65a10.88,10.88,0,0,1-.57,3.47,10.15,10.15,0,0,1-1.7,3.11l.62.06h.58a8.68,8.68,0,0,0,2.23-.27,6.89,6.89,0,0,0,1.78-.72,3.7,3.7,0,0,0,1.18-1.06,2.13,2.13,0,0,0,.44-1.27,2.52,2.52,0,0,0-.37-1.24,5.88,5.88,0,0,0-1-1.26,9.53,9.53,0,0,0-1.47-1.16,14.19,14.19,0,0,0-1.8-1l.06.67C508.12,170.54,508.12,170.76,508.12,171Z"/><path class="cls-6" d="M528.77,169.83l.78,2.47c.27.86.52,1.73.74,2.61s.39,1.75.53,2.62a16,16,0,0,1,.21,2.55,10.54,10.54,0,0,1-.52,3.3,14,14,0,0,1-1.43,3.1,17.53,17.53,0,0,1-2.16,2.85,25.46,25.46,0,0,1-2.72,2.56,30.61,30.61,0,0,1-3.1,2.24,35.16,35.16,0,0,1-3.31,1.86l-2.14-4.31c.89-.44,1.77-.92,2.63-1.45s1.69-1.11,2.47-1.71a21.2,21.2,0,0,0,2.18-1.9,13.6,13.6,0,0,0,1.73-2.06,9.82,9.82,0,0,0,1.14-2.2,6.56,6.56,0,0,0,.42-2.28,11.49,11.49,0,0,0-.25-2.26c-.16-.79-.36-1.57-.59-2.34s-.47-1.51-.72-2.23-.44-1.34-.61-1.9Zm.59-8-3.61,3.61-3.6-3.61,3.6-3.59Z"/><path class="cls-6" d="M542.67,169.83l.78,2.47c.27.86.51,1.73.73,2.61s.4,1.75.54,2.62a16,16,0,0,1,.21,2.55,10.84,10.84,0,0,1-.52,3.3,14,14,0,0,1-1.43,3.1,18.12,18.12,0,0,1-2.16,2.85,26.45,26.45,0,0,1-2.72,2.56,31.78,31.78,0,0,1-3.1,2.24,36.47,36.47,0,0,1-3.31,1.86l-2.15-4.31c.89-.44,1.77-.92,2.64-1.45s1.69-1.11,2.47-1.71a22.31,22.31,0,0,0,2.18-1.9,13.6,13.6,0,0,0,1.73-2.06,10.73,10.73,0,0,0,1.14-2.2,6.54,6.54,0,0,0,.41-2.28,11.44,11.44,0,0,0-.24-2.26c-.16-.79-.36-1.57-.59-2.34s-.47-1.51-.72-2.23-.45-1.34-.61-1.9Z"/><path class="cls-6" d="M553.48,152.42c.32,2.39.54,4.68.66,6.85s.2,4.31.23,6.39c0,1.76,0,3.4,0,4.9s0,2.91,0,4.21-.06,2.51-.11,3.63-.1,2.17-.15,3.15l-4.93.75c.26-4.14.39-7.79.39-11,0-1.27,0-2.47,0-3.59-.1-2.57-.22-5-.34-7.25s-.3-4.42-.51-6.49Z"/><g id="Layer_2-2" data-name="Layer 2-2"><path class="cls-7" d="M561.09,287.91a1.87,1.87,0,0,1-1.62-2.81l7.18-12.43a1.87,1.87,0,0,1,2.56-.69,1.89,1.89,0,0,1,.69,2.57L562.72,287A1.87,1.87,0,0,1,561.09,287.91Z"/><path class="cls-7" d="M551.84,287.91a1.87,1.87,0,0,1-1.63-2.81l16.44-28.48a1.87,1.87,0,0,1,2.56-.68,1.8,1.8,0,0,1,.69.68l15.43,26.73a3,3,0,0,1-2.63,4.56H570.35a1.87,1.87,0,0,1-1.62-2.81l2.55-4.43a1.88,1.88,0,0,1,3.25,1.88l-.92,1.61h7.86l-13.19-22.85L553.46,287A1.87,1.87,0,0,1,551.84,287.91Z"/></g><path class="cls-7" d="M432.28,280.93a5.38,5.38,0,0,1-1.14-.13,4.09,4.09,0,0,1-1-.4,4.51,4.51,0,0,1-.88-.62,4,4,0,0,1-.7-.83,5.21,5.21,0,0,1-.26-.48,4,4,0,0,1-.23-.62,5,5,0,0,1-.17-.76,6.61,6.61,0,0,1-.07-.92,5.48,5.48,0,0,1,.07-.88,6.61,6.61,0,0,1,.19-1c.09-.34.21-.71.35-1.1s.33-.81.55-1.26l1.7.81a12,12,0,0,0-.74,1.84,5.63,5.63,0,0,0-.25,1.57,3.31,3.31,0,0,0,.45,1.76,2.43,2.43,0,0,0,.41.44,2.89,2.89,0,0,0,.51.35,2.49,2.49,0,0,0,.59.23,2.29,2.29,0,0,0,.64.08h.39a4.78,4.78,0,0,0,1.55-.2,2.15,2.15,0,0,0,.93-.56,1.92,1.92,0,0,0,.46-.87,5.08,5.08,0,0,0,.12-1.15V263.74h1.87V273a1.35,1.35,0,0,0,.19.53,1.32,1.32,0,0,0,.34.4,1.61,1.61,0,0,0,.46.26,1.7,1.7,0,0,0,.54.09h.41v1.88h-.41a3.88,3.88,0,0,1-.82-.09,2.16,2.16,0,0,1-.71-.29v.48q0,4.65-4.93,4.67Z"/><path class="cls-7" d="M448.69,274.28v1.88h-1.37A4.19,4.19,0,0,1,446,276a2.5,2.5,0,0,1-1-.62,3.08,3.08,0,0,1-1.13.62,5.06,5.06,0,0,1-1.51.21h-3.11v-1.88h3.11a3.18,3.18,0,0,0,.91-.11,1.37,1.37,0,0,0,.51-.29.75.75,0,0,0,.22-.37,1.32,1.32,0,0,0,.06-.39V270.2h1.87v2.86a1.24,1.24,0,0,0,.09.5,1.14,1.14,0,0,0,.23.33,1,1,0,0,0,.3.21,1.1,1.1,0,0,0,.33.12,1.66,1.66,0,0,0,.28,0h1.57Zm-7.05,6.48-1.36-1.38,1.35-1.4,1.39,1.4Zm3.29,0-1.36-1.37,1.34-1.4,1.4,1.4Z"/><path class="cls-7" d="M448.33,274.28a4.63,4.63,0,0,0,1.4-.16,1.62,1.62,0,0,0,.72-.39.84.84,0,0,0,.26-.51,3.27,3.27,0,0,0,0-.54v-9h1.88v9a1.87,1.87,0,0,0,.09.59,1.41,1.41,0,0,0,.71.85,1.72,1.72,0,0,0,.62.16h.23v1.88h-.23a4,4,0,0,1-.74-.07,2.58,2.58,0,0,1-.57-.21,2.72,2.72,0,0,1-.51-.32c-.17-.13-.35-.27-.55-.44a3.28,3.28,0,0,1-.59.45,4.46,4.46,0,0,1-.73.32,5.54,5.54,0,0,1-.91.21,9.59,9.59,0,0,1-1.12.06Z"/><path class="cls-7" d="M464.48,273.58a.8.8,0,0,0,.28.4,1.44,1.44,0,0,0,.4.22,2,2,0,0,0,.39.07h1.9v1.88h-1.64a3.84,3.84,0,0,1-1.24-.19,3.44,3.44,0,0,1-1-.56h0a2.84,2.84,0,0,1-.74-.94l-.13.06c-.6.29-1.24.55-1.92.8a17.84,17.84,0,0,1-2.15.6,10.48,10.48,0,0,1-2.22.24h-2.48v-1.88h2.48a9.19,9.19,0,0,0,1.25-.09q.64-.09,1.29-.24c.42-.1.85-.21,1.27-.34s.82-.28,1.21-.43.75-.3,1.09-.46.64-.31.91-.47l-4.3-1.51a2.72,2.72,0,0,0-.69-.11,1,1,0,0,0-.53.11,1,1,0,0,0-.41.35,2.66,2.66,0,0,0-.31.61l-1.74-.53a5.14,5.14,0,0,1,.49-1.1,3.11,3.11,0,0,1,.77-.88,2.43,2.43,0,0,1,1.07-.48,2.47,2.47,0,0,1,.39,0,3.13,3.13,0,0,1,1,.17l.88.29.77.27.8.3,1,.37,1.27.48,1.72.62.23,1.59-.46.29C465.11,273.21,464.82,273.38,464.48,273.58Z"/><path class="cls-7" d="M473.49,269a1.14,1.14,0,0,1,.07.28c0,.15.08.34.13.56s.1.47.14.74.1.54.14.82.08.53.11.79a5.67,5.67,0,0,1,0,.67,3.55,3.55,0,0,1-.28,1.48,3.06,3.06,0,0,1-.74,1,3.11,3.11,0,0,1-1,.61,3.5,3.5,0,0,1-1.14.19h-3.83v-1.88H471a1.77,1.77,0,0,0,.34,0,1.11,1.11,0,0,0,.43-.17,1.22,1.22,0,0,0,.37-.43,1.58,1.58,0,0,0,.16-.79,4.71,4.71,0,0,0,0-.48c0-.19,0-.39-.09-.61s-.07-.44-.12-.67-.09-.45-.13-.65a5.38,5.38,0,0,0-.13-.54l-.09-.37Zm-3.64-1.82-1.36-1.38,1.33-1.4,1.4,1.4Zm3.46,0L472,265.81l1.34-1.4,1.4,1.4Z"/><path class="cls-7" d="M493.77,276.16a4.14,4.14,0,0,1-1.38-.19,1.76,1.76,0,0,1-.89-.68,2.13,2.13,0,0,1-.51.49,3.18,3.18,0,0,1-.55.28,2.64,2.64,0,0,1-.52.13l-.42,0a3.47,3.47,0,0,1-1.15-.25c-.44-.17-.92-.38-1.42-.62s-1-.51-1.56-.79-1.06-.55-1.56-.79l0,8H482V272.9l1.88-1.15,1.5.74c.07-.33.14-.66.23-1a7.06,7.06,0,0,1,.32-.95,4.44,4.44,0,0,1,.45-.83,3,3,0,0,1,.6-.67,2.59,2.59,0,0,1,.82-.44,3.2,3.2,0,0,1,1-.14h.07a3.32,3.32,0,0,1,1.48.32,3.16,3.16,0,0,1,1.07.87,3.8,3.8,0,0,1,.66,1.26,5,5,0,0,1,.23,1.5,2.71,2.71,0,0,1,0,.29,2.44,2.44,0,0,1,0,.27,1.12,1.12,0,0,0,.2.66,1.57,1.57,0,0,0,.43.39,1.74,1.74,0,0,0,.5.2,2.47,2.47,0,0,0,.38,0h.36v1.88Zm-4.27-1.82.26,0a.68.68,0,0,0,.37-.2,1.37,1.37,0,0,0,.32-.56,3.65,3.65,0,0,0,.14-1.14,2.12,2.12,0,0,0,0-.27,1.76,1.76,0,0,0-.09-.42,2.5,2.5,0,0,0-.18-.47,2,2,0,0,0-.31-.45,1.52,1.52,0,0,0-.46-.32,1.44,1.44,0,0,0-.64-.13,1.75,1.75,0,0,0-.57.09,1,1,0,0,0-.49.41,3.48,3.48,0,0,0-.42.92,13.1,13.1,0,0,0-.35,1.62l.7.36a6.34,6.34,0,0,0,.67.3,3.43,3.43,0,0,0,.59.2A2,2,0,0,0,489.5,274.34Z"/><path class="cls-7" d="M503.29,274.28v1.88h-1.38a4.13,4.13,0,0,1-1.36-.21,2.5,2.5,0,0,1-1-.62,3.17,3.17,0,0,1-1.13.62,5.06,5.06,0,0,1-1.51.21H493.8v-1.88h3.12a3.1,3.1,0,0,0,.9-.11,1.34,1.34,0,0,0,.52-.29.75.75,0,0,0,.22-.37,1.31,1.31,0,0,0,.05-.39V270.2h1.88v2.86a1.24,1.24,0,0,0,.09.5,1.14,1.14,0,0,0,.23.33,1,1,0,0,0,.3.21,1.1,1.1,0,0,0,.33.12,1.66,1.66,0,0,0,.28,0h1.57Zm-6.51-6.45-1.36-1.38,1.33-1.39,1.4,1.39Zm3.46,0-1.36-1.38,1.34-1.4,1.4,1.4Z"/><path class="cls-7" d="M509.31,269a1.14,1.14,0,0,1,.07.28c0,.15.08.34.13.56s.1.47.15.74.09.54.13.82.08.53.11.79a5.67,5.67,0,0,1,0,.67,3.55,3.55,0,0,1-.28,1.48,3.06,3.06,0,0,1-.74,1,3.11,3.11,0,0,1-1,.61,3.5,3.5,0,0,1-1.14.19h-3.83v-1.88h3.89a1.77,1.77,0,0,0,.34,0,1.11,1.11,0,0,0,.43-.17,1.35,1.35,0,0,0,.38-.43,1.71,1.71,0,0,0,.15-.79,2.92,2.92,0,0,0,0-.48c0-.19,0-.39-.08-.61s-.08-.44-.13-.67-.09-.45-.13-.65-.08-.38-.12-.54-.08-.28-.1-.37ZM505,280.71l-1.36-1.38,1.34-1.4,1.4,1.4Zm3.28,0-1.36-1.38,1.35-1.39,1.39,1.39Z"/><path class="cls-7" d="M517.27,275.76a6.41,6.41,0,0,1-.43,2.08,4.72,4.72,0,0,1-1,1.59,4.59,4.59,0,0,1-1.61,1,6.14,6.14,0,0,1-2.13.35h-1.19V278.9h1.19a5.43,5.43,0,0,0,1.49-.18,2.46,2.46,0,0,0,1-.57,2.33,2.33,0,0,0,.6-1,5.21,5.21,0,0,0,.2-1.53v-5.38h1.89Z"/><path class="cls-7" d="M520,278.9a10.17,10.17,0,0,0,2.19-.19,3,3,0,0,0,1.34-.59,2.89,2.89,0,0,0,.35-.35,1.73,1.73,0,0,0,.25-.42,2.54,2.54,0,0,0,.16-.53,4.14,4.14,0,0,0,.06-.66h-1.46a4.67,4.67,0,0,1-1.27-.17,3.44,3.44,0,0,1-1.16-.59,3.06,3.06,0,0,1-.85-1.1,3.81,3.81,0,0,1-.33-1.68,4.8,4.8,0,0,1,.1-1.05,4.28,4.28,0,0,1,.25-.83,3.71,3.71,0,0,1,.34-.63,5.16,5.16,0,0,1,.37-.47,3.57,3.57,0,0,1,1.13-.76,3.44,3.44,0,0,1,1.36-.27,3.36,3.36,0,0,1,1.2.2,2.93,2.93,0,0,1,1,.59,3.43,3.43,0,0,1,.9,1.41,5.94,5.94,0,0,1,.31,2.05v1.42h1.58v1.88h-1.58a4.93,4.93,0,0,1-.39,2,3.85,3.85,0,0,1-1.13,1.42,4.52,4.52,0,0,1-.85.53,5.09,5.09,0,0,1-1,.38,9,9,0,0,1-1.28.22,14.39,14.39,0,0,1-1.54.07Zm2.83-8.41a1.5,1.5,0,0,0-1.23.55,2.5,2.5,0,0,0-.44,1.58,1.82,1.82,0,0,0,.16.84,1.32,1.32,0,0,0,.45.52,1.87,1.87,0,0,0,.32.15l.32.09a1.7,1.7,0,0,0,.28,0l.2,0h1.46v-1.42a4.88,4.88,0,0,0-.09-1,2.51,2.51,0,0,0-.22-.67,1.29,1.29,0,0,0-.31-.4,1.17,1.17,0,0,0-.33-.2,1.32,1.32,0,0,0-.32-.07Z"/><path class="cls-7" d="M538.51,276.16h-.26a5.1,5.1,0,0,1-1.32-.15,4,4,0,0,1-1-.42,4.21,4.21,0,0,1-.82-.64c-.26-.25-.52-.53-.78-.83a2.54,2.54,0,0,1-.31.47,5.48,5.48,0,0,1-.4.44,3.86,3.86,0,0,1-.5.38,3.7,3.7,0,0,1-.55.31,4.83,4.83,0,0,1-1.15.33,7.2,7.2,0,0,1-1.32.11h-2.66v-1.88h2.78a5.05,5.05,0,0,0,.88-.08,4.34,4.34,0,0,0,.77-.19,2.81,2.81,0,0,0,.6-.31,1.37,1.37,0,0,0,.38-.38,1.14,1.14,0,0,0,.07-.22,1.94,1.94,0,0,0,0-.24,1.6,1.6,0,0,0-.18-.65,7.15,7.15,0,0,0-.48-.87c-.2-.32-.43-.65-.69-1l-.8-1c-.27-.34-.54-.67-.81-1s-.51-.6-.73-.84l.34-1.62,7.76-3.58.77,1.73-6.79,3.13,3.33,4.45c.32.43.62.82.89,1.15a6,6,0,0,0,.82.84,2.91,2.91,0,0,0,.85.51,2.8,2.8,0,0,0,1,.18h.26Zm-8.65-12.91,6.48-2.81.39.86-7,3Z"/><path class="cls-7" d="M538.2,274.28a6.28,6.28,0,0,0,1.3-.11,1.43,1.43,0,0,0,.7-.33.94.94,0,0,0,.23-.42,3.49,3.49,0,0,0,.07-.74v-9h1.88v9q0,.3,0,.63a3.82,3.82,0,0,1-.12.66,2.73,2.73,0,0,1-.27.64,2.34,2.34,0,0,1-.45.61,3.08,3.08,0,0,1-1.3.71,7,7,0,0,1-2,.23Z"/><path class="cls-7" d="M547.19,276.16h-1.88V263.74h1.88Z"/></svg>