<svg id="Layer_1" data-name="Layer 1" xmlns="http://www.w3.org/2000/svg" xmlns:xlink="http://www.w3.org/1999/xlink" viewBox="0 0 600 300"><defs><style>.cls-1{fill:#1a1a1a;}.cls-2{fill:#fff;}.cls-3{fill:#d9d9d9;}.cls-4{fill:#9b7e2c;}.cls-5{fill:#f5f5f5;}.cls-6{fill:#005087;}.cls-7{fill:#b1b1b1;}.cls-8{fill:#c6c6c5;}.cls-9{fill:#f0b90b;}.cls-10{fill:#f9d97d;opacity:0.38;}.cls-11{fill:#d8a30e;}.cls-12{fill:#ececec;}.cls-13{fill:url(#linear-gradient);}.cls-14{isolation:isolate;}.cls-15{fill:#e5eef9;}.cls-16{fill:url(#linear-gradient-2);}.cls-17{fill:url(#linear-gradient-3);}.cls-18{fill:#0bb3f0;}.cls-19{fill:#d4afff;}.cls-20,.cls-26{fill:#480bf0;}.cls-21{fill:url(#linear-gradient-4);}.cls-22{fill:url(#linear-gradient-5);}.cls-23{fill:url(#linear-gradient-6);}.cls-24{fill:url(#linear-gradient-7);}.cls-25{fill:url(#linear-gradient-8);}.cls-26{fill-rule:evenodd;}.cls-27{fill:url(#linear-gradient-9);}.cls-28{fill:url(#linear-gradient-10);}.cls-29{fill:#6311bc;}</style><linearGradient id="linear-gradient" x1="479.63" y1="298.54" x2="474.86" y2="22.05" gradientUnits="userSpaceOnUse"><stop offset="0" stop-color="#f0b90b" stop-opacity="0.5"/><stop offset="0.19" stop-color="#e9b40c" stop-opacity="0.49"/><stop offset="0.38" stop-color="#d3a40d" stop-opacity="0.46"/><stop offset="0.56" stop-color="#af8910" stop-opacity="0.41"/><stop offset="0.74" stop-color="#7c6313" stop-opacity="0.34"/><stop offset="0.92" stop-color="#3b3318" stop-opacity="0.25"/><stop offset="1" stop-color="#1a1a1a" stop-opacity="0.2"/></linearGradient><linearGradient id="linear-gradient-2" x1="486.34" y1="171.53" x2="518.02" y2="218.01" gradientTransform="translate(-24.17 253.17) rotate(-31.8)" gradientUnits="userSpaceOnUse"><stop offset="0" stop-color="#480bf0"/><stop offset="1" stop-color="#c1d7ff"/></linearGradient><linearGradient id="linear-gradient-3" x1="486.09" y1="171.7" x2="517.77" y2="218.18" xlink:href="#linear-gradient-2"/><linearGradient id="linear-gradient-4" x1="443.12" y1="202.93" x2="504.45" y2="202.93" gradientTransform="matrix(1, 0, 0, 1, 0, 0)" xlink:href="#linear-gradient-2"/><linearGradient id="linear-gradient-5" x1="457.42" y1="1.57" x2="490.84" y2="46.32" gradientTransform="translate(19.14 313.05) rotate(-25.76)" xlink:href="#linear-gradient-2"/><linearGradient id="linear-gradient-6" x1="455.98" y1="2.65" x2="489.4" y2="47.39" gradientTransform="translate(19.14 313.05) rotate(-25.76)" xlink:href="#linear-gradient-2"/><linearGradient id="linear-gradient-7" x1="499.59" y1="191.51" x2="543.82" y2="191.93" gradientTransform="translate(99.03 -285.38) rotate(22.49)" xlink:href="#linear-gradient-2"/><linearGradient id="linear-gradient-8" x1="499.37" y1="215.72" x2="543.6" y2="216.13" gradientTransform="translate(99.03 -285.38) rotate(22.49)" xlink:href="#linear-gradient-2"/><linearGradient id="linear-gradient-9" x1="467.77" y1="39.78" x2="486.95" y2="109.17" gradientTransform="matrix(1, 0, 0, 1, 0, 0)" xlink:href="#linear-gradient-2"/><linearGradient id="linear-gradient-10" x1="483.84" y1="35.34" x2="503.02" y2="104.73" gradientTransform="matrix(1, 0, 0, 1, 0, 0)" xlink:href="#linear-gradient-2"/></defs><rect class="cls-1" x="-0.06" y="-0.16" width="600" height="300.64"/><path class="cls-2" d="M140.88,110.21h-.7a7.38,7.38,0,0,1-5.35-1.77,7.21,7.21,0,0,1-1.85-5.36c0-.37,0-1,0-1.83s0-1.9,0-3.13c0-.73,0-1.51,0-2.35s0-1.7-.05-2.58,0-1.75-.09-2.62-.09-1.72-.15-2.54-.13-1.58-.21-2.3-.17-1.34-.28-1.88l4.37-1.31c.12.67.24,1.49.35,2.46s.19,2,.27,3.11.15,2.22.19,3.36.06,2.22.06,3.23c0,.61,0,1.26,0,2s0,1.3,0,1.82,0,.86,0,1.25,0,.76,0,1.12,0,.71,0,1.06,0,.7,0,1.06v.28a4.18,4.18,0,0,0,.13,1.11,1.81,1.81,0,0,0,.46.81,1.9,1.9,0,0,0,.84.46,4.76,4.76,0,0,0,1.2.14h.78Z"/><path class="cls-2" d="M140.18,105.76H143a13.76,13.76,0,0,0,1.68-.1,5.11,5.11,0,0,0,1.56-.4,2.83,2.83,0,0,0,1.14-.88,2.46,2.46,0,0,0,.44-1.53,5.87,5.87,0,0,0-.19-1.27q-.2-.81-.51-1.8c-.2-.66-.45-1.35-.73-2.06s-.59-1.36-.9-2l4-2q.44,1,.87,2.1c.29.75.54,1.51.77,2.29a21.78,21.78,0,0,1,.55,2.36,13.23,13.23,0,0,1,.21,2.31,7.82,7.82,0,0,1-.66,3.35,6,6,0,0,1-1.85,2.29,8,8,0,0,1-2.82,1.33,14.6,14.6,0,0,1-3.61.42h-2.77Zm9,10.1-3.34,3.34-3.32-3.34,3.32-3.32Z"/><path class="cls-2" d="M174.09,110.21a8.92,8.92,0,0,1-4.09-1,13.77,13.77,0,0,1-3.61-2.72l2.56-3.6a12.3,12.3,0,0,0,3,2.12,6.2,6.2,0,0,0,2.63.65,8.66,8.66,0,0,0,1.3-.11,11.21,11.21,0,0,0,1.36-.33,9.65,9.65,0,0,0,1.3-.49,6.7,6.7,0,0,0,1.07-.62L174,90.75,178.13,89c.2.51.42,1,.66,1.63l.78,1.88,4.37,10.52a10.1,10.1,0,0,0,.51,1.09,3.68,3.68,0,0,0,.63.85,2.44,2.44,0,0,0,.82.56,2.67,2.67,0,0,0,1.06.2h.4v4.45H187a9.28,9.28,0,0,1-1.88-.16,5.67,5.67,0,0,1-1.39-.46,4.76,4.76,0,0,1-1-.67c-.3-.27-.59-.55-.87-.85a9.89,9.89,0,0,1-1.7,1.05,11,11,0,0,1-1.83.66,14.11,14.11,0,0,1-2,.34C175.58,110.18,174.86,110.21,174.09,110.21Z"/><path class="cls-2" d="M187,105.76a4.83,4.83,0,0,0,2.21-.48,6.26,6.26,0,0,0,1.66-1.24,9.57,9.57,0,0,0,1.27-1.72c.36-.64.71-1.28,1-1.92s.68-1.34,1.06-2a9.86,9.86,0,0,1,1.31-1.78,6,6,0,0,1,1.67-1.29,4.57,4.57,0,0,1,2.17-.49,5.82,5.82,0,0,1,2,.34,5.59,5.59,0,0,1,1.67.94,6.88,6.88,0,0,1,1.3,1.39,8,8,0,0,1,.92,1.7,10.24,10.24,0,0,1,.55,1.89,10.59,10.59,0,0,1,.18,1.93,9.74,9.74,0,0,1-.15,1.72,8.8,8.8,0,0,1-.44,1.62,6.23,6.23,0,0,1-.86,1.51A6,6,0,0,1,203.4,109a5.74,5.74,0,0,1-1.46.74,5.26,5.26,0,0,1-1.64.26,6.61,6.61,0,0,1-1.54-.19,12.58,12.58,0,0,1-1.64-.49l-.82-.37-.92-.48-.93-.55c-.31-.19-.59-.38-.86-.57a10.5,10.5,0,0,1-3,2.09,8.48,8.48,0,0,1-3.62.73h-.35v-4.45Zm9.18-2a12.87,12.87,0,0,0,1.17.7c.47.25,1,.49,1.47.7a9.07,9.07,0,0,0,1.52.46,3.1,3.1,0,0,0,.76.11,1.66,1.66,0,0,0,.51-.07.82.82,0,0,0,.37-.22,1.78,1.78,0,0,0,.36-.49,3.27,3.27,0,0,0,.27-.73,3.74,3.74,0,0,0,.07-.77v-.17a4.9,4.9,0,0,0-.27-1.58,4.8,4.8,0,0,0-.74-1.4,3.32,3.32,0,0,0-1.11-.94,2.26,2.26,0,0,0-.94-.2,2.18,2.18,0,0,0-.5,0,1,1,0,0,0-.48.27,3.69,3.69,0,0,0-.57.73c-.22.34-.48.8-.78,1.37S196.64,102.84,196.2,103.72Z"/><path class="cls-2" d="M206.81,83.1a5.18,5.18,0,0,1,.61-1.67A6.55,6.55,0,0,1,208.49,80a5.05,5.05,0,0,1,1.39-1,3.69,3.69,0,0,1,1.55-.35,5,5,0,0,1,1.46.19,11.81,11.81,0,0,1,1.19.43,5.34,5.34,0,0,0,1.32.4,2.15,2.15,0,0,0,.43,0,2.39,2.39,0,0,0,.7-.12,2.53,2.53,0,0,0,.83-.52,7.58,7.58,0,0,0,.94-1.07l2.39,1.53a2.34,2.34,0,0,1-.2.3,7,7,0,0,1-.47.59,10.3,10.3,0,0,1-.74.74,6.75,6.75,0,0,1-1,.73,5.68,5.68,0,0,1-1.16.57,4.17,4.17,0,0,1-1.32.24h-.13a3.76,3.76,0,0,1-1.17-.17c-.36-.11-.73-.23-1.09-.37s-.72-.27-1.09-.38a4.42,4.42,0,0,0-1.1-.14h-.14a1.07,1.07,0,0,0-.73.29,2,2,0,0,0-.43.63,3.86,3.86,0,0,0-.24.75c0,.25-.1.45-.14.59Zm9.08,2c.24,1.72.42,3.48.55,5.26s.2,3.6.21,5.47c0,1.49,0,2.89,0,4.2s0,2.81,0,4.5,0,3.31-.11,4.86l-4.56.68q.19-3.59.25-6.66c0-.51,0-1,0-1.51,0-1.48,0-2.87-.08-4.2q-.3-7-.73-11.2Z"/><path class="cls-2" d="M230.35,98.65c.24.73.48,1.49.73,2.28s.47,1.6.67,2.41.37,1.62.5,2.43a14.68,14.68,0,0,1,.19,2.35,9.89,9.89,0,0,1-.48,3.06,13.24,13.24,0,0,1-1.32,2.87,16.46,16.46,0,0,1-2,2.63,25.71,25.71,0,0,1-2.51,2.37,29.92,29.92,0,0,1-2.87,2.07c-1,.63-2,1.21-3.06,1.72l-2-4c.82-.4,1.63-.85,2.43-1.34s1.56-1,2.29-1.58a22.85,22.85,0,0,0,2-1.75,13.35,13.35,0,0,0,1.6-1.92,10.06,10.06,0,0,0,1.05-2,6.23,6.23,0,0,0,.38-2.11,10.34,10.34,0,0,0-.23-2.08c-.15-.73-.33-1.46-.54-2.17s-.44-1.4-.66-2.06-.42-1.24-.57-1.76Z"/><path class="cls-2" d="M236.51,103.38a16.05,16.05,0,0,0,1.59.85A20.47,20.47,0,0,0,240,105a19.67,19.67,0,0,0,2,.57,7.06,7.06,0,0,0,1.69.23c.2,0,.44,0,.73,0s.6,0,.93-.07a8.35,8.35,0,0,0,1-.2,3.13,3.13,0,0,0,.88-.36,2,2,0,0,0,.63-.59,1.55,1.55,0,0,0,.26-.88v0a4,4,0,0,0-.39-1.58,10.58,10.58,0,0,0-1.07-1.84,20.09,20.09,0,0,0-1.56-1.94c-.59-.65-1.21-1.27-1.85-1.87a24,24,0,0,0-1.92-1.65,19.31,19.31,0,0,0-1.8-1.28l2.59-3.84a31.91,31.91,0,0,1,3.16,2.47A27.35,27.35,0,0,1,248.12,95a22.39,22.39,0,0,1,2.28,3.24,13.28,13.28,0,0,1,1.38,3.41,7.38,7.38,0,0,1-.09,4,5.55,5.55,0,0,1-1.46,2.39,7.18,7.18,0,0,1-2.87,1.8,9.56,9.56,0,0,1-3.28.54c-.2,0-.4,0-.61,0a13.28,13.28,0,0,1-2.33-.21,18.37,18.37,0,0,1-2.32-.6,22.41,22.41,0,0,1-2.2-.88,19.79,19.79,0,0,1-2-1Z"/><path class="cls-2" d="M305.21,110.21a13.06,13.06,0,0,1-2.62-.24,7.31,7.31,0,0,1-2.13-.78,6.54,6.54,0,0,1-1.71-1.35,8.94,8.94,0,0,1-1.32-2q-4.79,4.41-14.31,4.41a26.86,26.86,0,0,1-9-1.34,10,10,0,0,1-5.24-4,8.91,8.91,0,0,1-1-2.71,10.26,10.26,0,0,1-.21-2c0-.27,0-.7.06-1.31a10,10,0,0,1,.5-2.27A12.42,12.42,0,0,1,269.36,94l3.36,2.1a11.35,11.35,0,0,0-.84,1.67,6.47,6.47,0,0,0-.41,1.67,4.44,4.44,0,0,0,0,.63,7,7,0,0,0,.13,1.2,4.53,4.53,0,0,0,.66,1.5,4,4,0,0,0,1.47,1.39,10,10,0,0,0,2.41.94,21,21,0,0,0,3.19.53,38.17,38.17,0,0,0,3.83.18c1.24,0,2.42-.05,3.53-.14a24.87,24.87,0,0,0,3.1-.44,15.34,15.34,0,0,0,2.6-.79,7.32,7.32,0,0,0,2-1.17,4.88,4.88,0,0,0,1.24-1.37,10,10,0,0,0,.78-1.65,14.86,14.86,0,0,0,.52-1.76c.14-.61.29-1.19.46-1.74l4,1.08a12.41,12.41,0,0,0-.53,1.87,9.14,9.14,0,0,0-.17,1.69v.57a4.46,4.46,0,0,0,.24,1.25,3.48,3.48,0,0,0,2.2,2.27,6.15,6.15,0,0,0,2.15.33h.63v4.45ZM287,115.86l-3.34,3.34-3.32-3.34,3.32-3.32Z"/><path class="cls-2" d="M305.9,105.76a3.8,3.8,0,0,0,3.19-1.64,10.29,10.29,0,0,0,1.36-2.55,31.19,31.19,0,0,0,1.21-4.14l4.26,1.2c-.28,1-.53,1.89-.75,2.77a11.22,11.22,0,0,0-.36,2.29v.16a4,4,0,0,0,.06.66,2.29,2.29,0,0,0,.21.64,1.37,1.37,0,0,0,.42.47,1,1,0,0,0,.54.16h.07a2.12,2.12,0,0,0,1.22-.47,5.31,5.31,0,0,0,1.07-1.17,9.51,9.51,0,0,0,.9-1.62c.27-.6.52-1.21.73-1.83s.4-1.23.55-1.82.27-1.11.35-1.56l4.1.83q-.22,1-.36,1.92a15.16,15.16,0,0,0-.18,1.77c0,.15,0,.3,0,.45s0,.63.07,1a4.14,4.14,0,0,0,.28,1.14,2.31,2.31,0,0,0,.64.91,1.56,1.56,0,0,0,1.07.36,1.47,1.47,0,0,0,1.21-.59,4.08,4.08,0,0,0,.7-1.48,10.7,10.7,0,0,0,.32-2c.05-.74.08-1.45.08-2.15,0-.22,0-.4,0-.53s0-.26,0-.37,0-.25,0-.39v-.61l4.4-.34c0,.38.06.75.1,1.12s.07.74.1,1.13.08.8.13,1.23.12.91.19,1.42a4.26,4.26,0,0,0,.51,1.58,4.34,4.34,0,0,0,.91,1.13,3.66,3.66,0,0,0,1.12.68,3.26,3.26,0,0,0,1.14.23h.65v4.45h-.56a8.55,8.55,0,0,1-1.68-.17,7.11,7.11,0,0,1-1.57-.54,6.82,6.82,0,0,1-1.4-.93,5.75,5.75,0,0,1-1.14-1.35,6.49,6.49,0,0,1-2.19,2.17,5.65,5.65,0,0,1-3,.82,5.78,5.78,0,0,1-3-.78,5.87,5.87,0,0,1-2.11-2.09,10.23,10.23,0,0,1-1.09,1.18,7.45,7.45,0,0,1-1.25.92,6.61,6.61,0,0,1-1.42.61,5.76,5.76,0,0,1-1.56.21,5.52,5.52,0,0,1-1.52-.2,4.92,4.92,0,0,1-1.35-.58,5.23,5.23,0,0,1-2-2.16,5.44,5.44,0,0,1-2.14,2.21,6.7,6.7,0,0,1-3.23.68h-.75v-4.45Z"/><path class="cls-2" d="M337.36,105.76h2.18l1.76,0a16.78,16.78,0,0,0,1.77-.12,10.2,10.2,0,0,0,1.61-.33,4.29,4.29,0,0,0,1.34-.65,3.06,3.06,0,0,0,.91-1.08,3.55,3.55,0,0,0,.33-1.61,6.22,6.22,0,0,0-.61-2.57A14.63,14.63,0,0,0,345,96.69a30.84,30.84,0,0,0-2.5-2.84q-1.43-1.47-3.08-3l.47-4.15,13.84-6.16,1.76,4.14-11.34,4.9c.52.44,1,.91,1.55,1.39s1,1,1.58,1.62a18.86,18.86,0,0,1,2,2.67,16.84,16.84,0,0,1,1.35,2.57,13.7,13.7,0,0,1,.75,2.34,10.44,10.44,0,0,1,.23,2,7.82,7.82,0,0,1-.68,3.3,7.59,7.59,0,0,1-1.86,2.52,8.3,8.3,0,0,1-2.7,1.6,9.46,9.46,0,0,1-3.23.56h-5.79Z"/><path class="cls-2" d="M47.29,204.05a23.53,23.53,0,0,1-7-1,15.14,15.14,0,0,1-5.44-3,13.26,13.26,0,0,1-3.5-4.93,17.48,17.48,0,0,1-1.24-6.85,23.38,23.38,0,0,1,1.16-7.14,34.21,34.21,0,0,1,3.45-7.32l6.2,4.44c-.33.53-.68,1.18-1.07,2a27.09,27.09,0,0,0-1.07,2.58,26,26,0,0,0-.82,2.85,12.68,12.68,0,0,0-.33,2.79,5.11,5.11,0,0,0,.77,2.75,7.52,7.52,0,0,0,2,2.16,10.44,10.44,0,0,0,2.84,1.46,12.12,12.12,0,0,0,3.23.65,12.53,12.53,0,0,0,3.87-.6,12.14,12.14,0,0,0,3.3-1.65A9.1,9.1,0,0,0,56,190.83a6.16,6.16,0,0,0,1-3,11.76,11.76,0,0,0-.5-2.78c-.29-1-.63-2-1-3s-.82-1.94-1.26-2.89-.86-1.82-1.21-2.62L60,172.69c.2.42.45,1,.75,1.65s.61,1.45.94,2.3.65,1.77,1,2.74.62,1.94.89,2.92.47,1.95.64,2.89a15.61,15.61,0,0,1,.24,2.6,18.1,18.1,0,0,1-.45,4,16.35,16.35,0,0,1-1.37,3.79,15.54,15.54,0,0,1-2.34,3.35A14.23,14.23,0,0,1,57,201.62a16.55,16.55,0,0,1-4.33,1.79A20.92,20.92,0,0,1,47.29,204.05Zm-.22-26.57-4.74-4.74L47.07,168l4.74,4.75Z"/><path class="cls-2" d="M78,189.33a13.73,13.73,0,0,1-4.92-.78,8.68,8.68,0,0,1-3.29-2.15A8.46,8.46,0,0,1,68,183.15a13.9,13.9,0,0,1-.57-4.07c0-1.92,0-3.85,0-5.79s0-3.88,0-5.84-.1-3.93-.23-5.92-.33-4-.65-6l8-2.44a47.15,47.15,0,0,1,.77,5.85c.14,2,.23,4,.25,6.08s0,4.07,0,6.08-.08,3.94-.08,5.79c0,.64,0,1.22,0,1.74a3.47,3.47,0,0,0,.24,1.3,1.5,1.5,0,0,0,.75.78,3.26,3.26,0,0,0,1.58.19h.58v8.46Z"/><path class="cls-2" d="M96.82,180.87v8.46h-.47a11.67,11.67,0,0,1-2-.17,10.81,10.81,0,0,1-1.94-.5,7.76,7.76,0,0,1-1.66-.81,4,4,0,0,1-1.14-1.08,5.33,5.33,0,0,1-1.6,1.16,11.15,11.15,0,0,1-2.2.79,18.43,18.43,0,0,1-2.63.46,26.87,26.87,0,0,1-2.84.15H77.77v-8.46h2.54c.91,0,1.7,0,2.38-.06a6,6,0,0,0,1.71-.32,2.27,2.27,0,0,0,1.06-.75,2.83,2.83,0,0,0,.46-1.34,9.44,9.44,0,0,0-.08-2.13c-.11-.85-.3-1.87-.55-3.06l7.6-1.88c.13.54.25,1.18.37,1.93s.23,1.52.31,2.31a22.94,22.94,0,0,1,.15,2.3,10.54,10.54,0,0,1-.1,1.89,1.33,1.33,0,0,0,.56.65,3,3,0,0,0,.78.33,4.43,4.43,0,0,0,.78.11c.25,0,.45,0,.61,0ZM87.72,163l-4,4-4.14-4.12,4.1-4.12,4.06,4.06,4-4L95.88,163l-4.1,4.13Z"/><path class="cls-2" d="M96.39,180.87a3.57,3.57,0,0,0,2.28-.74,6.57,6.57,0,0,0,1.61-2,17,17,0,0,0,1.2-3c.34-1.13.67-2.33,1-3.6l7.18,1.34q-.19.79-.42,1.77c-.15.64-.28,1.29-.41,1.94s-.22,1.28-.29,1.9a11.29,11.29,0,0,0-.11,1.65,3.38,3.38,0,0,0,.19,1.16.65.65,0,0,0,.59.47,2.38,2.38,0,0,0,1.38-.54,5.48,5.48,0,0,0,1.09-1.3,9.5,9.5,0,0,0,.84-1.81c.24-.69.45-1.4.63-2.14s.33-1.48.47-2.22.26-1.44.37-2.09l6.41,1.06c0,.46-.11,1-.19,1.65s-.16,1.3-.22,2-.08,1.36-.07,2a8.19,8.19,0,0,0,.2,1.8,3,3,0,0,0,.63,1.29A1.55,1.55,0,0,0,122,182a3.17,3.17,0,0,0,1.77-.42,2.37,2.37,0,0,0,.92-1.17,4.1,4.1,0,0,0,.24-1.69,11.09,11.09,0,0,0-.28-2,17.72,17.72,0,0,0-.62-2.1c-.26-.7-.52-1.37-.78-2s-.52-1.19-.77-1.7-.44-.9-.59-1.19l6.33-3.52c.38.84.79,1.79,1.21,2.85s.82,2.18,1.17,3.34a36.22,36.22,0,0,1,.87,3.56,17.83,17.83,0,0,1,.36,3.49,13.39,13.39,0,0,1-.62,4.2,8,8,0,0,1-5.07,5.21,13.33,13.33,0,0,1-4.52.74,6.17,6.17,0,0,1-2-.33,8.17,8.17,0,0,1-1.76-.84,7.56,7.56,0,0,1-1.41-1.1,5.75,5.75,0,0,1-1-1.13,8,8,0,0,1-1,1.22,7.51,7.51,0,0,1-3.13,1.86,7.85,7.85,0,0,1-2.12.32,6.21,6.21,0,0,1-1.93-.26,7.21,7.21,0,0,1-1.67-.73,6.73,6.73,0,0,1-1.34-1.06,5.32,5.32,0,0,1-.89-1.22,4.28,4.28,0,0,1-.92,1.2,5.81,5.81,0,0,1-1.44.95,9.71,9.71,0,0,1-1.93.63,11.46,11.46,0,0,1-2.34.23H96v-8.46Z"/><path class="cls-2" d="M132.9,196.12a44.55,44.55,0,0,0,4.87-1.3,33.58,33.58,0,0,0,4-1.62,18.07,18.07,0,0,0,3.06-1.86,8.71,8.71,0,0,0,2-2h-.7l-.76,0-.71,0-.54,0a15.71,15.71,0,0,1-4.15-.88,9.76,9.76,0,0,1-3.18-1.89,8.24,8.24,0,0,1-2-2.94,10.29,10.29,0,0,1-.73-4,12,12,0,0,1,.36-2.86,15.18,15.18,0,0,1,1-2.89,16.16,16.16,0,0,1,1.53-2.65,12.76,12.76,0,0,1,1.95-2.17,8.86,8.86,0,0,1,2.28-1.49,6,6,0,0,1,2.49-.54,7.51,7.51,0,0,1,3.35.76,10.49,10.49,0,0,1,2.83,2.08,14.48,14.48,0,0,1,2.25,3,22,22,0,0,1,1.66,3.62,24,24,0,0,1,1,3.85A21.68,21.68,0,0,1,155,184a18.28,18.28,0,0,1-.73,5.29,17.63,17.63,0,0,1-2.07,4.51,19.27,19.27,0,0,1-3.2,3.75,24.84,24.84,0,0,1-4.1,3,30.83,30.83,0,0,1-4.78,2.25,38.32,38.32,0,0,1-5.26,1.52ZM143.43,175a1.89,1.89,0,0,0-1.16.41,4.11,4.11,0,0,0-.93,1,5.75,5.75,0,0,0-.62,1.3,4.27,4.27,0,0,0-.22,1.3.87.87,0,0,0,.37.7,3,3,0,0,0,1,.5,8.14,8.14,0,0,0,1.41.33c.52.09,1.06.15,1.61.2s1.08.07,1.6.08,1,0,1.4,0a8.88,8.88,0,0,0-.48-2,8.39,8.39,0,0,0-1-1.89,5.8,5.8,0,0,0-1.36-1.39A2.84,2.84,0,0,0,143.43,175Z"/><path class="cls-2" d="M160.06,177.65a28.27,28.27,0,0,0,4.6,2.26,16.23,16.23,0,0,0,4.06,1,13.77,13.77,0,0,0,1.56,0,7.07,7.07,0,0,0,1.36-.15,3.88,3.88,0,0,0,1.06-.35,1.34,1.34,0,0,0,.61-.59,1.68,1.68,0,0,0-.13-1.49,9.18,9.18,0,0,0-1.33-2,29.09,29.09,0,0,0-2.15-2.2q-1.24-1.14-2.58-2.25c-.89-.74-1.76-1.45-2.62-2.12l-2.28-1.77L167,161c1.09.83,2.17,1.69,3.23,2.59s2.07,1.82,3,2.78a32.3,32.3,0,0,1,2.67,3,22.32,22.32,0,0,1,2.13,3.21,16.7,16.7,0,0,1,1.4,3.43,13.46,13.46,0,0,1,.5,3.65,10.17,10.17,0,0,1-.76,4A8.89,8.89,0,0,1,177,186.8a9.69,9.69,0,0,1-3.41,2,13,13,0,0,1-4.51.73h-.68a17.82,17.82,0,0,1-3.08-.28,21.3,21.3,0,0,1-3-.79,26.46,26.46,0,0,1-2.94-1.22c-1-.47-1.91-1-2.84-1.56Z"/><path class="cls-2" d="M208.23,172.42c.34,1,.68,2,1,3.11s.65,2.2.93,3.31.5,2.22.67,3.3a20.37,20.37,0,0,1,.25,3.13,15.93,15.93,0,0,1-1.06,5.78,20.58,20.58,0,0,1-3,5.21,27.65,27.65,0,0,1-4.52,4.53,35.83,35.83,0,0,1-5.68,3.71l-5.19-6.67a44.63,44.63,0,0,0,4.42-2.7,30.21,30.21,0,0,0,3.81-3.11,16.66,16.66,0,0,0,2.72-3.33,7.6,7.6,0,0,0,1.18-3.37c-.24-.82-.5-1.63-.78-2.46s-.56-1.64-.85-2.44-.59-1.57-.89-2.32-.58-1.46-.85-2.12Zm-4.33-3.79-4.75-4.74,4.75-4.74,4.74,4.74Z"/><path class="cls-2" d="M214.06,188.67c.06-.93.12-1.91.17-3s.11-2.09.16-3.14.09-2.06.12-3,0-1.91,0-2.75c0-2.6-.06-5-.18-7.21s-.26-4.18-.43-5.93-.33-3.31-.51-4.64-.32-2.44-.44-3.32l8.23-2.71q.48,3.12.78,6.12c.19,2,.34,3.88.45,5.66s.17,3.4.21,4.88.05,2.74.05,3.78,0,1.95,0,3.08,0,2.32,0,3.55,0,2.48-.1,3.74-.1,2.47-.17,3.62Z"/><path class="cls-2" d="M260.56,189.33c-1.32,0-2.75-.05-4.29-.16a32.83,32.83,0,0,1-4.6-.64,27,27,0,0,1-4.46-1.34,14.32,14.32,0,0,1-3.83-2.27,11.2,11.2,0,0,1-2.75-3.41,11,11,0,0,1-1.19-4.76,10.6,10.6,0,0,1,.29-2.5,17.28,17.28,0,0,1,.76-2.45,25.19,25.19,0,0,1,1.11-2.44q.63-1.22,1.32-2.43l6.34,5.38c-.24.38-.49.81-.75,1.27s-.48.93-.69,1.4a11.74,11.74,0,0,0-.5,1.33,3.72,3.72,0,0,0-.19,1.08,1.88,1.88,0,0,0,1.14,1.6,10.24,10.24,0,0,0,3,1.07,31.78,31.78,0,0,0,4.29.59q2.41.18,5,.18c.93,0,2,0,3.21-.13s2.46-.22,3.77-.41,2.59-.45,3.88-.75a27.43,27.43,0,0,0,3.58-1.1c-.33-.6-.63-1.17-.92-1.71s-.58-1.1-.91-1.69-.68-1.21-1.09-1.89-.89-1.45-1.46-2.32l6.62-4.31q.48.79,1,1.77c.36.66.72,1.36,1.09,2.1s.71,1.5,1,2.28a24,24,0,0,1,.89,2.33,19.11,19.11,0,0,1,.59,2.24,8.65,8.65,0,0,1,.17,2,6,6,0,0,1-.78,2.66,8.22,8.22,0,0,1-1.83,2.19,12.78,12.78,0,0,1-2.61,1.75,25,25,0,0,1-3.16,1.35,35.3,35.3,0,0,1-3.46,1c-1.19.27-2.36.49-3.51.65s-2.24.29-3.3.36S261.4,189.33,260.56,189.33Zm.32-23.62-4,4-4.15-4.12,4.1-4.12,4.06,4.06,4-4,4.14,4.12-4.1,4.13Z"/><path class="cls-2" d="M283,196.12a44.55,44.55,0,0,0,4.87-1.3,32.91,32.91,0,0,0,4-1.62,18.07,18.07,0,0,0,3.06-1.86,8.51,8.51,0,0,0,1.95-2h-.7l-.76,0-.7,0-.55,0a15.72,15.72,0,0,1-4.14-.88,9.81,9.81,0,0,1-3.19-1.89,8.24,8.24,0,0,1-2.05-2.94,10.29,10.29,0,0,1-.72-4,12,12,0,0,1,.35-2.86,15.91,15.91,0,0,1,1-2.89,16.16,16.16,0,0,1,1.53-2.65,12.76,12.76,0,0,1,1.95-2.17,9,9,0,0,1,2.28-1.49,6,6,0,0,1,2.49-.54,7.46,7.46,0,0,1,2.9.57,9.8,9.8,0,0,1,2.53,1.57,12.66,12.66,0,0,1,2.12,2.35,20.24,20.24,0,0,1,1.68,2.91,23,23,0,0,1,1.21,3.22,25.86,25.86,0,0,1,.75,3.32h1.28v8.46h-1.77a16.55,16.55,0,0,1-2.78,5.51,21.47,21.47,0,0,1-4.44,4.33,27.57,27.57,0,0,1-5.68,3.15,39.22,39.22,0,0,1-6.5,2ZM293.5,175a1.89,1.89,0,0,0-1.16.41,3.9,3.9,0,0,0-.92,1,5.35,5.35,0,0,0-.62,1.3,4.3,4.3,0,0,0-.23,1.3.88.88,0,0,0,.38.7,3,3,0,0,0,1,.5,8.14,8.14,0,0,0,1.41.33c.53.09,1.06.15,1.61.2s1.08.07,1.6.08,1,0,1.4,0a8.88,8.88,0,0,0-.48-2,8.39,8.39,0,0,0-1-1.89,5.62,5.62,0,0,0-1.36-1.39A2.81,2.81,0,0,0,293.5,175Z"/><path class="cls-2" d="M325.07,175.13c-1-.46-2-.85-2.9-1.18a8.64,8.64,0,0,0-2.83-.49,6,6,0,0,0-1.7.25,6.39,6.39,0,0,0-1.58.68,4.09,4.09,0,0,0-1.16,1.06,2.27,2.27,0,0,0-.45,1.37,2.42,2.42,0,0,0,.45,1.44,3.54,3.54,0,0,0,1.23,1.05,5.67,5.67,0,0,0,1.85.62,6.26,6.26,0,0,0,1,.13h.32l1,0c1.17-.11,2.4-.27,3.7-.48s2.6-.44,3.93-.72l1.09,8.31c-1.08.27-2.35.54-3.79.79s-3,.49-4.77.7-3.58.37-5.56.5-4.06.19-6.24.19h-3.39v-8.46l2.9,0a6.59,6.59,0,0,1-.49-.89,9.43,9.43,0,0,1-.41-1.09,8,8,0,0,1-.25-1.2,8.62,8.62,0,0,1-.09-1.24,10,10,0,0,1,.91-4,12.63,12.63,0,0,1,2.4-3.55,13.08,13.08,0,0,1,3.57-2.62,11.44,11.44,0,0,1,4.38-1.2,4.62,4.62,0,0,1,.65,0h.65a11.55,11.55,0,0,1,2.56.27,12.94,12.94,0,0,1,2.28.74,14.51,14.51,0,0,1,2.09,1.12c.68.43,1.37.91,2.06,1.42Z"/><path class="cls-2" d="M334.32,177.65a27.8,27.8,0,0,0,4.59,2.26,16.23,16.23,0,0,0,4.06,1,13.77,13.77,0,0,0,1.56,0,7.07,7.07,0,0,0,1.36-.15,3.88,3.88,0,0,0,1.06-.35,1.34,1.34,0,0,0,.61-.59,1.68,1.68,0,0,0-.13-1.49,9.18,9.18,0,0,0-1.33-2,29.09,29.09,0,0,0-2.15-2.2c-.83-.76-1.69-1.51-2.57-2.25s-1.77-1.45-2.63-2.12l-2.28-1.77,4.77-7.07c1.09.83,2.17,1.69,3.23,2.59s2.07,1.82,3,2.78a35.49,35.49,0,0,1,2.67,3,23.11,23.11,0,0,1,2.12,3.21,16.16,16.16,0,0,1,1.4,3.43,13.46,13.46,0,0,1,.5,3.65,10.17,10.17,0,0,1-.76,4,8.89,8.89,0,0,1-2.15,3.13,9.69,9.69,0,0,1-3.41,2,13,13,0,0,1-4.51.73h-.68a17.82,17.82,0,0,1-3.08-.28,21.3,21.3,0,0,1-3-.79,26.46,26.46,0,0,1-2.94-1.22c-1-.47-1.91-1-2.84-1.56Z"/><path class="cls-3" d="M547.13,237.49c-.58.48-1.2,1-1.85,1.58h0l-.76.68-.08.07-.09.09c-.76.7-1.56,1.46-2.39,2.3-.24.22-.48.47-.73.73l-1.5,1.55s0,0,0,0l-.15.15-.1.1c-.18.19-.37.38-.55.58l0,0c-.09.11-.2.22-.3.33l-.5.55-.06.06-.26.3-.07.07-.32.37c-.54.6-1.08,1.22-1.62,1.85h0l-.79,1L534,251q-1.59,1.94-3.22,4.09c-.25.32-.49.65-.74,1-.85,1.13-1.69,2.3-2.54,3.52l-.73,1.05c-1.46,2.13-2.92,4.38-4.36,6.75,0,0,0,0,0,0-.31.47-.59,1-.87,1.44q-1.62,2.7-3.15,5.59c-.19.34-.37.67-.55,1a.83.83,0,0,1-.09.16c-.28.53-.55,1.08-.82,1.61s-.58,1.13-.85,1.7c-.58,1.14-1.13,2.3-1.66,3.48l-.78,1.73,0,.06-.33.75-.16.37c-.31.7-.6,1.4-.9,2.11s-.5,1.18-.73,1.78-.39,1-.57,1.43c0,0,0,.07,0,.11a.56.56,0,0,0,0,.12c-.17.42-.32.85-.48,1.28-.43,1.13-.83,2.27-1.24,3.43-.19.57-.39,1.12-.58,1.69a.42.42,0,0,0,0,.1l0,.08c-.23.68-.44,1.37-.65,2.07-.11.32-.21.64-.31,1H444.07c-.11-.39-.21-.78-.33-1.16s-.24-.87-.37-1.3c-.42-1.46-.86-2.9-1.33-4.31l-.21-.65c-.39-1.18-.79-2.35-1.21-3.5s-.86-2.37-1.32-3.52-.94-2.39-1.44-3.55l-.48-1.15c-.45-1-.91-2.07-1.37-3.08s-1-2.1-1.48-3.13c-.23-.48-.47-.95-.7-1.42l-.83-1.63-.72-1.4-.06-.12c-.49-.93-1-1.84-1.5-2.74-.21-.39-.42-.77-.65-1.15l-.76-1.34-.06-.1c-.65-1.13-1.32-2.23-2-3.3-.26-.43-.53-.85-.8-1.27q-.68-1.08-1.38-2.13l-.57-.87c-.3-.47-.62-.94-.94-1.39s-.63-.92-.94-1.36l-.3-.43-1.22-1.7q-2.12-2.91-4.16-5.41h0q-.33-.41-.66-.78l-.63-.76-.22-.27-.8-.94-.18-.2c-.43-.49-.84-1-1.26-1.43,0,0,0,0-.05,0l0,0-.31-.35c-.78-.85-1.53-1.66-2.26-2.41l-1-1-.49-.48-.46-.45-.16-.16-.16-.16-.68-.64-.54-.51,0,0-1-.93h0l-.1-.1H406l.06,0,3.83,1.1.39.11.09,0h.07l.13,0,.1,0,.11,0,.11,0h0l.12,0h.15l.54.11.62.12.61.12.63.11h0l.33.06.86.15.22,0,1.08.17.17,0h0l.23,0,.78.12.18,0,.24,0h0l.09,0,.52.07.54.08.37,0,.73.1,1.09.14.22,0,.19,0,.65.08,1.12.14.45,0,.8.09.23,0,1,.11.22,0h0l1.68.17,1.74.17.76.07,1.15.11,1.37.12,1.7.14c7.11.59,15.16,1.06,23.84,1.39l2.68.1,4,.12q4.11.12,8.37.19l3.18.05,2.53,0c4.62,0,9.13,0,13.5,0l2,0h0l4-.06,1.95,0,1.93,0q3.42-.08,6.67-.2l1.92-.07h.22l1.57-.06,1.71-.08h.16l1.84-.09,3.55-.19,2.12-.13h0l2.44-.17,1.19-.09,1.17-.1h.18l.48,0,.47,0,1.59-.14.47,0h.15l1.07-.1,1.19-.12c1.45-.15,2.83-.31,4.12-.48l.27,0,.43-.05.21,0,.17,0,.19,0,.16,0,.71-.1.1,0h0l.38-.06.55-.08.89-.15h.07l.62-.11.31-.05h0l.34-.07.54-.1.7-.14,1.13-.26.39-.09.35-.09.45-.12C546.16,237.82,546.68,237.66,547.13,237.49Z"/><path class="cls-4" d="M476.4,243.67c39,.51,70.68-2.26,70.73-6.18s-31.53-7.52-70.55-8-70.68,2.27-70.73,6.19C405.84,236.5,437.38,243.17,476.4,243.67Z"/><path class="cls-5" d="M444.07,300.48h13.71A163.47,163.47,0,0,0,434.87,251s0,0,0,0q-1.87-2.73-3.72-5.19t-3.63-4.67l-1.11-1.34-.4-.47h0l-.22,0-2.08-.23-.45-.06-1.12-.13-.65-.08-.19,0-.22,0-1.09-.14-.73-.1-.37,0-.54-.08-.52-.07-.09,0h0l-.24,0-.18,0-.78-.12-.23,0-.17,0-1.08-.17-.07,0-.15,0-.86-.15-.33-.06h0l-.63-.11-.61-.12-.62-.12-.54-.11H411l-.14,0-.06,0-.17,0-.1,0-.2-.05-.09,0-.39-.11-3.83-1.1-.06,0h-.08l.1.1h0l1,.93,0,0,.54.51c.32.3.66.62,1,1l.46.45.49.48,1,1c.83.86,1.69,1.78,2.57,2.76l0,0s0,0,.05,0c.42.46.83.94,1.26,1.43l.18.2.36.43.36.43.08.08.22.27.63.76.64.78c1.3,1.6,2.63,3.32,4,5.15l.21.27,1.22,1.7.3.43c.31.44.63.9.94,1.36s.63.92.94,1.39l.57.87q.71,1.05,1.38,2.13c.27.42.54.84.8,1.27.67,1.07,1.34,2.17,2,3.3l.06.1.76,1.34.65,1.15c.51.9,1,1.81,1.5,2.74l.06.12.72,1.4.83,1.63c.23.47.47.94.7,1.42.51,1,1,2.07,1.48,3.13s.92,2,1.37,3.08l.48,1.15c.5,1.16,1,2.35,1.44,3.55s.9,2.33,1.32,3.52.82,2.32,1.21,3.5l.21.65c.47,1.41.91,2.85,1.33,4.31.13.43.25.87.37,1.3l.32,1.16Z"/><path class="cls-6" d="M478.84,221.11l0,0h-.31Z"/><path class="cls-7" d="M458.21,241.7a22.08,22.08,0,0,1,44.1.57Z"/><path class="cls-8" d="M507.52,300.48l.3-1c.21-.7.42-1.39.65-2.07l0-.08a.42.42,0,0,1,0-.1c.19-.57.39-1.12.58-1.69.41-1.16.81-2.3,1.24-3.43.16-.43.31-.86.48-1.28a.56.56,0,0,1,0-.12s0-.07,0-.11c.18-.48.38-.95.57-1.43l.58-1.41.15-.37c.3-.71.59-1.41.9-2.11l.16-.37.33-.75,0-.06.78-1.73c.54-1.18,1.1-2.34,1.66-3.48.28-.57.56-1.14.85-1.7s.54-1.08.82-1.61a.83.83,0,0,0,.09-.16c.18-.35.36-.68.55-1l.55-1c.48-.89,1-1.78,1.47-2.64l.27-.47c.28-.5.57-1,.86-1.48l.87-1.44s0,0,0,0c1.44-2.37,2.9-4.62,4.36-6.75l.73-1.05c.85-1.22,1.69-2.39,2.54-3.52.25-.34.49-.67.74-1q1.63-2.16,3.22-4.09l.94-1.13.8-1h0c.54-.63,1.08-1.25,1.62-1.85l.32-.37.07-.07.26-.3.06-.06h0l.07-.08.42-.47c.1-.11.21-.22.3-.33l0,0,0,0,.52-.56.1-.1.15-.15s0,0,0,0l1.5-1.55c.25-.26.49-.51.73-.73s.65-.66,1-.95l.43-.42.12-.11.29-.28.24-.23.34-.31.09-.09.08-.07.76-.68h0c.65-.58,1.27-1.1,1.85-1.58-.45.17-1,.33-1.55.49l-.45.12-.35.09-.39.09-1.13.26-.7.14-.54.1-.34.07h0l-.31.05-.62.11h-.07l-1.44.23-.38.06h0l-.1,0-.28,0-.43.07-.16,0-.19,0-.17,0-.21,0-.43.05c-1.37.18-2.84.35-4.39.51l-1.19.12-.72.07-.35,0h-.15l-2.53.22-.66.06-2,.15-2.78.19s0,0,0,0c-.42.56-.83,1.13-1.25,1.7,0,.06-.09.12-.13.19l-.66.92q-1.08,1.5-2.13,3.06c-.84,1.22-1.67,2.48-2.5,3.76-.41.64-.83,1.29-1.24,2a182.06,182.06,0,0,0-21.27,47.93h14.62Z"/><path class="cls-9" d="M405.85,235.65c7.92,3.19,36.5,5.84,70.58,6.28s62.67-1.46,70.7-4.44a94.86,94.86,0,0,0-11.37,11.42,270.54,270.54,0,0,1-58.21,5.82,270.6,270.6,0,0,1-60.62-7.37A95.66,95.66,0,0,0,405.85,235.65Z"/><path class="cls-10" d="M416.93,247.36a95.66,95.66,0,0,0-11.08-11.71h0c3.37,1.36,10.47,2.61,20.13,3.65l1.51,1.81c2.38,2.93,4.86,6.23,7.35,9.86C428.84,250,422.87,248.77,416.93,247.36Z"/><path class="cls-11" d="M547.13,237.49a94.59,94.59,0,0,0-11.38,11.41q-10.72,2.26-21.58,3.65c2.62-4.18,5.29-8.05,7.92-11.6,12.13-.79,21.08-2,25-3.46Z"/><path class="cls-12" d="M479.51,234.87c5.69.07,10.33-2.5,10.37-5.74s-4.53-5.93-10.22-6-10.33,2.5-10.37,5.74S473.82,234.79,479.51,234.87Z"/><path class="cls-13" d="M534.9,239.93,588.06.68,360.92-.16l56.29,237.8s40.42,4.76,59.42,4.46S534.9,239.93,534.9,239.93Z"/><g class="cls-14"><path class="cls-2" d="M502.81,173.58a25.47,25.47,0,0,0,7.23.91l-.88,1.66a25.23,25.23,0,0,1-7.24-.91Z"/><path class="cls-2" d="M510,174.49c4.67-.15,7.91-1.89,9.35-4.6l-.89,1.66c-1.44,2.71-4.67,4.46-9.34,4.6Z"/><path class="cls-2" d="M484.46,160.77c3.63,5.9,11,10.83,18.35,12.81l-.89,1.66c-7.36-2-14.71-6.91-18.35-12.81-2.4-3.91-2.73-7.51-1.31-10.18l.89-1.66C481.73,153.26,482.05,156.86,484.46,160.77Z"/><path class="cls-15" d="M482.26,152.25l.89-1.66c1.44-2.7,4.67-4.45,9.34-4.6l-.89,1.66C486.93,147.8,483.7,149.55,482.26,152.25Z"/><path class="cls-16" d="M479.32,149.42l.89-1.66c1.9-3.58,6.18-5.89,12.36-6.09l-.88,1.67C485.5,143.53,481.23,145.84,479.32,149.42Z"/><path class="cls-15" d="M491.6,147.65c9.29-.29,20.74,5.86,25.59,13.73s1.25,14.48-8,14.77-20.74-5.85-25.59-13.72S482.32,148,491.6,147.65Z"/><path class="cls-15" d="M519.39,169.89l-.89,1.66c1.42-2.66,1.1-6.26-1.31-10.17-4.85-7.87-16.3-14-25.59-13.73l.89-1.66c9.28-.29,20.74,5.86,25.59,13.73C520.48,163.63,520.81,167.22,519.39,169.89Z"/><path class="cls-17" d="M528.18,173.31l-.89,1.66c1.89-3.53,1.46-8.3-1.73-13.47C519.14,151.08,504,143,491.69,143.34l.88-1.67c12.29-.38,27.46,7.75,33.87,18.17C529.63,165,530.06,169.78,528.18,173.31Z"/><path class="cls-2" d="M491.69,143.34c12.29-.39,27.45,7.74,33.87,18.16s1.65,19.17-10.64,19.56-27.45-7.75-33.86-18.17S479.4,143.72,491.69,143.34Zm17.47,32.81c9.28-.29,12.88-6.9,8-14.77s-16.3-14-25.59-13.73-12.87,6.91-8,14.78,16.3,14,25.59,13.72"/></g><path class="cls-18" d="M482.65,152.3l.29-.55c-1.59,3-1.23,7,1.46,11.38,5.41,8.79,18.25,15.68,28.62,15.35l-.3.56c-10.36.32-23.2-6.56-28.62-15.35C481.41,159.32,481.05,155.29,482.65,152.3Z"/><path class="cls-19" d="M523.46,173.33l-.29.56c-1.61,3-5.23,5-10.45,5.15l.3-.56C518.24,178.32,521.85,176.36,523.46,173.33Z"/><path class="cls-18" d="M481.29,151.58l.29-.55c1.72-3.23,5.58-5.32,11.14-5.5l-.29.56C486.86,146.26,483,148.35,481.29,151.58Z"/><path class="cls-18" d="M524.82,174.06l-.29.55c1.69-3.19,1.31-7.48-1.56-12.14-5.78-9.38-19.47-16.73-30.54-16.38l.29-.56c11.07-.34,24.77,7,30.55,16.38C526.14,166.57,526.52,170.87,524.82,174.06Z"/><path class="cls-20" d="M492.43,146.09c11.07-.35,24.76,7,30.54,16.38s1.48,17.29-9.59,17.63-24.76-7-30.53-16.37S481.37,146.43,492.43,146.09ZM512.72,179c10.37-.33,14.41-7.74,9-16.53s-18.25-15.68-28.63-15.36-14.39,7.75-9,16.54,18.26,15.67,28.62,15.35"/><polygon class="cls-18" points="491.4 163.09 491.7 162.53 495.07 161.61 494.77 162.16 491.4 163.09"/><polygon class="cls-18" points="503.25 162.72 503.54 162.16 505.67 168.1 505.37 168.66 503.25 162.72"/><polygon class="cls-18" points="517.14 168.29 517.43 167.74 519.09 172.39 518.8 172.94 517.14 168.29"/><polygon class="cls-18" points="505.37 168.66 505.67 168.1 517.43 167.74 517.14 168.29 505.37 168.66"/><polygon class="cls-18" points="505.68 159.23 505.98 158.68 507.46 161.09 507.17 161.64 505.68 159.23"/><polygon class="cls-18" points="502.31 160.16 502.6 159.6 505.98 158.68 505.68 159.23 502.31 160.16"/><polygon class="cls-20" points="498.83 150.71 502.31 160.16 505.68 159.23 507.17 161.64 503.25 162.72 505.37 168.66 517.14 168.29 518.8 172.94 498.98 173.57 495.71 164.73 492.89 165.5 491.4 163.09 494.77 162.16 490.69 150.97 498.83 150.71"/><polygon class="cls-18" points="498.83 150.71 499.12 150.16 502.6 159.6 502.31 160.16 498.83 150.71"/><polygon class="cls-18" points="490.69 150.97 490.99 150.41 499.12 150.16 498.83 150.71 490.69 150.97"/><g class="cls-14"><path class="cls-2" d="M496.12,191.93c0-.07-.05-.14-.07-.21,0-.71,0-1.41,0-2.12a1.72,1.72,0,0,0,.07.21C496.12,190.51,496.12,191.22,496.12,191.93Z"/><path class="cls-2" d="M496.12,191.93a1,1,0,0,1,0-.17c0-.65,0-1.3,0-1.95a8.23,8.23,0,0,1,.37,2.35c0,.71,0,1.42,0,2.12A8,8,0,0,0,496.12,191.93Z"/><path class="cls-2" d="M456.89,184.8c-4.48,2.6-6.72,6-6.73,9.42v-2.13c0-3.41,2.25-6.81,6.73-9.42,9-5.24,23.69-5.24,32.77,0,3.4,2,5.54,4.39,6.4,6.93,0,.71,0,1.41,0,2.12-.86-2.54-3-5-6.4-6.93C480.57,179.55,465.9,179.56,456.89,184.8Z"/><path class="cls-2" d="M496.49,194.35v-.07c0-.7,0-1.41,0-2.12v.07C496.49,192.86,496.49,193.71,496.49,194.35Z"/><path class="cls-15" d="M496.5,192.23v2.12c0,3.41-2.25,6.82-6.73,9.42-9,5.24-23.69,5.24-32.77,0-4.56-2.64-6.84-6.1-6.83-9.55v-2.13c0,3.46,2.27,6.92,6.84,9.56,9.08,5.24,23.75,5.24,32.76,0C494.24,199.05,496.49,195.64,496.5,192.23Z"/><path class="cls-15" d="M489.66,182.67c9.08,5.24,9.12,13.74.1,19s-23.68,5.24-32.76,0-9.12-13.74-.11-19S480.58,177.43,489.66,182.67Z"/><path class="cls-21" d="M504.45,193.12v2.12c0,4.52-3,9-8.91,12.48-11.94,6.93-31.35,6.94-43.37,0-6.05-3.49-9.06-8.08-9.05-12.65V193c0,4.57,3,9.15,9.06,12.64,12,6.94,31.43,6.94,43.36,0C501.47,202.15,504.44,197.64,504.45,193.12Z"/><path class="cls-2" d="M495.4,180.47c12,6.94,12.08,18.19.14,25.12s-31.34,6.94-43.36,0-12.08-18.18-.15-25.12S483.39,173.54,495.4,180.47ZM457,201.65c9.08,5.24,23.75,5.24,32.76,0s9-13.74-.1-19-23.75-5.24-32.77,0-9,13.74.11,19"/></g><path class="cls-18" d="M499.23,193v.7c0-3.87-2.54-7.74-7.64-10.69-10.13-5.85-26.58-5.85-36.65,0-5,2.9-7.51,6.72-7.52,10.54v-.71c0-3.82,2.51-7.64,7.51-10.54,10.08-5.86,26.52-5.86,36.65,0C496.7,185.23,499.25,189.11,499.23,193Z"/><path class="cls-18" d="M501,193v.71c0,4.07-2.69,8.14-8,11.25-10.74,6.24-28.28,6.24-39.1,0-5.45-3.14-8.16-7.27-8.15-11.4v-.71c0,4.13,2.71,8.26,8.15,11.41,10.82,6.24,28.36,6.24,39.1,0C498.29,201.13,501,197.06,501,193Z"/><path class="cls-20" d="M492.82,181.57c10.82,6.25,10.88,16.41.12,22.66s-28.28,6.24-39.1,0-10.87-16.41-.13-22.65S482,175.33,492.82,181.57Zm-37.76,22c10.14,5.85,26.59,5.85,36.65,0s10-15.38-.12-21.24-26.57-5.85-36.65,0-10,15.37.12,21.23"/><polygon class="cls-18" points="468.35 196.02 468.34 196.73 464.16 187.53 464.16 186.82 468.35 196.02"/><polygon class="cls-20" points="484.24 198.41 468.35 196.02 464.16 186.82 490.54 183.12 484.24 198.41"/><polygon class="cls-18" points="484.24 198.41 484.24 199.12 468.34 196.73 468.35 196.02 484.24 198.41"/><polygon class="cls-18" points="490.54 183.12 490.53 183.83 484.24 199.12 484.24 198.41 490.54 183.12"/><polygon class="cls-18" points="483.52 199.84 483.52 200.55 458.37 202.52 458.37 201.81 483.52 199.84"/><polygon class="cls-20" points="466.25 197.24 483.52 199.84 458.37 201.81 461.7 187.24 466.25 197.24"/><g class="cls-14"><path class="cls-2" d="M448.12,146.25a24.75,24.75,0,0,0,7.08,1.67l-1.05,1.56a25.15,25.15,0,0,1-7.09-1.67Z"/><path class="cls-2" d="M431.24,131.61c3,6.24,9.77,11.91,16.88,14.64l-1.06,1.56c-7.1-2.73-13.88-8.4-16.87-14.64-2-4.14-1.93-7.74-.24-10.24l1.06-1.56C429.32,123.87,429.26,127.48,431.24,131.61Z"/><path class="cls-2" d="M455.2,147.92c4.66.35,8.05-1,9.76-3.58l-1,1.55c-1.71,2.54-5.11,3.93-9.76,3.59Z"/><path class="cls-15" d="M430,122.93l1.06-1.56c1.71-2.53,5.1-3.93,9.76-3.58l-1.06,1.55C435.06,119,431.67,120.39,430,122.93Z"/><path class="cls-22" d="M424.93,118.9l1.05-1.55c2.27-3.36,6.76-5.2,12.91-4.75l-1.05,1.56C431.68,113.7,427.19,115.55,424.93,118.9Z"/><path class="cls-15" d="M465,144.34l-1,1.55c1.69-2.5,1.75-6.1-.23-10.23-4-8.33-14.72-15.63-24-16.32l1.06-1.55c9.24.68,20,8,24,16.31C466.71,138.23,466.65,141.84,465,144.34Z"/><path class="cls-2" d="M437.84,114.16c12.24.91,26.44,10.57,31.72,21.59S469.19,155,457,154.05s-26.44-10.58-31.72-21.59S425.6,113.25,437.84,114.16Zm16.31,35.32c9.24.68,13.51-5.5,9.53-13.82S449,120,439.71,119.34s-13.51,5.5-9.52,13.83,14.71,15.62,24,16.31"/><path class="cls-15" d="M439.71,119.34c9.25.69,20,8,24,16.32s-.29,14.5-9.53,13.82-20-8-24-16.31S430.47,118.66,439.71,119.34Z"/><path class="cls-23" d="M470.92,147.75l-1.06,1.56c2.24-3.31,2.32-8.09-.3-13.56-5.28-11-19.48-20.68-31.72-21.59l1.05-1.56c12.24.91,26.44,10.58,31.72,21.59C473.23,139.66,473.16,144.44,470.92,147.75Z"/></g><path class="cls-18" d="M427.73,122.37l.35-.52c-1.89,2.8-2,6.84.25,11.46,4.46,9.29,16.48,17.48,26.81,18.24l-.35.52c-10.33-.76-22.35-8.95-26.81-18.25C425.77,129.21,425.84,125.17,427.73,122.37Z"/><path class="cls-18" d="M466.05,147.54l-.35.52c-1.92,2.83-5.71,4.4-10.91,4l.35-.52C460.34,151.94,464.13,150.37,466.05,147.54Z"/><path class="cls-18" d="M426.46,121.51l.35-.52c2-3,6.09-4.69,11.64-4.28l-.35.52C432.55,116.81,428.5,118.48,426.46,121.51Z"/><path class="cls-18" d="M467.32,148.4l-.35.52c2-3,2.09-7.3-.27-12.22-4.75-9.92-17.59-18.66-28.6-19.47l.35-.52c11,.81,23.85,9.55,28.6,19.47C469.41,141.1,469.34,145.41,467.32,148.4Z"/><path class="cls-20" d="M438.1,117.23c11,.81,23.85,9.55,28.6,19.47s-.35,17.32-11.37,16.5-23.86-9.55-28.61-19.47S427.08,116.41,438.1,117.23Zm16.69,34.84c10.33.77,15.11-6.17,10.66-15.47S449,119.13,438.64,118.36s-15.11,6.17-10.66,15.46,16.48,17.49,26.81,18.25"/><path class="cls-18" d="M447.49,143.46l-.35.52a3.54,3.54,0,0,0-.08-3.58,7.33,7.33,0,0,0-1.17-1.69l.35-.52a7.71,7.71,0,0,1,1.18,1.69A3.56,3.56,0,0,1,447.49,143.46Z"/><path class="cls-18" d="M435.28,136l.35-.52a3.56,3.56,0,0,1,3.4-1.25,10.91,10.91,0,0,1,5.24,2.12l-.35.52a10.81,10.81,0,0,0-5.24-2.12A3.56,3.56,0,0,0,435.28,136Z"/><path class="cls-19" d="M446.28,135l-.35.52c-.23.34-.87.58-2,1.26l.35-.52C445.41,135.62,446.05,135.38,446.28,135Z"/><path class="cls-18" d="M447,132.48l.36-.52c2,4.07.46,2.61,5.38,5l-.35.52C447.45,135.09,448.93,136.55,447,132.48Z"/><path class="cls-18" d="M452.44,137.34l.35-.52a3.66,3.66,0,0,1,3.52-1.36,11.2,11.2,0,0,1,8.3,5.7,3.6,3.6,0,0,1,.09,3.61l-.35.52a3.6,3.6,0,0,0-.09-3.61A11.2,11.2,0,0,0,456,136,3.65,3.65,0,0,0,452.44,137.34Z"/><path class="cls-18" d="M437.4,123.25l.35-.52a3.61,3.61,0,0,1,3.42-1.26l-.35.52A3.61,3.61,0,0,0,437.4,123.25Z"/><path class="cls-18" d="M449.63,130.74l-.35.52a3.55,3.55,0,0,0-.08-3.57,11.12,11.12,0,0,0-8.38-5.7l.35-.52a11.12,11.12,0,0,1,8.38,5.7A3.55,3.55,0,0,1,449.63,130.74Z"/><path class="cls-20" d="M440.82,122a11.12,11.12,0,0,1,8.38,5.7c1.21,2.54.23,4.53-2.22,4.79,1.95,4.07.47,2.61,5.39,5A3.6,3.6,0,0,1,456,136a11.2,11.2,0,0,1,8.31,5.7c1.4,2.93-.07,5.08-3.26,4.84a11.1,11.1,0,0,1-8.38-5.7,4.41,4.41,0,0,1-.5-1.65c-2.28-1.1-3.14-1.63-3.78-1.68s-1.06.39-2.45,1.22a7.33,7.33,0,0,1,1.17,1.69c1.41,2.94-.14,5.08-3.33,4.84a11.09,11.09,0,0,1-8.38-5.71c-1.37-2.87.07-5.07,3.33-4.83a10.81,10.81,0,0,1,5.24,2.12c2.66-1.6,2.63-.77.87-4.43a11.4,11.4,0,0,1-7.31-5.57C436.08,123.89,437.63,121.75,440.82,122Z"/><g class="cls-14"><path class="cls-2" d="M517.67,113.13c1.74-4.24,1.48-7.84-.35-10.24l1.14,1.5c1.83,2.4,2.09,6,.35,10.24-3.5,8.53-13.8,16.43-23,17.65l-1.14-1.5C503.87,129.57,514.17,121.67,517.67,113.13Z"/><path class="cls-2" d="M484.73,127.76c1.85,2.43,5.32,3.63,9.95,3l1.14,1.5c-4.63.61-8.1-.59-9.95-3Z"/><path class="cls-15" d="M517.32,102.89l1.14,1.5c-1.86-2.43-5.32-3.64-10-3l-1.14-1.5C512,99.26,515.46,100.46,517.32,102.89Z"/><path class="cls-24" d="M526.56,98.66l1.14,1.49c-2.45-3.22-7-4.81-13.16-4l-1.14-1.49C519.52,93.85,524.11,95.44,526.56,98.66Z"/><path class="cls-15" d="M508.51,101.37c9.19-1.22,13.81,4.72,10.3,13.26s-13.8,16.43-23,17.65S482,127.55,485.52,119,499.32,102.58,508.51,101.37Z"/><path class="cls-15" d="M485.87,129.25l-1.14-1.49c-1.83-2.4-2.09-6-.35-10.23,3.5-8.54,13.8-16.45,23-17.66l1.14,1.5c-9.19,1.21-19.49,9.11-23,17.65C483.78,123.26,484,126.85,485.87,129.25Z"/><path class="cls-25" d="M484.57,133.07l-1.14-1.49c-2.42-3.18-2.77-8-.46-13.56,4.64-11.3,18.26-21.76,30.43-23.36l1.14,1.49c-12.17,1.61-25.8,12.07-30.43,23.37C481.8,125.13,482.15,129.89,484.57,133.07Z"/><path class="cls-2" d="M514.54,96.15c12.17-1.6,18.27,6.26,13.63,17.55s-18.26,21.76-30.43,23.37-18.27-6.26-13.63-17.55S502.37,97.76,514.54,96.15Zm-18.72,36.13c9.19-1.22,19.49-9.12,23-17.65s-1.11-14.48-10.3-13.26-19.49,9.11-23,17.65,1.11,14.47,10.3,13.26"/></g><path class="cls-18" d="M523.6,103.34l.38.5c2,2.69,2.34,6.72.4,11.46-3.91,9.53-15.45,18.38-25.72,19.74l-.38-.5c10.27-1.35,21.81-10.21,25.72-19.74C525.94,110.06,525.65,106,523.6,103.34Z"/><path class="cls-18" d="M487.54,131.65l-.38-.5c2.08,2.73,5.95,4.07,11.12,3.39l.38.5C493.49,135.72,489.62,134.37,487.54,131.65Z"/><path class="cls-18" d="M524.82,102.41l.38.5c-2.22-2.9-6.35-4.34-11.86-3.61l-.38-.5C518.47,98.08,522.6,99.51,524.82,102.41Z"/><path class="cls-18" d="M486.32,132.58l-.38-.49c-2.19-2.87-2.5-7.16-.43-12.22C489.69,109.7,502,100.25,513,98.8l.38.5c-11,1.45-23.27,10.9-27.45,21.07C483.82,125.42,484.13,129.72,486.32,132.58Z"/><path class="cls-20" d="M513.34,99.3c10.95-1.44,16.46,5.65,12.28,15.83s-16.48,19.62-27.43,21.07-16.48-5.66-12.3-15.83S502.38,100.75,513.34,99.3ZM498.66,135c10.27-1.36,21.81-10.21,25.72-19.74s-1.25-16.2-11.52-14.84-21.81,10.21-25.72,19.75,1.25,16.18,11.52,14.83"/><polygon class="cls-18" points="509.96 121 509.58 120.5 515.77 112.05 516.15 112.55 509.96 121"/><path class="cls-18" d="M522.41,107.3l.38.5c-.38-.5-1.15-.7-2.3-.55l-.38-.5A2.4,2.4,0,0,1,522.41,107.3Z"/><polygon class="cls-18" points="494.49 123.04 494.11 122.54 509.58 120.5 509.96 121 494.49 123.04"/><polygon class="cls-18" points="490.64 128.34 490.26 127.84 494.11 122.54 494.49 123.04 490.64 128.34"/><polygon class="cls-18" points="500.68 114.59 500.3 114.09 504.12 108.86 504.5 109.36 500.68 114.59"/><polygon class="cls-18" points="504.5 109.36 504.12 108.86 520.11 106.75 520.49 107.25 504.5 109.36"/><path class="cls-20" d="M520.49,107.25c1.4-.18,2.23.16,2.49.9s-.08,1.89-1,3.18l-7,9.53a15,15,0,0,1-3.9,3.55,11.28,11.28,0,0,1-4.44,1.82l-16,2.11,3.85-5.3L510,121l6.19-8.45-15.47,2,3.82-5.23Z"/><polygon class="cls-26" points="496.39 116.57 506.98 114.76 503.98 120.23 493.15 121.8 496.39 116.57"/><g class="cls-14"><path class="cls-2" d="M457.63,66.63c3.71,6.42,8.84,12,14.51,15.31l-2.29,1.33C464.17,80,459,74.39,455.33,68Z"/><path class="cls-2" d="M451.66,46.46c0,6.52,2.26,13.75,6,20.17L455.33,68c-3.7-6.42-6-13.66-6-20.18s2.31-11,6-13.18l2.29-1.33C454,35.42,451.67,40,451.66,46.46Z"/><path class="cls-2" d="M472.14,81.94c5.72,3.3,10.89,3.6,14.63,1.43l-2.29,1.34c-3.74,2.17-8.92,1.86-14.63-1.44Z"/><path class="cls-15" d="M455.36,34.61l2.29-1.33c3.74-2.18,8.92-1.87,14.63,1.43L470,36C464.27,32.74,459.09,32.44,455.36,34.61Z"/><path class="cls-27" d="M455.44,34.06l2.3-1.34c4.95-2.87,11.8-2.47,19.36,1.9L474.8,36C467.24,31.59,460.39,31.18,455.44,34.06Z"/><path class="cls-15" d="M470,36c11.35,6.55,20.53,22.44,20.49,35.49s-9.27,18.3-20.62,11.74-20.53-22.44-20.49-35.48S458.63,29.49,470,36Z"/><path class="cls-15" d="M486.77,83.37l-2.29,1.33c3.68-2.14,6-6.69,6-13.17,0-13.05-9.14-28.94-20.49-35.49l2.3-1.33c11.35,6.55,20.52,22.44,20.49,35.48C492.75,76.67,490.46,81.23,486.77,83.37Z"/><path class="cls-28" d="M496.28,99l-2.3,1.33c4.88-2.83,7.91-8.87,7.94-17.44.05-17.27-12.1-38.29-27.12-47l2.3-1.33c15,8.67,27.16,29.7,27.11,47C504.19,90.16,501.16,96.19,496.28,99Z"/><path class="cls-2" d="M474.8,36c15,8.68,27.17,29.7,27.12,47s-12.27,24.22-27.3,15.55-27.16-29.7-27.11-47S459.78,27.28,474.8,36Zm-4.95,47.32c11.35,6.55,20.58,1.3,20.62-11.74S481.33,42.59,470,36s-20.58-1.29-20.62,11.75,9.14,28.93,20.49,35.48"/></g><path class="cls-18" d="M457.55,40l.77-.44c-4.13,2.4-6.7,7.5-6.72,14.73,0,14.57,10.24,32.37,22.92,39.7l-.76.44c-12.68-7.32-23-25.13-22.92-39.69C450.86,47.52,453.42,42.42,457.55,40Z"/><path class="cls-18" d="M490.87,95.59l-.76.45c-4.18,2.43-10,2.09-16.35-1.59l.76-.44C480.9,97.69,486.69,98,490.87,95.59Z"/><path class="cls-18" d="M456.46,38.15l.77-.45c4.46-2.59,10.64-2.23,17.45,1.7l-.77.44C467.1,35.91,460.93,35.55,456.46,38.15Z"/><path class="cls-18" d="M492,97.47l-.77.44c4.41-2.56,7.14-8,7.17-15.71,0-15.55-10.93-34.55-24.46-42.36l.77-.44c13.52,7.81,24.5,26.81,24.45,42.35C499.11,89.47,496.37,94.91,492,97.47Z"/><path class="cls-20" d="M473.91,39.84c13.53,7.81,24.5,26.81,24.46,42.36s-11.09,21.83-24.62,14-24.5-26.81-24.45-42.35S460.39,32,473.91,39.84Zm-.15,54.61c12.68,7.32,23,1.42,23.06-13.14s-10.23-32.38-22.91-39.7-23-1.42-23.07,13.15,10.24,32.37,22.92,39.69"/><polygon class="cls-18" points="459.24 71.63 460.01 71.18 464.45 73.75 463.69 74.19 459.24 71.63"/><polygon class="cls-18" points="471.72 84.77 472.48 84.33 472.47 88.75 471.71 89.19 471.72 84.77"/><polygon class="cls-20" points="478.53 88.28 479.3 87.83 479.29 92.68 478.52 93.13 478.53 88.28"/><polygon class="cls-18" points="470 77.79 470.76 77.34 475.02 79.8 474.25 80.24 470 77.79"/><polygon class="cls-20" points="470.02 68.87 470.79 68.43 470.76 77.34 470 77.79 470.02 68.87"/><path class="cls-18" d="M479,80.66l-.76.45c-.09,0-.18.09-.27.12-.81.28-2,0-3.7-1l.77-.44c1.66.94,2.89,1.26,3.7,1A1.23,1.23,0,0,0,479,80.66Z"/><polygon class="cls-18" points="470.04 63.13 470.8 62.68 474.46 64.8 473.7 65.24 470.04 63.13"/><polygon class="cls-18" points="470.06 55.53 470.82 55.08 470.8 62.68 470.04 63.13 470.06 55.53"/><path class="cls-18" d="M473.7,65.24l.76-.44.6.32a5.27,5.27,0,0,0,3.12.91l-.76.45a5.44,5.44,0,0,1-3.13-.91Z"/><polygon class="cls-29" points="480.44 71.63 481.21 71.19 481.21 71.43 480.44 71.87 480.44 71.63"/><path class="cls-29" d="M478.52,65.9l-.76.44a1.11,1.11,0,0,1-.34.14l.76-.45A.93.93,0,0,0,478.52,65.9Z"/><polygon class="cls-18" points="459.32 43.38 460.09 42.93 468.29 47.67 467.52 48.11 459.32 43.38"/><path class="cls-18" d="M484.35,87.75l-.76.44c1.43-.83,2.16-2.58,2.17-5.24a14.24,14.24,0,0,0-1.24-6l.76-.45a14.13,14.13,0,0,1,1.24,6Q486.51,86.5,484.35,87.75Z"/><path class="cls-18" d="M480.44,71.87l.77-.44a14.65,14.65,0,0,1,4.07,5.06l-.76.45A14.69,14.69,0,0,0,480.44,71.87Z"/><polygon class="cls-18" points="471.81 50.59 472.58 50.15 473.79 50.84 473.02 51.29 471.81 50.59"/><path class="cls-18" d="M473,51.29l.77-.45c.45.26.88.52,1.31.79l-.77.45C473.91,51.81,473.47,51.55,473,51.29Z"/><polygon class="cls-18" points="467.54 43.7 468.3 43.26 472.59 45.73 471.83 46.18 467.54 43.7"/><polygon class="cls-18" points="471.83 46.18 472.59 45.73 472.58 50.15 471.81 50.59 471.83 46.18"/><path class="cls-18" d="M484,71.17l-.77.45a3.2,3.2,0,0,0,.55-.42c.84-.82,1.26-2.27,1.27-4.3a13.26,13.26,0,0,0-2.84-8.23,22,22,0,0,0-3.58-3.59l.76-.44A21.21,21.21,0,0,1,483,58.22a13.17,13.17,0,0,1,2.84,8.24c0,2-.43,3.48-1.27,4.29A2.63,2.63,0,0,1,484,71.17Z"/><polygon class="cls-18" points="478.64 50.11 479.41 49.67 479.39 54.64 478.63 55.08 478.64 50.11"/><polygon class="cls-18" points="474.34 47.63 475.11 47.19 479.41 49.67 478.64 50.11 474.34 47.63"/><path class="cls-20" d="M484.52,76.94a14.24,14.24,0,0,1,1.24,6c0,3.12-1,5-3,5.59a7.1,7.1,0,0,1-4.26-.26v4.85l-4.3-2.48V86.23l-2.51-1.46v4.42l-4.3-2.47,0-4.42-8.2-4.74V71.63l4.45,2.56.06-22.3-4.44-2.57V43.38l8.2,4.73,0-4.41,4.29,2.48v4.41l1.2.7,1.31.78V47.63l4.3,2.48v5a22,22,0,0,1,3.58,3.59,13.26,13.26,0,0,1,2.84,8.23c0,2-.43,3.48-1.27,4.3a2.91,2.91,0,0,1-3.34.43v.24A14.69,14.69,0,0,1,484.52,76.94Zm-6,3.88a3.53,3.53,0,0,0,.64-2.38,6.36,6.36,0,0,0-.63-2.8,10.54,10.54,0,0,0-4.29-4.3c-.12-.08-.23-.14-.36-.21L470,68.87l0,8.92,4.26,2.45c1.67.94,2.89,1.27,3.7,1a1.41,1.41,0,0,0,.61-.41m-8.5-25.29,0,7.6,3.66,2.11.59.33a5.44,5.44,0,0,0,3.13.91c.76-.17,1.15-1,1.15-2.36a5.42,5.42,0,0,0-1.25-3.54,12,12,0,0,0-3-2.56c-.29-.19-.61-.39-.94-.58l-3.31-1.91"/></svg>