<svg xmlns="http://www.w3.org/2000/svg" xmlns:xlink="http://www.w3.org/1999/xlink" viewBox="0 0 600 300"><defs><style>.cls-1{isolation:isolate;}.cls-2{fill:#f0b90b;}.cls-3{fill:#ef0601;}.cls-4{fill:#fea309;}.cls-5{fill:#fefefe;}.cls-6{fill:#010000;}.cls-7{fill:#fe8300;}.cls-8{fill:#fe9200;}.cls-10,.cls-11,.cls-12,.cls-19,.cls-45,.cls-9{fill:#fff;}.cls-9{opacity:0.56;}.cls-10{opacity:0.4;}.cls-11{opacity:0.23;}.cls-12{opacity:0.14;}.cls-13{fill:#687fe3;}.cls-14{fill:#ccc;}.cls-15{fill:#eee;}.cls-16{fill:#bbb;}.cls-17{fill:#ddd;}.cls-18{fill:#1a1a1a;}.cls-20{fill:url(#linear-gradient);}.cls-21{fill:url(#linear-gradient-2);}.cls-22{fill:url(#linear-gradient-3);}.cls-23{fill:url(#linear-gradient-4);}.cls-24{fill:url(#linear-gradient-5);}.cls-25{fill:url(#linear-gradient-6);}.cls-26{fill:url(#linear-gradient-7);}.cls-27{fill:url(#linear-gradient-8);}.cls-28{fill:url(#linear-gradient-9);}.cls-29{fill:url(#linear-gradient-10);}.cls-30{fill:url(#linear-gradient-11);}.cls-31,.cls-32,.cls-33,.cls-34,.cls-35,.cls-36,.cls-37,.cls-38{opacity:0.3;mix-blend-mode:multiply;}.cls-31{fill:url(#Degradado_sin_nombre_2);}.cls-32{fill:url(#Degradado_sin_nombre_2-2);}.cls-33{fill:url(#Degradado_sin_nombre_2-3);}.cls-34{fill:url(#Degradado_sin_nombre_2-4);}.cls-35{fill:url(#Degradado_sin_nombre_2-5);}.cls-36{fill:url(#Degradado_sin_nombre_2-6);}.cls-37{fill:url(#Degradado_sin_nombre_2-7);}.cls-38{fill:url(#Degradado_sin_nombre_2-8);}.cls-39{fill:#ff474c;}.cls-40{fill:#02c06e;}.cls-41{fill:#f7931a;}.cls-42{fill:#f3ba2f;}.cls-43{fill:url(#linear-gradient-12);}.cls-44,.cls-45,.cls-46,.cls-47,.cls-48,.cls-49{fill-rule:evenodd;}.cls-44{fill:url(#linear-gradient-13);}.cls-46{fill:#fc9965;}.cls-47{fill:#ff2d55;}.cls-48{fill:url(#linear-gradient-14);}.cls-49{fill:#ffbc5b;}.cls-50{fill:#ffc95b;}.cls-51{fill:none;stroke:#1a1a1a;stroke-miterlimit:10;stroke-width:0.76px;}</style><linearGradient id="linear-gradient" x1="717.17" y1="-45.41" x2="717.17" y2="-193.95" gradientTransform="translate(-619.15 307.89) rotate(1.62)" gradientUnits="userSpaceOnUse"><stop offset="0" stop-color="#1a1a1a"/><stop offset="0.44" stop-color="#333"/><stop offset="1" stop-color="#666"/></linearGradient><linearGradient id="linear-gradient-2" x1="69.61" y1="192.59" x2="167.67" y2="192.59" gradientUnits="userSpaceOnUse"><stop offset="0" stop-color="#fdf6ea"/><stop offset="1" stop-color="#178dff"/></linearGradient><linearGradient id="linear-gradient-3" x1="860.43" y1="-101.9" x2="983.36" y2="-101.9" gradientTransform="translate(-820.55 323.38) rotate(1.63)" gradientUnits="userSpaceOnUse"><stop offset="0" stop-color="#480bf0"/><stop offset="1" stop-color="#178dff"/></linearGradient><linearGradient id="linear-gradient-4" x1="85.78" y1="188.15" x2="167.67" y2="188.15" gradientUnits="userSpaceOnUse"><stop offset="0" stop-color="#fff"/><stop offset="1" stop-color="#bcdfff"/></linearGradient><linearGradient id="linear-gradient-5" x1="860.43" y1="-164.62" x2="914.33" y2="-164.62" gradientTransform="translate(-820.55 323.38) rotate(1.63)" gradientUnits="userSpaceOnUse"><stop offset="0" stop-color="#480bf0"/><stop offset="1" stop-color="#0bb3f0" stop-opacity="0.8"/></linearGradient><linearGradient id="linear-gradient-6" x1="847.75" y1="-45.41" x2="847.75" y2="-193.91" gradientTransform="translate(-619.15 307.89) rotate(1.62)" gradientUnits="userSpaceOnUse"><stop offset="0" stop-color="#1a1a1a"/><stop offset="0.44" stop-color="#4d4d4d"/><stop offset="1" stop-color="#4d4d4d"/></linearGradient><linearGradient id="linear-gradient-7" x1="-819.81" y1="-158.46" x2="-723.26" y2="-158.46" gradientTransform="matrix(-1, -0.03, -0.03, 1, -560.58, 331.37)" gradientUnits="userSpaceOnUse"><stop offset="0" stop-color="#fff"/><stop offset="1" stop-color="#4daaff"/></linearGradient><linearGradient id="linear-gradient-8" x1="-846.19" y1="-102.49" x2="-723.26" y2="-102.49" gradientTransform="matrix(-1, -0.03, -0.03, 1, -560.58, 331.37)" gradientUnits="userSpaceOnUse"><stop offset="0" stop-color="#480bf0"/><stop offset="1" stop-color="#0bb3f0"/></linearGradient><linearGradient id="linear-gradient-9" x1="-803.99" y1="-163.06" x2="-723.26" y2="-163.06" gradientTransform="matrix(-1, -0.03, -0.03, 1, -560.58, 331.37)" gradientUnits="userSpaceOnUse"><stop offset="0" stop-color="#fff"/><stop offset="0.12" stop-color="#e7f2fd" stop-opacity="0.96"/><stop offset="0.32" stop-color="#c2defa" stop-opacity="0.9"/><stop offset="0.51" stop-color="#a6cef7" stop-opacity="0.86"/><stop offset="0.7" stop-color="#91c2f5" stop-opacity="0.83"/><stop offset="0.86" stop-color="#84bbf4" stop-opacity="0.81"/><stop offset="1" stop-color="#80b9f4" stop-opacity="0.8"/></linearGradient><linearGradient id="linear-gradient-10" x1="782.45" y1="-144.98" x2="855.53" y2="-144.98" gradientTransform="translate(-619.15 307.89) rotate(1.62)" gradientUnits="userSpaceOnUse"><stop offset="0" stop-color="#80b9f4"/><stop offset="0.11" stop-color="#9ac8f6"/><stop offset="0.29" stop-color="#bedbf9"/><stop offset="0.47" stop-color="#dbebfc"/><stop offset="0.64" stop-color="#eff6fe"/><stop offset="0.82" stop-color="#fbfdff"/><stop offset="1" stop-color="#fff"/></linearGradient><linearGradient id="linear-gradient-11" x1="-846.19" y1="-165.21" x2="-792.3" y2="-165.21" gradientTransform="matrix(-1, -0.03, -0.03, 1, -560.58, 331.37)" gradientUnits="userSpaceOnUse"><stop offset="0" stop-color="#480bf0"/><stop offset="1" stop-color="#00beff"/></linearGradient><linearGradient id="Degradado_sin_nombre_2" x1="52.1" y1="214.34" x2="108.6" y2="214.34" gradientTransform="translate(-53.81 92.14) rotate(-26.88)" gradientUnits="userSpaceOnUse"><stop offset="0" stop-color="#d766ff"/><stop offset="1" stop-color="#178dff"/></linearGradient><linearGradient id="Degradado_sin_nombre_2-2" x1="46.9" y1="213.9" x2="97.65" y2="207.3" xlink:href="#Degradado_sin_nombre_2"/><linearGradient id="Degradado_sin_nombre_2-3" x1="19.2" y1="196.42" x2="109.15" y2="245.28" xlink:href="#Degradado_sin_nombre_2"/><linearGradient id="Degradado_sin_nombre_2-4" x1="35.17" y1="216.35" x2="104.36" y2="216.35" xlink:href="#Degradado_sin_nombre_2"/><linearGradient id="Degradado_sin_nombre_2-5" x1="-349.16" y1="-2.25" x2="-292.66" y2="-2.25" gradientTransform="matrix(-0.88, -0.48, -0.48, 0.88, -64.96, 96.76)" xlink:href="#Degradado_sin_nombre_2"/><linearGradient id="Degradado_sin_nombre_2-6" x1="-354.36" y1="-2.68" x2="-303.61" y2="-9.29" gradientTransform="matrix(-0.88, -0.48, -0.48, 0.88, -64.96, 96.76)" xlink:href="#Degradado_sin_nombre_2"/><linearGradient id="Degradado_sin_nombre_2-7" x1="-382.06" y1="-20.17" x2="-292.11" y2="28.7" gradientTransform="matrix(-0.88, -0.48, -0.48, 0.88, -64.96, 96.76)" xlink:href="#Degradado_sin_nombre_2"/><linearGradient id="Degradado_sin_nombre_2-8" x1="-366.09" y1="-0.24" x2="-296.9" y2="-0.24" gradientTransform="matrix(-0.88, -0.48, -0.48, 0.88, -64.96, 96.76)" xlink:href="#Degradado_sin_nombre_2"/><linearGradient id="linear-gradient-12" x1="-260.02" y1="-786.83" x2="-260.07" y2="-786.77" gradientTransform="translate(189896.18 271798.46) rotate(-16.64) scale(400)" gradientUnits="userSpaceOnUse"><stop offset="0" stop-color="#ff2d55"/><stop offset="1" stop-color="#ffbc5b"/></linearGradient><linearGradient id="linear-gradient-13" x1="-259.07" y1="-787.37" x2="-259.07" y2="-787.3" gradientTransform="matrix(119.76, -35.8, 42.96, 143.72, 64953.88, 103928.94)" gradientUnits="userSpaceOnUse"><stop offset="0" stop-color="#a524b3"/><stop offset="1" stop-color="#ff2d55"/></linearGradient><linearGradient id="linear-gradient-14" x1="-259.67" y1="-788.18" x2="-259.67" y2="-788.1" gradientTransform="matrix(87.86, -26.26, 31.5, 105.39, 47755.37, 76296.98)" xlink:href="#linear-gradient-13"/></defs><g class="cls-1"><g id="Layer_1" data-name="Layer 1"><rect class="cls-2" width="600" height="300"/><circle class="cls-3" cx="218.09" cy="74.43" r="21.25"/><circle class="cls-3" cx="218.54" cy="76.24" r="19.39"/><path d="M213.9,57.6A19.2,19.2,0,0,1,235,86.14a19.14,19.14,0,0,1-11.82,8.74,19.22,19.22,0,0,1-23.63-21.62A19.28,19.28,0,0,1,207,60.87a18.93,18.93,0,0,1,6.9-3.27m-.05-.17a19.38,19.38,0,1,0,23.5,14.13,19.38,19.38,0,0,0-23.5-14.13Z"/><path class="cls-4" d="M222.56,92.75c-6.75,1.68-16.29-2.19-17.6-7.47A20.67,20.67,0,0,1,206.83,71a15.08,15.08,0,0,1,19.44-4.83,20.71,20.71,0,0,1,8.33,11.7C235.91,83.18,229.3,91.08,222.56,92.75Z"/><path class="cls-5" d="M222.56,92.75c6.74-1.67,13.35-9.57,12-14.85A9.54,9.54,0,0,0,230,79.27a9.69,9.69,0,0,0-3.1,3.32s-1.59-5.12-7.78-3.58-5.19,6.81-5.19,6.81a8.9,8.9,0,0,0-9-.54C206.27,90.56,215.81,94.43,222.56,92.75Z"/><path class="cls-6" d="M224.62,85.46l-1,.26a.15.15,0,0,0-.11.08l0,.06a.15.15,0,0,1-.11.08l-1.21.3c-.36.09-.47-.28-.63-.34a.8.8,0,0,0-.27,0l-.33-1.29c.48-.58,1.47-1.45,1.27-2.24l-.29-1.16a.47.47,0,0,0-.58-.35l-3.2.79a.49.49,0,0,0-.35.58l.3,1.17c.19.79,1.47,1.09,2.17,1.38l.32,1.29a.69.69,0,0,0-.24.14c-.12.12,0,.51-.4.6l-1.21.3a.23.23,0,0,1-.14,0l-.06,0a.22.22,0,0,0-.14,0l-1,.26a.09.09,0,0,0-.06.13l.5.9a.13.13,0,0,0,.14.06l.1,0a.13.13,0,0,1,.13,0l.78,1.07s.12,0,.18-.36a1.39,1.39,0,0,0,0-.35c-.08-.35-.22-.85-.28-1.07a.09.09,0,0,1,.08-.12,16.13,16.13,0,0,0,2.32-.39,18.09,18.09,0,0,0,2.23-.74.09.09,0,0,1,.13.07c.05.22.15.73.26,1.07a1.39,1.39,0,0,0,.12.33c.2.25.33.24.33.24l.19-1.32a.11.11,0,0,1,.09-.1l.1,0a.12.12,0,0,0,.09-.11l0-1A.09.09,0,0,0,224.62,85.46Z"/><path class="cls-6" d="M222.53,87.15l-1.29.32-1.29.32c-.18,0-.07.32,0,.37s.35.17.45.11.17-.27.26-.29.48.43.79.35.36-.64.54-.68.26.13.36.14.3-.22.35-.32S222.7,87.11,222.53,87.15Z"/><path class="cls-4" d="M221.64,64.51a28.76,28.76,0,0,1,2.54-4.64c2.11-2.89,4-3.28,4-3.28s1.32.9,1.83,4.06a42.62,42.62,0,0,1,.2,9.06"/><path class="cls-7" d="M228.34,60.13a3.89,3.89,0,0,1,.21.53,10,10,0,0,1,.41,2,22.38,22.38,0,0,1,.08,3.66c0,.63-.08,1.26-.12,1.92a17,17,0,0,0-4.18-2.94c.07-.28.13-.56.21-.83a9.75,9.75,0,0,1,.85-2.09A5.43,5.43,0,0,1,226.89,61,3.66,3.66,0,0,1,228.34,60.13Z"/><path class="cls-8" d="M228.34,60.13a3.83,3.83,0,0,0-1.45.86,5.38,5.38,0,0,0-1.09,1.42A10,10,0,0,0,225,64.5c-.08.28-.14.56-.21.84l-1.71-.7c-.07,0-.08-.06,0-.12.42-.67.81-1.35,1.26-2s1-1.31,1.51-1.93A8,8,0,0,1,227.57,59a.07.07,0,0,1,.09,0A3.61,3.61,0,0,1,228.34,60.13Z"/><path class="cls-4" d="M210.12,67.38a28.65,28.65,0,0,0-4.41-2.91c-3.22-1.57-5.09-1-5.09-1s-.75,1.41.28,4.44A42.77,42.77,0,0,0,205,76"/><path class="cls-7" d="M203.83,66.72a5.54,5.54,0,0,1,1.64.75,9.51,9.51,0,0,1,1.72,1.45c.21.2.4.42.59.63a16.63,16.63,0,0,0-2.32,4.56c-.35-.56-.69-1.1-1-1.64a23.29,23.29,0,0,1-1.65-3.27,10.46,10.46,0,0,1-.58-2,5.54,5.54,0,0,1-.07-.57A3.81,3.81,0,0,1,203.83,66.72Z"/><path class="cls-8" d="M202.23,65.35a.08.08,0,0,1,.08,0,7.76,7.76,0,0,1,2.33.54c.76.3,1.51.63,2.24,1s1.37.78,2.05,1.17c.06,0,.08.06,0,.13l-1.17,1.41-.59-.64a9.94,9.94,0,0,0-1.72-1.45,5.52,5.52,0,0,0-1.64-.74,3.81,3.81,0,0,0-1.68-.08A3.34,3.34,0,0,1,202.23,65.35Z"/><path class="cls-6" d="M222.66,78.06a.2.2,0,0,1-.2-.18,1.55,1.55,0,0,1,.31-1.13,15.35,15.35,0,0,1,3.55-3.43A3.6,3.6,0,0,1,227,73a.2.2,0,0,1,.23.09,3.69,3.69,0,0,1,.4.89c.21.67.14.83.14.83s-.3.93-2.34,2.16A5.55,5.55,0,0,1,222.66,78.06Z"/><path class="cls-6" d="M215.58,79.83a.21.21,0,0,0,.09-.26,1.59,1.59,0,0,0-.8-.85,15.27,15.27,0,0,0-4.75-1.37,3.29,3.29,0,0,0-.78.07.2.2,0,0,0-.17.18,4.24,4.24,0,0,0,.07,1c.13.7.27.81.27.81s.7.68,3.07.8A5.72,5.72,0,0,0,215.58,79.83Z"/><path class="cls-5" d="M222.76,72.79c.56.41,3,0,3.29-.73.59-1.28-1.09-2.35-2.18-2.07S221.57,71.92,222.76,72.79Z"/><path class="cls-5" d="M213,75.22c-.3.62-2.64,1.36-3.24.9-1.12-.86-.14-2.59.95-2.86S213.66,73.89,213,75.22Z"/><circle class="cls-9" cx="194.18" cy="56.95" r="3.71"/><circle class="cls-10" cx="220.39" cy="43.75" r="5.62"/><circle class="cls-10" cx="200.5" cy="46.14" r="2.71"/><circle class="cls-10" cx="207.71" cy="38.3" r="2.71"/><circle class="cls-11" cx="198.78" cy="35.4" r="1.83"/><circle class="cls-11" cx="207.07" cy="27.12" r="1.83"/><circle class="cls-12" cx="198.87" cy="26.77" r="1.27"/><circle class="cls-12" cx="200.79" cy="20.16" r="1.27"/><g id="Group_113" data-name="Group 113"><g id="Group_102" data-name="Group 102"><circle id="Ellipse_23" data-name="Ellipse 23" class="cls-13" cx="155.79" cy="97.56" r="19.13"/><g id="Layer_1-2" data-name="Layer 1"><g id="_1421394342400" data-name=" 1421394342400"><g id="Group_101" data-name="Group 101"><path id="Path_2619" data-name="Path 2619" class="cls-14" d="M157.16,83.67l-.25.61-1.77,18.36.18.21,9-4.22Z"/><path id="Path_2620" data-name="Path 2620" class="cls-15" d="M157.16,83.67,147.28,97l8,5.86Z"/><path id="Path_2621" data-name="Path 2621" class="cls-14" d="M155.16,104.46l-.12.12-.63,6.54.08.32,9.68-11.19Z"/><path id="Path_2622" data-name="Path 2622" class="cls-15" d="M154.49,111.44l.67-7-8-5.85Z"/><path id="Path_2623" data-name="Path 2623" class="cls-16" d="M155.31,102.85l9-4.22-8.15-4.69Z"/><path id="Path_2624" data-name="Path 2624" class="cls-17" d="M147.28,97l8,5.86.86-8.91Z"/></g></g></g></g></g><circle class="cls-9" cx="141.81" cy="74.3" r="3.47"/><circle class="cls-10" cx="169.23" cy="73.56" r="5.25"/><circle class="cls-10" cx="151.46" cy="67.67" r="2.53"/><circle class="cls-10" cx="160.68" cy="63.91" r="2.53"/><circle class="cls-11" cx="154.28" cy="57.91" r="1.71"/><circle class="cls-11" cx="164.58" cy="54.21" r="1.71"/><circle class="cls-12" cx="157.8" cy="50.65" r="1.19"/><circle class="cls-12" cx="162.05" cy="45.82" r="1.19"/><polygon class="cls-18" points="190.72 0 0 175.2 0 0 190.72 0"/><polygon class="cls-18" points="353.21 0 38.76 300 600 300 600 0 353.21 0"/><path class="cls-19" d="M379.81,113.72l-.49-12.15c0-.06,0-.19,0-.4a2.57,2.57,0,0,1,.12-.72,3.93,3.93,0,0,1,.35-.85,2.56,2.56,0,0,1,.69-.79,2.15,2.15,0,0,1,.46-.29,3.18,3.18,0,0,1,.64-.19,5.35,5.35,0,0,1,.7-.07,2.56,2.56,0,0,1,.64.07c.16-.4.33-.82.53-1.25a11.38,11.38,0,0,1,.67-1.24,9.27,9.27,0,0,1,.83-1.12,5.72,5.72,0,0,1,1-.92,3.93,3.93,0,0,1,1.14-.61,3.53,3.53,0,0,1,1.23-.21h.08a4.1,4.1,0,0,1,2.07.51A4.48,4.48,0,0,1,392,94.8a5.94,5.94,0,0,1,.89,1.86,7.59,7.59,0,0,1,.3,2.12,10.75,10.75,0,0,1-.17,1.63,6.6,6.6,0,0,1-.52,1.61,4.59,4.59,0,0,1-1,1.3,2.72,2.72,0,0,1-1.44.7,1.11,1.11,0,0,1-.43.07,5.07,5.07,0,0,1-.54,0,7.37,7.37,0,0,1-1-.26c-.44-.13-.92-.3-1.43-.49l-1.52-.58-1.48-.57c-.47-.18-.89-.34-1.27-.45l.65,11.52ZM386.2,98q-.17.32-.3.63l-.26.61,1,.42,1.18.46c.4.15.8.3,1.19.43a8.84,8.84,0,0,0,1,.29,1.71,1.71,0,0,0,.17-.4,4.58,4.58,0,0,0,.14-.53,4.85,4.85,0,0,0,.09-.55,4.4,4.4,0,0,0,0-.48,2.76,2.76,0,0,0-.19-1.05,3.06,3.06,0,0,0-.49-.85,2.78,2.78,0,0,0-.69-.56,1.59,1.59,0,0,0-.7-.16h-.09a1.87,1.87,0,0,0-.42.11,2.65,2.65,0,0,0-.56.31,3.48,3.48,0,0,0-.59.53A3.09,3.09,0,0,0,386.2,98Z"/><path class="cls-19" d="M402.37,104.43h-.51a5.37,5.37,0,0,1-3.91-1.3,5.25,5.25,0,0,1-1.35-3.91c0-.27,0-.72,0-1.34s0-1.38,0-2.28c0-.53,0-1.11,0-1.72s0-1.24,0-1.88,0-1.28-.07-1.92-.07-1.26-.11-1.85-.09-1.16-.15-1.68-.13-1-.2-1.38l3.18-1c.1.49.18,1.09.26,1.8s.14,1.46.2,2.26.11,1.63.14,2.46,0,1.62,0,2.36c0,.45,0,.92,0,1.43s0,.94,0,1.32,0,.63,0,.91,0,.56,0,.82,0,.52,0,.78v1a3.35,3.35,0,0,0,.09.81,1.33,1.33,0,0,0,.34.59,1.39,1.39,0,0,0,.62.34,3.72,3.72,0,0,0,.87.1h.57Z"/><path class="cls-19" d="M401.86,101.18h2.88q.66,0,1.29-.09a7.25,7.25,0,0,0,1.18-.25,3.07,3.07,0,0,0,1-.47,2.2,2.2,0,0,0,.66-.79,2.6,2.6,0,0,0,.24-1.17,4.42,4.42,0,0,0-.45-1.88,10.26,10.26,0,0,0-1.22-2,21.76,21.76,0,0,0-1.82-2.07c-.7-.72-1.45-1.44-2.25-2.18l.34-3,10.11-4.5,1.28,3-8.28,3.59c.38.32.76.66,1.14,1s.76.75,1.15,1.18a16.33,16.33,0,0,1,1.49,2,13.63,13.63,0,0,1,1,1.88,10.21,10.21,0,0,1,.55,1.71,7.56,7.56,0,0,1,.17,1.49,5.54,5.54,0,0,1-1.86,4.25,6.17,6.17,0,0,1-2,1.17,6.93,6.93,0,0,1-2.36.41h-4.23Zm11.36-19.56-9.75,4.3.08-1.62,9.1-4Z"/><path class="cls-19" d="M430.86,102.65a10.2,10.2,0,0,1-1.35-.09,6.82,6.82,0,0,1-2.47-.8,3.87,3.87,0,0,1-.94-.76,3.46,3.46,0,0,1-.85-2.35,4,4,0,0,1,.28-1.5,5.16,5.16,0,0,1,.75-1.33,7,7,0,0,1,1.09-1.16,11.37,11.37,0,0,1,1.31-1,13.74,13.74,0,0,1,1.39-.79c.47-.23.91-.43,1.34-.6l-.17-1.93,3.22-.69c0,.08,0,.24.05.5s.06.57.09.92.08.74.12,1.14.09.78.12,1.13.07.66.1.92,0,.41.05.47c.13,1.09.24,2,.35,2.66s.2,1.23.27,1.63a6.87,6.87,0,0,0,.2.85l.12.33a2,2,0,0,0,.29.46,1.33,1.33,0,0,0,.38.29,1.9,1.9,0,0,0,.51.15,4.65,4.65,0,0,0,.69.05h.25v3.25h-.25l-1.27,0a4.71,4.71,0,0,1-1.13-.22,3.27,3.27,0,0,1-1-.58,3.93,3.93,0,0,1-.91-1.14c-.49.07-.94.12-1.36.15S431.27,102.65,430.86,102.65Zm1.48-3.34c0-.23-.09-.5-.13-.81s-.09-.66-.13-1-.09-.75-.13-1.14l-.15-1.2a6.94,6.94,0,0,0-.73.36,9,9,0,0,0-.84.48c-.29.18-.57.37-.85.58a6.63,6.63,0,0,0-.73.63,3.67,3.67,0,0,0-.51.66,1.25,1.25,0,0,0-.2.63.55.55,0,0,0,.28.47,2.38,2.38,0,0,0,.7.29,6.45,6.45,0,0,0,.93.15c.33,0,.64,0,.94,0s.54,0,.81,0Z"/><path class="cls-19" d="M437.54,101.18h2c.4,0,.81,0,1.23-.07a4.35,4.35,0,0,0,1.13-.29,2.06,2.06,0,0,0,.83-.65,1.75,1.75,0,0,0,.33-1.11,4.64,4.64,0,0,0-.14-.93c-.09-.4-.22-.84-.37-1.32s-.33-1-.54-1.5-.43-1-.65-1.45l2.93-1.45c.21.49.42,1,.64,1.54s.4,1.1.56,1.67a15.26,15.26,0,0,1,.4,1.72,9.91,9.91,0,0,1,.15,1.69,5.76,5.76,0,0,1-.48,2.45,4.34,4.34,0,0,1-1.35,1.67,5.7,5.7,0,0,1-2.06,1,10.39,10.39,0,0,1-2.64.31h-2Zm6.55,7.38L441.65,111l-2.43-2.44,2.43-2.43Z"/><path class="cls-19" d="M457.06,113.72l-.49-12.15c0-.06,0-.19,0-.4a2.57,2.57,0,0,1,.12-.72,3.93,3.93,0,0,1,.35-.85,2.56,2.56,0,0,1,.69-.79,2.15,2.15,0,0,1,.46-.29,3.18,3.18,0,0,1,.64-.19,5.35,5.35,0,0,1,.7-.07,2.56,2.56,0,0,1,.64.07c.16-.4.33-.82.53-1.25a11.38,11.38,0,0,1,.67-1.24,9.27,9.27,0,0,1,.83-1.12,5.72,5.72,0,0,1,1-.92,3.93,3.93,0,0,1,1.14-.61,3.53,3.53,0,0,1,1.23-.21h.08a4.1,4.1,0,0,1,2.07.51,4.48,4.48,0,0,1,1.49,1.31,5.94,5.94,0,0,1,.89,1.86,7.59,7.59,0,0,1,.3,2.12,10.75,10.75,0,0,1-.17,1.63,6.6,6.6,0,0,1-.52,1.61,4.59,4.59,0,0,1-1,1.3,2.72,2.72,0,0,1-1.44.7,1.11,1.11,0,0,1-.43.07,5.07,5.07,0,0,1-.54,0,7.37,7.37,0,0,1-1-.26c-.44-.13-.92-.3-1.43-.49l-1.52-.58-1.48-.57c-.47-.18-.89-.34-1.27-.45l.65,11.52ZM463.45,98q-.17.32-.3.63l-.26.61,1,.42,1.18.46c.4.15.8.3,1.19.43a8.84,8.84,0,0,0,1,.29,1.71,1.71,0,0,0,.17-.4,4.58,4.58,0,0,0,.14-.53,4.85,4.85,0,0,0,.09-.55,4.4,4.4,0,0,0,0-.48,2.76,2.76,0,0,0-.19-1.05A3.06,3.06,0,0,0,467,97a2.78,2.78,0,0,0-.69-.56,1.59,1.59,0,0,0-.7-.16h-.09a1.87,1.87,0,0,0-.42.11,2.65,2.65,0,0,0-.56.31,3.48,3.48,0,0,0-.59.53A3.09,3.09,0,0,0,463.45,98Z"/><path class="cls-19" d="M479.62,104.43h-.51a5.37,5.37,0,0,1-3.91-1.3,5.25,5.25,0,0,1-1.35-3.91c0-.27,0-.72,0-1.34s0-1.38,0-2.28c0-.53,0-1.11,0-1.72s0-1.24,0-1.88,0-1.28-.07-1.92-.07-1.26-.11-1.85-.09-1.16-.15-1.68-.13-1-.2-1.38l3.18-1c.1.49.18,1.09.26,1.8s.14,1.46.2,2.26.11,1.63.14,2.46,0,1.62,0,2.36c0,.45,0,.92,0,1.43s0,.94,0,1.32,0,.63,0,.91,0,.56,0,.82,0,.52,0,.78v1a3.35,3.35,0,0,0,.09.81,1.33,1.33,0,0,0,.34.59,1.39,1.39,0,0,0,.62.34,3.72,3.72,0,0,0,.87.1h.57Z"/><path class="cls-19" d="M479.11,101.18H482q.66,0,1.29-.09a7.48,7.48,0,0,0,1.18-.25,3.07,3.07,0,0,0,1-.47,2.31,2.31,0,0,0,.66-.79,2.6,2.6,0,0,0,.24-1.17,4.42,4.42,0,0,0-.45-1.88,10.26,10.26,0,0,0-1.22-2,21.76,21.76,0,0,0-1.82-2.07c-.7-.72-1.45-1.44-2.25-2.18l.34-3,10.11-4.5,1.28,3-8.28,3.59c.38.32.76.66,1.14,1s.76.75,1.15,1.18a15.22,15.22,0,0,1,1.48,2,12.72,12.72,0,0,1,1,1.88,9.29,9.29,0,0,1,.54,1.71,6.93,6.93,0,0,1,.18,1.49,5.63,5.63,0,0,1-1.86,4.25,6.28,6.28,0,0,1-2,1.17,6.93,6.93,0,0,1-2.36.41h-4.23Zm11.36-19.56-9.75,4.3.08-1.62,9.1-4Z"/><path class="cls-19" d="M532.64,91.93l.26.5c.13.24.26.53.42.88s.31.73.47,1.16a13.54,13.54,0,0,1,.45,1.36,13.15,13.15,0,0,1,.34,1.47,8.3,8.3,0,0,1,.13,1.48,6.79,6.79,0,0,1-.35,2.19,5,5,0,0,1-1,1.78,4.56,4.56,0,0,1-1.6,1.2,5.16,5.16,0,0,1-2.21.44,4.15,4.15,0,0,1-1.1-.13,3.21,3.21,0,0,1-.86-.38,3,3,0,0,1-.67-.56,3.8,3.8,0,0,1-.5-.69q-.28.39-.57.72a3.18,3.18,0,0,1-.69.57,3.84,3.84,0,0,1-1,.36,6.67,6.67,0,0,1-1.36.12,4.84,4.84,0,0,1-1.27-.14,4.69,4.69,0,0,1-.92-.31c0,.17,0,.34,0,.51a8.14,8.14,0,0,1-.35,2.37,7.12,7.12,0,0,1-1.05,2.12,8.15,8.15,0,0,1-1.71,1.71,9.63,9.63,0,0,1-2.15,1.2,13,13,0,0,1-2.42.71,14.52,14.52,0,0,1-2.53.23,9.39,9.39,0,0,1-3.44-.61,8.22,8.22,0,0,1-2.72-1.73,7.77,7.77,0,0,1-1.8-2.67,9,9,0,0,1-.65-3.45,12.5,12.5,0,0,1,.29-2.24,16.45,16.45,0,0,1,.63-2.21,18.42,18.42,0,0,1,.87-2,14.89,14.89,0,0,1,1-1.71l2.63,2c-.3.47-.58,1-.86,1.47s-.52,1-.74,1.56a11.7,11.7,0,0,0-.51,1.62,7.17,7.17,0,0,0-.19,1.66v.19a4.71,4.71,0,0,0,1.46,3.4,5.25,5.25,0,0,0,1.75,1.09,6.06,6.06,0,0,0,2.26.4,11.07,11.07,0,0,0,2.48-.25,6.93,6.93,0,0,0,1.94-.73,5.05,5.05,0,0,0,1.4-1.11,4.44,4.44,0,0,0,.82-1.43,7.62,7.62,0,0,0,.33-2.2c0-.05,0-.28,0-.69a8.76,8.76,0,0,0-.3-1.76,15.87,15.87,0,0,0-.76-2.3c-.33-.76-.67-1.52-1-2.28L518.13,95c.12.31.26.68.42,1.12s.35.9.55,1.37a13.12,13.12,0,0,0,.69,1.41,6.82,6.82,0,0,0,.82,1.22,3.29,3.29,0,0,0,1,.8,1.5,1.5,0,0,0,.79.22,1.24,1.24,0,0,0,.33,0,1.58,1.58,0,0,0,1-.32,2,2,0,0,0,.58-.79,4.09,4.09,0,0,0,.26-1.12c0-.42.05-.85.05-1.3l-.06-2.15,3.11-.31.08,1.49q0,.3.06.75c0,.31.09.63.16,1a10.26,10.26,0,0,0,.25,1,4.4,4.4,0,0,0,.38.93,2.47,2.47,0,0,0,.53.68,1,1,0,0,0,.69.26,1.67,1.67,0,0,0,1.46-.67,3.39,3.39,0,0,0,.47-1.94,4,4,0,0,0-.16-1.07,9.3,9.3,0,0,0-.43-1.25c-.18-.44-.39-.9-.64-1.38s-.49-1-.76-1.46Zm-7.15-2.88-2.16,2.16L521.15,89l2.16-2.17Zm-1.75-3.68,2-2,2,2-2,2Zm6.55,3.69-2.16,2.17L526,89.05l2.16-2.16Z"/><path class="cls-19" d="M542.46,96c.17.54.35,1.09.53,1.67s.35,1.17.5,1.76.26,1.19.36,1.77a11.52,11.52,0,0,1,.14,1.73,7.26,7.26,0,0,1-.35,2.22,10,10,0,0,1-1,2.1,12.55,12.55,0,0,1-1.46,1.93,17.62,17.62,0,0,1-1.83,1.72,21.18,21.18,0,0,1-2.1,1.52,24.84,24.84,0,0,1-2.24,1.25l-1.44-2.91a19.25,19.25,0,0,0,1.77-1,17,17,0,0,0,1.67-1.15,15.47,15.47,0,0,0,1.48-1.28,10,10,0,0,0,1.17-1.4,7.28,7.28,0,0,0,.77-1.49,4.59,4.59,0,0,0,.28-1.53,7.54,7.54,0,0,0-.17-1.53c-.11-.53-.24-1.06-.4-1.58s-.32-1-.48-1.51-.31-.91-.42-1.28Zm.4-5.41L540.42,93,538,90.57l2.43-2.43Z"/><path class="cls-19" d="M545.6,110.15a18.61,18.61,0,0,0,3.37-1,13.26,13.26,0,0,0,2.61-1.38,8.19,8.19,0,0,0,1.8-1.62,4.71,4.71,0,0,0,.92-1.73q-1,0-2-.06a14.59,14.59,0,0,1-1.84-.25,7.5,7.5,0,0,1-1.6-.52,4.1,4.1,0,0,1-1.26-.89,3.87,3.87,0,0,1-.82-1.34,5.31,5.31,0,0,1-.29-1.88,7.54,7.54,0,0,1,.15-1.46,8.87,8.87,0,0,1,.44-1.5,8.13,8.13,0,0,1,.7-1.38,5.75,5.75,0,0,1,1-1.16,4.31,4.31,0,0,1,1.2-.79,3.42,3.42,0,0,1,1.43-.29A4.82,4.82,0,0,1,555,94.66a8.26,8.26,0,0,1,1,1.33,10.42,10.42,0,0,1,.75,1.58,12.21,12.21,0,0,1,.51,1.75,11.26,11.26,0,0,1,.25,1.86h.85v3.25h-1.12a9.91,9.91,0,0,1-1.46,3.39,11.59,11.59,0,0,1-2.47,2.62,13.68,13.68,0,0,1-3.21,1.84,17,17,0,0,1-3.67,1Zm5.77-14a1.26,1.26,0,0,0-.71.28,3.2,3.2,0,0,0-.7.72,4.53,4.53,0,0,0-.53,1,2.84,2.84,0,0,0-.21,1,1.46,1.46,0,0,0,.25.89,1.73,1.73,0,0,0,.63.57,3,3,0,0,0,.88.33,6.67,6.67,0,0,0,1,.14l.59,0,.65,0h1.29a5.77,5.77,0,0,0-.18-1,10.57,10.57,0,0,0-.38-1.12A9.62,9.62,0,0,0,553.4,98a5.22,5.22,0,0,0-.63-.91,3.2,3.2,0,0,0-.69-.65A1.29,1.29,0,0,0,551.37,96.17Z"/><path class="cls-19" d="M558,101.18a3.54,3.54,0,0,0,1.61-.35,4.33,4.33,0,0,0,1.21-.91,6.63,6.63,0,0,0,.93-1.26c.27-.46.52-.93.76-1.39s.49-1,.77-1.47a7.9,7.9,0,0,1,.95-1.3,4.8,4.8,0,0,1,1.22-.94,3.39,3.39,0,0,1,1.59-.36,4.29,4.29,0,0,1,1.5.25,4.11,4.11,0,0,1,1.21.68,5.12,5.12,0,0,1,1,1,5.78,5.78,0,0,1,.67,1.25,6.52,6.52,0,0,1,.4,1.37,7.66,7.66,0,0,1,.14,1.41,7.38,7.38,0,0,1-.11,1.26,6.62,6.62,0,0,1-.32,1.18,4.63,4.63,0,0,1-.63,1.11,4.16,4.16,0,0,1-.89.84,3.84,3.84,0,0,1-2.26.73,5,5,0,0,1-1.12-.13,9.11,9.11,0,0,1-1.2-.36l-.6-.28c-.22-.1-.44-.22-.67-.34l-.68-.41a6.24,6.24,0,0,1-.63-.41,7.87,7.87,0,0,1-2.15,1.53,6.33,6.33,0,0,1-2.65.53h-.26v-3.25Zm6.71-1.49c.22.15.51.32.85.51a9.72,9.72,0,0,0,1.08.51,6.92,6.92,0,0,0,1.1.34,2.36,2.36,0,0,0,.56.08,1.38,1.38,0,0,0,.37,0,.66.66,0,0,0,.27-.16,1.3,1.3,0,0,0,.27-.36,3.06,3.06,0,0,0,.2-.54,3.15,3.15,0,0,0,0-.56v-.12a3.52,3.52,0,0,0-.2-1.15,3.48,3.48,0,0,0-.54-1,2.5,2.5,0,0,0-.81-.68,1.62,1.62,0,0,0-.69-.15l-.37,0a.79.79,0,0,0-.35.2,3.17,3.17,0,0,0-.41.53c-.16.25-.35.59-.57,1S565.07,99.05,564.75,99.69Z"/><path class="cls-19" d="M572.49,84.62a3.85,3.85,0,0,1,.45-1.21,4.27,4.27,0,0,1,.79-1,3.49,3.49,0,0,1,1-.71,2.63,2.63,0,0,1,1.13-.26,3.78,3.78,0,0,1,1.06.14,6.83,6.83,0,0,1,.87.32,4.27,4.27,0,0,0,1,.29l.32,0a1.72,1.72,0,0,0,.51-.09,1.9,1.9,0,0,0,.6-.38,5.58,5.58,0,0,0,.69-.78l1.74,1.12a1.12,1.12,0,0,1-.14.21,4.4,4.4,0,0,1-.35.44,6.86,6.86,0,0,1-.54.54,5.7,5.7,0,0,1-.71.53,4.17,4.17,0,0,1-.85.41,3.09,3.09,0,0,1-1,.18H579a2.93,2.93,0,0,1-.86-.12c-.27-.08-.53-.17-.8-.27s-.53-.2-.8-.28a3,3,0,0,0-.8-.1h-.1a.69.69,0,0,0-.53.21,1.36,1.36,0,0,0-.32.46,2.69,2.69,0,0,0-.17.55,3.26,3.26,0,0,1-.11.43Zm6.63,1.48c.18,1.26.32,2.54.41,3.84s.15,2.63.15,4c0,1.09,0,2.11,0,3.07s0,2,0,3.28,0,2.42-.08,3.56l-3.33.49c.09-1.74.15-3.37.17-4.86,0-.38,0-.75,0-1.11,0-1.08,0-2.1-.07-3.06q-.21-5.11-.53-8.18Z"/><path class="cls-19" d="M352.89,161.4c.16.31.38.75.64,1.31s.55,1.19.86,1.91.62,1.5.94,2.35.6,1.71.85,2.6a25.47,25.47,0,0,1,.62,2.72,15.33,15.33,0,0,1,.24,2.64,15.12,15.12,0,0,1-.72,4.52,10.89,10.89,0,0,1-2,3.66,9.58,9.58,0,0,1-3.33,2.46,11,11,0,0,1-4.6.9,7.48,7.48,0,0,1-1.84-.22,7.23,7.23,0,0,1-1.5-.6,7.81,7.81,0,0,1-1.24-.86,10,10,0,0,1-1-1,4.93,4.93,0,0,1-1.59,1.68,7.09,7.09,0,0,1-2.16.94,8.54,8.54,0,0,1-2.44.25,10.63,10.63,0,0,1-2.43-.36,15.47,15.47,0,0,1-1.07,4.72,14.49,14.49,0,0,1-2.26,3.81,15.71,15.71,0,0,1-3.22,2.92,19.07,19.07,0,0,1-3.9,2.05,23.32,23.32,0,0,1-4.35,1.22,25.67,25.67,0,0,1-4.52.41,17.82,17.82,0,0,1-6.66-1.21,14.78,14.78,0,0,1-8.53-8.64,18.68,18.68,0,0,1-1.18-6.75,21.67,21.67,0,0,1,.56-4.09,36.59,36.59,0,0,1,1.28-4.23,42.06,42.06,0,0,1,1.75-4.06,38.8,38.8,0,0,1,2-3.6l6.34,4.8c-.54.92-1.06,1.87-1.55,2.85s-.92,2-1.29,2.95a22.19,22.19,0,0,0-.89,2.9,11.88,11.88,0,0,0-.33,2.68,6.33,6.33,0,0,0,.54,2.88,7,7,0,0,0,1.74,2.34,8.44,8.44,0,0,0,2.69,1.59,9.56,9.56,0,0,0,3.44.59q5.73,0,8.44-2.24a7.88,7.88,0,0,0,2.72-6.44,10.22,10.22,0,0,0-.31-2.45,21.38,21.38,0,0,0-.91-2.74c-.39-1-.86-2-1.42-3.2s-1.18-2.43-1.87-3.83l7.76-4.35c.43,1,.85,2,1.25,2.94s.79,1.88,1.17,2.74.76,1.64,1.13,2.36a14.83,14.83,0,0,0,1.1,1.81,4.55,4.55,0,0,0,1.12,1.12,1.62,1.62,0,0,0,1.17.26,2.46,2.46,0,0,0,1.36-.69,3.54,3.54,0,0,0,.74-1.3,6.77,6.77,0,0,0,.3-1.7c0-.62.05-1.27,0-1.94s-.06-1.33-.11-2-.06-1.28-.06-1.87l7.1-.9,0,.48c0,.31.08.72.14,1.22s.14,1.09.24,1.74.21,1.32.35,2,.29,1.33.47,2a11.34,11.34,0,0,0,.62,1.69,4.41,4.41,0,0,0,.77,1.16,1.08,1.08,0,0,0,.93.36,2.62,2.62,0,0,0,1.77-.79,2.88,2.88,0,0,0,.69-1.66,7,7,0,0,0-.17-2.3,21.63,21.63,0,0,0-.81-2.73c-.35-.95-.76-1.93-1.23-2.93s-.93-2-1.4-2.92Zm-13.48-4.2-4.24,4.24-4.38-4.35,4.33-4.35,4.29,4.28,4.24-4.24,4.37,4.36-4.33,4.35Zm4-6.58-4,4-4-4,4-4Z"/><path class="cls-19" d="M357.9,193.71a46.59,46.59,0,0,0,5.14-1.38,33.54,33.54,0,0,0,4.25-1.71,19.17,19.17,0,0,0,3.22-2,9.27,9.27,0,0,0,2.06-2.12h-.74l-.8,0-.74,0-.58,0a16.41,16.41,0,0,1-4.37-.92,10,10,0,0,1-3.36-2,8.52,8.52,0,0,1-2.17-3.09,10.88,10.88,0,0,1-.77-4.22,12.81,12.81,0,0,1,.38-3,16.43,16.43,0,0,1,1.05-3,16.06,16.06,0,0,1,1.61-2.79,13.45,13.45,0,0,1,2.06-2.3,9.54,9.54,0,0,1,2.4-1.57,6.39,6.39,0,0,1,2.63-.57,7.93,7.93,0,0,1,3.54.81,11,11,0,0,1,3,2.18,16.34,16.34,0,0,1,2.38,3.2,23.16,23.16,0,0,1,1.74,3.82,24.16,24.16,0,0,1,1.07,4.07,22.93,22.93,0,0,1,.36,3.95,19.2,19.2,0,0,1-.77,5.58,18.45,18.45,0,0,1-2.19,4.76,20.1,20.1,0,0,1-3.37,4,26.06,26.06,0,0,1-4.33,3.17,33,33,0,0,1-5,2.38,40.72,40.72,0,0,1-5.55,1.6ZM369,171.41a2,2,0,0,0-1.22.43,4.21,4.21,0,0,0-1,1.07,5.74,5.74,0,0,0-.65,1.37,4.45,4.45,0,0,0-.24,1.37.92.92,0,0,0,.4.74,3.22,3.22,0,0,0,1.05.53,10.09,10.09,0,0,0,1.48.35c.56.09,1.13.16,1.71.2s1.14.08,1.69.09l1.47,0a9.37,9.37,0,0,0-.5-2.15,8.48,8.48,0,0,0-1-2,6.07,6.07,0,0,0-1.43-1.47A3,3,0,0,0,369,171.41Z"/><path class="cls-19" d="M395.57,168.68q1,2.82,1.7,4.57c.45,1.16.84,2.07,1.17,2.71a4.05,4.05,0,0,0,.92,1.31,1.51,1.51,0,0,0,1,.34h.56v8.93h-.47c-.27,0-.58,0-.92,0a4.75,4.75,0,0,1-1.31-.36,18.86,18.86,0,0,1-1.95,4.9,24.37,24.37,0,0,1-3.26,4.41,31.21,31.21,0,0,1-4.33,3.88,39.18,39.18,0,0,1-5.14,3.25l-5.46-7a54.46,54.46,0,0,0,4.67-2.81,31.33,31.33,0,0,0,3.95-3.14,18.24,18.24,0,0,0,2.87-3.46A9.49,9.49,0,0,0,391,182.3c-.23-.78-.45-1.51-.66-2.2s-.47-1.4-.74-2.14-.58-1.56-.93-2.44-.78-1.9-1.28-3.07Z"/><path class="cls-19" d="M400.76,177.61H402l2,0,2.39-.06c.85,0,1.68-.05,2.47-.09s1.54-.09,2.21-.16a16.4,16.4,0,0,0,1.65-.23,30.92,30.92,0,0,1-4.73-.47,11.22,11.22,0,0,1-3.75-1.32,6.8,6.8,0,0,1-2.47-2.44,7.52,7.52,0,0,1-.89-3.82,14.64,14.64,0,0,1,1.08-5.45,14.15,14.15,0,0,1,1.33-2.49,10.23,10.23,0,0,1,1.81-2.05,8.23,8.23,0,0,1,2.26-1.4,7,7,0,0,1,2.72-.52,7.72,7.72,0,0,1,3.26.69,9.83,9.83,0,0,1,2.73,1.87,13.44,13.44,0,0,1,2.17,2.74,19.3,19.3,0,0,1,1.59,3.3,21.18,21.18,0,0,1,1,3.59,19.19,19.19,0,0,1,.34,3.55,17.48,17.48,0,0,1-.74,5.42,10.6,10.6,0,0,1-2.11,3.77,10.28,10.28,0,0,1-3.25,2.42,17.42,17.42,0,0,1-4.15,1.36,32.52,32.52,0,0,1-4.83.6c-1.72.09-3.48.14-5.28.14H400v-8.93Zm9.13-22.35-5-5,5-5,5,5Zm.09,9.38a2.18,2.18,0,0,0-1.28.26,3.16,3.16,0,0,0-1,.86,4.06,4.06,0,0,0-.8,2.33c0,.17.12.34.38.51a4.9,4.9,0,0,0,1,.49,12.45,12.45,0,0,0,1.4.41,14.11,14.11,0,0,0,1.55.3,12.5,12.5,0,0,0,1.46.1,4,4,0,0,0,1.15-.14,10.9,10.9,0,0,0-1.51-3.29,6.36,6.36,0,0,0-1.14-1.26A2.18,2.18,0,0,0,410,164.64Z"/><path class="cls-19" d="M437.78,193.71a46,46,0,0,0,5.14-1.38,32.37,32.37,0,0,0,4.25-1.71,19.29,19.29,0,0,0,3.23-2,9.27,9.27,0,0,0,2.06-2.12h-.75l-.8,0-.74,0-.58,0a16.58,16.58,0,0,1-4.37-.92,10,10,0,0,1-3.36-2,8.62,8.62,0,0,1-2.16-3.09,10.88,10.88,0,0,1-.77-4.22,12.79,12.79,0,0,1,.37-3,17.2,17.2,0,0,1,1.05-3,16.73,16.73,0,0,1,1.61-2.79A13.5,13.5,0,0,1,444,165a9.54,9.54,0,0,1,2.4-1.57,6.35,6.35,0,0,1,2.62-.57,7.86,7.86,0,0,1,3.54.81,10.88,10.88,0,0,1,3,2.18,15.58,15.58,0,0,1,2.38,3.2,24.06,24.06,0,0,1,1.75,3.82,25.15,25.15,0,0,1,1.07,4.07,22.93,22.93,0,0,1,.36,3.95,19.2,19.2,0,0,1-.78,5.58,18.45,18.45,0,0,1-2.19,4.76,20.1,20.1,0,0,1-3.37,4,25.65,25.65,0,0,1-4.33,3.17,32.53,32.53,0,0,1-5.05,2.38,40.58,40.58,0,0,1-5.54,1.6Zm11.12-22.3a1.93,1.93,0,0,0-1.22.43,4,4,0,0,0-1,1.07,5.77,5.77,0,0,0-.66,1.37,4.73,4.73,0,0,0-.23,1.37.94.94,0,0,0,.39.74,3.22,3.22,0,0,0,1.05.53,10.25,10.25,0,0,0,1.49.35c.55.09,1.12.16,1.7.2s1.14.08,1.69.09l1.48,0a10,10,0,0,0-.51-2.15,8.46,8.46,0,0,0-1-2,6.1,6.1,0,0,0-1.44-1.47A3,3,0,0,0,448.9,171.41Z"/><path class="cls-19" d="M489.64,186.54a16.17,16.17,0,0,1-5.91-1.15,17.49,17.49,0,0,1-5.66-3.77l5.14-7.24a16.46,16.46,0,0,0,2.12,1.56,11.9,11.9,0,0,0,1.87,1,8.83,8.83,0,0,0,1.63.48,7.67,7.67,0,0,0,1.37.14c.32,0,.67,0,1.06-.05s.79-.08,1.2-.14a11.06,11.06,0,0,0,1.17-.27,4.87,4.87,0,0,0,1-.42l-1.81-3.9q-.94-2.06-2-4.23t-2.06-4.41c-.7-1.48-1.39-3-2.09-4.44l8.23-3.4,7.47,18A6.9,6.9,0,0,0,504,176.8a2.78,2.78,0,0,0,1.84.81h.65v8.93h-.65a11.31,11.31,0,0,1-2.36-.23,9.85,9.85,0,0,1-1.9-.6,8.46,8.46,0,0,1-1.55-.84c-.46-.32-.88-.64-1.27-1A23.48,23.48,0,0,1,496.7,185a15.15,15.15,0,0,1-2.15.83,14,14,0,0,1-2.32.51A19.32,19.32,0,0,1,489.64,186.54Z"/><path class="cls-19" d="M505.6,177.61h4.56c.36,0,.77,0,1.24-.05s.94-.07,1.43-.14,1-.16,1.44-.27a6.88,6.88,0,0,0,1.26-.42,3.24,3.24,0,0,0,.89-.56,1,1,0,0,0,.34-.75,4.42,4.42,0,0,0-.37-1.43c-.25-.64-.57-1.37-1-2.21s-.82-1.72-1.28-2.67l-1.38-2.8,8.07-4c.45,1,.89,2.12,1.32,3.25s.81,2.25,1.14,3.38a32.94,32.94,0,0,1,.8,3.34,17.38,17.38,0,0,1,.31,3.09,10.86,10.86,0,0,1-1.09,5.06,9.61,9.61,0,0,1-3,3.46,12.92,12.92,0,0,1-4.41,2,22.47,22.47,0,0,1-5.44.64H505.6Zm9,14.63-4.24,4.24L506,192.13l4.33-4.35,4.28,4.28,4.24-4.24,4.37,4.35-4.32,4.36Z"/><path class="cls-19" d="M541.88,168.68q1,2.82,1.7,4.57a27.51,27.51,0,0,0,1.16,2.71,3.9,3.9,0,0,0,.93,1.31,1.49,1.49,0,0,0,1,.34h.56v8.93h-.47c-.27,0-.58,0-.93,0a4.79,4.79,0,0,1-1.3-.36,18.54,18.54,0,0,1-2,4.9,24.31,24.31,0,0,1-3.25,4.41,31.21,31.21,0,0,1-4.33,3.88,39.86,39.86,0,0,1-5.14,3.25l-5.46-7c1.64-.88,3.19-1.82,4.67-2.81a30.5,30.5,0,0,0,3.94-3.14,17.94,17.94,0,0,0,2.88-3.46,9.49,9.49,0,0,0,1.41-3.82c-.23-.78-.45-1.51-.67-2.2s-.46-1.4-.73-2.14-.58-1.56-.94-2.44-.77-1.9-1.27-3.07Z"/><path class="cls-19" d="M546.25,177.61H551a50,50,0,0,0,6.08-.36c2-.24,3.83-.57,5.61-1a52.26,52.26,0,0,0,5-1.4c1.58-.53,3-1.08,4.38-1.67l-2.56-.92c-.94-.33-1.91-.64-2.9-.94s-2-.54-3-.73a14.37,14.37,0,0,0-2.82-.29,5,5,0,0,0-1.89.4,11.59,11.59,0,0,0-1.82,1,12.6,12.6,0,0,0-1.46,1.07,3.37,3.37,0,0,0-.74.8l-6.38-4.1a18.77,18.77,0,0,1,2.3-3.24,16,16,0,0,1,2.87-2.55,14.28,14.28,0,0,1,3.36-1.68,11.8,11.8,0,0,1,3.76-.6,13.7,13.7,0,0,1,3.55.47A30.42,30.42,0,0,1,568,163c1.19.48,2.38,1,3.57,1.56s2.36,1.09,3.54,1.59a36.54,36.54,0,0,0,3.47,1.27,13.59,13.59,0,0,0,3.38.6l-.68,8.39-6,3q-2.79,1.38-5.31,2.51c-1.69.75-3.3,1.41-4.85,2a47,47,0,0,1-4.62,1.43,41.17,41.17,0,0,1-4.64.87,39.93,39.93,0,0,1-4.86.29h-4.78Zm14.62-17.52-5-5,5-5,5,5Z"/><polygon class="cls-20" points="164.28 284.67 34.58 251.36 68.83 133.37 167.67 165.8 164.28 284.67"/><path class="cls-21" d="M164.73,268.58S150.28,237.12,69.61,217L100,116.6s47.27,15.45,67.66,49.2Z"/><path class="cls-22" d="M164.73,268.58S150.28,237.12,69.61,217L42.24,251.57,164.43,279.3Z"/><path class="cls-23" d="M164.73,268.58s-4.65-43.68-78.95-63.35l26-97.5s45.35,10.5,55.9,58.07Z"/><polygon class="cls-24" points="42.24 251.57 69.61 216.97 100.01 116.6 76.35 138.95 42.24 251.57"/><polygon class="cls-25" points="164.28 284.67 295.66 258.8 268.19 139.05 167.67 165.8 164.28 284.67"/><path class="cls-26" d="M164.73,268.58S181,238,262.64,222.48L238,120.54s-48.08,12.73-70.35,45.26Z"/><path class="cls-27" d="M164.73,268.58S181,238,262.64,222.48L288,258.58,164.43,279.3Z"/><path class="cls-28" d="M164.73,268.58s7.14-43.34,82.44-58.75L226.78,111s-45.87,7.9-59.11,54.79Z"/><path class="cls-29" d="M164.73,268.58s-.31-51.23,75-66.63l-20.39-98.83s-38.42,15.79-51.66,62.68Z"/><polygon class="cls-30" points="288 258.58 262.64 222.48 238.02 120.54 260.37 144.2 288 258.58"/><polygon class="cls-18" points="182.46 281.09 164.74 268.58 146.33 280.06 34.58 251.36 34.42 256.72 164.28 284.67 295.51 264.17 295.66 258.8 182.46 281.09"/><path class="cls-31" d="M156.22,269.74a33.06,33.06,0,0,0-3.76-4.71c-.71-.71-1.37-1.46-2.1-2.15l-2.2-2a98.66,98.66,0,0,0-9.48-7.3c-3.29-2.25-6.7-4.32-10.18-6.28l-5.26-2.86c-1.78-.91-3.61-1.74-5.4-2.61l-2.69-1.33-2.76-1.2-5.51-2.39c-3.71-1.52-7.47-2.93-11.2-4.41l-11.37-4.05c-3.83-1.26-7.67-2.52-11.48-3.91,4,.73,7.94,1.59,11.9,2.45s7.83,2.1,11.73,3.22,7.69,2.6,11.51,4l5.64,2.35,2.81,1.18,2.75,1.32a113.83,113.83,0,0,1,20.93,12.6,76.87,76.87,0,0,1,9.12,8.17,58.62,58.62,0,0,1,3.9,4.73A27.24,27.24,0,0,1,156.22,269.74Z"/><path class="cls-32" d="M145.59,262.74a186.28,186.28,0,0,0-19.37-9c-6.59-2.67-13.21-5.25-19.92-7.61s-13.42-4.72-20.14-7.09c-3.39-1.1-6.76-2.29-10.13-3.45s-6.76-2.3-10.12-3.58c3.53.62,7,1.37,10.54,2.11s7,1.7,10.42,2.61,6.88,2,10.31,3,6.81,2.22,10.18,3.45a201.39,201.39,0,0,1,19.84,8.33C133.63,254.74,140,258.18,145.59,262.74Z"/><path class="cls-33" d="M52.71,248.64q12.84,2,25.55,4.57c8.48,1.67,16.93,3.52,25.36,5.4s16.84,3.91,25.22,6.07,16.72,4.42,25,6.92Q141,269.6,128.3,267c-8.48-1.67-16.93-3.52-25.36-5.41s-16.84-3.92-25.21-6.07S61,251.14,52.71,248.64Z"/><path class="cls-34" d="M61.75,240c7.6,1.66,15.11,3.61,22.59,5.66s14.92,4.24,22.34,6.48,14.8,4.63,22.15,7.14,14.66,5.08,21.88,8c-7.6-1.65-15.11-3.6-22.59-5.66s-14.92-4.24-22.34-6.48-14.8-4.64-22.14-7.15S69,242.83,61.75,240Z"/><path class="cls-35" d="M174.74,271.29a33,33,0,0,1,3.92-4.58c.74-.68,1.42-1.41,2.17-2.06l2.27-2a99.11,99.11,0,0,1,9.74-7c3.37-2.13,6.86-4.08,10.4-5.91l5.37-2.67c1.81-.85,3.66-1.61,5.49-2.42l2.73-1.23,2.8-1.09,5.59-2.2c3.76-1.38,7.57-2.66,11.35-4l11.52-3.64c3.87-1.12,7.74-2.23,11.6-3.49-4,.58-8,1.3-12,2s-7.89,1.82-11.83,2.79-7.78,2.33-11.65,3.57l-5.72,2.14-2.85,1.08-2.8,1.22a114.38,114.38,0,0,0-21.37,11.84,77.46,77.46,0,0,0-9.41,7.84,58.77,58.77,0,0,0-4.06,4.58A26.66,26.66,0,0,0,174.74,271.29Z"/><path class="cls-36" d="M185.61,264.68a186.65,186.65,0,0,1,19.68-8.27c6.68-2.43,13.39-4.76,20.18-6.89s13.58-4.23,20.38-6.35c3.43-1,6.83-2,10.25-3.09s6.84-2.05,10.24-3.21c-3.55.48-7.08,1.11-10.61,1.73s-7,1.44-10.5,2.23-6.95,1.73-10.41,2.66-6.89,2-10.3,3.08a202,202,0,0,0-20.14,7.61C197.85,257.11,191.34,260.32,185.61,264.68Z"/><path class="cls-37" d="M278.94,253.92q-12.92,1.53-25.7,3.64c-8.54,1.37-17.05,2.91-25.54,4.49s-17,3.31-25.42,5.16-16.87,3.82-25.25,6q12.9-1.53,25.7-3.64c8.54-1.37,17-2.91,25.54-4.49s17-3.32,25.42-5.17S270.56,256.12,278.94,253.92Z"/><path class="cls-38" d="M270.21,244.91c-7.65,1.38-15.23,3.06-22.78,4.84s-15.06,3.71-22.56,5.68-15,4.1-22.38,6.34-14.84,4.55-22.16,7.18c7.66-1.38,15.23-3.06,22.78-4.84s15.07-3.71,22.56-5.68,15-4.1,22.38-6.35S262.89,247.53,270.21,244.91Z"/><rect class="cls-39" x="95.52" y="175.61" width="4.15" height="23.46" transform="matrix(0.95, 0.3, -0.3, 0.95, 60.82, -20.67)"/><rect class="cls-39" x="100.2" y="177.08" width="4.15" height="28.54" transform="translate(62.24 -21.89) rotate(17.49)"/><rect class="cls-40" x="106.19" y="173.77" width="4.15" height="33.62" transform="translate(62.28 -23.73) rotate(17.49)"/><rect class="cls-40" x="118.22" y="164.87" width="4.15" height="10.47" transform="translate(56.69 -28.29) rotate(17.49)"/><rect class="cls-39" x="122.28" y="166.31" width="4.15" height="17.16" transform="translate(58.31 -29.29) rotate(17.49)"/><rect class="cls-40" x="128.22" y="161.69" width="4.15" height="23.37" transform="translate(58.13 -31.14) rotate(17.49)"/><rect class="cls-40" x="138.83" y="150.49" width="4.15" height="13.45" transform="translate(53.77 -35.08) rotate(17.49)"/><rect class="cls-40" x="147.73" y="139.06" width="4.15" height="13.45" transform="translate(50.74 -38.28) rotate(17.49)"/><path class="cls-41" d="M60.18,90.33A21.23,21.23,0,1,1,44.71,64.6h0A21.24,21.24,0,0,1,60.18,90.33Z"/><path class="cls-19" d="M48.94,82.17c.43-2.83-1.72-4.34-4.67-5.36l1-3.82-2.33-.58L42,76.13l-1.86-.44L41,71.94l-2.33-.58-1,3.82-1.49-.35h0L33.06,74l-.62,2.49s1.73.39,1.69.42a1.25,1.25,0,0,1,1.09,1.36l-1.09,4.35.24.08-.24-.06L32.6,88.77a.84.84,0,0,1-1.06.55h0s-1.69-.42-1.69-.42l-1.16,2.66,3,.76,1.66.42-1,3.87,2.32.58,1-3.82,1.86.48-1,3.81,2.33.58,1-3.86c4,.75,7,.44,8.22-3.15,1-2.89-.05-4.56-2.14-5.65a3.7,3.7,0,0,0,3-3.42Zm-5.32,7.46c-.72,2.89-5.59,1.33-7.17.94l1.28-5.13c1.58.4,6.64,1.18,5.89,4.19Zm.72-7.5c-.65,2.63-4.71,1.29-6,1l1.16-4.65c1.31.33,5.55.94,4.86,3.69Z"/><circle class="cls-9" cx="30.76" cy="60.14" r="2.85"/><circle class="cls-10" cx="53.32" cy="60.14" r="4.32"/><circle class="cls-10" cx="38.84" cy="54.91" r="2.08"/><circle class="cls-10" cx="46.5" cy="52.02" r="2.08"/><circle class="cls-11" cx="41.37" cy="46.94" r="1.41"/><circle class="cls-11" cx="49.92" cy="44.13" r="1.41"/><circle class="cls-12" cx="44.42" cy="41.05" r="0.98"/><circle class="cls-12" cx="48.02" cy="37.18" r="0.98"/><circle class="cls-42" cx="299.6" cy="96.06" r="20.66"/><path class="cls-19" d="M295,91.22l8.18-3.17,3.18,8.18,4.75-1.84-5-13-12.94,5L295,91.22m-10-1.61,4.76-1.85,1.84,4.76-4.76,1.85Zm7.91,6.27,3.17,8.18,8.18-3.17,1.84,4.76h0l-12.94,5-5-12.93h0l4.77-1.84m14.71,3.71,4.76-1.84,1.84,4.76-4.76,1.84Z"/><path class="cls-19" d="M303,97.53h0l-1.87-4.83-3.57,1.39h0l-.41.15-.84.33h0l1.87,4.83L303,97.53h0"/><circle class="cls-9" cx="300" cy="69.15" r="3.49"/><circle class="cls-10" cx="325.3" cy="80.17" r="5.28"/><circle class="cls-10" cx="311.62" cy="67.22" r="2.54"/><circle class="cls-10" cx="321.62" cy="67.73" r="2.54"/><circle class="cls-11" cx="318.35" cy="59.52" r="1.72"/><circle class="cls-11" cx="329.32" cy="60.54" r="1.72"/><circle class="cls-12" cx="324.65" cy="54.41" r="1.2"/><circle class="cls-12" cx="330.58" cy="51.82" r="1.2"/><circle class="cls-43" cx="103.89" cy="50.05" r="14.19"/><path class="cls-44" d="M98.5,46.48l3,10.2,8.5-2.54Z"/><path class="cls-45" d="M93.05,59.22l8.5-2.54-3-10.2Z"/><path class="cls-46" d="M95.45,61.47A14.66,14.66,0,0,0,99,63.37l16.32-4.88A14.36,14.36,0,0,0,117.21,55Z"/><path class="cls-47" d="M99,63.37a14.2,14.2,0,0,0,16.32-4.88Z"/><path class="cls-48" d="M108.74,49.35,111,56.83,117.21,55Z"/><path class="cls-49" d="M110.16,54.11,93.05,59.22a14.59,14.59,0,0,0,2.4,2.25L111,56.82l-.81-2.72Z"/><path class="cls-45" d="M104.74,58.69,111,56.83l-2.23-7.48Z"/><circle class="cls-50" cx="107.11" cy="43.91" r="3.55"/><circle class="cls-50" cx="97.39" cy="42.74" r="1.77"/><circle class="cls-9" cx="86.55" cy="38.61" r="2.4"/><circle class="cls-10" cx="103.34" cy="29.83" r="3.63"/><circle class="cls-10" cx="90.53" cy="31.57" r="1.75"/><circle class="cls-10" cx="95.1" cy="26.44" r="1.75"/><circle class="cls-11" cx="89.31" cy="24.66" r="1.18"/><circle class="cls-11" cx="94.58" cy="19.24" r="1.18"/><circle class="cls-12" cx="89.29" cy="19.09" r="0.82"/><circle class="cls-12" cx="90.46" cy="14.8" r="0.82"/><polyline class="cls-51" points="169.59 203.5 171.98 169.65 184.91 177.94 192.11 153.37 206.93 182.66 213.41 136.72 226.2 172.1"/></g></g></svg>