<svg xmlns="http://www.w3.org/2000/svg" width="102" height="102" viewBox="0 0 102 102">
    <g data-name="Group 5058">
        <path data-name="Path 12484" d="M282.64 85.32h-31.62A1.02 1.02 0 0 1 250 84.3V70.02a1.02 1.02 0 0 1 1.02-1.02h31.62a1.02 1.02 0 0 1 1.02 1.02V84.3a1.02 1.02 0 0 1-1.02 1.02zm-30.6-2.04h29.58V71.04h-29.58z" transform="translate(-236.74 1.38)" style="fill:#f0b90b"/>
        <path data-name="Path 12485" d="M323.64 85.32h-31.62A1.02 1.02 0 0 1 291 84.3V70.02a1.02 1.02 0 0 1 1.02-1.02h31.62a1.02 1.02 0 0 1 1.02 1.02V84.3a1.02 1.02 0 0 1-1.02 1.02zm-30.6-2.04h29.58V71.04h-29.58z" transform="translate(-235.92 1.38)" style="fill:#55585a"/>
        <path data-name="Path 12486" d="M324.46 59.32h-73.44A1.02 1.02 0 0 1 250 58.3V44.02a1.02 1.02 0 0 1 1.02-1.02h73.44a1.02 1.02 0 0 1 1.02 1.02V58.3a1.02 1.02 0 0 1-1.02 1.02zm-72.42-2.04h71.4V45.04h-71.4z" transform="translate(-236.74 .86)" style="fill:#55585a"/>
        <path data-name="Path 12487" d="M324.46 33.32h-73.44A1.02 1.02 0 0 1 250 32.3V18.02a1.02 1.02 0 0 1 1.02-1.02h73.44a1.02 1.02 0 0 1 1.02 1.02V32.3a1.02 1.02 0 0 1-1.02 1.02zm-72.42-2.04h71.4V19.04h-71.4z" transform="translate(-236.74 .34)" style="fill:#55585a"/>
    </g>
</svg>
