<svg xmlns="http://www.w3.org/2000/svg" width="240" height="240" viewBox="0 0 240 240">
    <g data-name="Group 5046">
        <path data-name="Path 12454" d="M696.909 869a10.909 10.909 0 0 1-7.714-18.623l170.182-170.182a10.909 10.909 0 0 1 15.423 15.428L704.622 865.8a10.872 10.872 0 0 1-7.713 3.2z" transform="translate(-662 -653)" style="fill:#e5e6e6"/>
        <path data-name="Path 12455" d="M702.455 742.909a49.455 49.455 0 1 1 49.455-49.455 49.511 49.511 0 0 1-49.455 49.455zm0-77.091a27.636 27.636 0 1 0 27.636 27.636 27.668 27.668 0 0 0-27.636-27.636z" style="fill:#e5e6e6" transform="translate(-653 -644)"/>
        <path data-name="Path 12456" d="M896.455 936.909a49.455 49.455 0 1 1 49.455-49.455 49.511 49.511 0 0 1-49.455 49.455zm0-77.091a27.636 27.636 0 1 0 27.636 27.636 27.668 27.668 0 0 0-27.636-27.636z" transform="translate(-705.909 -696.909)" style="fill:#e5e6e6"/>
    </g>
</svg>
