<svg data-name="Group 5055" xmlns="http://www.w3.org/2000/svg" width="100" height="100" viewBox="0 0 100 100">
    <path data-name="Path 12470" d="M82 86H18a1 1 0 0 1-1-1V15a1 1 0 0 1 1-1h64a1 1 0 0 1 1 1v70a1 1 0 0 1-1 1zm-63-2h62V16H19z" style="fill:#55585a"/>
    <path data-name="Path 12471" d="M58 38H26a1 1 0 0 1-1-1V23a1 1 0 0 1 1-1h32a1 1 0 0 1 1 1v14a1 1 0 0 1-1 1zm-31-2h30V24H27z" style="fill:#f0b90b"/>
    <path data-name="Path 12472" d="M74 46H26a1 1 0 0 1 0-2h48a1 1 0 0 1 0 2z" style="fill:#f0b90b"/>
    <path data-name="Path 12473" d="M74 54H26a1 1 0 0 1 0-2h48a1 1 0 0 1 0 2z" style="fill:#f0b90b"/>
    <path data-name="Path 12474" d="M50 62H26a1 1 0 0 1 0-2h24a1 1 0 0 1 0 2z" style="fill:#f0b90b"/>
    <path data-name="Path 12475" d="M59 79a1 1 0 0 1-.707-1.707l14.5-14.5a1 1 0 0 1 1.414 1.414l-14.5 14.5A1 1 0 0 1 59 79z" style="fill:#f0b90b"/>
    <path data-name="Path 12476" d="M60 69a4 4 0 1 1 4-4 4 4 0 0 1-4 4zm0-6a2 2 0 1 0 2 2 2 2 0 0 0-2-2z" style="fill:#f0b90b"/>
    <path data-name="Path 12477" d="M73 80a4 4 0 1 1 4-4 4 4 0 0 1-4 4zm0-6a2 2 0 1 0 2 2 2 2 0 0 0-2-2z" style="fill:#f0b90b"/>
</svg>
