<svg data-name="Group 5053" xmlns="http://www.w3.org/2000/svg" width="102" height="102" viewBox="0 0 102 102">
    <path data-name="Path 12457" d="M50.86 94.72a43.86 43.86 0 1 1 43.86-43.86 43.91 43.91 0 0 1-43.86 43.86zm0-85.68a41.82 41.82 0 1 0 41.82 41.82A41.868 41.868 0 0 0 50.86 9.04z" transform="translate(.14 .14)" style="fill:#55585a"/>
    <path data-name="Path 12458" d="M41.02 76A1.02 1.02 0 0 1 40 74.98V26.02a1.02 1.02 0 1 1 2.04 0v48.96A1.02 1.02 0 0 1 41.02 76z" transform="translate(.8 .5)" style="fill:#f0b90b"/>
    <path data-name="Path 12459" d="M51.02 27.16A1.02 1.02 0 0 1 50 26.14v-6.12a1.02 1.02 0 1 1 2.04 0v6.12a1.02 1.02 0 0 1-1.02 1.02z" transform="translate(1 .38)" style="fill:#f0b90b"/>
    <path data-name="Path 12460" d="M51.02 81.16A1.02 1.02 0 0 1 50 80.14v-6.12a1.02 1.02 0 0 1 2.04 0v6.12a1.02 1.02 0 0 1-1.02 1.02z" transform="translate(1 1.46)" style="fill:#f0b90b"/>
    <path data-name="Path 12461" d="M45.02 27.16A1.02 1.02 0 0 1 44 26.14v-6.12a1.02 1.02 0 1 1 2.04 0v6.12a1.02 1.02 0 0 1-1.02 1.02z" transform="translate(.88 .38)" style="fill:#f0b90b"/>
    <path data-name="Path 12462" d="M45.02 81.16A1.02 1.02 0 0 1 44 80.14v-6.12a1.02 1.02 0 0 1 2.04 0v6.12a1.02 1.02 0 0 1-1.02 1.02z" transform="translate(.88 1.46)" style="fill:#f0b90b"/>
    <path data-name="Path 12463" d="M56.06 76a1.02 1.02 0 1 1 0-2.04 11.22 11.22 0 1 0 0-22.44h-2.04a1.02 1.02 0 1 1 0-2.04 11.22 11.22 0 1 0 0-22.44 1.02 1.02 0 1 1 0-2.04 13.259 13.259 0 0 1 6 25.084A13.261 13.261 0 0 1 56.06 76z" transform="translate(1.06 .5)" style="fill:#f0b90b"/>
    <path data-name="Path 12464" d="M54.44 27.04H33.02a1.02 1.02 0 1 1 0-2.04h21.42a1.02 1.02 0 1 1 0 2.04z" transform="translate(.64 .5)" style="fill:#f0b90b"/>
    <path data-name="Path 12465" d="M56.48 75.04H33.02a1.02 1.02 0 1 1 0-2.04h23.46a1.02 1.02 0 1 1 0 2.04z" transform="translate(.64 1.46)" style="fill:#f0b90b"/>
    <path data-name="Path 12466" d="M54.28 51.04H41.02a1.02 1.02 0 0 1 0-2.04h13.26a1.02 1.02 0 0 1 0 2.04z" transform="translate(.8 .98)" style="fill:#f0b90b"/>
</svg>
