<svg data-name="Group 5054" xmlns="http://www.w3.org/2000/svg" width="102" height="102" viewBox="0 0 102 102">
    <path data-name="Path 12467" d="M22.687 79.465a1.019 1.019 0 0 1-.722-1.741l55.7-55.7a1.02 1.02 0 0 1 1.442 1.442l-55.7 55.7a1.02 1.02 0 0 1-.72.299z" transform="translate(.433 .435)" style="fill:#55585a"/>
    <path data-name="Path 12468" d="M31.732 45.466a15.733 15.733 0 1 1 15.734-15.734 15.751 15.751 0 0 1-15.734 15.734zm0-29.426a13.693 13.693 0 1 0 13.694 13.692A13.708 13.708 0 0 0 31.732 16.04z" transform="translate(.32 .28)" style="fill:#f0b90b"/>
    <path data-name="Path 12469" d="M70.884 84.617a15.733 15.733 0 1 1 15.733-15.733 15.751 15.751 0 0 1-15.733 15.733zm0-29.426a13.693 13.693 0 1 0 13.693 13.693 13.708 13.708 0 0 0-13.693-13.693z" transform="translate(1.103 1.063)" style="fill:#f0b90b"/>
</svg>
