<svg xmlns="http://www.w3.org/2000/svg" width="102" height="102" viewBox="0 0 102 102">
    <g data-name="Group 5056">
        <path data-name="Path 12478" d="M148.3 47.6a15.3 15.3 0 1 1 15.3-15.3 15.317 15.317 0 0 1-15.3 15.3zm0-28.56a13.26 13.26 0 1 0 13.26 13.26 13.275 13.275 0 0 0-13.26-13.26z" transform="translate(-116.68 .34)" style="fill:#f0b90b"/>
        <path data-name="Path 12479" d="M148.3 83.6a15.3 15.3 0 1 1 15.3-15.3 15.317 15.317 0 0 1-15.3 15.3zm0-28.56a13.26 13.26 0 1 0 13.26 13.26 13.275 13.275 0 0 0-13.26-13.26z" transform="translate(-116.68 1.06)" style="fill:#55585a"/>
        <path data-name="Path 12480" d="M185.3 47.6a15.3 15.3 0 1 1 15.3-15.3 15.317 15.317 0 0 1-15.3 15.3zm0-28.56a13.26 13.26 0 1 0 13.26 13.26 13.275 13.275 0 0 0-13.26-13.26z" transform="translate(-115.94 .34)" style="fill:#55585a"/>
        <path data-name="Path 12481" d="M174.08 72.16a4.08 4.08 0 1 1 4.08-4.08 4.084 4.084 0 0 1-4.08 4.08zm0-6.12a2.04 2.04 0 1 0 2.04 2.04 2.042 2.042 0 0 0-2.04-2.04z" transform="translate(-115.94 1.28)" style="fill:#f0b90b"/>
        <path data-name="Path 12482" d="M185.08 72.16a4.08 4.08 0 1 1 4.08-4.08 4.084 4.084 0 0 1-4.08 4.08zm0-6.12a2.04 2.04 0 1 0 2.04 2.04 2.042 2.042 0 0 0-2.04-2.04z" transform="translate(-115.72 1.28)" style="fill:#f0b90b"/>
        <path data-name="Path 12483" d="M196.08 72.16a4.08 4.08 0 1 1 4.08-4.08 4.084 4.084 0 0 1-4.08 4.08zm0-6.12a2.04 2.04 0 1 0 2.04 2.04 2.042 2.042 0 0 0-2.04-2.04z" transform="translate(-115.5 1.28)" style="fill:#f0b90b"/>
    </g>
</svg>
