<svg xmlns="http://www.w3.org/2000/svg" width="120" height="120" viewBox="0 0 120 120">
    <g data-name="Group 9889">
        <g data-name="Group 9887">
            <path data-name="Path 17046" d="M975.935-202.411a.857.857 0 0 1-.736-.417.857.857 0 0 1 .294-1.176l7.253-4.351a.857.857 0 0 1 1.176.294.857.857 0 0 1-.294 1.176l-7.253 4.351a.849.849 0 0 1-.44.123z" transform="translate(-885.901 270.051)" style="fill:#0bb3f0"/>
            <path data-name="Path 17047" d="M1000.109-202.411a.85.85 0 0 1-.44-.123l-7.253-4.351a.857.857 0 0 1-.294-1.176.857.857 0 0 1 1.176-.294l7.253 4.351a.858.858 0 0 1 .294 1.176.857.857 0 0 1-.736.417z" transform="translate(-895.571 270.051)" style="fill:#0bb3f0"/>
            <path data-name="Path 17048" d="M990.44-196.61h-14.506a.857.857 0 0 1-.857-.857.857.857 0 0 1 .857-.857h14.506a.857.857 0 0 1 .857.857.857.857 0 0 1-.857.857z" transform="translate(-885.901 264.249)" style="fill:#0bb3f0"/>
            <path data-name="Path 17049" d="M993.057-186.411a.857.857 0 0 1-.857-.857v-4.351a.857.857 0 0 1 .857-.857.857.857 0 0 1 .857.857v4.351a.857.857 0 0 1-.857.857z" transform="translate(-895.686 260.908)" style="fill:#0bb3f0"/>
            <path data-name="Path 17050" d="M1002.534-186.411a.857.857 0 0 1-.857-.857v-4.351a.857.857 0 0 1 .857-.857.857.857 0 0 1 .857.857v4.351a.857.857 0 0 1-.857.857z" transform="translate(-901.101 260.908)" style="fill:#0bb3f0"/>
            <path data-name="Path 17051" d="M983.58-186.411a.857.857 0 0 1-.857-.857v-4.351a.857.857 0 0 1 .857-.857.857.857 0 0 1 .857.857v4.351a.857.857 0 0 1-.857.857z" transform="translate(-890.27 260.908)" style="fill:#0bb3f0"/>
            <path data-name="Path 17052" d="M991-174.763h-11.143a.857.857 0 0 1-.857-.857.857.857 0 0 1 .857-.857H991a.857.857 0 0 1 .857.857.857.857 0 0 1-.857.857z" transform="translate(-888.143 251.765)" style="fill:#0bb3f0"/>
        </g>
        <g data-name="Group 9888">
            <path data-name="Path 17053" d="M860.143-188.763h-10.286a.857.857 0 0 1-.857-.857.857.857 0 0 1 .857-.857h10.286a.857.857 0 0 1 .857.857.857.857 0 0 1-.857.857z" transform="translate(-813.857 259.764)" style="fill:#0bb3f0"/>
            <path data-name="Path 17054" d="M855.856-190.248a.852.852 0 0 1-.428-.115.857.857 0 0 1-.314-1.171l5.143-8.908a.857.857 0 0 1 1.171-.314.857.857 0 0 1 .314 1.171l-5.143 8.908a.858.858 0 0 1-.743.429z" transform="translate(-817.286 265.703)" style="fill:#0bb3f0"/>
            <path data-name="Path 17055" d="M861-190.248a.858.858 0 0 1-.743-.429l-5.143-8.908a.857.857 0 0 1 .314-1.171.857.857 0 0 1 1.171.314l5.143 8.908a.857.857 0 0 1-.314 1.171.851.851 0 0 1-.428.115z" transform="translate(-817.286 265.703)" style="fill:#0bb3f0"/>
            <path data-name="Path 17056" d="M895.143-188.763h-10.286a.857.857 0 0 1-.857-.857.857.857 0 0 1 .857-.857h10.286a.857.857 0 0 1 .857.857.857.857 0 0 1-.857.857z" transform="translate(-833.857 259.764)" style="fill:#0bb3f0"/>
            <path data-name="Path 17057" d="M890.856-190.248a.852.852 0 0 1-.428-.115.857.857 0 0 1-.314-1.171l5.143-8.908a.857.857 0 0 1 1.171-.314.857.857 0 0 1 .314 1.171l-5.143 8.908a.858.858 0 0 1-.743.429z" transform="translate(-837.286 265.703)" style="fill:#0bb3f0"/>
            <path data-name="Path 17058" d="M896-190.248a.858.858 0 0 1-.743-.429l-5.143-8.908a.857.857 0 0 1 .314-1.171.857.857 0 0 1 1.171.314l5.143 8.908a.857.857 0 0 1-.314 1.171.851.851 0 0 1-.428.115z" transform="translate(-837.286 265.703)" style="fill:#0bb3f0"/>
            <path data-name="Path 17059" d="M930.143-188.763h-10.286a.857.857 0 0 1-.857-.857.857.857 0 0 1 .857-.857h10.286a.857.857 0 0 1 .857.857.857.857 0 0 1-.857.857z" transform="translate(-853.857 259.764)" style="fill:#0bb3f0"/>
            <path data-name="Path 17060" d="M925.856-190.248a.852.852 0 0 1-.428-.115.857.857 0 0 1-.314-1.171l5.143-8.908a.857.857 0 0 1 1.171-.314.857.857 0 0 1 .314 1.171l-5.143 8.908a.858.858 0 0 1-.743.429z" transform="translate(-857.286 265.703)" style="fill:#0bb3f0"/>
            <path data-name="Path 17061" d="M931-190.248a.858.858 0 0 1-.743-.429l-5.143-8.908a.857.857 0 0 1 .314-1.171.857.857 0 0 1 1.171.314l5.143 8.908a.857.857 0 0 1-.314 1.171.851.851 0 0 1-.428.115z" transform="translate(-857.286 265.703)" style="fill:#0bb3f0"/>
        </g>
        <path data-name="Path 17062" d="M880.143-255.671H872v-16.734h-.007a10.708 10.708 0 0 0-10.69-10.411H795.7a10.708 10.708 0 0 0-10.69 10.411H785v39.466a10.71 10.71 0 0 0 10.7 10.7h65.6a10.653 10.653 0 0 0 9.982-6.857h8.858a9.439 9.439 0 0 0 9.429-9.429v-7.714a9.439 9.439 0 0 0-9.426-9.432zm-9.857-15.02v9.9h-83.572v-9.9zM795.7-281.1h65.6a8.987 8.987 0 0 1 8.968 8.7h-83.539a8.987 8.987 0 0 1 8.971-8.7zm65.6 57.143h-65.6a8.993 8.993 0 0 1-8.983-8.983v-26.14h83.571v3.409h-56.574a9.439 9.439 0 0 0-9.429 9.429v7.714a9.439 9.439 0 0 0 9.429 9.429h55.708a8.944 8.944 0 0 1-8.122 5.142zm26.554-14.571a7.723 7.723 0 0 1-7.714 7.714h-66.426a7.723 7.723 0 0 1-7.714-7.714v-7.714a7.723 7.723 0 0 1 7.714-7.714h66.429a7.723 7.723 0 0 1 7.714 7.714z" transform="translate(-777.286 312.53)" style="fill:#333536"/>
    </g>
</svg>
