<svg xmlns="http://www.w3.org/2000/svg" width="120" height="120" viewBox="0 0 120 120">
    <path data-name="Rectangle 2011" style="fill:none" d="M0 0h120v120H0z"/>
    <g data-name="Group 9892">
        <path data-name="Path 17063" d="M21.7-254.107a.855.855 0 0 1-.605-.251L8.251-267.2a.856.856 0 0 1 0-1.21l12.84-12.84a.856.856 0 0 1 .933-.186.856.856 0 0 1 .528.791v6.848h14.98a.856.856 0 0 1 .856.856v10.272a.856.856 0 0 1-.856.856H22.553v6.848a.856.856 0 0 1-.528.791.861.861 0 0 1-.325.067zm-11.63-13.7 10.77 10.777v-5.638a.856.856 0 0 1 .856-.856h14.98v-8.56H21.7a.856.856 0 0 1-.856-.856v-5.638z" transform="translate(-4.576 311.675)" style="fill:#0bb3f0"/>
        <path data-name="Path 17064" d="M151.614-307.527h-17.12V-318a10.516 10.516 0 0 0-10.5-10.5H85.5A10.516 10.516 0 0 0 75-318v78.72a10.516 10.516 0 0 0 10.5 10.5h38.49a10.516 10.516 0 0 0 10.5-10.5v-42.57h17.12a7.713 7.713 0 0 0 7.7-7.7v-10.272a7.713 7.713 0 0 0-7.696-7.705zm-18.833 68.251a8.8 8.8 0 0 1-8.791 8.791H85.5a8.8 8.8 0 0 1-8.791-8.791V-318a8.8 8.8 0 0 1 8.791-8.791h38.49a8.8 8.8 0 0 1 8.792 8.791v10.469H95.545a7.713 7.713 0 0 0-7.7 7.7v10.272a7.713 7.713 0 0 0 7.7 7.7h37.237zm24.825-50.274a6 6 0 0 1-5.992 5.992H95.545a6 6 0 0 1-5.992-5.992v-10.272a6 6 0 0 1 5.992-5.992h56.07a6 6 0 0 1 5.992 5.992z" transform="translate(-42.899 338.558)" style="fill:#333536"/>
        <path data-name="Path 17065" d="M137.136-122.228a5.142 5.142 0 0 1-5.136-5.136 5.142 5.142 0 0 1 5.136-5.136 5.142 5.142 0 0 1 5.136 5.136 5.142 5.142 0 0 1-5.136 5.136zm0-8.56a3.428 3.428 0 0 0-3.424 3.424 3.428 3.428 0 0 0 3.424 3.424 3.428 3.428 0 0 0 3.424-3.424 3.428 3.428 0 0 0-3.424-3.424z" transform="translate(-75.503 226.448)" style="fill:#222221"/>
        <path data-name="Path 17066" d="M140.264-315.788h-15.408a.856.856 0 0 1-.856-.856.856.856 0 0 1 .856-.856h15.408a.856.856 0 0 1 .856.856.856.856 0 0 1-.856.856z" transform="translate(-70.927 332.266)" style="fill:#1a1c1f"/>
        <g data-name="Group 9891">
            <path data-name="Path 17067" d="M138.795-195.545h-24.144a.856.856 0 0 1-.825-.627.857.857 0 0 1 .385-.963l12.072-7.243a.856.856 0 0 1 .881 0l12.072 7.243a.857.857 0 0 1 .385.963.856.856 0 0 1-.826.627zm-21.053-1.712H135.7l-8.981-5.389z" transform="translate(-65.09 267.631)" style="fill:#0bb3f0"/>
            <path data-name="Path 17068" d="M142.856-170.545a.856.856 0 0 1-.856-.855v-7.243a.856.856 0 0 1 .856-.856.856.856 0 0 1 .856.856v7.243a.856.856 0 0 1-.856.855z" transform="translate(-81.223 253.331)" style="fill:#0bb3f0"/>
            <path data-name="Path 17069" d="M158.651-170.545a.856.856 0 0 1-.856-.856v-7.243a.856.856 0 0 1 .856-.856.856.856 0 0 1 .856.856v7.243a.856.856 0 0 1-.856.856z" transform="translate(-90.257 253.331)" style="fill:#0bb3f0"/>
            <path data-name="Path 17070" d="M127.061-170.545a.856.856 0 0 1-.856-.856v-7.243a.856.856 0 0 1 .856-.856.856.856 0 0 1 .856.856v7.243a.856.856 0 0 1-.856.856z" transform="translate(-72.188 253.331)" style="fill:#0bb3f0"/>
            <path data-name="Path 17071" d="M139.689-152.788h-18.833a.856.856 0 0 1-.856-.856.856.856 0 0 1 .856-.856h18.833a.856.856 0 0 1 .856.856.856.856 0 0 1-.856.856z" transform="translate(-68.639 239.032)" style="fill:#0bb3f0"/>
        </g>
        <path data-name="Path 17072" d="M130.128-249.788h-10.272a.856.856 0 0 1-.856-.856.856.856 0 0 1 .856-.856h10.272a.856.856 0 0 1 .856.856.856.856 0 0 1-.856.856z" transform="translate(-68.067 294.515)" style="fill:#0bb3f0"/>
        <path data-name="Path 17073" d="M125.855-251.284a.852.852 0 0 1-.427-.115.856.856 0 0 1-.313-1.169l5.136-8.9a.855.855 0 0 1 1.169-.313.856.856 0 0 1 .313 1.169l-5.136 8.9a.856.856 0 0 1-.742.428z" transform="translate(-71.499 300.459)" style="fill:#0bb3f0"/>
        <path data-name="Path 17074" d="M130.993-251.284a.856.856 0 0 1-.742-.428l-5.136-8.9a.856.856 0 0 1 .313-1.169.856.856 0 0 1 1.169.313l5.136 8.9a.856.856 0 0 1-.313 1.169.851.851 0 0 1-.427.115z" transform="translate(-71.499 300.459)" style="fill:#0bb3f0"/>
        <path data-name="Path 17075" d="M165.128-249.788h-10.272a.856.856 0 0 1-.856-.856.856.856 0 0 1 .856-.856h10.272a.856.856 0 0 1 .856.856.856.856 0 0 1-.856.856z" transform="translate(-88.086 294.515)" style="fill:#0bb3f0"/>
        <path data-name="Path 17076" d="M160.855-251.284a.852.852 0 0 1-.427-.115.856.856 0 0 1-.313-1.169l5.136-8.9a.855.855 0 0 1 1.169-.313.856.856 0 0 1 .313 1.169l-5.136 8.9a.856.856 0 0 1-.742.428z" transform="translate(-91.518 300.459)" style="fill:#0bb3f0"/>
        <path data-name="Path 17077" d="M165.993-251.284a.856.856 0 0 1-.742-.428l-5.136-8.9a.856.856 0 0 1 .313-1.169.856.856 0 0 1 1.169.313l5.136 8.9a.856.856 0 0 1-.313 1.169.851.851 0 0 1-.427.115z" transform="translate(-91.518 300.459)" style="fill:#0bb3f0"/>
        <path data-name="Path 17078" d="M200.128-249.788h-10.272a.856.856 0 0 1-.856-.856.856.856 0 0 1 .856-.856h10.272a.856.856 0 0 1 .856.856.856.856 0 0 1-.856.856z" transform="translate(-108.106 294.515)" style="fill:#0bb3f0"/>
        <path data-name="Path 17079" d="M195.855-251.284a.852.852 0 0 1-.427-.115.856.856 0 0 1-.313-1.169l5.136-8.9a.855.855 0 0 1 1.169-.313.856.856 0 0 1 .313 1.169l-5.136 8.9a.856.856 0 0 1-.742.428z" transform="translate(-111.538 300.459)" style="fill:#0bb3f0"/>
        <path data-name="Path 17080" d="M200.993-251.284a.856.856 0 0 1-.742-.428l-5.136-8.9a.856.856 0 0 1 .313-1.169.856.856 0 0 1 1.169.313l5.136 8.9a.856.856 0 0 1-.313 1.169.851.851 0 0 1-.427.115z" transform="translate(-111.538 300.459)" style="fill:#0bb3f0"/>
    </g>
</svg>
