<svg xmlns="http://www.w3.org/2000/svg" width="120" height="120" viewBox="0 0 120 120">
    <g data-name="Group 9885">
        <path data-name="Path 17020" d="M545-290.037h-91.71a8.8 8.8 0 0 0-8.79 8.79v11.9a8.8 8.8 0 0 0 8.79 8.79h39.435v21.257h-2.616a5.525 5.525 0 0 0-5.519 5.519v3.834a5.533 5.533 0 0 0 .65 2.6l7.486 14.037v5.727h34.257v-29.332a4.93 4.93 0 0 0-4.925-4.925 4.906 4.906 0 0 0-3.44 1.407 4.933 4.933 0 0 0-4.7-3.441 4.913 4.913 0 0 0-3.731 1.719 4.926 4.926 0 0 0-4.4-2.736 4.9 4.9 0 0 0-3.21 1.2v-16.869H545a8.8 8.8 0 0 0 8.79-8.79v-11.9a8.8 8.8 0 0 0-8.79-8.787zm-39.21 46.86a3.214 3.214 0 0 1 3.21 3.21v3.051a.857.857 0 0 0 .857.857.857.857 0 0 0 .857-.857v-2.034a3.214 3.214 0 0 1 3.211-3.21 3.214 3.214 0 0 1 3.211 3.21v2.034a.857.857 0 0 0 .857.857.857.857 0 0 0 .857-.857 3.214 3.214 0 0 1 3.21-3.21 3.214 3.214 0 0 1 3.211 3.21v27.616h-30.832v-4.263c0-.03 0-.06-.009-.091s-.009-.054-.016-.081a.794.794 0 0 0-.024-.077.833.833 0 0 0-.036-.086l-.013-.033-7.587-14.226a3.812 3.812 0 0 1-.448-1.79v-3.834a3.809 3.809 0 0 1 3.8-3.8h2.616v10.329a.857.857 0 0 0 .857.857.857.857 0 0 0 .857-.857V-264.378a3.215 3.215 0 0 1 3.211-3.211 3.207 3.207 0 0 1 2.27.936 3.21 3.21 0 0 1 .941 2.274v27.457a.857.857 0 0 0 .857.857.857.857 0 0 0 .857-.857v-3.051a3.214 3.214 0 0 1 3.214-3.204zm46.286-26.172a7.084 7.084 0 0 1-7.076 7.075h-42.42v-2.1a4.918 4.918 0 0 0-1.443-3.486 4.914 4.914 0 0 0-3.482-1.439 4.931 4.931 0 0 0-4.925 4.925v2.1h-39.44a7.084 7.084 0 0 1-7.076-7.076v-11.9a7.084 7.084 0 0 1 7.076-7.076H545a7.083 7.083 0 0 1 7.076 7.076z" transform="translate(-439.143 316.655)" style="fill:#333536"/>
        <g data-name="Group 9884">
            <path data-name="Path 17021" d="M475.9-257.231c-.063 0-.147 0-.25-.013a1.214 1.214 0 0 1-.354-.095 3.344 3.344 0 0 1-.355 1.015 4.573 4.573 0 0 1-.645.9 5.624 5.624 0 0 1-.875.774 7.825 7.825 0 0 1-1.047.634l-.789-1.091q.305-.155.616-.338t.593-.388a6.074 6.074 0 0 0 .526-.426 3.509 3.509 0 0 0 .425-.459 2.181 2.181 0 0 0 .284-.485 1.294 1.294 0 0 0 .1-.5 1.851 1.851 0 0 0-.065-.427q-.065-.258-.164-.556t-.22-.6q-.12-.3-.233-.552l1.246-.543a8.774 8.774 0 0 0 .33.862 3.433 3.433 0 0 0 .3.552 1.053 1.053 0 0 0 .282.291.509.509 0 0 0 .27.084h.1v1.362zm-1.815-4-.957-.957.957-.957.957.957z" transform="translate(-454.622 301.288)" style="fill:#0bb3f0"/>
            <path data-name="Path 17022" d="M481.424-256.553h1.035q.185 0 .409-.019a2.007 2.007 0 0 0 .42-.08.853.853 0 0 0 .327-.179.4.4 0 0 0 .132-.312 1.159 1.159 0 0 0-.063-.308q-.062-.2-.164-.457t-.228-.528q-.127-.276-.252-.526l1.233-.612q.121.272.24.578t.213.621a5.933 5.933 0 0 1 .153.627 3.243 3.243 0 0 1 .058.6 1.923 1.923 0 0 1-.2.907 1.686 1.686 0 0 1-.532.608 2.249 2.249 0 0 1-.789.341 4.269 4.269 0 0 1-.97.106h-1.026zm1.681 2.625-.81.81-.837-.832.828-.832.819.819.81-.81.836.832-.827.832z" transform="translate(-460.243 299.248)" style="fill:#0bb3f0"/>
            <path data-name="Path 17023" d="M493.127-256.134q.1.317.185.649t.14.661a3.712 3.712 0 0 1 .056.619 2.854 2.854 0 0 1-.11.791 3.574 3.574 0 0 1-.31.748 4.511 4.511 0 0 1-.477.694 5.586 5.586 0 0 1-.612.627 6.531 6.531 0 0 1-.72.548 7.507 7.507 0 0 1-.793.455l-.784-1.091q.311-.155.627-.351a7.235 7.235 0 0 0 .608-.42 6.186 6.186 0 0 0 .543-.47 4.122 4.122 0 0 0 .44-.5 2.471 2.471 0 0 0 .295-.515 1.331 1.331 0 0 0 .108-.511 1.724 1.724 0 0 0-.05-.392 4.326 4.326 0 0 0-.135-.455c-.058-.162-.124-.335-.2-.517s-.159-.377-.248-.584l1.245-.569q.09.266.192.583z" transform="translate(-464.973 297.616)" style="fill:#0bb3f0"/>
            <path data-name="Path 17024" d="M500.177-259.554q.021-.379.036-.75t.02-.72q0-.349-.009-.642-.026-.612-.05-1.075t-.048-.821q-.023-.358-.047-.627t-.05-.493q-.026-.224-.056-.42t-.065-.408l1.332-.439q.094.577.153 1.164t.089 1.123q.03.537.041 1t.011.789v.642c0 .23 0 .468-.009.716s-.011.5-.019.75-.021.5-.039.741l-1.332.207.042-.737z" transform="translate(-470.806 302.892)" style="fill:#0bb3f0"/>
            <path data-name="Path 17025" d="M504.668-253.192a7.424 7.424 0 0 0 1.108-.3 5.151 5.151 0 0 0 .877-.409 3.077 3.077 0 0 0 .625-.481 1.586 1.586 0 0 0 .351-.517c-.123 0-.255 0-.392-.007s-.252-.009-.341-.015a2.958 2.958 0 0 1-.776-.162 1.861 1.861 0 0 1-.6-.349 1.511 1.511 0 0 1-.39-.541 1.835 1.835 0 0 1-.138-.733 2.678 2.678 0 0 1 .056-.539 3.1 3.1 0 0 1 .162-.539 2.648 2.648 0 0 1 .263-.5 2.182 2.182 0 0 1 .356-.41 1.582 1.582 0 0 1 .438-.278 1.3 1.3 0 0 1 .515-.1 1.525 1.525 0 0 1 .724.173 2.025 2.025 0 0 1 .58.459 2.954 2.954 0 0 1 .433.66 4.439 4.439 0 0 1 .291.776 4.662 4.662 0 0 1 .147.8 3.9 3.9 0 0 1 0 .741 3.535 3.535 0 0 1-.226.946 3.637 3.637 0 0 1-.448.815 3.892 3.892 0 0 1-.636.677 4.757 4.757 0 0 1-.784.534 5.255 5.255 0 0 1-.9.386 6.162 6.162 0 0 1-.976.233zm2.112-4.513a.281.281 0 0 0-.207.063.908.908 0 0 0-.216.215 1.428 1.428 0 0 0-.166.3.833.833 0 0 0-.067.315.344.344 0 0 0 .09.243.673.673 0 0 0 .233.157 1.506 1.506 0 0 0 .321.093 3.007 3.007 0 0 0 .356.043c.118.007.23.011.336.011h.267a4.935 4.935 0 0 0-.153-.513 2.486 2.486 0 0 0-.2-.44 1.363 1.363 0 0 0-.263-.323.678.678 0 0 0-.331-.164z" transform="translate(-473.525 298.961)" style="fill:#0bb3f0"/>
            <path data-name="Path 17026" d="M526.726-256.6q-.388 0-.837-.03a6.832 6.832 0 0 1-.9-.121 5.2 5.2 0 0 1-.869-.254 2.861 2.861 0 0 1-.75-.427 2.145 2.145 0 0 1-.539-.64 2.041 2.041 0 0 1-.234-.9 2.184 2.184 0 0 1 .056-.494 3.19 3.19 0 0 1 .149-.468 4.86 4.86 0 0 1 .211-.451q.119-.222.244-.446l1.013.849c-.043.06-.093.138-.151.235s-.113.2-.166.3a2.472 2.472 0 0 0-.134.321.913.913 0 0 0-.054.282.4.4 0 0 0 .119.285 1.068 1.068 0 0 0 .323.222 2.479 2.479 0 0 0 .487.164q.282.067.612.112t.69.065q.36.019.727.019.305 0 .7-.03t.8-.1q.413-.067.823-.172a4.834 4.834 0 0 0 .75-.256 3.416 3.416 0 0 0-.123-.388 4 4 0 0 0-.174-.386q-.1-.2-.246-.429t-.336-.522l1.06-.69a8.558 8.558 0 0 1 .597 1.138c.067.155.128.31.181.466a3.4 3.4 0 0 1 .123.455 1.782 1.782 0 0 1 .035.416 1.088 1.088 0 0 1-.25.64 2.149 2.149 0 0 1-.584.485 4.038 4.038 0 0 1-.8.349 7.6 7.6 0 0 1-.906.228q-.459.086-.89.125c-.283.03-.539.048-.757.048zm.073-4.591-.81.81-.836-.832.828-.832.819.819.81-.81.836.832-.827.832z" transform="translate(-483.772 300.662)" style="fill:#0bb3f0"/>
            <path data-name="Path 17027" d="M545.815-258.806a2.546 2.546 0 0 1-.914-.145 1.611 1.611 0 0 1-.612-.4 1.513 1.513 0 0 1-.342-.6 2.547 2.547 0 0 1-.106-.752q0-.207.009-.515t.009-.714v-.89q0-.49-.024-.972-.019-.487-.056-.935a7.289 7.289 0 0 0-.1-.78l1.289-.392q.056.284.093.67t.058.808q.021.422.032.849t.016.793q0 .323-.011.679c-.01.237-.018.464-.023.681s0 .413.006.588a1.134 1.134 0 0 0 .08.4.384.384 0 0 0 .1.151.4.4 0 0 0 .136.078.635.635 0 0 0 .17.03h.316v1.362z" transform="translate(-495.813 302.863)" style="fill:#0bb3f0"/>
            <path data-name="Path 17028" d="M552.373-258.385a4.102 4.102 0 0 0-.235-.093 3.076 3.076 0 0 0-.461-.12 1.778 1.778 0 0 0-.526-.017 1.17 1.17 0 0 0-.356.1 1.248 1.248 0 0 0-.3.192.93.93 0 0 0-.209.257.6.6 0 0 0-.078.289.557.557 0 0 0 .129.364 1.034 1.034 0 0 0 .33.261 1.758 1.758 0 0 0 .442.155 1.889 1.889 0 0 0 .469.043q.246-.022.511-.06c.177-.026.343-.053.5-.082q.134-.022.267-.048a8.45 8.45 0 0 0 .267-.056l.177 1.341q-.289.077-.705.155t-.937.14q-.522.062-1.138.1t-1.306.039h-.66v-1.362h.155l.6-.009a1.639 1.639 0 0 1-.216-.5 2.283 2.283 0 0 1-.056-.558 1.839 1.839 0 0 1 .17-.746 2.294 2.294 0 0 1 .453-.66 2.517 2.517 0 0 1 .67-.487 2.188 2.188 0 0 1 .824-.228 2.44 2.44 0 0 1 .423 0 2.624 2.624 0 0 1 .384.065 2.7 2.7 0 0 1 .34.108 2.749 2.749 0 0 1 .289.131c.1.055.2.113.289.175a2.347 2.347 0 0 1 .258.2l-.534 1.022q-.116-.062-.23-.111z" transform="translate(-498.601 299.483)" style="fill:#0bb3f0"/>
            <path data-name="Path 17029" d="M566.442-260.185v1.362h-.259a1.648 1.648 0 0 1-.783-.177 1.346 1.346 0 0 1-.523-.513.578.578 0 0 1-.056.065l-.056.056a2.8 2.8 0 0 1-.556.394 3.955 3.955 0 0 1-.647.278 4.277 4.277 0 0 1-.7.166 4.8 4.8 0 0 1-.714.054q-.206 0-.448-.021t-.517-.06l.233-1.353q.337.043.558.064t.373.022c.052 0 .12 0 .2-.011l.218-.02a3.871 3.871 0 0 0-.166-.733 7.053 7.053 0 0 0-.293-.746q-.17-.37-.375-.724c-.137-.236-.273-.459-.412-.668s-.272-.4-.4-.58-.247-.329-.349-.457-.185-.229-.248-.3l-.1-.117 1-1.022q.363.47.666.946t.554.936q.25.459.448.89c.132.287.249.558.349.81s.186.486.257.7.127.4.17.552a1.119 1.119 0 0 0 .218-.179 1.289 1.289 0 0 0 .188-.254 1.451 1.451 0 0 0 .131-.319 1.34 1.34 0 0 0 .049-.369.271.271 0 0 0 0-.034c0-.015-.005-.041-.011-.08l-.025-.173c-.011-.073-.029-.18-.052-.31l-.084-.489-.125-.718-.175-.991-.228-1.308 1.3-.315c0 .006.009.065.028.179s.042.267.071.459l.1.672c.038.255.075.53.114.823s.076.6.112.91.068.622.1.927q.052.375.106.7a3.337 3.337 0 0 0 .138.564 1.037 1.037 0 0 0 .213.375.438.438 0 0 0 .332.136z" transform="translate(-505.383 302.88)" style="fill:#0bb3f0"/>
            <path data-name="Path 17030" d="M574.068-260.157h.573l.2-.336a4.735 4.735 0 0 1 .336-.47q.035-.271.06-.666t.03-.864q0-.259-.018-.588t-.049-.718q-.033-.388-.08-.823t-.1-.905l1.388-.354q.06.444.108.858t.08.828q.032.413.049.838t.017.886q.224-.177.464-.334a3.655 3.655 0 0 1 .5-.273 2.988 2.988 0 0 1 .533-.183 2.458 2.458 0 0 1 .582-.067 1.986 1.986 0 0 1 .669.112 1.732 1.732 0 0 1 .558.323 1.733 1.733 0 0 1 .4.513 1.873 1.873 0 0 1 .2.681 2.5 2.5 0 0 1-.125.936 2.367 2.367 0 0 1-.416.741 2.664 2.664 0 0 1-.642.556 4.01 4.01 0 0 1-.806.384 5.074 5.074 0 0 1-.9.222 6.282 6.282 0 0 1-.936.071h-2.664zm4.535-1.793a1.549 1.549 0 0 0-.584.123 3.224 3.224 0 0 0-.667.364 4.881 4.881 0 0 0-.67.569 4.945 4.945 0 0 0-.6.737q.151.013.315.019c.109 0 .21.006.3.006a4.912 4.912 0 0 0 1.166-.127 3.734 3.734 0 0 0 .883-.324 1.827 1.827 0 0 0 .556-.431.664.664 0 0 0 .179-.455.4.4 0 0 0-.11-.22.687.687 0 0 0-.213-.146 1.222 1.222 0 0 0-.272-.084 1.86 1.86 0 0 0-.286-.031z" transform="translate(-513.182 302.852)" style="fill:#0bb3f0"/>
            <path data-name="Path 17031" d="M591.3-259.554q.021-.379.036-.75t.02-.72q0-.349-.009-.642-.026-.612-.05-1.075t-.048-.821q-.023-.358-.047-.627t-.05-.493q-.026-.224-.056-.42t-.065-.408l1.332-.439q.094.577.153 1.164t.089 1.123q.03.537.041 1t.011.789v.642c0 .23 0 .468-.009.716s-.011.5-.019.75-.021.5-.039.741l-1.332.207q.023-.358.042-.737z" transform="translate(-522.877 302.892)" style="fill:#0bb3f0"/>
            <path data-name="Path 17032" d="M612.166-256.661a2.1 2.1 0 0 1-.537-.177 1.655 1.655 0 0 1-.437-.312 2.128 2.128 0 0 1-.349-.463 3.923 3.923 0 0 1-1.481.771 7.366 7.366 0 0 1-2.028.25 7.854 7.854 0 0 1-2.492-.334 2.482 2.482 0 0 1-1.405-1.041 1.634 1.634 0 0 1-.2-.526 2.447 2.447 0 0 1-.036-.651 3.526 3.526 0 0 1 .138-.748 4.672 4.672 0 0 1 .33-.817l1.026.595q-.086.168-.164.364a2.447 2.447 0 0 0-.118.392 1.787 1.787 0 0 0-.039.38.686.686 0 0 0 .08.325.892.892 0 0 0 .411.379 2.529 2.529 0 0 0 .668.207 5.981 5.981 0 0 0 .847.084q.461.015.953.015.453 0 .858-.032a6.1 6.1 0 0 0 .748-.1 3.489 3.489 0 0 0 .621-.185 1.841 1.841 0 0 0 .476-.278 1.43 1.43 0 0 0 .3-.323 2.218 2.218 0 0 0 .2-.373 2.923 2.923 0 0 0 .136-.412q.053-.215.105-.435l1.207.306-.177.914a.789.789 0 0 0 .009.366.636.636 0 0 0 .177.291.905.905 0 0 0 .339.194 1.515 1.515 0 0 0 .489.071h.155v1.362h-.155a3.479 3.479 0 0 1-.655-.059zm-4.474-4.535-.811.81-.836-.832.828-.832.819.819.81-.81.836.832-.827.832z" transform="translate(-529.826 300.662)" style="fill:#0bb3f0"/>
            <path data-name="Path 17033" d="M625.755-261h.386q.227 0 .483-.013t.524-.033q.267-.021.511-.064a3.409 3.409 0 0 0 .446-.108 1.142 1.142 0 0 0 .332-.159 6.763 6.763 0 0 1-1.037.03 2.271 2.271 0 0 1-.815-.181 1.188 1.188 0 0 1-.534-.463 1.571 1.571 0 0 1-.2-.825 2.636 2.636 0 0 1 .048-.489 2.615 2.615 0 0 1 .144-.5 2.631 2.631 0 0 1 .239-.461 1.867 1.867 0 0 1 .33-.381 1.543 1.543 0 0 1 .418-.261 1.293 1.293 0 0 1 .5-.1 1.474 1.474 0 0 1 .623.129 1.776 1.776 0 0 1 .509.351 2.415 2.415 0 0 1 .4.515 3.533 3.533 0 0 1 .282.616 4.089 4.089 0 0 1 .168.66 3.987 3.987 0 0 1 .056.646 2.562 2.562 0 0 1-.144.9 1.924 1.924 0 0 1-.4.655 2.136 2.136 0 0 1-.615.446 3.633 3.633 0 0 1-.78.274 6 6 0 0 1-.9.136q-.474.037-.969.037h-.16V-261zm1.746-4.444-.957-.957.957-.957.957.957zm.026 1.811a.371.371 0 0 0-.205.058.752.752 0 0 0-.192.166.986.986 0 0 0-.144.237.671.671 0 0 0-.058.271.29.29 0 0 0 .08.211.552.552 0 0 0 .2.129 1.214 1.214 0 0 0 .282.067 2.837 2.837 0 0 0 .31.021h.287c.087 0 .161-.009.216-.015a3.807 3.807 0 0 0-.1-.392 1.822 1.822 0 0 0-.157-.362 1.011 1.011 0 0 0-.225-.272.492.492 0 0 0-.294-.121z" transform="translate(-542.631 303.697)" style="fill:#0bb3f0"/>
            <path data-name="Path 17034" d="M638.629-258.806a2.544 2.544 0 0 1-.913-.145 1.611 1.611 0 0 1-.612-.4 1.516 1.516 0 0 1-.342-.6 2.564 2.564 0 0 1-.106-.752q0-.207.009-.515t.009-.714v-.89q0-.49-.023-.972-.019-.487-.056-.935a7.266 7.266 0 0 0-.1-.78l1.289-.392q.056.284.093.67t.058.808q.021.422.032.849t.015.793q0 .323-.011.679t-.023.681q-.009.326.006.588a1.136 1.136 0 0 0 .08.4.388.388 0 0 0 .1.151.394.394 0 0 0 .136.078.635.635 0 0 0 .171.03h.317v1.362z" transform="translate(-548.85 302.863)" style="fill:#0bb3f0"/>
            <path data-name="Path 17035" d="M641.365-256.553h1.035c.123 0 .26-.006.409-.019a2.017 2.017 0 0 0 .421-.08.852.852 0 0 0 .327-.179.4.4 0 0 0 .132-.312 1.172 1.172 0 0 0-.062-.308q-.063-.2-.164-.457t-.228-.528q-.128-.276-.252-.526l1.233-.612c.08.181.16.374.239.578s.15.411.213.621a5.936 5.936 0 0 1 .153.627 3.243 3.243 0 0 1 .058.6 1.923 1.923 0 0 1-.2.907 1.678 1.678 0 0 1-.532.608 2.242 2.242 0 0 1-.789.341 4.269 4.269 0 0 1-.97.106h-1.026zm1.681 2.625-.81.81-.837-.832.828-.832.819.819.81-.81.836.832-.828.832z" transform="translate(-551.637 299.248)" style="fill:#0bb3f0"/>
            <path data-name="Path 17036" d="M653.069-256.134c.067.211.129.427.185.649s.1.441.141.661a3.765 3.765 0 0 1 .056.619 2.87 2.87 0 0 1-.11.791 3.581 3.581 0 0 1-.31.748 4.539 4.539 0 0 1-.476.694 5.63 5.63 0 0 1-.612.627 6.483 6.483 0 0 1-.72.548 7.491 7.491 0 0 1-.793.455l-.784-1.091q.31-.155.627-.351a7.165 7.165 0 0 0 .608-.42 6.125 6.125 0 0 0 .543-.47 4.081 4.081 0 0 0 .44-.5 2.474 2.474 0 0 0 .3-.515 1.33 1.33 0 0 0 .108-.511 1.726 1.726 0 0 0-.05-.392 4.439 4.439 0 0 0-.136-.455c-.058-.162-.124-.335-.2-.517s-.159-.377-.248-.584l1.246-.569q.083.266.185.583z" transform="translate(-556.368 297.616)" style="fill:#0bb3f0"/>
            <path data-name="Path 17037" d="M660.188-258.339q.243.116.5.213a4.392 4.392 0 0 0 .5.157 1.754 1.754 0 0 0 .418.06c.066 0 .157-.006.273-.017a1.908 1.908 0 0 0 .345-.067.978.978 0 0 0 .3-.14.3.3 0 0 0 .136-.237.823.823 0 0 0-.1-.379 2.688 2.688 0 0 0-.285-.442 4.819 4.819 0 0 0-.414-.465q-.235-.235-.484-.453t-.5-.405q-.25-.188-.462-.321l.763-1.134a9.414 9.414 0 0 1 .83.657 7.839 7.839 0 0 1 .759.77 5.892 5.892 0 0 1 .6.838 3.334 3.334 0 0 1 .369.873 1.5 1.5 0 0 1 .048.252 2.414 2.414 0 0 1 .013.244 1.724 1.724 0 0 1-.155.735 1.734 1.734 0 0 1-.433.578 1.972 1.972 0 0 1-.666.377 2.6 2.6 0 0 1-.853.134h-.138a3.105 3.105 0 0 1-.61-.063 4.866 4.866 0 0 1-.617-.166 5.369 5.369 0 0 1-.591-.241 5.941 5.941 0 0 1-.532-.289l.565-1.3a3.861 3.861 0 0 0 .421.231z" transform="translate(-561.828 300.616)" style="fill:#0bb3f0"/>
        </g>
        <path data-name="Path 17038" d="M515.357-201.5a.854.854 0 0 1-.362-.081.857.857 0 0 1-.414-1.139l3-6.429a.857.857 0 0 1 1.139-.414.858.858 0 0 1 .414 1.14l-3 6.429a.858.858 0 0 1-.777.494z" transform="translate(-479.143 270.719)" style="fill:#0bb3f0"/>
        <path data-name="Path 17039" d="M461.358-201.5a.856.856 0 0 1-.643-.29.858.858 0 0 1 .076-1.21l7.286-6.429a.857.857 0 0 1 1.21.076.858.858 0 0 1-.076 1.21l-7.286 6.429a.854.854 0 0 1-.567.214z" transform="translate(-448.286 270.718)" style="fill:#0bb3f0"/>
        <path data-name="Path 17040" d="M622.357-201.5a.857.857 0 0 1-.777-.495l-3-6.429a.858.858 0 0 1 .414-1.14.858.858 0 0 1 1.14.414l3 6.429a.858.858 0 0 1-.414 1.139.854.854 0 0 1-.363.082z" transform="translate(-538.571 270.719)" style="fill:#0bb3f0"/>
        <path data-name="Path 17041" d="M670.643-201.5a.854.854 0 0 1-.567-.214l-7.286-6.429a.858.858 0 0 1-.076-1.21.857.857 0 0 1 1.21-.076L671.21-203a.858.858 0 0 1 .076 1.21.856.856 0 0 1-.643.29z" transform="translate(-563.715 270.718)" style="fill:#0bb3f0"/>
        <path data-name="Path 17042" d="M518.357-318.5a.857.857 0 0 1-.777-.495l-3-6.429a.858.858 0 0 1 .414-1.14.858.858 0 0 1 1.14.414l3 6.429a.858.858 0 0 1-.414 1.139.854.854 0 0 1-.363.082z" transform="translate(-479.143 337.576)" style="fill:#0bb3f0"/>
        <path data-name="Path 17043" d="M468.643-318.5a.854.854 0 0 1-.567-.214l-7.286-6.429a.858.858 0 0 1-.076-1.21.857.857 0 0 1 1.21-.076L469.21-320a.858.858 0 0 1 .076 1.21.856.856 0 0 1-.643.29z" transform="translate(-448.286 337.575)" style="fill:#0bb3f0"/>
        <path data-name="Path 17044" d="M619.357-318.5a.854.854 0 0 1-.362-.081.857.857 0 0 1-.414-1.139l3-6.429a.857.857 0 0 1 1.139-.414.858.858 0 0 1 .414 1.14l-3 6.429a.858.858 0 0 1-.777.494z" transform="translate(-538.571 337.576)" style="fill:#0bb3f0"/>
        <path data-name="Path 17045" d="M663.358-318.5a.856.856 0 0 1-.643-.29.858.858 0 0 1 .076-1.21l7.286-6.429a.857.857 0 0 1 1.21.076.858.858 0 0 1-.076 1.21l-7.286 6.429a.854.854 0 0 1-.567.214z" transform="translate(-563.715 337.576)" style="fill:#0bb3f0"/>
    </g>
</svg>
