<svg xmlns="http://www.w3.org/2000/svg" width="163.131" height="156.499" viewBox="0 0 163.131 156.499">
    <g data-name="Group 10065">
        <path data-name="Path 16963" d="m504.55 446.679-32.663 16.331L461 528.335l29.682 23.006L526.325 561l43.55-32.662-10.888-65.328z" transform="translate(-429.691 -430.348)" style="fill:#b2b3b5"/>
        <path data-name="Path 16964" d="M613.662 477.566 581 466.679V570.11l28.688-11.989 14.862-20.673z" transform="translate(-484.367 -439.46)" style="fill:#a5a7a9"/>
        <path data-name="Path 16965" d="m504.539 416.679-43.55 32.662v65.325l14.931-20.725L504.539 482l38.575 11.122 26.75 21.541v-65.322z" transform="translate(-429.687 -416.679)" style="fill:#e5e6e6"/>
        <path data-name="Path 16966" d="m504.539 482-28.852 11.432-14.7 21.231v-65.322l43.55-32.662z" transform="translate(-429.687 -416.679)" style="fill:#f2f2f3"/>
        <path data-name="Path 16967" d="m478.34 536.679-31.3 2.1-43.55 32.662 31.3-2.1z" transform="translate(-403.487 -471.354)" style="fill:#a5a7a9"/>
        <path data-name="Path 16968" d="m581 629.341 20.8 24.6 43.55-32.662-20.8-24.6z" transform="translate(-484.367 -498.692)" style="fill:#cccdce"/>
        <path data-name="Path 16969" d="m509.846 629.341-19.688 25.85-65.325-32.662 19.682-25.85z" transform="translate(-413.213 -498.692)" style="fill:#bfc0c2"/>
        <path data-name="Path 16970" d="m629.268 568.342-22.954.544-65.324-32.662 22.948-.544z" transform="translate(-466.137 -470.899)" style="fill:#bfc0c2"/>
    </g>
</svg>
