<svg xmlns="http://www.w3.org/2000/svg" xmlns:xlink="http://www.w3.org/1999/xlink" width="75.585" height="89.944" viewBox="0 0 75.585 89.944"><defs><clipPath id="a"><rect width="75.585" height="89.944" fill="#cacccf"/></clipPath></defs><g transform="translate(-325.911 -415.084)"><g transform="translate(325.911 415.084)" clip-path="url(#a)"><path d="M331.4,437.852a5.487,5.487,0,0,0-5.49,5.485V466.4a5.49,5.49,0,0,0,10.979,0V443.337a5.486,5.486,0,0,0-5.489-5.485" transform="translate(-325.911 -408.652)" fill="#cacccf"/><path d="M387.267,443.337a5.49,5.49,0,0,0-10.981,0V466.4a5.49,5.49,0,0,0,10.981,0V443.337Z" transform="translate(-311.681 -408.652)" fill="#cacccf"/><path d="M336.279,438.6h-.269v36.194a5.505,5.505,0,0,0,5.489,5.49h4.625v12.612h0a5.49,5.49,0,1,0,10.979,0V480.283H364.6v12.612a5.491,5.491,0,0,0,10.982,0V480.283H380.2a5.508,5.508,0,0,0,5.492-5.49V438.6H336.279Z" transform="translate(-323.059 -408.441)" fill="#cacccf"/><path d="M349.539,429.866a2.334,2.334,0,1,1-2.333,2.335,2.338,2.338,0,0,1,2.333-2.335m22.605,0a2.334,2.334,0,1,1-2.333,2.335,2.337,2.337,0,0,1,2.333-2.335m13.494,13.452v-2.645a19.368,19.368,0,0,0-.337-2.217,22.422,22.422,0,0,0-12.014-15.062l3.792-6.993a.893.893,0,0,0-1.57-.85l-3.837,7.082a27.655,27.655,0,0,0-21.643.032l-3.855-7.114a.891.891,0,0,0-1.567.85l3.808,7.031a22.57,22.57,0,0,0-11.76,14.24,19.779,19.779,0,0,0-.609,4.9c0,.25.006.5.014.752Z" transform="translate(-323.049 -415.084)" fill="#cacccf"/></g></g></svg>