<svg xmlns="http://www.w3.org/2000/svg" xmlns:xlink="http://www.w3.org/1999/xlink" width="70.001" height="83.299" viewBox="0 0 70.001 83.299"><defs><clipPath id="a"><rect width="70.001" height="83.3" fill="#cacccf"/></clipPath></defs><g transform="translate(-425.007 -415.084)"><g transform="translate(425.007 415.084)" clip-path="url(#a)"><path d="M494.458,472.693a16.957,16.957,0,0,1-10.82-16.254,16.247,16.247,0,0,1,8.555-14.558l.584-.321-.419-.521c-4.113-5.113-10.015-8.165-15.784-8.165A24.8,24.8,0,0,0,467.3,434.8a16.765,16.765,0,0,1-6.012,1.407,20.364,20.364,0,0,1-6.742-1.519,24.989,24.989,0,0,0-8.589-1.811c-6.549,0-13.153,3.908-17.238,10.2a26.155,26.155,0,0,0-3.7,13.722c-.182,8.889,2.847,18.752,8.306,27.065,3.627,5.5,8.152,11.133,14.211,11.184h.141a13.509,13.509,0,0,0,5.915-1.507,17.326,17.326,0,0,1,7.781-1.821h.17a16.2,16.2,0,0,1,7.578,1.8,13.039,13.039,0,0,0,5.938,1.52h0c5.934-.045,10.646-6,14.47-11.826a57.653,57.653,0,0,0,5.234-9.764l.246-.544Z" transform="translate(-425.007 -411.744)" fill="#cacccf"/><path d="M453.632,436.192l.437.014a1.294,1.294,0,0,0,.391,0,17.316,17.316,0,0,0,12.977-6.708c3.361-4.269,4.892-9.34,4.2-13.916l-.077-.5-.5.034a20.544,20.544,0,0,0-13.2,7.022c-3.5,4.22-5.117,9.308-4.313,13.613Z" transform="translate(-419.686 -415.084)" fill="#cacccf"/></g></g></svg>