<svg xmlns="http://www.w3.org/2000/svg" width="36" height="36" viewBox="0 0 36 36">
    <defs>
        <clipPath id="yambszf7qa">
            <path data-name="Rectangle 1340" style="fill:#cacccf" d="M0 0h26.653v31.717H0z"/>
        </clipPath>
    </defs>
    <path data-name="Path 1968" d="M0 0h36v36H0z" style="fill:none" transform="rotate(180 18 18)"/>
    <g data-name="Group 8776">
        <g data-name="Group 4183" style="clip-path:url(#yambszf7qa)" transform="translate(4.673 2.142)">
            <path data-name="Path 9073" d="M26.444 15.161a6.456 6.456 0 0 1-4.12-6.189 6.186 6.186 0 0 1 3.258-5.543l.222-.122-.16-.2A7.928 7.928 0 0 0 19.634 0 9.44 9.44 0 0 0 16.1.732a6.385 6.385 0 0 1-2.289.536A7.753 7.753 0 0 1 11.247.69 9.516 9.516 0 0 0 7.976 0a8.1 8.1 0 0 0-6.563 3.883A9.959 9.959 0 0 0 0 9.108a18.673 18.673 0 0 0 3.166 10.305c1.381 2.094 3.1 4.239 5.411 4.258h.053a5.144 5.144 0 0 0 2.252-.574 6.6 6.6 0 0 1 2.963-.693h.065a6.167 6.167 0 0 1 2.885.686 4.965 4.965 0 0 0 2.261.579c2.259-.017 4.054-2.285 5.51-4.5a21.954 21.954 0 0 0 1.993-3.718l.094-.207z" transform="translate(0 8.045)" style="fill:#cacccf"/>
            <path data-name="Path 9074" d="m.108 8.037.166.005a.49.49 0 0 0 .149 0A6.593 6.593 0 0 0 5.365 5.49a7.029 7.029 0 0 0 1.6-5.3L6.935 0l-.189.013a7.822 7.822 0 0 0-5.027 2.674A6.534 6.534 0 0 0 .077 7.87z" transform="translate(12.817)" style="fill:#cacccf"/>
        </g>
    </g>
</svg>
