<svg xmlns="http://www.w3.org/2000/svg" width="132" height="48" viewBox="0 0 132 48">
    <defs>
        <linearGradient id="ox0j45szla" x1=".5" y1=".022" x2=".5" y2=".983" gradientUnits="objectBoundingBox">
            <stop offset="0" stop-color="#8dd024"/>
            <stop offset="1" stop-color="#2c9c53"/>
        </linearGradient>
    </defs>
    <g data-name="Group 4344">
        <path data-name="Path 9135" d="M6 0h120a6 6 0 0 1 6 6v36a6 6 0 0 1-6 6H6a6 6 0 0 1-6-6V6a6 6 0 0 1 6-6z" style="fill:#050506"/>
        <path data-name="Path 9133" d="M126 430.944a5.062 5.062 0 0 1 5.056 5.056v36a5.062 5.062 0 0 1-5.056 5.056H6A5.062 5.062 0 0 1 .944 472v-36A5.062 5.062 0 0 1 6 430.944h120m0-.944H6a6 6 0 0 0-6 6v36a6 6 0 0 0 6 6h120a6 6 0 0 0 6-6v-36a6 6 0 0 0-6-6z" transform="translate(0 -430)" style="fill:#969494"/>
    </g>
    <path data-name="Path 9134" d="M40.707 472.132c-1.231 0-2.351.023-3.368.063l.168-.39c.129-.3.252-.605.372-.9a16.2 16.2 0 0 1 .873-1.923 5.569 5.569 0 0 1 .517-.768 1.67 1.67 0 0 1 2.88 0 5.631 5.631 0 0 1 .517.769 16.14 16.14 0 0 1 .873 1.922c.119.293.242.6.372.9l.167.39a84.04 84.04 0 0 0-3.371-.063zm13.041 1.908a7.784 7.784 0 0 0-2.712-1.047 21.383 21.383 0 0 0-1.567-.306 36.198 36.198 0 0 0-2.614-.318l-.139-.012c-.2-.48-.413-.97-.636-1.485a36.981 36.981 0 0 1-.394-.956 12.01 12.01 0 0 0-1.7-3.185 4.006 4.006 0 0 0-6.552 0 12.025 12.025 0 0 0-1.7 3.182l-.044.109c-.119.3-.232.574-.351.85a205.23 205.23 0 0 0-.635 1.485l-.139.012c-1 .089-1.871.2-2.619.318-.592.1-1.109.2-1.562.306a7.781 7.781 0 0 0-2.713 1.047h-.006a.491.491 0 0 0-.2.462l.131.978c.2 1.464.413 3.183.763 4.954a27.444 27.444 0 0 0 1.084 4.017c.187.514.394 1.021.625 1.514a11.872 11.872 0 0 0 21.35-.164c.179-.393.344-.794.5-1.2a40.482 40.482 0 0 0 1.838-8.651l.191-1.45a.489.489 0 0 0-.199-.46z" transform="translate(-19.224 -454.521)" style="fill:url(#ox0j45szla)"/>
    <path d="M278.592 512.292a1.352 1.352 0 0 1-.472 1.095 2.18 2.18 0 0 1-1.43.4h-.658l.192 1.067.849.014a2.485 2.485 0 0 0 1.087-.205 2.365 2.365 0 0 0 .822-.6 2.776 2.776 0 0 0 .521-.9 3.338 3.338 0 0 0 .185-1.122v-3.066h-1.1v3.326" transform="translate(-193.222 -485.276)" style="fill:#fff"/>
    <path d="M284.642 499.932a.775.775 0 0 0-.575.233.76.76 0 0 0-.233.561.784.784 0 0 0 .233.568.766.766 0 0 0 .575.239.757.757 0 0 0 .562-.239.793.793 0 0 0 .233-.568.794.794 0 0 0-.794-.794" transform="translate(-198.684 -478.952)" style="fill:#fff"/>
    <path d="M293.69 504.269h1V497.6h-1v6.666" transform="translate(-205.583 -477.322)" style="fill:#fff"/>
    <path d="M318.34 502.9a.679.679 0 0 0 .671-.671.678.678 0 0 0-.2-.493.635.635 0 0 0-.472-.205.671.671 0 0 0-.5.205.687.687 0 0 0-.2.493.648.648 0 0 0 .2.472.682.682 0 0 0 .5.2" transform="translate(-222.349 -480.07)" style="fill:#fff"/>
    <path d="M324.531 502.9a.662.662 0 0 0 .486-.2.642.642 0 0 0 .2-.472.68.68 0 0 0-.2-.493.677.677 0 0 0-.971 0 .684.684 0 0 0-.2.493.645.645 0 0 0 .2.472.659.659 0 0 0 .485.2" transform="translate(-226.692 -480.07)" style="fill:#fff"/>
    <path d="M347.834 497.288a.754.754 0 0 0 .561-.24.787.787 0 0 0 .232-.568.8.8 0 0 0-.794-.795.784.784 0 0 0-.575.234.763.763 0 0 0-.232.561.787.787 0 0 0 .232.568.774.774 0 0 0 .575.24" transform="translate(-242.919 -475.98)" style="fill:#fff"/>
    <path d="M321.346 505.111a1.458 1.458 0 0 1-.445-.1.361.361 0 0 1-.226-.376.664.664 0 0 1 .78-.712.8.8 0 0 1 .418.109 1.094 1.094 0 0 1 .315.281 1.336 1.336 0 0 1 .205.4 1.412 1.412 0 0 1 .075.444zm1.637-1.567a1.869 1.869 0 0 0-.6-.5 1.7 1.7 0 0 0-.821-.192 1.9 1.9 0 0 0-.718.13 1.651 1.651 0 0 0-.555.363 1.669 1.669 0 0 0-.363.548 1.764 1.764 0 0 0-.13.684 1.885 1.885 0 0 0 .315 1.123 1.225 1.225 0 0 0 1.013.464l1.341.041a.719.719 0 0 1-.13.472c-.1.133-.307.2-.636.2h-2.957a1.266 1.266 0 0 1-.609-.151.592.592 0 0 1-.28-.575v-1.464h-1.068v1.41a1.1 1.1 0 0 1-.123.588c-.083.128-.264.192-.548.192h-4.955a.854.854 0 0 1-.594-.17.805.805 0 0 1-.186-.609v-1.41h-1.04v1.573a1.872 1.872 0 0 0 .37 1.247 1.385 1.385 0 0 0 1.121.437h5.5a1.386 1.386 0 0 0 1-.383 1.5 1.5 0 0 0 .65.308 3.719 3.719 0 0 0 .759.075h3.121a1.4 1.4 0 0 0 .711-.171 1.454 1.454 0 0 0 .5-.466 2.116 2.116 0 0 0 .294-.677 3.352 3.352 0 0 0 .1-.808v-.779a2.633 2.633 0 0 0-.124-.8 2.224 2.224 0 0 0-.362-.7" transform="translate(-216.539 -480.996)" style="fill:#fff"/>
    <path d="M367.513 523.565a.662.662 0 0 0-.487.2.65.65 0 0 0-.2.471.691.691 0 0 0 .2.493.68.68 0 0 0 .973 0 .691.691 0 0 0 .2-.493.65.65 0 0 0-.2-.471.662.662 0 0 0-.487-.2" transform="translate(-256.78 -495.495)" style="fill:#fff"/>
    <path d="M366.144 502.422a2.15 2.15 0 0 1-.021.307.509.509 0 0 1-.1.247.57.57 0 0 1-.239.164 1.186 1.186 0 0 1-.418.061h-1.628a.987.987 0 0 1-.582-.151c-.142-.1-.213-.324-.213-.671V497.6H361.9v4.955a1.649 1.649 0 0 0 .466 1.307 1.85 1.85 0 0 0 1.26.4h2.053a1.411 1.411 0 0 0 1.158-.459 1.874 1.874 0 0 0 .377-1.226v-1.573h-1.068v1.41" transform="translate(-253.33 -477.322)" style="fill:#fff"/>
    <path d="M373.367 523.565a.674.674 0 0 0-.5.2.639.639 0 0 0-.2.471.679.679 0 0 0 .2.493.66.66 0 0 0 .5.205.636.636 0 0 0 .473-.205.687.687 0 0 0 .2-.493.678.678 0 0 0-.671-.67" transform="translate(-260.868 -495.495)" style="fill:#fff"/>
    <path d="M382.317 512.292a1.353 1.353 0 0 1-.473 1.095 2.179 2.179 0 0 1-1.43.4h-.26l.178 1.067.466.014a2.682 2.682 0 0 0 1.087-.212 2.292 2.292 0 0 0 .822-.6 2.765 2.765 0 0 0 .52-.9 3.338 3.338 0 0 0 .185-1.122v-3.066h-1.095v3.326" transform="translate(-266.108 -485.276)" style="fill:#fff"/>
    <path d="M400.373 506.147a1.87 1.87 0 0 0-.389-.589l-2.327-2.478-.7.712 2.34 2.477a.586.586 0 0 1 .18.4.355.355 0 0 1-.125.266.514.514 0 0 1-.37.117h-3.407l.136 1.054h3.245a1.545 1.545 0 0 0 1.155-.4 1.3 1.3 0 0 0 .391-.944 1.59 1.59 0 0 0-.13-.615" transform="translate(-276.904 -481.157)" style="fill:#fff"/>
    <path d="M182.44 488.279a2.063 2.063 0 0 1-2.063-2.063V475.9a2.063 2.063 0 1 1 4.127 0v10.317a2.063 2.063 0 0 1-2.063 2.063" transform="translate(-126.264 -460.684)" style="fill:#fff"/>
    <path d="M146.332 499.973h-5.158a2.063 2.063 0 1 1 0-4.127h4.126v-6.19a2.064 2.064 0 0 1 4.127 0v7.221a3.1 3.1 0 0 1-3.1 3.1" transform="translate(-97.377 -470.315)" style="fill:#fff"/>
    <path d="M187.589 513.729h-5.149a2.063 2.063 0 1 1 0-4.126h4.127v-6.19a2.063 2.063 0 0 1 4.126 0v7.213a3.108 3.108 0 0 1-3.1 3.1" transform="translate(-126.264 -479.944)" style="fill:#fff"/>
    <path d="M229.9 495.158h-5.132a3.126 3.126 0 0 1-3.121-3.123v-9.257a2.063 2.063 0 1 1 4.126 0v8.253h4.127a2.063 2.063 0 0 1 0 4.127" transform="translate(-155.152 -465.5)" style="fill:#fff"/>
    <path d="M205.139 482.778a2.064 2.064 0 1 1-2.064-2.063 2.063 2.063 0 0 1 2.064 2.063" transform="translate(-140.708 -465.5)" style="fill-rule:evenodd;fill:#fff"/>
    <path d="M225.772 537.8a2.063 2.063 0 1 1-2.063-2.062 2.063 2.063 0 0 1 2.063 2.063" transform="translate(-155.152 -504.017)" style="fill-rule:evenodd;fill:#fff"/>
</svg>
