<svg id="Layer_1" data-name="Layer 1" xmlns="http://www.w3.org/2000/svg" xmlns:xlink="http://www.w3.org/1999/xlink" viewBox="0 0 320 80"><defs><style>.cls-1{fill:#1a1a1a;}.cls-2{fill:#fff;}.cls-3{opacity:0.84;isolation:isolate;}.cls-4{fill:#f5ac37;}.cls-5{fill:#fefefd;}.cls-6,.cls-8,.cls-9{fill:none;stroke:#f0b90b;stroke-miterlimit:10;}.cls-6{stroke-width:1.00603px;}.cls-7{fill:#f0b90b;}.cls-8{stroke-width:2.68153px;opacity:0.1;}.cls-9{stroke-width:3.0123px;opacity:0.05;}</style></defs><rect class="cls-1" width="320" height="80"/><path class="cls-2" d="M285.8,19.7c.1.4.3.8.4,1.3.1.4.2.9.3,1.3a4.86817,4.86817,0,0,1,.1,1.2,8.7516,8.7516,0,0,1-.2,1.6,9.38389,9.38389,0,0,1-.6,1.5c-.3.5-.6.9-.9,1.4a13.57113,13.57113,0,0,1-1.2,1.2,7.55092,7.55092,0,0,1-1.4,1.1c-.5.3-1,.6-1.6.9L279.2,29a7.45954,7.45954,0,0,0,1.2-.7c.4-.3.8-.5,1.2-.8s.7-.6,1.1-.9a9.016,9.016,0,0,0,.9-1c.2-.3.4-.7.6-1a3.55265,3.55265,0,0,0,.2-1,2.20185,2.20185,0,0,0-.1-.8l-.3-.9a4.18038,4.18038,0,0,0-.4-1c-.2-.4-.3-.7-.5-1.2l2.5-1.1A6.53082,6.53082,0,0,0,285.8,19.7ZM284,16.8l-1.9-1.9L284,13l1.9,1.9Z"/><path class="cls-2" d="M292.3,19.7c.1.4.3.8.4,1.3.1.4.2.9.3,1.3a4.86817,4.86817,0,0,1,.1,1.2,8.7516,8.7516,0,0,1-.2,1.6,9.38389,9.38389,0,0,1-.6,1.5c-.3.5-.6.9-.9,1.4a13.57113,13.57113,0,0,1-1.2,1.2,7.55092,7.55092,0,0,1-1.4,1.1c-.5.3-1,.6-1.6.9L285.7,29a7.45954,7.45954,0,0,0,1.2-.7c.4-.3.8-.5,1.2-.8s.7-.6,1.1-.9a9.016,9.016,0,0,0,.9-1c.2-.3.4-.7.6-1a3.55265,3.55265,0,0,0,.2-1,2.20185,2.20185,0,0,0-.1-.8l-.3-.9a4.18038,4.18038,0,0,0-.4-1c-.2-.4-.3-.7-.5-1.2l2.5-1.1C292,18.9,292.2,19.2,292.3,19.7Z"/><path class="cls-2" d="M294.7,23.3c0-.5.1-1,.1-1.5V19.1c0-.8-.1-1.5-.1-2.1s-.1-1.1-.1-1.6-.1-.9-.1-1.2c0-.4-.1-.7-.1-1s-.1-.6-.1-.8c0-.3-.1-.5-.1-.8l2.6-.9c.1.8.2,1.5.3,2.3s.1,1.5.2,2.2c0,.7.1,1.4.1,2V23a7.56868,7.56868,0,0,1-.1,1.5l-2.6.4A8.53581,8.53581,0,0,1,294.7,23.3Z"/><path class="cls-2" d="M23.3,24.4a1.43266,1.43266,0,0,1,.5-1.1,1.825,1.825,0,0,1,2.4,0,1.46,1.46,0,0,1,0,2.2,1.825,1.825,0,0,1-2.4,0A1.60584,1.60584,0,0,1,23.3,24.4Z"/><path class="cls-2" d="M32.5,26.4a5.70019,5.70019,0,0,1-2.2-.4,6.606,6.606,0,0,1-2-1.4l1.5-2.2a5.54689,5.54689,0,0,0,.8.6c.2.1.5.3.7.4a6.37292,6.37292,0,0,0,.7.2c.2,0,.4.1.6.1h.5a4.33105,4.33105,0,0,0,.5-.1c.2,0,.3-.1.5-.2.1-.1.3-.1.4-.3a11.111,11.111,0,0,0-.7-1.6c-.3-.6-.5-1.1-.8-1.7s-.5-1.1-.8-1.7c-.2-.6-.5-1.1-.7-1.6l2.5-1,2.8,6.8c.1.2.2.5.3.7s.2.3.3.5c.1.1.3.2.4.3a1.26834,1.26834,0,0,0,.6.1h.2v2.7h-.2a2.76856,2.76856,0,0,1-.9-.1,1.854,1.854,0,0,1-.7-.2l-.6-.3a1.75561,1.75561,0,0,1-.5-.4,2.01,2.01,0,0,1-.8.4c-.3.1-.5.2-.8.3s-.6.1-.9.2C33.1,26.4,32.8,26.4,32.5,26.4Z"/><path class="cls-2" d="M38.7,23.7a1.80278,1.80278,0,0,0,1.8-1.2,5.02339,5.02339,0,0,0,.5-1.3c.1-.5.3-1,.4-1.5l2.3.4a2.54388,2.54388,0,0,1-.2.7c-.1.3-.1.5-.2.8a2.48518,2.48518,0,0,0-.1.8v.7c0,.2.1.3.2.5.1.1.2.2.4.1a1.42132,1.42132,0,0,0,.6-.2c.2-.2.4-.3.5-.5a2.50649,2.50649,0,0,0,.4-.7l.3-.9c.1-.3.1-.6.2-.9a2.48518,2.48518,0,0,0,.1-.8l2.2.4a1.26834,1.26834,0,0,1-.1.6c0,.2-.1.5-.1.8v.8a1.70194,1.70194,0,0,0,.1.7,2.18589,2.18589,0,0,0,.3.5,1.42132,1.42132,0,0,0,.6.2.90151.90151,0,0,0,.5-.1c.2-.1.3-.1.4-.2a1.38046,1.38046,0,0,0,.3-.4.74936.74936,0,0,0,.1-.5c0-.3-.1-.7-.1-1a4.87453,4.87453,0,0,0-.4-1.1c-.1-.3-.3-.7-.4-1a5.93779,5.93779,0,0,0-.4-.8L51,17.4l.2.4a4.87524,4.87524,0,0,1,.3.7l.3.9c.1.3.2.7.3,1a4.25284,4.25284,0,0,1,.2,1.1,4.10235,4.10235,0,0,1,.1,1.1,7.71837,7.71837,0,0,1-.2,1.5,3.74551,3.74551,0,0,1-.7,1.2,2.39985,2.39985,0,0,1-1.2.7,4.67118,4.67118,0,0,1-1.7.3,1.94945,1.94945,0,0,1-.8-.1c-.2-.1-.5-.1-.7-.2a.99837.99837,0,0,1-.5-.4.99837.99837,0,0,1-.4-.5c-.1.2-.3.3-.4.5-.2.1-.3.3-.5.4a1.44531,1.44531,0,0,1-.7.2,2.76856,2.76856,0,0,1-.9.1,2.20185,2.20185,0,0,1-.8-.1c-.2-.1-.4-.1-.6-.2a.99837.99837,0,0,1-.5-.4.99837.99837,0,0,1-.4-.5c-.1.2-.3.3-.4.4-.2.1-.3.2-.5.3a1.854,1.854,0,0,1-.7.2,3.08281,3.08281,0,0,1-1,.1h-.3V23.4Zm7.8-8-1.6,1.6-1.7-1.6,1.6-1.6,1.7,1.6L48.1,14l1.6,1.6-1.6,1.6ZM48,13.2l-1.5,1.5L45,13.2l1.5-1.5Z"/><path class="cls-2" d="M63.3,25.2a8.75243,8.75243,0,0,1-1.6-.2,5.02339,5.02339,0,0,1-1.3-.5,2.50932,2.50932,0,0,1-1.2-2.2,3.59492,3.59492,0,0,1,.2-1.1,2.66422,2.66422,0,0,1,.6-1,3.04351,3.04351,0,0,1,.8-.8c.3-.2.6-.5.9-.7a4.05336,4.05336,0,0,1,.9-.5c.2-.1.5-.2.7-.3V16.5l2.7-.6c.1,1.1.2,2,.3,2.9s.2,1.6.3,2.3a10.401,10.401,0,0,1,.2,1.5,2.79817,2.79817,0,0,1,.1.6.78076.78076,0,0,0,.4.4,1.70178,1.70178,0,0,0,.7.1h.2v2.7H68a1.94945,1.94945,0,0,1-.8-.1c-.3-.1-.7-.2-1-.3a2.092,2.092,0,0,1-.6-.4c-.2-.2-.4-.3-.5-.5-.3,0-.6.1-.8.1Zm0-2.7h.8v-.3a.60123.60123,0,0,0-.1-.4,1.26834,1.26834,0,0,0-.1-.6c0-.2-.1-.5-.1-.9a2.50649,2.50649,0,0,0-.7.4,3.50818,3.50818,0,0,0-.8.5,2.65132,2.65132,0,0,0-.6.5.7639.7639,0,0,0-.2.5c0,.1.1.1.2.2a.90153.90153,0,0,0,.5.1c.2,0,.4.1.6.1A.74936.74936,0,0,1,63.3,22.5Z"/><path class="cls-2" d="M68.1,23.7h1.8a3.40193,3.40193,0,0,0,1-.1c.4,0,.7-.1,1-.1.3-.1.6-.1.9-.2.2-.1.5-.2.7-.3a14.08386,14.08386,0,0,1-2,.1,2.93438,2.93438,0,0,1-1.6-.4,3.12592,3.12592,0,0,1-1.1-.9,3.16651,3.16651,0,0,1-.4-1.6,4.05816,4.05816,0,0,1,.4-1.9,4.05376,4.05376,0,0,1,.5-.9,5.0084,5.0084,0,0,1,.7-.8,2.17738,2.17738,0,0,1,.8-.5,3.553,3.553,0,0,1,1-.2,2.66262,2.66262,0,0,1,1.2.3,3.59154,3.59154,0,0,1,1,.7,3.91534,3.91534,0,0,1,.8,1l.6,1.2a6.10658,6.10658,0,0,1,.3,1.3,5.2829,5.2829,0,0,1,.1,1.3,5.66253,5.66253,0,0,1-.3,1.8,3.5283,3.5283,0,0,1-.8,1.3,3.44919,3.44919,0,0,1-1.2.9,8.79992,8.79992,0,0,1-1.5.5l-1.8.3c-.6,0-1.3.1-1.9.1H68V23.9Zm3.4-8.8L69.6,13l1.9-1.9L73.4,13Zm.1,3.6a.60123.60123,0,0,0-.4.1c-.1.1-.3.2-.4.3a2.18623,2.18623,0,0,0-.3.5,1.0873,1.0873,0,0,0-.1.5.51954.51954,0,0,0,.2.4c.1.1.3.2.4.3a1.26834,1.26834,0,0,0,.6.1h1.6c-.1-.3-.1-.5-.2-.8-.1-.2-.2-.5-.3-.7a2.18134,2.18134,0,0,0-.4-.5A2.54374,2.54374,0,0,0,71.6,18.5Z"/><path class="cls-2" d="M81.2,26.4a5.66264,5.66264,0,0,1-1.8-.3,2.54978,2.54978,0,0,1-1.2-.8,3.45773,3.45773,0,0,1-.7-1.2,7.71914,7.71914,0,0,1-.2-1.5V16.5c0-.6-.1-1.3-.1-1.8a7.71912,7.71912,0,0,0-.2-1.5l2.5-.8c.1.4.1.8.2,1.3,0,.5.1,1,.1,1.6a9.702,9.702,0,0,0,.1,1.7v5.4a2.3535,2.3535,0,0,0,.2.8.82146.82146,0,0,0,.5.5c.1,0,.2.1.3.1h.6v2.7Z"/><path class="cls-2" d="M81.3,23.7a1.70178,1.70178,0,0,0,.7-.1c.2,0,.3-.1.5-.1.1,0,.2-.1.3-.2l.2-.2h0a.75812.75812,0,0,0,.2-.4l.3-.6c.1-.3.2-.6.3-1s.2-.9.4-1.5l2.2.7c-.1.2-.1.4-.2.6a1.26846,1.26846,0,0,0-.1.6v.6c0,.2.1.4.1.6.2-.4.5-.8.7-1.2a10.47469,10.47469,0,0,1,.8-1.1,9.42907,9.42907,0,0,1,1-1,5.02487,5.02487,0,0,1,1.2-.8,5.78249,5.78249,0,0,1,1.4-.5,8.75243,8.75243,0,0,1,1.6-.2,5.23008,5.23008,0,0,1,1.8.3,3.80533,3.80533,0,0,1,1.3.9,5.66973,5.66973,0,0,1,.8,1.3,3.887,3.887,0,0,1,.2,1.5,4.19259,4.19259,0,0,1-.4,1.6,2.93982,2.93982,0,0,1-1,1.2,10.14433,10.14433,0,0,1-1.3.9c-.5.2-1,.4-1.6.6-.6.1-1.1.2-1.7.3a8.602,8.602,0,0,1-1.6.1,6.62171,6.62171,0,0,1-1.5-.1,5.01937,5.01937,0,0,1-1.2-.2,4.87471,4.87471,0,0,1-1.1-.4,3.59169,3.59169,0,0,1-1-.7,4.19454,4.19454,0,0,1-1.4.9,6.44772,6.44772,0,0,1-2,.3H81V23.7ZM93,20.6a4.102,4.102,0,0,0-1.1.1,4.17917,4.17917,0,0,0-1,.4l-.9.6a5.0084,5.0084,0,0,0-.8.7c-.2.2-.4.5-.6.7a1.61176,1.61176,0,0,0-.4.7h2.6c.4,0,.7-.1,1.1-.1.4-.1.7-.1,1.1-.2a3.55192,3.55192,0,0,0,.9-.4,1.79363,1.79363,0,0,0,.7-.5,2.50649,2.50649,0,0,0,.4-.7,1.14927,1.14927,0,0,0-.6-.9A2.29587,2.29587,0,0,0,93,20.6Zm0-3.8L91.1,15,93,13.1,94.9,15Z"/><path class="cls-2" d="M98.9,25c0-.5.1-1,.1-1.5V20.8c0-.8-.1-1.5-.1-2.1s-.1-1.1-.1-1.6-.1-.9-.1-1.2c0-.4-.1-.7-.1-1s-.1-.6-.1-.8c0-.3-.1-.5-.1-.8l2.6-.9c.1.8.2,1.5.3,2.3s.1,1.5.2,2.2c0,.7.1,1.4.1,2v5.8a7.56868,7.56868,0,0,1-.1,1.5l-2.6.4A4.29476,4.29476,0,0,1,98.9,25Z"/><path class="cls-2" d="M110.7,24.8a4.14488,4.14488,0,0,0-.2,1.6,2.01584,2.01584,0,0,0,.3,1.1,3.11388,3.11388,0,0,0,.7.9,2.07492,2.07492,0,0,0,1,.6,2.53668,2.53668,0,0,0,1.2.2,2.20185,2.20185,0,0,0,.8-.1c.3-.1.6-.1.8-.3.3-.1.5-.3.8-.4a4.34882,4.34882,0,0,0,.7-.6,3.50818,3.50818,0,0,0,.5-.8,3.59492,3.59492,0,0,0,.2-1.1V24.3c0-.6-.1-1.3-.1-1.9,0-.7-.1-1.4-.1-2.1-.1-.7-.1-1.4-.2-2.1-.1-.8-.1-1.7-.2-2.5s-.1-1.7-.2-2.6l2.7-.6c0,1,.1,1.9.1,2.8s.1,1.8.1,2.7c0,.7.1,1.5.1,2.3a15.483,15.483,0,0,0,.1,2.2c0,.2.1.3.1.5a1.76771,1.76771,0,0,0,.7.7,1.08728,1.08728,0,0,0,.5.1h.2v2.7h-.8c-.2,0-.4-.1-.6-.1a5.82226,5.82226,0,0,1-.3,1.9,10.09321,10.09321,0,0,1-.7,1.5,5.73051,5.73051,0,0,1-1.1,1.1,5.38769,5.38769,0,0,1-1.3.7,6.4681,6.4681,0,0,1-1.3.4,5.702,5.702,0,0,1-1.3.1,6.75254,6.75254,0,0,1-1.4-.2,5.02339,5.02339,0,0,1-1.3-.5,8.341,8.341,0,0,1-1.2-.8,3.12592,3.12592,0,0,1-.9-1.1,3.78994,3.78994,0,0,1-.6-1.3,7.71914,7.71914,0,0,1-.2-1.5,4.102,4.102,0,0,1,.1-1.1,4.25282,4.25282,0,0,1,.2-1.1c.1-.4.2-.7.3-1.1.1-.3.3-.7.4-1l2.1,1A3.08168,3.08168,0,0,0,110.7,24.8Z"/><path class="cls-2" d="M120.9,23.7h2.8a1.88394,1.88394,0,0,0,.8-.2c.2-.1.5-.2.6-.4a.86437.86437,0,0,0,.3-.6c0-.2-.1-.4-.1-.6L125,21a4.67155,4.67155,0,0,0-.5-1,9.29371,9.29371,0,0,0-.5-1l2.4-1.2c.2.4.3.7.5,1.1a5.63765,5.63765,0,0,1,.4,1.2l.3,1.2a4.86864,4.86864,0,0,1,.1,1.2,3.92221,3.92221,0,0,1-.4,1.8,2.93982,2.93982,0,0,1-1,1.2,7.74064,7.74064,0,0,1-1.6.7,12.25233,12.25233,0,0,1-1.9.2h-2V23.7Zm3.3,5.2-1.6,1.6L121,28.9l1.6-1.6,1.6,1.6,1.6-1.7,1.7,1.6-1.6,1.6Z"/><path class="cls-2" d="M132.7,26.4a5.70019,5.70019,0,0,1-2.2-.4,6.60617,6.60617,0,0,1-2-1.4l1.5-2.2a5.54689,5.54689,0,0,0,.8.6c.2.1.5.3.7.4a6.37227,6.37227,0,0,0,.7.2c.2,0,.4.1.6.1h.5a4.33105,4.33105,0,0,0,.5-.1c.2,0,.3-.1.5-.2.1-.1.3-.1.4-.3a11.111,11.111,0,0,0-.7-1.6c-.3-.6-.5-1.1-.8-1.7s-.5-1.1-.8-1.7c-.2-.6-.5-1.1-.7-1.6l2.5-1,2.8,6.8c.1.2.2.5.3.7s.2.3.3.5c.1.1.3.2.4.3a1.26834,1.26834,0,0,0,.6.1h.2v2.7h-.2a2.7685,2.7685,0,0,1-.9-.1,1.8539,1.8539,0,0,1-.7-.2l-.6-.3a1.75561,1.75561,0,0,1-.5-.4,2.01,2.01,0,0,1-.8.4c-.3.1-.5.2-.8.3s-.6.1-.9.2C133.4,26.4,133.1,26.4,132.7,26.4Z"/><path class="cls-2" d="M145.1,23.7v2.7h-.2a6.75244,6.75244,0,0,1-1.4-.2,3.32835,3.32835,0,0,1-1-.6,6.10946,6.10946,0,0,1-1.4.7,13.5523,13.5523,0,0,1-2,.2h-.3V23.8h.3a3.92218,3.92218,0,0,0,1.8-.4,1.25467,1.25467,0,0,0,.6-1.1,1.70162,1.70162,0,0,0-.1-.7l-.3-1.2,2.4-.6a3.09124,3.09124,0,0,1,.2.8,1.70162,1.70162,0,0,1,.1.7,4.33105,4.33105,0,0,0,.1.5v.5a.90143.90143,0,0,0,.1.5c0,.2.1.3.1.5.1.1.2.3.3.4a.43974.43974,0,0,0,.5.1Zm-3.3,7.4-1.9-1.9,1.9-1.9,1.9,1.9Z"/><path class="cls-2" d="M144.7,23.7h2.8a1.88385,1.88385,0,0,0,.8-.2c.2-.1.5-.2.6-.4a.86433.86433,0,0,0,.3-.6c0-.2-.1-.4-.1-.6l-.3-.9a4.67108,4.67108,0,0,0-.5-1,9.29,9.29,0,0,0-.5-1l2.4-1.2c.2.4.3.7.5,1.1a5.63761,5.63761,0,0,1,.4,1.2l.3,1.2a4.86817,4.86817,0,0,1,.1,1.2,3.92245,3.92245,0,0,1-.4,1.8,2.54455,2.54455,0,0,1-1.1,1.2,4.59438,4.59438,0,0,1-1.6.7,12.25233,12.25233,0,0,1-1.9.2h-2Zm4-8.8-1.6,1.6-1.7-1.6,1.6-1.6,1.7,1.6,1.6-1.7,1.7,1.6-1.6,1.6Z"/><path class="cls-2" d="M162.6,25.2A8.75253,8.75253,0,0,1,161,25a5.02353,5.02353,0,0,1-1.3-.5,2.5093,2.5093,0,0,1-1.2-2.2,3.59522,3.59522,0,0,1,.2-1.1,2.66422,2.66422,0,0,1,.6-1,3.04339,3.04339,0,0,1,.8-.8c.3-.2.6-.5.9-.7a4.05375,4.05375,0,0,1,.9-.5c.2-.1.5-.2.7-.3V16.5l2.7-.6c.1,1.1.2,2,.3,2.9s.2,1.6.3,2.3a10.39838,10.39838,0,0,1,.2,1.5c0,.2.1.4.1.6a.78074.78074,0,0,0,.4.4,1.70178,1.70178,0,0,0,.7.1h.2v2.7h-.2a1.94948,1.94948,0,0,1-.8-.1c-.3-.1-.7-.2-1-.3a2.09225,2.09225,0,0,1-.6-.4c-.2-.2-.4-.3-.5-.5-.3,0-.6.1-.8.1Zm0-2.7h.8v-.3a.60123.60123,0,0,0-.1-.4,1.26823,1.26823,0,0,0-.1-.6c0-.2-.1-.5-.1-.9a2.50649,2.50649,0,0,0-.7.4,3.50818,3.50818,0,0,0-.8.5,2.65157,2.65157,0,0,0-.6.5.7638.7638,0,0,0-.2.5c0,.1.1.1.2.2a.90151.90151,0,0,0,.5.1c.2,0,.4.1.6.1a.74945.74945,0,0,1,.5-.1Z"/><path class="cls-2" d="M167.1,23.7h1.1a2.2019,2.2019,0,0,0,.8-.1,2.3535,2.3535,0,0,0,.8-.2,2.09211,2.09211,0,0,0,.6-.4.60467.60467,0,0,0,.3-.6c0-.2-.1-.4-.1-.6l-.3-.9c-.1-.3-.3-.7-.4-1a9.29,9.29,0,0,0-.5-1l2.4-1.2c.2.4.3.7.5,1.1a5.637,5.637,0,0,1,.4,1.2l.3,1.2a4.86864,4.86864,0,0,1,.1,1.2,5.66253,5.66253,0,0,1-.3,1.8,2.33518,2.33518,0,0,1-1,1.2,3.47943,3.47943,0,0,1-1.5.7,5.84494,5.84494,0,0,1-1.9.2H167Zm2.8,7.4L168,29.2l1.9-1.9,1.9,1.9Z"/><image class="cls-3" width="56" height="42" transform="translate(224.3369 0.3369)" xlink:href="D12351C.png"/><path class="cls-4" d="M239.8,23.5a9.07919,9.07919,0,0,1,.3-2.3,7.83665,7.83665,0,0,1,.9-2.1,12.73431,12.73431,0,0,1,1.3-1.9,6.54914,6.54914,0,0,1,1.8-1.5,6.809,6.809,0,0,1,2.1-1,9.25559,9.25559,0,0,1,2.3-.4h.9a1.88385,1.88385,0,0,1,.8.2l.9.3a4.67131,4.67131,0,0,1,1,.5l-1.6,4.3a7.36592,7.36592,0,0,0-1.4-.4,6.14959,6.14959,0,0,0-1.4.1,5.02353,5.02353,0,0,0-1.3.5,8.34207,8.34207,0,0,0-1.2.8,3.126,3.126,0,0,0-.9,1.1,3.37962,3.37962,0,0,0-.6,1.2,5.63784,5.63784,0,0,0,1.2.4c.5.1,1,.3,1.6.4l1.8.6a5.07145,5.07145,0,0,1,1.6.9,3.8693,3.8693,0,0,1,1.7,3.1,7.41823,7.41823,0,0,1-.5,2.5,6.40528,6.40528,0,0,1-1.3,1.9,8.467,8.467,0,0,1-1.9,1.4,9.1721,9.1721,0,0,1-2.3.9,18.42388,18.42388,0,0,1-2.5.5,19.4189,19.4189,0,0,1-2.4.2,13.36413,13.36413,0,0,1-4-.6,8.27411,8.27411,0,0,1-3.2-1.7,7.89519,7.89519,0,0,1-2.1-2.7,9.86152,9.86152,0,0,1-.8-3.7,20.07321,20.07321,0,0,1,.5-4.2,34.46532,34.46532,0,0,1,1.4-4.2l4,1.7a7.74064,7.74064,0,0,1-.7,1.6c-.2.5-.4,1.1-.6,1.6a9.36272,9.36272,0,0,0-.4,1.6,8.60118,8.60118,0,0,0-.1,1.6,4.13615,4.13615,0,0,0,.5,1.9,3.74472,3.74472,0,0,0,1.3,1.2,6.03314,6.03314,0,0,0,1.9.6,14.91881,14.91881,0,0,0,2.1.2,21.19217,21.19217,0,0,0,4.4-.4,5.72718,5.72718,0,0,0,2.8-1.4c-.8-.2-1.5-.3-2.2-.5s-1.3-.3-1.9-.5c-.5-.2-1.1-.4-1.6-.6a4.70067,4.70067,0,0,1-1.2-.9,2.92462,2.92462,0,0,1-.7-1.2A4.52867,4.52867,0,0,1,239.8,23.5Z"/><path class="cls-4" d="M253.8,26.7c0-.5.1-1.1.1-1.7s.1-1.2.1-1.8.1-1.2.1-1.8V19.8c0-1.5,0-2.9-.1-4.1-.1-1.3-.2-2.4-.2-3.4q-.15-1.5-.3-2.7c-.1-.8-.2-1.4-.3-1.9l4.7-1.6c.2,1.2.3,2.4.4,3.5s.2,2.2.3,3.3c.1,1,.1,2,.1,2.8v6a14.76871,14.76871,0,0,1-.1,2.1c0,.7-.1,1.4-.1,2.1Z"/><path class="cls-4" d="M261.9,20.4a21.0167,21.0167,0,0,0,2.6,1.3,8.64824,8.64824,0,0,0,2.3.6h.9a2.20179,2.20179,0,0,0,.8-.1,1.4214,1.4214,0,0,0,.6-.2q.3-.15.3-.3a.972.972,0,0,0-.1-.9,4.44053,4.44053,0,0,0-.8-1.1c-.4-.4-.8-.9-1.2-1.3-.5-.4-1-.9-1.5-1.3l-1.5-1.2c-.5-.4-.9-.7-1.3-1l2.7-4.1c.6.5,1.2,1,1.9,1.5a12.87823,12.87823,0,0,1,1.7,1.6,12.1651,12.1651,0,0,1,1.5,1.7,9.39287,9.39287,0,0,1,1.2,1.8,11.9177,11.9177,0,0,1,.8,2,7.61212,7.61212,0,0,1,.3,2.1,5.86717,5.86717,0,0,1-.4,2.3,5.67448,5.67448,0,0,1-1.2,1.8,6.65694,6.65694,0,0,1-2,1.2,7.45666,7.45666,0,0,1-2.6.4h-.4a11.01854,11.01854,0,0,1-1.8-.2,8.44694,8.44694,0,0,1-1.7-.5,12.19844,12.19844,0,0,1-1.7-.7c-.6-.3-1.1-.6-1.6-.9Z"/><path class="cls-2" d="M180.3,25.5a12.66964,12.66964,0,0,1-.5-4.3,20.23585,20.23585,0,0,1,.5-4.3,8.62682,8.62682,0,0,1,1.6-3.5h2.5a13.685,13.685,0,0,0-1.5,3.8,16.272,16.272,0,0,0,0,8.2,17.6772,17.6772,0,0,0,1.5,3.8h-2.5A10.95283,10.95283,0,0,1,180.3,25.5Z"/><path class="cls-4" d="M185.9,14h5.4a7.973,7.973,0,0,1,3.4.7,6.58934,6.58934,0,0,1,2.3,2.1,5.53287,5.53287,0,0,1,.8,3.1A6.49543,6.49543,0,0,1,197,23a5.82743,5.82743,0,0,1-2.3,2.1,6.7219,6.7219,0,0,1-3.4.7h-5.4Zm5.2,9.6a3.74311,3.74311,0,0,0,2.8-1,3.86369,3.86369,0,0,0,1.1-2.7,3.47751,3.47751,0,0,0-1.1-2.7,4.19173,4.19173,0,0,0-2.8-1h-2.5v7.3h2.5Z"/><path class="cls-4" d="M207.4,23.3h-5.5l-1,2.5h-2.8L203.4,14h2.7l5.3,11.8h-2.9Zm-.9-2.1-1.9-4.5-1.9,4.5Z"/><path class="cls-4" d="M212.5,14h2.7V25.8h-2.7Z"/><path class="cls-2" d="M216.8,29.1a18.03184,18.03184,0,0,0,1.6-3.8,16.272,16.272,0,0,0,0-8.2,13.98129,13.98129,0,0,0-1.6-3.8h2.5a12.25175,12.25175,0,0,1,1.6,3.5,12.95968,12.95968,0,0,1,.5,4.4,20.23585,20.23585,0,0,1-.5,4.3,10.19236,10.19236,0,0,1-1.6,3.5Z"/><g id="Layer_1-2" data-name="Layer 1-2"><path class="cls-4" d="M43,32.7a21,21,0,1,1-21,21,20.99741,20.99741,0,0,1,21-21Z"/><path class="cls-5" d="M43.7,55.2h8c.2,0,.3,0,.3-.2a9.6375,9.6375,0,0,0,0-2.4c0-.2-.1-.2-.2-.2H35.9c-.2,0-.2.1-.2.2v2.3c0,.3,0,.3.3.3Zm7.4-5.6v-.2a2.17738,2.17738,0,0,0-.5-.8,5.801,5.801,0,0,0-1-1.2l-.6-.6a8.56982,8.56982,0,0,0-3.9-2,8.20391,8.20391,0,0,0-2.2-.2H35.8c-.2,0-.2.1-.2.2v4.7c0,.2,0,.2.2.2H51a.09794.09794,0,0,0,.1-.1Zm0,8.4H35.9c-.2,0-.3,0-.3.3v4.6c0,.2,0,.3.3.3h6.7a3.75133,3.75133,0,0,0,1-.1,14.96139,14.96139,0,0,0,2.9-.6c.3-.1.7-.3,1-.4h.1a8.279,8.279,0,0,0,3.7-3.7c-.2-.2-.1-.4-.2-.4ZM33,65.4V58.1c0-.2,0-.2-.2-.2H29.9c-.2,0-.2,0-.2-.2V55.2h3c.2,0,.2,0,.2-.2V52.5c0-.2,0-.2-.2-.2H29.8c-.2,0-.2,0-.2-.2V49.8c0-.1,0-.2.2-.2h2.8c.2,0,.2,0,.2-.2V42.3c0-.2,0-.3.3-.3H43a14.919,14.919,0,0,1,2.1.2,15.57168,15.57168,0,0,1,4.1,1.5,13.01485,13.01485,0,0,1,2.3,1.8,11.51111,11.51111,0,0,1,1.4,1.7,7.49549,7.49549,0,0,1,1,2c0,.2.2.3.4.3h2.4c.3,0,.3,0,.3.3V52a.26517.26517,0,0,1-.3.3H55c-.2,0-.2,0-.2.2a9.6375,9.6375,0,0,1,0,2.4c0,.2,0,.2.3.2h2.1c.1.1,0,.2,0,.4v2.1a.26517.26517,0,0,1-.3.3H54.4a.51954.51954,0,0,0-.4.2,10.04741,10.04741,0,0,1-2.8,4,7.55132,7.55132,0,0,1-1.4,1.1c-.5.3-1,.6-1.6.9a16.04046,16.04046,0,0,1-3.1,1,10.57173,10.57173,0,0,1-3.1.2l-9,.1Z"/></g><g id="Layer_1-3" data-name="Layer 1-3"><path class="cls-4" d="M282.8,34.8a21,21,0,1,1-21,21,20.99741,20.99741,0,0,1,21-21Z"/><path class="cls-5" d="M283.6,57.3h8c.2,0,.3,0,.3-.2a9.63654,9.63654,0,0,0,0-2.4c0-.2-.1-.2-.2-.2H275.8c-.2,0-.2.1-.2.2V57c0,.3,0,.3.3.3Zm7.4-5.6v-.2a2.17738,2.17738,0,0,0-.5-.8,5.801,5.801,0,0,0-1-1.2l-.6-.6a8.56984,8.56984,0,0,0-3.9-2,8.204,8.204,0,0,0-2.2-.2h-7.1c-.2,0-.2.1-.2.2v4.7c0,.2,0,.2.2.2h15.2a.098.098,0,0,0,.1-.1Zm0,8.3H275.7c-.2,0-.3,0-.3.3v4.6c0,.2,0,.3.3.3h6.7a3.75169,3.75169,0,0,0,1-.1,14.96213,14.96213,0,0,0,2.9-.6c.3-.1.7-.3,1-.4h.1a8.27913,8.27913,0,0,0,3.7-3.7c-.1-.1,0-.3-.1-.4Zm-18.2,7.5V60.2c0-.2,0-.2-.2-.2h-2.9c-.2,0-.2,0-.2-.2V57.3h3c.2,0,.2,0,.2-.2V54.6c0-.2,0-.2-.2-.2h-2.9c-.2,0-.2,0-.2-.2V51.9c0-.1,0-.2.2-.2h2.8c.2,0,.2,0,.2-.2V44.4c0-.2,0-.3.3-.3h9.9a14.919,14.919,0,0,1,2.1.2,15.572,15.572,0,0,1,4.1,1.5,13.01442,13.01442,0,0,1,2.3,1.8,11.51042,11.51042,0,0,1,1.4,1.7,7.49578,7.49578,0,0,1,1,2c0,.2.2.3.4.3h2.4c.3,0,.3,0,.3.3v2.2a.26517.26517,0,0,1-.3.3h-1.8c-.2,0-.2,0-.2.2a9.63654,9.63654,0,0,1,0,2.4c0,.2,0,.2.3.2h2.1c.1.1,0,.2,0,.4v2.1a.26516.26516,0,0,1-.3.3h-2.5a.51952.51952,0,0,0-.4.2,10.04748,10.04748,0,0,1-2.8,4,7.55092,7.55092,0,0,1-1.4,1.1c-.5.3-1,.6-1.6.9a16.04046,16.04046,0,0,1-3.1,1,10.57178,10.57178,0,0,1-3.1.2l-8.9.1Z"/></g><rect class="cls-6" x="118.88761" y="40.57918" width="81.9507" height="27.81938" rx="5.29365"/><path class="cls-7" d="M134.36768,61.27246a5.963,5.963,0,0,1-1.78174-.25,3.78,3.78,0,0,1-1.37451-.749,3.35819,3.35819,0,0,1-.8877-1.24024,4.38031,4.38031,0,0,1-.31592-1.72754,6.18024,6.18024,0,0,1,.29883-1.88378,7.57832,7.57832,0,0,1,.88477-1.83887l1.28076.92285a3.22981,3.22981,0,0,0-.26758.46094,6.40945,6.40945,0,0,0-.2959.70019,6.59525,6.59525,0,0,0-.23877.833,3.95314,3.95314,0,0,0-.09717.85156,1.71456,1.71456,0,0,0,.21387.85352,2.12322,2.12322,0,0,0,.56885.6543,2.74585,2.74585,0,0,0,.81982.42675,3.29106,3.29106,0,0,0,.96436.165,3.73815,3.73815,0,0,0,1.16113-.15625,3.22331,3.22331,0,0,0,.97608-.47265,2.30312,2.30312,0,0,0,.65771-.72266,1.63876,1.63876,0,0,0,.21631-.90723,2.74054,2.74054,0,0,0-.09131-.55273c-.05322-.20508-.1167-.41406-.19043-.62891q-.11133-.32079-.24463-.63769-.134-.31494-.25049-.57715c-.07812-.17481-.1455-.32422-.20214-.4502-.05713-.125-.09327-.21-.1084-.25586l1.54834-.85937a1.35947,1.35947,0,0,1,.11377.22168q.09081.19921.21337.51562.12232.31494.26172.71973.1399.4043.25342.83691.11353.43213.19092.85938a4.49144,4.49144,0,0,1,.07666.78516,4.54712,4.54712,0,0,1-.11377,1.00781,4.06244,4.06244,0,0,1-.3501.959,3.92607,3.92607,0,0,1-.59179.84766,3.652,3.652,0,0,1-.83985.67773,4.2505,4.2505,0,0,1-1.09814.44922A5.31887,5.31887,0,0,1,134.36768,61.27246Zm.03955-6.84668L133.144,53.16211l1.26319-1.26367,1.26367,1.26367Z"/><path class="cls-7" d="M142.94482,57.35156a3.34991,3.34991,0,0,1-1.20654-.1914,2.117,2.117,0,0,1-.8081-.52637,2.00426,2.00426,0,0,1-.45264-.79395,3.39549,3.39549,0,0,1-.13916-.99316q0-.27246.01123-.67969.01171-.40722.01123-.94238,0-.53467-.00537-1.17481-.00587-.64012-.03125-1.28418-.02563-.64306-.07422-1.23437a9.42055,9.42055,0,0,0-.13379-1.03027l1.70166-.51856q.074.37647.12256.88477.04834.50976.07666,1.06836.02856.55664.043,1.12109c.00928.375.01611.72461.02,1.04688q.00513.42627-.01465.89648t-.03125.89941q-.011.42921.00879.77637a1.4976,1.4976,0,0,0,.105.5293.46795.46795,0,0,0,.30762.30176.80908.80908,0,0,0,.22461.04c.08154.0039.17187.00585.2705.00585h.15381v1.79883Z"/><path class="cls-7" d="M142.99072,55.55273a1.13208,1.13208,0,0,0,.72022-.23046,1.95758,1.95758,0,0,0,.50049-.60645,4.36476,4.36476,0,0,0,.353-.85644q.145-.48048.27588-.98145l1.51416.27246c-.03027.13379-.06738.28809-.11084.46387q-.06591.26514-.11963.5498c-.03613.18946-.06543.375-.08838.55469a2.19445,2.19445,0,0,0-.01416.47559.641.641,0,0,0,.10547.32128.24685.24685,0,0,0,.26172.0879.75291.75291,0,0,0,.4126-.15918,1.50483,1.50483,0,0,0,.333-.36426,2.7763,2.7763,0,0,0,.26172-.501,5.19412,5.19412,0,0,0,.19629-.57422q.08276-.29589.13671-.58691c.03614-.19336.06543-.36914.08838-.5293l1.44532.24512a4.20885,4.20885,0,0,1-.03956.4209q-.03441.25048-.0625.52636a5.37412,5.37412,0,0,0-.0288.55274,1.79677,1.79677,0,0,0,.063.49512.76411.76411,0,0,0,.20752.35547.57148.57148,0,0,0,.40674.13671,1.03713,1.03713,0,0,0,.32471-.05371,1.004,1.004,0,0,0,.2959-.15429.83344.83344,0,0,0,.21338-.23633.57955.57955,0,0,0,.08252-.30664,2.50761,2.50761,0,0,0-.09668-.65235,6.4615,6.4615,0,0,0-.23633-.70507c-.09278-.2334-.18848-.45508-.28711-.66309-.09912-.209-.18213-.38574-.25049-.5293l1.41162-.792.11914.2627q.08569.18163.19385.44336.10767.2622.22461.58886.11646.32813.21338.68067c.06445.23535.11767.47558.15967.72265a4.32149,4.32149,0,0,1,.0625.7168,3.12985,3.12985,0,0,1-.15674,1.02441,2.00869,2.00869,0,0,1-.47217.77442,2.13931,2.13931,0,0,1-.7915.49511,3.26319,3.26319,0,0,1-1.11231.18262,2.39609,2.39609,0,0,1-.5581-.06054,1.99709,1.99709,0,0,1-.45215-.16211,1.56042,1.56042,0,0,1-.356-.24415,2.0521,2.0521,0,0,1-.273-.30761,2.35835,2.35835,0,0,1-.29346.31543,1.57214,1.57214,0,0,1-.35839.23926,2.05529,2.05529,0,0,1-.45264.15722,2.87364,2.87364,0,0,1-.56885.0625,2.01976,2.01976,0,0,1-.50391-.04883,1.672,1.672,0,0,1-.41259-.15625,1.57212,1.57212,0,0,1-.33887-.248,2.60084,2.60084,0,0,1-.28174-.32129,1.99652,1.99652,0,0,1-.27295.27637,1.646,1.646,0,0,1-.36426.2246,2.16729,2.16729,0,0,1-.48974.1504,3.42445,3.42445,0,0,1-.64844.05468H142.877V55.55273Z"/><path class="cls-7" d="M152.644,48.30664a1.729,1.729,0,0,1,.19922-.5459,2.02507,2.02507,0,0,1,.353-.46094,1.669,1.669,0,0,1,.45264-.3164,1.18963,1.18963,0,0,1,.50927-.11621,1.64009,1.64009,0,0,1,.4751.0625,3.408,3.408,0,0,1,.39014.14258,2.03714,2.03714,0,0,0,.42968.13378.70929.70929,0,0,0,.34131-.0205.848.848,0,0,0,.30176-.18164,2.58385,2.58385,0,0,0,.31006-.34766l.77979.501a.64923.64923,0,0,1-.0625.09668,2.41643,2.41643,0,0,1-.15674.19336,2.81519,2.81519,0,0,1-.2417.24218,2.37146,2.37146,0,0,1-.31885.23926,1.92645,1.92645,0,0,1-.38135.18457,1.35618,1.35618,0,0,1-.43261.08008,1.30727,1.30727,0,0,1-.41553-.05176c-.125-.03711-.24658-.0791-.36426-.125-.11768-.04492-.23779-.08594-.36133-.12207a1.29586,1.29586,0,0,0-.40137-.04883.34987.34987,0,0,0-.23876.09375.64481.64481,0,0,0-.14258.208,1.26123,1.26123,0,0,0-.07666.24512,1.83151,1.83151,0,0,1-.04834.19336Zm1.55957,8.09375c.019-.333.03516-.66406.04834-.99023s.022-.64258.02588-.9502c.00342-.30762,0-.58984-.01172-.84766q-.03369-.854-.06836-1.49414-.03369-.64013-.06543-1.127c-.0205-.32519-.04248-.60742-.06543-.84863-.02246-.24024-.04736-.46192-.07373-.66309l1.75293-.55761q.07984.64891.12793,1.2832c.03223.42383.05811.82519.07715,1.207.01856.38086.03125.73633.03662,1.06445q.00879.4922.00879.85645c0,.26172-.001.54492-.00293.84765q-.00293.45558-.01123.94532-.00879.48926-.02588.99023-.01684.501-.05127.97852l-1.75879.27343C154.16553,57.05762,154.18457,56.73438,154.20361,56.40039Z"/><path class="cls-7" d="M166.35742,57.35156a3.90073,3.90073,0,0,1-1.46-.28515,3.78746,3.78746,0,0,1-1.32324-.916l1.03027-1.45117a3.63083,3.63083,0,0,0,.541.418,2.87337,2.87337,0,0,0,.501.25293,2.28,2.28,0,0,0,.45215.126,2.59009,2.59009,0,0,0,.40137.03418,2.87476,2.87476,0,0,0,.33008-.0205,2.39535,2.39535,0,0,0,.34961-.06543,2.184,2.184,0,0,0,.32715-.11329,1.01976,1.01976,0,0,0,.26757-.17089q-.21532-.52441-.46972-1.08985-.25342-.56689-.50879-1.13867-.25635-.57129-.50684-1.13574-.25048-.5625-.46679-1.08106l1.66211-.69433,1.87792,4.53613q.10254.25048.18848.43848a1.13545,1.13545,0,0,0,.20215.3125.70211.70211,0,0,0,.27832.18554,1.22926,1.22926,0,0,0,.41895.05957h.165v1.79883h-.165a3.649,3.649,0,0,1-.61231-.0459,2.38549,2.38549,0,0,1-.47266-.12793,1.68845,1.68845,0,0,1-.37011-.19921,2.5475,2.5475,0,0,1-.30371-.25879,3.98018,3.98018,0,0,1-.52442.29882,3.23879,3.23879,0,0,1-.5459.19629,4.05821,4.05821,0,0,1-.59472.10547Q166.71583,57.35108,166.35742,57.35156Z"/><path class="cls-7" d="M170.3877,55.55273h1.36523c.16309,0,.34375-.00878.541-.02539a2.71081,2.71081,0,0,0,.55468-.10546,1.12109,1.12109,0,0,0,.43262-.23633.52783.52783,0,0,0,.17383-.41211,1.5455,1.5455,0,0,0-.082-.40723q-.0835-.271-.2168-.60351t-.30176-.69727q-.167-.36474-.333-.69434l1.62793-.80859c.10645.23926.21192.49414.31641.7627.10352.26953.19824.543.28125.82031a7.56993,7.56993,0,0,1,.20215.82812,4.3374,4.3374,0,0,1,.07715.78809,2.556,2.556,0,0,1-.25879,1.19824,2.22347,2.22347,0,0,1-.70313.80176,2.9748,2.9748,0,0,1-1.042.45019,5.63438,5.63438,0,0,1-1.28027.13965H170.3877Zm2.21972,3.46582-1.07031,1.07032-1.10449-1.09864,1.09277-1.09863,1.082,1.082,1.06934-1.07031,1.10449,1.09863-1.09277,1.09864Z"/><path class="cls-7" d="M181.25293,57.35156c-.084,0-.19336-.00586-.33008-.01758a1.56885,1.56885,0,0,1-.4668-.125,4.431,4.431,0,0,1-.46972,1.34082,6.01878,6.01878,0,0,1-.85059,1.18946,7.54828,7.54828,0,0,1-1.15527,1.02148,10.50214,10.50214,0,0,1-1.38379.83692l-1.041-1.44043q.40284-.20508.81348-.44727.41016-.24169.78223-.51172a7.95322,7.95322,0,0,0,.69433-.56347,4.47521,4.47521,0,0,0,.56055-.60645,2.84505,2.84505,0,0,0,.376-.63965,1.6978,1.6978,0,0,0,.13672-.66308,2.42492,2.42492,0,0,0-.085-.56348c-.05664-.22852-.1289-.47266-.21679-.73438q-.13038-.39256-.29-.791c-.10645-.26563-.208-.50879-.30762-.72852l1.64551-.71777a11.55023,11.55023,0,0,0,.43555,1.13867,4.43606,4.43606,0,0,0,.40136.72852,1.38539,1.38539,0,0,0,.37207.38379.67333.67333,0,0,0,.35645.11132h.13574v1.79883Z"/><path class="cls-7" d="M181.13867,55.55273h1.20117a11.887,11.887,0,0,0,1.69336-.11132,11.13,11.13,0,0,0,1.44336-.29883,11.35214,11.35214,0,0,0,1.27149-.43555q.60058-.24756,1.18164-.51465a7.04342,7.04342,0,0,1-.77735-.26758q-.38964-.15966-.77929-.30761-.39113-.148-.77735-.25293a2.91441,2.91441,0,0,0-.76855-.10547,1.04044,1.04044,0,0,0-.51465.14258,2.58474,2.58474,0,0,0-.458.32422,2.85606,2.85606,0,0,0-.34179.35546,2.33765,2.33765,0,0,0-.1709.23633l-1.31446-.84765a5.42558,5.42558,0,0,1,.51172-.7461,4.20063,4.20063,0,0,1,.65235-.64551,3.19594,3.19594,0,0,1,.76757-.45312,2.2589,2.2589,0,0,1,.86817-.16992,3.27189,3.27189,0,0,1,.67187.07031,5.83542,5.83542,0,0,1,.66895.18555q.33252.11425.65723.25879c.21582.09668.43066.19433.64257.293.20118.09472.4043.18945.60938.28222s.416.17774.63183.25586a5.01515,5.01515,0,0,0,.67188.19043,3.75062,3.75062,0,0,0,.73437.08008l-.14257,1.74707-.8086.38672q-.49512.24022-.98437.49316-.48925.25343-.9961.48926t-1.04687.44922a10.18641,10.18641,0,0,1-1.13281.37012,11.08383,11.08383,0,0,1-1.252.251,10.06193,10.06193,0,0,1-1.41211.09375h-1.20117Zm3.68262-4.64453-1.26367-1.26367,1.26367-1.26367,1.26367,1.26367Z"/><rect class="cls-8" x="117.12866" y="39.20877" width="85.84794" height="31.38246" rx="8.74873"/><rect class="cls-9" x="114.22821" y="36.3309" width="91.54359" height="37.13819" rx="11.84195"/></svg>