<svg id="Layer_1" data-name="Layer 1" xmlns="http://www.w3.org/2000/svg" xmlns:xlink="http://www.w3.org/1999/xlink" viewBox="0 0 954 100"><defs><style>.cls-1{fill:#1a1a1a;}.cls-2{fill:#fff;}.cls-3{opacity:0.84;isolation:isolate;}.cls-4{fill:#f5ac37;}.cls-5{fill:#fefefd;}.cls-6,.cls-8,.cls-9{fill:none;stroke:#f0b90b;stroke-miterlimit:10;}.cls-6{stroke-width:1.90228px;}.cls-7{fill:#f0b90b;}.cls-8{stroke-width:5.07043px;opacity:0.1;}.cls-9{stroke-width:5.69588px;opacity:0.05;}</style></defs><rect class="cls-1" width="954" height="100"/><path class="cls-2" d="M892.3,44.1a24.54872,24.54872,0,0,1,.8,2.9,15.94336,15.94336,0,0,1,.6,3,24.01271,24.01271,0,0,1,.3,2.8,13.449,13.449,0,0,1-.5,3.5,14.34207,14.34207,0,0,1-1.4,3.4,21.12158,21.12158,0,0,1-2.1,3.1,35.68883,35.68883,0,0,1-2.7,2.8,39.17867,39.17867,0,0,1-3.2,2.5,20.83319,20.83319,0,0,1-3.6,2l-3.5-4.9c.9-.5,1.9-1,2.8-1.6a26.09943,26.09943,0,0,0,2.7-1.9,25.73172,25.73172,0,0,0,2.4-2.1,20.88066,20.88066,0,0,0,2-2.2,10.45993,10.45993,0,0,0,1.3-2.3,5.93215,5.93215,0,0,0,.5-2.3,11.01465,11.01465,0,0,0-.2-1.8c-.2-.7-.4-1.4-.6-2-.3-.7-.6-1.5-.9-2.3-.3-.8-.7-1.7-1.1-2.6l5.6-2.6C891.7,42.2,892,43.1,892.3,44.1Zm-4.2-6.4-4.3-4.3,4.3-4.3,4.3,4.3Z"/><path class="cls-2" d="M907,44.1a24.5468,24.5468,0,0,1,.8,2.9,15.94257,15.94257,0,0,1,.6,3,24.00838,24.00838,0,0,1,.3,2.8,13.449,13.449,0,0,1-.5,3.5,14.34245,14.34245,0,0,1-1.4,3.4,21.12244,21.12244,0,0,1-2.1,3.1,35.68883,35.68883,0,0,1-2.7,2.8,39.18023,39.18023,0,0,1-3.2,2.5,20.83366,20.83366,0,0,1-3.6,2l-3.5-4.9c.9-.5,1.9-1,2.8-1.6a26.09943,26.09943,0,0,0,2.7-1.9,25.7319,25.7319,0,0,0,2.4-2.1,20.88284,20.88284,0,0,0,2-2.2,10.45949,10.45949,0,0,0,1.3-2.3,5.93215,5.93215,0,0,0,.5-2.3,11.01465,11.01465,0,0,0-.2-1.8c-.2-.7-.4-1.4-.6-2-.3-.7-.6-1.5-.9-2.3-.3-.8-.7-1.7-1.1-2.6l5.6-2.6C906.4,42.2,906.7,43.1,907,44.1Z"/><path class="cls-2" d="M912.5,52.4c.1-1.1.1-2.3.2-3.4,0-1.1.1-2.2.1-3.2V42.9c-.1-1.8-.2-3.4-.2-4.8-.1-1.4-.1-2.6-.2-3.7-.1-1.1-.1-2-.2-2.8-.1-.8-.1-1.5-.2-2.2s-.2-1.3-.3-1.9-.2-1.2-.3-1.8l6-2c.3,1.7.5,3.5.7,5.2.2,1.8.3,3.4.4,5,.1,1.6.2,3.1.2,4.5V48c0,1.1,0,2.2-.1,3.4,0,1.1-.1,2.2-.2,3.3l-6,.9A17.38822,17.38822,0,0,1,912.5,52.4Z"/><path class="cls-2" d="M295.3,54.8a3.63116,3.63116,0,0,1,1.1-2.6,4.36571,4.36571,0,0,1,5.5,0,3.6227,3.6227,0,0,1,0,5.2,4.36571,4.36571,0,0,1-5.5,0A3.8102,3.8102,0,0,1,295.3,54.8Z"/><path class="cls-2" d="M316.1,59.4a12.40733,12.40733,0,0,1-5-1,13.93912,13.93912,0,0,1-4.5-3.1l3.5-4.9a21.96969,21.96969,0,0,0,1.8,1.4c.5.3,1.1.6,1.7.9a8.33093,8.33093,0,0,0,1.5.4,6.60256,6.60256,0,0,0,1.4.1,4.10246,4.10246,0,0,0,1.1-.1,5.01978,5.01978,0,0,0,1.2-.2,3.5825,3.5825,0,0,0,1.1-.4,2.36127,2.36127,0,0,0,.9-.6c-.5-1.2-1-2.4-1.6-3.7s-1.2-2.6-1.7-3.9c-.6-1.3-1.2-2.6-1.7-3.9-.6-1.3-1.1-2.5-1.6-3.7l5.6-2.4,6.4,15.4a11.63971,11.63971,0,0,0,.6,1.5,6.72561,6.72561,0,0,0,.7,1.1,2.36132,2.36132,0,0,0,.9.6,6.75254,6.75254,0,0,0,1.4.2h.6v6.1H330a7.48733,7.48733,0,0,1-2.1-.2,9.36276,9.36276,0,0,1-1.6-.4,8.26437,8.26437,0,0,1-1.3-.7,9.016,9.016,0,0,1-1-.9,16.18186,16.18186,0,0,1-1.8,1,10.66286,10.66286,0,0,1-1.9.7,14.15893,14.15893,0,0,1-2,.4A5.3443,5.3443,0,0,1,316.1,59.4Z"/><path class="cls-2" d="M330.2,53.3a3.49167,3.49167,0,0,0,2.4-.8,6.84491,6.84491,0,0,0,1.7-2.1,14.76378,14.76378,0,0,0,1.2-2.9q.45-1.65.9-3.3l5.1.9a12.44158,12.44158,0,0,1-.4,1.6c-.1.6-.3,1.2-.4,1.9-.1.6-.2,1.3-.3,1.9a4.30417,4.30417,0,0,0,0,1.6,1.50391,1.50391,0,0,0,.4,1.1.80646.80646,0,0,0,.9.3,2.38933,2.38933,0,0,0,1.4-.5,6.27943,6.27943,0,0,0,1.1-1.2,5.5588,5.5588,0,0,0,.9-1.7,11.76684,11.76684,0,0,0,.7-2c.2-.7.3-1.3.5-2q.15-1.05.3-1.8l4.9.8c0,.4-.1.9-.1,1.4-.1.6-.1,1.2-.2,1.8a11.483,11.483,0,0,0-.1,1.9,9.85143,9.85143,0,0,0,.2,1.7,2.09778,2.09778,0,0,0,2.1,1.7,4.25282,4.25282,0,0,0,1.1-.2,3.12806,3.12806,0,0,0,1-.5,2.696,2.696,0,0,0,.7-.8,1.92935,1.92935,0,0,0,.3-1,8.33,8.33,0,0,0-.3-2.2,22.50753,22.50753,0,0,0-.8-2.4,22.872,22.872,0,0,0-1-2.3l-.9-1.8,4.8-2.7.4.9c.2.4.4.9.7,1.5.2.6.5,1.3.8,2a15.4592,15.4592,0,0,1,.7,2.3,18.42234,18.42234,0,0,1,.5,2.5,19.417,19.417,0,0,1,.2,2.4,13.44945,13.44945,0,0,1-.5,3.5,6.332,6.332,0,0,1-1.6,2.6,7.70712,7.70712,0,0,1-2.7,1.7,12.08841,12.08841,0,0,1-3.8.6,12.25207,12.25207,0,0,1-1.9-.2,4.71442,4.71442,0,0,1-1.5-.6,8.34333,8.34333,0,0,1-1.2-.8,8.11959,8.11959,0,0,1-.9-1,9.9582,9.9582,0,0,1-1,1.1,8.33994,8.33994,0,0,1-1.2.8,8.79992,8.79992,0,0,1-1.5.5,12.25233,12.25233,0,0,1-1.9.2,4.67828,4.67828,0,0,1-1.7-.2,5.78226,5.78226,0,0,1-1.4-.5,8.3427,8.3427,0,0,1-1.2-.8,10.94753,10.94753,0,0,1-1-1.1,7.6368,7.6368,0,0,1-.9.9,8.33994,8.33994,0,0,1-1.2.8,8.44694,8.44694,0,0,1-1.7.5,16.35241,16.35241,0,0,1-2.2.2h-.7V53.4h.3ZM347.9,35l-3.6,3.6-3.8-3.7,3.7-3.7,3.7,3.7,3.6-3.6,3.8,3.7-3.7,3.7Zm3.5-5.6L348,32.8l-3.5-3.5,3.4-3.4Z"/><path class="cls-2" d="M386.2,56.7a14.72271,14.72271,0,0,1-3.6-.4,8.12532,8.12532,0,0,1-2.9-1.2A5.77764,5.77764,0,0,1,377,50a6.96307,6.96307,0,0,1,.5-2.5,9.79949,9.79949,0,0,1,1.3-2.2,10.70827,10.70827,0,0,1,1.8-1.9,10.09126,10.09126,0,0,1,2.1-1.5,12.81047,12.81047,0,0,1,2-1.1,8.651,8.651,0,0,1,1.7-.7V39a2.48518,2.48518,0,0,0-.1-.8c0-.3-.1-.7-.1-1.1l6-1.3c.3,2.4.5,4.6.8,6.6.2,2,.5,3.7.6,5.2.2,1.4.3,2.6.5,3.4.1.8.2,1.3.2,1.3a1.96229,1.96229,0,0,0,.9.9,2.85085,2.85085,0,0,0,1.6.2h.4v6.1h-.6c-.6,0-1.3-.1-1.9-.1a5.67812,5.67812,0,0,1-2.2-.7,4.1944,4.1944,0,0,1-1.4-.9q-.6-.6-1.2-1.2a13.66432,13.66432,0,0,1-1.9.2A10.86822,10.86822,0,0,0,386.2,56.7Zm-.1-6.1h.8a1.94938,1.94938,0,0,0,.8-.1c0-.2-.1-.5-.1-.7s-.1-.6-.1-1a9.32258,9.32258,0,0,0-.2-1.4c-.1-.5-.1-1.2-.2-1.9a8.93876,8.93876,0,0,0-1.6.9,9.90762,9.90762,0,0,0-1.7,1.1,4.89425,4.89425,0,0,0-1.3,1.2,1.60588,1.60588,0,0,0-.5,1.1c0,.2.1.3.4.4s.7.2,1.1.3a6.15006,6.15006,0,0,0,1.4.1Z"/><path class="cls-2" d="M397.1,53.3h1.7a16.9507,16.9507,0,0,0,2.2-.1c.8,0,1.6-.1,2.4-.1.8-.1,1.6-.2,2.3-.3a14.61972,14.61972,0,0,0,2-.5,10.09221,10.09221,0,0,0,1.5-.7,24.43946,24.43946,0,0,1-4.7.1,9.46464,9.46464,0,0,1-3.7-.8,5.41921,5.41921,0,0,1-2.4-2.1,7.786,7.786,0,0,1-.9-3.7,16.35229,16.35229,0,0,1,.2-2.2,14.132,14.132,0,0,1,.6-2.2,10.5975,10.5975,0,0,1,1.1-2.1,7.965,7.965,0,0,1,1.5-1.7,7.60749,7.60749,0,0,1,1.9-1.2,5.867,5.867,0,0,1,2.3-.4,6.71017,6.71017,0,0,1,2.8.6,8.67692,8.67692,0,0,1,2.3,1.6,13.01432,13.01432,0,0,1,1.8,2.3,23.9399,23.9399,0,0,1,1.3,2.8c.3,1,.6,2,.8,3a28.49174,28.49174,0,0,1,.3,2.9,13.36413,13.36413,0,0,1-.6,4,7.88979,7.88979,0,0,1-1.8,2.9,9.5071,9.5071,0,0,1-2.8,2,14.49019,14.49019,0,0,1-3.5,1.2,27.608,27.608,0,0,1-4,.6c-1.4.1-2.9.2-4.4.2h-.7V53.3Zm7.8-19.9-4.3-4.3,4.3-4.3,4.3,4.3Zm.1,8.1a1.61288,1.61288,0,0,0-.9.3,5.49563,5.49563,0,0,0-.9.7,2.38385,2.38385,0,0,0-.6,1.1,2.66237,2.66237,0,0,0-.3,1.2.9748.9748,0,0,0,.4.9,2.36131,2.36131,0,0,0,.9.6,2.768,2.768,0,0,0,1.3.3,6.602,6.602,0,0,0,1.4.1h1.3a3.08284,3.08284,0,0,0,1-.1,12.09049,12.09049,0,0,0-.5-1.8,7.74068,7.74068,0,0,0-.7-1.6,4.00112,4.00112,0,0,0-1-1.2,2.38911,2.38911,0,0,0-1.4-.5Z"/><path class="cls-2" d="M426.9,59.4a14.02667,14.02667,0,0,1-4.1-.6,7.12426,7.12426,0,0,1-2.7-1.8,7.20048,7.20048,0,0,1-1.5-2.7,12.70053,12.70053,0,0,1-.5-3.4V41.4c0-1.5,0-2.9-.1-4.4s-.1-2.9-.3-4.2a21.08226,21.08226,0,0,0-.5-3.5l5.8-1.8a24.28928,24.28928,0,0,1,.4,3q.15,1.8.3,3.6c.1,1.3.1,2.5.1,3.8s.1,2.5.1,3.6v3c0,1.1-.1,2.1-.1,3.1v2.6a3.92232,3.92232,0,0,0,.4,1.8,1.438,1.438,0,0,0,1,1,1.94945,1.94945,0,0,0,.8.1h1.4v6.1Z"/><path class="cls-2" d="M427.1,53.3a8.602,8.602,0,0,0,1.6-.1c.4-.1.8-.2,1.1-.3a4.349,4.349,0,0,0,.7-.4.9983.9983,0,0,0,.4-.5h0a4.05255,4.05255,0,0,0,.5-.9c.2-.5.4-.9.6-1.4.2-.6.4-1.3.7-2.3.3-.9.5-2,.9-3.4l5.1,1.6c-.1.5-.3,1-.4,1.4a5.852,5.852,0,0,0-.2,1.3v1.3a4.96243,4.96243,0,0,0,.3,1.3c.5-.9,1.1-1.8,1.7-2.7a23.48369,23.48369,0,0,1,1.9-2.5,22.84146,22.84146,0,0,1,2.2-2.2,15.09882,15.09882,0,0,1,2.6-1.8,19.77808,19.77808,0,0,1,3.1-1.2,15.82736,15.82736,0,0,1,3.8-.5,10.44484,10.44484,0,0,1,4.2.8,9.0381,9.0381,0,0,1,3,2.1,8.2958,8.2958,0,0,1,1.8,3,7.6019,7.6019,0,0,1,.5,3.3,9.58236,9.58236,0,0,1-.9,3.7,8.54891,8.54891,0,0,1-2.2,2.8,12.08611,12.08611,0,0,1-3,2,25.99115,25.99115,0,0,1-3.6,1.3,25.33751,25.33751,0,0,1-3.8.7c-1.2.1-2.5.2-3.7.2-1.3,0-2.4,0-3.4-.1a13.73215,13.73215,0,0,1-2.8-.5,10.63913,10.63913,0,0,1-2.5-.9,11.865,11.865,0,0,1-2.3-1.6,9.334,9.334,0,0,1-3.3,2.1,13.08183,13.08183,0,0,1-4.4.7h-.6V53.5H427.1Zm26.7-7.1a9.86251,9.86251,0,0,0-2.4.3,10.94677,10.94677,0,0,0-2.3.9,13.73356,13.73356,0,0,0-2,1.3q-.9.75-1.8,1.5a10.70373,10.70373,0,0,0-1.4,1.6,13.02873,13.02873,0,0,0-1,1.5,10.28428,10.28428,0,0,1,1.7.1,10.81851,10.81851,0,0,0,1.8,0,21.75041,21.75041,0,0,0,2.5-.1,10.07439,10.07439,0,0,0,2.5-.3,20.481,20.481,0,0,0,2.4-.5,18.02842,18.02842,0,0,0,2.1-.8,6.10039,6.10039,0,0,0,1.6-1.2,4.01094,4.01094,0,0,0,.9-1.7,2.47084,2.47084,0,0,0-1.4-2A8.66207,8.66207,0,0,0,453.8,46.2Zm0-8.5-4.3-4.3,4.3-4.3,4.3,4.3Z"/><path class="cls-2" d="M467.1,56.2c.1-1.1.1-2.3.2-3.4,0-1.1.1-2.2.1-3.2V46.7c-.1-1.8-.2-3.4-.2-4.8-.1-1.4-.1-2.6-.2-3.7s-.1-2-.2-2.8-.1-1.5-.2-2.2-.2-1.3-.3-1.9-.2-1.2-.3-1.8l6-2c.3,1.7.5,3.5.7,5.2.2,1.8.3,3.4.4,5s.2,3.1.2,4.5v9.6c0,1.1,0,2.2-.1,3.4,0,1.1-.1,2.2-.2,3.3l-6,.9A17.38744,17.38744,0,0,1,467.1,56.2Z"/><path class="cls-2" d="M493.9,55.8a8.89254,8.89254,0,0,0-.4,3.6,7.17191,7.17191,0,0,0,.7,2.5,6.84447,6.84447,0,0,0,1.7,2.1,7.89475,7.89475,0,0,0,2.3,1.4,6.1841,6.1841,0,0,0,2.7.5,11.0184,11.0184,0,0,0,1.8-.2,12.0014,12.0014,0,0,0,3.7-1.5,6.72976,6.72976,0,0,0,1.5-1.4,7.241,7.241,0,0,0,1.1-1.9,6.72265,6.72265,0,0,0,.4-2.4c0-1,0-2.2-.1-3.6s-.1-2.9-.2-4.4q-.15-2.4-.3-4.8c-.1-1.7-.2-3.3-.3-4.9-.1-1.9-.3-3.8-.4-5.7s-.3-3.9-.5-5.9l6.2-1.4q.15,3.3.3,6.3c.1,2,.2,4,.2,6,.1,1.7.1,3.4.2,5.2.1,1.8.1,3.5.2,5.1a2.6625,2.6625,0,0,0,.3,1.2,2.07481,2.07481,0,0,0,.6,1,5.49278,5.49278,0,0,0,.9.7,1.72121,1.72121,0,0,0,1.2.2h.4v6.1h-1.9a5.76859,5.76859,0,0,1-1.4-.3,16.18466,16.18466,0,0,1-.7,4.4,15.44431,15.44431,0,0,1-1.7,3.4,14.21053,14.21053,0,0,1-2.4,2.5,10.24422,10.24422,0,0,1-2.9,1.6,17.1026,17.1026,0,0,1-3,.9,14.27917,14.27917,0,0,1-2.9.3A11.70017,11.70017,0,0,1,498,72a15.35738,15.35738,0,0,1-3-1.1,15.86059,15.86059,0,0,1-2.7-1.8,12.06543,12.06543,0,0,1-2.1-2.4,10.31475,10.31475,0,0,1-1.4-3,13.449,13.449,0,0,1-.5-3.5c0-.8.1-1.6.1-2.5.1-.8.2-1.6.4-2.5a21.71576,21.71576,0,0,1,.7-2.4,15.95544,15.95544,0,0,1,1-2.3l4.8,2.3A11.89409,11.89409,0,0,0,493.9,55.8Z"/><path class="cls-2" d="M517.2,53.3h4.6a10.86864,10.86864,0,0,0,1.8-.1,12.86181,12.86181,0,0,0,1.9-.4A5.48268,5.48268,0,0,0,527,52a1.97423,1.97423,0,0,0,.6-1.4,3.52906,3.52906,0,0,0-.3-1.4c-.2-.6-.4-1.3-.7-2.1s-.6-1.5-1-2.4a25.56041,25.56041,0,0,1-1.1-2.4l5.5-2.7c.4.8.7,1.7,1.1,2.6a23.069,23.069,0,0,1,1,2.8,28.64694,28.64694,0,0,1,.7,2.8,12.41187,12.41187,0,0,1,.3,2.7,9.78127,9.78127,0,0,1-.9,4.1,7.80836,7.80836,0,0,1-2.4,2.7,9.776,9.776,0,0,1-3.5,1.5,21.18473,21.18473,0,0,1-4.4.5h-4.6v-6Zm7.5,11.8-3.6,3.6-3.8-3.7,3.7-3.7,3.7,3.7,3.6-3.6,3.8,3.7-3.7,3.7Z"/><path class="cls-2" d="M544.1,59.4a12.40723,12.40723,0,0,1-5-1,13.93912,13.93912,0,0,1-4.5-3.1l3.5-4.9a21.96458,21.96458,0,0,0,1.8,1.4c.5.3,1.1.6,1.7.9a8.33093,8.33093,0,0,0,1.5.4,6.60284,6.60284,0,0,0,1.4.1,4.102,4.102,0,0,0,1.1-.1,5.01953,5.01953,0,0,0,1.2-.2,3.58174,3.58174,0,0,0,1.1-.4,2.36181,2.36181,0,0,0,.9-.6c-.5-1.2-1-2.4-1.6-3.7s-1.2-2.6-1.7-3.9-1.2-2.6-1.7-3.9c-.6-1.3-1.1-2.5-1.6-3.7l5.6-2.4,6.4,15.4a11.64874,11.64874,0,0,0,.6,1.5,6.72762,6.72762,0,0,0,.7,1.1,2.361,2.361,0,0,0,.9.6,6.75282,6.75282,0,0,0,1.4.2h.6v6.1H558a7.48691,7.48691,0,0,1-2.1-.2,9.36244,9.36244,0,0,1-1.6-.4,8.26173,8.26173,0,0,1-1.3-.7,9.01331,9.01331,0,0,1-1-.9,16.17828,16.17828,0,0,1-1.8,1,10.66145,10.66145,0,0,1-1.9.7,14.15893,14.15893,0,0,1-2,.4A5.11471,5.11471,0,0,1,544.1,59.4Z"/><path class="cls-2" d="M572.2,53.3v6.1h-.4a8.59161,8.59161,0,0,1-3.2-.5,7.89488,7.89488,0,0,1-2.3-1.4A9.88424,9.88424,0,0,1,563,59a23.14753,23.14753,0,0,1-4.6.5h-.7V53.4h.7a6.9514,6.9514,0,0,0,4-.9,3.14291,3.14291,0,0,0,1.4-2.6,8.74983,8.74983,0,0,0-.2-1.6c-.2-.9-.4-1.9-.6-2.8l5.5-1.3a18.0208,18.0208,0,0,1,.5,1.9q.15.75.3,1.5c.1.5.1.9.2,1.2,0,.4.1.8.1,1.1,0,.4.1.7.1,1.2a2.01575,2.01575,0,0,0,.3,1.1,2.36112,2.36112,0,0,0,.6.9,1.43142,1.43142,0,0,0,1.1.3ZM564.7,70l-4.3-4.3,4.3-4.3,4.3,4.3Z"/><path class="cls-2" d="M571.4,53.3H576a10.86858,10.86858,0,0,0,1.8-.1,12.86154,12.86154,0,0,0,1.9-.4,5.48268,5.48268,0,0,0,1.5-.8,1.97419,1.97419,0,0,0,.6-1.4,3.52906,3.52906,0,0,0-.3-1.4c-.2-.6-.4-1.3-.7-2.1s-.6-1.5-1-2.4a25.56041,25.56041,0,0,1-1.1-2.4l5.5-2.7c.4.8.7,1.7,1.1,2.6a23.069,23.069,0,0,1,1,2.8,28.64407,28.64407,0,0,1,.7,2.8,12.41187,12.41187,0,0,1,.3,2.7,9.78127,9.78127,0,0,1-.9,4.1,7.80836,7.80836,0,0,1-2.4,2.7,9.776,9.776,0,0,1-3.5,1.5,21.18473,21.18473,0,0,1-4.4.5h-4.6v-6Zm9.1-19.9L576.9,37l-3.8-3.7,3.7-3.7,3.7,3.7,3.6-3.6,3.8,3.7-3.7,3.7Z"/><path class="cls-2" d="M612.1,56.7a14.72217,14.72217,0,0,1-3.6-.4,8.12556,8.12556,0,0,1-2.9-1.2,5.77765,5.77765,0,0,1-2.7-5.1,6.96328,6.96328,0,0,1,.5-2.5,9.79949,9.79949,0,0,1,1.3-2.2,10.70755,10.70755,0,0,1,1.8-1.9,13.034,13.034,0,0,1,2-1.5,12.80866,12.80866,0,0,1,2-1.1,8.65,8.65,0,0,1,1.7-.7V39a2.48589,2.48589,0,0,0-.1-.8c0-.3-.1-.7-.1-1.1l6-1.3c.3,2.4.5,4.6.8,6.6.2,2,.5,3.7.6,5.2.2,1.4.3,2.6.5,3.4.1.8.2,1.3.2,1.3a1.96222,1.96222,0,0,0,.9.9,2.85078,2.85078,0,0,0,1.6.2h.4v6.1h-.6c-.6,0-1.3-.1-1.9-.1a5.67812,5.67812,0,0,1-2.2-.7,4.195,4.195,0,0,1-1.4-.9q-.6-.6-1.2-1.2a13.66441,13.66441,0,0,1-1.9.2A9.1486,9.1486,0,0,0,612.1,56.7Zm-.1-6.1h.8a1.94948,1.94948,0,0,0,.8-.1c0-.2-.1-.5-.1-.7,0-.3-.1-.6-.1-1a9.31737,9.31737,0,0,0-.2-1.4c-.1-.5-.1-1.2-.2-1.9a8.93758,8.93758,0,0,0-1.6.9,9.90917,9.90917,0,0,0-1.7,1.1,4.894,4.894,0,0,0-1.3,1.2,1.60593,1.60593,0,0,0-.5,1.1c0,.2.1.3.4.4.3.1.7.2,1.1.3a6.15059,6.15059,0,0,0,1.4.1Z"/><path class="cls-2" d="M622.3,53.3h2.6a10.86852,10.86852,0,0,0,1.8-.1,11.62708,11.62708,0,0,0,1.8-.4,6.37639,6.37639,0,0,0,1.4-.8,1.61236,1.61236,0,0,0,.6-1.3,3.52906,3.52906,0,0,0-.3-1.4c-.2-.6-.4-1.3-.7-2.1s-.6-1.5-1-2.4c-.4-.8-.7-1.6-1.1-2.4l5.5-2.7c.4.8.7,1.7,1.1,2.6a23.0688,23.0688,0,0,1,1,2.8,28.6455,28.6455,0,0,1,.7,2.8,12.41194,12.41194,0,0,1,.3,2.7,9.23751,9.23751,0,0,1-.8,4,6.435,6.435,0,0,1-2.2,2.7,10.10945,10.10945,0,0,1-3.3,1.6,20.23591,20.23591,0,0,1-4.3.5h-3.1ZM628.5,70l-4.3-4.3,4.3-4.3,4.3,4.3Z"/><image class="cls-3" width="129" height="97" transform="translate(752.69928 1.6993)" xlink:href="81F6FE52.png"/><path class="cls-4" d="M788.6,55.9a18.81919,18.81919,0,0,1,.7-5.3,27.46216,27.46216,0,0,1,2-5,23.082,23.082,0,0,1,3.2-4.5,19.99881,19.99881,0,0,1,4.1-3.6,22.27377,22.27377,0,0,1,4.9-2.4,17.13476,17.13476,0,0,1,5.5-.9,13.402,13.402,0,0,1,2,.1,14.15893,14.15893,0,0,1,2,.4,17.22952,17.22952,0,0,1,2.1.7,17.87162,17.87162,0,0,1,2.4,1.2l-3.9,10.2a10.07877,10.07877,0,0,0-3.4-.9,12.96743,12.96743,0,0,0-3.4.2,12.12955,12.12955,0,0,0-3.2,1.1,17.25863,17.25863,0,0,0-2.8,1.9,13.15083,13.15083,0,0,0-2.2,2.5,11.08155,11.08155,0,0,0-1.4,2.9,13.08713,13.08713,0,0,0,2.8.9,38.15228,38.15228,0,0,1,3.8,1.1c1.4.4,2.7.9,4.1,1.4a15.83894,15.83894,0,0,1,3.8,2.1,11.49327,11.49327,0,0,1,2.8,3,8.7692,8.7692,0,0,1,1.1,4.2,16.1588,16.1588,0,0,1-1.1,5.8,13.94018,13.94018,0,0,1-3.1,4.5,18.66729,18.66729,0,0,1-4.5,3.3,32.143,32.143,0,0,1-5.4,2.2,29.923,29.923,0,0,1-5.8,1.2,54.58812,54.58812,0,0,1-5.7.4,32.83667,32.83667,0,0,1-9.4-1.3,21.07537,21.07537,0,0,1-7.4-3.9,17.15551,17.15551,0,0,1-4.9-6.4,22.34846,22.34846,0,0,1-1.8-8.8,36.87862,36.87862,0,0,1,1.3-9.9,82.08121,82.08121,0,0,1,3.3-9.9l9.4,3.9c-.5,1.3-1.1,2.6-1.5,3.9-.5,1.3-.9,2.6-1.3,3.8a26.15309,26.15309,0,0,0-.9,3.8,24.3278,24.3278,0,0,0-.3,3.8,8.02157,8.02157,0,0,0,1.2,4.5,9.52826,9.52826,0,0,0,3.1,2.9,14.34262,14.34262,0,0,0,4.4,1.5,27.36934,27.36934,0,0,0,5,.4,44.44385,44.44385,0,0,0,10.3-1,13.50279,13.50279,0,0,0,6.6-3.4q-2.7-.6-5.1-1.2t-4.5-1.2a23.8783,23.8783,0,0,1-3.7-1.5,11.01882,11.01882,0,0,1-2.8-2,6.83028,6.83028,0,0,1-1.7-2.8A10.02089,10.02089,0,0,1,788.6,55.9Z"/><path class="cls-4" d="M821.3,63.5c.1-1.2.2-2.6.2-4,.1-1.4.1-2.8.2-4.2.1-1.4.1-2.8.2-4.1,0-1.3.1-2.6.1-3.7,0-3.5-.1-6.8-.2-9.7-.2-3-.4-5.6-.6-8-.2-2.4-.5-4.5-.7-6.3s-.4-3.3-.6-4.5L831,15.3c.4,2.8.8,5.6,1.1,8.3s.5,5.2.6,7.6.2,4.6.3,6.6c0,2,.1,3.7.1,5.1v4.2c0,1.5,0,3.1-.1,4.8,0,1.7-.1,3.3-.1,5-.1,1.7-.1,3.3-.2,4.9Z"/><path class="cls-4" d="M840.5,48.6a44.83354,44.83354,0,0,0,6.2,3.1,21.1796,21.1796,0,0,0,5.5,1.4,14.76885,14.76885,0,0,0,2.1.1,11.019,11.019,0,0,0,1.8-.2,5.783,5.783,0,0,0,1.4-.5,1.56151,1.56151,0,0,0,.8-.8,2.03841,2.03841,0,0,0-.2-2,12.0284,12.0284,0,0,0-1.8-2.6c-.9-1-1.9-2-2.9-3-1.1-1-2.3-2-3.5-3s-2.4-1.9-3.5-2.9c-1.2-.9-2.2-1.7-3.1-2.4l6.4-9.5c1.5,1.1,2.9,2.3,4.4,3.5,1.4,1.2,2.8,2.5,4.1,3.8a44.8191,44.8191,0,0,1,3.6,4,40.48946,40.48946,0,0,1,2.9,4.3,26.23363,26.23363,0,0,1,1.9,4.6,16.59011,16.59011,0,0,1,.7,4.9,14.36178,14.36178,0,0,1-1,5.4,13.714,13.714,0,0,1-2.9,4.2,13.55167,13.55167,0,0,1-4.6,2.8,18.1489,18.1489,0,0,1-6.1,1h-.9a18.40219,18.40219,0,0,1-4.1-.4,31.12612,31.12612,0,0,1-4.1-1.1c-1.4-.5-2.7-1-4-1.6a28.16673,28.16673,0,0,1-3.8-2.1Z"/><path class="cls-2" d="M652.7,60.7a38.55862,38.55862,0,0,1-1.3-10.2,39.09621,39.09621,0,0,1,1.3-10.2,27.02993,27.02993,0,0,1,3.7-8.3h5.9a36.13111,36.13111,0,0,0-3.6,8.9,41.5225,41.5225,0,0,0,0,19.2,36.13111,36.13111,0,0,0,3.6,8.9h-5.9A24.85383,24.85383,0,0,1,652.7,60.7Z"/><path class="cls-4" d="M665.9,33.8h12.6a16.96466,16.96466,0,0,1,8,1.7,12.709,12.709,0,0,1,7.30005,12.1,13.30265,13.30265,0,0,1-1.9,7.3,12.51857,12.51857,0,0,1-5.4,4.8,16.96466,16.96466,0,0,1-8,1.7H665.9Zm12.2,22.4a9.37033,9.37033,0,0,0,6.6-2.3,8.149,8.149,0,0,0,2.5-6.3,8.43773,8.43773,0,0,0-2.5-6.3,9.37043,9.37043,0,0,0-6.6-2.3h-5.9V56.2Z"/><path class="cls-4" d="M716.4,55.5H703.6l-2.5,5.9h-6.6l12.3-27.7h6.3l12.4,27.7h-6.7Zm-2-4.9L710,40l-4.4,10.6Z"/><path class="cls-4" d="M728.4,33.8h6.4V61.5h-6.4Z"/><path class="cls-2" d="M738.5,69.1a40.80841,40.80841,0,0,0,3.7-8.9,39.00047,39.00047,0,0,0,0-19.2,32.903,32.903,0,0,0-3.7-8.9h5.9a27.02971,27.02971,0,0,1,3.7,8.3,40.666,40.666,0,0,1,0,20.4,27.02971,27.02971,0,0,1-3.7,8.3Z"/><g id="Layer_1-2" data-name="Layer 1-2"><path class="cls-4" d="M65.2,10.9A38.75,38.75,0,1,1,26.4,49.6h0A38.7514,38.7514,0,0,1,65.2,10.9Z"/><path class="cls-5" d="M66.6,52.4H81.3c.3,0,.5,0,.5-.4a33.79087,33.79087,0,0,0,0-4.5c0-.3-.1-.4-.5-.4H52.1c-.4,0-.5.1-.5.5v4.3c0,.6,0,.6.6.6ZM80.2,42v-.3a5.96828,5.96828,0,0,0-.9-1.5,13.01445,13.01445,0,0,0-1.8-2.3,5.73023,5.73023,0,0,0-1.1-1.1,18.06126,18.06126,0,0,0-7.3-3.7,19.00053,19.00053,0,0,0-4.1-.4H52c-.4,0-.4.1-.4.5v8.6c0,.4,0,.5.5.5h28a.35524.35524,0,0,0,.3-.2l-.2-.1Zm0,15.4H52.1c-.4,0-.5,0-.5.5v8.4c0,.4,0,.5.5.5H64.5a10.8687,10.8687,0,0,0,1.8-.1,16.32267,16.32267,0,0,0,5.3-1.2,14.16686,14.16686,0,0,0,1.8-.8h.2a15.94108,15.94108,0,0,0,6.8-6.8c-.2,0,0-.4-.2-.5ZM46.7,71.2V57.8c0-.3,0-.4-.4-.4H41c-.3,0-.4,0-.4-.4V52.4h5.6c.3,0,.4,0,.4-.4V47.4c0-.3,0-.4-.4-.4H40.9c-.3,0-.4,0-.4-.4V42.3c0-.3,0-.3.4-.3h5.2c.4,0,.5,0,.5-.5V28.6c0-.4,0-.5.5-.5H65.3c1.3.1,2.6.2,3.9.4a23.23836,23.23836,0,0,1,7.6,2.8,19.68189,19.68189,0,0,1,4.3,3.3,25.9982,25.9982,0,0,1,2.6,3.2,18.5071,18.5071,0,0,1,1.9,3.7c.1.3.4.6.7.5h4.3c.6,0,.6,0,.6.5v4c0,.4-.1.5-.5.5H87.4c-.3,0-.4,0-.4.4a32.29481,32.29481,0,0,1,0,4.4c0,.4,0,.5.5.5h3.8c.2.2,0,.4,0,.7v3.7c0,.4-.1.5-.5.5H86.2c-.3-.1-.6.1-.7.5a18.94066,18.94066,0,0,1-5.1,7.4c-.8.7-1.7,1.4-2.6,2.1-1,.6-1.9,1.1-2.9,1.6a29.01655,29.01655,0,0,1-5.7,1.8,36.57307,36.57307,0,0,1-5.7.5l-16.8.1Z"/></g><rect class="cls-6" x="121.91166" y="22.92115" width="154.9584" height="52.60294" rx="10.00962"/><path class="cls-7" d="M151.18457,62.05078a11.253,11.253,0,0,1-3.36865-.47363,7.13227,7.13227,0,0,1-2.59863-1.415,6.35616,6.35616,0,0,1-1.6792-2.3457,8.2992,8.2992,0,0,1-.59717-3.26661,11.7036,11.7036,0,0,1,.56494-3.5625,14.32719,14.32719,0,0,1,1.67334-3.47558l2.42187,1.74316a6.10766,6.10766,0,0,0-.50586.87207,12.73749,12.73749,0,0,0-1.01171,2.90039,7.49174,7.49174,0,0,0-.18311,1.6084A3.24688,3.24688,0,0,0,146.3042,56.25a4.03518,4.03518,0,0,0,1.07617,1.23828,5.21181,5.21181,0,0,0,1.54981.80664,6.20277,6.20277,0,0,0,1.82421.3125,7.14712,7.14712,0,0,0,2.19532-.2959,6.09784,6.09784,0,0,0,1.8457-.89355,4.36213,4.36213,0,0,0,1.24316-1.36719,3.0991,3.0991,0,0,0,.4087-1.71582,5.16657,5.16657,0,0,0-.17188-1.04394q-.15088-.58155-.36084-1.18946-.20947-.60791-.46289-1.20508-.25269-.59764-.47314-1.09277-.2212-.49512-.38233-.85059-.16113-.35448-.20459-.48339l2.92774-1.626a2.65617,2.65617,0,0,1,.21484.41992q.17213.37647.40381.97461.23145.59619.49512,1.36133.26367.76319.479,1.582.2146.81738.36035,1.625A8.44988,8.44988,0,0,1,159.418,54.292a8.56346,8.56346,0,0,1-.21533,1.9043,7.62065,7.62065,0,0,1-.66211,1.81348,7.42075,7.42075,0,0,1-1.11914,1.60351,6.9092,6.9092,0,0,1-1.58741,1.28125,8.06721,8.06721,0,0,1-2.07714.84961A10.04863,10.04863,0,0,1,151.18457,62.05078Zm.07568-12.94629-2.38964-2.38965,2.38964-2.38867,2.38916,2.38867Z"/><path class="cls-7" d="M167.40381,54.63574a6.36974,6.36974,0,0,1-2.28125-.36035,4.027,4.027,0,0,1-1.52832-.99512,3.78221,3.78221,0,0,1-.856-1.502,6.418,6.418,0,0,1-.26367-1.87793q0-.51562.022-1.28613.02124-.76905.02149-1.78125,0-1.01074-.01075-2.22168-.011-1.21143-.05957-2.42676-.04833-1.21728-.13964-2.33594a18.071,18.071,0,0,0-.25293-1.94824l3.21777-.97851q.13989.709.23144,1.67285t.14551,2.01855q.05347,1.05469.08057,2.12012.02637,1.06494.0376,1.97949.01025.80713-.02686,1.69531-.03808.8877-.05908,1.7002-.022.813.01611,1.46972a2.83249,2.83249,0,0,0,.19873,1.001.88452.88452,0,0,0,.58155.57031,1.55662,1.55662,0,0,0,.4248.0752c.1543.00684.32471.01074.51123.01074h.29053v3.40039Z"/><path class="cls-7" d="M167.48975,51.23535a2.13234,2.13234,0,0,0,1.36132-.43652,3.71915,3.71915,0,0,0,.94727-1.14551,8.28154,8.28154,0,0,0,.667-1.62012q.27466-.90966.522-1.85644l2.8628.5166c-.05762.251-.12744.54394-.21.877q-.12378.501-.22559,1.03907-.10254.53759-.167,1.04882a4.08164,4.08164,0,0,0-.02686.89844,1.21114,1.21114,0,0,0,.19922.6084.46892.46892,0,0,0,.49463.167,1.42734,1.42734,0,0,0,.78027-.30176,2.83024,2.83024,0,0,0,.62989-.68847,5.33045,5.33045,0,0,0,.49511-.94727,10.02263,10.02263,0,0,0,.3711-1.08691q.156-.55957.2583-1.1084c.06836-.36621.124-.69922.167-1.001l2.7334.46289q-.011.32227-.0752.79688-.06444.47315-.11865.99511a10.24012,10.24012,0,0,0-.05371,1.044,3.406,3.406,0,0,0,.11865.93652,1.44548,1.44548,0,0,0,.39258.67286,1.08054,1.08054,0,0,0,.76953.25781,1.95768,1.95768,0,0,0,.61328-.10254,1.87976,1.87976,0,0,0,.55957-.29,1.5919,1.5919,0,0,0,.40381-.44727,1.09947,1.09947,0,0,0,.15625-.58105,4.72925,4.72925,0,0,0-.1831-1.23242,12.43389,12.43389,0,0,0-.44678-1.334q-.26367-.6621-.54346-1.2539t-.47363-1.001l2.66943-1.49609.22559.49511q.16187.34425.36621.83985.20434.49512.42481,1.11328.22046.61962.4038,1.28613.1831.668.30127,1.36719a8.11652,8.11652,0,0,1,.11866,1.35644,5.93338,5.93338,0,0,1-.29639,1.93653,3.79828,3.79828,0,0,1-.89307,1.46387,4.05742,4.05742,0,0,1-1.49609.93652,6.20808,6.20808,0,0,1-2.104.34375,4.56145,4.56145,0,0,1-1.05468-.11231,3.87752,3.87752,0,0,1-.85547-.30664,2.98408,2.98408,0,0,1-.67285-.46289,3.96221,3.96221,0,0,1-.51612-.581,4.41978,4.41978,0,0,1-.55468.59668,3.005,3.005,0,0,1-.67774.45215,3.83049,3.83049,0,0,1-.85547.29589,5.25351,5.25351,0,0,1-1.07666.11817,3.71166,3.71166,0,0,1-.95215-.09082,3.18206,3.18206,0,0,1-.78027-.2959,2.98239,2.98239,0,0,1-.64062-.46875,4.82977,4.82977,0,0,1-.53272-.60742,3.69322,3.69322,0,0,1-.5166.52148,3.08411,3.08411,0,0,1-.68848.42481,4.08472,4.08472,0,0,1-.92578.28613,6.57554,6.57554,0,0,1-1.22656.10156h-.3877V51.23535Z"/><path class="cls-7" d="M185.74365,37.53516a3.256,3.256,0,0,1,.377-1.03321,3.82931,3.82931,0,0,1,.667-.87207,3.161,3.161,0,0,1,.85547-.59765,2.24368,2.24368,0,0,1,.96338-.21973,3.11016,3.11016,0,0,1,.89843.11816,6.54318,6.54318,0,0,1,.73731.26856,3.742,3.742,0,0,0,.8125.25293,1.33056,1.33056,0,0,0,.646-.03711,1.59916,1.59916,0,0,0,.57032-.34473,4.84824,4.84824,0,0,0,.58642-.65625l1.47461.94727a1.26982,1.26982,0,0,1-.11865.18262q-.10767.15087-.2959.36621a5.37677,5.37677,0,0,1-.45752.457,4.40814,4.40814,0,0,1-.60254.45215,3.70666,3.70666,0,0,1-.72119.34961,2.55849,2.55849,0,0,1-.81787.15039,2.45221,2.45221,0,0,1-.78565-.09668q-.35522-.10693-.68847-.23633-.334-.12891-.6836-.23145a2.46687,2.46687,0,0,0-.75878-.09179.659.659,0,0,0-.45215.17773,1.20721,1.20721,0,0,0-.26905.39258,2.398,2.398,0,0,0-.145.46289,3.4004,3.4004,0,0,1-.0913.36621Zm2.94873,15.30371q.05421-.94776.0918-1.873.03735-.92578.04834-1.79687.01026-.87159-.02148-1.60352-.06446-1.61425-.1294-2.8252-.06445-1.21141-.12353-2.13085-.05934-.91993-.124-1.60352-.06446-.68409-.13965-1.25391l3.31446-1.05468q.15087,1.22607.24218,2.42675.09156,1.19971.14551,2.28125.05347,1.08252.06983,2.0127.01611.93164.01611,1.62012,0,.74267-.00537,1.60351-.00513.86133-.02149,1.78613-.01611.92579-.04834,1.87305-.03222.94629-.09668,1.85059l-3.32568.5166Q188.63844,53.78614,188.69238,52.83887Z"/><path class="cls-7" d="M211.6748,54.63574a7.40564,7.40564,0,0,1-2.76074-.53808,7.16519,7.16519,0,0,1-2.50195-1.73243l1.94775-2.74414a7.00033,7.00033,0,0,0,1.02246.791,5.58648,5.58648,0,0,0,.94727.47851,4.37619,4.37619,0,0,0,.85547.23731,4.82347,4.82347,0,0,0,.75879.06445,5.5137,5.5137,0,0,0,.624-.03808,4.68766,4.68766,0,0,0,.66211-.124,3.99344,3.99344,0,0,0,.61865-.21484,1.88475,1.88475,0,0,0,.50586-.32324q-.40942-.99024-.88769-2.06055-.479-1.0708-.96338-2.15234-.48414-1.08252-.958-2.14746-.47314-1.06494-.88232-2.04493l3.14257-1.3125,3.55127,8.57715c.1294.31641.24756.5918.35547.8291a2.1967,2.1967,0,0,0,.38184.5918,1.33978,1.33978,0,0,0,.52734.34961,2.32826,2.32826,0,0,0,.791.11328h.312v3.40039h-.312a6.86583,6.86583,0,0,1-1.15674-.08594,4.474,4.474,0,0,1-.89356-.24218,3.20721,3.20721,0,0,1-.69921-.377,4.566,4.566,0,0,1-.57569-.48925,7.30969,7.30969,0,0,1-.99023.56543,6.11754,6.11754,0,0,1-1.03321.37109,7.57508,7.57508,0,0,1-1.12451.19922Q212.35279,54.63574,211.6748,54.63574Z"/><path class="cls-7" d="M219.294,51.23535h2.583q.4629,0,1.02246-.04883a5.02659,5.02659,0,0,0,1.04932-.19922,2.1451,2.1451,0,0,0,.81787-.44628.99982.99982,0,0,0,.32813-.78028,2.94227,2.94227,0,0,0-.15577-.76953q-.15673-.51123-.40917-1.14062-.25269-.62989-.57032-1.31836-.31787-.68848-.62939-1.31348l3.07763-1.52832q.301.67823.59766,1.44238.29517.76466.53272,1.54981a14.7962,14.7962,0,0,1,.38183,1.5664,8.15518,8.15518,0,0,1,.14551,1.49024,4.821,4.821,0,0,1-.48975,2.26562,4.2249,4.2249,0,0,1-1.3291,1.51758,5.64658,5.64658,0,0,1-1.96972.84961,10.63782,10.63782,0,0,1-2.42139.26367H219.294Zm4.19726,6.55371-2.02344,2.02344-2.0874-2.07715,2.06592-2.07715,2.04492,2.04492,2.02344-2.02343,2.08789,2.07715L225.53613,59.834Z"/><path class="cls-7" d="M239.83936,54.63574q-.23658,0-.624-.03222a3.02347,3.02347,0,0,1-.88232-.23633,8.34088,8.34088,0,0,1-.88819,2.53418,11.37353,11.37353,0,0,1-1.60888,2.249,14.009,14.009,0,0,1-2.18457,1.93164,19.38471,19.38471,0,0,1-2.61524,1.582l-1.96972-2.72265q.76464-.38673,1.53906-.84473.7749-.457,1.48-.96875a15.05,15.05,0,0,0,1.313-1.06543A8.68931,8.68931,0,0,0,234.4585,55.917a5.49057,5.49057,0,0,0,.71045-1.21094,3.23553,3.23553,0,0,0,.2583-1.2539,4.58226,4.58226,0,0,0-.16163-1.06543q-.16113-.646-.40917-1.38867-.24756-.74268-.54883-1.4961-.301-.75292-.58106-1.377l3.11035-1.35645a22.18046,22.18046,0,0,0,.82325,2.15235,8.586,8.586,0,0,0,.75879,1.37793,2.61275,2.61275,0,0,0,.70507.72656,1.27362,1.27362,0,0,0,.67237.21h.2583v3.40039Z"/><path class="cls-7" d="M239.624,51.23535h2.271a22.59721,22.59721,0,0,0,3.20166-.21,21.27244,21.27244,0,0,0,5.13379-1.38867q1.13525-.46728,2.23291-.97363a13.49852,13.49852,0,0,1-1.46924-.50586q-.73682-.30177-1.47412-.58106-.73755-.27978-1.46924-.47949a5.55018,5.55018,0,0,0-1.45264-.19824,1.96447,1.96447,0,0,0-.97412.26855,4.95951,4.95951,0,0,0-.86621.61328,5.312,5.312,0,0,0-.646.67285,4.28732,4.28732,0,0,0-.32276.44629l-2.48584-1.60351a10.26479,10.26479,0,0,1,.96826-1.40918,7.89657,7.89657,0,0,1,1.23243-1.22168,6.04025,6.04025,0,0,1,1.45263-.85547,4.24232,4.24232,0,0,1,1.6416-.32324,6.10587,6.10587,0,0,1,1.27.13476,10.8966,10.8966,0,0,1,1.26416.34961q.62989.21534,1.24317.48926.61377.27538,1.21631.55469.56982.26953,1.15136.53223.58155.26512,1.19483.48437a9.76385,9.76385,0,0,0,1.26953.36133,7.17241,7.17241,0,0,0,1.38867.15039l-.269,3.30371-1.52832.73242q-.936.45117-1.86182.93067-.92578.479-1.8833.92578-.958.4453-1.98047.84961a18.88967,18.88967,0,0,1-2.1416.69922,20.59249,20.59249,0,0,1-2.36768.47363,18.86494,18.86494,0,0,1-2.66894.17773h-2.271Zm6.96338-8.78223-2.38916-2.38867,2.38916-2.38965,2.38916,2.38965Z"/><rect class="cls-8" x="118.58572" y="20.32987" width="162.32759" height="59.34026" rx="16.54274"/><rect class="cls-9" x="113.10132" y="14.88819" width="173.09735" height="70.22362" rx="22.39163"/></svg>