<svg id="Layer_1" data-name="Layer 1" xmlns="http://www.w3.org/2000/svg" xmlns:xlink="http://www.w3.org/1999/xlink" viewBox="0 0 1920 100"><defs><style>.cls-1{fill:#1a1a1a;}.cls-2{fill:#fff;}.cls-3{opacity:0.84;isolation:isolate;}.cls-4{fill:#f5ac37;}.cls-5{fill:#fefefd;}.cls-6,.cls-8,.cls-9{fill:none;stroke:#f0b90b;stroke-miterlimit:10;}.cls-6{stroke-width:2.16018px;}.cls-7{fill:#f0b90b;}.cls-8{stroke-width:5.75783px;opacity:0.1;}.cls-9{stroke-width:6.46807px;opacity:0.05;}</style></defs><rect class="cls-1" width="1920" height="100"/><path class="cls-2" d="M1496.5,43.8c.4,1.2.69995,2.5,1.1,3.8.3,1.3.6,2.6.8,3.8a21.86694,21.86694,0,0,1,.30005,3.6,18.15733,18.15733,0,0,1-.6,4.6,16.316,16.316,0,0,1-1.80005,4.3,22.1104,22.1104,0,0,1-2.80005,4,39.842,39.842,0,0,1-3.5,3.6,33.2102,33.2102,0,0,1-4.19995,3.2,41.71778,41.71778,0,0,1-4.6,2.6l-4.5-6.3c1.19995-.6,2.4-1.3,3.6-2,1.19995-.8,2.4-1.6,3.5-2.4a39.95975,39.95975,0,0,0,3.1-2.7,22.57424,22.57424,0,0,0,2.5-2.9,11.08686,11.08686,0,0,0,1.7-3,7.306,7.306,0,0,0,.6-3,9.07565,9.07565,0,0,0-.30005-2.3,19.73733,19.73733,0,0,0-.8-2.6,31.15284,31.15284,0,0,0-1.2-3c-.4-1.1-.9-2.2-1.4-3.4l7.19995-3.3A34.20362,34.20362,0,0,1,1496.5,43.8Zm-5.4-8.2-5.5-5.5,5.5-5.5,5.5,5.5Z"/><path class="cls-2" d="M1515.5,43.8c.4,1.2.69995,2.5,1.1,3.8.3,1.3.6,2.6.8,3.8a21.86694,21.86694,0,0,1,.30005,3.6,18.15733,18.15733,0,0,1-.6,4.6,16.316,16.316,0,0,1-1.80005,4.3,22.1104,22.1104,0,0,1-2.80005,4,39.842,39.842,0,0,1-3.5,3.6,33.2102,33.2102,0,0,1-4.19995,3.2,41.71778,41.71778,0,0,1-4.6,2.6l-4.5-6.3c1.19995-.6,2.4-1.3,3.6-2,1.19995-.8,2.4-1.6,3.5-2.4a39.95975,39.95975,0,0,0,3.1-2.7,22.57424,22.57424,0,0,0,2.5-2.9,11.08686,11.08686,0,0,0,1.7-3,7.306,7.306,0,0,0,.6-3,9.07565,9.07565,0,0,0-.30005-2.3,19.73733,19.73733,0,0,0-.8-2.6,31.15284,31.15284,0,0,0-1.2-3c-.4-1.1-.9-2.2-1.4-3.4l7.19995-3.3A34.20362,34.20362,0,0,1,1515.5,43.8Z"/><path class="cls-2" d="M1522.5,54.5c.1-1.5.19995-2.9.19995-4.3.1-1.4.1-2.8.1-4.2V42.3c-.1-2.4-.19995-4.4-.3-6.2q-.15-2.7-.30005-4.8-.15-2.1-.30005-3.6c-.1-1-.19995-2-.30005-2.9q-.15-1.35-.3-2.4a23.96349,23.96349,0,0,0-.4-2.4l7.69995-2.5c.4,2.2.69995,4.5.9,6.7.19995,2.3.4,4.4.5,6.5s.19995,4,.19995,5.8.1,3.3.1,4.6v7.8c0,1.4-.1,2.9-.1,4.3-.1,1.5-.1,2.9-.19995,4.3l-7.69995,1.2C1522.4,57.4,1522.5,56,1522.5,54.5Z"/><path class="cls-2" d="M726.5,57.6a4.762,4.762,0,0,1,1.4-3.4,5.5792,5.5792,0,0,1,7.1,0,4.762,4.762,0,0,1,1.4,3.4,4.3737,4.3737,0,0,1-1.4,3.3,5.57963,5.57963,0,0,1-7.1,0A4.3737,4.3737,0,0,1,726.5,57.6Z"/><path class="cls-2" d="M753.3,63.6a17.32362,17.32362,0,0,1-6.4-1.2,16.74636,16.74636,0,0,1-5.8-4l4.5-6.4a10.76562,10.76562,0,0,0,2.4,1.8,15.0548,15.0548,0,0,0,2.2,1.1,6.5285,6.5285,0,0,0,2,.5,10.86858,10.86858,0,0,0,1.8.1,6.14986,6.14986,0,0,0,1.4-.1l1.5-.3a5.78234,5.78234,0,0,0,1.4-.5,7.45868,7.45868,0,0,0,1.2-.7q-.9-2.25-2.1-4.8c-.7-1.7-1.5-3.3-2.2-5s-1.5-3.3-2.2-5c-.7-1.6-1.4-3.2-2-4.7l7.3-3,8.2,19.9c.3.7.6,1.4.8,1.9a4.19444,4.19444,0,0,0,.9,1.4,3.16554,3.16554,0,0,0,1.2.8,5.66241,5.66241,0,0,0,1.8.3h.7v7.9h-.7a24.51923,24.51923,0,0,1-2.7-.2,8.30036,8.30036,0,0,1-2.1-.6,5.07158,5.07158,0,0,1-1.6-.9,6.8843,6.8843,0,0,1-1.3-1.1,17.09964,17.09964,0,0,1-2.3,1.3,23.3985,23.3985,0,0,1-2.4.9,23.81449,23.81449,0,0,1-2.6.5A28.10593,28.10593,0,0,1,753.3,63.6Z"/><path class="cls-2" d="M771.4,55.7a5.28454,5.28454,0,0,0,3.2-1,8.41842,8.41842,0,0,0,2.2-2.7,17.67875,17.67875,0,0,0,1.5-3.8c.4-1.4.8-2.8,1.2-4.3l6.6,1.2a19.43825,19.43825,0,0,1-.5,2,20.47081,20.47081,0,0,0-.5,2.4,20.02746,20.02746,0,0,0-.4,2.4,14.773,14.773,0,0,0-.1,2.1,2.38945,2.38945,0,0,0,.5,1.4,1.18973,1.18973,0,0,0,1.1.4,2.87494,2.87494,0,0,0,1.8-.7,5.72526,5.72526,0,0,0,1.5-1.6,9.06031,9.06031,0,0,0,1.1-2.2c.3-.8.6-1.7.9-2.5.2-.9.4-1.7.6-2.6a22.31424,22.31424,0,0,0,.4-2.3l6.3,1.1a14.0464,14.0464,0,0,1-.2,1.8c-.1.7-.2,1.5-.3,2.3a19.27247,19.27247,0,0,0-.1,2.4,8.32875,8.32875,0,0,0,.3,2.2,5.07131,5.07131,0,0,0,.9,1.6,2.79189,2.79189,0,0,0,1.8.6,5.90188,5.90188,0,0,0,1.4-.2,5.3868,5.3868,0,0,0,1.3-.7,2.83622,2.83622,0,0,0,.9-1,3.25839,3.25839,0,0,0,.4-1.3,14.45433,14.45433,0,0,0-.4-2.9c-.3-1-.6-2.1-1-3.1a25.50127,25.50127,0,0,0-1.3-2.9c-.4-.9-.8-1.7-1.1-2.3l6.2-3.5.5,1.1c.2.5.5,1.2.8,1.9.3.8.6,1.6,1,2.6.3,1,.7,2,.9,3a30.059,30.059,0,0,1,.7,3.2,16.27835,16.27835,0,0,1,.3,3.1,14.08339,14.08339,0,0,1-.7,4.5,8.0921,8.0921,0,0,1-2.1,3.4,9.88115,9.88115,0,0,1-3.5,2.2,16.21975,16.21975,0,0,1-4.9.8,9.86311,9.86311,0,0,1-2.4-.3,11.76331,11.76331,0,0,1-2-.7,5.71545,5.71545,0,0,1-1.6-1.1c-.4-.4-.8-.9-1.2-1.3a8.63677,8.63677,0,0,1-1.3,1.4,5.37247,5.37247,0,0,1-1.6,1,11.763,11.763,0,0,1-2,.7,10.67918,10.67918,0,0,1-2.5.3,8.204,8.204,0,0,1-2.2-.2,6.7002,6.7002,0,0,1-1.8-.7,14.3106,14.3106,0,0,1-1.5-1.1,5.26244,5.26244,0,0,1-1.2-1.4q-.6.6-1.2,1.2a8.6365,8.6365,0,0,1-1.6,1,17.23568,17.23568,0,0,1-2.1.7,13.20424,13.20424,0,0,1-2.8.2h-.9V55.6H771.4Zm22.9-23.5-4.7,4.7-4.8-4.8,4.8-4.8,4.7,4.7,4.7-4.7,4.8,4.8L799,36.9Zm4.5-7.3-4.4,4.4-4.5-4.5,4.4-4.4Z"/><path class="cls-2" d="M843.8,60.1a23.98406,23.98406,0,0,1-4.6-.5,12.00131,12.00131,0,0,1-3.7-1.5,7.24447,7.24447,0,0,1-3.4-6.6,9.601,9.601,0,0,1,.6-3.3,12.231,12.231,0,0,1,1.7-2.9,17.52758,17.52758,0,0,1,2.3-2.4,25.6042,25.6042,0,0,1,2.6-2c.8-.5,1.7-1,2.6-1.5a14.4623,14.4623,0,0,1,2.2-.9,1.26866,1.26866,0,0,0-.1-.6v-.8a3.75205,3.75205,0,0,0-.1-1c0-.4-.1-.9-.1-1.5l7.8-1.7c.3,3.1.7,6,1,8.6s.6,4.8.8,6.7.4,3.3.6,4.4c.2,1.1.3,1.6.3,1.7a1.98086,1.98086,0,0,0,1.1,1.1,6.44758,6.44758,0,0,0,2,.3h.5v7.9h-.7a19.42,19.42,0,0,1-2.4-.2,7.54286,7.54286,0,0,1-2.9-.9,7.84424,7.84424,0,0,1-1.8-1.1,7.51985,7.51985,0,0,1-1.5-1.6,21.05206,21.05206,0,0,1-2.5.2A18.48039,18.48039,0,0,1,843.8,60.1Zm-.2-7.8h1.1c.4,0,.7-.1,1.1-.1a2.76909,2.76909,0,0,1-.1-.9c0-.3-.1-.8-.1-1.2-.1-.5-.1-1.1-.2-1.8-.1-.7-.2-1.5-.3-2.5-.6.3-1.3.7-2.1,1.1a16.44473,16.44473,0,0,0-2.2,1.4,7.96557,7.96557,0,0,0-1.7,1.5,2.6664,2.6664,0,0,0-.7,1.4c0,.2.2.4.6.5a3.19419,3.19419,0,0,0,1.4.3,11.13533,11.13533,0,0,0,1.7.2,7.083,7.083,0,0,0,1.5.1Z"/><path class="cls-2" d="M857.7,55.7h2.2a27.14988,27.14988,0,0,0,2.8-.1c1,0,2-.1,3-.2s2-.2,3-.4c.9-.2,1.7-.4,2.6-.6a6.6327,6.6327,0,0,0,1.9-.9,40.12284,40.12284,0,0,1-6,.2,15.19137,15.19137,0,0,1-4.7-1,6.81252,6.81252,0,0,1-3.1-2.7,8.94045,8.94045,0,0,1-1.1-4.8,15.62561,15.62561,0,0,1,1.1-5.7,17.38966,17.38966,0,0,1,1.4-2.7,10.03747,10.03747,0,0,1,1.9-2.2,9.73693,9.73693,0,0,1,2.4-1.5,7.17336,7.17336,0,0,1,2.9-.6,8.88808,8.88808,0,0,1,3.6.7,9.99013,9.99013,0,0,1,2.9,2,13.30567,13.30567,0,0,1,2.3,3,14.6207,14.6207,0,0,1,1.6,3.6,23.55458,23.55458,0,0,1,1,3.8,23.078,23.078,0,0,1,.3,3.7,15.28447,15.28447,0,0,1-.8,5.2,11.38828,11.38828,0,0,1-2.3,3.8,11.87261,11.87261,0,0,1-3.6,2.6,24.10836,24.10836,0,0,1-4.5,1.6,31.1718,31.1718,0,0,1-5.2.8c-1.8.1-3.7.2-5.6.2h-.9V55.6H857.7ZM867.9,30l-5.5-5.5,5.5-5.5,5.5,5.5Zm.1,10.5a2.66269,2.66269,0,0,0-1.2.3,5.24025,5.24025,0,0,0-1.1,1,6.377,6.377,0,0,0-.8,1.4,4.14536,4.14536,0,0,0-.3,1.6,1.34588,1.34588,0,0,0,.5,1.2,2.3998,2.3998,0,0,0,1.2.7,9.36244,9.36244,0,0,0,1.6.4,10.86864,10.86864,0,0,0,1.8.1h1.7c.5,0,.9-.1,1.2-.1-.2-.8-.4-1.5-.6-2.3a9.49313,9.49313,0,0,0-.9-2.1,6.52887,6.52887,0,0,0-1.3-1.6A3.22611,3.22611,0,0,0,868,40.5Z"/><path class="cls-2" d="M896.3,63.6a15.85983,15.85983,0,0,1-5.3-.8,9.28965,9.28965,0,0,1-3.5-2.3,9.40087,9.40087,0,0,1-2-3.5,16.11379,16.11379,0,0,1-.6-4.4V40.3c0-1.9-.1-3.7-.1-5.6q-.15-2.85-.3-5.4a34.68868,34.68868,0,0,0-.6-4.5l7.5-2.3a34.1806,34.1806,0,0,1,.5,3.9c.1,1.5.3,3,.3,4.7.1,1.6.1,3.3.2,4.9,0,1.6.1,3.2.1,4.6,0,1.2,0,2.6-.1,3.9-.1,1.4-.1,2.7-.1,3.9v3.4a5.93215,5.93215,0,0,0,.5,2.3,2.09785,2.09785,0,0,0,1.3,1.3,3.55333,3.55333,0,0,0,1,.2h1.9v7.9H896.3Z"/><path class="cls-2" d="M896.5,55.7a7.48691,7.48691,0,0,0,2.1-.2,8.33089,8.33089,0,0,0,1.5-.4,1.79887,1.79887,0,0,0,.9-.6,2.65052,2.65052,0,0,0,.5-.6h0a7.46017,7.46017,0,0,0,.7-1.2c.3-.6.5-1.2.8-1.8a25.724,25.724,0,0,0,.9-2.9c.3-1.2.7-2.6,1.1-4.4l6.5,2.1c-.2.6-.3,1.2-.5,1.8-.1.6-.2,1.1-.3,1.7a4.30544,4.30544,0,0,0,0,1.6,8.46628,8.46628,0,0,0,.4,1.7c.7-1.2,1.4-2.3,2.2-3.5a39.17643,39.17643,0,0,1,2.5-3.2,39.678,39.678,0,0,1,2.9-2.9,15.64573,15.64573,0,0,1,3.4-2.3,14.3795,14.3795,0,0,1,4.1-1.5,19.725,19.725,0,0,1,4.8-.6,12.64179,12.64179,0,0,1,5.4,1,11.86054,11.86054,0,0,1,3.9,2.7,11.38828,11.38828,0,0,1,2.3,3.8,10.44662,10.44662,0,0,1,.6,4.3,13.05693,13.05693,0,0,1-1.2,4.8,12.45588,12.45588,0,0,1-2.8,3.6,16.16865,16.16865,0,0,1-3.9,2.5,25.06479,25.06479,0,0,1-4.6,1.6,42.09192,42.09192,0,0,1-4.9.9,38.66234,38.66234,0,0,1-4.8.3c-1.6,0-3.1,0-4.4-.1a22.54061,22.54061,0,0,1-3.6-.6,17.54991,17.54991,0,0,1-3.2-1.2,16.09945,16.09945,0,0,1-3-2.1,10.24517,10.24517,0,0,1-4.2,2.6,18.83772,18.83772,0,0,1-5.7.9H896V55.6h.5Zm34.4-9.1a10.5501,10.5501,0,0,0-3.1.4,14.76355,14.76355,0,0,0-2.9,1.2,14.52154,14.52154,0,0,0-2.6,1.7c-.8.6-1.5,1.3-2.3,2a17.11748,17.11748,0,0,0-1.8,2,12.732,12.732,0,0,0-1.3,1.9c.6,0,1.4.1,2.2.1h2.4c1,0,2.1,0,3.2-.1l3.3-.3c1-.2,2.1-.4,3.1-.7a15.32633,15.32633,0,0,0,2.7-1.1,6.52374,6.52374,0,0,0,2.1-1.6,4.768,4.768,0,0,0,1.2-2.2,3.28481,3.28481,0,0,0-1.8-2.6A11.56759,11.56759,0,0,0,930.9,46.6Zm0-11-5.5-5.5,5.5-5.5,5.5,5.5Z"/><path class="cls-2" d="M948,59.4c.1-1.5.2-2.9.2-4.3.1-1.4.1-2.8.1-4.2,0-1.3,0-2.6-.1-3.7-.1-2.4-.2-4.4-.3-6.2s-.2-3.4-.3-4.8-.2-2.6-.3-3.6-.2-2-.3-2.9-.2-1.7-.3-2.4a23.98072,23.98072,0,0,0-.4-2.4l7.7-2.5c.4,2.2.7,4.5.9,6.7.2,2.3.4,4.4.5,6.5s.2,4,.2,5.8.1,3.3.1,4.6v7.8c0,1.4-.1,2.9-.1,4.3,0,1.5-.1,2.9-.2,4.3l-7.7,1.2C947.9,62.3,947.9,60.9,948,59.4Z"/><path class="cls-2" d="M982.7,59a14.55956,14.55956,0,0,0-.6,4.6,9.53766,9.53766,0,0,0,.9,3.3,11.3315,11.3315,0,0,0,2.2,2.7,9.23386,9.23386,0,0,0,3,1.8,8.42391,8.42391,0,0,0,3.5.7,17.8521,17.8521,0,0,0,2.3-.2,16.81891,16.81891,0,0,0,2.4-.7,10.46093,10.46093,0,0,0,2.3-1.3,8.59664,8.59664,0,0,0,2-1.8,7.68136,7.68136,0,0,0,1.4-2.5,8.3946,8.3946,0,0,0,.5-3.1c0-1.3,0-2.9-.1-4.7s-.2-3.7-.3-5.7-.2-4.1-.4-6.3c-.1-2.1-.3-4.2-.4-6.3-.2-2.4-.4-4.9-.6-7.3-.2-2.5-.4-5-.6-7.7l8-1.8c.1,2.8.2,5.6.3,8.2s.2,5.2.3,7.8c.1,2.2.2,4.4.2,6.7.1,2.3.1,4.5.2,6.6a8.32853,8.32853,0,0,0,.4,1.5,3.67687,3.67687,0,0,0,2,2,4.14551,4.14551,0,0,0,1.6.3h.5v7.9h-.5a12.10274,12.10274,0,0,1-1.9-.1,5.26263,5.26263,0,0,1-1.8-.4,17.74256,17.74256,0,0,1-.9,5.6,15.13131,15.13131,0,0,1-2.2,4.4,15.67887,15.67887,0,0,1-3.1,3.2,13.593,13.593,0,0,1-3.7,2.1,29.06408,29.06408,0,0,1-3.9,1.2,23.27935,23.27935,0,0,1-3.8.4,18.40531,18.40531,0,0,1-4.1-.5,18.16331,18.16331,0,0,1-3.9-1.4,15.64518,15.64518,0,0,1-3.4-2.3,15.82058,15.82058,0,0,1-2.7-3.1,13.84133,13.84133,0,0,1-1.8-3.9,17.39912,17.39912,0,0,1-.6-4.5c0-1,.1-2.1.2-3.2.1-1.1.3-2.1.5-3.2.2-1,.5-2.1.8-3.1a15.11014,15.11014,0,0,1,1.3-2.9l6.2,3A14.60794,14.60794,0,0,0,982.7,59Z"/><path class="cls-2" d="M1012.7,55.7h6a20.93282,20.93282,0,0,0,2.4-.1,10.26776,10.26776,0,0,0,2.4-.5,6.91478,6.91478,0,0,0,1.9-1,2.50419,2.50419,0,0,0,.80005-1.8,5.83774,5.83774,0,0,0-.4-1.8c-.19995-.8-.6-1.7-.9-2.6-.4-1-.8-2-1.3-3.1q-.75-1.65-1.5-3l7.1-3.5c.5,1,.9,2.2,1.4,3.3a25.321,25.321,0,0,1,1.19995,3.6,23.697,23.697,0,0,1,.9,3.6,19.83129,19.83129,0,0,1,.3,3.5,11.002,11.002,0,0,1-1.1,5.3,9.48023,9.48023,0,0,1-3.1,3.5,14.61307,14.61307,0,0,1-4.6,2,25.96623,25.96623,0,0,1-5.6.6h-5.9v-8Zm9.7,15.2-4.7,4.7-4.8-4.8,4.8-4.8,4.7,4.7,4.7-4.7,4.8,4.8-4.8,4.8Z"/><path class="cls-2" d="M1047.4,63.6a17.3238,17.3238,0,0,1-6.4-1.2,16.7484,16.7484,0,0,1-5.80005-4l4.5-6.4a10.76407,10.76407,0,0,0,2.4,1.8,15.05409,15.05409,0,0,0,2.19995,1.1,6.52886,6.52886,0,0,0,2,.5,10.86852,10.86852,0,0,0,1.80005.1,6.14986,6.14986,0,0,0,1.4-.1l1.5-.3a5.78211,5.78211,0,0,0,1.4-.5,7.45312,7.45312,0,0,0,1.2-.7q-.9-2.25-2.1-4.8c-.69995-1.7-1.5-3.3-2.19995-5s-1.5-3.3-2.19995-5c-.7-1.6-1.4-3.2-2-4.7l7.3-3,8.2,19.9c.3.7.6,1.4.8,1.9a4.19351,4.19351,0,0,0,.9,1.4,3.16676,3.16676,0,0,0,1.19995.8,5.66228,5.66228,0,0,0,1.80005.3h.69995v7.9h-.69995a24.5158,24.5158,0,0,1-2.69995-.2,8.30124,8.30124,0,0,1-2.1-.6,5.07164,5.07164,0,0,1-1.6-.9,6.88625,6.88625,0,0,1-1.30005-1.1,17.093,17.093,0,0,1-2.30005,1.3,23.40462,23.40462,0,0,1-2.4.9,23.81221,23.81221,0,0,1-2.6.5A27.154,27.154,0,0,1,1047.4,63.6Z"/><path class="cls-2" d="M1083.7,55.7v7.9h-.5a11.40885,11.40885,0,0,1-4.1-.7,9.47472,9.47472,0,0,1-2.9-1.8A11.37637,11.37637,0,0,1,1072,63a28.80365,28.80365,0,0,1-5.9.6h-.9V55.7h.9a10.38686,10.38686,0,0,0,5.19995-1.1,3.54013,3.54013,0,0,0,1.7-3.4,14.92332,14.92332,0,0,0-.2-2.1c-.19995-1.2-.5-2.4-.8-3.6l7.1-1.7c.3.9.5,1.7.69995,2.4s.30005,1.4.4,1.9a9.974,9.974,0,0,1,.19995,1.6c0,.5.1,1,.1,1.4,0,.5.1,1,.1,1.5a8.32273,8.32273,0,0,0,.4,1.5,2.83539,2.83539,0,0,0,.8,1.1,1.7922,1.7922,0,0,0,1.4.4ZM1073.9,77.3l-5.5-5.5,5.5-5.5,5.5,5.5Z"/><path class="cls-2" d="M1082.7,55.7h6a20.93334,20.93334,0,0,0,2.4-.1,10.26713,10.26713,0,0,0,2.4-.5,6.916,6.916,0,0,0,1.9-1,2.50419,2.50419,0,0,0,.80005-1.8,5.83774,5.83774,0,0,0-.4-1.8c-.19995-.8-.6-1.7-.9-2.6-.4-1-.8-2-1.3-3.1s-1-2.1-1.5-3l7.1-3.5c.5,1,.9,2.2,1.4,3.3a25.321,25.321,0,0,1,1.19995,3.6,23.697,23.697,0,0,1,.9,3.6A19.83129,19.83129,0,0,1,1103,52.3a11.0019,11.0019,0,0,1-1.1,5.3,9.4802,9.4802,0,0,1-3.1,3.5,14.61323,14.61323,0,0,1-4.6,2,25.96613,25.96613,0,0,1-5.6.6h-5.9v-8Zm11.6001-25.7-4.69995,4.7-4.80005-4.8,4.80005-4.8,4.69995,4.7L1099,25.1l4.80005,4.8L1099,34.7Z"/><path class="cls-2" d="M1135.1,60.1a23.98406,23.98406,0,0,1-4.6-.5,11.99967,11.99967,0,0,1-3.69995-1.5,7.24462,7.24462,0,0,1-3.4-6.6,9.59958,9.59958,0,0,1,.6-3.3A12.23242,12.23242,0,0,1,1125.7,45.3,17.52018,17.52018,0,0,1,1128,42.9a25.6042,25.6042,0,0,1,2.6-2c.8-.5,1.69995-1,2.6-1.5a14.46157,14.46157,0,0,1,2.19995-.9V37.1a3.75242,3.75242,0,0,0-.1-1c0-.4-.1-.9-.1-1.5L1143,32.9c.30005,3.1.69995,6,1,8.6s.6,4.8.80005,6.7c.19995,1.9.4,3.3.6,4.4s.30005,1.6.30005,1.7a1.98069,1.98069,0,0,0,1.1,1.1,6.44781,6.44781,0,0,0,2,.3h.5v7.9h-.69995a19.41938,19.41938,0,0,1-2.4-.2,7.54276,7.54276,0,0,1-2.9-.9A7.846,7.846,0,0,1,1141.5,61.4a7.51934,7.51934,0,0,1-1.5-1.6,21.05222,21.05222,0,0,1-2.5.2A20.08392,20.08392,0,0,1,1135.1,60.1Zm-.1-7.8h1.1c.4,0,.69995-.1,1.1-.1,0-.3-.1-.6-.1-.9s-.1-.8-.1-1.2c-.1-.5-.1-1.1-.19995-1.8s-.19995-1.5-.30005-2.5c-.6.3-1.30005.7-2.1,1.1a16.437,16.437,0,0,0-2.19995,1.4,7.96553,7.96553,0,0,0-1.7,1.5,2.66592,2.66592,0,0,0-.69995,1.4c0,.2.19995.4.6.5a3.19419,3.19419,0,0,0,1.4.3,11.13449,11.13449,0,0,0,1.69995.2A7.08131,7.08131,0,0,0,1135,52.3Z"/><path class="cls-2" d="M1148.30005,55.7h3.4a17.853,17.853,0,0,0,2.3-.2,8.64867,8.64867,0,0,0,2.30005-.6,5.24445,5.24445,0,0,0,1.80005-1,1.98965,1.98965,0,0,0,.69995-1.6,11.26,11.26,0,0,0-.30005-1.8,16.13728,16.13728,0,0,0-.9-2.6c-.4-1-.80005-2-1.30005-3.1s-1-2.1-1.4-3l7.1-3.5c.5,1,.9,2.2,1.4,3.3a25.32106,25.32106,0,0,1,1.2,3.6,23.697,23.697,0,0,1,.9,3.6,19.83129,19.83129,0,0,1,.30005,3.5,12.54738,12.54738,0,0,1-1,5.1A8.72163,8.72163,0,0,1,1162,60.9a9.99069,9.99069,0,0,1-4.30005,2,20.184,20.184,0,0,1-5.5.6h-4V55.7Zm8,21.6-5.5-5.5,5.5-5.5,5.5,5.5Z"/><image class="cls-3" width="599" height="450" transform="translate(1329.2832 -7.9968) scale(0.24)" xlink:href="59C47338.png"/><path class="cls-4" d="M1369.30005,52.6a24.7342,24.7342,0,0,1,.80005-6,23.48645,23.48645,0,0,1,2.3-5.7,29.79158,29.79158,0,0,1,3.5-5,24.93324,24.93324,0,0,1,4.6-4,28.06333,28.06333,0,0,1,5.5-2.7,18.72756,18.72756,0,0,1,6.2-1,17.70282,17.70282,0,0,1,2.3.1,16.957,16.957,0,0,1,2.2.4,22.5036,22.5036,0,0,1,2.4.8c.8.3,1.69995.8,2.69995,1.3L1397.5,42.3a10.20625,10.20625,0,0,0-3.80005-1,16.1676,16.1676,0,0,0-3.80005.2,17.3524,17.3524,0,0,0-3.6,1.3,16.87664,16.87664,0,0,0-3.1,2.1,16.68152,16.68152,0,0,0-2.5,2.8,12.61921,12.61921,0,0,0-1.6,3.3c1,.4,2.1.8,3.1,1.1,1.30005.3,2.69995.7,4.30005,1.2,1.5.5,3.1,1,4.6,1.6a21.34371,21.34371,0,0,1,4.19995,2.3,12.593,12.593,0,0,1,3.1,3.4,9.66557,9.66557,0,0,1,1.2,4.7,16.06246,16.06246,0,0,1-1.30005,6.5,14.59655,14.59655,0,0,1-3.5,5,20.809,20.809,0,0,1-5.1,3.7,32.23869,32.23869,0,0,1-6.1,2.4,45.354,45.354,0,0,1-6.6,1.4,45.83439,45.83439,0,0,1-6.4.4,38.23348,38.23348,0,0,1-10.6-1.5,25.07054,25.07054,0,0,1-8.4-4.4,19.52989,19.52989,0,0,1-5.5-7.2,22.51568,22.51568,0,0,1-2-9.9,45.62177,45.62177,0,0,1,1.4-11.1,84.98569,84.98569,0,0,1,3.69995-11.1l10.5,4.4c-.6,1.5-1.19995,2.9-1.69995,4.4-.6,1.4-1,2.9-1.5,4.3a33.37218,33.37218,0,0,0-1,4.3,20.2372,20.2372,0,0,0-.4,4.3,8.72284,8.72284,0,0,0,1.3,5,10.74466,10.74466,0,0,0,3.5,3.2,16.76819,16.76819,0,0,0,4.9,1.7,35.31715,35.31715,0,0,0,5.6.5,45.29643,45.29643,0,0,0,11.6-1.2,16.24024,16.24024,0,0,0,7.5-3.8c-2-.5-4-.9-5.80005-1.3a50.67585,50.67585,0,0,1-5-1.4,20.87529,20.87529,0,0,1-4.1-1.7,10.02791,10.02791,0,0,1-3.1-2.3,9.62,9.62,0,0,1-2-3.2C1369.5,55.6,1369.30005,54.1,1369.30005,52.6Z"/><path class="cls-4" d="M1406,61.1q.15-2.1.30005-4.5c.1-1.6.19995-3.2.19995-4.8.1-1.6.1-3.1.19995-4.6,0-1.5.1-2.9.1-4.2,0-4-.1-7.6-.3-10.9s-.4-6.3-.6-9-.5-5-.8-7-.5-3.7-.7-5l12.5-4.1c.5,3.2.9,6.2,1.2,9.3.3,3,.5,5.9.69995,8.6s.30005,5.2.30005,7.4c.1,2.2.1,4.2.1,5.7v4.7c0,1.7,0,3.5-.1,5.4,0,1.9-.1,3.8-.1,5.7-.1,1.9-.2,3.7-.30005,5.5Z"/><path class="cls-4" d="M1427.7,44.4a34.8619,34.8619,0,0,0,7,3.4,25.68624,25.68624,0,0,0,6.19995,1.6,19.2692,19.2692,0,0,0,2.4.1,14.91853,14.91853,0,0,0,2.1-.2,7.49411,7.49411,0,0,0,1.6-.5,1.9625,1.9625,0,0,0,.9-.9,2.6777,2.6777,0,0,0-.19995-2.3,12.08473,12.08473,0,0,0-2-3,25.71628,25.71628,0,0,0-3.30005-3.3c-1.3-1.2-2.6-2.3-3.9-3.4s-2.7-2.2-4-3.2-2.5-1.9-3.5-2.7l7.19995-10.7c1.69995,1.3,3.30005,2.6,4.9,3.9,1.6,1.4,3.1,2.8,4.6,4.2a42.83972,42.83972,0,0,1,4,4.5,27.5668,27.5668,0,0,1,3.19995,4.9,23.59817,23.59817,0,0,1,2.1,5.2,20.90093,20.90093,0,0,1,.8,5.5,18.257,18.257,0,0,1-1.1,6.1,12.94051,12.94051,0,0,1-3.30005,4.7,15.30713,15.30713,0,0,1-5.19995,3.1,19.78167,19.78167,0,0,1-6.80005,1.1h-1.1001a24.86678,24.86678,0,0,1-4.7-.4,34.47558,34.47558,0,0,1-4.6-1.2,42.1951,42.1951,0,0,1-4.5-1.8,36.2311,36.2311,0,0,1-4.3-2.4Z"/><path class="cls-2" d="M1183.4,63.1a56.90989,56.90989,0,0,1,0-28.4,41.42457,41.42457,0,0,1,5.1-11.6H1196.7a51.45955,51.45955,0,0,0-5.1,12.4,56.91319,56.91319,0,0,0,0,26.8,46.34033,46.34033,0,0,0,5.1,12.4H1188.5A41.42111,41.42111,0,0,1,1183.4,63.1Z"/><path class="cls-4" d="M1201.80005,25.4h17.5a23.92605,23.92605,0,0,1,11.1,2.4,17.5878,17.5878,0,0,1,7.5,6.8,19.25558,19.25558,0,0,1,2.7,10.2,18.212,18.212,0,0,1-10.2,17,23.92637,23.92637,0,0,1-11.1,2.4h-17.5Zm17.1,31.3a13.02832,13.02832,0,0,0,9.2-3.2,11.09357,11.09357,0,0,0,3.4-8.7,11.16844,11.16844,0,0,0-3.4-8.7c-2.30005-2.2-5.4-3.2-9.2-3.2h-8.19995V56.8H1218.9Z"/><path class="cls-4" d="M1272.30005,55.7h-17.9L1251,64h-9.19995L1259,25.4h8.80005L1285.1001,64h-9.4ZM1269.5,48.9l-6.1-14.8-6.1,14.8Z"/><path class="cls-4" d="M1289.1,25.4h8.9V64h-8.9Z"/><path class="cls-2" d="M1303.2,74.7a51.46,51.46,0,0,0,5.1-12.4,50.6738,50.6738,0,0,0,1.6-13.4,55.19136,55.19136,0,0,0-1.6-13.4,49.853,49.853,0,0,0-5.1-12.4h8.19995a36.85248,36.85248,0,0,1,5.2,11.6,57.782,57.782,0,0,1,1.8,14.3,56.4036,56.4036,0,0,1-1.8,14.2,37.89429,37.89429,0,0,1-5.2,11.6H1303.2Z"/><g id="Layer_1-2" data-name="Layer 1-2"><path class="cls-4" d="M433.2,7.8A42.2,42.2,0,1,1,391,50,42.20823,42.20823,0,0,1,433.2,7.8Z"/><path class="cls-5" d="M434.7,53h16c.3,0,.5,0,.5-.4a40.05017,40.05017,0,0,0,0-4.9c0-.3-.2-.4-.5-.4H418.8c-.4,0-.5.1-.5.5v4.7c0,.6,0,.6.6.6Zm14.8-11.3v-.4a15.05427,15.05427,0,0,0-1-1.7,15.66691,15.66691,0,0,0-2-2.5q-.6-.6-1.2-1.2a19.73285,19.73285,0,0,0-7.9-4,22.97317,22.97317,0,0,0-4.5-.5H418.7c-.4,0-.4.2-.4.5v9.4c0,.4,0,.5.5.5h30.4s.3-.1.3-.2l0,.1Zm0,16.8H418.9c-.4,0-.5,0-.5.5v9.2c0,.4,0,.5.5.5h13.5a12.102,12.102,0,0,0,1.9-.1,18.21753,18.21753,0,0,0,5.7-1.3,6.63192,6.63192,0,0,0,1.9-.9h.2a17.06463,17.06463,0,0,0,7.4-7.4s.2-.4,0-.5ZM413.1,73.4V58.8c0-.3,0-.4-.4-.4H407c-.3,0-.4,0-.4-.4V53h6.1c.3,0,.5,0,.5-.4v-5c0-.3,0-.4-.4-.4h-5.7c-.3,0-.4,0-.4-.4V42.2c0-.3,0-.4.4-.4h5.7c.4,0,.5,0,.5-.5V27.1c0-.4,0-.5.5-.5h19.8a31.48023,31.48023,0,0,1,4.3.5,25.312,25.312,0,0,1,8.3,3.1,20.35837,20.35837,0,0,1,4.6,3.6,30.66621,30.66621,0,0,1,2.8,3.5,30.47571,30.47571,0,0,1,2.1,4,.76042.76042,0,0,0,.8.6h4.7c.6,0,.6,0,.6.6v4.3c0,.4-.2.5-.6.5h-3.6c-.4,0-.5,0-.4.5a38.4335,38.4335,0,0,1,0,4.8c0,.4,0,.5.5.5h4.2c.2.2,0,.5,0,.7v4.1c0,.4-.1.6-.5.6h-5a.74922.74922,0,0,0-.8.5,21.60661,21.60661,0,0,1-5.5,8.1,31.12208,31.12208,0,0,1-2.8,2.3c-1.1.6-2.1,1.2-3.2,1.7a28.021,28.021,0,0,1-6.2,2,31.7813,31.7813,0,0,1-6.2.5l-18.6-.2Z"/></g><rect class="cls-6" x="516.99016" y="19.25005" width="175.96625" height="59.73436" rx="11.36664"/><path class="cls-7" d="M550.231,63.68457a12.80152,12.80152,0,0,1-3.8252-.53711A8.10774,8.10774,0,0,1,543.4541,61.54a7.22127,7.22127,0,0,1-1.90674-2.66406,9.41844,9.41844,0,0,1-.67822-3.709,13.28062,13.28062,0,0,1,.6416-4.0459,16.26537,16.26537,0,0,1,1.90039-3.94629l2.75,1.9795a7.01808,7.01808,0,0,0-.57422.98974A14.46547,14.46547,0,0,0,544.438,53.4375a8.51455,8.51455,0,0,0-.208,1.82715,3.68767,3.68767,0,0,0,.4585,1.833,4.57238,4.57238,0,0,0,1.22216,1.40527,5.89417,5.89417,0,0,0,1.75977.917,7.07794,7.07794,0,0,0,2.07129.35449,8.09091,8.09091,0,0,0,2.49316-.33593,6.95022,6.95022,0,0,0,2.09619-1.01465,4.9651,4.9651,0,0,0,1.41163-1.55176,3.52663,3.52663,0,0,0,.46435-1.95019,5.87189,5.87189,0,0,0-.1958-1.18458q-.17139-.66063-.40918-1.35058-.23877-.69141-.52539-1.36914-.28783-.67749-.53809-1.23975-.25049-.5625-.43359-.96582-.1831-.40282-.23242-.5498l3.32422-1.84522a2.89716,2.89716,0,0,1,.24463.47656q.19482.42774.458,1.106.263.67822.5625,1.5459.29883.86865.54346,1.79639.24464.92871.40967,1.84472a9.59431,9.59431,0,0,1,.165,1.68653,9.71852,9.71852,0,0,1-.24463,2.16308,8.68065,8.68065,0,0,1-.75147,2.05957,8.42316,8.42316,0,0,1-1.271,1.82129,7.84974,7.84974,0,0,1-1.80274,1.4541,9.19168,9.19168,0,0,1-2.35839.96582A11.47981,11.47981,0,0,1,550.231,63.68457Zm.08545-14.70117L547.603,46.27l2.71338-2.71289L553.0293,46.27Z"/><path class="cls-7" d="M568.64893,55.26465a7.24208,7.24208,0,0,1-2.59082-.40918,4.57739,4.57739,0,0,1-1.73536-1.13086,4.288,4.288,0,0,1-.97168-1.70508,7.27974,7.27974,0,0,1-.29931-2.13135q0-.5874.02441-1.46093.02418-.87378.02442-2.02246,0-1.14918-.01221-2.52393-.01245-1.37475-.06738-2.75586-.05493-1.38061-.1587-2.65186a20.3577,20.3577,0,0,0-.28759-2.21191l3.65429-1.1123q.15894.80638.2627,1.90039.104,1.0935.165,2.2915.06079,1.19751.0918,2.40772.03,1.21.04248,2.24853.01245.91626-.03028,1.92481-.04322,1.00854-.06738,1.93115-.02417.92285.01855,1.668a3.2083,3.2083,0,0,0,.22608,1.13671,1.0001,1.0001,0,0,0,.65967.647,1.77516,1.77516,0,0,0,.48291.08593q.26294.01173.58056.01172h.33008v3.86231Z"/><path class="cls-7" d="M568.74658,51.40234a2.4257,2.4257,0,0,0,1.5459-.49463,4.23438,4.23438,0,0,0,1.07568-1.30078,9.43242,9.43242,0,0,0,.75782-1.83984q.31128-1.032.59228-2.10791l3.251.58643q-.09815.42846-.23828.99609-.14062.56836-.25684,1.1792-.11572.61156-.189,1.19189a4.60683,4.60683,0,0,0-.03077,1.02051,1.38184,1.38184,0,0,0,.22608.68994.53374.53374,0,0,0,.562.18946,1.62772,1.62772,0,0,0,.88623-.3418,3.23778,3.23778,0,0,0,.71484-.78272,6.05814,6.05814,0,0,0,.562-1.0747,11.299,11.299,0,0,0,.42187-1.23438q.17726-.63574.29346-1.25879.11573-.62328.18945-1.13672l3.104.52539q-.01247.36695-.08545.9043-.07325.53833-.13477,1.13086a11.60357,11.60357,0,0,0-.061,1.18506,3.86157,3.86157,0,0,0,.13476,1.06348,1.63937,1.63937,0,0,0,.4458.76318,1.22677,1.22677,0,0,0,.874.293,2.23379,2.23379,0,0,0,.69628-.11524,2.16057,2.16057,0,0,0,.63575-.33007,1.79924,1.79924,0,0,0,.45849-.50733,1.25242,1.25242,0,0,0,.17676-.65918,5.3839,5.3839,0,0,0-.20752-1.3999,14.11166,14.11166,0,0,0-.50732-1.51514q-.29957-.75219-.61719-1.42383-.31786-.67236-.5376-1.13671l3.03076-1.69873.25684.562q.18311.39184.41553.95361.23217.56177.48242,1.26465.25049.70313.45849,1.46045.208.75805.34229,1.55224a9.25911,9.25911,0,0,1,.13428,1.53955,6.73871,6.73871,0,0,1-.33594,2.19971,4.31288,4.31288,0,0,1-1.01465,1.66211,4.61729,4.61729,0,0,1-1.69873,1.06348,7.04427,7.04427,0,0,1-2.38916.39062,5.19985,5.19985,0,0,1-1.19775-.12793,4.42391,4.42391,0,0,1-.97119-.34863,3.34943,3.34943,0,0,1-.76416-.52539,4.49861,4.49861,0,0,1-.58643-.66016,5.05221,5.05221,0,0,1-.6294.67871,3.44565,3.44565,0,0,1-.77.5127,4.37137,4.37137,0,0,1-.97168.33594,5.96011,5.96011,0,0,1-1.22217.13476,4.28782,4.28782,0,0,1-1.08155-.10351,3.62773,3.62773,0,0,1-.88574-.33594,3.38839,3.38839,0,0,1-.72754-.53223,5.48346,5.48346,0,0,1-.60449-.69043,4.25635,4.25635,0,0,1-.58691.59278,3.48461,3.48461,0,0,1-.78223.48242,4.607,4.607,0,0,1-1.05078.32422,7.415,7.415,0,0,1-1.39356.11621H568.502V51.40234Z"/><path class="cls-7" d="M589.47461,35.8457a3.70068,3.70068,0,0,1,.42773-1.17334,4.3837,4.3837,0,0,1,.75733-.99023,3.59614,3.59614,0,0,1,.97168-.67822,2.54733,2.54733,0,0,1,1.09375-.25049,3.53207,3.53207,0,0,1,1.02051.13476,7.46757,7.46757,0,0,1,.8374.30518,4.27124,4.27124,0,0,0,.92236.28711,1.51615,1.51615,0,0,0,.7334-.04248,1.81516,1.81516,0,0,0,.64795-.39111,5.51066,5.51066,0,0,0,.666-.74561l1.67432,1.07568a1.40841,1.40841,0,0,1-.13476.20752q-.12233.17139-.33594.41553a6.18793,6.18793,0,0,1-.51953.51953,4.99858,4.99858,0,0,1-.68409.51318,4.22337,4.22337,0,0,1-.81884.39747,2.92293,2.92293,0,0,1-.92871.17089,2.8127,2.8127,0,0,1-.89209-.10986q-.40358-.12231-.78223-.269-.37939-.14649-.77637-.2627a2.8105,2.8105,0,0,0-.86133-.104.75108.75108,0,0,0-.51318.20166,1.351,1.351,0,0,0-.30566.44629,2.7075,2.7075,0,0,0-.165.52539,3.74688,3.74688,0,0,1-.104.41553Zm3.34863,17.37793q.06079-1.07519.10352-2.127.04322-1.04956.05517-2.04.01173-.99024-.02441-1.8208-.07325-1.83326-.14648-3.208-.074-1.37548-.14063-2.41992-.06738-1.04517-.14062-1.82129-.07325-.77563-.1587-1.42334l3.76368-1.19775q.17138,1.39307.27539,2.75586.10326,1.363.165,2.59082.06078,1.22826.0791,2.28515.0183,1.05762.01855,1.83936,0,.84375-.00635,1.82129-.00585.97777-.02441,2.02783-.01832,1.051-.05469,2.12646-.03735,1.0752-.11035,2.10254l-3.77637.58594Q592.76221,54.29882,592.82324,53.22363Z"/><path class="cls-7" d="M618.92139,55.26465a8.39993,8.39993,0,0,1-3.13477-.61133,8.13649,8.13649,0,0,1-2.8418-1.96777l2.21241-3.11573a7.833,7.833,0,0,0,1.16064.89844,6.34324,6.34324,0,0,0,1.07568.54346,4.95858,4.95858,0,0,0,.97168.26855,5.4701,5.4701,0,0,0,.86133.07325,6.16023,6.16023,0,0,0,.709-.043,5.3807,5.3807,0,0,0,.75146-.13965,4.6835,4.6835,0,0,0,.70264-.24463,2.16622,2.16622,0,0,0,.57471-.36621q-.46509-1.125-1.00831-2.34033-.54418-1.21656-1.09375-2.44434-.55-1.22828-1.08789-2.43848-.53759-1.21-1.00195-2.32177l3.56836-1.49121,4.0332,9.74023q.21973.5376.40332.94141a2.47585,2.47585,0,0,0,.4336.67187,1.5331,1.5331,0,0,0,.59912.397,2.65394,2.65394,0,0,0,.89795.12793h.35449v3.86231H627.708a7.89756,7.89756,0,0,1-1.31348-.09766,5.10187,5.10187,0,0,1-1.01465-.27539,3.68883,3.68883,0,0,1-.79443-.42773,5.35782,5.35782,0,0,1-.65381-.55567,8.44782,8.44782,0,0,1-1.124.6416,6.90269,6.90269,0,0,1-1.17334.42188,8.50985,8.50985,0,0,1-1.27735.22559A14.29769,14.29769,0,0,1,618.92139,55.26465Z"/><path class="cls-7" d="M627.57324,51.40234h2.93311q.52587,0,1.16113-.05468a5.73137,5.73137,0,0,0,1.19141-.22657,2.4161,2.4161,0,0,0,.9292-.50634,1.138,1.138,0,0,0,.37255-.88575,3.31734,3.31734,0,0,0-.17724-.874q-.17725-.58008-.46436-1.29541-.2871-.71484-.64746-1.49707-.36108-.78222-.71533-1.49121l3.49561-1.73535q.342.76977.67822,1.63769.33545.86793.605,1.75977a16.94111,16.94111,0,0,1,.43359,1.77832,9.26407,9.26407,0,0,1,.165,1.69287,5.466,5.466,0,0,1-.55615,2.57178A4.7823,4.7823,0,0,1,635.46826,54a6.40162,6.40162,0,0,1-2.23633.96484,12.04585,12.04585,0,0,1-2.75.29981h-2.90869Zm4.7666,7.44336L630.042,61.14258l-2.3706-2.3584,2.34619-2.3584,2.32226,2.32227,2.29737-2.29785,2.37109,2.35839-2.34668,2.3584Z"/><path class="cls-7" d="M650.90479,55.26465c-.17969,0-.41553-.0127-.709-.03711a3.43073,3.43073,0,0,1-1.00195-.26856,9.48442,9.48442,0,0,1-1.0083,2.87793,12.96443,12.96443,0,0,1-1.82715,2.55469,15.98422,15.98422,0,0,1-2.481,2.19336,22.2205,22.2205,0,0,1-2.96973,1.79688L638.67139,61.29q.86792-.44092,1.74756-.96.87963-.52,1.68017-1.09961a17.46887,17.46887,0,0,0,1.49121-1.21,9.93331,9.93331,0,0,0,1.20362-1.30176,6.19843,6.19843,0,0,0,.80664-1.375,3.6608,3.6608,0,0,0,.29345-1.42383,5.18237,5.18237,0,0,0-.18359-1.21q-.18311-.73242-.46436-1.57617-.28125-.843-.623-1.69824-.34278-.85548-.66016-1.56446l3.53223-1.53955a25.14831,25.14831,0,0,0,.93457,2.44385,9.71529,9.71529,0,0,0,.86181,1.564,2.96449,2.96449,0,0,0,.8003.8247,1.4414,1.4414,0,0,0,.76416.23828h.293v3.86231Z"/><path class="cls-7" d="M650.66016,51.40234h2.5791a25.57761,25.57761,0,0,0,3.63574-.23828,24.10074,24.10074,0,0,0,5.82959-1.57568q1.28905-.53173,2.53564-1.106a15.13341,15.13341,0,0,1-1.668-.57471q-.8379-.342-1.67432-.65966-.83788-.31788-1.66846-.544a6.25789,6.25789,0,0,0-1.6499-.22607,2.23553,2.23553,0,0,0-1.106.30566,5.60145,5.60145,0,0,0-.98388.69629,6.0185,6.0185,0,0,0-.73291.76416,4.73017,4.73017,0,0,0-.3667.50684l-2.82325-1.8208a11.66438,11.66438,0,0,1,1.1001-1.60108,8.98524,8.98524,0,0,1,1.39893-1.38721,6.87653,6.87653,0,0,1,1.6499-.97119,4.82329,4.82329,0,0,1,1.86377-.3667,6.92908,6.92908,0,0,1,1.44238.15284,12.29852,12.29852,0,0,1,1.436.397q.71484.24462,1.41113.55615.69726.31128,1.38135.6294.64746.30541,1.30762.605.65991.29955,1.35644.5498a11.08393,11.08393,0,0,0,1.4419.40967,8.13532,8.13532,0,0,0,1.57666.1709l-.30567,3.75195-1.73535.83105q-1.06275.5127-2.11426,1.05616-1.051.54492-2.13867,1.05175t-2.24854.96485a21.91743,21.91743,0,0,1-2.43212.79492,23.37489,23.37489,0,0,1-2.68848.53711,21.49724,21.49724,0,0,1-3.03076.20215h-2.5791Zm7.90722-9.97168-2.71289-2.71337,2.71289-2.7129,2.71338,2.7129Z"/><rect class="cls-8" x="513.21331" y="16.30747" width="184.33448" height="67.38507" rx="18.78545"/><rect class="cls-9" x="506.98539" y="10.12805" width="196.5643" height="79.7439" rx="25.42729"/></svg>