<svg xmlns="http://www.w3.org/2000/svg" width="299.67" height="287.49" viewBox="0 0 299.67 287.49"><defs><style>.cls-1{fill:#b2b3b5;}.cls-2{fill:#a5a7a9;}.cls-3{fill:#e5e6e6;}.cls-4{fill:#f2f2f3;}.cls-5{fill:#cccdce;}.cls-6{fill:#bfc0c2;}</style></defs><g id="Layer_2" data-name="Layer 2"><g id="Layer_2-2" data-name="Layer 2"><polygon class="cls-1" points="137.51 30 77.51 60 57.51 180 112.04 222.26 177.51 240 257.51 180 237.51 60 137.51 30"/><polygon class="cls-2" points="237.51 70 177.51 50 177.51 240 230.21 217.98 257.51 180 237.51 70"/><polygon class="cls-3" points="137.5 0 57.5 60 57.5 180 84.93 141.93 137.5 120 208.36 140.43 257.5 180 257.5 60 137.5 0"/><polygon class="cls-4" points="137.5 120 84.5 141 57.5 180 57.5 60 137.5 0 137.5 120"/><polygon class="cls-2" points="137.5 120 80 123.86 0 183.86 57.5 180 137.5 120"/><polygon class="cls-5" points="177.51 240 215.72 285.2 295.72 225.2 257.51 180 177.51 240"/><polygon class="cls-6" points="177.51 240 141.35 287.49 21.35 227.49 57.5 180 177.51 240"/><polygon class="cls-6" points="299.67 179 257.5 180 137.5 120 179.66 119 299.67 179"/></g></g></svg>