<svg xmlns="http://www.w3.org/2000/svg" width="264" height="66" viewBox="0 0 264 66">
    <g data-name="Group 8777" transform="translate(-158 -407)">
        <rect data-name="Rectangle 1345" width="264" height="66" rx="8" transform="translate(158 407)" style="fill:#1a1c1f"/>
        <path data-name="Path 12466" d="M12 24A12 12 0 0 1 3.516 3.515 11.918 11.918 0 0 1 12 0v12l10.734-5.367A12 12 0 0 1 12 24z" transform="translate(382 435)" style="fill:#87b0f8"/>
        <path data-name="Path 12717" d="M3.525-6.895.869-7.637l.313-.986 2.656.9-.078-2.843 1.016.01-.04 2.87 2.578-.947.322.986-2.666.82L6.65-4.58l-.83.605-1.591-2.353-1.553 2.334-.83-.586zm8.486 0-2.656-.742.313-.986 2.656.9-.078-2.842 1.016.01-.039 2.871 2.577-.949.322.986-2.666.82 1.68 2.246-.83.605-1.591-2.352-1.553 2.334-.83-.586zm8.486 0-2.656-.742.313-.986 2.656.9-.078-2.842 1.016.01-.039 2.871 2.578-.947.322.986-2.666.82 1.68 2.246-.83.605L21.2-6.328l-1.552 2.334-.83-.586zm13.35 0-2.656-.742.313-.986 2.656.9-.078-2.842 1.016.01-.039 2.871 2.578-.947.322.986-2.666.82 1.68 2.246-.83.605-1.592-2.354L33-3.994l-.83-.586zm8.486 0-2.656-.742.313-.986 2.656.9-.078-2.842 1.016.01-.039 2.871 2.578-.947.322.986-2.666.82 1.68 2.246-.83.605-1.592-2.354-1.553 2.334-.83-.586zm8.486 0-2.656-.742.313-.986 2.656.9-.078-2.842 1.016.01-.039 2.871 2.578-.947.322.986-2.666.82 1.68 2.246-.83.605-1.592-2.354-1.552 2.334-.83-.586z" transform="translate(174 456)" style="fill:#87b0f8"/>
        <path data-name="Path 12718" d="M2.443-7.869v1.529h1.2v.855h-1.2v3.85a.862.862 0 0 0 .185.627.667.667 0 0 0 .489.182 1.072 1.072 0 0 0 .223-.027 1.651 1.651 0 0 0 .205-.056l.155.792a1.02 1.02 0 0 1-.381.173 1.922 1.922 0 0 1-.5.067A1.5 1.5 0 0 1 1.705-.3a1.845 1.845 0 0 1-.416-1.333v-3.85H.281v-.857h1.008v-1.529zM8.777 0q-.059-.287-.091-.507a3.72 3.72 0 0 1-.038-.442 2.691 2.691 0 0 1-.841.765 2.15 2.15 0 0 1-1.116.307 2.072 2.072 0 0 1-1.508-.507 1.864 1.864 0 0 1-.519-1.4A1.637 1.637 0 0 1 5.4-3.2a3.434 3.434 0 0 1 2-.513h1.248v-.627a1.163 1.163 0 0 0-.34-.882 1.334 1.334 0 0 0-.961-.325 1.394 1.394 0 0 0-.908.281.844.844 0 0 0-.346.674L5-4.582l-.012-.035a1.517 1.517 0 0 1 .647-1.266 2.683 2.683 0 0 1 1.778-.574 2.618 2.618 0 0 1 1.734.548A1.941 1.941 0 0 1 9.8-4.33v3.053a5.942 5.942 0 0 0 .035.656A3.374 3.374 0 0 0 9.967 0zM6.861-.844a2.054 2.054 0 0 0 1.131-.322 1.532 1.532 0 0 0 .656-.734v-1.036H7.354a1.68 1.68 0 0 0-1.116.352 1.051 1.051 0 0 0-.419.826.869.869 0 0 0 .264.668 1.1 1.1 0 0 0 .778.246zM16.893-2.93a3.483 3.483 0 0 1-.659 2.212 2.178 2.178 0 0 1-1.814.841 2.3 2.3 0 0 1-1.1-.249 2.039 2.039 0 0 1-.771-.735L12.363 0h-.885v-9.141h1.154v3.551a2 2 0 0 1 .741-.645 2.272 2.272 0 0 1 1.034-.223 2.107 2.107 0 0 1 1.828.938 4.217 4.217 0 0 1 .656 2.467zm-1.154-.123a3.5 3.5 0 0 0-.4-1.778 1.321 1.321 0 0 0-1.222-.688 1.511 1.511 0 0 0-.9.261 1.839 1.839 0 0 0-.583.7v2.748a1.888 1.888 0 0 0 .583.732 1.5 1.5 0 0 0 .911.264 1.371 1.371 0 0 0 1.213-.58 2.664 2.664 0 0 0 .4-1.535zm2.3 0a4.231 4.231 0 0 1 .653-2.467 2.105 2.105 0 0 1 1.831-.937 2.27 2.27 0 0 1 .987.205 2.024 2.024 0 0 1 .735.6v-3.489H23.4V0h-.885l-.176-.8a2.057 2.057 0 0 1-.768.691 2.293 2.293 0 0 1-1.061.234 2.176 2.176 0 0 1-1.816-.841 3.494 3.494 0 0 1-.656-2.212zm1.154.123a2.691 2.691 0 0 0 .393 1.538 1.371 1.371 0 0 0 1.214.578 1.529 1.529 0 0 0 .867-.234 1.75 1.75 0 0 0 .574-.656v-2.96a1.777 1.777 0 0 0-.577-.624 1.525 1.525 0 0 0-.853-.231 1.319 1.319 0 0 0-1.228.686 3.539 3.539 0 0 0-.4 1.781zM27.744.123a2.682 2.682 0 0 1-2.13-.873 3.36 3.36 0 0 1-.765-2.3v-.25a3.289 3.289 0 0 1 .788-2.259 2.471 2.471 0 0 1 1.925-.894 2.3 2.3 0 0 1 1.907.791 3.259 3.259 0 0 1 .636 2.1v.609h-4.054l-.018.029a2.62 2.62 0 0 0 .422 1.55 1.474 1.474 0 0 0 1.289.595 2.9 2.9 0 0 0 1.028-.167 2.3 2.3 0 0 0 .759-.46l.451.75a2.774 2.774 0 0 1-.9.554 3.571 3.571 0 0 1-1.338.225zm-.182-5.672a1.255 1.255 0 0 0-1 .466 2.2 2.2 0 0 0-.483 1.192l.012.029h2.859v-.094a1.846 1.846 0 0 0-.34-1.143 1.228 1.228 0 0 0-1.047-.45zM35.3 0q-.059-.287-.091-.507a3.72 3.72 0 0 1-.038-.442 2.691 2.691 0 0 1-.841.765 2.15 2.15 0 0 1-1.116.308A2.072 2.072 0 0 1 31.7-.384a1.864 1.864 0 0 1-.519-1.4 1.637 1.637 0 0 1 .738-1.416 3.434 3.434 0 0 1 2-.513h1.254v-.627a1.163 1.163 0 0 0-.34-.882 1.334 1.334 0 0 0-.961-.325 1.394 1.394 0 0 0-.908.281.844.844 0 0 0-.346.674l-1.1.012-.012-.035a1.517 1.517 0 0 1 .647-1.266 2.683 2.683 0 0 1 1.778-.574 2.618 2.618 0 0 1 1.734.548 1.941 1.941 0 0 1 .656 1.579v3.053a5.942 5.942 0 0 0 .035.656 3.374 3.374 0 0 0 .13.619zm-1.919-.844a2.054 2.054 0 0 0 1.131-.322 1.532 1.532 0 0 0 .656-.738v-1.032h-1.295a1.68 1.68 0 0 0-1.116.352 1.051 1.051 0 0 0-.419.826.869.869 0 0 0 .264.668 1.1 1.1 0 0 0 .779.246zM39.246 0h-1.154v-9.141h1.154zm5.07-3.1a8.355 8.355 0 0 1 .824-3.683 6.826 6.826 0 0 1 2.39-2.791q.052.094.12.2l.115.188.12.188q.063.11.12.2a7.107 7.107 0 0 0-1.9 2.384 7.946 7.946 0 0 0-.71 3.36A7.55 7.55 0 0 0 48 2.63l-.537.814A8.2 8.2 0 0 1 45.177.621a8.308 8.308 0 0 1-.861-3.721zM51.693 0a3.1 3.1 0 0 1-.978-.136 1.733 1.733 0 0 1-.686-.417 1.284 1.284 0 0 1-.263-.37 2.015 2.015 0 0 1-.136-.391 1.9 1.9 0 0 1-.05-.368q-.005-.175-.005-.3v-.248q0-.206.008-.53.005-.323.005-.741t-.005-.871q0-.449-.01-.934t-.034-.939q-.023-.454-.057-.837t-.082-.629l1.025-.189q.047.266.081.652t.057.84q.023.454.037.947t.013.963v2.619a2.819 2.819 0 0 0 .018.331.435.435 0 0 0 .138.269.814.814 0 0 0 .357.188 2.077 2.077 0 0 0 .566.068h.1V0zm6.25-1.023V0h-.125a1.736 1.736 0 0 1-.686-.128 1.213 1.213 0 0 1-.5-.389 1.115 1.115 0 0 1-.913.5 1.474 1.474 0 0 1-.172-.01 4.465 4.465 0 0 1-2.017-.818 1.55 1.55 0 0 1-.438.423 2.351 2.351 0 0 1-1.4.423h-.1v-1.024h.11a1.625 1.625 0 0 0 1.294-.757 5.009 5.009 0 0 0 .381-.631q.162-.318.256-.509t.146-.292q.052-.1.076-.141l.039-.065a2.061 2.061 0 0 1 .55-.629 1.278 1.278 0 0 1 .785-.243 1.526 1.526 0 0 1 .577.1 1.561 1.561 0 0 1 .462.287 1.9 1.9 0 0 1 .352.425 2.99 2.99 0 0 1 .25.514 3.057 3.057 0 0 1 .151.563 4.39 4.39 0 0 1 .06.569 1.006 1.006 0 0 0 .057.308.8.8 0 0 0 .146.256.7.7 0 0 0 .23.175.7.7 0 0 0 .308.065zm-2.515-.031a1.054 1.054 0 0 0 .172.016.476.476 0 0 0 .423-.2.749.749 0 0 0 .11-.25 1.156 1.156 0 0 0 .026-.256v-.083a2.7 2.7 0 0 0-.07-.506 1.841 1.841 0 0 0-.172-.462 1.037 1.037 0 0 0-.284-.337.655.655 0 0 0-.407-.13q-.277 0-.595.584l-.25.514-.143.292-.068.138-.029.057a5.353 5.353 0 0 0 .712.417 2.6 2.6 0 0 0 .576.206zm2.306.031h.115a1.22 1.22 0 0 0 .553-.123 1.554 1.554 0 0 0 .436-.323 2.155 2.155 0 0 0 .331-.462 4.167 4.167 0 0 0 .245-.545 5.837 5.837 0 0 0 .177-.571q.073-.287.125-.543l1.033.219q-.042.125-.1.323t-.117.425q-.057.227-.1.464a2.556 2.556 0 0 0-.042.441 1.42 1.42 0 0 0 .026.274.731.731 0 0 0 .089.237.467.467 0 0 0 .172.167.551.551 0 0 0 .277.063.82.82 0 0 0 .477-.146 1.506 1.506 0 0 0 .376-.381 2.757 2.757 0 0 0 .287-.532 5.408 5.408 0 0 0 .206-.604q.086-.308.141-.6t.086-.5l1 .183-.026.167q-.031.172-.07.415t-.07.517a4.347 4.347 0 0 0-.031.488 2.269 2.269 0 0 0 .029.368 1.1 1.1 0 0 0 .094.308.635.635 0 0 0 .172.219.487.487 0 0 0 .263.1 1.8 1.8 0 0 0 .188.01 1.174 1.174 0 0 0 .3-.039.573.573 0 0 0 .266-.159.7.7 0 0 0 .17-.3 1.5 1.5 0 0 0 .052-.412 2.817 2.817 0 0 0-.081-.642q-.081-.344-.193-.676t-.235-.616q-.123-.284-.206-.451l.913-.48.1.2q.073.149.167.365t.193.49q.1.274.185.571a5.773 5.773 0 0 1 .141.61 3.538 3.538 0 0 1 .055.61 2.475 2.475 0 0 1-.125.811 1.63 1.63 0 0 1-.376.618 1.641 1.641 0 0 1-.626.391 2.437 2.437 0 0 1-.85.136h-.037a1.335 1.335 0 0 1-.4-.063 1.839 1.839 0 0 1-.383-.17 1.986 1.986 0 0 1-.339-.25A1.647 1.647 0 0 1 62.5-.73a2.488 2.488 0 0 1-.71.579 1.744 1.744 0 0 1-.84.214 1.7 1.7 0 0 1-.4-.05 1.685 1.685 0 0 1-.394-.149 1.534 1.534 0 0 1-.342-.245 1.023 1.023 0 0 1-.237-.339 2.577 2.577 0 0 1-.334.3 2.028 2.028 0 0 1-.386.227 2.111 2.111 0 0 1-.457.143 2.9 2.9 0 0 1-.556.05h-.11zm5.16-5.118.845-.845.856.856-.845.845zM60.6-6.146 61.45-7l.856.856-.845.85zm1.257-1.57.772-.772.777.777-.772.772zm15.521 3.375a2.742 2.742 0 0 1 .548-.057q.073 0 .271.013a2.88 2.88 0 0 1 .449.07 2.712 2.712 0 0 1 .4.12l.17.068-.454.955-.094-.042a1.917 1.917 0 0 0-.261-.07 2.864 2.864 0 0 0-.37-.05h-.078a1.912 1.912 0 0 0-.359.034 1.291 1.291 0 0 0-.454.138 2.5 2.5 0 0 0-.457.3 2.885 2.885 0 0 0-.412.412 2.483 2.483 0 0 0-.313.483 1.691 1.691 0 0 0-.159.506.99.99 0 0 0-.016.172.908.908 0 0 0 .052.308.62.62 0 0 0 .237.305 1.61 1.61 0 0 0 .4.2 4.383 4.383 0 0 0 .5.136q.269.057.532.133a3.205 3.205 0 0 1 .5.188 1.232 1.232 0 0 1 .4.295 1.106 1.106 0 0 1 .235.454 1.186 1.186 0 0 1 .037.308 2.113 2.113 0 0 1-.037.37 1.979 1.979 0 0 1-.457.942 3.017 3.017 0 0 1-.973.728 5.076 5.076 0 0 1-1.3.446 7.865 7.865 0 0 1-1.583.149 4.971 4.971 0 0 1-1.745-.282 3.087 3.087 0 0 1-1.244-.83 2.8 2.8 0 0 1-.6-1.137 3.373 3.373 0 0 1-.115-.9 4.422 4.422 0 0 1 .031-.517q.042-.339.115-.7t.159-.707q.086-.344.177-.655t.167-.55q.076-.24.125-.386t.06-.167l1 .35q-.235.736-.438 1.456a10.328 10.328 0 0 0-.3 1.487 2.965 2.965 0 0 0-.026.407v.037a2.192 2.192 0 0 0 .042.415 2.089 2.089 0 0 0 .138.438 1.554 1.554 0 0 0 .269.415 1.993 1.993 0 0 0 .882.563 4.083 4.083 0 0 0 1.31.188 6.927 6.927 0 0 0 1.336-.117 4.46 4.46 0 0 0 1.015-.313 2.132 2.132 0 0 0 .655-.443.875.875 0 0 0 .261-.514v-.027a.273.273 0 0 0-.17-.243 2.144 2.144 0 0 0-.451-.167l-.64-.158A3.356 3.356 0 0 1 75.7.383a1.947 1.947 0 0 1-.548-.389 1.21 1.21 0 0 1-.316-.631 2.733 2.733 0 0 1-.052-.527q0-.151.029-.43a2.653 2.653 0 0 1 .175-.66 3.327 3.327 0 0 1 .386-.723 3.5 3.5 0 0 1 .55-.616 3.4 3.4 0 0 1 .681-.467 3.106 3.106 0 0 1 .773-.281zM82.737-.36a3.027 3.027 0 0 1-.292 1.3 4.721 4.721 0 0 1-.775 1.16 6.813 6.813 0 0 1-1.1.978 9.534 9.534 0 0 1-1.278.772l-.449-.923q.376-.193.746-.425a7.114 7.114 0 0 0 .7-.5 6.03 6.03 0 0 0 .605-.561 3.5 3.5 0 0 0 .467-.618 2.706 2.706 0 0 0 .284-.673 1.947 1.947 0 0 0 .068-.511 1.659 1.659 0 0 0-.01-.193q-.037-.3-.112-.639t-.164-.67q-.089-.329-.177-.618t-.151-.483l.981-.3q.2.605.386 1.03a3.685 3.685 0 0 0 .386.694 1.41 1.41 0 0 0 .415.394.937.937 0 0 0 .477.125h.083V0h-.089q-.073 0-.188-.005a1.215 1.215 0 0 1-.253-.042 1.265 1.265 0 0 1-.282-.115 1.084 1.084 0 0 1-.274-.219zm1.414-.663h.605q.3 0 .558-.013a1.964 1.964 0 0 0 .464-.076 1.1 1.1 0 0 0 .365-.185.934.934 0 0 0 .261-.342 1.012 1.012 0 0 0 .078-.277 1.663 1.663 0 0 0 .018-.234q0-.068-.01-.206a2.626 2.626 0 0 0-.068-.381 3.393 3.393 0 0 0-.167-.509L85.8-4.362l.929-.459s.016.039.047.107l.123.274c.051.115.105.248.164.4s.115.312.167.483a5.827 5.827 0 0 1 .27 1.334q.005.083.005.167a2.078 2.078 0 0 1-.157.835 2 2 0 0 1-.383.59 1.787 1.787 0 0 1-.524.376 2.417 2.417 0 0 1-.665.2 5.17 5.17 0 0 1-.8.057h-.83zm2.536 2.89-.85.85-.856-.856.85-.85zm3.877-5.259q.073.245.146.483t.13.477l.128.5q.065.25.12.5.055.248.091.488a3.119 3.119 0 0 1 .037.47 2.927 2.927 0 0 1-.133.879 3.812 3.812 0 0 1-.37.822 4.8 4.8 0 0 1-.563.757 6.907 6.907 0 0 1-.71.678 7.733 7.733 0 0 1-.809.587 9.036 9.036 0 0 1-.863.483l-.454-.918a8.5 8.5 0 0 0 1.064-.629 5.969 5.969 0 0 0 .921-.78 3.865 3.865 0 0 0 .65-.9 2.112 2.112 0 0 0 .245-.981 2.6 2.6 0 0 0-.034-.407q-.034-.214-.086-.438t-.115-.449q-.063-.224-.12-.438-.125-.438-.266-.877zM95.1 0a3.1 3.1 0 0 1-.978-.136 1.733 1.733 0 0 1-.686-.417 1.284 1.284 0 0 1-.263-.37 2.014 2.014 0 0 1-.136-.391 1.9 1.9 0 0 1-.05-.368q-.005-.175-.005-.3v-.248q0-.206.008-.53.005-.323.005-.741t-.005-.871q0-.449-.01-.934t-.034-.939q-.023-.454-.057-.837t-.081-.629l1.021-.189q.047.266.081.652t.057.84q.023.454.037.947t.013.963v2.619a2.818 2.818 0 0 0 .018.331.435.435 0 0 0 .138.269.814.814 0 0 0 .357.188 2.077 2.077 0 0 0 .566.068h.1V0zM95-1.023h.652q.313 0 .652-.008a4.25 4.25 0 0 0 .647-.063 2.318 2.318 0 0 0 .563-.172.944.944 0 0 0 .4-.337 1.282 1.282 0 0 0 .2-.574q.005-.068.005-.136a2.106 2.106 0 0 0-.073-.527 1.937 1.937 0 0 0-.284-.545 7.447 7.447 0 0 0-.561-.71q-.334-.378-.746-.775t-.84-.741l.12-1.07 4.289-1.837.4.95-3.736 1.57q.256.219.558.49a8.135 8.135 0 0 1 .6.6 6.458 6.458 0 0 1 .652.837 4.385 4.385 0 0 1 .4.759 3.124 3.124 0 0 1 .188.678 2.676 2.676 0 0 1 .031.4q0 .11-.018.3a1.951 1.951 0 0 1-.1.43 2.662 2.662 0 0 1-.19.438 2.126 2.126 0 0 1-1.57 1.028 2.367 2.367 0 0 1-.457.038h-1.79zm9.8 4.837-.193-4.837v-.146a1.2 1.2 0 0 1 .039-.261 1.3 1.3 0 0 1 .125-.308.9.9 0 0 1 .256-.287 1.077 1.077 0 0 1 .164-.1.874.874 0 0 1 .222-.076 1.411 1.411 0 0 1 .219-.016h.123a1.305 1.305 0 0 1 .279.055q.083-.235.2-.5a5.416 5.416 0 0 1 .258-.511 4.217 4.217 0 0 1 .318-.477 2.242 2.242 0 0 1 .386-.394 1.854 1.854 0 0 1 .457-.266 1.266 1.266 0 0 1 .464-.083h.057a1.873 1.873 0 0 1 .767.185 1.673 1.673 0 0 1 .595.5 2 2 0 0 1 .3.574 2.9 2.9 0 0 1 .143.689q.01.146.01.287a3.857 3.857 0 0 1-.039.509 2.2 2.2 0 0 1-.177.6 1.847 1.847 0 0 1-.368.545 1.285 1.285 0 0 1-.558.334.826.826 0 0 1-.136.01 1.581 1.581 0 0 1-.227-.021 2.706 2.706 0 0 1-.368-.091q-.23-.07-.519-.183t-.665-.263l-1.283-.475a.216.216 0 0 1 0 .029.751.751 0 0 0 0 .081q0 .068.005.2t.013.37l.021.6.031.882.044 1.223q.026.701.063 1.62zm2.53-5.483q.24.1.467.19l.425.159a3.679 3.679 0 0 0 .363.115q.164.042.2.047a1.142 1.142 0 0 0 .128-.31 2.475 2.475 0 0 0 .07-.394 2.364 2.364 0 0 0 .017-.272q0-.068-.01-.2a1.309 1.309 0 0 0-.057-.284 1.3 1.3 0 0 0-.19-.415.9.9 0 0 0-.227-.222.571.571 0 0 0-.217-.089 1.116 1.116 0 0 0-.159-.016h-.01a.6.6 0 0 0-.4.232 2.914 2.914 0 0 0-.438.655 3.3 3.3 0 0 0-.164.347l-.128.321zM113.775 0a3.1 3.1 0 0 1-.978-.136 1.733 1.733 0 0 1-.686-.417 1.284 1.284 0 0 1-.263-.37 2.014 2.014 0 0 1-.136-.391 1.9 1.9 0 0 1-.05-.368q-.005-.175-.005-.3v-.248q0-.206.008-.53.005-.323.005-.741t-.005-.871q0-.449-.01-.934t-.034-.939q-.023-.454-.057-.837t-.081-.629l1.023-.188q.047.266.081.652t.057.84q.023.454.037.947t.013.963v2.619a2.818 2.818 0 0 0 .018.331.435.435 0 0 0 .138.269.814.814 0 0 0 .357.188 2.077 2.077 0 0 0 .566.068h.1V0zm-.1-1.023h.605q.3 0 .558-.013a1.964 1.964 0 0 0 .464-.076 1.1 1.1 0 0 0 .365-.185.934.934 0 0 0 .261-.342 1.012 1.012 0 0 0 .072-.276 1.663 1.663 0 0 0 .016-.235q0-.068-.01-.206a2.626 2.626 0 0 0-.068-.381 3.393 3.393 0 0 0-.167-.509l-.454-1.117.929-.459s.016.039.047.107l.123.274c.051.115.105.248.164.4s.115.312.167.483a5.827 5.827 0 0 1 .271 1.336q.005.083.005.167a2.078 2.078 0 0 1-.157.835 2 2 0 0 1-.383.59 1.787 1.787 0 0 1-.524.376 2.417 2.417 0 0 1-.665.2 5.17 5.17 0 0 1-.8.057h-.83zm2.515-5.52-.85.85-.856-.856.85-.85zm5.432 3.443a8.267 8.267 0 0 1-.866 3.72 8.147 8.147 0 0 1-2.285 2.823l-.136-.209-.13-.2q-.162-.25-.271-.4a7.55 7.55 0 0 0 2.609-5.682 7.946 7.946 0 0 0-.71-3.36 7.107 7.107 0 0 0-1.9-2.384l.12-.2.12-.188q.151-.25.235-.386a6.939 6.939 0 0 1 2.379 2.8 8.31 8.31 0 0 1 .835 3.666z" transform="translate(174 430)" style="fill:#fff"/>
    </g>
</svg>
