<svg xmlns="http://www.w3.org/2000/svg" width="24" height="24" viewBox="0 0 24 24">
    <defs>
        <radialGradient id="radial-gradient" cx="28.985" cy=".926" r="0" gradientUnits="objectBoundingBox">
            <stop offset="0" stop-color="#fff" stop-opacity=".102"/>
            <stop offset="1" stop-color="#fff" stop-opacity="0"/>
        </radialGradient>
        <style>
            .cls-2{fill:#616161}.cls-3{fill:#9e9e9e}.cls-5{fill:rgba(33,33,33,.1)}.cls-8{fill:#bdbdbd}
        </style>
    </defs>
    <g id="baseline-gauth" transform="rotate(180 12 12)">
        <path id="Path_1968" data-name="Path 1968" d="M0 0h24v24H0z" style="fill:none"/>
        <g id="Group_8773" data-name="Group 8773" transform="rotate(180 11.167 11.167)">
            <circle id="Ellipse_1147" data-name="Ellipse 1147" class="cls-2" cx="11" cy="11" r="11" transform="translate(-.666 -.666)"/>
            <path id="Path_9042" data-name="Path 9042" class="cls-3" d="M-858.526-391.532a6.568 6.568 0 0 1-6.569-6.569 6.569 6.569 0 0 1 6.569-6.569 6.551 6.551 0 0 1 4.645 1.924l2.654-2.654a10.291 10.291 0 0 0-7.3-3.024 10.323 10.323 0 0 0-10.322 10.324 10.323 10.323 0 0 0 10.323 10.323 10.3 10.3 0 0 0 7.3-3.023l-2.654-2.654a6.557 6.557 0 0 1-4.646 1.922z" transform="translate(868.86 408.435)"/>
            <path id="Path_9043" data-name="Path 9043" d="M-772.118-318.263h-3.282a3.285 3.285 0 0 0-3.285-3.285 3.284 3.284 0 0 0-3.284 3.285 3.274 3.274 0 0 0 .917 2.276l4.067 4.067a6.571 6.571 0 0 0 4.871-6.346z" transform="translate(789.021 328.597)" style="fill:#424242"/>
            <path id="Path_9044" data-name="Path 9044" class="cls-2" d="M-711.843-281h-3.757a6.572 6.572 0 0 1-4.87 6.346l2.9 2.9a10.323 10.323 0 0 0 5.727-9.246z" transform="translate(732.5 291.334)"/>
            <path id="Path_9045" data-name="Path 9045" class="cls-5" d="M-858.526-271.465a10.323 10.323 0 0 1-10.323-10.264v.059a10.323 10.323 0 0 0 10.323 10.323A10.323 10.323 0 0 0-848.2-281.67v-.059a10.324 10.324 0 0 1-10.322 10.264z" transform="translate(868.86 292.004)"/>
            <path id="Path_9046" data-name="Path 9046" d="m-720.457-274.654.091.091a6.57 6.57 0 0 0 4.779-6.32V-281a6.572 6.572 0 0 1-4.87 6.346z" transform="translate(732.49 291.334)" style="fill:rgba(255,255,255,.05)"/>
            <g id="Group_4150" data-name="Group 4150" transform="translate(9.395 9.395)">
                <path id="Path_9047" data-name="Path 9047" class="cls-3" d="M-743.626-292.587h-8.447a.938.938 0 0 0-.938.938.938.938 0 0 0 .938.938h8.446a.938.938 0 0 0 .938-.938.937.937 0 0 0-.937-.938z" transform="translate(753.011 292.587)"/>
                <path id="Path_9048" data-name="Path 9048" d="M-743.626-292.587h-8.447a.938.938 0 0 0-.938.938.938.938 0 0 0 .938.938h8.446a.938.938 0 0 0 .938-.938.937.937 0 0 0-.937-.938z" transform="translate(753.011 292.587)" style="opacity:.5;isolation:isolate;fill:#bdbdbd"/>
            </g>
            <g id="Group_4152" data-name="Group 4152" transform="translate(-.2 -.2)">
                <g id="Group_4151" data-name="Group 4151" transform="translate(1.384 1.384)">
                    <circle id="Ellipse_1148" data-name="Ellipse 1148" class="cls-8" cx=".704" cy=".704" r=".704" transform="translate(0 8.447)"/>
                    <circle id="Ellipse_1149" data-name="Ellipse 1149" class="cls-8" cx=".704" cy=".704" r=".704" transform="translate(8.447)"/>
                    <circle id="Ellipse_1150" data-name="Ellipse 1150" class="cls-8" cx=".704" cy=".704" r=".704" transform="translate(8.447 16.892)"/>
                    <circle id="Ellipse_1151" data-name="Ellipse 1151" class="cls-8" cx=".704" cy=".704" r=".704" transform="translate(2.464 2.474)"/>
                    <circle id="Ellipse_1152" data-name="Ellipse 1152" class="cls-8" cx=".704" cy=".704" r=".704" transform="rotate(-87.42 9.482 6.63)"/>
                </g>
                <circle id="Ellipse_1153" data-name="Ellipse 1153" cx=".704" cy=".704" r=".704" transform="translate(15.813 15.813)" style="fill:#757575"/>
                <path id="Path_9049" data-name="Path 9049" d="M-752.069-292.465h8.446a.937.937 0 0 1 .935.88v-.059a.938.938 0 0 0-.938-.938h-8.446a.938.938 0 0 0-.938.938.479.479 0 0 0 0 .059.936.936 0 0 1 .941-.88z" transform="translate(762.603 302.178)" style="fill:rgba(255,255,255,.2)"/>
                <path id="Path_9050" data-name="Path 9050" d="M-742.688-280.281a.939.939 0 0 1-.935.88h-8.446a.937.937 0 0 1-.935-.88.474.474 0 0 0 0 .058.938.938 0 0 0 .938.938h8.446a.938.938 0 0 0 .938-.938.451.451 0 0 0-.006-.058z" transform="translate(762.603 290.873)" style="fill:rgba(33,33,33,.2)"/>
                <path id="Path_9051" data-name="Path 9051" class="cls-5" d="M-815.941-370.262a6.551 6.551 0 0 1 4.645 1.924l2.712-2.714-.058-.059-2.654 2.654a6.551 6.551 0 0 0-4.645-1.924 6.568 6.568 0 0 0-6.569 6.569v.059a6.568 6.568 0 0 1 6.568-6.51z" transform="translate(826.475 374.345)"/>
                <circle id="Ellipse_1154" data-name="Ellipse 1154" cx="11" cy="11" r="11" transform="translate(-.467 -.466)" style="fill:url(#radial-gradient)"/>
            </g>
        </g>
    </g>
</svg>
