<svg xmlns="http://www.w3.org/2000/svg" xmlns:xlink="http://www.w3.org/1999/xlink" width="297.643" height="93.731" viewBox="0 0 297.643 93.731"><defs><linearGradient id="a" y1="0.5" x2="1" y2="0.5" gradientUnits="objectBoundingBox"><stop offset="0" stop-color="#f8f9fb"/><stop offset="1" stop-color="#eaecef"/></linearGradient></defs><g transform="translate(15)"><circle cx="28.965" cy="28.965" r="28.965" transform="translate(-15 17.863)" fill="url(#a)"/><circle cx="28.965" cy="28.965" r="28.965" transform="translate(52.93 17.863)" fill="url(#a)"/><circle cx="28.965" cy="28.965" r="28.965" transform="translate(120.86 17.863)" fill="url(#a)"/><path d="M-1016.674-119.837a46.866,46.866,0,0,0-46.866,46.865,46.865,46.865,0,0,0,46.866,46.865,46.865,46.865,0,0,0,46.865-46.865A46.866,46.866,0,0,0-1016.674-119.837Zm-.12,71.5a3.791,3.791,0,0,1-3.791-3.791,3.791,3.791,0,0,1,3.791-3.791A3.791,3.791,0,0,1-1013-52.132,3.791,3.791,0,0,1-1016.794-48.341Zm6.987-24.354c-3.458,2.166-4.685,3.774-4.685,8.483a2.166,2.166,0,0,1-2.166,2.166,2.166,2.166,0,0,1-2.166-2.166c0-5.866,1.758-9.047,6.718-12.155,3.832-2.4,5.467-5.073,5.467-8.935a10.03,10.03,0,0,0-10.018-10.018A10.03,10.03,0,0,0-1026.677-85.3a2.166,2.166,0,0,1-2.166,2.166,2.166,2.166,0,0,1-2.166-2.166,14.367,14.367,0,0,1,14.351-14.351A14.367,14.367,0,0,1-1002.308-85.3C-1002.308-79.906-1004.69-75.9-1009.807-72.695Z" transform="translate(1252.452 119.837)" fill="url(#a)"/></g></svg>