<svg xmlns="http://www.w3.org/2000/svg" width="36" height="36" viewBox="0 0 36 36">
    <defs>
        <clipPath id="rcd58h42na">
            <path data-name="Rectangle 1339" style="fill:#cacccf" d="M0 0h26.655v31.718H0z"/>
        </clipPath>
    </defs>
    <path data-name="Path 1968" d="M0 0h36v36H0z" style="fill:none" transform="rotate(180 18 18)"/>
    <g data-name="Group 8775">
        <g data-name="Group 4181" style="clip-path:url(#rcd58h42na)" transform="translate(4.673 2.142)">
            <path data-name="Path 9069" d="M1.936 0A1.935 1.935 0 0 0 0 1.934v8.134a1.936 1.936 0 0 0 3.872 0V1.934A1.935 1.935 0 0 0 1.936 0" transform="translate(0 10.297)" style="fill:#cacccf"/>
            <path data-name="Path 9070" d="M3.872 1.934a1.936 1.936 0 0 0-3.872 0v8.134a1.936 1.936 0 0 0 3.872 0V1.934z" transform="translate(22.783 10.297)" style="fill:#cacccf"/>
            <path data-name="Path 9071" d="M.095 0H0v12.764A1.941 1.941 0 0 0 1.936 14.7h1.63v4.448a1.936 1.936 0 1 0 3.872 0V14.7h2.642v4.448a1.936 1.936 0 0 0 3.873 0V14.7h1.631a1.942 1.942 0 0 0 1.937-1.936V0H.095z" transform="translate(4.567 10.635)" style="fill:#cacccf"/>
            <path data-name="Path 9072" d="M4.759 5.212a.823.823 0 1 1-.823.824.825.825 0 0 1 .823-.824m7.972 0a.823.823 0 1 1-.823.824.824.824 0 0 1 .823-.824m4.759 4.744v-.932a6.829 6.829 0 0 0-.119-.782 7.907 7.907 0 0 0-4.238-5.312L14.471.464a.315.315 0 0 0-.554-.3l-1.353 2.5a9.753 9.753 0 0 0-7.632.011L3.572.164a.314.314 0 0 0-.553.3l1.343 2.479A7.959 7.959 0 0 0 .215 7.965 6.975 6.975 0 0 0 0 9.691v.265z" transform="translate(4.583)" style="fill:#cacccf"/>
        </g>
    </g>
</svg>
