<svg xmlns="http://www.w3.org/2000/svg" width="751.568" height="526.226" viewBox="0 0 751.568 526.226">
    <defs>
        <style>
            .cls-1{fill:#e5e6e7}
        </style>
    </defs>
    <g id="Group_4909" data-name="Group 4909" transform="translate(-1420.5 -237)">
        <g id="Group_4906" data-name="Group 4906" transform="translate(1576.743 301.24)">
            <path id="Path_12171" data-name="Path 12171" class="cls-1" d="M1645.92 452.587a208.8 208.8 0 0 1 91.967-112.945 204.8 204.8 0 0 1 68.059-24.893 200 200 0 0 1 137.171 25.512 195.748 195.748 0 0 1 52.033 45.808 189.939 189.939 0 0 1 41.431 126.783 189.036 189.036 0 0 0-14.538-64.612 182.951 182.951 0 0 0-35.733-54.519 181.118 181.118 0 0 0-51.632-38.086 178.233 178.233 0 0 0-60.689-17.243 175.346 175.346 0 0 0-31.318-.263 170.488 170.488 0 0 0-127.919 73.924 167.332 167.332 0 0 0-24 53.847z" transform="translate(-1608.653 -311.833)"/>
            <g id="Group_4905" data-name="Group 4905" transform="translate(0 129.381)">
                <path id="Path_12172" data-name="Path 12172" class="cls-1" d="m1602.507 462.549 123.583 19.737-71.649 51.9z" transform="translate(-1602.507 -462.549)"/>
            </g>
        </g>
        <g id="Group_4908" data-name="Group 4908" transform="translate(1628.515 502.258)">
            <path id="Path_12173" data-name="Path 12173" class="cls-1" d="M2053.635 606.265a208.808 208.808 0 0 1-91.967 112.945 204.8 204.8 0 0 1-68.059 24.893 200 200 0 0 1-137.171-25.512 195.756 195.756 0 0 1-52.033-45.808A189.943 189.943 0 0 1 1662.974 546a189.042 189.042 0 0 0 14.538 64.612 182.952 182.952 0 0 0 35.733 54.519 181.12 181.12 0 0 0 51.632 38.086 178.235 178.235 0 0 0 60.689 17.243 175.348 175.348 0 0 0 31.318.263A170.488 170.488 0 0 0 1984.8 646.8a167.339 167.339 0 0 0 24-53.847z" transform="translate(-1662.817 -545.999)"/>
            <g id="Group_4907" data-name="Group 4907" transform="translate(304.501)">
                <path id="Path_12174" data-name="Path 12174" class="cls-1" d="M2141.114 617.638 2017.53 597.9l71.649-51.9z" transform="translate(-2017.53 -545.999)"/>
            </g>
        </g>
        <path id="Path_12175" data-name="Path 12175" class="cls-1" d="M1948.532 509.3c3.331-22.272-13.625-34.244-36.811-42.23l7.522-30.169-18.365-4.576-7.322 29.374c-4.828-1.2-9.786-2.338-14.714-3.464l7.375-29.568-18.353-4.576-7.526 30.159c-4-.91-7.919-1.809-11.726-2.756l.022-.094-25.326-6.324-4.885 19.615s13.625 3.123 13.338 3.315c7.437 1.856 8.781 6.779 8.558 10.681l-20.609 82.649c-.909 2.259-3.216 5.65-8.415 4.363.184.266-13.347-3.332-13.347-3.332l-9.118 21.022 23.9 5.958c4.446 1.115 8.8 2.281 13.093 3.378l-7.6 30.515 18.343 4.576 7.526-30.191a704.01 704.01 0 0 0 14.636 3.8l-7.5 30.048 18.365 4.576 7.6-30.458c31.316 5.927 54.863 3.537 64.774-24.789 7.986-22.8-.4-35.958-16.873-44.536 12-2.768 21.038-10.66 23.448-26.964h-.006zm-41.959 58.837c-5.675 22.805-44.073 10.477-56.521 7.386l10.084-40.427c12.448 3.108 52.369 9.257 46.438 33.041zm5.679-59.167c-5.177 20.743-37.135 10.2-47.5 7.62l9.143-36.665c10.366 2.584 43.752 7.408 38.36 29.045z" transform="translate(-52.139 -26.484)"/>
        <circle id="Ellipse_1297" data-name="Ellipse 1297" class="cls-1" cx="17.169" cy="17.169" r="17.169" transform="translate(1420.5 421.136)"/>
        <circle id="Ellipse_1298" data-name="Ellipse 1298" class="cls-1" cx="17.169" cy="17.169" r="17.169" transform="translate(1629.531 237)"/>
        <circle id="Ellipse_1299" data-name="Ellipse 1299" class="cls-1" cx="17.169" cy="17.169" r="17.169" transform="translate(1525.659 542.606)"/>
        <circle id="Ellipse_1300" data-name="Ellipse 1300" class="cls-1" cx="17.169" cy="17.169" r="17.169" transform="translate(2033.858 302.242)"/>
        <circle id="Ellipse_1301" data-name="Ellipse 1301" class="cls-1" cx="17.169" cy="17.169" r="17.169" transform="translate(2137.73 427.574)"/>
        <circle id="Ellipse_1302" data-name="Ellipse 1302" class="cls-1" cx="17.169" cy="17.169" r="17.169" transform="translate(2064.762 676.523)"/>
        <circle id="Ellipse_1303" data-name="Ellipse 1303" class="cls-1" cx="17.169" cy="17.169" r="17.169" transform="translate(1629.531 728.888)"/>
    </g>
</svg>
