<svg xmlns="http://www.w3.org/2000/svg" width="82.72" height="30" viewBox="0 0 82.72 30">
  <g id="Group_118" data-name="Group 118" transform="translate(-2009.629 -2745.702)">
    <path id="Path_2609" data-name="Path 2609" d="M-5553.354-5426.414h-9a10.157,10.157,0,0,0,.273-2.348v-17.554h-3.581l.02,17.554a6.76,6.76,0,0,1-.558,2.729,7.343,7.343,0,0,1-1.517,2.251,7.129,7.129,0,0,1-2.241,1.526,6.771,6.771,0,0,1-2.729.558,6.839,6.839,0,0,1-2.74-.558,7.093,7.093,0,0,1-2.25-1.526,7.325,7.325,0,0,1-1.517-2.251,6.76,6.76,0,0,1-.558-2.729h-3.562a10.338,10.338,0,0,0,.831,4.139,10.627,10.627,0,0,0,2.28,3.366,10.828,10.828,0,0,0,3.376,2.27,10.327,10.327,0,0,0,4.139.832,10.516,10.516,0,0,0,2.651-.333,10.462,10.462,0,0,0,2.407-.949,10.805,10.805,0,0,0,2.074-1.478,10.3,10.3,0,0,0,1.654-1.917h12.348a1.719,1.719,0,0,0,1.263-.519,1.718,1.718,0,0,0,.519-1.262v-12.544h-3.582Z" transform="translate(7592.944 8192.018)" fill="#222"/>
    <path id="Path_2610" data-name="Path 2610" d="M-5112.474-5022.369a1.9,1.9,0,0,0-.616-.411,1.97,1.97,0,0,0-.763-.146,1.908,1.908,0,0,0-1.39.558,1.88,1.88,0,0,0-.567,1.4,1.91,1.91,0,0,0,.147.744,1.892,1.892,0,0,0,.411.617,2,2,0,0,0,.626.42,1.932,1.932,0,0,0,.773.157,1.866,1.866,0,0,0,.763-.157,2.029,2.029,0,0,0,.616-.42,1.894,1.894,0,0,0,.411-.617,1.918,1.918,0,0,0,.146-.744,2.041,2.041,0,0,0-.146-.773A1.861,1.861,0,0,0-5112.474-5022.369Z" transform="translate(7154.265 7794.734)" fill="#fbd01c"/>
    <path id="Path_2611" data-name="Path 2611" d="M-5193.406-5022.369a1.9,1.9,0,0,0-.617-.411,1.968,1.968,0,0,0-.763-.146,1.908,1.908,0,0,0-1.39.558,1.88,1.88,0,0,0-.567,1.4,1.918,1.918,0,0,0,.146.744,1.909,1.909,0,0,0,.411.617,2,2,0,0,0,.626.42,1.935,1.935,0,0,0,.773.157,1.864,1.864,0,0,0,.763-.157,2.037,2.037,0,0,0,.617-.42,1.908,1.908,0,0,0,.411-.617,1.91,1.91,0,0,0,.147-.744,2.032,2.032,0,0,0-.147-.773A1.874,1.874,0,0,0-5193.406-5022.369Z" transform="translate(7230.208 7794.734)" fill="#fbd01c"/>
    <path id="Path_2612" data-name="Path 2612" d="M-4527.032-5022.927a1.874,1.874,0,0,0-1.379.558,1.9,1.9,0,0,0-.558,1.4,1.91,1.91,0,0,0,.147.744,1.892,1.892,0,0,0,.411.617,2.031,2.031,0,0,0,.617.42,1.862,1.862,0,0,0,.763.157,1.865,1.865,0,0,0,.764-.157,2.029,2.029,0,0,0,.616-.42,2.036,2.036,0,0,0,.421-.617,1.809,1.809,0,0,0,.156-.744,1.882,1.882,0,0,0-.567-1.4A1.908,1.908,0,0,0-4527.032-5022.927Z" transform="translate(6603.608 7794.734)" fill="#fbd01c"/>
    <path id="Path_2613" data-name="Path 2613" d="M-4384.954-5411.578a2.025,2.025,0,0,0,.616.421,1.853,1.853,0,0,0,.763.156,1.858,1.858,0,0,0,.764-.156,2.043,2.043,0,0,0,.616-.421,1.9,1.9,0,0,0,.411-.616,1.92,1.92,0,0,0,.146-.744,1.888,1.888,0,0,0-.558-1.409,1.893,1.893,0,0,0-1.38-.548,1.889,1.889,0,0,0-1.379.548,1.889,1.889,0,0,0-.558,1.409,1.912,1.912,0,0,0,.147.744A1.879,1.879,0,0,0-4384.954-5411.578Z" transform="translate(6468.997 8162.534)" fill="#fbd01c"/>
    <path id="Path_2614" data-name="Path 2614" d="M-4949.4-5289.717h-10.078v-10.744h-3.562v10.744h-6.105a14.236,14.236,0,0,0-.548-2.035,10.155,10.155,0,0,0-1.2-2.368,12.846,12.846,0,0,0-2.123-2.388,13.177,13.177,0,0,0-3.278-2.084,21.819,21.819,0,0,0-4.7-1.478,31.622,31.622,0,0,0-6.37-.567v3.581a29.278,29.278,0,0,1,4.892.362,19.708,19.708,0,0,1,3.679.959,11.4,11.4,0,0,1,2.632,1.37,10.113,10.113,0,0,1,1.761,1.585,7.39,7.39,0,0,1,1.077,1.614,8.933,8.933,0,0,1,.558,1.448h-18.943v3.581h44.109a1.72,1.72,0,0,0,1.263-.519,1.72,1.72,0,0,0,.519-1.262v-12.544h-3.582Z" transform="translate(7037.821 8055.321)" fill="#222"/>
    <path id="Path_2615" data-name="Path 2615" d="M-4301.263-5414.347a1.893,1.893,0,0,0-1.38-.548,1.893,1.893,0,0,0-1.38.548,1.89,1.89,0,0,0-.558,1.409,1.92,1.92,0,0,0,.146.744,1.9,1.9,0,0,0,.411.616,2.037,2.037,0,0,0,.616.421,1.858,1.858,0,0,0,.764.156,1.853,1.853,0,0,0,.763-.156,2.041,2.041,0,0,0,.617-.421,1.892,1.892,0,0,0,.41-.616,1.912,1.912,0,0,0,.147-.744A1.892,1.892,0,0,0-4301.263-5414.347Z" transform="translate(6393.055 8162.534)" fill="#fbd01c"/>
  </g>
</svg>
