<svg xmlns="http://www.w3.org/2000/svg" width="104.315" height="102.86" viewBox="0 0 104.315 102.86">
    <defs>
        <style>
            .cls-1{fill:#f0b90b}
        </style>
    </defs>
    <g id="Group_3" transform="translate(0 -4)">
        <path id="Path_2013" d="M81.486 51.918l.01-27.545L40.748 4 0 24.374v26.988a50.457 50.457 0 0 0 22.5 42.052l18.247 12.159L54.8 96.21a27.686 27.686 0 1 0 26.686-44.294zm-40.738 49.744L24.31 90.7A47.2 47.2 0 0 1 3.26 51.362V26.388L40.748 7.644l37.488 18.744v25.155c-.541-.033-1.078-.083-1.63-.083s-1.09.05-1.63.083V28.4L40.748 11.286 6.52 28.4v22.962a43.956 43.956 0 0 0 19.6 36.627l14.629 9.747 10.663-7.1a27.636 27.636 0 0 0 1.542 2.9zm9.444-14.133l-9.444 6.291-12.819-8.542c-.633-.423-1.245-.866-1.85-1.32V69.389h-3.26v11.833a40.719 40.719 0 0 1-4.89-5.428v-9.471a4.89 4.89 0 0 1 3.7-4.741l11.054-2.771a8.141 8.141 0 0 0 6.437 7.156v6.683h3.26v-6.683a8.137 8.137 0 0 0 6.435-7.156l7.256 1.823a27.567 27.567 0 0 0-5.877 26.894zM32.6 38.421h4.5a17.167 17.167 0 0 0 7.277-1.63h.442l4.081 5.432v6.792l-5.435 4.075h-5.434L32.6 49.015zm-3.125-3.26a6.377 6.377 0 0 1 3.491-4.711 16.459 16.459 0 0 1 11.445-.72l.375.541h2.482A1.63 1.63 0 0 1 48.9 31.9v4.89l-2.445-3.26h-2.832l-.344.171a13.9 13.9 0 0 1-6.179 1.46zm16.163 20.374v2.445a4.89 4.89 0 1 1-9.78 0v-2.445l1.087.815h7.605zm3.26-.064V53.09l3.26-2.445V31.9a4.89 4.89 0 0 0-4.89-4.89h-1.084c-2.358-1.433-8.229-1.723-12.388-.423a10.143 10.143 0 0 0-7.717 10.2v1.63h3.26v12.228L32.6 53.09v2.373l-11.766 2.959a8.135 8.135 0 0 0-6.165 7.9v4.4a40.7 40.7 0 0 1-4.89-19.362V30.414L40.748 14.93l30.968 15.484v20.948c0 .187-.011.373-.013.559a27.579 27.579 0 0 0-12.9 6.041zm27.709 48.146a24.449 24.449 0 1 1 24.449-24.449 24.449 24.449 0 0 1-24.45 24.45z" class="cls-1"/>
        <path id="Path_2014" d="M416 140.945h19.559v3.26H416z" class="cls-1" transform="translate(-331.244 -109.044)"/>
        <path id="Path_2015" d="M416 172.945h13.039v3.26H416z" class="cls-1" transform="translate(-331.244 -134.524)"/>
        <path id="Path_2016" d="M416 204.945h6.52v3.26H416z" class="cls-1" transform="translate(-331.244 -160.004)"/>
        <path id="Path_2017" d="M287.99 304.232l-5.761-5.762-9.221 9.219 14.982 14.982 25.355-25.355-9.221-9.218zm0 13.83l-10.372-10.372 4.611-4.61 5.761 5.761 16.136-16.136 4.611 4.61z" class="cls-1" transform="translate(-217.385 -226.216)"/>
    </g>
</svg>
