<svg xmlns="http://www.w3.org/2000/svg" width="110.207" height="102.86" viewBox="0 0 110.207 102.86">
    <defs>
        <style>
            .cls-1{fill:#f0b90b}
        </style>
    </defs>
    <g id="Group_21" transform="translate(-16 -16)">
        <path id="Path_2026" d="M225.184 202.368a9.184 9.184 0 1 0-9.184-9.184 9.184 9.184 0 0 0 9.184 9.184zm0-14.694a5.51 5.51 0 1 1-5.51 5.51 5.51 5.51 0 0 1 5.51-5.51z" class="cls-1" transform="translate(-154.08 -129.427)"/>
        <path id="Path_2027" d="M126.207 38.041V25.184a1.837 1.837 0 0 0-1.837-1.837h-12.857A7.355 7.355 0 0 0 104.166 16h-55.1a7.355 7.355 0 0 0-7.347 7.347H27.021A11.033 11.033 0 0 0 16 34.368v73.472a11.033 11.033 0 0 0 11.021 11.02h97.35a1.837 1.837 0 0 0 1.837-1.837V43.552a1.837 1.837 0 0 0-1.837-1.837h-23.879V36.2h16.531v-3.669h-5.51v-5.51h11.021v11.02zM49.062 19.674h4.662a7.3 7.3 0 0 0-.988 3.674V85.8h3.674V23.347a3.678 3.678 0 0 1 3.674-3.674h26.7a7.3 7.3 0 0 0-.988 3.674V85.8h3.674V23.347a3.678 3.678 0 0 1 3.674-3.674h4.662a7.3 7.3 0 0 0-.988 3.674v77.145a3.674 3.674 0 0 1-7.347 0v-9.184a1.837 1.837 0 0 0-1.837-1.837H45.389V23.347a3.678 3.678 0 0 1 3.673-3.673zM85.8 93.145v7.347a7.3 7.3 0 0 0 .987 3.674H39.878a3.678 3.678 0 0 1-3.674-3.674v-7.347zM27.021 27.021h14.694v5.51H27.021V36.2h14.694v5.51H27.021a7.347 7.347 0 1 1 0-14.694zm80.819 45.92a1.837 1.837 0 1 1 1.837 1.837 1.837 1.837 0 0 1-1.838-1.838zm1.837-27.552V50.9a1.837 1.837 0 0 0 .538 1.3l4.972 4.972v6.586h3.674v-7.349a1.837 1.837 0 0 0-.538-1.3l-4.972-4.972v-4.75h9.184v69.8h-11.022v-8.423l6.809-6.809a1.837 1.837 0 0 0 .538-1.3v-9.183h-3.674v8.423l-3.674 3.674V78.135a5.51 5.51 0 1 0-3.674 0v37.052H32.531v-3.674a1.837 1.837 0 0 0-.538-1.3l-4.972-4.972v-6.585h-3.674V106a1.837 1.837 0 0 0 .538 1.3l4.972 4.972v2.913h-1.836a7.355 7.355 0 0 1-7.347-7.347V42.574a10.976 10.976 0 0 0 7.347 2.815h7.347v8.423l-6.809 6.809a1.837 1.837 0 0 0-.538 1.3v13.172a5.51 5.51 0 1 0 3.674 0V62.68l3.674-3.674v6.587h3.674v-20.2h3.674v44.079h-7.349a1.837 1.837 0 0 0-1.837 1.837v9.184a7.355 7.355 0 0 0 7.347 7.347h53.267a7.355 7.355 0 0 0 7.347-7.347v-55.1zm-78.982 34.9a1.837 1.837 0 1 1-1.837-1.837 1.837 1.837 0 0 1 1.836 1.836zm69.8-47.757v-9.185a3.674 3.674 0 1 1 7.347 0v9.184z" class="cls-1"/>
        <path id="Rectangle_5" d="M0 0H3.674V3.674H0z" class="cls-1" transform="translate(115.187 82.124)"/>
        <path id="Rectangle_6" d="M0 0H3.674V3.674H0z" class="cls-1" transform="translate(34.368 69.267)"/>
        <path id="Rectangle_7" d="M0 0H3.674V3.674H0z" class="cls-1" transform="translate(23.347 91.308)"/>
    </g>
</svg>
