<svg xmlns="http://www.w3.org/2000/svg" width="68.305" height="100" viewBox="0 0 68.305 100">
    <defs>
        <style>
            .cls-1{fill:#f0b90b}
        </style>
    </defs>
    <g id="Group_124" transform="translate(-81.108 -.001)">
        <path id="Path_2668" d="M118.551 19.647a8.03 8.03 0 0 0-4.919.687 5.137 5.137 0 0 0-6.216.6l-5.461 5.113V25.6a8.331 8.331 0 0 0-8.331-8.331 5 5 0 0 0-5 5v16.32l-4.079 4.424a6.625 6.625 0 0 0-1.763 4.605 109.569 109.569 0 0 0 1.283 17.352 1.59 1.59 0 0 0 .156.375L81.5 72.993a6.59 6.59 0 0 0 2.522 7.721l.952.647a6.679 6.679 0 0 0 2.526 7.665l26.978 18.5a1.667 1.667 0 0 1 .725 1.376 5 5 0 0 0 5 5h24.216a4.962 4.962 0 0 0 3.9-1.881 5.014 5.014 0 0 0 .947-4.3l-2.432-9a39.616 39.616 0 0 1-.747-11.979c1.373-17.414-10.3-29.993-13.262-32.179-5.447-4.015-9.509-8.2-11.149-11.486-2.457-4.928-.8-8.3.8-11.559 1.343-2.734 2.733-5.56.761-8.524a7.332 7.332 0 0 0-4.686-3.347zm-24.927.953a5 5 0 0 1 5 5v3.566L91.958 35.4V22.267a1.667 1.667 0 0 1 1.666-1.667zm-7.508 26.97a3.308 3.308 0 0 1 .884-2.3l4.4-4.777a1.423 1.423 0 0 0 .114-.108l9.785-9.156a1.659 1.659 0 0 0 .258-.243l8.185-7.665a1.681 1.681 0 0 1 2.344 0l.114-.113a1.4 1.4 0 0 0 .13.132l-.105.135a5 5 0 0 1-.113 6.9l-6.554 6.292-9.228 8.311a3.241 3.241 0 0 0-.875 2.366 8.329 8.329 0 0 0-6.768 5.454l-2.091 5.882c-.342-4.099-.448-8.736-.48-11.108zm12.65-.311l4.815-4.332a26.955 26.955 0 0 0 .159 4.332zM84.638 74.13l7.185-20.218a5.016 5.016 0 0 1 4.743-3.318h14.3a1.685 1.685 0 0 1 .964.311l8.625 6.112a1.272 1.272 0 0 1 .545 1.025 1.287 1.287 0 0 1-.176.667c-.059.1-.135.193-.205.288l-2.706-1.936a8.27 8.27 0 0 0-4.832-1.553H99.969a8.331 8.331 0 0 0-7.843 5.56l-6 17.046-.217-.146a3.266 3.266 0 0 1-1.271-3.838zM119.5 30.066c-1.683 3.422-3.986 8.111-.79 14.517 2.554 5.12 8.71 10.142 12.152 12.676 2.213 1.629 13.177 13.259 11.917 29.236a43 43 0 0 0 .833 13.047l2.432 9a1.666 1.666 0 0 1-1.619 2.04H120.2a1.667 1.667 0 0 1-1.666-1.667 5 5 0 0 0-2.166-4.126L89.389 86.292a3.342 3.342 0 0 1-1.258-3.863l7.136-20.262a5 5 0 0 1 4.7-3.332h13.113a4.961 4.961 0 0 1 2.9.931l7.693 5.507a1.294 1.294 0 0 1 .35 1.708 4.972 4.972 0 0 1-7.036 1.587l-3.333-2.224a4.951 4.951 0 0 0-2.772-.844h-5.132a4.955 4.955 0 0 0-4.75 3.454c-.1.311-.239.7-.4 1.133-1.2 3.316-4 11.074 2.352 13.622a1.667 1.667 0 1 0 1.24-3.091c-2.795-1.121-2.205-4.569-.458-9.4.176-.487.333-.914.44-1.262a1.636 1.636 0 0 1 1.574-1.128h5.13a1.648 1.648 0 0 1 .918.28l3.332 2.227a8.311 8.311 0 0 0 11.749-2.648 4.645 4.645 0 0 0-1.275-6.129l-2.278-1.638c.121-.166.253-.333.356-.5a4.592 4.592 0 0 0-1.3-6.116l-8.623-6.122a5.038 5.038 0 0 0-2.9-.925H107.1a23.6 23.6 0 0 1 .247-7.755l7.1-6.751a8.332 8.332 0 0 0 1.473-9.748 3.861 3.861 0 0 1 4.557 1.85c.823 1.247.36 2.484-.977 5.213z" class="cls-1" transform="translate(0 -13.895)"/>
        <path id="Path_2669" d="M232.34 358.163a1.669 1.669 0 0 0-1.056 3.166c3.846 1.289 13.83 5.914 13.83 11.749a1.666 1.666 0 0 0 3.332 0c-.005-9.434-15.446-14.7-16.106-14.915z" class="cls-1" transform="translate(-119.927 -288.139)"/>
        <path id="Path_2670" d="M286.689 324.582a1.666 1.666 0 1 0-2.653 2.017c2.542 3.332 6.772 7.322 12.482 7.322a1.666 1.666 0 1 0 0-3.332c-4.346 0-7.738-3.268-9.829-6.007z" class="cls-1" transform="translate(-163.02 -260.656)"/>
        <path id="Path_2671" d="M296.259.559l-1.588 1.667a1.666 1.666 0 1 0 2.412 2.3l1.588-1.667a1.666 1.666 0 1 0-2.413-2.3z" class="cls-1" transform="translate(-171.451)"/>
        <path id="Path_2672" d="M322.777 36.14a1.667 1.667 0 0 0-2.056-1.155l-2.166.61a1.668 1.668 0 1 0 .9 3.211l2.166-.609a1.666 1.666 0 0 0 1.151-2.058z" class="cls-1" transform="translate(-190.082 -28.101)"/>
        <path id="Path_2673" d="M312.748 75.595a1.667 1.667 0 0 0-.9 3.209l2.166.61a1.667 1.667 0 1 0 .9-3.21z" class="cls-1" transform="translate(-184.694 -60.779)"/>
    </g>
</svg>
