<svg xmlns="http://www.w3.org/2000/svg" viewBox="0 0 399.8451 291.89939"><defs><style>.cls-1{fill:#f0b90b;}</style></defs><title>free-transaction_180</title><g id="Layer_2" data-name="Layer 2"><g id="Layer_1-2" data-name="Layer 1"><path class="cls-1" d="M397.96777,122.81492c-12.75-79.44726-87.76367-133.70849-167.207-120.95752A145.58819,145.58819,0,0,0,184.23047,17.667a4.99994,4.99994,0,0,0,4.77148,8.78809,135.62319,135.62319,0,0,1,43.34278-14.72412c74.00586-11.877,143.873,38.66552,155.75,112.66845a135.95116,135.95116,0,0,1-261.36182,69.6875c-.021-.05371-.03906-.10839-.062-.16113a137.30153,137.30153,0,0,1-6.99414-26.4458A135.88042,135.88042,0,0,1,138.20313,74.5659a4.99992,4.99992,0,0,0-8.50782-5.25488,145.49563,145.49563,0,0,0-7.86377,14.519H34.61426a5,5,0,0,0,0,10H117.582a145.94891,145.94891,0,0,0-7.77832,75.23437,147.93141,147.93141,0,0,0,5.23731,21.85889H62.86133a5,5,0,0,0,0,10h55.80273a144.17239,144.17239,0,0,0,28.00635,44.07275h-53.52a5,5,0,1,0,0,10h63.7544q5.45946,4.83765,11.45068,9.17725a144.84257,144.84257,0,0,0,85.21875,27.72607,147.89027,147.89027,0,0,0,23.43555-1.87695,145.92586,145.92586,0,0,0,120.958-167.20752Z"/><path class="cls-1" d="M321.80859,241.72752a117.42282,117.42282,0,1,0-67.92285,21.63037,5,5,0,0,0,0-10,107.38663,107.38663,0,1,1,62.13184-19.78271,4.99991,4.99991,0,1,0,5.791,8.15234Z"/><path class="cls-1" d="M87.18652,145.94725a4.99962,4.99962,0,0,0-5-5H5a5,5,0,0,0,0,10H82.18652A4.99993,4.99993,0,0,0,87.18652,145.94725Z"/><path class="cls-1" d="M92.47656,38.53611h20.46192a5,5,0,0,0,0-10H92.47656a5,5,0,0,0,0,10Z"/><path class="cls-1" d="M61.79492,244.99607H31.4541a5,5,0,0,0,0,10H61.79492a5,5,0,1,0,0-10Z"/><path class="cls-1" d="M233.14258,187.82469a18.14978,18.14978,0,0,0,13.27148-5.50782,18.4989,18.4989,0,0,0-.02929-26.42578,18.18461,18.18461,0,0,0-13.24219-5.50781,17.92894,17.92894,0,0,0-13.21289,5.44922,18.67732,18.67732,0,0,0,13.21289,31.99219Zm-7.61719-26.39649a10.78625,10.78625,0,0,1,15.23438.0293,10.796,10.796,0,0,1-7.61719,18.457,10.32821,10.32821,0,0,1-7.64649-3.10547,11.113,11.113,0,0,1,.0293-15.38086Z"/><path class="cls-1" d="M215.53516,135.88133a18.85036,18.85036,0,1,0-13.27149,5.47851A18.00588,18.00588,0,0,0,215.53516,135.88133Zm-24.05274-13.21289a10.65528,10.65528,0,1,1,3.13477,7.67578A10.40571,10.40571,0,0,1,191.48242,122.66844Z"/><polygon class="cls-1" points="250.135 136.086 247.732 130.461 186.678 154.954 188.729 160.579 250.135 136.086"/><path class="cls-1" d="M311.51172,114.87547q-7.29492-10.9563-21.5332-10.957-14.1211,0-21.50391,11.04492-7.38282,11.04566-7.38281,32.19726,0,21.15309,7.38281,32.10938,7.38281,10.95777,21.50391,10.957,14.23827,0,21.5332-10.89844t7.29492-32.168Q318.80664,125.83323,311.51172,114.87547Zm-8.37891,57.59765q-4.13085,7.91016-13.15429,7.91016a13.94632,13.94632,0,0,1-13.1836-7.99805q-4.21875-7.998-4.21875-25.22461,0-17.28441,4.21875-25.2832a13.94634,13.94634,0,0,1,13.1836-7.99805q9.022,0,13.15429,7.91016,4.13087,7.91016,4.13086,25.37109Q307.26367,164.563,303.13281,172.47312Z"/></g></g></svg>