<svg xmlns="http://www.w3.org/2000/svg" width="146" height="110.472" viewBox="0 0 146 110.472">
    <defs>
        <style>
            .cls-1{fill:#f0b90b}
        </style>
    </defs>
    <g id="Group_116" transform="translate(0 -104.509)">
        <g id="Group_115" transform="translate(0 104.509)">
            <g id="Group_114">
                <path id="Path_2636" d="M147.071 69.33a14.824 14.824 0 0 0-25.3-10.481L102.75 77.866 83.734 58.849a14.817 14.817 0 0 0-21.749 20.1H48v36.5h7.821v49.536h93.857v-49.54h7.822v-36.5h-13.987a14.758 14.758 0 0 0 3.558-9.615zm-21.618-6.794a9.611 9.611 0 1 1 6.794 16.409h-23.2zm-55.879-2.083a9.953 9.953 0 0 1 3.77-.746 9.31 9.31 0 0 1 6.7 2.829l16.412 16.409h-23.2a9.623 9.623 0 0 1-9.61-9.615 9.48 9.48 0 0 1 5.928-8.877zm-16.36 49.778V84.159h36.5v26.071zm39.107 49.536H61.036v-44.322h31.285zm15.643 0H97.536v-44.322h10.429zm2.607-49.536H94.929V84.159h15.643zm33.893 49.536h-31.285v-44.322h31.286zm7.821-75.607v26.071h-36.5V84.159z" class="cls-1" transform="translate(-32.357 -54.509)"/>
                <path id="Rectangle_48" d="M0 0H5.214V5.214H0z" class="cls-1" transform="translate(132.964 3.579)"/>
                <path id="Rectangle_49" d="M0 0H5.214V5.214H0z" class="cls-1" transform="translate(132.964 19.222)"/>
                <path id="Rectangle_50" d="M0 0H5.214V5.214H0z" class="cls-1" transform="translate(140.786 11.4)"/>
                <path id="Rectangle_51" d="M0 0H5.214V5.214H0z" class="cls-1" transform="translate(125.143 11.4)"/>
                <path id="Rectangle_52" d="M0 0H5.214V5.214H0z" class="cls-1" transform="translate(5.214 6.186)"/>
                <path id="Rectangle_53" d="M0 0H5.214V5.214H0z" class="cls-1" transform="translate(5.214 16.615)"/>
                <path id="Rectangle_54" d="M0 0H5.214V5.214H0z" class="cls-1" transform="translate(10.429 11.4)"/>
                <path id="Rectangle_55" d="M0 0H5.214V5.214H0z" class="cls-1" transform="translate(0 11.4)"/>
            </g>
        </g>
    </g>
</svg>
