<svg xmlns="http://www.w3.org/2000/svg" width="112.799" height="20" viewBox="0 0 112.799 20">
  <path id="Path_2679" data-name="Path 2679" d="M-924.468-6579.387a6.433,6.433,0,0,0-6.369,5.538h-16.231l-12.26,12.26h-12.583l-18.211-18.211h-12.337l-6.08,6.079h-9.476a6.432,6.432,0,0,0-6.386-5.667,6.433,6.433,0,0,0-6.433,6.433,6.433,6.433,0,0,0,6.433,6.433,6.433,6.433,0,0,0,6.351-5.41h10.252l6.08-6.079h10.855l18.211,18.211h14.065l12.26-12.26h15.49a6.433,6.433,0,0,0,6.369,5.538,6.432,6.432,0,0,0,6.433-6.433A6.432,6.432,0,0,0-924.468-6579.387Z" transform="translate(1030.834 6579.799)" fill="#fff"/>
</svg>
