<svg xmlns="http://www.w3.org/2000/svg" width="99.622" height="100" viewBox="0 0 99.622 100">
    <defs>
        <style>
            .cls-1{fill:#f0b90b}
        </style>
    </defs>
    <g id="Group_121" transform="translate(-.968)">
        <path id="Path_2648" d="M16.7 31.465a15.634 15.634 0 0 0 7.559-1.94H86.8a13.793 13.793 0 0 0 0-27.585H57.228a1.459 1.459 0 0 0 0 2.919H86.8a10.874 10.874 0 0 1 0 21.748H28.06a15.705 15.705 0 0 0 0-21.748h22.358a1.459 1.459 0 0 0 0-2.919H24.261A15.731 15.731 0 1 0 16.7 31.465zm0-28.546A12.814 12.814 0 1 1 3.888 15.732 12.836 12.836 0 0 1 16.7 2.919z" class="cls-1" transform="translate(-.001)"/>
        <path id="Path_2649" d="M16.7 382.363a15.633 15.633 0 0 0 7.559-1.94H86.8a13.793 13.793 0 0 0 0-27.585H24.261a15.731 15.731 0 1 0-7.561 29.525zm70.1-26.606a10.874 10.874 0 0 1 0 21.748H28.06a15.7 15.7 0 0 0 0-21.748zm-70.1-1.94a12.814 12.814 0 1 1-12.812 12.814A12.835 12.835 0 0 1 16.7 353.817z" class="cls-1" transform="translate(-.001 -282.363)"/>
        <path id="Path_2650" d="M67.124 48.147v8.9a1.459 1.459 0 1 0 2.919 0V45.84a1.459 1.459 0 0 0-2.095-1.313l-1.879.909a1.459 1.459 0 0 0 1.055 2.712z" class="cls-1" transform="translate(-51.723 -35.713)"/>
        <path id="Path_2651" d="M405.882 231.342a1.459 1.459 0 0 0 1.06 2.462h6.846a1.459 1.459 0 1 0 0-2.919h-3.457l2.972-3.143.025-.026a5.189 5.189 0 0 0 1.4-3.9 4.663 4.663 0 0 0-1.761-3.285 4.411 4.411 0 0 0-3.708-.855 5.346 5.346 0 0 0-3.6 2.69 1.459 1.459 0 0 0 2.573 1.377 2.432 2.432 0 0 1 1.613-1.208 1.537 1.537 0 0 1 1.3.274 1.749 1.749 0 0 1 .677 1.244 2.3 2.3 0 0 1-.646 1.7z" class="cls-1" transform="translate(-325.508 -176.691)"/>
        <path id="Path_2652" d="M69 406.34h-2.92a1.459 1.459 0 0 0 0 2.919H69a4.284 4.284 0 0 0 3.219-7.112A4.284 4.284 0 0 0 69 395.034h-2.92a1.459 1.459 0 0 0 0 2.919H69a1.367 1.367 0 0 1 0 2.735h-2.92a1.459 1.459 0 0 0 0 2.919H69a1.367 1.367 0 0 1 0 2.735z" class="cls-1" transform="translate(-51.224 -317.879)"/>
        <path id="Path_2653" d="M14.761 204.976H77.3a15.725 15.725 0 0 0 22.838-10.041 1.459 1.459 0 0 0-2.835-.694 12.814 12.814 0 1 1 0-6.116 1.459 1.459 0 0 0 2.835-.694 15.725 15.725 0 0 0-22.838-10.04H14.761a13.793 13.793 0 0 0 0 27.585zm0-24.667H73.5a15.705 15.705 0 0 0 0 21.748H14.761a10.874 10.874 0 0 1 0-21.748z" class="cls-1" transform="translate(0 -141.183)"/>
        <path id="Path_2654" d="M190.368 397.953h17.8a1.459 1.459 0 1 0 0-2.919h-17.8a1.459 1.459 0 1 0 0 2.919z" class="cls-1" transform="translate(-151.234 -317.879)"/>
        <path id="Path_2655" d="M190.368 427.281h38.542a1.459 1.459 0 1 0 0-2.919h-38.542a1.459 1.459 0 1 0 0 2.919z" class="cls-1" transform="translate(-151.234 -341.479)"/>
        <path id="Path_2656" d="M190.368 456.609h38.542a1.459 1.459 0 1 0 0-2.919h-38.542a1.459 1.459 0 1 0 0 2.919z" class="cls-1" transform="translate(-151.234 -365.079)"/>
        <path id="Path_2657" d="M208.167 43.367h-17.8a1.459 1.459 0 1 0 0 2.919h17.8a1.459 1.459 0 0 0 0-2.919z" class="cls-1" transform="translate(-151.234 -34.897)"/>
        <path id="Path_2658" d="M228.91 72.695h-38.542a1.459 1.459 0 1 0 0 2.919h38.542a1.459 1.459 0 1 0 0-2.919z" class="cls-1" transform="translate(-151.234 -58.497)"/>
        <path id="Path_2659" d="M228.91 102.023h-38.542a1.459 1.459 0 1 0 0 2.919h38.542a1.459 1.459 0 1 0 0-2.919z" class="cls-1" transform="translate(-151.234 -82.097)"/>
        <path id="Path_2660" d="M96.4 222.12h17.8a1.459 1.459 0 0 0 0-2.919H96.4a1.459 1.459 0 0 0 0 2.919z" class="cls-1" transform="translate(-75.617 -176.388)"/>
        <path id="Path_2661" d="M96.4 251.448h38.54a1.459 1.459 0 1 0 0-2.919H96.4a1.459 1.459 0 0 0 0 2.919z" class="cls-1" transform="translate(-75.617 -199.988)"/>
        <path id="Path_2662" d="M96.4 280.776h38.54a1.459 1.459 0 1 0 0-2.919H96.4a1.459 1.459 0 0 0 0 2.919z" class="cls-1" transform="translate(-75.617 -223.588)"/>
    </g>
</svg>
