<svg xmlns="http://www.w3.org/2000/svg" width="97.627" height="102.86" viewBox="0 0 97.627 102.86">
    <defs>
        <style>
            .cls-1{fill:#f0b90b}
        </style>
    </defs>
    <g id="Group_22" transform="translate(-4764.507 4307.982)">
        <path id="Path_2028" d="M5033.781-4055.9l-8.353-8.353a4.632 4.632 0 0 0-3.3-1.366 4.632 4.632 0 0 0-3.3 1.366l-34.914 34.914-3.292 18.241 18.241-3.292 34.914-34.914a4.633 4.633 0 0 0 1.367-3.3 4.634 4.634 0 0 0-1.363-3.296zm-2.82 3.776l-34.031 34.031-11.357 2.049 2.05-11.357 34.03-34.031a.676.676 0 0 1 .479-.2.673.673 0 0 1 .478.2l8.353 8.353a.671.671 0 0 1 .2.478.671.671 0 0 1-.203.474z" class="cls-1" transform="translate(-173.014 -194.021)"/>
        <path id="Path_2029" d="M4768.5-4230.52v-52.54a7.845 7.845 0 0 1 7.836-7.836h4.864v1.763a6.425 6.425 0 0 0 6.418 6.418h25.141a6.425 6.425 0 0 0 6.418-6.418v-1.763h4.864a7.845 7.845 0 0 1 7.836 7.836v24.066h3.989v-24.066a11.84 11.84 0 0 0-11.826-11.826h-4.864v-4.574h-8.66a10.536 10.536 0 0 0-10.327-8.523 10.537 10.537 0 0 0-10.33 8.523h-8.659v4.574h-4.864a11.839 11.839 0 0 0-11.825 11.826v52.54a11.839 11.839 0 0 0 11.825 11.826h23.853v-3.989h-23.853a7.845 7.845 0 0 1-7.836-7.837zm16.689-64.95h8.471v-1.995a6.537 6.537 0 0 1 6.53-6.528 6.535 6.535 0 0 1 6.527 6.528v1.995h8.471v6.336a2.432 2.432 0 0 1-2.429 2.43h-25.141a2.432 2.432 0 0 1-2.429-2.43z" class="cls-1"/>
        <path id="Rectangle_8" d="M0 0H43.449V3.989H0z" class="cls-1" transform="translate(4778.461 -4273.753)"/>
        <path id="Rectangle_9" d="M0 0H43.449V3.989H0z" class="cls-1" transform="translate(4778.461 -4260.988)"/>
        <path id="Rectangle_10" d="M0 0H35.462V3.989H0z" class="cls-1" transform="translate(4778.461 -4248.224)"/>
        <path id="Rectangle_11" d="M0 0H3.989V3.989H0z" class="cls-1" transform="translate(4817.92 -4248.224)"/>
    </g>
</svg>
