<svg xmlns="http://www.w3.org/2000/svg" width="100" height="100" viewBox="0 0 100 100">
    <defs>
        <style>
            .cls-1{fill:#f0b90b}
        </style>
    </defs>
    <g id="Group_125" transform="translate(-.001)">
        <path id="Path_2674" d="M168.361 11.688a1.465 1.465 0 0 0-1.956-1.233 52.612 52.612 0 0 1-16.1 2.49h-.026a43.52 43.52 0 0 1-14.914-2.505A37.016 37.016 0 0 1 120.567.478a1.466 1.466 0 0 0-2.165 0 37.007 37.007 0 0 1-15.278 10.135 44.122 44.122 0 0 1-15.294 2.325 1.465 1.465 0 1 0-.048 2.929c8.917.147 21.515-1.9 31.7-12.272a39.785 39.785 0 0 0 14.873 9.6 46.439 46.439 0 0 0 15.916 2.682h.028a57.254 57.254 0 0 0 15.315-2.1c3.9 42.349-4.22 65.391-27 76.878a1.465 1.465 0 1 0 1.319 2.616c12.544-6.326 20.831-16.006 25.333-29.6 4.264-12.868 5.275-29.871 3.092-51.98z" class="cls-1" transform="translate(-69.477)"/>
        <path id="Path_2675" d="M63.056 136.029a87.129 87.129 0 0 1-13.049 3.725c-9.891-2.059-17.869-5.139-24.38-9.413a43.975 43.975 0 0 1-15.126-16.6C3.6 100.674 1.482 82.449 3.875 56.483a55.574 55.574 0 0 0 7.09 1.5 1.465 1.465 0 1 0 .424-2.9 47.452 47.452 0 0 1-8.3-1.913A1.465 1.465 0 0 0 1.13 54.4c-2.717 27.521-.563 46.81 6.78 60.7a46.834 46.834 0 0 0 16.109 17.69c6.891 4.524 15.3 7.76 25.693 9.895a1.467 1.467 0 0 0 .589 0 90.428 90.428 0 0 0 13.792-3.917 1.465 1.465 0 1 0-1.038-2.739z" class="cls-1" transform="translate(0 -42.714)"/>
        <path id="Path_2676" d="M128.981 89.648H129a1.465 1.465 0 0 0 1.464-1.449c.037-3.335-.042-6.916-.235-10.642a1.465 1.465 0 0 0-1.637-1.379 64.822 64.822 0 0 1-7.575.454c-11.436-.006-21.5-3.147-29.918-9.337a1.465 1.465 0 0 0-1.736 0c-8.416 6.19-18.481 9.331-29.918 9.337a63.044 63.044 0 0 1-7.575-.454 1.465 1.465 0 0 0-1.637 1.379 139.193 139.193 0 0 0 .381 21.8c.952 9.034 2.965 16.36 6.155 22.4A37.308 37.308 0 0 0 69.6 135.836c5.42 3.558 12.061 6.195 20.3 8.062a1.46 1.46 0 0 0 .647 0c8.243-1.867 14.884-4.5 20.3-8.062a37.305 37.305 0 0 0 12.834-14.084c3.19-6.036 5.2-13.362 6.155-22.4.123-1.169.229-2.379.315-3.6a1.465 1.465 0 0 0-2.923-.207c-.084 1.184-.187 2.36-.307 3.5-.912 8.656-2.819 15.635-5.832 21.334a34.449 34.449 0 0 1-11.852 13c-5.051 3.316-11.275 5.8-19.02 7.58-7.744-1.783-13.969-4.264-19.02-7.58a34.446 34.446 0 0 1-11.852-13c-3.013-5.7-4.92-12.679-5.832-21.334a133.1 133.1 0 0 1-.443-19.791c2.14.206 4.27.305 6.362.307 11.685-.006 22.036-3.129 30.784-9.283 8.748 6.154 19.1 9.277 30.787 9.283 2.123 0 4.255-.106 6.359-.307.136 3.109.189 6.1.158 8.911a1.465 1.465 0 0 0 1.449 1.481z" class="cls-1" transform="translate(-40.222 -53.924)"/>
        <path id="Path_2677" d="M237.928 276.719a1.465 1.465 0 0 0 1.465-1.465V273.2a4.395 4.395 0 1 0-2.93 0v2.051a1.465 1.465 0 0 0 1.465 1.468zm0-9.124a1.465 1.465 0 1 1-1.465 1.465 1.467 1.467 0 0 1 1.465-1.465z" class="cls-1" transform="translate(-187.921 -212.973)"/>
        <path id="Path_2678" d="M200.707 185.142c3.652-4.9 3.952-12.585.891-22.842a1.465 1.465 0 0 0-1.4-1.046h-4.023v-5.6a9.278 9.278 0 0 0-18.557 0v5.6h-4.023a1.465 1.465 0 0 0-1.4 1.046c-1.757 5.889-2.4 11-1.921 15.194a1.465 1.465 0 0 0 2.911-.335 34.739 34.739 0 0 1 1.516-12.975h24.4c2.424 8.676 2.174 15.3-.736 19.207-2.207 2.962-6.065 4.464-11.465 4.464-5.725 0-9.713-1.69-11.852-5.023a1.465 1.465 0 0 0-2.466 1.582c2.713 4.227 7.531 6.371 14.318 6.371 6.376 0 11.024-1.9 13.814-5.643zm-7.466-23.888h-12.7v-5.6a6.348 6.348 0 0 1 12.7 0v5.6z" class="cls-1" transform="translate(-136.886 -117.784)"/>
        <circle id="Ellipse_27" cx="1.465" cy="1.465" r="1.465" class="cls-1" transform="translate(16.508 29.058)"/>
        <circle id="Ellipse_28" cx="1.465" cy="1.465" r="1.465" class="cls-1" transform="translate(48.542 21.557)"/>
        <circle id="Ellipse_29" cx="1.465" cy="1.465" r="1.465" class="cls-1" transform="translate(48.542 79.959)"/>
        <circle id="Ellipse_30" cx="1.465" cy="1.465" r="1.465" class="cls-1" transform="translate(80.577 29.059)"/>
    </g>
</svg>
