<svg xmlns="http://www.w3.org/2000/svg" width="89.264" height="100" viewBox="0 0 89.264 100">
    <defs>
        <style>
            .cls-1{fill:#f0b90b}
        </style>
    </defs>
    <g id="Group_123" transform="translate(-4001.79 467.411)">
        <path id="Path_2663" d="M4084.2-430.91a37.85 37.85 0 0 0-37.781-36.5 37.85 37.85 0 0 0-37.781 36.5 10.031 10.031 0 0 0-6.851 9.5v14.136a10.026 10.026 0 0 0 10.015 10.015h6.993a1.82 1.82 0 0 0 1.82-1.82v-30.527a1.82 1.82 0 0 0-1.82-1.82h-6.495a34.21 34.21 0 0 1 34.118-32.347 34.21 34.21 0 0 1 34.118 32.347h-6.494a1.819 1.819 0 0 0-1.82 1.82v30.527a1.819 1.819 0 0 0 1.82 1.82h6.993a10.027 10.027 0 0 0 10.015-10.015v-14.136a10.031 10.031 0 0 0-6.85-9.5zm-67.222 30.01h-5.173a6.383 6.383 0 0 1-6.376-6.376v-14.134a6.383 6.383 0 0 1 6.376-6.376h5.173zm70.437-6.376a6.383 6.383 0 0 1-6.376 6.376h-5.173v-26.888h5.173a6.383 6.383 0 0 1 6.376 6.376z" class="cls-1"/>
        <path id="Path_2664" d="M4405.443 222.456a1.819 1.819 0 0 0-1.82 1.819c0 5.957-1.233 9.754-4 12.311-3.066 2.833-8.294 4.3-15.955 4.477a7.144 7.144 0 0 0-6.891-5.3h-6.072a7.132 7.132 0 0 0 0 14.265h6.072a7.144 7.144 0 0 0 6.9-5.33c8.733-.185 14.61-1.927 18.415-5.443 3.526-3.26 5.169-8.021 5.169-14.983a1.819 1.819 0 0 0-1.818-1.816zm-28.666 23.937h-6.072a3.493 3.493 0 0 1 0-6.986h6.072a3.493 3.493 0 0 1 0 6.986z" class="cls-1" transform="translate(-323.802 -617.443)"/>
        <path id="Path_2665" d="M4295.242-6.122a5.438 5.438 0 0 0 5.438-5.437v-9.608a5.438 5.438 0 0 0-5.437-5.437h-22.678a5.438 5.438 0 0 0-5.437 5.437v9.608a5.438 5.438 0 0 0 5.438 5.437h1.411l-1.089 3.491a.8.8 0 0 0 1.214.9l6.438-4.39zm-1.458-12.061a1.82 1.82 0 0 1 1.82 1.819 1.82 1.82 0 0 1-1.82 1.82 1.82 1.82 0 0 1-1.82-1.82 1.82 1.82 0 0 1 1.821-1.819zm-5.364 0a1.819 1.819 0 0 1 1.819 1.819 1.819 1.819 0 0 1-1.819 1.82 1.819 1.819 0 0 1-1.819-1.82 1.819 1.819 0 0 1 1.82-1.819zm-14.4 3.639a1.819 1.819 0 0 1-1.819-1.82 1.819 1.819 0 0 1 1.819-1.82h8.894a1.819 1.819 0 0 1 1.819 1.82 1.819 1.819 0 0 1-1.819 1.82z" class="cls-1" transform="translate(-237.481 -394.529)"/>
        <g id="Group_122" transform="translate(4032.539 -446.303)">
            <path id="Path_2666" d="M4299.275-248.563h6.958a2.537 2.537 0 0 1 1.586.427 1.393 1.393 0 0 1 .546 1.16 1.542 1.542 0 0 1-.433 1.106 1.736 1.736 0 0 1-1.312.453h-9.81a2.123 2.123 0 0 1-1.56-.553 1.77 1.77 0 0 1-.56-1.3 3.311 3.311 0 0 1 .36-1.273 4.565 4.565 0 0 1 .786-1.246q1.772-1.839 3.2-3.152a21.024 21.024 0 0 1 2.04-1.726 11.792 11.792 0 0 0 1.819-1.553 6.174 6.174 0 0 0 1.106-1.6 3.807 3.807 0 0 0 .38-1.606 2.894 2.894 0 0 0-.407-1.526 2.819 2.819 0 0 0-1.106-1.046 3.2 3.2 0 0 0-1.526-.373 3.116 3.116 0 0 0-2.746 1.533 6.632 6.632 0 0 0-.446 1.093 4.586 4.586 0 0 1-.707 1.373 1.4 1.4 0 0 1-1.153.48 1.5 1.5 0 0 1-1.106-.44 1.622 1.622 0 0 1-.439-1.2 5.009 5.009 0 0 1 .413-1.919 5.494 5.494 0 0 1 1.232-1.813 6.1 6.1 0 0 1 2.08-1.313 7.974 7.974 0 0 1 2.952-.5 8.533 8.533 0 0 1 3.479.64 5.239 5.239 0 0 1 1.64 1.173 5.423 5.423 0 0 1 1.1 1.726 5.407 5.407 0 0 1 .394 2.033 5.688 5.688 0 0 1-.82 3.005 9.334 9.334 0 0 1-1.673 2.119q-.853.767-2.859 2.406a21.432 21.432 0 0 0-2.752 2.546 7.625 7.625 0 0 0-.656.866z" class="cls-1" transform="translate(-4294.691 265.209)"/>
            <path id="Path_2667" d="M4447.244-248.246v-2.479h-6.69a2.749 2.749 0 0 1-1.9-.573 2 2 0 0 1-.633-1.559 1.516 1.516 0 0 1 .093-.513 2.643 2.643 0 0 1 .28-.546q.187-.286.387-.553t.493-.653l7.063-9.449a10.7 10.7 0 0 1 1.14-1.353 1.509 1.509 0 0 1 1.072-.42q2.026 0 2.026 2.319v10.316h.573a4.05 4.05 0 0 1 1.646.28 1.2 1.2 0 0 1 .62 1.226 1.275 1.275 0 0 1-.506 1.126 2.666 2.666 0 0 1-1.52.353h-.813v2.479a2.213 2.213 0 0 1-.453 1.526 1.556 1.556 0 0 1-1.212.5 1.543 1.543 0 0 1-1.207-.513 2.2 2.2 0 0 1-.459-1.514zm-5.731-5.464h5.731v-7.743z" class="cls-1" transform="translate(-4422.974 266.345)"/>
        </g>
    </g>
</svg>
