<svg xmlns="http://www.w3.org/2000/svg" viewBox="0 0 858.69 352.84"><defs><style>.cls-1{fill:#fff;}</style></defs><g id="Layer_2" data-name="Layer 2"><g id="Layer_1-2" data-name="Layer 1"><path class="cls-1" d="M742.65,69.12A28.37,28.37,0,0,0,751.26,75a27.06,27.06,0,0,0,21.33,0,28.37,28.37,0,0,0,8.61-5.88,26.47,26.47,0,0,0,5.74-8.61,26.85,26.85,0,0,0,2-10.39q0-12-7.79-19.68a28.11,28.11,0,0,0-38.55,0q-7.78,7.65-7.79,19.68a26.85,26.85,0,0,0,2,10.39A26.47,26.47,0,0,0,742.65,69.12Z"/><path class="cls-1" d="M850.9,30.44a28.1,28.1,0,0,0-38.54,0q-7.79,7.65-7.79,19.68a26.8,26.8,0,0,0,7.79,19A28.37,28.37,0,0,0,821,75a27,27,0,0,0,21.32,0,28.37,28.37,0,0,0,8.61-5.88,26.31,26.31,0,0,0,5.74-8.61,26.67,26.67,0,0,0,2.05-10.39Q858.69,38.09,850.9,30.44Z"/><path class="cls-1" d="M288,298.45a26.41,26.41,0,0,0-19.27,7.65q-7.8,7.65-7.8,19.68A26.85,26.85,0,0,0,263,336.17a26.49,26.49,0,0,0,5.75,8.61,28.37,28.37,0,0,0,8.61,5.88,27.15,27.15,0,0,0,21.32,0,28.37,28.37,0,0,0,8.61-5.88,26.8,26.8,0,0,0,7.79-19q0-12-7.79-19.68A26.42,26.42,0,0,0,288,298.45Z"/><path class="cls-1" d="M357.72,298.45a26.44,26.44,0,0,0-19.27,7.65q-7.79,7.65-7.79,19.68a26.8,26.8,0,0,0,7.79,19,28.37,28.37,0,0,0,8.61,5.88,27.15,27.15,0,0,0,21.32,0,28.29,28.29,0,0,0,8.62-5.88,26.47,26.47,0,0,0,5.74-8.61,26.85,26.85,0,0,0,2.05-10.39q0-12-7.79-19.68A26.45,26.45,0,0,0,357.72,298.45Z"/><path class="cls-1" d="M669.13,298.45a26.44,26.44,0,0,0-19.27,7.65q-7.79,7.65-7.79,19.68a26.8,26.8,0,0,0,7.79,19,28.37,28.37,0,0,0,8.61,5.88,27.18,27.18,0,0,0,21.33,0,28.37,28.37,0,0,0,8.61-5.88,26.47,26.47,0,0,0,5.74-8.61,26.85,26.85,0,0,0,2.05-10.39q0-12-7.79-19.68A26.45,26.45,0,0,0,669.13,298.45Z"/><path class="cls-1" d="M811.74,220.75a13.41,13.41,0,0,1-13.4,13.39H694.29V107.72h-42V234.14H581.66C573.59,152.73,518,124.68,463.55,108.25l-12.13,40.2c57.52,17.36,82.63,40.84,88.08,85.69H425.77v42H798.34a55.46,55.46,0,0,0,55.39-55.39v-113h-42Z"/><path class="cls-1" d="M352.83,220.75a13.4,13.4,0,0,1-13.39,13.39H250.06c.18-2.77.28-5.56.28-8.37V0h-42V225.77a83.18,83.18,0,0,1-166.36,0H0a125.17,125.17,0,0,0,239.75,50.37h99.69a55.45,55.45,0,0,0,55.38-55.39v-113h-42Z"/></g></g></svg>