<svg xmlns="http://www.w3.org/2000/svg" id="Group_20" width="102.86" height="102.86" viewBox="0 0 102.86 102.86">
    <defs>
        <style>
            .cls-1{fill:#f0b90b}
        </style>
    </defs>
    <g id="Group_5" transform="translate(51.43 51.43)">
        <g id="Group_4">
            <path id="Path_2018" d="M262.286 240a22.286 22.286 0 1 0 22.286 22.286A22.286 22.286 0 0 0 262.286 240zm0 41.144a18.858 18.858 0 1 1 18.858-18.858 18.858 18.858 0 0 1-18.858 18.858z" class="cls-1" transform="translate(-240 -240)"/>
        </g>
    </g>
    <g id="Group_7" transform="translate(63.43 58.274)">
        <g id="Group_6">
            <path id="Path_2019" d="M316.572 280.521a5.143 5.143 0 0 0-5.143-5.143h-1.714v-3.428h-3.429v3.429h-1.7l.027-3.415-3.429-.027-.027 3.442H296v3.429h3.429v17.142H296v3.429h5.157l.027 3.442 3.429-.027-.027-3.415h1.7v3.429h3.429v-3.429h1.714a5.143 5.143 0 0 0 5.143-5.143v-3.429a5.111 5.111 0 0 0-1.337-3.429 5.11 5.11 0 0 0 1.337-3.429zm-3.429 13.715a1.714 1.714 0 0 1-1.714 1.714h-8.572v-6.857h8.572a1.714 1.714 0 0 1 1.714 1.714zm0-10.286a1.714 1.714 0 0 1-1.714 1.714h-8.572v-6.857h8.572a1.714 1.714 0 0 1 1.714 1.714z" class="cls-1" transform="translate(-296 -271.936)"/>
        </g>
    </g>
    <g id="Group_9" transform="translate(44.573 44.573)">
        <g id="Group_8">
            <path id="Path_2020" d="M237.144 208a29.144 29.144 0 1 0 29.144 29.144A29.144 29.144 0 0 0 237.144 208zm0 54.859a25.715 25.715 0 1 1 25.715-25.715 25.715 25.715 0 0 1-25.715 25.715z" class="cls-1" transform="translate(-208 -208)"/>
        </g>
    </g>
    <g id="Group_11" transform="translate(6.857 6.857)">
        <g id="Group_10">
            <path id="Path_2021" d="M54.286 32a22.286 22.286 0 1 0 22.287 22.286A22.286 22.286 0 0 0 54.286 32zm0 41.144a18.858 18.858 0 1 1 18.858-18.858 18.88 18.88 0 0 1-18.858 18.858z" class="cls-1" transform="translate(-32 -32)"/>
        </g>
    </g>
    <g id="Group_13">
        <g id="Group_12">
            <path id="Path_2022" d="M29.144 0a29.144 29.144 0 1 0 29.143 29.144A29.144 29.144 0 0 0 29.144 0zm0 54.859a25.715 25.715 0 1 1 25.715-25.715 25.744 25.744 0 0 1-25.715 25.715z" class="cls-1"/>
        </g>
    </g>
    <g id="Group_15" transform="translate(20.572 13.715)">
        <g id="Group_14">
            <path id="Path_2023" d="M104.572 77.715c-2.788 0-5.143-1.57-5.143-3.429s2.356-3.429 5.143-3.429 5.143 1.57 5.143 3.429a1.714 1.714 0 0 0 3.429 0c0-3.312-2.95-6.081-6.857-6.718V64h-3.429v3.568C98.95 68.205 96 70.974 96 74.286c0 3.782 3.845 6.857 8.572 6.857 2.788 0 5.143 1.57 5.143 3.429S107.359 88 104.572 88s-5.143-1.57-5.143-3.429a1.714 1.714 0 1 0-3.429 0c0 3.312 2.95 6.081 6.857 6.718v3.568h3.429v-3.566c3.907-.638 6.857-3.406 6.857-6.718 0-3.783-3.843-6.858-8.571-6.858z" class="cls-1" transform="translate(-96 -64)"/>
        </g>
    </g>
    <g id="Group_17" transform="translate(59.292 10.372)">
        <g id="Group_16">
            <path id="Path_2024" d="M291.112 55.172h-7.862l4.346-4.348-2.424-2.424-8.484 8.486 8.484 8.486 2.424-2.424-4.346-4.348h7.862a15.446 15.446 0 0 1 15.429 15.429V82.6h3.429v-8.571a18.88 18.88 0 0 0-18.858-18.857z" class="cls-1" transform="translate(-276.688 -48.4)"/>
        </g>
    </g>
    <g id="Group_19" transform="translate(10.286 58.287)">
        <g id="Group_18">
            <path id="Path_2025" d="M71.084 289.229l-2.424 2.424L73.005 296h-6.147a15.446 15.446 0 0 1-15.429-15.429V272H48v8.572a18.88 18.88 0 0 0 18.858 18.858h6.148l-4.346 4.348 2.424 2.424 8.484-8.486z" class="cls-1" transform="translate(-48 -272)"/>
        </g>
    </g>
</svg>
