<svg xmlns="http://www.w3.org/2000/svg" width="145.618" height="97.079" viewBox="0 0 145.618 97.079">
    <defs>
        <style>
            .cls-1{fill:#f0b90b}
        </style>
    </defs>
    <g id="Group_117" transform="translate(-16 -96)">
        <path id="Path_2637" d="M159.191 173.663h-9.708v-65.528a7.289 7.289 0 0 0-7.281-7.281h-12.135v-2.427A2.427 2.427 0 0 0 127.64 96H96.09a2.427 2.427 0 0 0-1.346.408l-5.935 3.956-5.935-3.956A2.427 2.427 0 0 0 81.528 96h-31.55a2.427 2.427 0 0 0-2.427 2.427v2.427H35.416a7.289 7.289 0 0 0-7.281 7.281v65.528h-9.708A2.427 2.427 0 0 0 16 176.09v4.854a12.149 12.149 0 0 0 12.135 12.135h121.348a12.149 12.149 0 0 0 12.135-12.135v-4.854a2.427 2.427 0 0 0-2.427-2.427zM142.2 105.708a2.43 2.43 0 0 1 2.427 2.427v65.528h-4.854v-60.674a2.427 2.427 0 0 0-2.427-2.427h-7.281v-4.854zm-45.378-4.854h28.389V159.1H96.09a2.427 2.427 0 0 0-1.346.408l-3.508 2.338V104.58zm-44.42 0h28.391l5.589 3.726v57.268l-3.508-2.338a2.427 2.427 0 0 0-1.346-.408H52.4zm28.389 63.1l6.669 4.446a2.427 2.427 0 0 0 2.693 0l6.669-4.446h30.818a2.427 2.427 0 0 0 2.427-2.427v-46.111h4.854v58.247H42.7v-58.247h4.854v46.112a2.427 2.427 0 0 0 2.427 2.427zm-47.8-55.82a2.43 2.43 0 0 1 2.427-2.427h12.133v4.854H40.27a2.427 2.427 0 0 0-2.427 2.427v60.674h-4.854zm123.775 72.809a7.289 7.289 0 0 1-7.281 7.281H28.135a7.289 7.289 0 0 1-7.281-7.281v-2.427h135.91z" class="cls-1"/>
        <path id="Path_2638" d="M298.427 132.854h14.562a2.427 2.427 0 0 0 0-4.854h-14.562a2.427 2.427 0 1 0 0 4.854z" class="cls-1" transform="translate(-195.056 -22.292)"/>
        <path id="Path_2639" d="M154.427 244.854h19.416a2.427 2.427 0 1 0 0-4.854h-19.416a2.427 2.427 0 1 0 0 4.854z" class="cls-1" transform="translate(-94.742 -100.315)"/>
        <path id="Path_2640" d="M173.843 272h-19.416a2.427 2.427 0 1 0 0 4.854h19.416a2.427 2.427 0 1 0 0-4.854z" class="cls-1" transform="translate(-94.742 -122.607)"/>
        <path id="Path_2641" d="M184.989 208h-14.562a2.427 2.427 0 1 0 0 4.854h14.562a2.427 2.427 0 1 0 0-4.854z" class="cls-1" transform="translate(-105.888 -78.022)"/>
        <path id="Path_2642" d="M282.427 164.854h4.854a2.427 2.427 0 0 0 0-4.854h-4.854a2.427 2.427 0 1 0 0 4.854z" class="cls-1" transform="translate(-183.91 -44.584)"/>
        <path id="Path_2643" d="M335.281 160h-4.854a2.427 2.427 0 1 0 0 4.854h4.854a2.427 2.427 0 1 0 0-4.854z" class="cls-1" transform="translate(-217.348 -44.584)"/>
        <path id="Path_2644" d="M282.427 276.854h19.416a2.427 2.427 0 0 0 0-4.854h-19.416a2.427 2.427 0 1 0 0 4.854z" class="cls-1" transform="translate(-183.91 -122.607)"/>
        <path id="Path_2645" d="M154.427 147.416h19.416a2.427 2.427 0 0 0 2.427-2.427v-14.562a2.427 2.427 0 0 0-2.427-2.427h-19.416a2.427 2.427 0 0 0-2.427 2.427v14.562a2.427 2.427 0 0 0 2.427 2.427zm2.427-14.562h14.562v9.708h-14.562z" class="cls-1" transform="translate(-94.742 -22.292)"/>
        <path id="Path_2646" d="M282.427 211.416h19.416a2.427 2.427 0 0 0 2.427-2.427v-14.562a2.427 2.427 0 0 0-2.427-2.427h-19.416a2.427 2.427 0 0 0-2.427 2.427v14.562a2.427 2.427 0 0 0 2.427 2.427zm2.427-14.562h14.562v9.708h-14.562z" class="cls-1" transform="translate(-183.91 -66.876)"/>
    </g>
</svg>
