<svg xmlns="http://www.w3.org/2000/svg" width="320" height="212" viewBox="0 0 320 212">
    <g data-name="Group 10239" transform="translate(26.526 20.763)">
        <path data-name="Path 20377" d="M-166.666 668.927h-68.194l-18.954-18.955h-42.164v-6.032h44.663l18.954 18.955h65.695z" transform="translate(351.249 -577.364)" style="fill:#f2f2f3"/>
        <path data-name="Path 20378" d="M-253.377 710.914h-39.607v-6.033h37.109l12.435-12.434h37.625v6.033h-35.126z" transform="translate(350.916 -582.754)" style="fill:#f2f2f3"/>
        <g data-name="Group 10238">
            <path data-name="Path 20396" d="M9.4 0h66.883a9.4 9.4 0 0 1 9.4 9.4v152.564a9.4 9.4 0 0 1-9.4 9.4H9.4a9.4 9.4 0 0 1-9.4-9.4V9.4A9.4 9.4 0 0 1 9.4 0z"/>
            <path data-name="Path 20379" d="M-281.472 572.662h-13.933v.9a4.329 4.329 0 0 1-4.33 4.329h-29.957a4.329 4.329 0 0 1-4.33-4.329v-.9h-14.335a6.187 6.187 0 0 0-6.18 6.18v152.567a6.187 6.187 0 0 0 6.18 6.18h66.885a6.187 6.187 0 0 0 6.18-6.18V578.842a6.187 6.187 0 0 0-6.18-6.18z" transform="translate(357.756 -569.444)" style="fill:#333436"/>
            <path data-name="Path 20397" d="M3.568 0h65.388a3.568 3.568 0 0 1 3.568 3.568v59.78a3.568 3.568 0 0 1-3.568 3.568H3.568A3.568 3.568 0 0 1 0 63.348V3.568A3.568 3.568 0 0 1 3.568 0z" transform="translate(6.439 40.283)" style="opacity:.08;fill:#fff"/>
            <path data-name="Path 20401" d="M3.568 0h65.388a3.568 3.568 0 0 1 3.568 3.568v8.492a3.568 3.568 0 0 1-3.568 3.568H3.568A3.568 3.568 0 0 1 0 12.06V3.568A3.568 3.568 0 0 1 3.568 0z" transform="translate(6.439 148.593)" style="fill:#0bb3f0"/>
            <path data-name="Path 20380" d="M-338.683 585.322a5.051 5.051 0 0 1-1.2 3.283 5.082 5.082 0 0 1-3.878 1.8 5.079 5.079 0 0 1-3.877-1.8 5.047 5.047 0 0 1-1.2-3.283 5.082 5.082 0 0 1 5.081-5.084 5.082 5.082 0 0 1 5.074 5.084z" transform="translate(357.123 -570.286)" style="opacity:.08;fill:#fff"/>
            <circle data-name="Ellipse 1719" cx="1.831" cy="1.831" r="1.831" transform="translate(11.528 11.698)" style="opacity:.38;fill:#fff"/>
            <path data-name="Path 20381" d="M-339.735 589.372a5.082 5.082 0 0 1-3.878 1.8 5.079 5.079 0 0 1-3.877-1.8 4.476 4.476 0 0 1 3.877-2.233 4.478 4.478 0 0 1 3.878 2.233z" transform="translate(356.973 -571.053)" style="opacity:.38;fill:#fff"/>
            <path data-name="Path 20409" d="M14.649 0A14.649 14.649 0 1 1 0 14.649 14.649 14.649 0 0 1 14.649 0z" transform="translate(28.635 47.128)" style="fill:#f0b90b"/>
            <path data-name="Path 20398" d="M1.132 0h10.292a1.132 1.132 0 0 1 1.132 1.132v6.107a1.132 1.132 0 0 1-1.132 1.132H1.132A1.132 1.132 0 0 1 0 7.239V1.132A1.132 1.132 0 0 1 1.132 0z" transform="translate(66.324 11.201)" style="fill:#f0b90b"/>
            <path data-name="Path 20382" d="M-284.124 680.9h-57.92v-26.173a11.4 11.4 0 0 1 11.4-11.4h35.12a11.4 11.4 0 0 1 11.4 11.4z" transform="translate(356.367 -562.296)" style="fill:#f0b90b"/>
            <path data-name="Path 20408" d="M0 0h27.222v19.634H0z" transform="translate(8.279 90.002)" style="fill:#f2f2f3"/>
        </g>
        <path data-name="Path 20410" d="M7.759 0h109.226a7.759 7.759 0 0 1 7.759 7.759V69.8a7.759 7.759 0 0 1-7.759 7.759H7.759A7.759 7.759 0 0 1 0 69.8V7.759A7.759 7.759 0 0 1 7.759 0z" transform="translate(147.144 39.01)" style="fill:#f0b90b"/>
        <path data-name="Path 20412" d="M147.144 82.43h124.744v20.864H147.144z"/>
        <path data-name="Path 20411" d="M0 0h61.07v12.485H0z" transform="translate(200.627 59.547)" style="fill:#f2f2f3"/>
        <path data-name="Path 20402" d="M7.759 0h109.226a7.759 7.759 0 0 1 7.759 7.759V69.8a7.759 7.759 0 0 1-7.759 7.759H7.759A7.759 7.759 0 0 1 0 69.8V7.759A7.759 7.759 0 0 1 7.759 0z" transform="translate(128.534 55.857)" style="fill:#d9d9da"/>
        <path data-name="Path 20403" d="M4.852 0H34.6a4.852 4.852 0 0 1 4.852 4.852V34.6a4.852 4.852 0 0 1-4.852 4.856H4.852A4.852 4.852 0 0 1 0 34.6V4.852A4.852 4.852 0 0 1 4.852 0z" transform="translate(138.594 66.119)" style="fill:#f2f2f3"/>
        <path data-name="Path 20405" d="M0 0h44.845v3.011H0z" transform="translate(200.808 97.076)" style="fill:#f2f2f3"/>
        <path data-name="Path 20406" d="M0 0h54.385v3.011H0z" transform="translate(191.774 108.576)" style="fill:#f2f2f3"/>
        <path data-name="Path 20407" d="M0 0h24.512v3.011H0z" transform="translate(138.594 117.421)" style="fill:#f2f2f3"/>
        <path data-name="Path 20404" d="M0 0h61.07v12.485H0z" transform="translate(185.089 70.938)" style="fill:#f2f2f3"/>
        <circle data-name="Ellipse 1721" cx="8.023" cy="8.023" r="8.023" transform="translate(150.298 73.5)" style="fill:#d9d9da"/>
        <path data-name="Path 20395" d="M-168.218 686.276h-27.035V679.8a5.825 5.825 0 0 1 5.826-5.826h15.383a5.825 5.825 0 0 1 5.826 5.826z" transform="translate(340.057 -580.701)" style="fill:#d9d9da"/>
    </g>
</svg>
