<svg xmlns="http://www.w3.org/2000/svg" width="320" height="213" viewBox="0 0 320 213">
  <defs>
    <style>
      .cls-1 {
        fill: none;
      }

      .cls-2 {
        fill: #f2f2f3;
      }

      .cls-3 {
        fill: #ffe957;
      }

      .cls-4 {
        fill: #ffa725;
      }

      .cls-5 {
        fill: #fff;
      }

      .cls-6 {
        fill: #b31620;
      }

      .cls-7 {
        fill: #dedede;
      }

      .cls-8 {
        fill: #f18200;
      }

      .cls-9 {
        fill: #e06d00;
      }

      .cls-10 {
        fill: red;
      }

      .cls-11 {
        fill: #c84f00;
      }

      .cls-12 {
        fill: #312026;
      }

      .cls-13 {
        fill: #ffcc60;
      }

      .cls-14 {
        fill: #613f36;
      }

      .cls-15 {
        fill: #ffb4ab;
      }

      .cls-16 {
        fill: #ff817a;
      }
    </style>
  </defs>
  <g id="step-3" transform="translate(776 -0.333)">
    <rect id="Rectangle_5117" data-name="Rectangle 5117" class="cls-1" width="320" height="213" transform="translate(-776 0.333)"/>
    <g id="Group_10061" data-name="Group 10061" transform="translate(-737.282 10.975)">
      <path id="Path_19784" data-name="Path 19784" class="cls-2" d="M-490.323,83.76h-5.333V44.638l-11.326-11.326V16.137h5.333V31.1l11.326,11.326Z" transform="translate(707.391 -12.768)"/>
      <path id="Path_19785" data-name="Path 19785" class="cls-2" d="M-584.14,116.483h-5.333V55.931l18.414-18.414V12.347h5.333V39.726L-584.14,58.14Z" transform="translate(716.557 -12.347)"/>
      <path id="Path_19786" data-name="Path 19786" class="cls-2" d="M-609.809,119.295h-5.333V74.79L-634.75,55.183V27h5.333V52.974l19.607,19.607Z" transform="translate(721.588 -13.975)"/>
      <path id="Path_19787" data-name="Path 19787" class="cls-2" d="M-692.646,85.67h-5.333V57.15l8.121-8.12V16h5.333V51.239l-8.121,8.12Z" transform="translate(728.613 -12.753)"/>
      <circle id="Ellipse_1684" data-name="Ellipse 1684" class="cls-2" cx="7.909" cy="7.909" r="7.909" transform="translate(223.362 122.772)"/>
      <circle id="Ellipse_1685" data-name="Ellipse 1685" class="cls-2" cx="5.494" cy="5.494" r="5.494" transform="translate(157.947 41.08)"/>
      <circle id="Ellipse_1686" data-name="Ellipse 1686" class="cls-2" cx="10.471" cy="10.471" r="10.471" transform="translate(0 132.686)"/>
      <g id="Group_10172" data-name="Group 10172" transform="translate(13.061 53.137)">
        <circle id="Ellipse_1708" data-name="Ellipse 1708" class="cls-3" cx="20" cy="20" r="20" transform="translate(0.221 0.221)"/>
        <path id="Path_20201" data-name="Path 20201" class="cls-4" d="M157.459,98.885c0,.094,0,.188,0,.281,0,.125-.012.248-.023.369a5.924,5.924,0,0,1-3.675,5.042v1.063s1.347.877.784,3.639a2.184,2.184,0,0,1,1.379,2.292,4.536,4.536,0,0,1-.113,1.16c-.252,1.046-.817,2.212-2.115,2.212h-1.908a2.324,2.324,0,0,1-1.68.613c-.07,0-.14,0-.208-.01l-.1-.011c-.032,0-.064-.01-.1-.016a1.365,1.365,0,0,1-.94-.576h-3.42a1.365,1.365,0,0,1-.94.576c-.064.012-.128.021-.194.028s-.138.01-.208.01a2.324,2.324,0,0,1-1.68-.613h-1.908c-1.3,0-1.863-1.167-2.115-2.212a4.524,4.524,0,0,1-.114-1.112.047.047,0,0,1-.047-.047h0a.05.05,0,0,1,.007-.025,4.7,4.7,0,0,1-1.733-6.934,5.156,5.156,0,0,0,3.043,3.952c-.218-2.2.894-2.924.894-2.924v-1.063a5.924,5.924,0,0,1-3.675-5.042c-.01-.121-.018-.245-.023-.369,0-.092,0-.187,0-.281a9.856,9.856,0,0,1,.557-3.26c-.882-4.879-.063-7.436.8-8.187a1.113,1.113,0,0,1,.242-.164c.937-.457,3.246,1.2,4.267,2.188a10.5,10.5,0,0,1,9.087,0c1.021-.991,3.329-2.644,4.267-2.188a1.115,1.115,0,0,1,.242.164c.863.751,1.682,3.309.8,8.187A9.854,9.854,0,0,1,157.459,98.885Z" transform="translate(-126.509 -81.386)"/>
        <path id="Path_20202" data-name="Path 20202" class="cls-5" d="M167.212,221.978c-2.235-2.362-3.107-2.89-4.68-2.89s-2.445.528-4.68,2.89-4.863,2.144-5.724.291c0,.125.012.248.023.369a5.924,5.924,0,0,0,3.675,5.042,18.718,18.718,0,0,0,13.413,0,5.924,5.924,0,0,0,3.675-5.042c.01-.121.018-.245.023-.369C172.076,224.122,169.448,224.34,167.212,221.978Zm-4.68.568a1.823,1.823,0,0,1-1.719-1.627c0-.64.847-.944,1.719-.944s1.718.3,1.718.944a1.823,1.823,0,0,1-1.719,1.627Z" transform="translate(-141.991 -204.489)"/>
        <path id="Path_20203" data-name="Path 20203" class="cls-5" d="M233.415,488.7a2.375,2.375,0,0,0-.934.555h0a3.619,3.619,0,0,0,.317.321,2.325,2.325,0,0,0,1.68.613c.07,0,.14,0,.208-.01s.13-.015.194-.028a1.365,1.365,0,0,0,.94-.576,1.1,1.1,0,0,0,.165-.568A3.514,3.514,0,0,0,233.415,488.7Z" transform="translate(-216.99 -456.022)"/>
        <path id="Path_20204" data-name="Path 20204" class="cls-5" d="M234.995,374.041a7.871,7.871,0,0,1-1.852.619h0a16.35,16.35,0,0,1-2.961.31h-.036a1.413,1.413,0,0,1-.727,2.624,1.4,1.4,0,0,1-.763-.225,1.413,1.413,0,0,1,.036-2.4h-.036a16.428,16.428,0,0,1-2.964-.31,7.869,7.869,0,0,1-1.85-.619c-.517,2.227,2.957,4.234,4.033,6v.649a2.749,2.749,0,0,0,3.089,0v-.649C232.038,378.275,235.512,376.268,234.995,374.041Z" transform="translate(-208.877 -349.117)"/>
        <path id="Path_20205" data-name="Path 20205" class="cls-5" d="M298.339,366.5v1.432H298.3a1.284,1.284,0,0,0-.209-.1,1.377,1.377,0,0,0-.518-.1,1.408,1.408,0,0,0-.727.2h-.036V366.5q.383.013.763.012T298.339,366.5Z" transform="translate(-277.035 -342.079)"/>
        <path id="Path_20206" data-name="Path 20206" class="cls-6" d="M213.563,349.267V350.7a11.315,11.315,0,0,1-4.814-.93c-.162-.079-.312-.16-.455-.243-.242-.14-.461-.284-.675-.427v-1.063A15.3,15.3,0,0,0,213.563,349.267Z" transform="translate(-193.785 -324.845)"/>
        <path id="Path_20207" data-name="Path 20207" class="cls-6" d="M325.661,348.037V349.1c-.213.144-.433.287-.675.427-.143.083-.293.164-.455.243a11.319,11.319,0,0,1-4.814.93v-1.432A15.3,15.3,0,0,0,325.661,348.037Z" transform="translate(-298.414 -324.845)"/>
        <path id="Path_20208" data-name="Path 20208" class="cls-7" d="M173.233,272.367a5.924,5.924,0,0,1-3.675,5.042,18.718,18.718,0,0,1-13.413,0,5.924,5.924,0,0,1-3.675-5.042c1.955,4.41,6.836,4.96,10.382,4.96S171.277,276.777,173.233,272.367Z" transform="translate(-142.31 -254.218)"/>
        <path id="Path_20209" data-name="Path 20209" class="cls-7" d="M227.874,378.78v1.262c-1.075-1.766-4.549-3.774-4.033-6a7.869,7.869,0,0,0,1.85.619C226.915,376.257,227.874,377.971,227.874,378.78Z" transform="translate(-208.877 -349.117)"/>
        <path id="Path_20210" data-name="Path 20210" class="cls-7" d="M331.442,380.042V378.78c0-.809.956-2.523,2.18-4.119h0a7.87,7.87,0,0,0,1.852-.619C335.991,376.268,332.517,378.275,331.442,380.042Z" transform="translate(-309.356 -349.117)"/>
        <path id="Path_20211" data-name="Path 20211" class="cls-8" d="M197.3,372.415a2.374,2.374,0,0,0-.934.555,12.589,12.589,0,0,1-1.993-3.825,10.017,10.017,0,0,1-.447-1.518,6.876,6.876,0,0,1-.109-.715c-.218-2.2.894-2.924.894-2.924.213.144.433.287.675.427C194.647,366.584,195.352,369.189,197.3,372.415Z" transform="translate(-180.873 -339.734)"/>
        <path id="Path_20212" data-name="Path 20212" class="cls-9" d="M156.792,91.4c-1.071,1.341-1.121,3.88-.879,5.824a10.946,10.946,0,0,0-.816,1.791c-.882-4.879-.063-7.436.8-8.187q.5.3.9.572Z" transform="translate(-144.407 -84.773)"/>
        <path id="Path_20213" data-name="Path 20213" class="cls-8" d="M286.024,475.814H282.6a1.1,1.1,0,0,0,.165-.568c0-.012,0-.026,0-.039V473.83a2.749,2.749,0,0,0,3.089,0v1.377c0,.013,0,.027,0,.039A1.1,1.1,0,0,0,286.024,475.814Z" transform="translate(-263.773 -442.256)"/>
        <path id="Path_20214" data-name="Path 20214" class="cls-8" d="M179.266,424.26h-1.908c-1.3,0-1.863-1.167-2.115-2.212a4.536,4.536,0,0,1-.113-1.16h0a3.453,3.453,0,0,1,.279-1.332,1.624,1.624,0,0,1,1.1-.959,10.019,10.019,0,0,0,.447,1.518,12.589,12.589,0,0,0,1.993,3.825h0A3.611,3.611,0,0,0,179.266,424.26Z" transform="translate(-163.458 -390.702)"/>
        <path id="Path_20215" data-name="Path 20215" class="cls-10" d="M174.5,452.377h0a.048.048,0,1,1,.048-.047.048.048,0,0,1-.048.047Z" transform="translate(-162.83 -422.144)"/>
        <path id="Path_20216" data-name="Path 20216" class="cls-8" d="M139.45,352.517a5.156,5.156,0,0,1-3.043-3.952,4.7,4.7,0,0,0,1.774,6.958,3.453,3.453,0,0,1,.279-1.332,1.624,1.624,0,0,1,1.1-.959A6.871,6.871,0,0,1,139.45,352.517Z" transform="translate(-126.509 -325.338)"/>
        <path id="Path_20217" data-name="Path 20217" class="cls-7" d="M138.459,354.191a3.453,3.453,0,0,0-.279,1.332,4.7,4.7,0,0,1-1.774-6.958A4.542,4.542,0,0,0,138.459,354.191Z" transform="translate(-126.509 -325.338)"/>
        <path id="Path_20218" data-name="Path 20218" class="cls-3" d="M287.705,387.594a1.412,1.412,0,0,1,.763-2.6,1.376,1.376,0,0,1,.518.1c.018.035.035.071.051.106A1.57,1.57,0,0,1,287.705,387.594Z" transform="translate(-267.927 -359.34)"/>
        <path id="Path_20219" data-name="Path 20219" class="cls-5" d="M298.3,386.581a1.284,1.284,0,0,0-.209-.1c.018.035.035.071.051.106a1.57,1.57,0,0,1-1.332,2.4,1.4,1.4,0,0,0,.763.225,1.413,1.413,0,0,0,.727-2.624Z" transform="translate(-277.035 -360.726)"/>
        <path id="Path_20220" data-name="Path 20220" class="cls-5" d="M334.961,489.258h0a3.621,3.621,0,0,1-.317.321,2.325,2.325,0,0,1-1.68.613,1.541,1.541,0,0,1-1.343-.613,1.1,1.1,0,0,1-.165-.568,3.514,3.514,0,0,1,2.57-.308A2.374,2.374,0,0,1,334.961,489.258Z" transform="translate(-309.369 -456.022)"/>
        <path id="Path_20221" data-name="Path 20221" class="cls-8" d="M373.4,367.627a10.014,10.014,0,0,1-.447,1.518,12.587,12.587,0,0,1-1.993,3.825,2.374,2.374,0,0,0-.934-.555c1.947-3.226,2.652-5.831,1.916-8,.242-.14.461-.284.675-.427C372.618,363.988,373.965,364.865,373.4,367.627Z" transform="translate(-345.37 -339.734)"/>
        <path id="Path_20222" data-name="Path 20222" class="cls-11" d="M174.094,101.641a12.286,12.286,0,0,0-3.1,3.6c-.242-1.943-.192-4.483.879-5.824q.184.126.349.246C173.883,100.882,174.094,101.641,174.094,101.641Z" transform="translate(-159.487 -92.796)"/>
        <path id="Path_20223" data-name="Path 20223" class="cls-12" d="M366.975,202.995a1.448,1.448,0,0,0-1.4,1.839c.344.962,2.262,1.018,2.74.243A1.486,1.486,0,0,0,366.975,202.995Zm-.193,1.45a.49.49,0,1,1,.49-.49h0a.491.491,0,0,1-.49.49Z" transform="translate(-341.146 -189.468)"/>
        <path id="Path_20224" data-name="Path 20224" class="cls-5" d="M355.866,165.77a1.325,1.325,0,0,1-1.917-.06.941.941,0,0,1,.865-1.4C355.848,164.31,356.288,165.27,355.866,165.77Z" transform="translate(-330.234 -153.361)"/>
        <path id="Path_20225" data-name="Path 20225" class="cls-5" d="M231.566,165.71a1.324,1.324,0,0,1-1.916.06c-.423-.5.018-1.46,1.051-1.46A.94.94,0,0,1,231.566,165.71Z" transform="translate(-214.199 -153.361)"/>
        <path id="Path_20226" data-name="Path 20226" class="cls-12" d="M207.942,202.995a1.485,1.485,0,0,0-1.344,2.082c.478.776,2.4.719,2.74-.243A1.449,1.449,0,0,0,207.942,202.995Zm.193,1.45a.49.49,0,1,1,.49-.49h0a.49.49,0,0,1-.489.49Z" transform="translate(-192.689 -189.468)"/>
        <path id="Path_20227" data-name="Path 20227" class="cls-5" d="M225.449,210.539a.49.49,0,1,1-.49-.49.49.49,0,0,1,.49.49Z" transform="translate(-209.512 -196.052)"/>
        <path id="Path_20228" data-name="Path 20228" class="cls-13" d="M190.523,87.438c-.332.2-.629.389-.895.572q-.184.126-.349.247h0a8.072,8.072,0,0,0-3.273,1.865,10.352,10.352,0,0,0-9.068,0,8.061,8.061,0,0,0-3.273-1.865q-.166-.121-.349-.246h0q-.4-.273-.9-.572a1.115,1.115,0,0,1,.242-.164c.937-.457,3.246,1.2,4.267,2.188a10.5,10.5,0,0,1,9.087,0c1.021-.991,3.329-2.644,4.267-2.188A1.116,1.116,0,0,1,190.523,87.438Z" transform="translate(-160.93 -81.386)"/>
        <path id="Path_20229" data-name="Path 20229" class="cls-11" d="M401.248,99.012a12.213,12.213,0,0,0-3.918-5.394s.211-.759,1.873-1.974h0q.166-.121.349-.247c.265-.183.562-.373.895-.572C401.31,91.576,402.13,94.134,401.248,99.012Z" transform="translate(-370.854 -84.773)"/>
        <path id="Path_20230" data-name="Path 20230" class="cls-8" d="M383.317,422.047c-.252,1.046-.817,2.212-2.115,2.212h-1.908a3.617,3.617,0,0,0,.317-.321h0a12.589,12.589,0,0,0,1.993-3.825,10.015,10.015,0,0,0,.447-1.518,2.184,2.184,0,0,1,1.379,2.292A4.535,4.535,0,0,1,383.317,422.047Z" transform="translate(-354.02 -390.702)"/>
        <path id="Path_20231" data-name="Path 20231" class="cls-9" d="M430.674,91.4c1.071,1.341,1.121,3.88.879,5.824a10.944,10.944,0,0,1,.816,1.791c.882-4.879.063-7.436-.8-8.187q-.5.3-.9.572Z" transform="translate(-401.976 -84.773)"/>
        <circle id="Ellipse_1709" data-name="Ellipse 1709" class="cls-5" cx="0.49" cy="0.49" r="0.49" transform="translate(25.146 13.997)"/>
        <path id="Path_20232" data-name="Path 20232" class="cls-7" d="M234.881,491.9c-.064.012-.128.021-.194.028s-.138.01-.208.01a2.325,2.325,0,0,1-1.68-.613,3.619,3.619,0,0,1-.317-.321h0a2.374,2.374,0,0,1,.934-.555A7.211,7.211,0,0,0,234.881,491.9Z" transform="translate(-216.99 -457.771)"/>
        <path id="Path_20233" data-name="Path 20233" class="cls-7" d="M348.035,491.9c.064.012.128.021.194.028s.138.01.208.01a2.325,2.325,0,0,0,1.68-.613,3.617,3.617,0,0,0,.317-.321h0a2.374,2.374,0,0,0-.934-.555A7.211,7.211,0,0,1,348.035,491.9Z" transform="translate(-324.844 -457.771)"/>
        <path id="Path_20234" data-name="Path 20234" class="cls-7" d="M281,238.7a2.03,2.03,0,0,0,1.328,2.043c.337.126.433-.571.433-.571l-1.22-2.073S281.024,238.372,281,238.7Z" transform="translate(-262.275 -222.23)"/>
        <path id="Path_20235" data-name="Path 20235" class="cls-7" d="M310.8,238.7a2.03,2.03,0,0,1-1.328,2.043c-.337.126-.433-.571-.433-.571l1.22-2.073S310.777,238.372,310.8,238.7Z" transform="translate(-288.443 -222.23)"/>
        <path id="Path_20236" data-name="Path 20236" class="cls-12" d="M285.913,233.341a1.721,1.721,0,0,1-3.437,0c0-.64.847-.944,1.719-.944S285.913,232.7,285.913,233.341Z" transform="translate(-263.653 -216.911)"/>
        <path id="Path_20237" data-name="Path 20237" class="cls-14" d="M292.761,238.359c-1.322,0-1.622-.907,0-.907S294.084,238.359,292.761,238.359Z" transform="translate(-272.22 -221.629)"/>
        <path id="Path_20238" data-name="Path 20238" class="cls-15" d="M290.789,298.01a2.232,2.232,0,0,1-.135.231,2.063,2.063,0,0,0-2.417,0,1.484,1.484,0,1,1,2.552-.231Z" transform="translate(-268.904 -277.729)"/>
        <path id="Path_20239" data-name="Path 20239" class="cls-16" d="M292.547,302.346a1.364,1.364,0,0,1-2.417,0,2.063,2.063,0,0,1,2.417,0Z" transform="translate(-270.797 -281.834)"/>
        <path id="Path_20240" data-name="Path 20240" class="cls-12" d="M286.605,273.046a3.25,3.25,0,0,1-.322,1.359,2.219,2.219,0,0,0-2.687,0,3.252,3.252,0,0,1-.322-1.359,1.847,1.847,0,0,0,1.665-.779A1.849,1.849,0,0,0,286.605,273.046Z" transform="translate(-264.399 -254.124)"/>
        <path id="Path_20241" data-name="Path 20241" class="cls-12" d="M262.535,263.037a1.425,1.425,0,0,1-.228-.018c-.421-.067-1.019-.366-1.48-1.406a.285.285,0,0,1,.522-.231c.283.638.645,1.009,1.048,1.073a1.64,1.64,0,0,0,1.356-.7.285.285,0,0,1,.424.383h0A2.3,2.3,0,0,1,262.535,263.037Z" transform="translate(-243.424 -243.806)"/>
        <path id="Path_20242" data-name="Path 20242" class="cls-12" d="M280.938,282.559c-.74,0-1.871-.691-1.951-2.6a.285.285,0,0,1,.57-.024c.063,1.5.86,2.049,1.38,2.049a.285.285,0,0,1,0,.571Z" transform="translate(-260.397 -261.031)"/>
        <path id="Path_20243" data-name="Path 20243" class="cls-12" d="M305.7,263.037a2.3,2.3,0,0,1-1.642-.9.285.285,0,0,1,.424-.383h0a1.641,1.641,0,0,0,1.356.7c.4-.065.766-.436,1.048-1.073a.285.285,0,0,1,.522.231h0c-.461,1.04-1.059,1.338-1.48,1.406A1.443,1.443,0,0,1,305.7,263.037Z" transform="translate(-283.726 -243.806)"/>
        <path id="Path_20244" data-name="Path 20244" class="cls-12" d="M304.272,282.571a.285.285,0,0,1,0-.571c.52,0,1.317-.546,1.38-2.049a.285.285,0,0,1,.57.024C306.143,281.88,305.013,282.571,304.272,282.571Z" transform="translate(-283.731 -261.042)"/>
        <path id="Path_20245" data-name="Path 20245" class="cls-12" d="M150.854,105.092c.388-2.26-.48-3.279-.824-3.584v-.748q.112-.056.221-.114a6.135,6.135,0,0,0,3.481-5.757,10.117,10.117,0,0,0-.55-3.276c.9-5.057.009-8-1.209-8.592-1.177-.574-3.588,1.323-4.433,2.092a10.965,10.965,0,0,0-9,0c-.845-.769-3.256-2.666-4.433-2.092-1.218.594-2.112,3.535-1.209,8.592a10.114,10.114,0,0,0-.55,3.276,6.135,6.135,0,0,0,3.48,5.757q.11.059.222.114v.748a3.238,3.238,0,0,0-.922,2.566,4.721,4.721,0,0,1-2.445-3.486.285.285,0,0,0-.515-.139,5.2,5.2,0,0,0-.82,3.953,5.129,5.129,0,0,0,2.538,3.333A4.751,4.751,0,0,0,134,108.8c.484,2.009,1.569,2.431,2.393,2.431h1.8a2.637,2.637,0,0,0,1.786.613,1.867,1.867,0,0,0,1.481-.613h3.142a1.867,1.867,0,0,0,1.481.613,2.637,2.637,0,0,0,1.786-.613h1.8c.824,0,1.908-.422,2.393-2.431a4.826,4.826,0,0,0,.121-1.235A2.52,2.52,0,0,0,150.854,105.092Zm-1.395-3.6c-1.112.735-2.35,1.343-5.373,1.458v-.862a16.078,16.078,0,0,0,5.373-1.067Zm-6.421.619c.154,0,.314,0,.478,0v.724a1.675,1.675,0,0,0-.956,0v-.724c.164,0,.323,0,.478,0Zm0,1.22a1.127,1.127,0,1,1-1.127,1.127h0a1.128,1.128,0,0,1,1.127-1.127Zm9.732-12.75a12.088,12.088,0,0,0-1.333-2.227,12.612,12.612,0,0,0-2.11-2.2,7.767,7.767,0,0,1,2.721-2.347C152.719,84.576,153.312,86.764,152.77,90.58ZM134.027,83.8a7.813,7.813,0,0,1,2.72,2.348,12.615,12.615,0,0,0-2.109,2.2,12.089,12.089,0,0,0-1.333,2.227C132.763,86.764,133.356,84.576,134.027,83.8ZM132.914,94.89c0-5.217,4.312-8.391,4.356-8.422a.285.285,0,0,0,.108-.308c-.033-.118-.38-1.142-2.786-2.677.862-.03,2.677,1.193,3.7,2.189a.286.286,0,0,0,.348.039,10.231,10.231,0,0,1,8.789,0,.285.285,0,0,0,.348-.039c1.026-1,2.841-2.219,3.7-2.189-2.406,1.535-2.753,2.559-2.786,2.677a.286.286,0,0,0,.108.308c.044.031,4.356,3.2,4.356,8.422a5.6,5.6,0,0,1-3.178,5.253,17.966,17.966,0,0,1-13.89,0A5.6,5.6,0,0,1,132.914,94.89Zm9.075,7.2v.862c-3.023-.115-4.26-.723-5.373-1.458v-.471A16.078,16.078,0,0,0,141.989,102.087Zm-10.086,2.2a4.7,4.7,0,0,1,.356-2.867,5.625,5.625,0,0,0,2.913,3.335c.014.11.03.223.05.34a2.308,2.308,0,0,0-1.3,1.99A4.468,4.468,0,0,1,131.9,104.285Zm2.657,4.384a4.239,4.239,0,0,1-.105-1.085,2.217,2.217,0,0,1,.887-1.92,10.835,10.835,0,0,0,.386,1.238,13.763,13.763,0,0,0,1.913,3.761H136.4C135.5,110.663,134.878,109.992,134.559,108.669Zm10.308,1.672v-3.366a.285.285,0,0,0-.571,0v3.366a1.492,1.492,0,0,0,.034.322h-2.587a1.49,1.49,0,0,0,.034-.322v-3.366a.285.285,0,0,0-.571,0v3.366c0,.69-.659.934-1.223.934a2.047,2.047,0,0,1-1.477-.528l-.013-.011c-.645-.568-1.363-1.719-2.234-4.036a9.878,9.878,0,0,1-.435-1.471c0-.005,0-.01,0-.016l0-.007c-.046-.226-.079-.437-.1-.636a.282.282,0,0,0-.007-.062,3.009,3.009,0,0,1,.637-2.508,9.511,9.511,0,0,0,5.281,1.5,1.7,1.7,0,1,0,2.809,0,9.511,9.511,0,0,0,5.281-1.5c.3.3.937,1.211.53,3.206l0,.007s0,.009,0,.014a9.881,9.881,0,0,1-.435,1.472c-.871,2.318-1.589,3.469-2.235,4.037l-.012.01a2.047,2.047,0,0,1-1.477.528c-.564,0-1.223-.245-1.223-.934Zm6.649-1.672c-.319,1.323-.937,1.994-1.838,1.994h-1.243a13.764,13.764,0,0,0,1.913-3.761,10.822,10.822,0,0,0,.386-1.238,2.217,2.217,0,0,1,.888,1.921A4.24,4.24,0,0,1,151.516,108.669Z" transform="translate(-122.496 -77.39)"/>
      </g>
      <g id="Group_10174" data-name="Group 10174" transform="translate(184.061 41.137)">
        <circle id="Ellipse_1708-2" data-name="Ellipse 1708" class="cls-3" cx="30" cy="30" r="30" transform="translate(0.221 0.221)"/>
        <path id="Path_20201-2" data-name="Path 20201" class="cls-4" d="M168.513,104.78c0,.142,0,.283-.007.422-.007.188-.019.374-.034.555a8.912,8.912,0,0,1-5.528,7.585v1.6s2.027,1.32,1.179,5.474c1.524.379,2.034,1.98,2.074,3.448a6.823,6.823,0,0,1-.17,1.745c-.379,1.573-1.23,3.328-3.182,3.328h-2.87a3.5,3.5,0,0,1-2.528.922c-.106,0-.21,0-.313-.014l-.147-.017c-.049-.007-.1-.014-.145-.024a2.054,2.054,0,0,1-1.414-.866h-5.145a2.053,2.053,0,0,1-1.414.866c-.1.019-.193.031-.292.042s-.208.014-.313.014a3.5,3.5,0,0,1-2.528-.922h-2.87c-1.952,0-2.8-1.755-3.182-3.328a6.8,6.8,0,0,1-.172-1.673.071.071,0,0,1-.07-.071h0a.076.076,0,0,1,.01-.037c-5.418-3.2-4.08-8.4-2.607-10.431a7.756,7.756,0,0,0,4.578,5.945c-.328-3.311,1.344-4.4,1.344-4.4v-1.6a8.912,8.912,0,0,1-5.528-7.585c-.016-.182-.027-.368-.034-.555,0-.139-.007-.281-.007-.422a14.827,14.827,0,0,1,.837-4.9c-1.327-7.339-.094-11.186,1.2-12.316a1.674,1.674,0,0,1,.364-.246c1.41-.687,4.883,1.8,6.418,3.291a15.791,15.791,0,0,1,13.67,0c1.536-1.491,5.009-3.978,6.418-3.291a1.676,1.676,0,0,1,.364.246c1.3,1.129,2.531,4.977,1.2,12.316A14.824,14.824,0,0,1,168.513,104.78Z" transform="translate(-122.066 -78.567)"/>
        <path id="Path_20202-2" data-name="Path 20202" class="cls-5" d="M174.819,223.435c-3.362-3.553-4.674-4.347-7.04-4.347s-3.677.794-7.04,4.347-7.316,3.225-8.611.438c.007.188.019.374.034.555a8.912,8.912,0,0,0,5.528,7.585,28.157,28.157,0,0,0,20.177,0,8.912,8.912,0,0,0,5.528-7.585c.016-.182.027-.368.034-.555C182.136,226.66,178.183,226.988,174.819,223.435Zm-7.04.855a2.742,2.742,0,0,1-2.585-2.448c0-.963,1.274-1.42,2.585-1.42s2.585.457,2.585,1.42a2.742,2.742,0,0,1-2.585,2.448Z" transform="translate(-136.99 -197.238)"/>
        <path id="Path_20203-2" data-name="Path 20203" class="cls-5" d="M233.887,488.766a3.572,3.572,0,0,0-1.406.834h0a5.442,5.442,0,0,0,.477.482,3.5,3.5,0,0,0,2.528.922c.106,0,.21,0,.313-.014s.2-.023.292-.042a2.054,2.054,0,0,0,1.414-.866,1.653,1.653,0,0,0,.248-.855A5.287,5.287,0,0,0,233.887,488.766Z" transform="translate(-209.289 -439.715)"/>
        <path id="Path_20204-2" data-name="Path 20204" class="cls-5" d="M240.646,374.041a11.841,11.841,0,0,1-2.786.932h0a24.6,24.6,0,0,1-4.455.467c-.019,0-.036,0-.054,0a2.126,2.126,0,0,1-1.094,3.948,2.1,2.1,0,0,1-1.148-.338,2.126,2.126,0,0,1,.054-3.61c-.019,0-.036,0-.054,0a24.71,24.71,0,0,1-4.459-.467,11.839,11.839,0,0,1-2.783-.932c-.777,3.349,4.449,6.37,6.066,9.026v.976a4.135,4.135,0,0,0,4.646,0v-.976C236.2,380.411,241.423,377.39,240.646,374.041Z" transform="translate(-201.468 -336.659)"/>
        <path id="Path_20205-2" data-name="Path 20205" class="cls-5" d="M299.109,366.5v2.154c-.019,0-.036,0-.054,0a1.926,1.926,0,0,0-.315-.153,2.071,2.071,0,0,0-.779-.149,2.118,2.118,0,0,0-1.094.3c-.019,0-.036,0-.054,0V366.5q.576.019,1.148.019T299.109,366.5Z" transform="translate(-267.172 -329.875)"/>
        <path id="Path_20206-2" data-name="Path 20206" class="cls-6" d="M216.561,349.888v2.154a17.021,17.021,0,0,1-7.242-1.4c-.243-.119-.47-.24-.684-.365-.364-.21-.694-.427-1.015-.643v-1.6A23.022,23.022,0,0,0,216.561,349.888Z" transform="translate(-186.92 -313.261)"/>
        <path id="Path_20207-2" data-name="Path 20207" class="cls-6" d="M328.659,348.037v1.6c-.321.216-.651.432-1.015.643-.215.125-.441.246-.684.365a17.026,17.026,0,0,1-7.242,1.4v-2.154A23.021,23.021,0,0,0,328.659,348.037Z" transform="translate(-287.781 -313.261)"/>
        <path id="Path_20208-2" data-name="Path 20208" class="cls-7" d="M183.7,272.367a8.912,8.912,0,0,1-5.528,7.585,28.157,28.157,0,0,1-20.177,0,8.912,8.912,0,0,1-5.528-7.585c2.942,6.635,10.283,7.462,15.617,7.462S180.762,279,183.7,272.367Z" transform="translate(-137.298 -245.176)"/>
        <path id="Path_20209-2" data-name="Path 20209" class="cls-7" d="M229.933,381.169v1.9c-1.617-2.657-6.844-5.677-6.066-9.026a11.839,11.839,0,0,0,2.783.932C228.492,377.375,229.933,379.953,229.933,381.169Z" transform="translate(-201.468 -336.659)"/>
        <path id="Path_20210-2" data-name="Path 20210" class="cls-7" d="M331.442,383.068v-1.9c0-1.217,1.438-3.8,3.279-6.2h0a11.842,11.842,0,0,0,2.786-.932C338.286,377.39,333.059,380.411,331.442,383.068Z" transform="translate(-298.33 -336.659)"/>
        <path id="Path_20211-2" data-name="Path 20211" class="cls-8" d="M199.071,376.665a3.571,3.571,0,0,0-1.406.834,18.939,18.939,0,0,1-3-5.754,15.072,15.072,0,0,1-.673-2.283,10.352,10.352,0,0,1-.165-1.075c-.328-3.311,1.344-4.4,1.344-4.4.321.216.651.432,1.015.643C195.081,367.893,196.142,371.812,199.071,376.665Z" transform="translate(-174.472 -327.613)"/>
        <path id="Path_20212-2" data-name="Path 20212" class="cls-9" d="M157.838,91.687c-1.612,2.017-1.686,5.837-1.323,8.76a16.467,16.467,0,0,0-1.228,2.694c-1.327-7.339-.094-11.186,1.2-12.316q.749.449,1.347.86Z" transform="translate(-139.32 -81.832)"/>
        <path id="Path_20213-2" data-name="Path 20213" class="cls-8" d="M287.749,476.815H282.6a1.652,1.652,0,0,0,.248-.855c0-.019,0-.039,0-.059V473.83a4.136,4.136,0,0,0,4.646,0V475.9c0,.02,0,.04,0,.059A1.653,1.653,0,0,0,287.749,476.815Z" transform="translate(-254.387 -426.445)"/>
        <path id="Path_20214-2" data-name="Path 20214" class="cls-8" d="M181.353,427.116h-2.87c-1.952,0-2.8-1.755-3.182-3.328a6.823,6.823,0,0,1-.17-1.745h0a5.2,5.2,0,0,1,.419-2A2.443,2.443,0,0,1,177.2,418.6a15.07,15.07,0,0,0,.673,2.283,18.937,18.937,0,0,0,3,5.754h0A5.43,5.43,0,0,0,181.353,427.116Z" transform="translate(-157.684 -376.747)"/>
        <path id="Path_20215-2" data-name="Path 20215" class="cls-10" d="M174.527,452.425h0a.072.072,0,1,1,.072-.071.072.072,0,0,1-.072.071Z" transform="translate(-157.079 -407.057)"/>
        <path id="Path_20216-2" data-name="Path 20216" class="cls-8" d="M141.421,354.51a7.756,7.756,0,0,1-4.578-5.945c-1.479,2.034-2.821,7.267,2.668,10.466a5.194,5.194,0,0,1,.419-2,2.443,2.443,0,0,1,1.655-1.443A10.34,10.34,0,0,1,141.421,354.51Z" transform="translate(-122.065 -313.737)"/>
        <path id="Path_20217-2" data-name="Path 20217" class="cls-7" d="M139.931,357.028a5.194,5.194,0,0,0-.419,2c-5.49-3.2-4.147-8.432-2.668-10.466A6.833,6.833,0,0,0,139.931,357.028Z" transform="translate(-122.065 -313.737)"/>
        <path id="Path_20218-2" data-name="Path 20218" class="cls-3" d="M288.033,388.906a2.124,2.124,0,0,1,1.148-3.912,2.071,2.071,0,0,1,.779.149c.027.053.053.107.077.159A2.362,2.362,0,0,1,288.033,388.906Z" transform="translate(-258.392 -346.514)"/>
        <path id="Path_20219-2" data-name="Path 20219" class="cls-5" d="M299.055,386.632a1.931,1.931,0,0,0-.315-.153c.027.053.053.107.077.159a2.362,2.362,0,0,1-2,3.6,2.1,2.1,0,0,0,1.148.338,2.126,2.126,0,0,0,1.094-3.948Z" transform="translate(-267.172 -347.85)"/>
        <path id="Path_20220-2" data-name="Path 20220" class="cls-5" d="M336.728,489.6h0a5.446,5.446,0,0,1-.477.482,3.5,3.5,0,0,1-2.528.922,2.319,2.319,0,0,1-2.02-.922,1.653,1.653,0,0,1-.248-.855,5.287,5.287,0,0,1,3.866-.464A3.572,3.572,0,0,1,336.728,489.6Z" transform="translate(-298.343 -439.715)"/>
        <path id="Path_20221-2" data-name="Path 20221" class="cls-8" d="M375.1,369.462a15.065,15.065,0,0,1-.673,2.283,18.936,18.936,0,0,1-3,5.754,3.571,3.571,0,0,0-1.406-.834c2.929-4.853,3.989-8.772,2.883-12.034.364-.21.694-.427,1.015-.643C373.925,363.988,375.952,365.308,375.1,369.462Z" transform="translate(-333.047 -327.613)"/>
        <path id="Path_20222-2" data-name="Path 20222" class="cls-11" d="M175.718,102.761a18.482,18.482,0,0,0-4.665,5.421c-.364-2.923-.289-6.743,1.323-8.76q.277.189.525.371C175.4,101.618,175.718,102.761,175.718,102.761Z" transform="translate(-153.857 -89.566)"/>
        <path id="Path_20223-2" data-name="Path 20223" class="cls-12" d="M367.719,202.995a2.179,2.179,0,0,0-2.1,2.767c.517,1.447,3.4,1.532,4.122.365A2.236,2.236,0,0,0,367.719,202.995Zm-.291,2.181a.737.737,0,1,1,.737-.737h0a.738.738,0,0,1-.737.737Z" transform="translate(-328.975 -182.758)"/>
        <path id="Path_20224-2" data-name="Path 20224" class="cls-5" d="M356.9,166.506a1.994,1.994,0,0,1-2.884-.09,1.415,1.415,0,0,1,1.3-2.106C356.876,164.31,357.537,165.754,356.9,166.506Z" transform="translate(-318.456 -147.951)"/>
        <path id="Path_20225-2" data-name="Path 20225" class="cls-5" d="M232.613,166.416a1.992,1.992,0,0,1-2.883.09c-.636-.752.027-2.2,1.582-2.2A1.414,1.414,0,0,1,232.613,166.416Z" transform="translate(-206.598 -147.951)"/>
        <path id="Path_20226-2" data-name="Path 20226" class="cls-12" d="M208.7,202.995a2.235,2.235,0,0,0-2.021,3.132c.719,1.167,3.606,1.082,4.122-.365A2.179,2.179,0,0,0,208.7,202.995Zm.291,2.181a.737.737,0,1,1,.737-.737h0a.737.737,0,0,1-.736.737Z" transform="translate(-185.863 -182.758)"/>
        <path id="Path_20227-2" data-name="Path 20227" class="cls-5" d="M225.943,210.786a.736.736,0,1,1-.737-.737.736.736,0,0,1,.737.737Z" transform="translate(-202.081 -189.105)"/>
        <path id="Path_20228-2" data-name="Path 20228" class="cls-13" d="M199.653,87.56c-.5.3-.946.585-1.346.86q-.277.189-.525.372h0a12.143,12.143,0,0,0-4.924,2.806,15.573,15.573,0,0,0-13.641,0,12.127,12.127,0,0,0-4.924-2.806q-.249-.183-.525-.371h0q-.6-.41-1.347-.86a1.677,1.677,0,0,1,.364-.246c1.41-.687,4.883,1.8,6.418,3.291a15.791,15.791,0,0,1,13.67,0c1.536-1.491,5.009-3.978,6.418-3.291A1.678,1.678,0,0,1,199.653,87.56Z" transform="translate(-155.247 -78.567)"/>
        <path id="Path_20229-2" data-name="Path 20229" class="cls-11" d="M403.223,103.141a18.372,18.372,0,0,0-5.893-8.115s.318-1.142,2.817-2.969h0q.249-.183.525-.372c.4-.275.846-.561,1.346-.86C403.318,91.954,404.55,95.8,403.223,103.141Z" transform="translate(-357.613 -81.832)"/>
        <path id="Path_20230-2" data-name="Path 20230" class="cls-8" d="M385.346,423.788c-.379,1.573-1.229,3.328-3.182,3.328h-2.87a5.437,5.437,0,0,0,.477-.482h0a18.937,18.937,0,0,0,3-5.754,15.073,15.073,0,0,0,.673-2.283c1.524.379,2.034,1.98,2.074,3.448A6.819,6.819,0,0,1,385.346,423.788Z" transform="translate(-341.385 -376.747)"/>
        <path id="Path_20231-2" data-name="Path 20231" class="cls-9" d="M430.674,91.687c1.612,2.017,1.686,5.837,1.323,8.76a16.459,16.459,0,0,1,1.228,2.694c1.327-7.339.095-11.186-1.2-12.316q-.749.449-1.347.86Z" transform="translate(-387.615 -81.832)"/>
        <circle id="Ellipse_1709-2" data-name="Ellipse 1709" class="cls-5" cx="0.737" cy="0.737" r="0.737" transform="translate(37.716 20.944)"/>
        <path id="Path_20232-2" data-name="Path 20232" class="cls-7" d="M236.091,492.636c-.1.019-.193.031-.292.042s-.207.014-.313.014a3.5,3.5,0,0,1-2.528-.922,5.442,5.442,0,0,1-.477-.482h0a3.572,3.572,0,0,1,1.406-.835A10.848,10.848,0,0,0,236.091,492.636Z" transform="translate(-209.289 -441.401)"/>
        <path id="Path_20233-2" data-name="Path 20233" class="cls-7" d="M348.035,492.636c.1.019.193.031.292.042s.208.014.313.014a3.5,3.5,0,0,0,2.528-.922,5.438,5.438,0,0,0,.477-.482h0a3.571,3.571,0,0,0-1.406-.835A10.847,10.847,0,0,1,348.035,492.636Z" transform="translate(-313.26 -441.401)"/>
        <path id="Path_20234-2" data-name="Path 20234" class="cls-7" d="M281.007,239a3.054,3.054,0,0,0,2,3.074c.506.19.651-.859.651-.859L281.82,238.1S281.037,238.512,281.007,239Z" transform="translate(-252.944 -214.34)"/>
        <path id="Path_20235-2" data-name="Path 20235" class="cls-7" d="M311.685,239a3.054,3.054,0,0,1-2,3.074c-.506.19-.651-.859-.651-.859l1.835-3.119S311.655,238.512,311.685,239Z" transform="translate(-278.17 -214.34)"/>
        <path id="Path_20236-2" data-name="Path 20236" class="cls-12" d="M287.646,233.817a2.589,2.589,0,0,1-5.17,0c0-.963,1.274-1.42,2.585-1.42S287.646,232.854,287.646,233.817Z" transform="translate(-254.272 -209.213)"/>
        <path id="Path_20237-2" data-name="Path 20237" class="cls-14" d="M293.32,238.816c-1.988,0-2.441-1.364,0-1.364S295.309,238.816,293.32,238.816Z" transform="translate(-262.531 -213.761)"/>
        <path id="Path_20238-2" data-name="Path 20238" class="cls-15" d="M292.144,298.238a3.354,3.354,0,0,1-.2.348,3.1,3.1,0,0,0-3.636,0,3.359,3.359,0,0,1-.2-.348A3.338,3.338,0,0,1,292.144,298.238Z" transform="translate(-259.334 -267.841)"/>
        <path id="Path_20239-2" data-name="Path 20239" class="cls-16" d="M293.766,302.544a2.051,2.051,0,0,1-3.636,0,3.1,3.1,0,0,1,3.636,0Z" transform="translate(-261.159 -271.799)"/>
        <path id="Path_20240-2" data-name="Path 20240" class="cls-12" d="M288.285,273.439a4.889,4.889,0,0,1-.484,2.044,3.338,3.338,0,0,0-4.042,0,4.891,4.891,0,0,1-.484-2.044,2.779,2.779,0,0,0,2.505-1.172A2.781,2.781,0,0,0,288.285,273.439Z" transform="translate(-254.991 -245.087)"/>
        <path id="Path_20241-2" data-name="Path 20241" class="cls-12" d="M263.409,263.957a2.136,2.136,0,0,1-.343-.027c-.633-.1-1.533-.551-2.226-2.115a.429.429,0,1,1,.785-.348c.425.959.97,1.518,1.577,1.615a2.468,2.468,0,0,0,2.04-1.051.429.429,0,0,1,.637.576h0A3.464,3.464,0,0,1,263.409,263.957Z" transform="translate(-234.772 -235.14)"/>
        <path id="Path_20242-2" data-name="Path 20242" class="cls-12" d="M281.922,284.018c-1.114,0-2.815-1.04-2.935-3.9a.429.429,0,0,1,.858-.036c.095,2.261,1.294,3.082,2.076,3.082a.429.429,0,0,1,0,.859Z" transform="translate(-251.133 -251.744)"/>
        <path id="Path_20243-2" data-name="Path 20243" class="cls-12" d="M306.563,263.957a3.464,3.464,0,0,1-2.47-1.35.429.429,0,1,1,.637-.576h0a2.468,2.468,0,0,0,2.04,1.051c.607-.1,1.152-.656,1.577-1.615a.429.429,0,0,1,.785.348h0c-.693,1.564-1.593,2.013-2.226,2.115A2.171,2.171,0,0,1,306.563,263.957Z" transform="translate(-273.622 -235.14)"/>
        <path id="Path_20244-2" data-name="Path 20244" class="cls-12" d="M304.416,284.029a.429.429,0,0,1,0-.859c.783,0,1.982-.821,2.076-3.082a.429.429,0,0,1,.858.036C307.23,282.99,305.53,284.029,304.416,284.029Z" transform="translate(-273.627 -251.755)"/>
        <path id="Path_20245-2" data-name="Path 20245" class="cls-12" d="M160.744,116.276c.584-3.4-.722-4.933-1.239-5.391V109.76q.168-.084.333-.172a9.229,9.229,0,0,0,5.236-8.66A15.219,15.219,0,0,0,164.247,96c1.358-7.607.014-12.032-1.819-12.924-1.77-.863-5.4,1.99-6.669,3.147a16.5,16.5,0,0,0-13.545,0c-1.272-1.156-4.9-4.01-6.669-3.147-1.833.893-3.177,5.317-1.819,12.925a15.214,15.214,0,0,0-.827,4.928,9.229,9.229,0,0,0,5.236,8.66q.165.088.333.172v1.125a4.872,4.872,0,0,0-1.387,3.86A7.1,7.1,0,0,1,133.4,109.5a.429.429,0,0,0-.775-.21,7.82,7.82,0,0,0-1.233,5.947,7.715,7.715,0,0,0,3.817,5.014,7.145,7.145,0,0,0,.185,1.606c.729,3.022,2.36,3.657,3.6,3.657h2.711a3.967,3.967,0,0,0,2.686.922,2.809,2.809,0,0,0,2.228-.922h4.727a2.809,2.809,0,0,0,2.228.922,3.967,3.967,0,0,0,2.686-.922h2.711c1.24,0,2.871-.634,3.6-3.657a7.259,7.259,0,0,0,.182-1.858C162.706,118.108,161.977,116.778,160.744,116.276Zm-2.1-5.417c-1.673,1.106-3.535,2.02-8.082,2.193v-1.3a24.187,24.187,0,0,0,8.082-1.6Zm-9.66.931c.232,0,.473,0,.719-.007v1.088a2.519,2.519,0,0,0-1.438,0v-1.088c.246,0,.487.007.719.007Zm0,1.835a1.7,1.7,0,1,1-1.7,1.7h0a1.7,1.7,0,0,1,1.7-1.7Zm14.641-19.18a18.183,18.183,0,0,0-2-3.349,18.974,18.974,0,0,0-3.174-3.316c.3-.511,1.258-1.788,4.093-3.531C163.55,85.414,164.442,88.7,163.627,94.445Zm-28.2-10.2c2.824,1.736,3.791,3.02,4.091,3.533a18.976,18.976,0,0,0-3.172,3.315,18.185,18.185,0,0,0-2,3.349C133.531,88.7,134.422,85.414,135.431,84.248Zm-1.674,16.68c0-7.848,6.487-12.623,6.552-12.67a.429.429,0,0,0,.163-.464c-.049-.177-.571-1.717-4.191-4.027,1.3-.045,4.028,1.795,5.571,3.293a.43.43,0,0,0,.523.058,15.391,15.391,0,0,1,13.221,0,.429.429,0,0,0,.523-.058c1.543-1.5,4.274-3.337,5.571-3.293-3.62,2.309-4.141,3.849-4.191,4.026a.43.43,0,0,0,.163.464c.066.047,6.552,4.808,6.552,12.67a8.423,8.423,0,0,1-4.781,7.9c-3.255,1.737-7.478,2.1-10.448,2.1s-7.192-.364-10.448-2.1A8.423,8.423,0,0,1,133.758,100.928Zm13.651,10.828v1.3c-4.548-.173-6.409-1.087-8.082-2.193v-.709A24.187,24.187,0,0,0,147.409,111.756Zm-15.173,3.305a7.068,7.068,0,0,1,.536-4.313,8.462,8.462,0,0,0,4.381,5.017c.02.166.045.336.075.512a3.472,3.472,0,0,0-1.956,2.994A6.721,6.721,0,0,1,132.236,115.061Zm4,6.595a6.378,6.378,0,0,1-.159-1.632c.019-.711.195-2.3,1.335-2.888a16.305,16.305,0,0,0,.58,1.863,20.7,20.7,0,0,0,2.878,5.658H139C137.642,124.656,136.712,123.646,136.232,121.656Zm15.507,2.516v-5.063a.429.429,0,0,0-.859,0v5.063a2.243,2.243,0,0,0,.052.484h-3.891a2.241,2.241,0,0,0,.052-.484v-5.063a.429.429,0,0,0-.859,0v5.063c0,1.038-.991,1.406-1.839,1.406a3.079,3.079,0,0,1-2.222-.794l-.02-.017c-.97-.854-2.05-2.586-3.36-6.071a14.858,14.858,0,0,1-.654-2.212c0-.008,0-.016,0-.023s0-.007,0-.011c-.069-.34-.118-.658-.15-.957a.426.426,0,0,0-.01-.093c-.22-2.281.568-3.378.958-3.772,1.647,1.077,3.607,2.031,7.945,2.261a2.554,2.554,0,1,0,4.225,0c4.337-.23,6.3-1.184,7.944-2.261.448.453,1.409,1.822.8,4.823,0,0,0,.007,0,.01s0,.014,0,.021a14.863,14.863,0,0,1-.655,2.215c-1.311,3.487-2.391,5.219-3.362,6.072l-.017.015a3.079,3.079,0,0,1-2.222.794c-.849,0-1.839-.368-1.839-1.406Zm10-2.515c-.48,1.99-1.41,3-2.765,3h-1.87A20.7,20.7,0,0,0,159.984,119a16.283,16.283,0,0,0,.58-1.863c1.14.585,1.316,2.178,1.335,2.889A6.377,6.377,0,0,1,161.74,121.656Z" transform="translate(-118.197 -74.716)"/>
      </g>
      <g id="Group_10173" data-name="Group 10173" transform="translate(68.427 73.503)">
        <circle id="Ellipse_1708-3" data-name="Ellipse 1708" class="cls-3" cx="54" cy="54" r="54" transform="translate(-0.146 -0.146)"/>
        <path id="Path_20201-3" data-name="Path 20201" class="cls-4" d="M194.314,118.539c0,.253-.005.505-.013.753-.013.334-.033.666-.061.99-.569,6.716-4.465,10.966-9.854,13.52v2.85s3.613,2.352,2.1,9.757c2.717.676,3.626,3.529,3.7,6.146a12.163,12.163,0,0,1-.3,3.11c-.676,2.8-2.192,5.932-5.672,5.932h-5.116a6.233,6.233,0,0,1-4.506,1.643c-.189,0-.375-.008-.559-.026l-.263-.031c-.087-.013-.171-.026-.258-.043a3.66,3.66,0,0,1-2.521-1.544h-9.17a3.66,3.66,0,0,1-2.521,1.544c-.171.033-.345.056-.521.074s-.37.026-.559.026a6.233,6.233,0,0,1-4.506-1.643H148.6c-3.48,0-5-3.128-5.672-5.932a12.132,12.132,0,0,1-.306-2.983.126.126,0,0,1-.125-.126h0a.136.136,0,0,1,.018-.066c-9.657-5.71-7.272-14.98-4.646-18.593.434,4.35,3.529,8.315,8.16,10.6-.584-5.9,2.4-7.841,2.4-7.841V133.8c-5.389-2.554-9.285-6.8-9.854-13.52-.028-.324-.048-.656-.061-.99-.008-.247-.013-.5-.013-.753a26.428,26.428,0,0,1,1.493-8.742c-2.365-13.082-.168-19.94,2.146-21.953a2.985,2.985,0,0,1,.648-.439c2.513-1.225,8.7,3.207,11.441,5.866,2.031-1.243,6.172-2.773,12.184-2.773s10.152,1.531,12.183,2.773c2.738-2.659,8.928-7.091,11.441-5.866a2.989,2.989,0,0,1,.648.439c2.314,2.013,4.511,8.871,2.146,21.953A26.424,26.424,0,0,1,194.314,118.539Z" transform="translate(-111.688 -71.982)"/>
        <path id="Path_20202-3" data-name="Path 20202" class="cls-5" d="M192.574,226.837c-5.994-6.333-8.331-7.749-12.548-7.749s-6.555,1.416-12.548,7.749-13.041,5.749-15.35.781c.013.334.033.666.061.99.569,6.716,4.465,10.966,9.854,13.521,5.162,2.444,11.693,3.332,17.983,3.332s12.821-.888,17.983-3.332c5.389-2.554,9.285-6.8,9.854-13.521.028-.324.048-.656.061-.99C205.618,232.585,198.57,233.17,192.574,226.837Zm-12.548,1.523A4.888,4.888,0,0,1,175.418,224c0-1.717,2.271-2.531,4.608-2.531s4.608.814,4.608,2.531a4.888,4.888,0,0,1-4.608,4.363Z" transform="translate(-125.312 -180.308)"/>
        <path id="Path_20203-3" data-name="Path 20203" class="cls-5" d="M234.987,488.913a6.367,6.367,0,0,0-2.506,1.487v0a9.725,9.725,0,0,0,.85.86,6.234,6.234,0,0,0,4.506,1.643c.189,0,.375-.008.559-.026s.35-.041.521-.074a3.661,3.661,0,0,0,2.521-1.544,2.947,2.947,0,0,0,.441-1.523A9.424,9.424,0,0,0,234.987,488.913Z" transform="translate(-191.308 -401.646)"/>
        <path id="Path_20204-3" data-name="Path 20204" class="cls-5" d="M253.837,374.041a21.1,21.1,0,0,1-4.965,1.661h0a43.847,43.847,0,0,1-7.94.832c-.033,0-.064,0-.1,0a3.789,3.789,0,0,1-1.949,7.037,3.741,3.741,0,0,1-2.046-.6,3.789,3.789,0,0,1,.1-6.435c-.033,0-.064,0-.1,0a44.058,44.058,0,0,1-7.948-.832,21.1,21.1,0,0,1-4.96-1.661c-1.385,5.97,7.93,11.354,10.813,16.09v1.74s1.225,1.273,4.141,1.273,4.141-1.273,4.141-1.273v-1.74C245.907,385.4,255.223,380.011,253.837,374.041Z" transform="translate(-184.169 -307.574)"/>
        <path id="Path_20205-3" data-name="Path 20205" class="cls-5" d="M300.906,366.5v3.84c-.033,0-.064,0-.1,0a3.439,3.439,0,0,0-.561-.273,3.689,3.689,0,0,0-1.388-.265,3.776,3.776,0,0,0-1.95.538c-.033,0-.064,0-.1,0V366.5q1.026.034,2.046.033T300.906,366.5Z" transform="translate(-244.145 -301.382)"/>
        <path id="Path_20206-3" data-name="Path 20206" class="cls-6" d="M223.557,351.336v3.84c-6.6-.176-10.283-1.212-12.908-2.493-.434-.212-.837-.429-1.22-.651-.648-.375-1.237-.76-1.809-1.146v-2.85C212.223,350.216,217.918,351.16,223.557,351.336Z" transform="translate(-170.889 -286.217)"/>
        <path id="Path_20207-3" data-name="Path 20207" class="cls-6" d="M335.655,348.037v2.85c-.572.385-1.161.771-1.809,1.146-.383.222-.786.439-1.22.651-2.625,1.281-6.315,2.317-12.908,2.493v-3.84C325.357,351.16,331.052,350.216,335.655,348.037Z" transform="translate(-262.957 -286.217)"/>
        <path id="Path_20208-3" data-name="Path 20208" class="cls-7" d="M208.144,272.367c-.569,6.715-4.465,10.966-9.854,13.52-5.162,2.444-11.693,3.332-17.983,3.332s-12.821-.888-17.983-3.332c-5.389-2.554-9.285-6.8-9.854-13.52,5.243,11.826,18.33,13.3,27.837,13.3S202.9,284.193,208.144,272.367Z" transform="translate(-125.593 -224.067)"/>
        <path id="Path_20209-3" data-name="Path 20209" class="cls-7" d="M234.742,386.747v3.383c-2.883-4.736-12.2-10.119-10.813-16.09a21.1,21.1,0,0,0,4.96,1.661C232.172,379.983,234.742,384.579,234.742,386.747Z" transform="translate(-184.169 -307.574)"/>
        <path id="Path_20210-3" data-name="Path 20210" class="cls-7" d="M331.442,390.131v-3.383c0-2.169,2.564-6.766,5.846-11.045h0a21.1,21.1,0,0,0,4.965-1.661C343.641,380.011,334.325,385.4,331.442,390.131Z" transform="translate(-272.587 -307.574)"/>
        <path id="Path_20211-3" data-name="Path 20211" class="cls-8" d="M203.206,386.584a6.366,6.366,0,0,0-2.506,1.487c-1.62-1.829-3.353-4.96-5.345-10.257a26.855,26.855,0,0,1-1.2-4.069,18.438,18.438,0,0,1-.293-1.916c-.584-5.9,2.4-7.841,2.4-7.841.572.385,1.161.771,1.809,1.146C196.095,370.949,197.985,377.934,203.206,386.584Z" transform="translate(-159.527 -299.318)"/>
        <path id="Path_20212-3" data-name="Path 20212" class="cls-9" d="M160.281,92.361c-2.873,3.6-3.006,10.405-2.358,15.615a29.352,29.352,0,0,0-2.189,4.8c-2.365-13.082-.168-19.94,2.146-21.953q1.336.8,2.4,1.533Z" transform="translate(-127.438 -74.962)"/>
        <path id="Path_20213-3" data-name="Path 20213" class="cls-8" d="M291.774,479.15H282.6a2.946,2.946,0,0,0,.442-1.523c0-.033,0-.069,0-.1V473.83s1.225,1.273,4.141,1.273,4.141-1.273,4.141-1.273v3.692c0,.036,0,.071,0,.1A2.947,2.947,0,0,0,291.774,479.15Z" transform="translate(-232.475 -389.533)"/>
        <path id="Path_20214-3" data-name="Path 20214" class="cls-8" d="M186.225,433.784h-5.116c-3.48,0-5-3.128-5.672-5.932a12.164,12.164,0,0,1-.3-3.11v0a9.261,9.261,0,0,1,.748-3.572,4.355,4.355,0,0,1,2.95-2.572,26.862,26.862,0,0,0,1.2,4.07c1.993,5.3,3.725,8.428,5.345,10.257v0A9.679,9.679,0,0,0,186.225,433.784Z" transform="translate(-144.202 -344.168)"/>
        <path id="Path_20215-3" data-name="Path 20215" class="cls-10" d="M174.584,452.537h0a.127.127,0,1,1,.129-.126.128.128,0,0,1-.129.126Z" transform="translate(-143.65 -371.836)"/>
        <path id="Path_20216-3" data-name="Path 20216" class="cls-8" d="M146.023,359.161c-4.631-2.281-7.726-6.246-8.16-10.6-2.636,3.626-5.029,12.954,4.756,18.657a9.26,9.26,0,0,1,.748-3.572,4.355,4.355,0,0,1,2.95-2.572A18.418,18.418,0,0,1,146.023,359.161Z" transform="translate(-111.688 -286.65)"/>
        <path id="Path_20217-3" data-name="Path 20217" class="cls-7" d="M143.367,363.649a9.26,9.26,0,0,0-.748,3.572c-9.785-5.7-7.392-15.031-4.756-18.657C135.552,355.577,139,361.593,143.367,363.649Z" transform="translate(-111.688 -286.65)"/>
        <path id="Path_20218-3" data-name="Path 20218" class="cls-3" d="M288.8,391.967a3.786,3.786,0,0,1,2.046-6.973,3.689,3.689,0,0,1,1.388.265c.048.094.094.191.138.283C293.95,388.939,292.034,391.727,288.8,391.967Z" transform="translate(-236.131 -316.57)"/>
        <path id="Path_20219-3" data-name="Path 20219" class="cls-5" d="M300.809,386.752a3.442,3.442,0,0,0-.561-.273c.048.094.094.191.138.283,1.579,3.4-.337,6.185-3.572,6.425a3.742,3.742,0,0,0,2.046.6,3.789,3.789,0,0,0,1.949-7.037Z" transform="translate(-244.145 -317.79)"/>
        <path id="Path_20220-3" data-name="Path 20220" class="cls-5" d="M340.853,490.4v0a9.728,9.728,0,0,1-.85.86,6.234,6.234,0,0,1-4.506,1.643,4.133,4.133,0,0,1-3.6-1.643,2.946,2.946,0,0,1-.441-1.523,9.424,9.424,0,0,1,6.892-.827A6.367,6.367,0,0,1,340.853,490.4Z" transform="translate(-272.598 -401.646)"/>
        <path id="Path_20221-3" data-name="Path 20221" class="cls-8" d="M379.077,373.745a26.85,26.85,0,0,1-1.2,4.069c-1.993,5.3-3.725,8.428-5.345,10.257a6.366,6.366,0,0,0-2.506-1.487c5.22-8.65,7.111-15.636,5.139-21.451.648-.375,1.237-.76,1.809-1.146C376.975,363.988,380.588,366.34,379.077,373.745Z" transform="translate(-304.278 -299.318)"/>
        <path id="Path_20222-3" data-name="Path 20222" class="cls-11" d="M179.509,105.374a32.944,32.944,0,0,0-8.315,9.662c-.648-5.21-.515-12.02,2.358-15.615q.494.337.936.661C178.942,103.338,179.509,105.374,179.509,105.374Z" transform="translate(-140.708 -82.022)"/>
        <path id="Path_20223-3" data-name="Path 20223" class="cls-12" d="M369.454,202.995c-2.126,0-4.71,2.225-3.743,4.932.921,2.58,6.065,2.73,7.348.651S372.477,202.995,369.454,202.995Zm-.518,3.888a1.314,1.314,0,1,1,1.314-1.314h0a1.315,1.315,0,0,1-1.314,1.314Z" transform="translate(-300.56 -167.09)"/>
        <path id="Path_20224-3" data-name="Path 20224" class="cls-5" d="M359.323,168.224c-.952,1.128-3.861,1.651-5.141-.161-1.031-1.457.194-3.753,2.319-3.753C359.275,164.31,360.454,166.884,359.323,168.224Z" transform="translate(-290.958 -135.317)"/>
        <path id="Path_20225-3" data-name="Path 20225" class="cls-5" d="M235.057,168.063c-1.281,1.812-4.19,1.288-5.139.161-1.133-1.34.048-3.914,2.819-3.914C234.865,164.31,236.09,166.606,235.057,168.063Z" transform="translate(-188.852 -135.317)"/>
        <path id="Path_20226-3" data-name="Path 20226" class="cls-12" d="M210.46,202.995c-3.024,0-4.886,3.506-3.6,5.583s6.427,1.929,7.348-.651C215.172,205.22,212.585,202.995,210.46,202.995Zm.518,3.888a1.314,1.314,0,1,1,1.314-1.314h0a1.313,1.313,0,0,1-1.312,1.314Z" transform="translate(-169.924 -167.09)"/>
        <path id="Path_20227-3" data-name="Path 20227" class="cls-5" d="M227.1,211.363a1.313,1.313,0,1,1-1.314-1.314,1.313,1.313,0,0,1,1.314,1.314Z" transform="translate(-184.728 -172.884)"/>
        <path id="Path_20228-3" data-name="Path 20228" class="cls-13" d="M220.964,87.845c-.891.533-1.687,1.043-2.4,1.533q-.494.337-.936.663h0c-3.437.62-7.591,3.858-8.777,5-4.335-2.335-7.387-2.8-12.158-2.8s-7.823.469-12.158,2.8c-1.184-1.143-5.343-4.383-8.777-5q-.444-.325-.936-.661v0q-1.068-.731-2.4-1.533a2.988,2.988,0,0,1,.648-.439c2.513-1.225,8.7,3.207,11.441,5.866,2.031-1.243,6.172-2.773,12.184-2.773s10.152,1.531,12.183,2.773c2.738-2.659,8.928-7.091,11.441-5.866A2.991,2.991,0,0,1,220.964,87.845Z" transform="translate(-141.977 -71.982)"/>
        <path id="Path_20229-3" data-name="Path 20229" class="cls-11" d="M407.835,112.778a32.748,32.748,0,0,0-10.5-14.464s.566-2.036,5.021-5.292h0q.444-.325.936-.663c.712-.49,1.508-1,2.4-1.533C408,92.838,410.2,99.7,407.835,112.778Z" transform="translate(-326.702 -74.962)"/>
        <path id="Path_20230-3" data-name="Path 20230" class="cls-8" d="M390.082,427.852c-.676,2.8-2.192,5.932-5.672,5.932h-5.116a9.683,9.683,0,0,0,.85-.86v0c1.62-1.829,3.353-4.96,5.345-10.257a26.862,26.862,0,0,0,1.2-4.07c2.717.676,3.626,3.529,3.7,6.147A12.162,12.162,0,0,1,390.082,427.852Z" transform="translate(-311.889 -344.168)"/>
        <path id="Path_20231-3" data-name="Path 20231" class="cls-9" d="M430.674,92.361c2.873,3.6,3.006,10.405,2.358,15.615a29.347,29.347,0,0,1,2.189,4.8c2.365-13.082.168-19.94-2.146-21.953q-1.336.8-2.4,1.533Z" transform="translate(-354.088 -74.962)"/>
        <circle id="Ellipse_1709-3" data-name="Ellipse 1709" class="cls-5" cx="1.314" cy="1.314" r="1.314" transform="translate(67.061 37.165)"/>
        <path id="Path_20232-3" data-name="Path 20232" class="cls-7" d="M238.916,494.346c-.171.033-.345.056-.521.074s-.37.026-.559.026a6.233,6.233,0,0,1-4.506-1.643,9.729,9.729,0,0,1-.85-.86v0a6.367,6.367,0,0,1,2.506-1.488A19.34,19.34,0,0,0,238.916,494.346Z" transform="translate(-191.308 -403.185)"/>
        <path id="Path_20233-3" data-name="Path 20233" class="cls-7" d="M348.035,494.346c.171.033.344.056.521.074s.37.026.559.026a6.233,6.233,0,0,0,4.506-1.643,9.721,9.721,0,0,0,.85-.86v0a6.367,6.367,0,0,0-2.506-1.488A19.341,19.341,0,0,1,348.035,494.346Z" transform="translate(-286.215 -403.185)"/>
        <path id="Path_20234-3" data-name="Path 20234" class="cls-7" d="M281.012,239.707a5.443,5.443,0,0,0,3.561,5.479c.9.339,1.16-1.531,1.16-1.531l-3.271-5.56S281.066,238.837,281.012,239.707Z" transform="translate(-231.157 -195.919)"/>
        <path id="Path_20235-3" data-name="Path 20235" class="cls-7" d="M313.758,239.707a5.443,5.443,0,0,1-3.561,5.479c-.9.339-1.16-1.531-1.16-1.531l3.271-5.56S313.7,238.837,313.758,239.707Z" transform="translate(-254.184 -195.919)"/>
        <path id="Path_20236-3" data-name="Path 20236" class="cls-12" d="M291.692,234.928a4.615,4.615,0,0,1-9.216,0c0-1.717,2.271-2.531,4.608-2.531S291.692,233.211,291.692,234.928Z" transform="translate(-232.37 -191.239)"/>
        <path id="Path_20237-3" data-name="Path 20237" class="cls-14" d="M294.622,239.884c-3.544,0-4.35-2.432,0-2.432S298.169,239.884,294.622,239.884Z" transform="translate(-239.908 -195.39)"/>
        <path id="Path_20238-3" data-name="Path 20238" class="cls-15" d="M295.307,298.771a5.98,5.98,0,0,1-.362.62,5.531,5.531,0,0,0-6.481,0,5.98,5.98,0,0,1-.362-.62A5.951,5.951,0,0,1,295.307,298.771Z" transform="translate(-236.991 -244.756)"/>
        <path id="Path_20239-3" data-name="Path 20239" class="cls-16" d="M296.611,303a3.657,3.657,0,0,1-6.481,0,5.531,5.531,0,0,1,6.481,0Z" transform="translate(-238.656 -248.368)"/>
        <path id="Path_20240-3" data-name="Path 20240" class="cls-12" d="M292.205,274.357a8.715,8.715,0,0,1-.862,3.644,5.951,5.951,0,0,0-7.206,0,8.719,8.719,0,0,1-.862-3.644c1.434.3,3-.469,4.465-2.09C289.207,273.887,290.774,274.655,292.205,274.357Z" transform="translate(-233.026 -223.985)"/>
        <path id="Path_20241-3" data-name="Path 20241" class="cls-12" d="M265.448,266.106a3.82,3.82,0,0,1-.611-.049c-1.128-.181-2.732-.982-3.968-3.77a.765.765,0,0,1,1.4-.62c.758,1.71,1.73,2.705,2.811,2.878s2.386-.49,3.637-1.873a.765.765,0,0,1,1.136,1.027h0A6.175,6.175,0,0,1,265.448,266.106Z" transform="translate(-214.569 -214.905)"/>
        <path id="Path_20242-3" data-name="Path 20242" class="cls-12" d="M284.219,287.424c-1.985,0-5.017-1.854-5.231-6.96a.765.765,0,0,1,1.53-.064c.169,4.03,2.306,5.493,3.7,5.493a.765.765,0,0,1,0,1.531Z" transform="translate(-229.504 -230.062)"/>
        <path id="Path_20243-3" data-name="Path 20243" class="cls-12" d="M308.583,266.106a6.175,6.175,0,0,1-4.4-2.406.766.766,0,0,1,1.136-1.027h0c1.25,1.383,2.543,2.048,3.637,1.873s2.053-1.168,2.811-2.878a.765.765,0,0,1,1.4.62h0c-1.236,2.788-2.84,3.589-3.968,3.77A3.869,3.869,0,0,1,308.583,266.106Z" transform="translate(-250.033 -214.905)"/>
        <path id="Path_20244-3" data-name="Path 20244" class="cls-12" d="M304.752,287.434a.765.765,0,0,1,0-1.531c1.4,0,3.532-1.463,3.7-5.493a.765.765,0,0,1,1.53.064C309.768,285.58,306.737,287.434,304.752,287.434Z" transform="translate(-250.037 -230.072)"/>
        <path id="Path_20245-3" data-name="Path 20245" class="cls-12" d="M183.83,142.381c1.04-6.061-1.287-8.792-2.209-9.61v-2.006q.3-.149.594-.306c6.193-3.3,9.333-8.5,9.333-15.436a27.128,27.128,0,0,0-1.474-8.784c2.421-13.56.024-21.446-3.242-23.038-3.156-1.538-9.62,3.548-11.888,5.609-1.61-.868-5.624-2.593-12.072-2.593S152.409,87.942,150.8,88.81c-2.267-2.061-8.73-7.148-11.887-5.609-3.267,1.592-5.663,9.478-3.242,23.038a27.118,27.118,0,0,0-1.474,8.784c0,6.939,3.14,12.133,9.333,15.436q.294.157.594.306v2.005c-.77.683-2.522,2.7-2.472,6.88-3.766-2.235-6.186-5.654-6.556-9.347a.765.765,0,0,0-1.381-.374,13.939,13.939,0,0,0-2.2,10.6c.766,3.643,3.057,6.646,6.8,8.937a12.738,12.738,0,0,0,.329,2.863c1.3,5.387,4.206,6.518,6.416,6.518H149.9a7.071,7.071,0,0,0,4.788,1.643,5.007,5.007,0,0,0,3.972-1.643h8.426a5.008,5.008,0,0,0,3.972,1.643,7.071,7.071,0,0,0,4.788-1.643h4.833c2.21,0,5.117-1.131,6.416-6.518a12.939,12.939,0,0,0,.325-3.311C187.327,145.645,186.028,143.276,183.83,142.381Zm-3.74-9.655c-2.983,1.971-6.3,3.6-14.406,3.909v-2.312a43.113,43.113,0,0,0,14.406-2.86Zm-17.219,1.659c.414,0,.842,0,1.281-.013v1.94a4.491,4.491,0,0,0-2.562,0v-1.94c.439.009.867.013,1.281.013Zm0,3.271a3.022,3.022,0,1,1-3.021,3.022h0a3.025,3.025,0,0,1,3.021-3.022Zm26.1-34.189A32.412,32.412,0,0,0,185.4,97.5a33.819,33.819,0,0,0-5.657-5.911c.529-.911,2.242-3.187,7.3-6.295C188.832,87.369,190.421,93.235,188.968,103.467ZM138.71,85.291c5.033,3.095,6.758,5.384,7.293,6.3a33.827,33.827,0,0,0-5.654,5.909,32.416,32.416,0,0,0-3.573,5.97C135.322,93.235,136.911,87.369,138.71,85.291Zm-2.983,29.732c0-13.989,11.563-22.5,11.679-22.584a.765.765,0,0,0,.29-.827c-.088-.316-1.018-3.061-7.47-7.177,2.311-.081,7.179,3.2,9.93,5.87a.766.766,0,0,0,.932.1c1.021-.624,4.888-2.66,11.784-2.66s10.763,2.036,11.784,2.66a.765.765,0,0,0,.932-.1c2.751-2.67,7.619-5.949,9.93-5.869-6.452,4.116-7.382,6.861-7.47,7.177a.766.766,0,0,0,.29.827c.117.084,11.679,8.571,11.679,22.584,0,6.33-2.867,11.069-8.522,14.086-5.8,3.1-13.33,3.745-18.623,3.745s-12.82-.65-18.623-3.745C138.594,126.092,135.726,121.353,135.726,115.023Zm24.333,19.3v2.312c-8.106-.309-11.424-1.938-14.407-3.909v-1.263A43.113,43.113,0,0,0,160.06,134.323Zm-27.046,5.892a12.6,12.6,0,0,1,.956-7.688,15.083,15.083,0,0,0,7.81,8.942c.036.3.08.6.134.912-1.9.775-3.132,2.655-3.486,5.337A11.981,11.981,0,0,1,133.014,140.215Zm7.124,11.755a11.367,11.367,0,0,1-.282-2.91c.035-1.267.348-4.106,2.38-5.148a29.053,29.053,0,0,0,1.034,3.32c1.851,4.924,3.506,8.087,5.131,10.085h-3.334C142.651,157.317,140.993,155.519,140.137,151.971Zm27.641,4.484V147.43a.765.765,0,0,0-1.531,0v9.025a4,4,0,0,0,.092.862H159.4a4,4,0,0,0,.092-.862V147.43a.765.765,0,0,0-1.531,0v9.025c0,1.849-1.766,2.506-3.279,2.506a5.488,5.488,0,0,1-3.96-1.415c-.011-.011-.023-.02-.035-.03-1.73-1.522-3.654-4.609-5.989-10.821a26.486,26.486,0,0,1-1.166-3.944c0-.014,0-.028-.006-.042s-.005-.013-.007-.02c-.123-.605-.211-1.173-.267-1.705a.759.759,0,0,0-.018-.167c-.391-4.066,1.012-6.021,1.707-6.724,2.935,1.92,6.43,3.62,14.162,4.03a4.552,4.552,0,1,0,7.531,0c7.731-.41,11.226-2.11,14.161-4.03.8.808,2.512,3.248,1.422,8.6,0,.006-.005.012-.007.018s0,.025-.005.038a26.5,26.5,0,0,1-1.167,3.948c-2.336,6.216-4.262,9.3-5.992,10.824-.01.009-.021.017-.031.027a5.489,5.489,0,0,1-3.961,1.415c-1.513,0-3.279-.656-3.279-2.506Zm17.828-4.484c-.856,3.547-2.513,5.346-4.928,5.346h-3.334c1.625-2,3.28-5.16,5.13-10.085a29.013,29.013,0,0,0,1.034-3.32c2.032,1.042,2.345,3.881,2.38,5.15A11.368,11.368,0,0,1,185.606,151.971Z" transform="translate(-108.157 -68.466)"/>
      </g>
    </g>
  </g>
</svg>
