<svg xmlns="http://www.w3.org/2000/svg" width="80" height="53" viewBox="0 0 80 53">
    <path data-name="Rectangle 5117" style="fill:none" d="M0 0h80v53H0z"/>
    <g data-name="Group 10061" transform="translate(9.68 2.661)">
        <path data-name="Path 19784" d="M-502.818 33.042h-1.333v-9.78l-2.831-2.832v-4.293h1.333v3.741l2.831 2.832z" transform="translate(557.083 -15.295)" style="fill:#f2f2f3"/>
        <path data-name="Path 19785" d="M-588.14 38.381h-1.333V23.243l4.6-4.6v-6.296h1.333v6.844l-4.6 4.6z" transform="translate(621.244 -12.347)" style="fill:#f2f2f3"/>
        <path data-name="Path 19786" d="M-628.515 50.073h-1.333V38.947l-4.9-4.9V27h1.333v6.493l4.9 4.9z" transform="translate(656.459 -23.744)" style="fill:#f2f2f3"/>
        <path data-name="Path 19787" d="M-696.646 33.418h-1.333v-7.13l2.03-2.03V16h1.333v8.81l-2.03 2.03z" transform="translate(705.637 -15.189)" style="fill:#f2f2f3"/>
        <circle data-name="Ellipse 1684" cx="1.977" cy="1.977" r="1.977" transform="translate(55.839 30.692)" style="fill:#f2f2f3"/>
        <circle data-name="Ellipse 1685" cx="1.373" cy="1.373" r="1.373" transform="translate(39.486 10.27)" style="fill:#f2f2f3"/>
        <circle data-name="Ellipse 1686" cx="2.618" cy="2.618" r="2.618" transform="translate(0 33.171)" style="fill:#f2f2f3"/>
        <g data-name="Group 10172" transform="translate(3.32 13.339)">
            <circle data-name="Ellipse 1708" cx="5" cy="5" r="5" transform="translate(-.002 .001)" style="fill:#ffe957"/>
            <path data-name="Path 20201" d="M141.02 90.119v.07c0 .023 0 .062-.006.092a1.481 1.481 0 0 1-.919 1.261v.266s.337.219.2.91a.546.546 0 0 1 .345.573 1.134 1.134 0 0 1-.028.29c-.063.261-.2.553-.529.553h-.483a.581.581 0 0 1-.42.153h-.101a.341.341 0 0 1-.235-.144h-.855a.341.341 0 0 1-.235.144l-.049.007h-.052a.581.581 0 0 1-.42-.153h-.477c-.324 0-.466-.292-.529-.553a1.131 1.131 0 0 1-.029-.278.012.012 0 0 1-.012-.012.013.013 0 0 1 0-.006 1.175 1.175 0 0 1-.433-1.733 1.289 1.289 0 0 0 .761.988c-.054-.55.223-.731.223-.731v-.266a1.481 1.481 0 0 1-.919-1.261c0-.03 0-.061-.006-.092s0-.047 0-.07a2.464 2.464 0 0 1 .139-.815c-.221-1.22-.016-1.859.2-2.047a.278.278 0 0 1 .06-.041c.234-.114.811.3 1.067.547a2.624 2.624 0 0 1 2.272 0c.255-.248.832-.661 1.067-.547a.279.279 0 0 1 .06.041c.216.188.421.827.2 2.047a2.464 2.464 0 0 1 .143.807z" transform="translate(-133.338 -85.799)" style="fill:#ffa725"/>
            <path data-name="Path 20202" d="M155.9 219.81c-.559-.59-.777-.722-1.17-.722s-.611.132-1.17.722-1.216.536-1.431.073c0 .031 0 .062.006.092a1.481 1.481 0 0 0 .919 1.261 4.679 4.679 0 0 0 3.353 0 1.481 1.481 0 0 0 .919-1.261c0-.03 0-.061.006-.092-.217.463-.874.517-1.432-.073zm-1.17.142a.456.456 0 0 1-.43-.407c0-.16.212-.236.43-.236s.43.076.43.236a.456.456 0 0 1-.43.407z" transform="translate(-149.649 -215.494)" style="fill:#fff"/>
            <path data-name="Path 20203" d="M232.715 488.609a.594.594 0 0 0-.234.139.906.906 0 0 0 .079.08.581.581 0 0 0 .42.153h.052l.049-.007a.341.341 0 0 0 .235-.144.275.275 0 0 0 .041-.142.878.878 0 0 0-.642-.079z" transform="translate(-228.664 -480.494)" style="fill:#fff"/>
            <path data-name="Path 20204" d="M226.59 374.041a1.97 1.97 0 0 1-.463.155 4.088 4.088 0 0 1-.74.078h-.009a.353.353 0 0 1-.182.656.349.349 0 0 1-.191-.056.353.353 0 0 1 .009-.6h-.009a4.106 4.106 0 0 1-.741-.078 1.968 1.968 0 0 1-.462-.155c-.129.557.739 1.059 1.008 1.5v.162a.687.687 0 0 0 .772 0v-.162c.269-.441 1.137-.941 1.008-1.5z" transform="translate(-220.116 -367.865)" style="fill:#fff"/>
            <path data-name="Path 20205" d="M297.195 366.5v.358h-.009a.323.323 0 0 0-.052-.025.344.344 0 0 0-.129-.025.352.352 0 0 0-.182.05h-.009v-.358h.381z" transform="translate(-291.924 -360.451)" style="fill:#fff"/>
            <path data-name="Path 20206" d="M209.106 348.345v.358a2.828 2.828 0 0 1-1.2-.232 2.012 2.012 0 0 1-.283-.168v-.266a3.825 3.825 0 0 0 1.483.308z" transform="translate(-204.217 -342.294)" style="fill:#b31620"/>
            <path data-name="Path 20207" d="M321.2 348.037v.266a2.602 2.602 0 0 1-.283.168 2.829 2.829 0 0 1-1.2.232v-.358a3.825 3.825 0 0 0 1.483-.308z" transform="translate(-314.447 -342.294)" style="fill:#b31620"/>
            <path data-name="Path 20208" d="M157.661 272.367a1.481 1.481 0 0 1-.919 1.261 4.679 4.679 0 0 1-3.353 0 1.481 1.481 0 0 1-.919-1.261 3.336 3.336 0 0 0 5.191 0z" transform="translate(-149.985 -267.885)" style="fill:#dedede"/>
            <path data-name="Path 20209" d="M224.81 375.226v.315c-.269-.441-1.137-.943-1.008-1.5a1.969 1.969 0 0 0 .462.155 2.47 2.47 0 0 1 .546 1.03z" transform="translate(-220.116 -367.865)" style="fill:#dedede"/>
            <path data-name="Path 20210" d="M331.442 375.541v-.315a2.468 2.468 0 0 1 .545-1.03 1.969 1.969 0 0 0 .463-.155c.129.559-.739 1.059-1.008 1.5z" transform="translate(-325.976 -367.865)" style="fill:#dedede"/>
            <path data-name="Path 20211" d="M194.664 366.095a.594.594 0 0 0-.234.139 3.147 3.147 0 0 1-.5-.956 2.506 2.506 0 0 1-.112-.379 1.723 1.723 0 0 1-.027-.179c-.054-.55.223-.731.223-.731.053.036.108.072.169.107a2.448 2.448 0 0 0 .481 1.999z" transform="translate(-190.613 -357.98)" style="fill:#f18200"/>
            <path data-name="Path 20212" d="M155.236 90.968a2.142 2.142 0 0 0-.22 1.456 2.737 2.737 0 0 0-.2.448c-.221-1.22-.016-1.859.2-2.047q.125.075.224.143z" transform="translate(-152.195 -89.367)" style="fill:#e06d00"/>
            <path data-name="Path 20213" d="M283.459 474.326h-.859a.275.275 0 0 0 .041-.142v-.354a.687.687 0 0 0 .772 0v.354a.275.275 0 0 0 .046.142z" transform="translate(-277.952 -465.992)" style="fill:#f18200"/>
            <path data-name="Path 20214" d="M176.162 420.011h-.477c-.324 0-.466-.292-.529-.553a1.134 1.134 0 0 1-.028-.29.863.863 0 0 1 .07-.333.406.406 0 0 1 .275-.24 2.5 2.5 0 0 0 .112.379 3.147 3.147 0 0 0 .5.956.9.9 0 0 0 .077.081z" transform="translate(-172.265 -411.677)" style="fill:#f18200"/>
            <path data-name="Path 20215" d="M174.467 452.306a.012.012 0 1 1 .012-.012.012.012 0 0 1-.012.012z" transform="translate(-171.604 -444.803)" style="fill:red"/>
            <path data-name="Path 20216" d="M136.518 349.553a1.289 1.289 0 0 1-.761-.988 1.176 1.176 0 0 0 .443 1.739.864.864 0 0 1 .07-.333.406.406 0 0 1 .275-.24 1.715 1.715 0 0 1-.027-.178z" transform="translate(-133.338 -342.814)" style="fill:#f18200"/>
            <path data-name="Path 20217" d="M136.27 349.971a.864.864 0 0 0-.07.333 1.176 1.176 0 0 1-.443-1.739 1.136 1.136 0 0 0 .513 1.406z" transform="translate(-133.338 -342.814)" style="fill:#dedede"/>
            <path data-name="Path 20218" d="M287.218 385.644a.353.353 0 0 1 .191-.65.344.344 0 0 1 .129.025l.013.026a.393.393 0 0 1-.333.599z" transform="translate(-282.329 -378.636)" style="fill:#ffe957"/>
            <path data-name="Path 20219" d="M297.185 386.5a.323.323 0 0 0-.052-.025l.013.026a.393.393 0 0 1-.333.6.349.349 0 0 0 .191.056.353.353 0 0 0 .182-.656z" transform="translate(-291.924 -380.096)" style="fill:#fff"/>
            <path data-name="Path 20220" d="M332.332 488.748a.9.9 0 0 1-.079.08.581.581 0 0 1-.42.153.385.385 0 0 1-.336-.153.274.274 0 0 1-.041-.142.878.878 0 0 1 .643-.077.594.594 0 0 1 .233.139z" transform="translate(-325.99 -480.494)" style="fill:#fff"/>
            <path data-name="Path 20221" d="M370.871 364.9a2.5 2.5 0 0 1-.112.379 3.147 3.147 0 0 1-.5.956.593.593 0 0 0-.234-.139 2.449 2.449 0 0 0 .479-2 3.29 3.29 0 0 0 .169-.107c.002-.001.339.218.198.911z" transform="translate(-363.918 -357.98)" style="fill:#f18200"/>
            <path data-name="Path 20222" d="M171.679 99.976a3.071 3.071 0 0 0-.775.9 2.142 2.142 0 0 1 .22-1.456l.087.062c.415.304.468.494.468.494z" transform="translate(-168.083 -97.82)" style="fill:#c84f00"/>
            <path data-name="Path 20223" d="M365.87 203a.362.362 0 0 0-.349.46c.086.241.565.255.685.061a.372.372 0 0 0-.336-.521zm-.048.363a.123.123 0 1 1 .123-.123.123.123 0 0 1-.123.123z" transform="translate(-359.468 -199.669)" style="fill:#312026"/>
            <path data-name="Path 20224" d="M354.324 164.675a.331.331 0 0 1-.479-.015.235.235 0 0 1 .216-.35c.259 0 .369.24.263.365z" transform="translate(-347.972 -161.628)" style="fill:#fff"/>
            <path data-name="Path 20225" d="M230.01 164.66a.331.331 0 0 1-.479.015c-.106-.125 0-.365.263-.365a.235.235 0 0 1 .216.35z" transform="translate(-225.723 -161.628)" style="fill:#fff"/>
            <path data-name="Path 20226" d="M206.82 203a.371.371 0 0 0-.336.52c.119.194.6.18.685-.061a.362.362 0 0 0-.349-.459zm.048.363a.123.123 0 1 1 .122-.123.122.122 0 0 1-.122.123z" transform="translate(-203.062 -199.669)" style="fill:#312026"/>
            <path data-name="Path 20227" d="M224.715 210.172a.122.122 0 1 1-.123-.122.122.122 0 0 1 .123.122z" transform="translate(-220.786 -206.605)" style="fill:#fff"/>
            <path data-name="Path 20228" d="M176.945 87.257c-.083.05-.157.1-.224.143l-.087.062a2.018 2.018 0 0 0-.818.466 2.588 2.588 0 0 0-2.267 0 2.016 2.016 0 0 0-.818-.466l-.087-.062q-.1-.068-.224-.143a.279.279 0 0 1 .06-.041c.234-.114.811.3 1.067.547a2.624 2.624 0 0 1 2.272 0c.255-.248.832-.661 1.067-.547a.279.279 0 0 1 .059.041z" transform="translate(-169.602 -85.799)" style="fill:#ffcc60"/>
            <path data-name="Path 20229" d="M398.309 92.872a3.053 3.053 0 0 0-.979-1.349s.053-.19.468-.493l.087-.062c.066-.046.141-.093.224-.143.216.188.421.827.2 2.047z" transform="translate(-390.767 -89.367)" style="fill:#c84f00"/>
            <path data-name="Path 20230" d="M380.3 419.458c-.063.261-.2.553-.529.553h-.477a.9.9 0 0 0 .079-.08 3.147 3.147 0 0 0 .5-.956 2.5 2.5 0 0 0 .112-.379.546.546 0 0 1 .345.573 1.133 1.133 0 0 1-.03.289z" transform="translate(-373.031 -411.677)" style="fill:#f18200"/>
            <path data-name="Path 20231" d="M430.674 90.968a2.142 2.142 0 0 1 .22 1.456 2.734 2.734 0 0 1 .2.448c.221-1.22.016-1.859-.2-2.047q-.125.075-.224.143z" transform="translate(-423.555 -89.367)" style="fill:#e06d00"/>
            <circle data-name="Ellipse 1709" cx=".123" cy=".123" r=".123" transform="translate(6.231 3.444)" style="fill:#fff"/>
            <path data-name="Path 20232" d="m233.081 490.815-.049.007h-.052a.581.581 0 0 1-.42-.153.905.905 0 0 1-.079-.08.593.593 0 0 1 .234-.139 1.8 1.8 0 0 0 .366.365z" transform="translate(-228.664 -482.337)" style="fill:#dedede"/>
            <path data-name="Path 20233" d="m348.035 490.815.049.007h.052a.581.581 0 0 0 .42-.153.9.9 0 0 0 .079-.08.593.593 0 0 0-.234-.139 1.8 1.8 0 0 1-.366.365z" transform="translate(-342.293 -482.337)" style="fill:#dedede"/>
            <path data-name="Path 20234" d="M281 238.245a.507.507 0 0 0 .332.511c.084.032.108-.143.108-.143l-.3-.518s-.134.069-.14.15z" transform="translate(-276.374 -234.184)" style="fill:#dedede"/>
            <path data-name="Path 20235" d="M309.476 238.245a.507.507 0 0 1-.332.511c-.084.032-.108-.143-.108-.143l.3-.518s.135.069.14.15z" transform="translate(-303.943 -234.184)" style="fill:#dedede"/>
            <path data-name="Path 20236" d="M283.335 232.633a.43.43 0 0 1-.859 0c0-.16.212-.236.43-.236s.429.076.429.236z" transform="translate(-277.826 -228.581)" style="fill:#312026"/>
            <path data-name="Path 20237" d="M291.931 237.679c-.33 0-.406-.227 0-.227s.331.227 0 .227z" transform="translate(-286.851 -233.552)" style="fill:#613f36"/>
            <path data-name="Path 20238" d="M288.774 297.67a.559.559 0 0 1-.034.058.516.516 0 0 0-.6 0 .371.371 0 1 1 .638-.058z" transform="translate(-283.358 -292.655)" style="fill:#ffb4ab"/>
            <path data-name="Path 20239" d="M290.734 302.053a.341.341 0 0 1-.6 0 .516.516 0 0 1 .6 0z" transform="translate(-285.352 -296.98)" style="fill:#ff817a"/>
            <path data-name="Path 20240" d="M284.108 272.462a.812.812 0 0 1-.08.34.555.555 0 0 0-.672 0 .813.813 0 0 1-.08-.34.542.542 0 0 1 .833 0z" transform="translate(-278.611 -267.787)" style="fill:#312026"/>
            <path data-name="Path 20241" d="M261.236 261.668a.36.36 0 0 1-.057 0c-.105-.017-.255-.092-.37-.351a.071.071 0 0 1 .13-.058c.071.159.161.252.262.268a.41.41 0 0 0 .339-.175.071.071 0 0 1 .106.1.576.576 0 0 1-.41.216z" transform="translate(-256.514 -256.916)" style="fill:#312026"/>
            <path data-name="Path 20242" d="M279.475 280.389c-.185 0-.468-.173-.488-.649a.071.071 0 0 1 .143-.006c.016.376.215.512.345.512a.071.071 0 0 1 0 .143z" transform="translate(-274.395 -275.063)" style="fill:#312026"/>
            <path data-name="Path 20243" d="M304.411 261.668a.576.576 0 0 1-.411-.224.071.071 0 0 1 .106-.1.41.41 0 0 0 .339.175c.1-.016.191-.109.262-.268a.071.071 0 1 1 .13.058c-.115.26-.265.335-.37.351a.36.36 0 0 1-.056.008z" transform="translate(-298.973 -256.916)" style="fill:#312026"/>
            <path data-name="Path 20244" d="M304.058 280.4a.071.071 0 0 1 0-.143c.13 0 .329-.136.345-.512a.071.071 0 0 1 .143.006c-.02.478-.303.649-.488.649z" transform="translate(-298.978 -275.075)" style="fill:#312026"/>
            <path data-name="Path 20245" d="M136.144 88.46a.924.924 0 0 0-.206-.9v-.187l.055-.029a1.534 1.534 0 0 0 .87-1.439 2.529 2.529 0 0 0-.137-.819c.226-1.264 0-2-.3-2.148s-.9.331-1.108.523a2.741 2.741 0 0 0-2.251 0c-.211-.192-.814-.666-1.108-.523s-.528.884-.3 2.148a2.528 2.528 0 0 0-.137.819 1.534 1.534 0 0 0 .87 1.439l.055.029v.187a.81.81 0 0 0-.231.641 1.18 1.18 0 0 1-.611-.871.071.071 0 0 0-.129-.035 1.3 1.3 0 0 0-.2.988 1.282 1.282 0 0 0 .634.833 1.188 1.188 0 0 0 .031.267c.121.5.392.608.6.608h.451a.659.659 0 0 0 .446.153.467.467 0 0 0 .37-.153h.786a.467.467 0 0 0 .37.153.659.659 0 0 0 .446-.153h.451c.206 0 .477-.105.6-.608a1.206 1.206 0 0 0 .03-.309.63.63 0 0 0-.347-.614zm-.349-.9a2.287 2.287 0 0 1-1.343.364v-.216a4.019 4.019 0 0 0 1.343-.267zm-1.605.155h.119v.181a.419.419 0 0 0-.239 0v-.181zm0 .3a.282.282 0 1 1-.282.282.282.282 0 0 1 .282-.282zm2.433-3.188a3.022 3.022 0 0 0-.333-.557 3.153 3.153 0 0 0-.527-.551 1.942 1.942 0 0 1 .68-.587 2.365 2.365 0 0 1 .181 1.7zm-4.686-1.695a1.953 1.953 0 0 1 .68.587 3.155 3.155 0 0 0-.527.551 3.023 3.023 0 0 0-.333.557 2.365 2.365 0 0 1 .181-1.69zm-.278 2.772a2.834 2.834 0 0 1 1.089-2.106.071.071 0 0 0 .027-.077c-.008-.029-.095-.285-.7-.669a1.942 1.942 0 0 1 .925.548.071.071 0 0 0 .087.01 2.558 2.558 0 0 1 2.2 0 .071.071 0 0 0 .087-.01 1.942 1.942 0 0 1 .926-.547c-.6.384-.688.64-.7.669a.071.071 0 0 0 .027.077 2.828 2.828 0 0 1 1.089 2.106 1.4 1.4 0 0 1-.795 1.313 4.491 4.491 0 0 1-3.472 0 1.4 1.4 0 0 1-.789-1.309zm2.269 1.8v.216a2.288 2.288 0 0 1-1.343-.364v-.118a4.019 4.019 0 0 0 1.343.27zm-2.522.549a1.175 1.175 0 0 1 .089-.717 1.406 1.406 0 0 0 .728.834c0 .028.007.056.012.085a.577.577 0 0 0-.325.5 1.117 1.117 0 0 1-.503-.697zm.664 1.1a1.06 1.06 0 0 1-.026-.271.554.554 0 0 1 .222-.48 2.711 2.711 0 0 0 .1.31 3.44 3.44 0 0 0 .478.94h-.311c-.228 0-.382-.167-.462-.498zm2.577.418v-.841a.071.071 0 0 0-.143 0v.841a.373.373 0 0 0 .009.08h-.647a.373.373 0 0 0 .009-.08v-.841a.071.071 0 0 0-.143 0v.841c0 .172-.165.234-.306.234a.512.512 0 0 1-.369-.132 2.571 2.571 0 0 1-.558-1.009 2.473 2.473 0 0 1-.109-.368 1.443 1.443 0 0 1-.025-.159.071.071 0 0 0 0-.016.752.752 0 0 1 .159-.627 2.378 2.378 0 0 0 1.32.376.424.424 0 1 0 .7 0 2.378 2.378 0 0 0 1.32-.376.848.848 0 0 1 .133.8v.005a2.468 2.468 0 0 1-.109.368 2.568 2.568 0 0 1-.559 1.009.512.512 0 0 1-.369.132c-.141 0-.306-.061-.306-.234zm1.662-.418c-.08.331-.234.5-.459.5h-.311a3.441 3.441 0 0 0 .478-.94 2.706 2.706 0 0 0 .1-.31.554.554 0 0 1 .222.48 1.06 1.06 0 0 1-.029.271z" transform="translate(-129.111 -81.59)" style="fill:#312026"/>
        </g>
        <g data-name="Group 10174" transform="translate(46.319 10.339)">
            <circle data-name="Ellipse 1708" cx="7.5" cy="7.5" r="7.5" transform="translate(0 .001)" style="fill:#ffe957"/>
            <path data-name="Path 20201" d="M143.784 91.592v.106c0 .035 0 .093-.009.139a2.228 2.228 0 0 1-1.382 1.9v.4s.507.33.295 1.368a.821.821 0 0 1 .519.862 1.706 1.706 0 0 1-.043.436c-.095.393-.307.832-.8.832h-.717a.874.874 0 0 1-.632.23H140.9l-.036-.006a.513.513 0 0 1-.354-.216h-1.286a.513.513 0 0 1-.354.216c-.024 0-.048.008-.073.01s-.052 0-.078 0a.874.874 0 0 1-.632-.23h-.717c-.488 0-.7-.439-.8-.832a1.7 1.7 0 0 1-.043-.418.018.018 0 0 1-.018-.018.019.019 0 0 1 0-.009 1.767 1.767 0 0 1-.652-2.608 1.939 1.939 0 0 0 1.144 1.486c-.082-.828.336-1.1.336-1.1v-.4a2.228 2.228 0 0 1-1.382-1.9c0-.045-.007-.092-.009-.139s0-.07 0-.106a3.707 3.707 0 0 1 .209-1.226c-.332-1.835-.024-2.8.3-3.079a.418.418 0 0 1 .091-.062c.352-.172 1.221.45 1.6.823a3.948 3.948 0 0 1 3.417 0c.384-.373 1.252-.994 1.6-.823a.419.419 0 0 1 .091.062c.325.282.633 1.244.3 3.079a3.706 3.706 0 0 1 .23 1.223z" transform="translate(-132.477 -85.094)" style="fill:#ffa725"/>
            <path data-name="Path 20202" d="M157.8 220.175c-.841-.888-1.168-1.087-1.76-1.087s-.919.2-1.76 1.087-1.829.806-2.153.109c0 .047 0 .093.009.139a2.228 2.228 0 0 0 1.382 1.9 7.039 7.039 0 0 0 5.044 0 2.228 2.228 0 0 0 1.382-1.9c0-.045.007-.092.009-.139-.323.697-1.311.779-2.153-.109zm-1.76.214a.686.686 0 0 1-.646-.612c0-.241.318-.355.646-.355s.646.114.646.355a.686.686 0 0 1-.646.612z" transform="translate(-148.649 -213.681)" style="fill:#fff"/>
            <path data-name="Path 20203" d="M232.832 488.625a.893.893 0 0 0-.351.209 1.366 1.366 0 0 0 .119.121.874.874 0 0 0 .632.23h.078c.025 0 .049-.006.073-.01a.513.513 0 0 0 .354-.217.413.413 0 0 0 .062-.214 1.322 1.322 0 0 0-.967-.119z" transform="translate(-226.988 -476.418)" style="fill:#fff"/>
            <path data-name="Path 20204" d="M228 374.041a2.96 2.96 0 0 1-.7.233 6.149 6.149 0 0 1-1.114.117h-.014a.531.531 0 0 1-.273.987.525.525 0 0 1-.287-.084.531.531 0 0 1 .014-.9h-.014a6.177 6.177 0 0 1-1.115-.117 2.96 2.96 0 0 1-.7-.233c-.194.837 1.112 1.592 1.517 2.257v.244a1.034 1.034 0 0 0 1.162 0v-.245c.415-.667 1.724-1.422 1.524-2.259z" transform="translate(-218.514 -364.751)" style="fill:#fff"/>
            <path data-name="Path 20205" d="M297.387 366.5v.539h-.014a.482.482 0 0 0-.079-.038.518.518 0 0 0-.195-.037.529.529 0 0 0-.273.076h-.014v-.54h.575z" transform="translate(-289.708 -357.4)" style="fill:#fff"/>
            <path data-name="Path 20206" d="M209.855 348.5v.539a4.256 4.256 0 0 1-1.81-.35 2.998 2.998 0 0 1-.425-.252v-.4a5.755 5.755 0 0 0 2.235.463z" transform="translate(-202.75 -339.398)" style="fill:#b31620"/>
            <path data-name="Path 20207" d="M321.953 348.037v.4c-.08.054-.163.108-.254.161-.054.031-.11.062-.171.091a4.257 4.257 0 0 1-1.81.35v-.539a5.755 5.755 0 0 0 2.235-.463z" transform="translate(-312.039 -339.398)" style="fill:#b31620"/>
            <path data-name="Path 20208" d="M160.278 272.367a2.228 2.228 0 0 1-1.382 1.9 7.039 7.039 0 0 1-5.044 0 2.228 2.228 0 0 1-1.382-1.9c.735 1.659 2.571 1.865 3.9 1.865s3.173-.206 3.908-1.865z" transform="translate(-148.982 -265.625)" style="fill:#dedede"/>
            <path data-name="Path 20209" d="M225.325 375.823v.475c-.4-.664-1.711-1.419-1.517-2.257a2.96 2.96 0 0 0 .7.233 3.715 3.715 0 0 1 .817 1.549z" transform="translate(-218.514 -364.751)" style="fill:#dedede"/>
            <path data-name="Path 20210" d="M331.442 376.3v-.475a3.712 3.712 0 0 1 .82-1.549 2.96 2.96 0 0 0 .7-.233c.191.835-1.116 1.59-1.52 2.257z" transform="translate(-323.47 -364.751)" style="fill:#dedede"/>
            <path data-name="Path 20211" d="M195.107 367.157a.893.893 0 0 0-.351.209 4.735 4.735 0 0 1-.75-1.439 3.768 3.768 0 0 1-.168-.571 2.581 2.581 0 0 1-.041-.269c-.082-.828.336-1.1.336-1.1.08.054.163.108.254.161a3.683 3.683 0 0 0 .72 3.009z" transform="translate(-189.263 -354.95)" style="fill:#f18200"/>
            <path data-name="Path 20212" d="M155.5 91.04a3.222 3.222 0 0 0-.331 2.19 4.117 4.117 0 0 0-.307.673c-.332-1.835-.024-2.8.3-3.079q.187.112.337.215z" transform="translate(-151.173 -88.632)" style="fill:#e06d00"/>
            <path data-name="Path 20213" d="M283.89 474.576h-1.29a.413.413 0 0 0 .062-.214v-.533a1.034 1.034 0 0 0 1.162 0v.533a.413.413 0 0 0 .066.214z" transform="translate(-275.855 -462.039)" style="fill:#f18200"/>
            <path data-name="Path 20214" d="M176.684 420.725h-.717c-.488 0-.7-.439-.8-.832a1.705 1.705 0 0 1-.043-.436 1.3 1.3 0 0 1 .1-.5.611.611 0 0 1 .414-.361 3.769 3.769 0 0 0 .168.571 4.734 4.734 0 0 0 .75 1.439 1.353 1.353 0 0 0 .128.119z" transform="translate(-171.072 -408.188)" style="fill:#f18200"/>
            <path data-name="Path 20215" d="M174.473 452.318a.018.018 0 1 1 .018-.018.018.018 0 0 1-.018.018z" transform="translate(-170.416 -441.031)" style="fill:red"/>
            <path data-name="Path 20216" d="M137.011 350.051a1.939 1.939 0 0 1-1.144-1.486 1.768 1.768 0 0 0 .667 2.617 1.3 1.3 0 0 1 .1-.5.611.611 0 0 1 .414-.361 2.578 2.578 0 0 1-.037-.27z" transform="translate(-132.477 -339.913)" style="fill:#f18200"/>
            <path data-name="Path 20217" d="M136.638 350.681a1.3 1.3 0 0 0-.1.5 1.768 1.768 0 0 1-.667-2.617 1.708 1.708 0 0 0 .767 2.117z" transform="translate(-132.477 -339.913)" style="fill:#dedede"/>
            <path data-name="Path 20218" d="M287.3 385.972a.531.531 0 0 1 .287-.978.518.518 0 0 1 .195.037l.019.04a.591.591 0 0 1-.501.901z" transform="translate(-280.195 -375.429)" style="fill:#ffe957"/>
            <path data-name="Path 20219" d="M297.373 386.517a.485.485 0 0 0-.079-.038l.019.04a.591.591 0 0 1-.5.9.525.525 0 0 0 .287.084.531.531 0 0 0 .273-.987z" transform="translate(-289.708 -376.877)" style="fill:#fff"/>
            <path data-name="Path 20220" d="M332.774 488.834a1.36 1.36 0 0 1-.119.121.874.874 0 0 1-.632.23.58.58 0 0 1-.5-.23.413.413 0 0 1-.062-.214 1.321 1.321 0 0 1 .967-.116.893.893 0 0 1 .346.209z" transform="translate(-323.483 -476.418)" style="fill:#fff"/>
            <path data-name="Path 20221" d="M371.3 365.356a3.764 3.764 0 0 1-.168.571 4.734 4.734 0 0 1-.75 1.439.893.893 0 0 0-.351-.209 3.683 3.683 0 0 0 .721-3.008c.091-.053.174-.107.254-.161-.006 0 .502.33.294 1.368z" transform="translate(-361.088 -354.95)" style="fill:#f18200"/>
            <path data-name="Path 20222" d="M172.085 100.256a4.621 4.621 0 0 0-1.166 1.355 3.222 3.222 0 0 1 .331-2.19q.069.047.131.093c.624.456.704.742.704.742z" transform="translate(-166.925 -97.013)" style="fill:#c84f00"/>
            <path data-name="Path 20223" d="M366.056 203a.545.545 0 0 0-.525.692c.129.362.851.383 1.031.091a.559.559 0 0 0-.506-.783zm-.073.545a.184.184 0 1 1 .184-.184.184.184 0 0 1-.184.184z" transform="translate(-356.675 -197.991)" style="fill:#312026"/>
            <path data-name="Path 20224" d="M354.584 164.859a.5.5 0 0 1-.721-.023.354.354 0 0 1 .325-.526c.389 0 .554.361.396.549z" transform="translate(-345.277 -160.276)" style="fill:#fff"/>
            <path data-name="Path 20225" d="M230.271 164.836a.5.5 0 0 1-.721.023c-.159-.188.007-.549.4-.549a.354.354 0 0 1 .321.526z" transform="translate(-224.073 -160.276)" style="fill:#fff"/>
            <path data-name="Path 20226" d="M207.008 203a.559.559 0 0 0-.505.783c.18.292.9.271 1.031-.091a.545.545 0 0 0-.526-.692zm.073.545a.184.184 0 1 1 .184-.184.184.184 0 0 1-.184.184z" transform="translate(-201.605 -197.991)" style="fill:#312026"/>
            <path data-name="Path 20227" d="M224.838 210.233a.184.184 0 1 1-.184-.184.184.184 0 0 1 .184.184z" transform="translate(-219.178 -204.868)" style="fill:#fff"/>
            <path data-name="Path 20228" d="M179.227 87.287a5.908 5.908 0 0 0-.336.215q-.069.047-.131.093a3.036 3.036 0 0 0-1.231.7 3.893 3.893 0 0 0-3.41 0 3.032 3.032 0 0 0-1.231-.7q-.062-.046-.131-.093-.15-.1-.337-.215a.419.419 0 0 1 .091-.062c.352-.172 1.221.45 1.6.823a3.948 3.948 0 0 1 3.417 0c.384-.373 1.252-.994 1.6-.823a.419.419 0 0 1 .099.062z" transform="translate(-168.432 -85.094)" style="fill:#ffcc60"/>
            <path data-name="Path 20229" d="M398.8 93.9a4.593 4.593 0 0 0-1.473-2.029s.079-.286.7-.742q.062-.046.131-.093c.1-.069.211-.14.336-.215.333.286.641 1.248.306 3.079z" transform="translate(-387.706 -88.632)" style="fill:#c84f00"/>
            <path data-name="Path 20230" d="M380.807 419.893c-.095.393-.307.832-.8.832h-.717a1.359 1.359 0 0 0 .119-.121 4.733 4.733 0 0 0 .75-1.439 3.762 3.762 0 0 0 .168-.571.821.821 0 0 1 .519.862 1.706 1.706 0 0 1-.039.437z" transform="translate(-370.122 -408.188)" style="fill:#f18200"/>
            <path data-name="Path 20231" d="M430.674 91.04a3.222 3.222 0 0 1 .326 2.19 4.115 4.115 0 0 1 .307.673c.332-1.835.024-2.8-.3-3.079q-.187.112-.337.215z" transform="translate(-420.215 -88.632)" style="fill:#e06d00"/>
            <circle data-name="Ellipse 1709" cx=".184" cy=".184" r=".184" transform="translate(9.123 5.181)" style="fill:#fff"/>
            <path data-name="Path 20232" d="M233.384 491c-.024 0-.048.008-.073.01s-.052 0-.078 0a.874.874 0 0 1-.632-.23 1.366 1.366 0 0 1-.119-.121.893.893 0 0 1 .351-.209 2.712 2.712 0 0 0 .551.55z" transform="translate(-226.988 -478.245)" style="fill:#dedede"/>
            <path data-name="Path 20233" d="M348.035 491c.024 0 .048.008.073.01s.052 0 .078 0a.874.874 0 0 0 .632-.23 1.364 1.364 0 0 0 .119-.121.893.893 0 0 0-.351-.209 2.712 2.712 0 0 1-.551.55z" transform="translate(-339.647 -478.245)" style="fill:#dedede"/>
            <path data-name="Path 20234" d="M281 238.321a.763.763 0 0 0 .5.768c.127.047.163-.215.163-.215l-.459-.78s-.195.106-.204.227z" transform="translate(-274.291 -232.212)" style="fill:#dedede"/>
            <path data-name="Path 20235" d="M309.7 238.321a.763.763 0 0 1-.5.768c-.127.047-.163-.215-.163-.215l.459-.78s.195.106.204.227z" transform="translate(-301.625 -232.212)" style="fill:#dedede"/>
            <path data-name="Path 20236" d="M283.769 232.752a.647.647 0 0 1-1.293 0c0-.241.318-.355.646-.355s.647.114.647.355z" transform="translate(-275.731 -226.656)" style="fill:#312026"/>
            <path data-name="Path 20237" d="M292.071 237.793c-.5 0-.61-.341 0-.341s.497.341 0 .341z" transform="translate(-284.679 -231.585)" style="fill:#613f36"/>
            <path data-name="Path 20238" d="M289.113 297.727a.838.838 0 0 1-.051.087.776.776 0 0 0-.909 0 .844.844 0 0 1-.051-.087.835.835 0 0 1 1.011 0z" transform="translate(-281.216 -290.183)" style="fill:#ffb4ab"/>
            <path data-name="Path 20239" d="M291.039 302.1a.513.513 0 0 1-.909 0 .776.776 0 0 1 .909 0z" transform="translate(-283.193 -294.471)" style="fill:#ff817a"/>
            <path data-name="Path 20240" d="M284.527 272.56a1.221 1.221 0 0 1-.121.511.835.835 0 0 0-1.011 0 1.222 1.222 0 0 1-.121-.511.816.816 0 0 1 1.252 0z" transform="translate(-276.51 -265.527)" style="fill:#312026"/>
            <path data-name="Path 20241" d="M261.454 261.9a.538.538 0 0 1-.086-.007c-.158-.025-.383-.138-.557-.529a.107.107 0 1 1 .2-.087c.106.24.243.379.394.4a.617.617 0 0 0 .51-.263.107.107 0 0 1 .159.144.866.866 0 0 1-.62.342z" transform="translate(-254.601 -254.749)" style="fill:#312026"/>
            <path data-name="Path 20242" d="M279.721 280.754c-.278 0-.7-.26-.734-.976a.107.107 0 1 1 .215-.009c.024.565.323.77.519.77a.107.107 0 0 1 0 .215z" transform="translate(-272.329 -272.741)" style="fill:#312026"/>
            <path data-name="Path 20243" d="M304.627 261.9a.866.866 0 0 1-.618-.338.107.107 0 0 1 .159-.144.617.617 0 0 0 .51.263c.152-.024.288-.164.394-.4a.107.107 0 1 1 .2.087c-.173.391-.4.5-.557.529a.544.544 0 0 1-.088.003z" transform="translate(-296.697 -254.749)" style="fill:#312026"/>
            <path data-name="Path 20244" d="M304.094 280.766a.107.107 0 0 1 0-.215c.2 0 .5-.205.519-.77a.107.107 0 0 1 .214.009c-.027.716-.454.976-.733.976z" transform="translate(-296.703 -272.753)" style="fill:#312026"/>
            <path data-name="Path 20245" d="M138.617 91.256a1.39 1.39 0 0 0-.31-1.348v-.281l.083-.043a2.307 2.307 0 0 0 1.309-2.165 3.8 3.8 0 0 0-.207-1.232c.339-1.9 0-3.008-.455-3.231-.443-.216-1.349.5-1.667.787a4.124 4.124 0 0 0-3.386 0c-.318-.289-1.224-1-1.667-.787-.458.223-.794 1.329-.455 3.231a3.8 3.8 0 0 0-.207 1.232 2.307 2.307 0 0 0 1.309 2.165l.083.043v.281a1.218 1.218 0 0 0-.347.965 1.776 1.776 0 0 1-.919-1.311.107.107 0 0 0-.194-.052 1.955 1.955 0 0 0-.307 1.49 1.929 1.929 0 0 0 .954 1.253 1.785 1.785 0 0 0 .046.4c.182.756.59.914.9.914h.678a.992.992 0 0 0 .672.23.7.7 0 0 0 .557-.23h1.182a.7.7 0 0 0 .557.23.992.992 0 0 0 .672-.23h.678c.31 0 .718-.159.9-.914a1.814 1.814 0 0 0 .046-.464.948.948 0 0 0-.505-.933zm-.524-1.354a3.441 3.441 0 0 1-2.021.548v-.324a6.047 6.047 0 0 0 2.021-.4zm-2.415.233h.18v.265a.63.63 0 0 0-.359 0v-.272h.18zm0 .459a.424.424 0 1 1-.424.424.424.424 0 0 1 .424-.424zm3.66-4.795a4.545 4.545 0 0 0-.5-.837 4.743 4.743 0 0 0-.793-.829 2.921 2.921 0 0 1 1.023-.883 3.558 3.558 0 0 1 .27 2.55zm-7.049-2.549a2.938 2.938 0 0 1 1.023.883 4.744 4.744 0 0 0-.793.829 4.546 4.546 0 0 0-.5.837 3.558 3.558 0 0 1 .27-2.55zm-.418 4.17a4.264 4.264 0 0 1 1.638-3.167.107.107 0 0 0 .041-.116c-.012-.044-.143-.429-1.048-1.007a2.921 2.921 0 0 1 1.393.823.107.107 0 0 0 .131.015 3.848 3.848 0 0 1 3.305 0 .107.107 0 0 0 .131-.015 2.921 2.921 0 0 1 1.393-.823c-.9.577-1.035.962-1.048 1.007a.107.107 0 0 0 .041.116 4.255 4.255 0 0 1 1.638 3.167 2.106 2.106 0 0 1-1.2 1.976 6.756 6.756 0 0 1-5.224 0 2.106 2.106 0 0 1-1.191-1.977zm3.413 2.707v.324a3.441 3.441 0 0 1-2.021-.548v-.177a6.047 6.047 0 0 0 2.02.399zm-3.793.826a1.767 1.767 0 0 1 .134-1.078 2.115 2.115 0 0 0 1.1 1.254c.005.041.011.084.019.128a.868.868 0 0 0-.489.748 1.68 1.68 0 0 1-.765-1.053zm1 1.649a1.594 1.594 0 0 1-.04-.408.834.834 0 0 1 .334-.722 4.075 4.075 0 0 0 .145.466 5.175 5.175 0 0 0 .72 1.414h-.468c-.34-.002-.573-.252-.693-.752zm3.877.629v-1.267a.107.107 0 0 0-.215 0v1.266a.561.561 0 0 0 .013.121h-.973a.561.561 0 0 0 .013-.121v-1.266a.107.107 0 0 0-.215 0v1.266c0 .259-.248.351-.46.351a.77.77 0 0 1-.555-.2 3.867 3.867 0 0 1-.84-1.518 3.712 3.712 0 0 1-.164-.553v-.006a2.723 2.723 0 0 1-.038-.239.107.107 0 0 0 0-.023 1.132 1.132 0 0 1 .239-.943 3.577 3.577 0 0 0 1.986.565.638.638 0 1 0 1.056 0 3.577 3.577 0 0 0 1.986-.565 1.275 1.275 0 0 1 .2 1.206v.005a3.719 3.719 0 0 1-.164.554 3.864 3.864 0 0 1-.84 1.518.77.77 0 0 1-.556.2c-.212 0-.46-.092-.46-.351zm2.5-.629c-.12.5-.353.75-.691.75h-.468a5.175 5.175 0 0 0 .72-1.414 4.067 4.067 0 0 0 .145-.466.834.834 0 0 1 .334.722 1.594 1.594 0 0 1-.042.406z" transform="translate(-128.286 -80.921)" style="fill:#312026"/>
        </g>
        <g data-name="Group 10173" transform="translate(17.321 18.339)">
            <circle data-name="Ellipse 1708" cx="13.5" cy="13.5" r="13.5" transform="translate(-.001 .001)" style="fill:#ffe957"/>
            <path data-name="Path 20201" d="M150.234 95.032v.188c0 .084-.008.166-.015.248a3.971 3.971 0 0 1-2.463 3.38v.713s.9.588.526 2.439a1.464 1.464 0 0 1 .924 1.537 3.041 3.041 0 0 1-.076.778c-.169.7-.548 1.483-1.418 1.483h-1.279a1.558 1.558 0 0 1-1.126.411c-.047 0-.094 0-.14-.006l-.066-.008-.064-.011a.915.915 0 0 1-.63-.386h-2.297a.915.915 0 0 1-.63.386 1.401 1.401 0 0 1-.27.024 1.558 1.558 0 0 1-1.126-.411H138.8c-.87 0-1.249-.782-1.418-1.483a3.033 3.033 0 0 1-.077-.746.031.031 0 0 1-.031-.032.034.034 0 0 1 0-.017 3.15 3.15 0 0 1-1.162-4.648 3.456 3.456 0 0 0 2.04 2.649c-.146-1.475.6-1.96.6-1.96v-.713a3.971 3.971 0 0 1-2.463-3.38 4.93 4.93 0 0 1-.015-.248v-.188a6.607 6.607 0 0 1 .373-2.185c-.591-3.27-.042-4.985.536-5.488a.747.747 0 0 1 .162-.11c.628-.306 2.176.8 2.86 1.466a7.037 7.037 0 0 1 6.092 0c.684-.665 2.232-1.773 2.86-1.466a.747.747 0 0 1 .162.11c.579.5 1.128 2.218.536 5.488a6.605 6.605 0 0 1 .379 2.186z" transform="translate(-129.793 -83.357)" style="fill:#ffa725"/>
            <path data-name="Path 20202" d="M162.239 221.025c-1.5-1.583-2.083-1.937-3.137-1.937s-1.639.354-3.137 1.937-3.26 1.437-3.837.2c0 .084.008.166.015.247a3.971 3.971 0 0 0 2.463 3.38 12.548 12.548 0 0 0 8.991 0 3.971 3.971 0 0 0 2.463-3.38c.007-.081.012-.164.015-.247-.575 1.237-2.337 1.383-3.836-.2zm-3.137.381a1.222 1.222 0 0 1-1.152-1.091c0-.429.568-.633 1.152-.633s1.152.2 1.152.633a1.222 1.222 0 0 1-1.152 1.091z" transform="translate(-145.639 -209.357)" style="fill:#fff"/>
            <path data-name="Path 20203" d="M233.107 488.662a1.592 1.592 0 0 0-.626.372 2.433 2.433 0 0 0 .212.215 1.558 1.558 0 0 0 1.126.411c.047 0 .094 0 .14-.006s.087-.01.13-.019a.915.915 0 0 0 .63-.386.737.737 0 0 0 .11-.381 2.356 2.356 0 0 0-1.722-.206z" transform="translate(-222.403 -466.809)" style="fill:#fff"/>
            <path data-name="Path 20204" d="M231.3 374.041a5.278 5.278 0 0 1-1.241.415 10.963 10.963 0 0 1-1.985.208h-.024a.947.947 0 0 1-.487 1.759.935.935 0 0 1-.512-.151.947.947 0 0 1 .024-1.609h-.024a11.015 11.015 0 0 1-1.987-.208 5.277 5.277 0 0 1-1.24-.415c-.346 1.493 1.982 2.838 2.7 4.022v.435a1.843 1.843 0 0 0 2.071 0v-.435c.723-1.183 3.052-2.528 2.705-4.021z" transform="translate(-214.099 -357.388)" style="fill:#fff"/>
            <path data-name="Path 20205" d="M297.836 366.5v.96h-.024a.857.857 0 0 0-.14-.068.922.922 0 0 0-.347-.066.944.944 0 0 0-.487.135h-.024v-.96q.256.009.512.008t.51-.009z" transform="translate(-283.861 -350.185)" style="fill:#fff"/>
            <path data-name="Path 20206" d="M211.6 348.862v.96a7.585 7.585 0 0 1-3.227-.623 3.613 3.613 0 0 1-.3-.163 8.047 8.047 0 0 1-.452-.286v-.712a10.259 10.259 0 0 0 3.979.824z" transform="translate(-198.652 -332.546)" style="fill:#b31620"/>
            <path data-name="Path 20207" d="M323.7 348.037v.712c-.143.1-.29.193-.452.286-.1.056-.2.11-.3.163a7.587 7.587 0 0 1-3.227.623v-.96a10.259 10.259 0 0 0 3.979-.824z" transform="translate(-305.743 -332.546)" style="fill:#b31620"/>
            <path data-name="Path 20208" d="M166.388 272.367a3.971 3.971 0 0 1-2.463 3.38 12.547 12.547 0 0 1-8.991 0 3.971 3.971 0 0 1-2.463-3.38c1.311 2.956 4.582 3.325 6.959 3.325s5.647-.369 6.958-3.325z" transform="translate(-145.966 -260.256)" style="fill:#dedede"/>
            <path data-name="Path 20209" d="M226.527 377.217v.846c-.721-1.184-3.05-2.53-2.7-4.022a5.277 5.277 0 0 0 1.24.415 6.623 6.623 0 0 1 1.46 2.761z" transform="translate(-214.099 -357.388)" style="fill:#dedede"/>
            <path data-name="Path 20210" d="M331.442 378.063v-.846a6.616 6.616 0 0 1 1.461-2.761 5.279 5.279 0 0 0 1.241-.415c.348 1.493-1.981 2.838-2.702 4.022z" transform="translate(-316.943 -357.388)" style="fill:#dedede"/>
            <path data-name="Path 20211" d="M196.141 369.637a1.592 1.592 0 0 0-.626.372 8.439 8.439 0 0 1-1.336-2.564 6.714 6.714 0 0 1-.3-1.017 4.6 4.6 0 0 1-.073-.479c-.146-1.475.6-1.96.6-1.96.143.1.29.193.452.286-.495 1.453-.022 3.2 1.283 5.362z" transform="translate(-185.436 -347.784)" style="fill:#f18200"/>
            <path data-name="Path 20212" d="M156.108 91.209c-.718.9-.751 2.6-.589 3.9a7.337 7.337 0 0 0-.547 1.2c-.591-3.27-.042-4.985.536-5.488q.334.2.6.383z" transform="translate(-148.112 -86.823)" style="fill:#e06d00"/>
            <path data-name="Path 20213" d="M284.9 475.16h-2.3a.737.737 0 0 0 .11-.381V473.83a1.843 1.843 0 0 0 2.07 0V474.779a.737.737 0 0 0 .12.381z" transform="translate(-270.287 -452.72)" style="fill:#f18200"/>
            <path data-name="Path 20214" d="M177.9 422.392h-1.279c-.87 0-1.249-.782-1.418-1.483a3.041 3.041 0 0 1-.076-.777 2.315 2.315 0 0 1 .187-.893 1.089 1.089 0 0 1 .737-.643 6.711 6.711 0 0 0 .3 1.017 8.439 8.439 0 0 0 1.336 2.564 2.417 2.417 0 0 0 .213.215z" transform="translate(-167.611 -399.952)" style="fill:#f18200"/>
            <path data-name="Path 20215" d="M174.487 452.346a.032.032 0 1 1 .032-.031.032.032 0 0 1-.032.031z" transform="translate(-166.969 -432.135)" style="fill:red"/>
            <path data-name="Path 20216" d="M138.161 351.214a3.456 3.456 0 0 1-2.04-2.649 3.152 3.152 0 0 0 1.189 4.664 2.315 2.315 0 0 1 .187-.893 1.089 1.089 0 0 1 .737-.643 4.608 4.608 0 0 1-.073-.479z" transform="translate(-129.792 -333.05)" style="fill:#f18200"/>
            <path data-name="Path 20217" d="M137.5 352.336a2.315 2.315 0 0 0-.187.893 3.152 3.152 0 0 1-1.189-4.664 3.045 3.045 0 0 0 1.376 3.771z" transform="translate(-129.792 -333.05)" style="fill:#dedede"/>
            <path data-name="Path 20218" d="M287.491 386.737a.946.946 0 0 1 .512-1.743.923.923 0 0 1 .347.066l.034.071a1.053 1.053 0 0 1-.893 1.606z" transform="translate(-274.539 -367.852)" style="fill:#ffe957"/>
            <path data-name="Path 20219" d="M297.812 386.547a.857.857 0 0 0-.14-.068l.034.071a1.053 1.053 0 0 1-.893 1.606.935.935 0 0 0 .512.15.947.947 0 0 0 .487-1.759z" transform="translate(-283.861 -369.271)" style="fill:#fff"/>
            <path data-name="Path 20220" d="M333.805 489.034a2.435 2.435 0 0 1-.212.215 1.558 1.558 0 0 1-1.126.411 1.033 1.033 0 0 1-.9-.411.736.736 0 0 1-.11-.381 2.356 2.356 0 0 1 1.723-.207 1.592 1.592 0 0 1 .625.373z" transform="translate(-316.957 -466.809)" style="fill:#fff"/>
            <path data-name="Path 20221" d="M372.29 366.427a6.709 6.709 0 0 1-.3 1.017 8.438 8.438 0 0 1-1.336 2.564 1.592 1.592 0 0 0-.626-.372c1.305-2.162 1.778-3.909 1.285-5.363.162-.094.309-.19.452-.286-.001.001.902.589.525 2.44z" transform="translate(-353.805 -347.784)" style="fill:#f18200"/>
            <path data-name="Path 20222" d="M173.032 100.909a8.236 8.236 0 0 0-2.079 2.416c-.162-1.3-.129-3 .589-3.9q.123.084.234.165c1.115.81 1.256 1.319 1.256 1.319z" transform="translate(-163.547 -95.035)" style="fill:#c84f00"/>
            <path data-name="Path 20223" d="M366.489 203a.971.971 0 0 0-.936 1.233c.23.645 1.516.682 1.837.163a1 1 0 0 0-.901-1.396zm-.13.972a.328.328 0 1 1 .328-.328.329.329 0 0 1-.328.328z" transform="translate(-349.481 -193.983)" style="fill:#312026"/>
            <path data-name="Path 20224" d="M355.189 165.288a.888.888 0 0 1-1.285-.04.631.631 0 0 1 .58-.938c.692 0 .987.644.705.978z" transform="translate(-338.313 -157.026)" style="fill:#fff"/>
            <path data-name="Path 20225" d="M230.882 165.248a.888.888 0 0 1-1.285.04c-.283-.335.012-.978.7-.978a.63.63 0 0 1 .585.938z" transform="translate(-219.546 -157.026)" style="fill:#fff"/>
            <path data-name="Path 20226" d="M207.449 203a1 1 0 0 0-.9 1.4c.32.52 1.607.482 1.837-.163a.971.971 0 0 0-.937-1.237zm.129.972a.328.328 0 1 1 .329-.328.328.328 0 0 1-.328.328z" transform="translate(-197.53 -193.983)" style="fill:#312026"/>
            <path data-name="Path 20227" d="M225.126 210.377a.328.328 0 1 1-.328-.328.328.328 0 0 1 .328.328z" transform="translate(-214.75 -200.722)" style="fill:#fff"/>
            <path data-name="Path 20228" d="M184.555 87.359c-.223.133-.422.261-.6.383q-.123.084-.234.166a5.411 5.411 0 0 0-2.194 1.25 6.94 6.94 0 0 0-6.079 0 5.4 5.4 0 0 0-2.194-1.25q-.111-.081-.234-.165-.267-.183-.6-.383a.747.747 0 0 1 .162-.11c.628-.306 2.176.8 2.86 1.466a7.037 7.037 0 0 1 6.092 0c.684-.665 2.232-1.773 2.86-1.466a.747.747 0 0 1 .161.109z" transform="translate(-165.024 -83.357)" style="fill:#ffcc60"/>
            <path data-name="Path 20229" d="M399.956 96.313a8.187 8.187 0 0 0-2.626-3.613s.142-.509 1.255-1.323q.111-.081.234-.166c.178-.122.377-.25.6-.383.581.5 1.128 2.215.537 5.485z" transform="translate(-379.888 -86.823)" style="fill:#c84f00"/>
            <path data-name="Path 20230" d="M381.991 420.909c-.169.7-.548 1.483-1.418 1.483h-1.279a2.419 2.419 0 0 0 .212-.215 8.439 8.439 0 0 0 1.336-2.564 6.711 6.711 0 0 0 .3-1.017 1.464 1.464 0 0 1 .924 1.537 3.042 3.042 0 0 1-.075.776z" transform="translate(-362.658 -399.952)" style="fill:#f18200"/>
            <path data-name="Path 20231" d="M430.674 91.209c.718.9.751 2.6.589 3.9a7.33 7.33 0 0 1 .547 1.2c.591-3.27.042-4.985-.536-5.488q-.334.2-.6.383z" transform="translate(-411.743 -86.823)" style="fill:#e06d00"/>
            <circle data-name="Ellipse 1709" cx=".328" cy=".328" r=".328" transform="translate(16.55 9.327)" style="fill:#fff"/>
            <path data-name="Path 20232" d="M234.09 491.425a1.401 1.401 0 0 1-.27.024 1.558 1.558 0 0 1-1.126-.411 2.437 2.437 0 0 1-.212-.215 1.592 1.592 0 0 1 .626-.372 4.835 4.835 0 0 0 .982.974z" transform="translate(-222.403 -468.599)" style="fill:#dedede"/>
            <path data-name="Path 20233" d="M348.035 491.425a1.401 1.401 0 0 0 .27.024 1.558 1.558 0 0 0 1.126-.411 2.434 2.434 0 0 0 .212-.215 1.592 1.592 0 0 0-.626-.372 4.835 4.835 0 0 1-.982.974z" transform="translate(-332.795 -468.599)" style="fill:#dedede"/>
            <path data-name="Path 20234" d="M281 238.5a1.361 1.361 0 0 0 .89 1.37c.226.085.29-.383.29-.383l-.818-1.39s-.346.184-.362.403z" transform="translate(-268.754 -227.515)" style="fill:#dedede"/>
            <path data-name="Path 20235" d="M310.216 238.5a1.361 1.361 0 0 1-.89 1.37c-.226.085-.29-.383-.29-.383l.818-1.39s.346.184.362.403z" transform="translate(-295.538 -227.515)" style="fill:#dedede"/>
            <path data-name="Path 20236" d="M284.78 233.03a1.154 1.154 0 0 1-2.3 0c0-.429.568-.633 1.152-.633s1.148.203 1.148.633z" transform="translate(-270.165 -222.071)" style="fill:#312026"/>
            <path data-name="Path 20237" d="M292.4 238.06c-.886 0-1.088-.608 0-.608s.883.608 0 .608z" transform="translate(-278.933 -226.9)" style="fill:#613f36"/>
            <path data-name="Path 20238" d="M289.9 297.86a1.5 1.5 0 0 1-.091.155 1.383 1.383 0 0 0-1.62 0 .995.995 0 1 1 1.711-.155z" transform="translate(-275.539 -284.32)" style="fill:#ffb4ab"/>
            <path data-name="Path 20239" d="M291.75 302.217a.914.914 0 0 1-1.62 0 1.383 1.383 0 0 1 1.62 0z" transform="translate(-277.477 -288.522)" style="fill:#ff817a"/>
            <path data-name="Path 20240" d="M285.508 272.789a2.179 2.179 0 0 1-.216.911 1.488 1.488 0 0 0-1.8 0 2.18 2.18 0 0 1-.216-.911 1.454 1.454 0 0 1 2.233 0z" transform="translate(-270.928 -260.16)" style="fill:#312026"/>
            <path data-name="Path 20241" d="M261.964 262.435a.956.956 0 0 1-.153-.012c-.282-.045-.683-.245-.992-.942a.191.191 0 1 1 .35-.155c.189.427.432.676.7.72a1.1 1.1 0 0 0 .909-.468.191.191 0 0 1 .284.257 1.544 1.544 0 0 1-1.098.6z" transform="translate(-249.459 -249.599)" style="fill:#312026"/>
            <path data-name="Path 20242" d="M280.3 281.606c-.5 0-1.254-.463-1.308-1.74a.191.191 0 1 1 .382-.016c.042 1.008.576 1.373.925 1.373a.191.191 0 0 1 0 .383z" transform="translate(-266.832 -267.229)" style="fill:#312026"/>
            <path data-name="Path 20243" d="M305.132 262.435a1.544 1.544 0 0 1-1.1-.6.191.191 0 1 1 .284-.257 1.1 1.1 0 0 0 .909.468c.27-.043.513-.292.7-.72a.191.191 0 0 1 .35.155c-.309.7-.71.9-.992.942a.966.966 0 0 1-.151.012z" transform="translate(-290.71 -249.599)" style="fill:#312026"/>
            <path data-name="Path 20244" d="M304.178 281.617a.191.191 0 0 1 0-.383c.349 0 .883-.366.925-1.373a.191.191 0 0 1 .382.016c-.053 1.277-.811 1.74-1.307 1.74z" transform="translate(-290.715 -267.241)" style="fill:#312026"/>
            <path data-name="Path 20245" d="M144.388 97.782a2.477 2.477 0 0 0-.552-2.4v-.5l.148-.076a4.113 4.113 0 0 0 2.333-3.859 6.782 6.782 0 0 0-.369-2.2c.605-3.39.006-5.361-.811-5.759-.789-.384-2.405.887-2.972 1.4a7.35 7.35 0 0 0-6.036 0c-.567-.515-2.182-1.787-2.972-1.4-.817.4-1.416 2.369-.811 5.759a6.779 6.779 0 0 0-.369 2.2 4.113 4.113 0 0 0 2.333 3.859l.149.076v.5a2.171 2.171 0 0 0-.618 1.72 3.165 3.165 0 0 1-1.639-2.337.191.191 0 0 0-.345-.093 3.485 3.485 0 0 0-.549 2.65 3.438 3.438 0 0 0 1.7 2.234 3.185 3.185 0 0 0 .082.716c.325 1.347 1.052 1.63 1.6 1.63h1.208a1.768 1.768 0 0 0 1.2.411 1.252 1.252 0 0 0 .993-.411h2.109a1.252 1.252 0 0 0 .993.411 1.768 1.768 0 0 0 1.2-.411h1.207c.552 0 1.279-.283 1.6-1.629a3.235 3.235 0 0 0 .081-.828 1.689 1.689 0 0 0-.893-1.663zm-.935-2.414a6.133 6.133 0 0 1-3.6.977v-.578a10.778 10.778 0 0 0 3.6-.715zm-4.3.415h.32v.485a1.123 1.123 0 0 0-.641 0v-.485h.32zm0 .818a.755.755 0 1 1-.755.755.756.756 0 0 1 .755-.755zm6.524-8.547a8.1 8.1 0 0 0-.893-1.493 8.454 8.454 0 0 0-1.414-1.478 5.207 5.207 0 0 1 1.824-1.574c.445.52.842 1.991.479 4.544zm-12.564-4.544a5.237 5.237 0 0 1 1.823 1.574 8.457 8.457 0 0 0-1.414 1.477 8.1 8.1 0 0 0-.893 1.493c-.367-2.554.03-4.025.479-4.545zm-.746 7.433a7.6 7.6 0 0 1 2.92-5.646.191.191 0 0 0 .072-.207c-.022-.079-.254-.765-1.868-1.794a5.206 5.206 0 0 1 2.483 1.467.192.192 0 0 0 .233.026 6.858 6.858 0 0 1 5.892 0 .191.191 0 0 0 .233-.026 5.206 5.206 0 0 1 2.478-1.463c-1.613 1.029-1.845 1.715-1.867 1.794a.191.191 0 0 0 .072.207 7.584 7.584 0 0 1 2.92 5.646 3.754 3.754 0 0 1-2.131 3.521 12.043 12.043 0 0 1-9.311 0 3.754 3.754 0 0 1-2.13-3.526zm6.083 4.825v.578a6.134 6.134 0 0 1-3.6-.977v-.316a10.778 10.778 0 0 0 3.596.714zm-6.761 1.473a3.15 3.15 0 0 1 .239-1.922 3.771 3.771 0 0 0 1.952 2.235c.009.074.02.15.033.228a1.547 1.547 0 0 0-.872 1.334 3 3 0 0 1-1.356-1.876zm1.781 2.939a2.842 2.842 0 0 1-.071-.727 1.486 1.486 0 0 1 .595-1.287 7.265 7.265 0 0 0 .258.83 9.226 9.226 0 0 0 1.283 2.521h-.835c-.606-.001-1.021-.451-1.235-1.338zm6.91 1.121v-2.257a.191.191 0 0 0-.383 0v2.256a1 1 0 0 0 .023.216h-1.734a1 1 0 0 0 .023-.216v-2.256a.191.191 0 0 0-.383 0v2.256c0 .462-.442.626-.82.626a1.372 1.372 0 0 1-.99-.354l-.009-.007a6.892 6.892 0 0 1-1.5-2.705 6.621 6.621 0 0 1-.291-.986v-.01a4.426 4.426 0 0 1-.067-.426.189.189 0 0 0 0-.042 2.017 2.017 0 0 1 .427-1.681 6.375 6.375 0 0 0 3.54 1.008 1.138 1.138 0 1 0 1.883 0 6.376 6.376 0 0 0 3.54-1.007 2.273 2.273 0 0 1 .356 2.149v.009a6.625 6.625 0 0 1-.292.987 6.886 6.886 0 0 1-1.5 2.706l-.008.007a1.372 1.372 0 0 1-.99.354c-.378 0-.82-.164-.82-.626zm4.457-1.121c-.214.887-.628 1.337-1.232 1.337h-.833a9.226 9.226 0 0 0 1.283-2.521 7.255 7.255 0 0 0 .258-.83 1.486 1.486 0 0 1 .595 1.287 2.842 2.842 0 0 1-.076.726z" transform="translate(-125.685 -79.267)" style="fill:#312026"/>
        </g>
    </g>
</svg>
