<svg xmlns="http://www.w3.org/2000/svg" width="319" height="213" viewBox="0 0 319 213">
    <g data-name="Group 10143" transform="translate(25.671 21.512)">
        <path data-name="Path 20049" d="M239.461 70.791h-63.468l-17.641-17.642H119.11v-5.614h41.568l17.641 17.641h61.142z" transform="translate(-39.571 -26.86)" style="fill:#f2f2f3"/>
        <path data-name="Path 20050" d="M112.109 24.239h-67.99a14.629 14.629 0 0 0-14.63 14.63v42.793a14.629 14.629 0 0 0 14.63 14.63h55.866l9.27 9.271a1.672 1.672 0 0 0 2.854-1.183v-8.088a14.629 14.629 0 0 0 14.63-14.63V38.869a14.629 14.629 0 0 0-14.63-14.63z" transform="translate(-29.489 -24.239)" style="fill:#f0b90b"/>
        <path data-name="Path 20051" d="M200.168 174.394h-36.862v-5.614h34.537l11.573-11.573h35.017v5.614h-32.692z" transform="translate(-44.543 -39.198)" style="fill:#f2f2f3"/>
        <path data-name="Path 20052" d="M152.691 143.98H97.859a11.335 11.335 0 0 0-11.334 11.335v31.6a11.335 11.335 0 0 0 11.334 11.335v8.055a1.374 1.374 0 0 0 2.346.972l9.027-9.027h43.459a11.335 11.335 0 0 0 11.334-11.335v-31.6a11.335 11.335 0 0 0-11.334-11.335z" transform="translate(-35.906 -37.71)" style="fill:#e5e6e6"/>
        <g data-name="Group 10140">
            <g data-name="Group 10138">
                <path data-name="Path 20053" d="M214.354 93.467v25.708a6.019 6.019 0 0 1-1.954 4.45 1.662 1.662 0 0 1-.171.146 5.982 5.982 0 0 1-3.922 1.452h-43.363a5.98 5.98 0 0 1-3.922-1.452.439.439 0 0 1-.119-.106 6.016 6.016 0 0 1-2.007-4.49V93.467a6.022 6.022 0 0 1 2.007-4.5.429.429 0 0 1 .119-.107 5.985 5.985 0 0 1 3.922-1.452h43.362a5.986 5.986 0 0 1 3.922 1.452 1.78 1.78 0 0 1 .172.14 6.049 6.049 0 0 1 1.954 4.467z" transform="translate(-44.047 -31.345)" style="fill:#cccdce"/>
                <path data-name="Path 20054" d="m186.625 106.5-2.5 1.7-23.107 15.753a.439.439 0 0 1-.119-.106 6.016 6.016 0 0 1-2.007-4.49V93.651a6.022 6.022 0 0 1 2.007-4.5.429.429 0 0 1 .119-.107l23.12 15.766z" transform="translate(-44.047 -31.529)" style="fill:#d9d9da"/>
                <path data-name="Path 20055" d="M217.869 93.651v25.708a6.019 6.019 0 0 1-1.954 4.45 1.662 1.662 0 0 1-.171.146l-23.055-15.713-2.549-1.742 2.549-1.73 23.055-15.727a1.78 1.78 0 0 1 .171.146 6.049 6.049 0 0 1 1.954 4.462z" transform="translate(-47.562 -31.529)" style="fill:#d9d9da"/>
                <path data-name="Path 20056" d="M212.654 125.543a1.662 1.662 0 0 1-.171.146 5.982 5.982 0 0 1-3.922 1.452H165.2a5.98 5.98 0 0 1-3.922-1.452.439.439 0 0 1-.119-.106l21.166-17.351 2.073-1.69 2.536-2.087 2.5 2.047 2.112 1.73z" transform="translate(-44.301 -33.263)" style="fill:#e5e6e6"/>
                <path data-name="Path 20057" d="m212.654 89-21.114 17.311-2.112 1.743-2.5 2.047-2.549-2.087-2.06-1.7-21.166-17.35a.429.429 0 0 1 .119-.107 5.985 5.985 0 0 1 3.922-1.452h43.362a5.986 5.986 0 0 1 3.922 1.452 1.78 1.78 0 0 1 .176.143z" transform="translate(-44.301 -31.345)" style="fill:#f2f2f3"/>
            </g>
            <g data-name="Group 10139" transform="translate(135.434 67.677)">
                <circle data-name="Ellipse 1701" cx="7.144" cy="7.144" r="7.144" style="fill:#d8a70a"/>
                <circle data-name="Ellipse 1702" cx="1.563" cy="1.563" r="1.563" transform="translate(7.367 4.242)" style="fill:#c09409"/>
                <circle data-name="Ellipse 1703" cx="1.563" cy="1.563" r="1.563" transform="translate(2.902 4.242)" style="fill:#c09409"/>
                <path data-name="Rectangle 5124" transform="translate(4.133 1.569)" style="fill:#c09409" d="M0 0h.664v4.236H0z"/>
                <path data-name="Path 20058" d="m191.593 106.676-2.33-2.33v-2.593h.664v2.318l2.135 2.135z" transform="translate(-182.897 -100.637)" style="fill:#c09409"/>
                <path data-name="Path 20059" d="M189.234 100.5a7.144 7.144 0 1 0 7.144 7.144 7.144 7.144 0 0 0-7.144-7.144zm0 12.95a5.8 5.8 0 1 1 5.805-5.805 5.8 5.8 0 0 1-5.805 5.8z" transform="translate(-182.091 -100.495)" style="fill:#f0b90b"/>
            </g>
        </g>
        <g data-name="Group 10141" transform="translate(164.998 7.294)">
            <path data-name="Path 20068" d="M33.934 0h59.82a8.4 8.4 0 0 1 8.4 8.4v136.44a8.4 8.4 0 0 1-8.4 8.4h-59.82a8.4 8.4 0 0 1-8.4-8.4V8.4a8.4 8.4 0 0 1 8.4-8.4z"/>
            <path data-name="Path 20060" d="M312.757 35.7H300.3v.8a3.872 3.872 0 0 1-3.872 3.872h-26.794a3.872 3.872 0 0 1-3.872-3.872v-.8h-12.82a5.534 5.534 0 0 0-5.527 5.527v136.44a5.534 5.534 0 0 0 5.527 5.527h59.815a5.534 5.534 0 0 0 5.527-5.527V41.227a5.534 5.534 0 0 0-5.527-5.527z" transform="translate(-219.004 -32.823)" style="fill:#333436"/>
            <path data-name="Path 20061" d="M261.6 47.033a4.544 4.544 0 1 1-4.544-4.547 4.516 4.516 0 0 1 4.544 4.547z" transform="translate(-219.577 -33.586)" style="opacity:.08;fill:#fff"/>
            <circle data-name="Ellipse 1704" cx="1.637" cy="1.637" r="1.637" transform="translate(35.844 10.462)" style="opacity:.38;fill:#fff"/>
            <path data-name="Path 20062" d="M260.663 50.664a4.543 4.543 0 0 1-6.936 0 4.01 4.01 0 0 1 6.936 0z" transform="translate(-219.714 -34.281)" style="opacity:.38;fill:#fff"/>
            <path data-name="Path 20069" d="M2.88 0h58.848a2.88 2.88 0 0 1 2.88 2.88v76.157a2.88 2.88 0 0 1-2.88 2.88H2.88A2.88 2.88 0 0 1 0 79.037V2.88A2.88 2.88 0 0 1 2.88 0z" transform="translate(31.542 22.611)" style="opacity:.08;fill:#fff"/>
            <circle data-name="Ellipse 1705" cx="13.101" cy="13.101" r="13.101" transform="translate(48.353 28.732)" style="fill:#f0b90b"/>
            <path data-name="Path 20070" d="M1.012 0h9.2a1.012 1.012 0 0 1 1.012 1.012v5.462a1.012 1.012 0 0 1-1.012 1.012h-9.2A1.012 1.012 0 0 1 0 6.474V1.012A1.012 1.012 0 0 1 1.012 0z" transform="translate(84.848 10.017)" style="fill:#f0b90b"/>
            <path data-name="Path 20063" d="M287.445 99.626h-69.276a2.763 2.763 0 0 0-2.353 4.211l4.895 7.954h37.527a13.78 13.78 0 0 0-.1 1.576v31.175h43.045v-31.175a13.741 13.741 0 0 0-13.738-13.741z" transform="translate(-215.402 -40.014)" style="fill:#f0b90b"/>
        </g>
        <g data-name="Group 10142" transform="translate(75.797 113.776)">
            <path data-name="Path 20064" d="M30.261 12.051c3 6.149-7.255 12.051-13.912 12.051a12.051 12.051 0 0 1 0-24.1C23.007 0 27.281 5.944 30.261 12.051z"/>
            <path data-name="Path 20065" d="M44.147 40.494H4.299V12.051h25.962z"/>
            <circle data-name="Ellipse 1706" cx="8.873" cy="8.873" r="8.873" transform="translate(7.261 3.434)" style="fill:#f0b90b"/>
            <path data-name="Path 20066" d="M138.539 179.564h-13.126a10.519 10.519 0 0 0-10.519 10.52V207.6h34.163v-17.516a10.519 10.519 0 0 0-10.518-10.52z" transform="translate(-114.894 -155.489)" style="fill:#f0b90b"/>
        </g>
        <circle data-name="Ellipse 1707" cx="14.402" cy="14.402" r="14.402" transform="translate(28.257 11.557)" style="fill:#333436"/>
        <path data-name="Path 20067" d="M81.635 75.726H61.243A14.34 14.34 0 0 0 46.9 90.066V112h49.076V90.066a14.34 14.34 0 0 0-14.341-14.34z" transform="translate(-31.448 -30.031)" style="fill:#333436"/>
    </g>
</svg>
