<svg xmlns="http://www.w3.org/2000/svg" width="320" height="212" viewBox="0 0 320 212">
    <g transform="translate(.491 -545.684)">
        <path data-name="Path 20302" d="M222.7 648.426h-67.08l-18.645-18.646H95.5v-5.934h43.934l18.645 18.645H222.7z" transform="translate(-10.741 -8.791)" style="fill:#f2f2f3"/>
        <path data-name="Path 20303" d="M222.7 648.426h-67.08l-18.645-18.646H95.5v-5.934h43.934l18.645 18.645H222.7z" transform="translate(-10.741 -8.791)" style="fill:#f2f2f3"/>
        <path data-name="Path 20304" d="M137.409 689.8h-38.96v-5.934h36.5l12.232-12.231h37.01v5.934h-34.55z" transform="translate(-11.073 -14.167)" style="fill:#f2f2f3"/>
        <path data-name="Path 20305" d="M137.409 689.8h-38.96v-5.934h36.5l12.232-12.231h37.01v5.934h-34.55z" transform="translate(-11.073 -14.167)" style="fill:#f2f2f3"/>
        <rect data-name="Rectangle 5141" width="65.341" height="6.123" rx="3.061" transform="translate(211.958 683.154)" style="fill:#f2f2f3"/>
        <rect data-name="Rectangle 5142" width="65.341" height="6.123" rx="3.061" transform="translate(211.958 683.154)" style="fill:#f2f2f3"/>
        <rect data-name="Rectangle 5143" width="27.266" height="6" rx="3" transform="translate(267.547 696.864)" style="fill:#f2f2f3"/>
        <rect data-name="Rectangle 5144" width="27.266" height="6" rx="3" transform="translate(267.547 696.864)" style="fill:#f2f2f3"/>
        <g data-name="Group 10224" transform="translate(153.902 563.774)">
            <path data-name="Path 20306" d="M93.46 0H11.518A11.52 11.52 0 0 0 0 11.519V175.46h104.979V11.519A11.52 11.52 0 0 0 93.46 0z"/>
            <path data-name="Path 20307" d="M93.46 0H11.518A11.52 11.52 0 0 0 0 11.519V175.46h104.979V11.519A11.52 11.52 0 0 0 93.46 0z"/>
            <path data-name="Path 20308" d="M267.366 570.515H250.3v1.1a5.3 5.3 0 0 1-5.3 5.3h-36.712a5.309 5.309 0 0 1-5.3-5.3v-1.1h-17.563a7.576 7.576 0 0 0-7.57 7.57v163.942h97.082V578.086a7.577 7.577 0 0 0-7.571-7.571z" transform="translate(-173.906 -566.567)" style="fill:#333436"/>
            <path data-name="Path 20309" d="M267.366 570.515H250.3v1.1a5.3 5.3 0 0 1-5.3 5.3h-36.712a5.309 5.309 0 0 1-5.3-5.3v-1.1h-17.563a7.576 7.576 0 0 0-7.57 7.57v163.942h97.082V578.086a7.577 7.577 0 0 0-7.571-7.571z" transform="translate(-173.906 -566.567)" style="fill:#333436"/>
            <rect data-name="Rectangle 5145" width="88.85" height="19.147" rx="4.66" transform="translate(7.893 137.002)" style="fill:#f0b90b"/>
            <path data-name="Path 20414" d="M4.653 0H84.2a4.653 4.653 0 0 1 4.65 4.653v9.84a4.653 4.653 0 0 1-4.65 4.654H4.653A4.653 4.653 0 0 1 0 14.494V4.653A4.653 4.653 0 0 1 4.653 0z" transform="translate(7.893 137.002)" style="fill:#f0b90b"/>
            <g data-name="Group 10219" transform="translate(29.334 23.98)">
                <path data-name="Path 20310" d="M252.426 616.088a22.985 22.985 0 1 1-22.985-23 22.846 22.846 0 0 1 22.985 23z" transform="translate(-206.457 -593.085)" style="opacity:.08;fill:#fff"/>
                <path data-name="Path 20311" d="M252.426 616.088a22.985 22.985 0 1 1-22.985-23 22.846 22.846 0 0 1 22.985 23z" transform="translate(-206.457 -593.085)" style="opacity:.08;fill:#fff"/>
                <circle data-name="Ellipse 1712" cx="8.283" cy="8.283" r="8.283" transform="translate(14.702 7.902)" style="opacity:.38;fill:#fff"/>
                <circle data-name="Ellipse 1713" cx="8.283" cy="8.283" r="8.283" transform="translate(14.702 7.902)" style="opacity:.38;fill:#fff"/>
                <path data-name="Path 20312" d="M247.674 634.455a22.983 22.983 0 0 1-35.086 0 20.286 20.286 0 0 1 35.086 0z" transform="translate(-207.147 -596.602)" style="opacity:.38;fill:#fff"/>
                <path data-name="Path 20313" d="M247.674 634.455a22.983 22.983 0 0 1-35.086 0 20.286 20.286 0 0 1 35.086 0z" transform="translate(-207.147 -596.602)" style="opacity:.38;fill:#fff"/>
            </g>
            <path data-name="Rectangle 5147" d="M1.562 0H13.82a1.562 1.562 0 0 1 1.562 1.562v7.131a1.563 1.563 0 0 1-1.563 1.563H1.562A1.562 1.562 0 0 1 0 8.693V1.562A1.562 1.562 0 0 1 1.562 0z" transform="translate(81.259 13.725)" style="fill:#f0b90b"/>
            <path data-name="Path 20413" d="M1.56 0h12.263a1.56 1.56 0 0 1 1.56 1.56V8.7a1.56 1.56 0 0 1-1.56 1.56H1.56A1.56 1.56 0 0 1 0 8.7V1.56A1.56 1.56 0 0 1 1.56 0z" transform="translate(81.259 13.725)" style="fill:#f0b90b"/>
            <g data-name="Group 10221" transform="translate(7.893 108.442)">
                <rect data-name="Rectangle 5149" width="88.85" height="19.147" rx="4.66" style="opacity:.08;fill:#fff"/>
                <path data-name="Path 20415" d="M4.653 0H84.2a4.653 4.653 0 0 1 4.65 4.653v9.84a4.653 4.653 0 0 1-4.65 4.654H4.653A4.653 4.653 0 0 1 0 14.494V4.653A4.653 4.653 0 0 1 4.653 0z" style="opacity:.08;fill:#fff"/>
                <g data-name="Group 10220">
                    <path data-name="Path 20314" d="m234.733 698.869-2.157-.641.33-1.078 2.15.8-.063-2.449h1.091l-.07 2.487 2.112-.786.33 1.085-2.189.647 1.415 1.929-.888.672-1.326-2.049-1.282 2-.887-.647z" transform="translate(-187.954 -689.066)" style="fill:#fff"/>
                    <path data-name="Path 20315" d="m234.733 698.869-2.157-.641.33-1.078 2.15.8-.063-2.449h1.091l-.07 2.487 2.112-.786.33 1.085-2.189.647 1.415 1.929-.888.672-1.326-2.049-1.282 2-.887-.647z" transform="translate(-187.954 -689.066)" style="fill:#fff"/>
                    <path data-name="Path 20316" d="m241.809 698.869-2.157-.641.33-1.078 2.15.8-.063-2.449h1.091l-.069 2.487 2.112-.786.329 1.085-2.189.647 1.415 1.929-.888.672-1.326-2.049-1.281 2-.889-.647z" transform="translate(-188.75 -689.066)" style="fill:#fff"/>
                    <path data-name="Path 20317" d="m241.809 698.869-2.157-.641.33-1.078 2.15.8-.063-2.449h1.091l-.069 2.487 2.112-.786.329 1.085-2.189.647 1.415 1.929-.888.672-1.326-2.049-1.281 2-.889-.647z" transform="translate(-188.75 -689.066)" style="fill:#fff"/>
                    <path data-name="Path 20318" d="m248.885 698.869-2.158-.641.331-1.078 2.15.8-.063-2.449h1.091l-.069 2.487 2.112-.786.329 1.085-2.188.647 1.414 1.929-.888.672-1.325-2.049-1.282 2-.888-.647z" transform="translate(-189.546 -689.066)" style="fill:#fff"/>
                    <path data-name="Path 20319" d="m248.885 698.869-2.158-.641.331-1.078 2.15.8-.063-2.449h1.091l-.069 2.487 2.112-.786.329 1.085-2.188.647 1.414 1.929-.888.672-1.325-2.049-1.282 2-.888-.647z" transform="translate(-189.546 -689.066)" style="fill:#fff"/>
                    <path data-name="Path 20320" d="m255.96 698.869-2.157-.641.33-1.078 2.15.8-.063-2.449h1.091l-.069 2.487 2.112-.786.33 1.085-2.189.647 1.414 1.929-.888.672-1.325-2.049-1.282 2-.888-.647z" transform="translate(-190.342 -689.066)" style="fill:#fff"/>
                    <path data-name="Path 20321" d="m255.96 698.869-2.157-.641.33-1.078 2.15.8-.063-2.449h1.091l-.069 2.487 2.112-.786.33 1.085-2.189.647 1.414 1.929-.888.672-1.325-2.049-1.282 2-.888-.647z" transform="translate(-190.342 -689.066)" style="fill:#fff"/>
                    <path data-name="Path 20322" d="m263.036 698.869-2.157-.641.33-1.078 2.151.8-.06-2.45h1.092l-.07 2.487 2.112-.786.33 1.085-2.189.647 1.415 1.929-.889.672-1.325-2.049-1.282 2-.887-.647z" transform="translate(-191.137 -689.066)" style="fill:#fff"/>
                    <path data-name="Path 20323" d="m263.036 698.869-2.157-.641.33-1.078 2.151.8-.06-2.45h1.092l-.07 2.487 2.112-.786.33 1.085-2.189.647 1.415 1.929-.889.672-1.325-2.049-1.282 2-.887-.647z" transform="translate(-191.137 -689.066)" style="fill:#fff"/>
                    <path data-name="Path 20324" d="m270.111 698.869-2.156-.641.329-1.078 2.151.8-.064-2.449h1.092l-.07 2.487 2.112-.786.33 1.085-2.189.647 1.415 1.929-.888.672-1.326-2.049-1.282 2-.888-.647z" transform="translate(-191.933 -689.066)" style="fill:#fff"/>
                    <path data-name="Path 20325" d="m270.111 698.869-2.156-.641.329-1.078 2.151.8-.064-2.449h1.092l-.07 2.487 2.112-.786.33 1.085-2.189.647 1.415 1.929-.888.672-1.326-2.049-1.282 2-.888-.647z" transform="translate(-191.933 -689.066)" style="fill:#fff"/>
                </g>
            </g>
            <g data-name="Group 10223" transform="translate(7.893 79.232)">
                <rect data-name="Rectangle 5151" width="88.85" height="19.147" rx="4.66" style="opacity:.08;fill:#fff"/>
                <path data-name="Path 20416" d="M4.653 0H84.2a4.653 4.653 0 0 1 4.65 4.653v9.841a4.653 4.653 0 0 1-4.65 4.653H4.653A4.653 4.653 0 0 1 0 14.494V4.653A4.653 4.653 0 0 1 4.653 0z" style="opacity:.08;fill:#fff"/>
                <g data-name="Group 10222">
                    <path data-name="Path 20326" d="m234.733 665.627-2.157-.641.33-1.078 2.15.8-.063-2.449h1.091l-.07 2.487 2.112-.786.33 1.085-2.189.647 1.415 1.929-.888.672-1.326-2.048-1.282 2-.887-.647z" transform="translate(-187.954 -656.117)" style="fill:#fff"/>
                    <path data-name="Path 20327" d="m234.733 665.627-2.157-.641.33-1.078 2.15.8-.063-2.449h1.091l-.07 2.487 2.112-.786.33 1.085-2.189.647 1.415 1.929-.888.672-1.326-2.048-1.282 2-.887-.647z" transform="translate(-187.954 -656.117)" style="fill:#fff"/>
                    <path data-name="Path 20328" d="m241.809 665.627-2.157-.641.33-1.078 2.15.8-.063-2.449h1.091l-.069 2.487 2.112-.786.329 1.085-2.189.647 1.415 1.929-.888.672-1.326-2.048-1.281 2-.889-.647z" transform="translate(-188.75 -656.117)" style="fill:#fff"/>
                    <path data-name="Path 20329" d="m241.809 665.627-2.157-.641.33-1.078 2.15.8-.063-2.449h1.091l-.069 2.487 2.112-.786.329 1.085-2.189.647 1.415 1.929-.888.672-1.326-2.048-1.281 2-.889-.647z" transform="translate(-188.75 -656.117)" style="fill:#fff"/>
                    <path data-name="Path 20330" d="m248.885 665.627-2.158-.641.331-1.078 2.15.8-.063-2.449h1.091l-.069 2.487 2.112-.786.329 1.085-2.188.647 1.414 1.929-.888.672-1.325-2.048-1.282 2-.888-.647z" transform="translate(-189.546 -656.117)" style="fill:#fff"/>
                    <path data-name="Path 20331" d="m248.885 665.627-2.158-.641.331-1.078 2.15.8-.063-2.449h1.091l-.069 2.487 2.112-.786.329 1.085-2.188.647 1.414 1.929-.888.672-1.325-2.048-1.282 2-.888-.647z" transform="translate(-189.546 -656.117)" style="fill:#fff"/>
                    <path data-name="Path 20332" d="m255.96 665.627-2.157-.641.33-1.078 2.15.8-.063-2.449h1.091l-.069 2.487 2.112-.786.33 1.085-2.189.647 1.414 1.929-.888.672-1.325-2.048-1.282 2-.888-.647z" transform="translate(-190.342 -656.117)" style="fill:#fff"/>
                    <path data-name="Path 20333" d="m255.96 665.627-2.157-.641.33-1.078 2.15.8-.063-2.449h1.091l-.069 2.487 2.112-.786.33 1.085-2.189.647 1.414 1.929-.888.672-1.325-2.048-1.282 2-.888-.647z" transform="translate(-190.342 -656.117)" style="fill:#fff"/>
                    <path data-name="Path 20334" d="m263.036 665.627-2.157-.641.33-1.078 2.151.8-.064-2.449h1.092l-.07 2.487 2.112-.786.33 1.085-2.189.647 1.415 1.929-.889.672-1.325-2.048-1.282 2-.887-.647z" transform="translate(-191.137 -656.117)" style="fill:#fff"/>
                    <path data-name="Path 20335" d="m263.036 665.627-2.157-.641.33-1.078 2.151.8-.064-2.449h1.092l-.07 2.487 2.112-.786.33 1.085-2.189.647 1.415 1.929-.889.672-1.325-2.048-1.282 2-.887-.647z" transform="translate(-191.137 -656.117)" style="fill:#fff"/>
                    <path data-name="Path 20336" d="m270.111 665.627-2.156-.641.329-1.078 2.151.8-.064-2.449h1.092l-.07 2.487 2.112-.786.33 1.085-2.189.647 1.415 1.929-.888.672-1.326-2.048-1.282 2-.888-.647z" transform="translate(-191.933 -656.117)" style="fill:#fff"/>
                    <path data-name="Path 20337" d="m270.111 665.627-2.156-.641.329-1.078 2.151.8-.064-2.449h1.092l-.07 2.487 2.112-.786.33 1.085-2.189.647 1.415 1.929-.888.672-1.326-2.048-1.282 2-.888-.647z" transform="translate(-191.933 -656.117)" style="fill:#fff"/>
                </g>
            </g>
        </g>
        <path data-name="Path 20338" d="M80.568 700.47s45.045-24.043 45.045-49.824v-46.683l-45.045-13.334-45.045 13.334v46.683c0 25.781 45.045 49.824 45.045 49.824z" transform="translate(-3.995 -5.055)" style="fill:#d9d9da"/>
        <path data-name="Path 20339" d="M80.568 700.47s45.045-24.043 45.045-49.824v-46.683l-45.045-13.334-45.045 13.334v46.683c0 25.781 45.045 49.824 45.045 49.824z" transform="translate(-3.995 -5.055)" style="fill:#d9d9da"/>
        <circle data-name="Ellipse 1714" cx="34.971" cy="34.971" r="34.971" transform="translate(41.602 599.082)" style="fill:#f2f2f3"/>
        <circle data-name="Ellipse 1715" cx="34.971" cy="34.971" r="34.971" transform="translate(41.602 599.082)" style="fill:#f2f2f3"/>
        <path data-name="Path 20340" d="M75.391 659.89a3.006 3.006 0 0 1-2.136-.89l-10.092-10.087a3.021 3.021 0 0 1 4.273-4.272l7.955 7.954 24.9-24.9a3.021 3.021 0 0 1 4.273 4.273L77.527 659a3.009 3.009 0 0 1-2.136.89z" transform="translate(-7.005 -9.125)" style="fill:#f0b90b"/>
        <path data-name="Path 20341" d="M75.391 659.89a3.006 3.006 0 0 1-2.136-.89l-10.092-10.087a3.021 3.021 0 0 1 4.273-4.272l7.955 7.954 24.9-24.9a3.021 3.021 0 0 1 4.273 4.273L77.527 659a3.009 3.009 0 0 1-2.136.89z" transform="translate(-7.005 -9.125)" style="fill:#f0b90b"/>
        <path data-name="Path 20342" d="M271.47 758.223H141.9l-12.547-12.547h-94.3a3.641 3.641 0 0 0-3.7 3.688 3.5 3.5 0 0 0 1.023 2.293 3.449 3.449 0 0 0 2.477 1.029h91.6l12.548 12.547H271.47a3.5 3.5 0 0 0 3.5-3.5 3.5 3.5 0 0 0-3.5-3.51z" transform="translate(-3.526 -22.494)" style="fill:#f0b90b"/>
        <path data-name="Path 20343" d="M271.47 758.223H141.9l-12.547-12.547h-94.3a3.641 3.641 0 0 0-3.7 3.688 3.5 3.5 0 0 0 1.023 2.293 3.449 3.449 0 0 0 2.477 1.029h91.6l12.548 12.547H271.47a3.5 3.5 0 0 0 3.5-3.5 3.5 3.5 0 0 0-3.5-3.51z" transform="translate(-3.526 -22.494)" style="fill:#f0b90b"/>
    </g>
</svg>
