<svg xmlns="http://www.w3.org/2000/svg" width="990.591" height="760.668" viewBox="0 0 990.591 760.668">
    <g data-name="Group 10642">
        <path data-name="Path 20164" d="M-2738.717 5987.275a18.979 18.979 0 0 0-19.369-11.132c-2.473.322-5.155 1.109-7.333-.108-1.445-.808-2.31-2.328-3.2-3.724-2.565-4.015-5.571-8.27-9.447-11.036-4.21-3-13.124-8.047-17.471-3.278-4.892 5.366-7.248 13.45-6.982 20.244a8.893 8.893 0 0 1-1.464 5.625c-.959 1.154-2.541 1.515-3.918 2.111-5.329 2.308-7.819 8.328-9.8 13.787-2.013 5.547-4 11.841-1.41 17.142-.356-2.394 1.16-4.716 3.065-6.208s4.2-2.39 6.269-3.642a21.17 21.17 0 0 0 8.486-9.8c2.3 1.584 2.244 4.9 2.535 7.68a20.013 20.013 0 0 0 6.077 12.318c-4.043 4.781-3.987 12.4-5.821 20.855 2.841-2.393 5.721-1.645 8.314-4.6 2.274-2.589.507-4.408 3.935-4.76s4.71 1.547 5.4 4.924c.857 4.22-3.387 7.654-7.319 9.411a19.169 19.169 0 0 1-7.137 1.934c-6.724.2-13.063-4.354-17.487-9.423s-3.378-5.622-9.836-8.405c.236 10.855-3.036 18.8-16.888 19.01-3.561.053-12.492.931-14.725 1.236l-24.981 3.413c-3.01.412-9.023 4.592-9.738 7.188 2.491 1.188 4.956.571 7.537-.405 5.483-2.077 11.7-.509 16.986 2.019s10.226 5.765 15.653 7.983c20.063 8.2 19.666 1 30.888 7.892 7.8 4.791 11.874 14.891 9.824 23.815-1.221 5.316-2.027 4.443-3.313 12.1-.174 1.037 1.585 6.071 2.631 6.183 1.111.119 3.106-2.538 3.544-3.565 3.276-7.679 2.888-16.2 5.308-24.191 2.633-8.694 6.083-15.384 12.311-22 2.811-2.985 5.948-5.7 8.314-9.048 2.223-3.146 3.748-6.825 6.5-9.525 2.78-2.731 5.7-5.325 6.943-8.9a114.791 114.791 0 0 1-2.665 25.014 32.273 32.273 0 0 0 10.539-29.623 41.927 41.927 0 0 1-.939-5.723 31.658 31.658 0 0 1 1.125-7.668 62.778 62.778 0 0 0-7.363-44.43 28.456 28.456 0 0 0 26.422 9.31zm-57.058-19.809a8.453 8.453 0 0 1-.227 1.9 4.359 4.359 0 0 1-.4.968c-.124.223-.416.88-.656 1-.448.214-.859-1-.986-1.273a4.432 4.432 0 0 1-.268-1.345 3.153 3.153 0 0 1 .125-1.059 6.582 6.582 0 0 1 2.314-3.492 17.029 17.029 0 0 1 .098 3.301zm18.4-2.7a13.835 13.835 0 0 1-1.148-.709 16.038 16.038 0 0 1-1.625-1.3 5.006 5.006 0 0 1-1.653-1.959 8.126 8.126 0 0 1 3.783 1.646 7.484 7.484 0 0 1 .91.964c.249.329.36.466.655.842.187.24.832 1.059.767 1.181s-1.459-.553-1.686-.668z" transform="rotate(-25 -14341.175 -5278.874)" style="fill:#fff"/>
        <path data-name="Path 20163" d="M-2960.913 5844.189c-6.1 6.349-8.648 11.36-17.633 14.823-6.967 2.686-14.647 5.672-21.9 3.917-2.762-.667-8.01-2.213-8.667-4.977-.4-1.709 1.361-6.531 2.36-7.977 2.682-3.877 7.864-6.261 8.276-8.208-5.363-1.8-10.3-.531-15.258 2.191a25.2 25.2 0 0 0-8.349 6.943c-4.759 6.518-12.312 10.84-16.86 17.692-6.362 9.584-12.5 19.458-20.089 29.274-10.491 13.58-17.825 38.9-15 51.146a3.445 3.445 0 0 1-1.025 3.315 4.224 4.224 0 0 1-1.47.682 155.558 155.558 0 0 0-15.4 5.794c-2.442 1.07-5.245 2.795-5.151 5.461 8.084 5.974 17.289 12.259 27.256 10.954.341 6.164 1.666 12.58 5.318 17.556 3.046 4.152 7.026 8.9 12.329 8.85 5.046-.045 9.181-4.039 11.947-8.261 5.591-7.892 6.477-16.408 6.8-25.688a3.555 3.555 0 0 1 .542-2.144c.465-.583 1.352-.581 1.941-1.037a51.465 51.465 0 0 0 7.373-6.562c5.109-5.277 5.528-6.478 8.7-12.522-3.146-.79-6.685.277-10.491-.021-3.581-.281-8.144.256-11.124 2.953-2.116-8.689-3.145-18.313-7.961-25.651-2.378-3.621-1.719-10.411.5-14.131 1.64-2.75 5.433-6.189 8.489-7.146 4.951-1.549 10.922 1.105 16 2.144a100.782 100.782 0 0 1 9.682 2.886 79.388 79.388 0 0 0 12.175 2.762c.528-3.212-6.958-8-10.825-11.617.971-3.28 4.833-4.782 8.253-4.9a32.813 32.813 0 0 0 11.156-2.831c5.727-2.644 8.556-5.478 12.385-10.785 6.659-9.231 12.026-21.1 18.656-29.76a6.318 6.318 0 0 0 1.313-3.725c-.035-1.237-3.009-1.473-4.248-1.4zm-102.6 145.346c-.163.23-1.151-.469-1.492-.779a4.721 4.721 0 0 1-1-1.383 3.563 3.563 0 0 1-.354-2.231 6.1 6.1 0 0 1 1.1-2.624 12.916 12.916 0 0 1 1.445 3.949c.128.554.647 2.585.305 3.068zm23.835-1.984c.039-.473.384-2.444.492-2.986a14.714 14.714 0 0 1 1.222-3.65 6.4 6.4 0 0 1 1.238 3.711 6.152 6.152 0 0 1-.925 2.33 7.752 7.752 0 0 1-.964 1.13 1.579 1.579 0 0 1-.872.445c-.413.022-.208-.731-.187-.98z" transform="rotate(-42 -8321.355 -792.993)" style="fill:#fff"/>
    </g>
</svg>
