<svg xmlns="http://www.w3.org/2000/svg" xmlns:xlink="http://www.w3.org/1999/xlink" width="1016.042" height="758.404" viewBox="0 0 1016.042 758.404"><defs><clipPath id="a"><path d="M83.189,260.953C240.978,239.436,339.6,327.374,436.427,533.5S537.463,640.326,687.459,734.326s35.861,274.341-127.309,281.513-148.367-97.725-416.367-37.725-411.94-45.964-401.94-165.964,161.516-129.824,140-278.649S-74.6,282.469,83.189,260.953Z" fill="none"/></clipPath><clipPath id="b"><path d="M144.162,660.9c-38.894,39.426.308,119.5,10.433,138.216,13.879,25.65,34.092,52.5,61.169,47.38,29.118-5.5,19.576-43.174,26.581-69.548,9.422-35.473,20.491-52.177,21.5-70.231,1.366-24.319-19.135-37.467-49.264-48.771C195.2,650.673,159.285,645.577,144.162,660.9Z" fill="none"/></clipPath></defs><g transform="translate(342.645 -257.789)"><g transform="translate(-84)"><g clip-path="url(#a)"><path d="M64,201.25C242.22,176.95,353.617,276.273,462.984,509.1S577.1,629.758,746.529,735.932s40.506,309.873-143.8,317.975-167.584-110.383-470.3-42.612S-373.59,968.374-362.3,832.832s203.5-133.355,179.2-301.456S-114.229,225.553,64,201.25Z" fill="#fff"/><path d="M483.59,760.566c-1.334-.413-7.864-2.65-9.978-2.2l-.085-1.068,3.373.6-3.062-.926.383-.713c1.454.4,8.4,2.7,9.743,3.112Z" fill="#aa563b"/><path d="M508.885,734.13l-1.241-.15c.4-3.3,0-8-.04-10.806a4.277,4.277,0,0,0-.348-1.319l1-.2.18,2.88.193-2.88.931.18a1.855,1.855,0,0,0-.365,1.321A90.746,90.746,0,0,1,508.885,734.13Z" fill="#aa563b"/><path d="M533.165,757.581l-.616-1.091c2.294-1.3,3.763-3.6,4.774-4.766l1.156-.891.343.3-1.006.856-.591.786.688-.756,1.063-.751.17.15-.57.808.976.05-.065.163-1.163.2C537.183,753.963,535.649,756.17,533.165,757.581Z" fill="#aa563b"/><path d="M500.123,777.822l-2.492-.223c.165-3.683-.756-7.356-2.642-9.67A18.8,18.8,0,0,0,488,762.857a73.971,73.971,0,0,0-9.688-3.122l1.509-2.6a65.882,65.882,0,0,1,9.2,3.443,21.2,21.2,0,0,1,7.909,5.775A16.466,16.466,0,0,1,500.123,777.822Z" fill="#40acaf"/><path d="M500.263,776.995c-1.464-10.886.771-18.515,3.138-26.591,1.922-6.553,3.908-13.328,3.9-22.28l2.5-.005c.013,9.315-2.027,16.266-4,22.991-2.292,7.814-4.454,15.192-3.062,25.555Z" fill="#aaac39"/><path d="M504.861,777.709l-2.359-.826c.966-2.752,2.069-5.509,3.288-8.189a19.375,19.375,0,0,1,4.691-7.008c2.092-1.776,4.944-2.887,8.724-3.4,1.249-.17,2.507-.27,3.763-.368a47.974,47.974,0,0,0,4.9-.55,11.958,11.958,0,0,0,7-3.435l1.872,1.661c-1.889,2.129-4.724,3.555-8.424,4.236a50.671,50.671,0,0,1-5.154.583c-1.213.1-2.424.19-3.628.35-3.29.445-5.72,1.369-7.433,2.825a17.218,17.218,0,0,0-4.038,6.137C506.881,772.343,505.8,775.027,504.861,777.709Z" fill="#aa56af"/><path d="M134.994,664.2c-14.614-3.765-21.154,17.5-25.846,30.529s-5.589,27.6-4.659,42.119c.268,4.143.708,8.409,2.557,12.357,2.57,5.479,8.442,9.973,14.264,8.337,4.694-1.321,8.524-5.254,10.941-8.9,7.216-10.9,8.953-22.423,11.816-35.823C147.5,696.783,152.067,668.6,134.994,664.2Z" fill="#eaecef"/><path d="M135.884,664.537c-19.165,23.306-15,58.314-6.13,87.317a28.3,28.3,0,0,0,2.5-3.21c7.218-10.894,8.952-22.418,11.819-35.824C147.433,697.087,151.837,669.721,135.884,664.537Z" fill="#000812" opacity="0.08" style="isolation:isolate"/><path d="M128.175,845.671c1.314,3.215,8.952,9.43,12.2,8.214,2.4-.9,2.635-2.847,2.617-5.409-.13-21.079-2.337-34.94-5.862-55.725-1.3-7.646-2.1-14.994-6.713-21.224-3.926-5.3-13.3-11.719-19.068-5.329-5.73,6.353-1.416,22.03.59,28.768C118.282,816.263,119.106,823.514,128.175,845.671Z" fill="#eaecef"/><path d="M133.488,862.3c-2.652,3.138-3.333,8.242-.545,11.259a8.79,8.79,0,0,0,7.1,2.432,21.922,21.922,0,0,0,7.381-2.252c2-.916,4.1-2.027,5.117-3.983,2.567-4.944-2.567-9.25-6.48-11.136C141.454,856.405,136.813,858.369,133.488,862.3Z" fill="#eaecef"/><path d="M161.667,875.993c1.646-.508-.633-3.11-1.266-5.457-.791-2.94-5.032-8.982-5.392-3.3C154.764,871.111,159.906,876.533,161.667,875.993Z" fill="#eaecef"/><path d="M146.08,886.939c-.6,1.249-5.532-.233-7.711-1.909-1.841-1.419-6.2-6.685-1.916-6.35C139.372,878.91,146.726,885.608,146.08,886.939Z" fill="#eaecef"/><path d="M155.192,890.941c1.609-1.641-2.5-5.81-4.651-8.877-1.746-2.494-8.127-7.824-6.748-2.3C144.734,883.534,153.9,892.258,155.192,890.941Z" fill="#eaecef"/><path d="M158.6,886.413c1.471-.9-1.359-4.964-3.012-8.166-1.4-2.712-5.407-6.725-4.459-1.111C151.778,880.964,157.031,887.372,158.6,886.413Z" fill="#eaecef"/><path d="M144.162,660.9c-38.894,39.426.308,119.5,10.433,138.216,13.879,25.65,34.092,52.5,61.169,47.38,29.118-5.5,19.576-43.174,26.581-69.548,9.422-35.473,20.491-52.177,21.5-70.231,1.366-24.319-19.135-37.467-49.264-48.771C195.2,650.673,159.285,645.577,144.162,660.9Z" fill="#eaecef"/><g clip-path="url(#b)"><path d="M212.584,857.879c-21.73,4.1-88.053-56.03-48.994-43.652,45.717,14.484,51.826-26.894,52.6-36.407,1.839-22.393,15.913-30.2,23.927-51.183,2.872-7.486,5-15.743,2.77-23.439-2.8-9.668-14.8-21.019-24.037-26.746-8.552-5.3-26.821-12.54-41.908-14.036-20.454-2.029-43.069,5.5-42.8-7.071.335-15.74,45.539-19.411,57.408-14.967,30.127,11.3,82.816,30.282,81.448,54.581-.991,18.069-7.966,56.568-17.4,92.041C248.582,813.376,241.689,852.359,212.584,857.879Z" fill="#000812" opacity="0.08" style="isolation:isolate"/></g><path d="M281.628,757.023c-16.683-15.58-41.491-45.676-24.66-61.1,14.409-13.2,38.9,6.222,54.721,17.7s28.335,27,38.641,43.607c2.94,4.739,5.77,9.718,6.673,15.22,1.253,7.639-2.2,16.235-10.4,18.032-6.618,1.451-11.672-3.568-17.411-6.1C312.04,776.829,295.569,770.046,281.628,757.023Z" fill="#eaecef"/><path d="M466.8,805.707c3.79,1.1,8.544,3.931,7.186,7.636-1,2.735-4.6,3.217-7.514,3.22a444.717,444.717,0,0,1-71.56-5.792c-8.7-1.416-17.674-3.228-24.79-8.429-6.047-4.421-13.413-15.032-6.192-21.63,7.176-6.558,22.448,1.621,30.122,3.851Z" fill="#eaecef"/><path d="M480.73,807.073c1.894-4.646,7.036-8.272,11.879-6.961a10.736,10.736,0,0,1,6.65,6.3A26.685,26.685,0,0,1,501,815.684c.143,2.687.13,5.587-1.414,7.794-3.9,5.579-11.469,2.457-15.728-.713C478.851,819.04,478.351,812.906,480.73,807.073Z" fill="#eaecef"/><path d="M764.409,946.115c-32.236,0-54.579-5.912-74.289-11.129-24.334-6.44-43.562-11.532-74.259-4.634-70.714,15.9-84.345,4.291-102.747-30.389-8.084-15.242-14.074-36.069-18.3-63.666-3.19-20.817-1.927-40.265-.618-60.468l2.342-1.294,3.037,2.459,4.8-2.309,4.834,1.576c-1.258,19.4-2.5,38.561.44,57.759,3.971,25.908,9.445,45.176,16.728,58.9,14.129,26.641,19.983,37.663,86.189,22.783,34.285-7.7,57.168-1.646,81.4,4.764,19.743,5.227,40.162,10.631,70.446,10.631Z" fill="#aaacaf"/><path d="M513.326,801.508c.563,2.029-.525,4.148-4.9,4.626-3.7.4-14.4.308-8.872-3.908C503.326,799.349,512.726,799.339,513.326,801.508Z" fill="#eaecef"/><path d="M514.042,809.93c.438,2.062-.741,4.356-5.139,4.566-3.716.178-14.394-.565-8.617-4.441C504.226,807.416,513.574,807.729,514.042,809.93Z" fill="#eaecef"/><path d="M514.021,817.6c.42,2.064-.288,3.878-4.686,4.048-3.718.143-12.86.285-7.046-3.535C506.255,815.51,513.573,815.4,514.021,817.6Z" fill="#eaecef"/><path d="M490.355,797.294c-.32-2.079-.38-3.087,2.537-3.645,3.655-.7,12.558.748,6.5,4.171C495.261,800.158,490.7,799.52,490.355,797.294Z" fill="#eaecef"/><path d="M476.036,748.644l-6.685,2.179.433-23.106,7.028,5.579c3.535-6.878,9.8-13.621,10.106-13.946l3-3.208,1.231,4.216c.028.1.4,1.384.756,3.348a49.406,49.406,0,0,1,10.6-7.564l2.3,4.914c-4.453,2.419-9.823,6.092-12.69,10.273l-4.381,6.393-.183-7.749a32.678,32.678,0,0,0-.26-3.353c-2.48,3.1-5.695,7.566-7.158,11.507l-1.2,3.233-4.168-3.3Z" fill="#0bb3f0"/><path d="M472.992,751.631l-1.253,1.081-.09-21.117,5.86,4.649c3-7.246,10.453-15.262,10.779-15.612l.751-.8.308,1.053a38.756,38.756,0,0,1,1.23,7.222c3.012-3.943,9.558-8.865,13.916-11.234l1.384.934c-4.711,2.56-12.277,8.036-15.31,12.46l-1.1,1.6-.045-1.937a38.847,38.847,0,0,0-1-7.584c-2.1,2.379-7.879,9.25-10.058,15.127l-.3.811-5.172-4.106Z" fill="#8ddbf8"/><path d="M494.878,777.351c.01.911-1.066,1.891-1.183,2.795-.105.791-1.962,1.048-2.169,1.819s1.243,2.109,1.584,2.83c.135.29-2.274,1.381-3.24,1.526a3.741,3.741,0,0,0-.438-2.484,4.98,4.98,0,0,1-.658-2.459,4.363,4.363,0,0,1,1.666-2.57,5.522,5.522,0,0,0,1.879-2.452c.1-.378.113-.776.213-1.156.17-.636,2.1-.38,2.1-.38S494.868,776.491,494.878,777.351Z" fill="#909497"/><path d="M503.628,779.791a.986.986,0,0,0,.253.636.911.911,0,0,0,.761.073l3.773-.768a9.524,9.524,0,0,0-1.058-3.027,1.336,1.336,0,0,0-.6-.646c-.223-.09-.5-.078-.663-.258-.19-.223-.06-.568-.135-.851a.77.77,0,0,0-.5-.5,1.845,1.845,0,0,0-.723-.075,5.523,5.523,0,0,0-3.42,1.2c-.455.478.34.811.656,1.111a5.693,5.693,0,0,1,1.021,1.319A5.466,5.466,0,0,1,503.628,779.791Z" fill="#909497"/></g></g><g transform="translate(-84)"><path d="M432.608,414.048,297.34,384.116,211.875,365.2l-7.209-1.6L164.4,354.7l-7.209-1.6-45.4-10.046L93.49,339.007a37.278,37.278,0,0,0-44.465,28.331L6.724,558.5a37.282,37.282,0,0,0,28.355,44.471L374.2,678.012a37.282,37.282,0,0,0,44.471-28.355l1.761-7.959,1.8-8.152,1.6-7.208,19.776-89.373,17.364-78.47A37.277,37.277,0,0,0,432.608,414.048Z" fill="#f0b90b"/><circle cx="45.85" cy="45.85" r="45.85" transform="translate(93.545 380.994)" fill="#1a1c1f"/><circle cx="45.85" cy="45.85" r="45.85" transform="translate(195.944 403.653)" fill="#1a1c1f"/><path d="M50.865,551.232c34.873-28.077,81.591-44.924,126.71-34.445S279.245,566.469,357.9,630.818" fill="none" stroke="#1a1c1f" stroke-linecap="round" stroke-miterlimit="10" stroke-width="10.045"/><path d="M241.794,449.5l-36.312-56.949,6.068-27.422" fill="none" stroke="#1a1c1f" stroke-miterlimit="10" stroke-width="8" opacity="0.16"/><line y1="74.053" x2="16.387" transform="translate(139.395 352.791)" fill="none" stroke="#1a1c1f" stroke-miterlimit="10" stroke-width="8" opacity="0.16"/><path d="M116.206,398.808c5.8-5.183,15.172-7.9,18.437-7.057,4.27,1.1-6.266,3.433-13.592,13.112-5.435,7.181-10.714,5.978-10.681,2.779S112.606,402.028,116.206,398.808Z" fill="#fff"/><path d="M216.632,421.031c5.732-5.257,15.292-8.5,18.246-6.88,2.858,1.571-2.837-.446-13.185,12.893-5.519,7.116-10.93,6.02-10.9,2.821S213.875,423.561,216.632,421.031Z" fill="#fff"/><path d="M110.13,413.363a3.841,3.841,0,0,1-1.166,5.643c-2.1,1.169-5.676-1.515-4.648-4.368C105.054,412.59,108.122,410.942,110.13,413.363Z" fill="#fff"/><path d="M212.763,435.68a3.84,3.84,0,0,1-1.166,5.642c-2.1,1.17-6.086-1.289-5.058-4.142C207.277,435.132,210.755,433.258,212.763,435.68Z" fill="#fff"/><path d="M139.03,464.84c2.448-1.328,5.323-1.558,8.1-1.755s5.652-.416,8.111-1.725c1.974-1.051,4.184-2.691,6.317-3.364,3.111-.982,6.571-2.047,9.463.948,1.571,1.626-6.139,7.505-8.851,8.919-4.341,2.263-8.569,4.952-13.375,5.886-3.532.687-9.7.938-12.793-1.352C133.215,470.333,136.924,465.982,139.03,464.84Z" fill="#fff" opacity="0.16"/><path d="M243.529,486.729c3.651-3.394,7.778-1.311,12.919-3.311,5.018-1.952,12.2-6.578,18.469-2.573,2.542,1.623-6.29,7.772-8.246,8.907-4.234,2.456-8.569,4.952-13.375,5.886-3.532.686-9.125,2.375-12.22.084C238.287,493.658,240.861,489.209,243.529,486.729Z" fill="#fff" opacity="0.16"/><path d="M139.235,466.037a13.368,13.368,0,0,1,4.806-1.4l6-.958a1.327,1.327,0,0,1,.912.071c.512.317.353,1.125-.027,1.593-.972,1.195-2.688,1.378-4.212,1.6a27.586,27.586,0,0,0-6.076,1.612c-1.011.4-1.955.9-2.937,1.355-1.2.554-.874-.882-.563-1.581A5.2,5.2,0,0,1,139.235,466.037Z" fill="#fff" opacity="0.16"/><path d="M245.884,486.454a18.824,18.824,0,0,1,6.109-1.144l4.134-.306a1.245,1.245,0,0,1,1,.213.822.822,0,0,1,.021,1.013,2.021,2.021,0,0,1-.877.637,22.772,22.772,0,0,1-6.023,1.267c-2.035.309-4.162.9-5.553,2.414a11.632,11.632,0,0,1-.909,1,1.6,1.6,0,0,1-1.232.444c-1.492-.218-.3-2.255.136-2.93A7.173,7.173,0,0,1,245.884,486.454Z" fill="#fff" opacity="0.16"/></g></g></svg>