<svg xmlns="http://www.w3.org/2000/svg" xmlns:xlink="http://www.w3.org/1999/xlink" width="1920" height="440" viewBox="0 0 1920 440">
  <defs>
    <clipPath id="clip-path">
      <rect id="Rectangle_1857" data-name="Rectangle 1857" width="1920" height="440" transform="translate(0 120)" fill="#fff"/>
    </clipPath>
    <linearGradient id="linear-gradient" y1="0.525" x2="0.661" y2="0.537" gradientUnits="objectBoundingBox">
      <stop offset="0" stop-color="#1a1c1f" stop-opacity="0"/>
      <stop offset="1" stop-color="#1a1c1f"/>
    </linearGradient>
  </defs>
  <g id="Mask_Group_12" data-name="Mask Group 12" transform="translate(0 -120)" clip-path="url(#clip-path)">
    <g id="Group_8214" data-name="Group 8214" transform="translate(0 120)">
      <rect id="Rectangle_1856" data-name="Rectangle 1856" width="1920" height="520" fill="#1a1c1f"/>
      <g id="Group_8484" data-name="Group 8484" transform="translate(1865.768 480.737) rotate(180)">
        <g id="Group_8178" data-name="Group 8178">
          <path id="Path_16751" data-name="Path 16751" d="M1798.637,234.032q-4.845,9.2-9.692,18.4c.125-.237,10.716,3.244,11.632,3.51.96.279,11.385,3.86,11.7,3.268l9.692-18.4c-.125.236-15.595-16.956-16.51-17.222-.961-.279-6.507,9.851-6.819,10.444Z" fill="#2a2d30"/>
        </g>
        <g id="Group_8179" data-name="Group 8179">
          <path id="Path_16752" data-name="Path 16752" d="M1855.744,188.073l19.428,9.944c.973.5,8.886-13.807,9.646-13.418l-19.428-9.944c-.973-.5-8.886,13.807-9.646,13.418Z" fill="#2a2d30"/>
        </g>
        <g id="Group_8180" data-name="Group 8180">
          <path id="Path_16753" data-name="Path 16753" d="M1746.417,177.958l13.318,12.946c.34.331,8.873-8.506,9.082-8.3L1755.5,169.655c-.34-.331-8.873,8.505-9.082,8.3Z" fill="#2a2d30"/>
        </g>
        <g id="Group_8181" data-name="Group 8181">
          <path id="Path_16754" data-name="Path 16754" d="M1433.908,364.067q-9.018,18.476-18.037,36.951c.233-.476,19.943,6.515,21.647,7.048,1.787.559,21.187,7.752,21.767,6.563q9.019-18.475,18.037-36.951c-.232.475-19.943-6.515-21.646-7.048-1.788-.56-21.187-7.752-21.768-6.563Z" fill="#2a2d30"/>
        </g>
        <g id="Group_8182" data-name="Group 8182">
          <path id="Path_16755" data-name="Path 16755" d="M1642.181,209.692q-.042,11-.084,22c0,.09,12.114.141,12.114.043q.042-11,.085-22c0-.091-12.115-.142-12.115-.044Z" fill="#2a2d30"/>
        </g>
        <g id="Group_8183" data-name="Group 8183">
          <path id="Path_16756" data-name="Path 16756" d="M1822.127,457.528a23.179,23.179,0,0,1,15.9-20.109,12.14,12.14,0,0,1-2.271-.689c-1.833-.531-3.672-1.041-5.511-1.55s-3.679-1.016-5.523-1.5c-.535-.141-1.8-.735-2.3-.575a23.181,23.181,0,0,0-15.9,20.109c-.1,1.021,15.679,3.54,15.606,4.316Z" fill="#2a2d30"/>
        </g>
        <g id="Group_8184" data-name="Group 8184">
          <path id="Path_16757" data-name="Path 16757" d="M1371.9,445.623h-11.307c-.3,0-1.423,5.555-1.548,6.065-.119.484-1.223,6.1-1.431,6.1h11.307c.294,0,1.423-5.554,1.548-6.065.118-.483,1.222-6.1,1.431-6.1Z" fill="#2a2d30"/>
        </g>
        <g id="Group_8185" data-name="Group 8185">
          <path id="Path_16758" data-name="Path 16758" d="M1708.708,109.444H1697.4c-.3,0-1.423,5.555-1.548,6.065-.119.484-1.223,6.1-1.431,6.1h11.307c.3,0,1.423-5.554,1.548-6.065.118-.483,1.222-6.1,1.431-6.1Z" fill="#2a2d30"/>
        </g>
        <g id="Group_8186" data-name="Group 8186">
          <path id="Path_16759" data-name="Path 16759" d="M1483.362,492.737a30.948,30.948,0,0,1,6.8-29.31c-.432.479-8.332-2.4-9.248-2.652-1.044-.287-8.594-3.24-9.3-2.459a30.952,30.952,0,0,0-6.8,29.311c.262.947,8.189,2.359,9.248,2.651,1.03.284,9.046,1.552,9.3,2.459Z" fill="#2a2d30"/>
        </g>
        <g id="Group_8187" data-name="Group 8187">
          <path id="Path_16760" data-name="Path 16760" d="M1563.9,408.527l-7.469-15.372c-.282-.581-5.315-.59-6.024-.661-.691-.068-5.762.026-6.035-.536l7.468,15.372c.283.581,5.315.591,6.024.661.691.069,5.763-.025,6.036.536Z" fill="#2a2d30"/>
        </g>
        <g id="Group_8188" data-name="Group 8188">
          <path id="Path_16761" data-name="Path 16761" d="M1855.959,70.074l-59.695-31.436c-3.25-1.711-24.337,33.539-27.054,32.108l59.7,31.435c3.25,1.711,24.337-33.538,27.054-32.107Z" fill="#2a2d30"/>
        </g>
        <g id="Group_8189" data-name="Group 8189">
          <path id="Path_16762" data-name="Path 16762" d="M1709.809,467.94l11.641-11.59c-.275.275-8.951-8.373-9.356-7.969l-11.641,11.589c.275-.274,8.951,8.373,9.356,7.97Z" fill="#2a2d30"/>
        </g>
        <g id="Group_8190" data-name="Group 8190">
          <path id="Path_16763" data-name="Path 16763" d="M1825.258,381.524c-29.511-6.835-44.773-17.708-40.566-26.16,4.743-9.512,32.894-14.69,35.4-24.184a51.649,51.649,0,0,0,1.868-14.388c-.167-6.936-16.6-9.8-35.42-14.794-63.9-16.95-34.394-32.684-32.468-48.8,2.311-19.362-14.756-36.615-51.441-57.228,5,2.815-6.212,6.712-1.049,9.612,21.617,12.142,40.343,24.073,48.687,36.371,7.786,11.466-4.8,20.677-7.813,31.023-3.995,13.714-.3,27.142,48.806,40.168,24.441,6.483,33.977,8.96,20.942,15.593-13.877,7.067-26.729,12.852-28.506,22.153-2.368,12.434-8.972,28.784,40.511,40.251-4.049-.94,5.539-8.573,1.05-9.613Z" fill="#2a2d30"/>
        </g>
        <g id="Group_8191" data-name="Group 8191">
          <path id="Path_16764" data-name="Path 16764" d="M1016.975,178.9c6.354,15.624,27.448,20.775,39.874,9.736.442-.394.887-4.809.875-4.74.655-3.822,1.277-7.651,1.892-11.48s1.225-7.66,1.8-11.5c.124-.831.154-4.333.654-4.777-12.425,11.038-33.52,5.888-39.874-9.736.2.5-.891,4.826-.876,4.739-.655,3.822-1.277,7.651-1.892,11.48s-1.225,7.66-1.8,11.5c-.165,1.1-1.053,3.8-.653,4.778Z" fill="#2a2d30"/>
        </g>
        <g id="Group_8192" data-name="Group 8192">
          <path id="Path_16765" data-name="Path 16765" d="M1078.457,95.74q-4.431,8.414-8.863,16.826c.114-.217,9.8,2.966,10.636,3.209.878.255,10.41,3.53,10.7,2.988l8.862-16.825c-.114.216-14.26-15.505-15.1-15.748-.878-.254-5.949,9.008-6.234,9.55Z" fill="#2a2d30"/>
        </g>
        <g id="Group_8193" data-name="Group 8193">
          <path id="Path_16766" data-name="Path 16766" d="M1179.876,127.571l17.764,9.093c.89.455,8.126-12.625,8.82-12.269L1188.7,115.3c-.89-.455-8.126,12.625-8.82,12.269Z" fill="#2a2d30"/>
        </g>
        <g id="Group_8194" data-name="Group 8194">
          <path id="Path_16767" data-name="Path 16767" d="M1051.294,358.161l17.765,9.092c.889.455,8.125-12.625,8.82-12.269l-17.765-9.093c-.889-.455-8.125,12.625-8.82,12.27Z" fill="#2a2d30"/>
        </g>
        <g id="Group_8195" data-name="Group 8195">
          <path id="Path_16768" data-name="Path 16768" d="M1231.326,248.918l12.178,11.838c.311.3,8.114-7.777,8.3-7.592l-12.177-11.837c-.311-.3-8.114,7.777-8.3,7.591Z" fill="#2a2d30"/>
        </g>
        <g id="Group_8196" data-name="Group 8196">
          <path id="Path_16769" data-name="Path 16769" d="M889.2,220.71l-11.238,12.733c-.287.325,8.158,7.73,7.982,7.93l11.239-12.733c.287-.325-8.158-7.73-7.983-7.93Z" fill="#2a2d30"/>
        </g>
        <g id="Group_8197" data-name="Group 8197">
          <path id="Path_16770" data-name="Path 16770" d="M1184.883,328.649a29.577,29.577,0,0,0,35.906,4.491c1.047-.612-.9-14.009-1.022-15.579-.113-1.505-2.27-15-1.322-15.554a29.574,29.574,0,0,1-35.9-4.491,32.185,32.185,0,0,1,.237,4.568c.235,3.672.508,7.342.785,11.011s.554,7.338.872,11c.075.861-.1,4.014.449,4.551Z" fill="#2a2d30"/>
        </g>
        <g id="Group_8198" data-name="Group 8198">
          <path id="Path_16771" data-name="Path 16771" d="M1007.912,270.8q3.416,7.027,6.83,14.056c.258.531,4.859.54,5.508.6.632.062,5.269-.024,5.519.49l-6.83-14.056c-.258-.531-4.86-.54-5.508-.605-.632-.062-5.269.024-5.519-.49Z" fill="#2a2d30"/>
        </g>
        <g id="Group_8199" data-name="Group 8199">
          <path id="Path_16772" data-name="Path 16772" d="M1392,67.535c11.869-9.3,27.164-16.356,40.407-5.606,13.184,10.707,9.265,25.848,2.247,38.714-6.278,11.522-13.562,29.633-28.023,32.357-6.411,1.214-12.978-4.406-15.7-9.588q-1.388-4.991-.65,2.015a18.582,18.582,0,0,1,1.6-4.021c1.268-2.71,3.587-4.7,5.93-6.431,11.087-8.19,28.47,1.229,36.318,9.607,9.617,10.254,13.05,25.545,14.463,39.058.553,5.351-.521,12.148-2.363,20.685-1.547,7.192-3.177,12.09-9.993,15.614-11.092,5.741-30.491,1.639-32.245-12.245V200.18c1.137-12.721,26.87,3.842,30.953,7.28,17.4,14.635,11.4,40.955-4.257,53.571-2.082,1.678,1.986,10.89,0,12.481,27.786-22.406,20.681-89.317-21.9-90.281-6-.135-4.864,6.7-4.864,10.706,0,7.718.646,14.1,8.369,17.986,9.11,4.59,22.638,3.712,29.859-3.741,5.891-6.088,6.127-20.815,6.7-28.885,1.176-16.4.458-33.706-4.714-49.369-5.829-17.652-28.688-40.482-48.129-26.1-9.58,7.072-8.963,29.657-1.095,37.427,19.456,19.239,40.214-26.446,44.808-39.63,3.938-11.305,3.678-27.806.545-39.331-6.792-25.006-32.554-19.582-48.284-7.246-2.077,1.629,1.967,10.943,0,12.485Z" fill="#2a2d30"/>
        </g>
        <g id="Group_8200" data-name="Group 8200">
          <path id="Path_16773" data-name="Path 16773" d="M1625.695,102.764a24.561,24.561,0,0,0-8.146-27.632c-.343-.257-3.264.086-3.245.085-2.609.1-5.217.234-7.825.367s-5.215.272-7.822.434c-.579.036-2.849.537-3.236.247a24.563,24.563,0,0,1,8.146,27.631c.19-.538,10.075-.4,11.069-.452,2.608-.133,5.216-.272,7.822-.434.392-.024,3.148,0,3.237-.246Z" fill="#2a2d30"/>
        </g>
        <g id="Group_8201" data-name="Group 8201">
          <path id="Path_16774" data-name="Path 16774" d="M1283.188,83.94l-7.007-18.509c-.331-.873-6.139-1.9-7.08-2.175s-6.793-1.161-7.122-2.028q3.5,9.255,7.007,18.509c.331.873,6.14,1.9,7.081,2.175s6.793,1.16,7.121,2.028Z" fill="#2a2d30"/>
        </g>
        <g id="Group_8202" data-name="Group 8202">
          <path id="Path_16775" data-name="Path 16775" d="M1631.406,312.592a35.711,35.711,0,0,0-17.854-33.7c-1.689-.956-11.873,4.839-13.772,5.64-3.233,1.362-6.465,2.728-9.682,4.13-.558.243-3.622,2-3.978,1.794a35.71,35.71,0,0,1,17.854,33.7c.059-.9,12.471-5.091,13.772-5.64,1.468-.618,13.561-4.4,13.66-5.924Z" fill="#2a2d30"/>
        </g>
        <g id="Group_8203" data-name="Group 8203">
          <path id="Path_16776" data-name="Path 16776" d="M1245.317,174.517a21.98,21.98,0,0,0-10.016,21.232c.152,1.185,6.765,4.064,7.86,4.7,1.865,1.09,3.73,2.179,5.608,3.247.326.185,2.32,1.048,2.352,1.3a21.981,21.981,0,0,1,10.016-21.233c-.468.305-7.111-4.265-7.861-4.7-.846-.5-7.173-5.057-7.959-4.544Z" transform="translate(-119 -12)" fill="#2a2d30"/>
        </g>
        <g id="Group_8204" data-name="Group 8204">
          <path id="Path_16777" data-name="Path 16777" d="M1648.463,411.8A21.192,21.192,0,0,1,1663,393.415a11.129,11.129,0,0,1-2.076-.631c-1.677-.485-3.359-.952-5.04-1.417s-3.364-.929-5.051-1.373c-.488-.129-1.642-.672-2.1-.526a21.192,21.192,0,0,0-14.537,18.387c-.089.934,14.337,3.238,14.27,3.947Z" fill="#2a2d30"/>
        </g>
        <g id="Group_8205" data-name="Group 8205">
          <path id="Path_16778" data-name="Path 16778" d="M1264.579,435.2a19.081,19.081,0,0,0-14.219-14.075,11.652,11.652,0,0,0-1.657,1.442q-1.976,1.767-3.929,3.562t-3.9,3.6c-.214.2-1.412,1.562-1.588,1.523a19.081,19.081,0,0,1,14.22,14.075c-.116-.453,5.053-4.518,5.585-5,.6-.55,5.68-4.365,5.488-5.119Z" fill="#2a2d30"/>
        </g>
        <g id="Group_8206" data-name="Group 8206">
          <path id="Path_16779" data-name="Path 16779" d="M1308.6,201.771a72.11,72.11,0,0,1,25.5-55.962c-1.588,1.341-14.792-2.543-17.127-2.916-4.042-.646-8.086-1.289-12.136-1.885-.85-.125-4.464-1.165-5.043-.676a72.107,72.107,0,0,0-25.5,55.962c.01,2.145,34.3,3.863,34.306,5.477Z" fill="#2a2d30"/>
        </g>
        <g id="Group_8207" data-name="Group 8207">
          <path id="Path_16780" data-name="Path 16780" d="M1160.561,251.519h-10.339c-.27,0-1.3,5.079-1.416,5.546-.108.442-1.118,5.574-1.308,5.574h10.339c.269,0,1.3-5.079,1.415-5.546.109-.442,1.118-5.574,1.309-5.574Z" fill="#2a2d30"/>
        </g>
        <g id="Group_8208" data-name="Group 8208">
          <path id="Path_16781" data-name="Path 16781" d="M1550.606,190.627a17.868,17.868,0,0,1,3.926-16.92c-.249.277-4.809-1.384-5.338-1.53-.6-.166-4.961-1.87-5.367-1.42a17.865,17.865,0,0,0-3.926,16.919c.152.547,4.727,1.363,5.338,1.531.595.164,5.222.9,5.367,1.42Z" fill="#2a2d30"/>
        </g>
        <g id="Group_8209" data-name="Group 8209">
          <path id="Path_16782" data-name="Path 16782" d="M1467.989,292.812l2.694-13.821c-.027.141-5.095.2-5.535.224-.465.024-5.466.012-5.529.338l-2.694,13.821c.027-.14,5.095-.2,5.535-.224.465-.023,5.466-.012,5.529-.338Z" fill="#2a2d30"/>
        </g>
        <g id="Group_8210" data-name="Group 8210">
          <path id="Path_16783" data-name="Path 16783" d="M1504.5,129.254l-10.56-8.9c.3.251-.921,5.069-1.018,5.639-.227,1.331-.452,2.663-.665,4a6.649,6.649,0,0,0-.244,1.661l10.561,8.9c-.3-.252.92-5.069,1.017-5.639.227-1.331.452-2.663.666-4a6.65,6.65,0,0,0,.243-1.662Z" fill="#2a2d30"/>
        </g>
        <g id="Group_8211" data-name="Group 8211">
          <path id="Path_16784" data-name="Path 16784" d="M1343.508,312.279l-10.561-8.9c.3.251-.92,5.068-1.018,5.638q-.34,2-.665,4a6.645,6.645,0,0,0-.243,1.662l10.56,8.9c-.3-.251.921-5.069,1.018-5.639.227-1.331.452-2.663.665-4a6.692,6.692,0,0,0,.244-1.661Z" fill="#2a2d30"/>
        </g>
        <g id="Group_8212" data-name="Group 8212">
          <path id="Path_16785" data-name="Path 16785" d="M941.207,412.961l-10.592-10.65c.251.251-7.66,8.18-7.292,8.551l10.592,10.651c-.251-.252,7.66-8.181,7.292-8.552Z" fill="#2a2d30"/>
        </g>
        <g id="Group_8213" data-name="Group 8213">
          <path id="Path_16786" data-name="Path 16786" d="M997.4,55.2c-14.283,3-28.028,13.385-39.374,22.026-10.693,8.138-18.008,15.9-18.051,29.476-.032,13.037,1.047,21.416,11.311,30.858,12.653,11.624,30.969,19.266,31.24,39.006q.027-7.588.039-15.161c-2.272,18.624-29.121,20.66-29.449,38.892-.109,5.836-.721,12.075-.008,17.873,1.811,14.772,19.47,17.558,20.037,33.523q.012-7.99.021-15.978c-1.58,11.693-7.517,20.366-14.811,29.363-2.7,3.327,2.6,13.06,0,16.269,10.926-13.475,14.978-24.884,14.885-41.6-.045-7.047-.27-11.894-4.868-17.637-5.817-7.257-14.021-10.071-15.264-20.207q.02,7.572.039,15.156c.226-12.272,12.749-17.492,21.061-24.137,8.538-6.843,8.461-15.651,8.439-25.541-.036-12.995-2.58-22.047-12.549-31.184-11.17-10.235-29.442-17.845-30.02-35.172q-.012,7.986-.021,15.975c1.567-12.666,14.647-21.222,24.211-28.137C973.881,81.9,985.579,73.95,997.4,71.466c1.21-.252-.973-16.065,0-16.27Z" fill="#2a2d30"/>
        </g>
      </g>
      <rect id="Rectangle_1915" data-name="Rectangle 1915" width="1920" height="442" fill="url(#linear-gradient)"/>
    </g>
  </g>
</svg>
