<svg xmlns="http://www.w3.org/2000/svg" width="100" height="100" viewBox="0 0 100 100">
    <g data-name="Group 9545">
        <g data-name="Group 9534">
            <path data-name="Path 19296" d="M199 80h-56a7.008 7.008 0 0 1-7-7v-2a1 1 0 0 1 2 0v2a5.006 5.006 0 0 0 5 5h56a5.006 5.006 0 0 0 5-5V41a5.006 5.006 0 0 0-5-5h-2a1 1 0 0 1 0-2h2a7.008 7.008 0 0 1 7 7v32a7.008 7.008 0 0 1-7 7z" style="fill:#0bb3f0" transform="translate(-119 -3)"/>
            <path data-name="Path 19297" d="M191 72h-56a7.008 7.008 0 0 1-7-7V33a7.008 7.008 0 0 1 7-7h56a7.008 7.008 0 0 1 7 7v32a7.008 7.008 0 0 1-7 7zm-56-44a5.006 5.006 0 0 0-5 5v32a5.006 5.006 0 0 0 5 5h56a5.006 5.006 0 0 0 5-5V33a5.006 5.006 0 0 0-5-5z" style="fill:#333536" transform="translate(-119 -3)"/>
            <path data-name="Path 19298" d="M197 46.011h-68a1 1 0 0 1-1-1v-11a1 1 0 0 1 1-1h68a1 1 0 0 1 1 1v11a1 1 0 0 1-1 1zm-67-2h66v-9h-66z" style="fill:#333536" transform="translate(-119 -3)"/>
            <path data-name="Path 19299" d="M186 56.011h-24a1 1 0 0 1 0-2h24a1 1 0 0 1 0 2z" style="fill:#333536" transform="translate(-119 -3)"/>
            <path data-name="Path 19300" d="M177 63.011h-15a1 1 0 0 1 0-2h15a1 1 0 0 1 0 2z" style="fill:#333536" transform="translate(-119 -3)"/>
            <g data-name="Group 9533">
                <path data-name="Path 19301" d="M149.873 58.111a3.776 3.776 0 0 1 1.02 2.7 4.126 4.126 0 0 1-.62 2.221 4.258 4.258 0 0 1-1.87 1.589 7.114 7.114 0 0 1-3.05.591 9.746 9.746 0 0 1-2.89-.43 7.414 7.414 0 0 1-2.37-1.19l1.12-2.02a5.662 5.662 0 0 0 1.85 1.009 6.947 6.947 0 0 0 2.25.37 3.645 3.645 0 0 0 2.17-.569 1.812 1.812 0 0 0 .79-1.551 1.789 1.789 0 0 0-.75-1.529 3.875 3.875 0 0 0-2.29-.55h-1.28V56.97l3.18-3.779h-6.36v-2.18h9.54v1.74l-3.4 4.039a4.71 4.71 0 0 1 2.96 1.321z" style="fill:#0bb3f0" transform="translate(-119 -3)"/>
            </g>
        </g>
    </g>
</svg>
