<svg xmlns="http://www.w3.org/2000/svg" width="100" height="100" viewBox="0 0 100 100">
    <g data-name="Group 9543">
        <g data-name="Group 9536">
            <path data-name="Path 19302" d="M288.023 58.649h-2.48v3.18h-2.52v-3.18h-7.68v-1.8l6.9-9.02h2.78l-6.5 8.62h4.58v-2.82h2.44v2.82h2.48z" style="fill:#0bb3f0" transform="translate(-236)"/>
        </g>
        <path data-name="Path 19303" d="M259.954 34.771c.184 0 .371 0 .563.012a2.153 2.153 0 0 1 1.679 1.031c.882 1.376 2.25 3.512 4.031 6.3a6.152 6.152 0 0 1 .208 6.2l-.052.1-1.015 2.371a6.693 6.693 0 0 0-.533 6.156 29.565 29.565 0 0 0 15.841 15.841 6.626 6.626 0 0 0 2.558.512 6.729 6.729 0 0 0 3.6-1.045l2.371-1.015.1-.052a6.153 6.153 0 0 1 6.2.213c2.784 1.78 4.92 3.148 6.3 4.031a2.153 2.153 0 0 1 1.03 1.678 8.887 8.887 0 0 1-2.383 6.914 7.887 7.887 0 0 1-2.018 1.535c-.6.313-1.185.378-.965.378-.408 0-.623.027-1.135.039-.176 0-.372.007-.589.007-.413 0-.9-.01-1.455-.041a32.047 32.047 0 0 1-6.844-1.175c-5.628-1.578-13.174-5.138-21.307-13.271S254.438 55.8 252.86 50.172a32.034 32.034 0 0 1-1.174-6.844c-.048-.847-.047-1.533-.035-2.044s.039-.726.039-1.135c0 .033 0 .048.005.048a6.248 6.248 0 0 1 .373-1.013 7.91 7.91 0 0 1 1.535-2.018 8.73 8.73 0 0 1 6.351-2.4m0-2a10.787 10.787 0 0 0-7.733 2.95 9.985 9.985 0 0 0-1.929 2.544 6.242 6.242 0 0 0-.421 1.052 1.992 1.992 0 0 0-.181.832c0 .19-.007.329-.015.489s-.017.35-.024.6a27.09 27.09 0 0 0 .038 2.2 34.218 34.218 0 0 0 1.245 7.272c2.171 7.744 6.808 15.207 13.783 22.181S279.153 84.5 286.9 86.676a34.187 34.187 0 0 0 7.271 1.245c.53.03 1.057.045 1.568.045.235 0 .447 0 .638-.007.248-.006.432-.015.6-.024s.3-.015.487-.015a1.991 1.991 0 0 0 .835-.182 6.229 6.229 0 0 0 1.049-.42 9.967 9.967 0 0 0 2.544-1.929 10.953 10.953 0 0 0 2.936-8.382 4.143 4.143 0 0 0-1.949-3.276c-1.377-.883-3.514-2.252-6.3-4.032a1.482 1.482 0 0 0-.121-.072 8.155 8.155 0 0 0-8.118-.206l-.009.005-2.284.978a2.021 2.021 0 0 0-.284.149 4.715 4.715 0 0 1-2.527.734 4.607 4.607 0 0 1-1.786-.357 27.561 27.561 0 0 1-14.77-14.768 4.69 4.69 0 0 1 .377-4.313 1.978 1.978 0 0 0 .15-.284l.978-2.284.006-.012a8.184 8.184 0 0 0-.28-8.237c-1.745-2.729-3.1-4.836-3.979-6.215l-.052-.082a4.145 4.145 0 0 0-3.277-1.95c-.221-.01-.437-.014-.649-.014z" style="fill:#333536" transform="translate(-236)"/>
        <path data-name="Path 19304" d="M297 57.011a1 1 0 0 1-1-1 17.019 17.019 0 0 0-17-17 1 1 0 0 1 0-2 19.021 19.021 0 0 1 19 19 1 1 0 0 1-1 1z" style="fill:#0bb3f0" transform="translate(-236)"/>
        <path data-name="Path 19305" d="M309 57.011a1 1 0 0 1-1-1 29.032 29.032 0 0 0-29-29 1 1 0 0 1 0-2 31.035 31.035 0 0 1 31 31 1 1 0 0 1-1 1z" style="fill:#0bb3f0" transform="translate(-236)"/>
        <path data-name="Path 19306" d="M321 57.011a1 1 0 0 1-1-1 41.046 41.046 0 0 0-41-41 1 1 0 0 1 0-2 43.048 43.048 0 0 1 43 43 1 1 0 0 1-1 1z" style="fill:#0bb3f0" transform="translate(-236)"/>
    </g>
</svg>
