<svg xmlns="http://www.w3.org/2000/svg" width="100" height="100" viewBox="0 0 100 100">
    <g data-name="Group 9547">
        <path data-name="Path 19282" d="M-59.79 74.011H-103a8.009 8.009 0 0 1-8-8v-32a8.009 8.009 0 0 1 8-8h52a8.009 8.009 0 0 1 8 8V53.89a1 1 0 0 1-1 1 1 1 0 0 1-1-1V34.011a6.006 6.006 0 0 0-6-6h-52a6.006 6.006 0 0 0-6 6v32a6.007 6.007 0 0 0 6 6h43.21a1 1 0 0 1 1 1 1 1 0 0 1-1 1z" style="fill:#333536" transform="translate(123)"/>
        <path data-name="Path 19283" d="M-77 55.011a1 1 0 0 1-.537-.157l-32.93-20.95a1 1 0 0 1-.307-1.38 1 1 0 0 1 1.38-.307L-77 52.825l32.394-20.608a1 1 0 0 1 1.38.307 1 1 0 0 1-.307 1.38l-32.93 20.95a1 1 0 0 1-.537.157z" style="fill:#333536" transform="translate(123)"/>
        <g data-name="Group 9527">
            <path data-name="Path 19284" d="M-51.584 73.649a1 1 0 0 1-.707-.293l-4.319-4.32a1 1 0 0 1 0-1.414 1 1 0 0 1 1.414 0l3.612 3.613L-40.72 60.37a1 1 0 0 1 1.414 0 1 1 0 0 1 0 1.414l-11.571 11.572a1 1 0 0 1-.707.293z" style="fill:#0bb3f0" transform="translate(123)"/>
            <path data-name="Path 19285" d="M-47.958 82.011a1.007 1.007 0 0 1-.355-.065c-.589-.224-14.43-5.573-14.43-14.055V56.8a1 1 0 0 1 .716-.959l13.785-4.08a1 1 0 0 1 1.242.671 1 1 0 0 1-.675 1.243l-13.069 3.868v10.348c0 7.106 13.009 12.135 13.14 12.184a1 1 0 0 1 .58 1.291 1 1 0 0 1-.934.645z" style="fill:#0bb3f0" transform="translate(123)"/>
            <path data-name="Path 19286" d="M-47.958 82.011a1 1 0 0 1-.935-.645 1 1 0 0 1 .58-1.291c.131-.049 13.141-5.078 13.141-12.184V57.543l-13.07-3.868a1 1 0 0 1-.675-1.243 1 1 0 0 1 1.243-.675l13.785 4.08a1 1 0 0 1 .717.959v11.095c0 8.482-13.842 13.831-14.432 14.055a1 1 0 0 1-.354.065z" style="fill:#0bb3f0" transform="translate(123)"/>
        </g>
        <g data-name="Group 9528">
            <path data-name="Path 19287" d="M-98 53.011v14h-2.6v-11.82h-2.96v-2.18z" style="fill:#0bb3f0" transform="translate(123)"/>
        </g>
    </g>
</svg>
