<svg xmlns="http://www.w3.org/2000/svg" width="100" height="100" viewBox="0 0 100 100">
    <g data-name="Group 9539">
        <g data-name="Group 9538">
            <path data-name="Path 19307" d="M406 87.011a1 1 0 0 1-.355-.065c-.663-.252-16.347-6.28-25.669-16.367-4.45-4.815-6.706-9.78-6.706-14.758v-32.44a1 1 0 0 1 .716-.959l31.73-9.39a1 1 0 0 1 .568 0l31.73 9.39a1 1 0 0 1 .716.959v32.44a15.838 15.838 0 0 1-.2 2.562 1 1 0 0 1-1.974-.325 13.866 13.866 0 0 0 .177-2.237V24.128L406 15.033l-30.73 9.1v31.688c0 4.459 2.077 8.967 6.174 13.4C389.7 78.153 403.616 83.98 406 84.937l.723-.3c.178-.067.346-.138.524-.218.221-.092.42-.179.632-.273l.515-.225a98.487 98.487 0 0 0 4.592-2.192 79.69 79.69 0 0 0 2.766-1.472c.21-.12.432-.247.652-.363.24-.133.5-.288.764-.444.594-.342 1.188-.7 1.791-1.064A1 1 0 1 1 420 80.1c-.617.375-1.223.738-1.82 1.082-.267.158-.545.323-.824.478-.22.116-.419.23-.618.344a83.314 83.314 0 0 1-2.846 1.514 99.18 99.18 0 0 1-3.848 1.858c-.291.131-.577.259-.833.377l-.522.228c-.229.1-.444.2-.648.279s-.4.176-.582.243l-.958.4a1.041 1.041 0 0 1-.111.039 1.052 1.052 0 0 1-.39.069z" style="fill:#333536" transform="translate(-356)"/>
        </g>
        <path data-name="Path 19308" d="M406 87.011a1 1 0 0 1-.355-.065c-.663-.252-16.347-6.28-25.669-16.367a1 1 0 0 1-.11-1.215 30.984 30.984 0 0 1 41.11-10.5 1 1 0 0 1-.976 1.751 28.982 28.982 0 0 0-38.025 9.173C390.28 78.391 403.666 84 406 84.937l1.287-.535c.181-.075.38-.162.592-.256l.515-.225a98.487 98.487 0 0 0 4.592-2.192 79.69 79.69 0 0 0 2.766-1.472c.21-.12.432-.247.653-.363.239-.133.5-.288.763-.444.594-.342 1.188-.7 1.791-1.064A1 1 0 1 1 420 80.1c-.617.375-1.223.738-1.82 1.082-.267.158-.545.323-.824.478-.22.116-.419.23-.618.344a83.314 83.314 0 0 1-2.846 1.514 99.18 99.18 0 0 1-3.848 1.858c-.291.131-.577.259-.833.377l-.522.228c-.229.1-.444.2-.648.279l-1.54.64a1.041 1.041 0 0 1-.111.039 1.052 1.052 0 0 1-.39.072z" style="fill:#333536" transform="translate(-356)"/>
        <g data-name="Group 9539">
            <path data-name="Path 19309" d="M409.81 70.4a3.815 3.815 0 0 1 1.42 3.13 4.161 4.161 0 0 1-2.48 3.9 7 7 0 0 1-3.06.6 9.808 9.808 0 0 1-2.9-.43 7.128 7.128 0 0 1-2.36-1.19l1.1-2.02a5.906 5.906 0 0 0 1.87 1.01 6.938 6.938 0 0 0 2.25.37 3.647 3.647 0 0 0 2.17-.57 1.972 1.972 0 0 0-.06-3.2 5.639 5.639 0 0 0-2.91-.55h-3.38l.72-7.62h8.22v2.18h-6.02l-.3 3.24h1.34a6.9 6.9 0 0 1 4.38 1.15z" style="fill:#0bb3f0" transform="translate(-356)"/>
        </g>
        <path data-name="Path 19310" d="M425.974 77.07a1 1 0 0 1-.707-.293l-4.319-4.319a1 1 0 1 1 1.414-1.414l3.612 3.612 10.864-10.864a1 1 0 1 1 1.414 1.414l-11.571 11.571a1 1 0 0 1-.707.293z" style="fill:#0bb3f0" transform="translate(-356)"/>
        <path data-name="Path 19311" d="M430 85.011a15 15 0 1 1 15-15 15.017 15.017 0 0 1-15 15zm0-28a13 13 0 1 0 13 13 13.014 13.014 0 0 0-13-13z" style="fill:#0bb3f0" transform="translate(-356)"/>
        <path data-name="Path 19312" d="M406 52.011a14 14 0 1 1 14-14 14.016 14.016 0 0 1-14 14zm0-26a12 12 0 1 0 12 12 12.013 12.013 0 0 0-12-12z" style="fill:#333536" transform="translate(-356)"/>
    </g>
</svg>
