<svg data-name="Group 9541" xmlns="http://www.w3.org/2000/svg" width="100" height="100" viewBox="0 0 100 100">
    <path data-name="Path 19288" d="M70 87.011H30a13.015 13.015 0 0 1-13-13v-48a13.014 13.014 0 0 1 13-13h40a13.014 13.014 0 0 1 13 13v48a13.015 13.015 0 0 1-13 13zm-40-72a11.012 11.012 0 0 0-11 11v48a11.013 11.013 0 0 0 11 11h40a11.013 11.013 0 0 0 11-11v-48a11.012 11.012 0 0 0-11-11z" style="fill:#333536"/>
    <g data-name="Group 9530">
        <path data-name="Path 19289" d="M63.5 32.844a5.167 5.167 0 1 1 5.167-5.167 5.173 5.173 0 0 1-5.167 5.167zm0-8.333a3.167 3.167 0 1 0 3.167 3.166 3.17 3.17 0 0 0-3.167-3.166z" style="fill:#0bb3f0"/>
        <path data-name="Path 19290" d="M63.5 45.511a12.55 12.55 0 0 1-9.156-3.918 1 1 0 0 1-.2-1.086 10.177 10.177 0 0 1 18.7 0 1 1 0 0 1-.2 1.086 12.55 12.55 0 0 1-9.144 3.918zm-7.224-4.821a10.66 10.66 0 0 0 14.448 0 8.177 8.177 0 0 0-14.448 0z" style="fill:#0bb3f0"/>
    </g>
    <path data-name="Path 19291" d="M46 45.011H26a1 1 0 0 1 0-2h20a1 1 0 0 1 0 2z" style="fill:#0bb3f0"/>
    <path data-name="Path 19292" d="M72 55.011H26a1 1 0 0 1 0-2h46a1 1 0 0 1 0 2z" style="fill:#333536"/>
    <path data-name="Path 19293" d="M72 65.011H26a1 1 0 0 1 0-2h46a1 1 0 0 1 0 2z" style="fill:#333536"/>
    <path data-name="Path 19294" d="M72 75.011H26a1 1 0 0 1 0-2h46a1 1 0 0 1 0 2z" style="fill:#333536"/>
    <g data-name="Group 9531">
        <path data-name="Path 19295" d="M41.093 35.81v2.2h-10.32v-1.74l5.56-5.279a6.129 6.129 0 0 0 1.27-1.57 2.991 2.991 0 0 0 .33-1.33 1.8 1.8 0 0 0-.66-1.5 3.084 3.084 0 0 0-1.94-.52 3.912 3.912 0 0 0-3.28 1.46l-1.82-1.4a5.386 5.386 0 0 1 2.21-1.71 7.655 7.655 0 0 1 3.11-.611 5.7 5.7 0 0 1 3.64 1.08 3.555 3.555 0 0 1 1.36 2.94 4.876 4.876 0 0 1-.48 2.14 8.353 8.353 0 0 1-1.84 2.281l-3.74 3.559z" style="fill:#0bb3f0"/>
    </g>
</svg>
