<svg xmlns="http://www.w3.org/2000/svg" width="228.186" height="176.873" viewBox="0 0 228.186 176.873">
    <g data-name="Group 9646">
        <path data-name="Path 19331" d="M862.756 701.12h-34.633V571.753a22.168 22.168 0 0 0-22.143-22.143H677.534a22.168 22.168 0 0 0-22.143 22.144 3.219 3.219 0 0 0 3.219 3.219h34.631v37.813a31.582 31.582 0 0 1-9.563-8.18l-.021-.025c-.042-.051-.087-.1-.132-.151-.031-.033-.061-.068-.093-.1s-.075-.071-.114-.106-.09-.081-.136-.119l-.029-.025c-.024-.019-.049-.034-.073-.053-.053-.039-.106-.078-.16-.114-.038-.025-.077-.048-.115-.071s-.1-.061-.154-.088-.092-.046-.14-.068-.092-.043-.14-.062a4.771 4.771 0 0 0-.289-.102 2.863 2.863 0 0 0-.176-.047c-.042-.01-.083-.02-.125-.028a2.61 2.61 0 0 0-.177-.029l-.132-.017c-.056-.005-.112-.009-.168-.011s-.1 0-.147 0h-.153c-.053 0-.107.005-.161.011l-.14.017c-.057.008-.114.017-.17.028s-.087.019-.131.029-.113.028-.169.045-.09.029-.134.044-.1.037-.156.057-.1.042-.145.065-.09.042-.135.065-.106.058-.158.09-.076.045-.113.069a2.871 2.871 0 0 0-.159.113c-.025.018-.05.034-.075.053s-.019.018-.03.026c-.046.037-.09.077-.134.117s-.079.071-.116.108-.062.065-.092.1c-.046.049-.091.1-.133.151l-.021.025c-14.065 17.766-35.724 11.11-36.631 10.82a3.219 3.219 0 0 0-4.212 3.062V650.8c0 24.913 40.5 40.565 42.225 41.219.026.01.054.013.08.022a3.3 3.3 0 0 0 .372.1c.053.012.106.027.159.037a3.2 3.2 0 0 0 .532.048h.017a3.2 3.2 0 0 0 .512-.046c.055-.009.108-.025.163-.038a3.06 3.06 0 0 0 .366-.1c.027-.009.056-.012.083-.023a108.271 108.271 0 0 0 10.945-5.035v17.357a22.169 22.169 0 0 0 22.146 22.143H843.83a22.169 22.169 0 0 0 22.144-22.143 3.219 3.219 0 0 0-3.218-3.221zM677.534 556.047h.005a15.733 15.733 0 0 1 15.369 12.487h-30.746a15.732 15.732 0 0 1 15.372-12.487zM644.226 650.8v-28.264a47.8 47.8 0 0 0 11.169.652 38.061 38.061 0 0 0 25.76-11.7 37.31 37.31 0 0 0 13.931 9.223 3.193 3.193 0 0 0 .606.216 40.775 40.775 0 0 0 11.223 2.261 47.8 47.8 0 0 0 11.169-.652V650.8c0 11.783-12.471 21.609-23.139 27.858-.047.025-.091.053-.136.081a117.44 117.44 0 0 1-13.654 6.8c-6.339-2.632-36.929-16.285-36.929-34.739zm55.454 53.54v-21c11.648-7.118 24.843-18.32 24.843-32.539v-32.314a3.219 3.219 0 0 0-4.212-3.062 39.265 39.265 0 0 1-20.631.013v-43.685a22.072 22.072 0 0 0-6.552-15.706H805.98a15.723 15.723 0 0 1 15.705 15.706V701.12h-87.373a3.219 3.219 0 0 0-3.219 3.219 15.707 15.707 0 0 1-31.414 0zm144.15 15.704H730.98a22.1 22.1 0 0 0 6.314-12.487H859.2a15.732 15.732 0 0 1-15.37 12.487z" style="fill:#e5e6e6" transform="translate(-637.788 -549.609)"/>
        <path data-name="Path 19332" d="M921.958 676.631H898.05a3.219 3.219 0 0 0-3.219 3.219v23.909a3.219 3.219 0 0 0 3.219 3.219h23.908a3.219 3.219 0 0 0 3.219-3.219V679.85a3.219 3.219 0 0 0-3.219-3.219zm-3.219 23.908h-17.47v-17.47h17.471z" transform="translate(-756.934 -608.487)" style="fill:#e5e6e6"/>
        <path data-name="Path 19333" d="M872.662 600.334h37.528a3.219 3.219 0 1 0 0-6.438h-37.528a3.219 3.219 0 1 0 0 6.438z" transform="translate(-745.166 -570.137)" style="fill:#e5e6e6"/>
        <path data-name="Path 19334" d="M875.409 641.089a3.219 3.219 0 0 0-3.219-3.219h-81.508a3.219 3.219 0 1 0 0 6.438h81.508a3.219 3.219 0 0 0 3.219-3.219z" transform="translate(-707.166 -590.52)" style="fill:#e5e6e6"/>
        <path data-name="Path 19335" d="M841.378 698.914H814.93a3.219 3.219 0 1 0 0 6.438h26.449a3.219 3.219 0 1 0 0-6.438z" transform="translate(-718.406 -618.816)" style="fill:#e5e6e6"/>
        <path data-name="Path 19336" d="M921.958 752.382H898.05a3.219 3.219 0 0 0-3.219 3.219v23.908a3.219 3.219 0 0 0 3.219 3.219h23.908a3.219 3.219 0 0 0 3.219-3.219V755.6a3.219 3.219 0 0 0-3.219-3.218zm-3.219 23.908h-17.47v-17.47h17.471z" transform="translate(-756.934 -643.6)" style="fill:#e5e6e6"/>
        <path data-name="Path 19337" d="M841.378 774.665H814.93a3.219 3.219 0 1 0 0 6.438h26.449a3.219 3.219 0 0 0 0-6.438z" transform="translate(-718.406 -653.929)" style="fill:#e5e6e6"/>
        <path data-name="Path 19338" d="M720.652 710.54a3.219 3.219 0 0 0-4.551-4.552l-24.846 24.846-7.847-7.848a3.219 3.219 0 1 0-4.552 4.552l10.123 10.124a3.219 3.219 0 0 0 4.552 0z" transform="translate(-656.387 -621.658)" style="fill:#e5e6e6"/>
    </g>
</svg>
