<svg xmlns="http://www.w3.org/2000/svg" width="299.66785" height="287.48526" viewBox="0 0 299.66785 287.48526"><defs><style>.cls-1{fill:#b2b3b5;}.cls-2{fill:#a5a7a9;}.cls-3{fill:#e5e6e6;}.cls-4{fill:#f2f2f3;}.cls-5{fill:#cccdce;}.cls-6{fill:#bfc0c2;}</style></defs><g id="Layer_2" data-name="Layer 2"><g id="Layer_2-2" data-name="Layer 2"><polygon class="cls-1" points="137.513 30 77.513 60 57.513 180 112.037 222.262 177.513 240 257.513 180 237.513 60 137.513 30"/><polygon class="cls-2" points="237.513 70 177.513 50 177.513 240 230.212 217.976 257.513 180 237.513 70"/><polygon class="cls-3" points="137.502 0 57.502 60 57.502 180 84.93 141.929 137.502 120 208.363 140.431 257.502 180 257.502 60 137.502 0"/><polygon class="cls-4" points="137.502 120 84.502 141 57.502 180 57.502 60 137.502 0 137.502 120"/><polygon class="cls-2" points="137.502 120 80 123.858 0 183.858 57.502 180 137.502 120"/><polygon class="cls-5" points="177.513 240 215.724 285.197 295.724 225.197 257.513 180 177.513 240"/><polygon class="cls-6" points="177.513 240 141.347 287.485 21.347 227.485 57.502 180 177.513 240"/><polygon class="cls-6" points="299.668 179 257.502 180 137.502 120 179.657 119 299.668 179"/></g></g></svg>