<svg xmlns="http://www.w3.org/2000/svg" width="176" height="64" viewBox="0 0 176 64"><g transform="translate(-482 -430)"><g transform="translate(482 430)"><path d="M8,0H168a8,8,0,0,1,8,8V56a8,8,0,0,1-8,8H8a8,8,0,0,1-8-8V8A8,8,0,0,1,8,0Z" fill="#050506"/><path d="M650,431.258A6.749,6.749,0,0,1,656.742,438v48A6.749,6.749,0,0,1,650,492.742H490A6.749,6.749,0,0,1,483.258,486V438A6.749,6.749,0,0,1,490,431.258H650M650,430H490a8,8,0,0,0-8,8v48a8,8,0,0,0,8,8H650a8,8,0,0,0,8-8V438a8,8,0,0,0-8-8Z" transform="translate(-482 -430)" fill="#969494"/></g><g transform="translate(496.891 444.624)"><g transform="translate(0 0)"><path d="M541.555,495.922a7.467,7.467,0,0,1,3.556-6.265,7.642,7.642,0,0,0-6.022-3.256c-2.534-.266-4.99,1.516-6.281,1.516-1.316,0-3.3-1.49-5.445-1.446a8.02,8.02,0,0,0-6.749,4.116c-2.918,5.052-.741,12.478,2.054,16.561,1.4,2,3.033,4.234,5.172,4.154,2.093-.087,2.874-1.334,5.4-1.334,2.5,0,3.236,1.334,5.418,1.284,2.246-.036,3.66-2.008,5.01-4.027a16.535,16.535,0,0,0,2.291-4.666A7.215,7.215,0,0,1,541.555,495.922Z" transform="translate(-519.228 -478.449)" fill="#fff"/><path d="M557.359,471.827a7.35,7.35,0,0,0,1.682-5.267,7.478,7.478,0,0,0-4.84,2.5,7,7,0,0,0-1.726,5.072A6.186,6.186,0,0,0,557.359,471.827Z" transform="translate(-539.153 -466.56)" fill="#fff"/></g><g transform="translate(36.9 13.807)"><path d="M623.361,515.532h-7.142L614.5,520.6h-3.025l6.765-18.737h3.143l6.765,18.737h-3.077Zm-6.4-2.337h5.661l-2.791-8.219h-.078Z" transform="translate(-611.479 -501.547)" fill="#fff"/><path d="M670.383,521.166c0,4.245-2.272,6.972-5.7,6.972a4.632,4.632,0,0,1-4.3-2.39h-.065v6.766h-2.8v-18.18h2.714v2.272h.052a4.846,4.846,0,0,1,4.35-2.415C668.1,514.192,670.383,516.933,670.383,521.166Zm-2.882,0c0-2.766-1.429-4.584-3.61-4.584-2.142,0-3.584,1.857-3.584,4.584,0,2.752,1.441,4.6,3.584,4.6C666.072,525.762,667.5,523.957,667.5,521.166Z" transform="translate(-639.101 -508.946)" fill="#fff"/><path d="M707.972,521.166c0,4.245-2.272,6.972-5.7,6.972a4.631,4.631,0,0,1-4.3-2.39h-.065v6.766h-2.8v-18.18h2.714v2.272h.052a4.846,4.846,0,0,1,4.35-2.415C705.687,514.192,707.972,516.933,707.972,521.166Zm-2.882,0c0-2.766-1.429-4.584-3.61-4.584-2.142,0-3.584,1.857-3.584,4.584,0,2.752,1.441,4.6,3.584,4.6C703.661,525.762,705.09,523.957,705.09,521.166Z" transform="translate(-661.654 -508.946)" fill="#fff"/><path d="M747.812,514.907c.208,1.858,2.013,3.078,4.48,3.078,2.363,0,4.064-1.22,4.064-2.9,0-1.454-1.026-2.325-3.454-2.922l-2.428-.585c-3.441-.831-5.038-2.44-5.038-5.051,0-3.233,2.817-5.454,6.818-5.454,3.959,0,6.674,2.221,6.765,5.454h-2.831c-.169-1.87-1.715-3-3.974-3s-3.8,1.142-3.8,2.8c0,1.324.987,2.1,3.4,2.7l2.064.507c3.844.909,5.442,2.454,5.442,5.194,0,3.506-2.792,5.7-7.234,5.7-4.155,0-6.961-2.144-7.142-5.533Z" transform="translate(-691.557 -501.078)" fill="#fff"/><path d="M788.8,506.468V509.7h2.6v2.22h-2.6v7.531c0,1.17.52,1.715,1.662,1.715a8.816,8.816,0,0,0,.922-.065v2.207a7.706,7.706,0,0,1-1.557.13c-2.766,0-3.844-1.039-3.844-3.688v-7.83H784V509.7h1.986v-3.233Z" transform="translate(-714.992 -504.312)" fill="#fff"/><path d="M806.266,521.129c0-4.3,2.531-7,6.479-7s6.48,2.7,6.48,7-2.506,7-6.48,7S806.266,525.439,806.266,521.129Zm10.1,0c0-2.949-1.351-4.689-3.623-4.689s-3.622,1.754-3.622,4.689c0,2.96,1.35,4.687,3.622,4.687S816.368,524.089,816.368,521.129Z" transform="translate(-728.351 -508.909)" fill="#fff"/><path d="M844.444,514.335h2.674v2.325h.065a3.258,3.258,0,0,1,3.286-2.468,4.324,4.324,0,0,1,.961.1v2.623a3.926,3.926,0,0,0-1.26-.17,2.826,2.826,0,0,0-2.922,3.143V528h-2.8Z" transform="translate(-751.258 -508.946)" fill="#fff"/><path d="M875.746,523.946c-.377,2.48-2.792,4.182-5.882,4.182-3.974,0-6.441-2.663-6.441-6.934s2.48-7.064,6.323-7.064c3.78,0,6.156,2.6,6.156,6.738v.96h-9.649V522a3.558,3.558,0,0,0,3.675,3.87,3.091,3.091,0,0,0,3.155-1.922Zm-9.479-4.077h6.83a3.285,3.285,0,0,0-3.351-3.467A3.459,3.459,0,0,0,866.267,519.869Z" transform="translate(-762.645 -508.909)" fill="#fff"/></g></g><g transform="translate(535.668 444.196)"><g transform="translate(0 0)"><path d="M619.422,466.6c2.67,0,4.236,1.641,4.236,4.474,0,2.876-1.554,4.53-4.236,4.53H616.17v-9Zm-1.854,7.73h1.7c1.883,0,2.969-1.173,2.969-3.238,0-2.034-1.1-3.22-2.969-3.22h-1.7Z" transform="translate(-616.17 -466.156)" fill="#fff"/><path d="M638.84,475.32c0-2.19,1.223-3.526,3.206-3.526s3.2,1.335,3.2,3.526-1.217,3.531-3.2,3.531S638.84,477.522,638.84,475.32Zm5.029,0c0-1.473-.662-2.334-1.823-2.334s-1.821.862-1.821,2.334.656,2.339,1.821,2.339S643.869,476.8,643.869,475.32Z" transform="translate(-629.772 -469.273)" fill="#fff"/><path d="M664.831,478.916H663.44l-1.4-5h-.106l-1.4,5h-1.378l-1.873-6.794h1.36l1.217,5.184h.1l1.4-5.184h1.286l1.4,5.184h.106l1.211-5.184H666.7Z" transform="translate(-640.837 -469.47)" fill="#fff"/><path d="M684.758,471.925h1.291V473h.1a2.034,2.034,0,0,1,2.028-1.21,2.21,2.21,0,0,1,2.352,2.527v4.4h-1.341v-4.062c0-1.092-.474-1.635-1.466-1.635a1.558,1.558,0,0,0-1.622,1.722v3.975h-1.341Z" transform="translate(-657.323 -469.273)" fill="#fff"/><path d="M704.526,465.491h1.341v9.447h-1.341Z" transform="translate(-669.184 -465.491)" fill="#fff"/><path d="M712.538,475.32c0-2.19,1.223-3.526,3.206-3.526s3.2,1.335,3.2,3.526-1.218,3.531-3.2,3.531S712.538,477.522,712.538,475.32Zm5.029,0c0-1.473-.662-2.334-1.822-2.334s-1.822.862-1.822,2.334.656,2.339,1.822,2.339S717.567,476.8,717.567,475.32Z" transform="translate(-673.991 -469.273)" fill="#fff"/><path d="M732.089,476.8c0-1.223.911-1.928,2.527-2.028l1.84-.106v-.586c0-.718-.474-1.123-1.391-1.123-.748,0-1.267.275-1.416.755h-1.3c.137-1.167,1.235-1.916,2.776-1.916,1.7,0,2.664.848,2.664,2.283v4.642H736.5v-.955h-.106a2.286,2.286,0,0,1-2.041,1.067A2.052,2.052,0,0,1,732.089,476.8Zm4.368-.58v-.568l-1.659.106c-.936.062-1.36.381-1.36.98s.53.967,1.26.967A1.6,1.6,0,0,0,736.457,476.218Z" transform="translate(-685.721 -469.273)" fill="#fff"/><path d="M750.751,471.538c0-2.147,1.1-3.507,2.82-3.507a2.24,2.24,0,0,1,2.084,1.192h.1v-3.732H757.1v9.447h-1.285v-1.074H755.7a2.358,2.358,0,0,1-2.134,1.186C751.843,475.05,750.751,473.69,750.751,471.538Zm1.385,0c0,1.441.679,2.308,1.815,2.308s1.829-.88,1.829-2.3-.706-2.308-1.829-2.308S752.136,470.108,752.136,471.538Z" transform="translate(-696.919 -465.491)" fill="#fff"/><path d="M780.483,475.32c0-2.19,1.223-3.526,3.206-3.526s3.2,1.335,3.2,3.526-1.217,3.531-3.2,3.531S780.483,477.522,780.483,475.32Zm5.029,0c0-1.473-.662-2.334-1.823-2.334s-1.821.862-1.821,2.334.656,2.339,1.821,2.339S785.512,476.8,785.512,475.32Z" transform="translate(-714.758 -469.273)" fill="#fff"/><path d="M801,471.925h1.291V473h.1a2.034,2.034,0,0,1,2.028-1.21,2.21,2.21,0,0,1,2.352,2.527v4.4h-1.341v-4.062c0-1.092-.474-1.635-1.466-1.635a1.558,1.558,0,0,0-1.622,1.722v3.975H801Z" transform="translate(-727.069 -469.273)" fill="#fff"/><path d="M830.738,467.893v1.722h1.472v1.13h-1.472v3.494c0,.712.293,1.024.961,1.024a4.49,4.49,0,0,0,.511-.031v1.117a4.357,4.357,0,0,1-.729.069c-1.491,0-2.085-.525-2.085-1.835v-3.837h-1.078v-1.13H829.4v-1.722Z" transform="translate(-743.458 -466.932)" fill="#fff"/><path d="M842.628,465.491h1.329v3.744h.106a2.09,2.09,0,0,1,2.072-1.217,2.238,2.238,0,0,1,2.34,2.533v4.387h-1.342v-4.056c0-1.085-.505-1.635-1.453-1.635a1.587,1.587,0,0,0-1.711,1.722v3.968h-1.341Z" transform="translate(-752.045 -465.491)" fill="#fff"/><path d="M867.667,476.885a2.758,2.758,0,0,1-2.944,1.966c-1.946,0-3.138-1.335-3.138-3.507s1.217-3.55,3.132-3.55c1.891,0,3.031,1.292,3.031,3.425v.468h-4.8v.075a1.8,1.8,0,0,0,1.81,1.946,1.628,1.628,0,0,0,1.616-.824Zm-4.717-2.19h3.432a1.639,1.639,0,0,0-1.672-1.76A1.738,1.738,0,0,0,862.951,474.7Z" transform="translate(-763.419 -469.273)" fill="#fff"/></g></g></g></svg>
