<svg xmlns="http://www.w3.org/2000/svg" xmlns:xlink="http://www.w3.org/1999/xlink" width="176" height="64" viewBox="0 0 176 64"><defs><linearGradient id="a" x1="-0.074" y1="0.517" x2="1" y2="0.5" gradientUnits="objectBoundingBox"><stop offset="0" stop-color="#00a0ff"/><stop offset="1" stop-color="#00e3ff"/></linearGradient><linearGradient id="b" x1="-0.177" y1="0.5" x2="1.125" y2="0.5" gradientUnits="objectBoundingBox"><stop offset="0" stop-color="#ffe000"/><stop offset="1" stop-color="#ff9c00"/></linearGradient><linearGradient id="c" x1="1.027" y1="0.361" x2="0" y2="1.059" gradientUnits="objectBoundingBox"><stop offset="0" stop-color="#ff3a44"/><stop offset="1" stop-color="#c31162"/></linearGradient><linearGradient id="d" x1="-0.936" y1="-1.061" x2="0.856" y2="0.893" gradientUnits="objectBoundingBox"><stop offset="0" stop-color="#32a071"/><stop offset="1" stop-color="#00fe94"/></linearGradient></defs><g transform="translate(-969 -430)"><g transform="translate(969 430)"><path d="M8,0H168a8,8,0,0,1,8,8V56a8,8,0,0,1-8,8H8a8,8,0,0,1-8-8V8A8,8,0,0,1,8,0Z" fill="#050506"/><path d="M1137,431.258a6.749,6.749,0,0,1,6.742,6.742v48a6.749,6.749,0,0,1-6.742,6.742H977A6.749,6.749,0,0,1,970.258,486V438A6.749,6.749,0,0,1,977,431.258h160m0-1.258H977a8,8,0,0,0-8,8v48a8,8,0,0,0,8,8h160a8,8,0,0,0,8-8V438a8,8,0,0,0-8-8Z" transform="translate(-969 -430)" fill="#969494"/></g><g transform="translate(983.889 439.423)"><path d="M1006.922,455.1a3.419,3.419,0,0,0-.7,2.448V496.2a3.46,3.46,0,0,0,.874,2.448l.175.175,21.686-21.686v-.35Z" transform="translate(-1006.222 -454.484)" fill="url(#a)"/><path d="M1069.793,506.255l-7.17-7.17v-.524l7.17-7.17.175.175,8.569,4.9c2.448,1.4,2.448,3.672,0,5.072Z" transform="translate(-1040.063 -476.257)" fill="url(#b)"/><path d="M1037.177,517.1l-7.345-7.345-21.861,21.86c.874.875,2.1.875,3.673.175l25.533-14.69" transform="translate(-1007.271 -487.275)" fill="url(#c)"/><path d="M1037.177,468.754l-25.533-14.516c-1.574-.874-2.8-.7-3.673.175l21.861,21.686,7.345-7.345Z" transform="translate(-1007.271 -453.622)" fill="url(#d)"/><path d="M1037,527.679l-25.358,14.34a2.86,2.86,0,0,1-3.5,0l-.175.175.175.175a2.86,2.86,0,0,0,3.5,0Z" transform="translate(-1007.271 -498.031)" opacity="0.2" style="isolation:isolate"/><path d="M1006.922,531.264a3.419,3.419,0,0,1-.7-2.448v.175a3.46,3.46,0,0,0,.874,2.448v-.175Zm37.775-19.237-8.744,4.9.175.175,8.569-4.9a2.907,2.907,0,0,0,1.749-2.448C1046.446,510.627,1045.746,511.327,1044.7,512.027Z" transform="translate(-1006.222 -487.275)" opacity="0.12" style="isolation:isolate"/><path d="M1010.594,454.35l34.1,19.412c1.05.7,1.749,1.4,1.749,2.274a2.907,2.907,0,0,0-1.749-2.448l-34.1-19.412c-2.448-1.4-4.372-.35-4.372,2.448v.175C1006.222,454.175,1008.146,452.951,1010.594,454.35Z" transform="translate(-1006.222 -453.558)" fill="#fff" opacity="0.25" style="isolation:isolate"/></g><g transform="translate(1081.975 442.574)"><path d="M1255.772,471.6q.1.328.195.644t.174.636q.083.334.17.672t.16.668q.073.33.122.65a4.161,4.161,0,0,1,.049.626,3.9,3.9,0,0,1-.178,1.172,5.1,5.1,0,0,1-.494,1.1,6.42,6.42,0,0,1-.751,1.009,9.265,9.265,0,0,1-.946.9,10.313,10.313,0,0,1-1.078.783,12.1,12.1,0,0,1-1.151.644l-.605-1.224a11.36,11.36,0,0,0,1.419-.838,7.981,7.981,0,0,0,1.228-1.04,5.159,5.159,0,0,0,.866-1.2,2.816,2.816,0,0,0,.327-1.308,3.479,3.479,0,0,0-.045-.542c-.03-.19-.068-.385-.115-.584s-.1-.4-.153-.6-.109-.394-.16-.584q-.167-.585-.355-1.169Zm.445-2.852-1.134,1.134-1.141-1.141,1.134-1.134Z" transform="translate(-1251.438 -465.138)" fill="#fff"/><path d="M1270.523,461.434q.3,2.824.355,5.064.021,1.155.021,2.17,0,.612-.017,1.634t-.115,2.178l-1.37-.077q.111-1.558.146-2.852.014-.584.014-1.12,0-.647-.021-1.225-.139-3.374-.376-5.565Z" transform="translate(-1262.071 -461.434)" fill="#fff"/><path d="M1292.825,477.1a4.628,4.628,0,0,1-.79-.08,8.324,8.324,0,0,1-.908-.212,7.256,7.256,0,0,1-.828-.292,1.969,1.969,0,0,1-.55-.32l.57-1.308a4.207,4.207,0,0,0,.619.323,6.016,6.016,0,0,0,.772.272,5.948,5.948,0,0,0,.849.17,4,4,0,0,0,.522.035c.107,0,.253-.008.438-.024a2.244,2.244,0,0,0,.626-.164,1.435,1.435,0,0,0,.584-.424.576.576,0,0,0,.1-.376,2.024,2.024,0,0,0-.056-.431,3.634,3.634,0,0,0-.247-.713,5.94,5.94,0,0,0-.41-.745,7.48,7.48,0,0,0-.532-.723,8.318,8.318,0,0,0-.609-.658,5.93,5.93,0,0,0-.644-.542,3.628,3.628,0,0,0-.64-.376l.563-1.266a4.9,4.9,0,0,1,.824.487,7.983,7.983,0,0,1,.81.674,8.944,8.944,0,0,1,.755.811,9.2,9.2,0,0,1,.654.9,7.33,7.33,0,0,1,.508.932,5.037,5.037,0,0,1,.317.908,3.233,3.233,0,0,1,.08.7,2.63,2.63,0,0,1-.059.557,1.672,1.672,0,0,1-.153.424,1.869,1.869,0,0,1-.208.313,2.553,2.553,0,0,1-.588.525,3.476,3.476,0,0,1-.727.358,4.3,4.3,0,0,1-.811.2A5.7,5.7,0,0,1,1292.825,477.1Z" transform="translate(-1274.425 -466.119)" fill="#fff"/><path d="M1308.915,483.6a8.991,8.991,0,0,0,1.92-.6,6.88,6.88,0,0,0,1.454-.862,4.356,4.356,0,0,0,.957-1.019,2.66,2.66,0,0,0,.428-1.061h-.789q-.3,0-.686-.035a2.938,2.938,0,0,1-2.233-.988,1.963,1.963,0,0,1-.4-.932,3.238,3.238,0,0,1-.049-.557,4.866,4.866,0,0,1,.059-.671,3.944,3.944,0,0,1,.275-.925,3.868,3.868,0,0,1,.508-.894,2.608,2.608,0,0,1,.769-.665,1.771,1.771,0,0,1,.859-.226,2.45,2.45,0,0,1,1.816.891,4.4,4.4,0,0,1,.529.737,5.345,5.345,0,0,1,.4.88,6.646,6.646,0,0,1,.264.981,6.464,6.464,0,0,1,.111,1.04h.661v1.364H1315a5.26,5.26,0,0,1-.755,1.861,6.2,6.2,0,0,1-1.322,1.45,7.209,7.209,0,0,1-1.725,1.016,8.554,8.554,0,0,1-1.965.557Zm3.068-8.063a.578.578,0,0,0-.382.156,1.583,1.583,0,0,0-.324.4,2.732,2.732,0,0,0-.24.546,3.166,3.166,0,0,0-.132.595,2.416,2.416,0,0,0-.021.313,2.5,2.5,0,0,0,.024.31.654.654,0,0,0,.143.33.813.813,0,0,0,.261.226,1.611,1.611,0,0,0,.334.139,2.425,2.425,0,0,0,.348.076c.114.016.212.027.3.031q.348.022.654.021l.3,0c.146,0,.31-.01.491-.024a5.289,5.289,0,0,0-.1-.842,4.7,4.7,0,0,0-.216-.737,4.12,4.12,0,0,0-.3-.616,3.372,3.372,0,0,0-.337-.477c-.046-.046-.1-.1-.156-.15a1.47,1.47,0,0,0-.188-.146,1.088,1.088,0,0,0-.212-.108A.675.675,0,0,0,1311.983,475.534Z" transform="translate(-1285.924 -469.072)" fill="#fff"/><path d="M1325.349,471.419h.71c.139,0,.258-.011.355-.02a2.42,2.42,0,0,0,.247-.035.734.734,0,0,0,.167-.052.668.668,0,0,0,.122-.073.577.577,0,0,0,.171-.2,1.4,1.4,0,0,0,.108-.289,2.165,2.165,0,0,0,.059-.338c.012-.118.022-.238.031-.358q0-.014.007-.282c0-.178.009-.416.014-.713s.009-.641.014-1.033.009-.8.014-1.231.006-.866,0-1.311-.008-.872-.018-1.28-.022-.784-.038-1.127-.038-.628-.066-.855l1.357-.174q.049.355.08.876t.045,1.131q.014.608.017,1.273t0,1.312q0,.647-.01,1.242t-.014,1.061q-.007.466-.014.769c0,.2-.007.326-.007.372a2.494,2.494,0,0,0,.038.393,1.225,1.225,0,0,0,.177.456,1.057,1.057,0,0,0,.372.348,1.452,1.452,0,0,0,.7.146h.153v1.364h-.222a2.933,2.933,0,0,1-.578-.056,2.9,2.9,0,0,1-.518-.153,2.216,2.216,0,0,1-.431-.23,1.867,1.867,0,0,1-.323-.278,1.439,1.439,0,0,1-.407.368,2.161,2.161,0,0,1-.487.216,2.876,2.876,0,0,1-.5.1,4.182,4.182,0,0,1-.452.028h-.87Z" transform="translate(-1295.785 -461.799)" fill="#fff"/><path d="M1336.636,472.734h.807c.269,0,.517-.005.745-.017a2.623,2.623,0,0,0,.619-.1,1.459,1.459,0,0,0,.487-.247,1.247,1.247,0,0,0,.348-.456,1.352,1.352,0,0,0,.1-.369,2.214,2.214,0,0,0,.021-.313c0-.06,0-.152-.014-.275a3.5,3.5,0,0,0-.09-.508,4.53,4.53,0,0,0-.222-.678l-.605-1.489,1.238-.612s.021.052.063.143.1.212.164.365.14.33.219.532.153.416.223.643a7.767,7.767,0,0,1,.362,1.781c0,.075.007.149.007.223a2.77,2.77,0,0,1-.209,1.113,2.664,2.664,0,0,1-.511.786,2.382,2.382,0,0,1-.7.5,3.214,3.214,0,0,1-.887.264,6.865,6.865,0,0,1-1.061.077h-1.106Zm3.353-7.36-1.134,1.134-1.141-1.141,1.134-1.134Z" transform="translate(-1302.557 -463.113)" fill="#fff"/><path d="M1353.408,461.434q.3,2.824.355,5.064.021,1.155.021,2.17,0,.612-.017,1.634t-.115,2.178l-1.37-.077q.111-1.558.146-2.852.014-.584.014-1.12,0-.647-.021-1.225-.139-3.374-.375-5.565Z" transform="translate(-1311.802 -461.434)" fill="#fff"/><path d="M1363.606,477.1a4.632,4.632,0,0,1-.79-.08,8.322,8.322,0,0,1-.907-.212,7.232,7.232,0,0,1-.828-.292,1.971,1.971,0,0,1-.55-.32l.57-1.308a4.2,4.2,0,0,0,.619.323,6.021,6.021,0,0,0,1.621.442,4,4,0,0,0,.522.035c.106,0,.252-.008.438-.024a2.242,2.242,0,0,0,.626-.164,1.437,1.437,0,0,0,.584-.424.576.576,0,0,0,.1-.376,2.016,2.016,0,0,0-.056-.431,3.616,3.616,0,0,0-.247-.713,5.956,5.956,0,0,0-.41-.745,7.463,7.463,0,0,0-.532-.723,8.342,8.342,0,0,0-.609-.658,5.881,5.881,0,0,0-.643-.542,3.622,3.622,0,0,0-.64-.376l.563-1.266a4.9,4.9,0,0,1,.824.487,8,8,0,0,1,.81.674,8.945,8.945,0,0,1,.755.811,9.245,9.245,0,0,1,.654.9,7.394,7.394,0,0,1,.508.932,5.053,5.053,0,0,1,.316.908,3.2,3.2,0,0,1,.08.7,2.639,2.639,0,0,1-.059.557,1.7,1.7,0,0,1-.153.424,1.885,1.885,0,0,1-.209.313,2.548,2.548,0,0,1-.588.525,3.465,3.465,0,0,1-.727.358,4.3,4.3,0,0,1-.81.2A5.711,5.711,0,0,1,1363.606,477.1Z" transform="translate(-1316.894 -466.119)" fill="#fff"/></g><path d="M1163.4,519.325a4.893,4.893,0,0,0-5,5,4.965,4.965,0,0,0,5,5,4.893,4.893,0,0,0,5-5A4.825,4.825,0,0,0,1163.4,519.325Zm0,7.909a3.034,3.034,0,0,1,0-6.048,2.817,2.817,0,0,1,2.791,3.024A2.887,2.887,0,0,1,1163.4,527.234Zm-10.817-7.909a4.893,4.893,0,0,0-5,5,4.964,4.964,0,0,0,5,5,4.894,4.894,0,0,0,5-5A4.825,4.825,0,0,0,1152.587,519.325Zm0,7.909a3.034,3.034,0,0,1,0-6.048,2.818,2.818,0,0,1,2.792,3.024A2.887,2.887,0,0,1,1152.587,527.234Zm-12.911-6.4v2.094h5a4.4,4.4,0,0,1-1.163,2.675,5.147,5.147,0,0,1-3.838,1.512,5.415,5.415,0,0,1-5.466-5.583,5.487,5.487,0,0,1,5.466-5.583,5.768,5.768,0,0,1,3.838,1.512l1.512-1.512a7.452,7.452,0,0,0-5.234-2.094,7.677,7.677,0,1,0,0,15.353,6.694,6.694,0,0,0,5.35-2.21,7,7,0,0,0,1.861-4.885,4.356,4.356,0,0,0-.116-1.28Zm52.806,1.628a4.519,4.519,0,0,0-4.187-3.14,4.684,4.684,0,0,0-4.653,5,4.868,4.868,0,0,0,4.885,5,4.77,4.77,0,0,0,4.071-2.21l-1.628-1.163a2.834,2.834,0,0,1-2.442,1.4,2.523,2.523,0,0,1-2.442-1.512l6.63-2.792-.232-.582Zm-6.746,1.628a2.826,2.826,0,0,1,2.559-2.908,2.057,2.057,0,0,1,1.861,1.047l-4.42,1.861Zm-5.466,4.769h2.21V514.323h-2.21Zm-3.49-8.491a3.83,3.83,0,0,0-2.675-1.163,5,5,0,0,0-4.769,5,4.816,4.816,0,0,0,4.769,4.885,3.342,3.342,0,0,0,2.559-1.163h.116v.7c0,1.861-1.047,2.908-2.675,2.908a2.585,2.585,0,0,1-2.442-1.745l-1.861.814a4.8,4.8,0,0,0,4.42,2.908c2.559,0,4.652-1.512,4.652-5.118v-8.84h-2.094v.814Zm-2.559,6.862a3.034,3.034,0,0,1,0-6.048,3.047,3.047,0,0,1,0,6.048Zm28.38-12.911h-5.234v14.539h2.21V523.4h3.024a4.542,4.542,0,1,0,0-9.072Zm.116,6.979h-3.14v-5h3.14a2.555,2.555,0,0,1,2.559,2.442,2.661,2.661,0,0,1-2.559,2.559Zm13.376-2.094a3.91,3.91,0,0,0-3.839,2.21l1.978.814a2.054,2.054,0,0,1,1.977-1.047,2.185,2.185,0,0,1,2.326,1.861v.116a4.61,4.61,0,0,0-2.21-.582c-2.094,0-4.187,1.163-4.187,3.257a3.407,3.407,0,0,0,3.606,3.256,3.272,3.272,0,0,0,2.791-1.4h.116v1.163h2.094v-5.583a4.4,4.4,0,0,0-4.652-4.071Zm-.233,8.026c-.7,0-1.744-.349-1.744-1.28,0-1.163,1.279-1.512,2.326-1.512a4.5,4.5,0,0,1,1.978.465A2.709,2.709,0,0,1,1215.861,527.234Zm12.213-7.677-2.442,6.281h-.116l-2.559-6.281h-2.326l3.838,8.84-2.21,4.885h2.21l5.932-13.725Zm-19.54,9.305h2.21V514.323h-2.21Z" transform="translate(-97.8 -50.315)" fill="#fff"/></g></svg>
