<svg xmlns="http://www.w3.org/2000/svg" xmlns:xlink="http://www.w3.org/1999/xlink" width="176" height="64" viewBox="0 0 176 64"><defs><linearGradient id="a" x1="0.5" y1="0.022" x2="0.5" y2="0.983" gradientUnits="objectBoundingBox"><stop offset="0" stop-color="#8dd024"/><stop offset="1" stop-color="#2c9c53"/></linearGradient></defs><g transform="translate(0 -430)"><g transform="translate(0 430)"><path d="M8,0H168a8,8,0,0,1,8,8V56a8,8,0,0,1-8,8H8a8,8,0,0,1-8-8V8A8,8,0,0,1,8,0Z" fill="#050506"/><path d="M168,431.258A6.749,6.749,0,0,1,174.742,438v48A6.749,6.749,0,0,1,168,492.742H8A6.749,6.749,0,0,1,1.258,486V438A6.749,6.749,0,0,1,8,431.258H168M168,430H8a8,8,0,0,0-8,8v48a8,8,0,0,0,8,8H168a8,8,0,0,0,8-8V438a8,8,0,0,0-8-8Z" transform="translate(0 -430)" fill="#969494"/></g><path d="M45.122,474.5c-1.642,0-3.135.03-4.491.084h0c.074-.172.148-.343.224-.52.172-.4.336-.807.5-1.2a21.6,21.6,0,0,1,1.164-2.564,7.424,7.424,0,0,1,.689-1.024,2.655,2.655,0,0,1,1.92-1.1,2.657,2.657,0,0,1,1.92,1.1,7.509,7.509,0,0,1,.689,1.025,21.521,21.521,0,0,1,1.164,2.563c.158.391.323.8.5,1.2l.223.52C48.258,474.529,46.765,474.5,45.122,474.5Zm17.388,2.544,0,0a10.379,10.379,0,0,0-3.616-1.4c-.606-.144-1.3-.281-2.09-.408-1-.161-2.15-.306-3.486-.424l-.186-.016c-.271-.64-.55-1.294-.848-1.98-.158-.368-.308-.739-.467-1.133-.019-.047-.038-.094-.058-.141a16.014,16.014,0,0,0-2.266-4.246,5.341,5.341,0,0,0-8.736,0,16.033,16.033,0,0,0-2.266,4.242l-.059.145c-.159.394-.309.765-.468,1.133-.3.687-.576,1.341-.846,1.98l-.186.016c-1.338.119-2.494.263-3.492.424-.789.127-1.479.264-2.082.408a10.375,10.375,0,0,0-3.617,1.4l-.008.005a.654.654,0,0,0-.263.616l.175,1.3c.266,1.952.55,4.244,1.018,6.6a36.591,36.591,0,0,0,1.445,5.356c.249.686.525,1.362.834,2.018a15.829,15.829,0,0,0,28.467-.219c.239-.524.458-1.059.66-1.6a53.976,53.976,0,0,0,2.45-11.534l.255-1.934A.652.652,0,0,0,62.51,477.044Z" transform="translate(-16.478 -21.018)" fill="url(#a)"/><path d="M279.445,513.4a1.8,1.8,0,0,1-.63,1.46,2.906,2.906,0,0,1-1.907.53h-.877l.256,1.423,1.132.018a3.314,3.314,0,0,0,1.45-.274,3.154,3.154,0,0,0,1.1-.8,3.7,3.7,0,0,0,.694-1.2,4.451,4.451,0,0,0,.246-1.5v-4.088h-1.46V513.4" transform="translate(-165.619 -47.38)" fill="#fff"/><path d="M284.911,499.932a1.033,1.033,0,0,0-.766.31,1.013,1.013,0,0,0-.311.748,1.045,1.045,0,0,0,.311.758,1.021,1.021,0,0,0,.766.319,1.009,1.009,0,0,0,.749-.319,1.058,1.058,0,0,0,.31-.758,1.059,1.059,0,0,0-1.059-1.058" transform="translate(-170.3 -41.959)" fill="#fff"/><path d="M293.69,506.491h1.332V497.6H293.69v8.888" transform="translate(-176.214 -40.562)" fill="#fff"/><path d="M318.573,503.354a.9.9,0,0,0,.894-.895.9.9,0,0,0-.265-.657.846.846,0,0,0-.63-.274.9.9,0,0,0-.667.274.916.916,0,0,0-.264.657.864.864,0,0,0,.264.63.909.909,0,0,0,.667.265" transform="translate(-190.585 -42.917)" fill="#fff"/><path d="M324.76,503.354a.882.882,0,0,0,.648-.265.855.855,0,0,0,.264-.63.907.907,0,0,0-.264-.657.9.9,0,0,0-1.3,0,.912.912,0,0,0-.266.657.861.861,0,0,0,.266.63.879.879,0,0,0,.647.265" transform="translate(-194.308 -42.917)" fill="#fff"/><path d="M348.1,497.822a1.006,1.006,0,0,0,.748-.32,1.05,1.05,0,0,0,.31-.757,1.061,1.061,0,0,0-1.058-1.06,1.046,1.046,0,0,0-.766.312,1.017,1.017,0,0,0-.31.748,1.049,1.049,0,0,0,.31.757,1.031,1.031,0,0,0,.766.32" transform="translate(-208.216 -39.412)" fill="#fff"/><path d="M325.347,505.864a1.944,1.944,0,0,1-.594-.138.481.481,0,0,1-.3-.5.886.886,0,0,1,1.04-.95,1.065,1.065,0,0,1,.557.146,1.459,1.459,0,0,1,.42.375,1.781,1.781,0,0,1,.274.529,1.884,1.884,0,0,1,.1.592Zm2.182-2.09a2.492,2.492,0,0,0-.8-.666,2.27,2.27,0,0,0-1.095-.256,2.536,2.536,0,0,0-.958.173,2.2,2.2,0,0,0-.74.484,2.225,2.225,0,0,0-.484.731,2.352,2.352,0,0,0-.173.912,2.514,2.514,0,0,0,.42,1.5,1.633,1.633,0,0,0,1.351.619l1.788.055a.959.959,0,0,1-.174.629c-.127.178-.41.265-.848.265H321.88a1.688,1.688,0,0,1-.812-.2.789.789,0,0,1-.374-.766V505.3h-1.424v1.88a1.465,1.465,0,0,1-.164.784c-.11.171-.352.256-.731.256h-6.606a1.139,1.139,0,0,1-.792-.227,1.074,1.074,0,0,1-.248-.812V505.3h-1.386v2.1a2.5,2.5,0,0,0,.493,1.662,1.846,1.846,0,0,0,1.494.583h7.338A1.848,1.848,0,0,0,320,509.13a2,2,0,0,0,.867.41,4.961,4.961,0,0,0,1.012.1h4.161a1.871,1.871,0,0,0,.948-.228,1.939,1.939,0,0,0,.667-.621,2.822,2.822,0,0,0,.392-.9,4.47,4.47,0,0,0,.128-1.077v-1.039a3.512,3.512,0,0,0-.165-1.068,2.966,2.966,0,0,0-.483-.93" transform="translate(-185.605 -43.711)" fill="#fff"/><path d="M367.741,523.565a.883.883,0,0,0-.649.266.866.866,0,0,0-.264.628.921.921,0,0,0,.264.658.906.906,0,0,0,1.3,0,.921.921,0,0,0,.264-.658.866.866,0,0,0-.264-.628.883.883,0,0,0-.649-.266" transform="translate(-220.097 -56.139)" fill="#fff"/><path d="M367.559,504.028a2.872,2.872,0,0,1-.028.41.679.679,0,0,1-.136.33.76.76,0,0,1-.319.219,1.582,1.582,0,0,1-.557.082h-2.171a1.316,1.316,0,0,1-.776-.2c-.19-.133-.284-.432-.284-.894V497.6H361.9v6.607a2.2,2.2,0,0,0,.621,1.742,2.467,2.467,0,0,0,1.68.539h2.737a1.882,1.882,0,0,0,1.544-.612,2.5,2.5,0,0,0,.5-1.634v-2.1h-1.424v1.88" transform="translate(-217.14 -40.562)" fill="#fff"/><path d="M373.6,523.565a.9.9,0,0,0-.666.266.852.852,0,0,0-.266.628.906.906,0,0,0,.266.658.879.879,0,0,0,.666.274.848.848,0,0,0,.631-.274.916.916,0,0,0,.264-.658.9.9,0,0,0-.895-.894" transform="translate(-223.601 -56.139)" fill="#fff"/><path d="M383.038,513.4a1.8,1.8,0,0,1-.63,1.46,2.906,2.906,0,0,1-1.907.53h-.347l.237,1.423.622.018a3.576,3.576,0,0,0,1.449-.283,3.055,3.055,0,0,0,1.1-.794,3.687,3.687,0,0,0,.693-1.2,4.452,4.452,0,0,0,.247-1.5v-4.088h-1.46V513.4" transform="translate(-228.092 -47.38)" fill="#fff"/><path d="M401.972,507.169a2.494,2.494,0,0,0-.519-.785l-3.1-3.3-.93.949,3.12,3.3a.782.782,0,0,1,.24.53.474.474,0,0,1-.166.355.685.685,0,0,1-.493.156h-4.543l.182,1.405h4.327a2.06,2.06,0,0,0,1.54-.53,1.731,1.731,0,0,0,.521-1.259,2.119,2.119,0,0,0-.174-.82" transform="translate(-237.346 -43.849)" fill="#fff"/><path d="M183.128,493.093a2.751,2.751,0,0,1-2.751-2.751V476.587a2.751,2.751,0,1,1,5.5,0v13.756a2.751,2.751,0,0,1-2.751,2.751" transform="translate(-108.226 -26.301)" fill="#fff"/><path d="M148.739,504.1h-6.878a2.751,2.751,0,1,1,0-5.5h5.5v-8.254a2.751,2.751,0,0,1,5.5,0v9.628a4.132,4.132,0,0,1-4.127,4.128" transform="translate(-83.466 -34.556)" fill="#fff"/><path d="M189.993,517.855h-6.865a2.751,2.751,0,1,1,0-5.5h5.5V504.1a2.751,2.751,0,0,1,5.5,0v9.617a4.144,4.144,0,0,1-4.14,4.139" transform="translate(-108.226 -42.809)" fill="#fff"/><path d="M232.65,499.973h-6.843a4.168,4.168,0,0,1-4.161-4.164V483.466a2.751,2.751,0,1,1,5.5,0v11h5.5a2.751,2.751,0,0,1,0,5.5" transform="translate(-132.988 -30.429)" fill="#fff"/><path d="M206.515,483.466a2.751,2.751,0,1,1-2.752-2.751,2.751,2.751,0,0,1,2.752,2.751" transform="translate(-120.607 -30.429)" fill="#fff" fill-rule="evenodd"/><path d="M227.148,538.489a2.751,2.751,0,1,1-2.75-2.75,2.751,2.751,0,0,1,2.75,2.75" transform="translate(-132.988 -63.443)" fill="#fff" fill-rule="evenodd"/></g></svg>
