<svg xmlns="http://www.w3.org/2000/svg" width="176" height="64" viewBox="0 0 176 64"><g transform="translate(0 -430)"><g transform="translate(0 430)"><path d="M8,0H168a8,8,0,0,1,8,8V56a8,8,0,0,1-8,8H8a8,8,0,0,1-8-8V8A8,8,0,0,1,8,0Z" fill="#050506"/><path d="M168,431.258A6.749,6.749,0,0,1,174.742,438v48A6.749,6.749,0,0,1,168,492.742H8A6.749,6.749,0,0,1,1.258,486V438A6.749,6.749,0,0,1,8,431.258H168M168,430H8a8,8,0,0,0-8,8v48a8,8,0,0,0,8,8H168a8,8,0,0,0,8-8V438a8,8,0,0,0-8-8Z" transform="translate(0 -430)" fill="#969494"/></g><g transform="translate(113.775 454.876)"><path d="M288.772,502.358q.1.327.2.644t.174.636q.083.334.17.672t.16.667q.073.33.122.65a4.173,4.173,0,0,1,.049.626,3.9,3.9,0,0,1-.178,1.173,5.073,5.073,0,0,1-.494,1.1,6.389,6.389,0,0,1-.751,1.008,9.181,9.181,0,0,1-.946.9,10.364,10.364,0,0,1-1.078.783,12.1,12.1,0,0,1-1.151.643l-.605-1.224a11.36,11.36,0,0,0,1.419-.838,8,8,0,0,0,1.228-1.04,5.16,5.16,0,0,0,.866-1.2,2.814,2.814,0,0,0,.327-1.308,3.488,3.488,0,0,0-.045-.542q-.046-.286-.115-.584t-.153-.6q-.083-.3-.16-.584-.167-.585-.355-1.169Zm.446-2.852-1.134,1.134-1.141-1.142,1.134-1.134Z" transform="translate(-284.438 -495.895)" fill="#fff"/><path d="M303.523,492.191q.3,2.824.355,5.064.021,1.155.021,2.17,0,.613-.017,1.635t-.115,2.178l-1.37-.077q.111-1.558.146-2.852.014-.583.014-1.119c0-.432-.007-.84-.021-1.225q-.139-3.374-.376-5.565Z" transform="translate(-295.071 -492.191)" fill="#fff"/><path d="M325.825,507.854a4.63,4.63,0,0,1-.79-.08,8.344,8.344,0,0,1-.908-.212,7.369,7.369,0,0,1-.828-.292,1.969,1.969,0,0,1-.55-.32l.57-1.308a4.17,4.17,0,0,0,.619.323,5.993,5.993,0,0,0,1.621.442,3.994,3.994,0,0,0,.522.034q.16,0,.438-.024a2.243,2.243,0,0,0,.626-.163,1.448,1.448,0,0,0,.584-.424.575.575,0,0,0,.1-.376,2.024,2.024,0,0,0-.056-.431,3.681,3.681,0,0,0-.247-.714,6.044,6.044,0,0,0-.411-.744,7.456,7.456,0,0,0-.532-.723,8.4,8.4,0,0,0-.609-.657,5.934,5.934,0,0,0-.644-.543,3.625,3.625,0,0,0-.64-.376l.563-1.266a4.894,4.894,0,0,1,.824.487,7.881,7.881,0,0,1,.81.675,8.9,8.9,0,0,1,.755.81,9.162,9.162,0,0,1,.654.9,7.349,7.349,0,0,1,.508.932,5.059,5.059,0,0,1,.317.908,3.242,3.242,0,0,1,.08.7,2.643,2.643,0,0,1-.059.557,1.666,1.666,0,0,1-.153.424,1.865,1.865,0,0,1-.208.314,2.56,2.56,0,0,1-.588.525,3.469,3.469,0,0,1-.727.358,4.328,4.328,0,0,1-.811.2A5.761,5.761,0,0,1,325.825,507.854Z" transform="translate(-307.425 -496.876)" fill="#fff"/><path d="M341.915,514.355a8.969,8.969,0,0,0,1.92-.6,6.879,6.879,0,0,0,1.454-.862,4.354,4.354,0,0,0,.956-1.019,2.669,2.669,0,0,0,.428-1.061h-.79q-.3,0-.685-.035a2.937,2.937,0,0,1-2.233-.987,1.964,1.964,0,0,1-.4-.932,3.236,3.236,0,0,1-.049-.557,4.82,4.82,0,0,1,.059-.671,3.944,3.944,0,0,1,.275-.925,3.861,3.861,0,0,1,.508-.894,2.614,2.614,0,0,1,.769-.665,1.766,1.766,0,0,1,.859-.226,2.452,2.452,0,0,1,1.816.89,4.427,4.427,0,0,1,.528.737,5.37,5.37,0,0,1,.4.88,6.658,6.658,0,0,1,.264.981,6.462,6.462,0,0,1,.111,1.04h.661v1.364H348a5.265,5.265,0,0,1-.755,1.861,6.213,6.213,0,0,1-1.322,1.45,7.2,7.2,0,0,1-1.725,1.016,8.517,8.517,0,0,1-1.965.557Zm3.068-8.062a.579.579,0,0,0-.382.156,1.594,1.594,0,0,0-.324.4,2.737,2.737,0,0,0-.24.546,3.157,3.157,0,0,0-.132.6,2.136,2.136,0,0,0,0,.622.652.652,0,0,0,.143.33.814.814,0,0,0,.261.226,1.655,1.655,0,0,0,.334.139,2.553,2.553,0,0,0,.348.076c.114.016.212.027.3.031q.347.021.654.021l.3,0c.146,0,.31-.01.491-.024a5.285,5.285,0,0,0-.1-.842,4.7,4.7,0,0,0-.216-.738,4.054,4.054,0,0,0-.3-.616,3.341,3.341,0,0,0-.337-.476c-.046-.046-.1-.1-.156-.15a1.5,1.5,0,0,0-.188-.146,1.091,1.091,0,0,0-.212-.108A.684.684,0,0,0,344.983,506.292Z" transform="translate(-318.924 -499.83)" fill="#fff"/><path d="M358.35,502.176h.71c.139,0,.257-.011.354-.02a2.318,2.318,0,0,0,.247-.035.776.776,0,0,0,.167-.052.688.688,0,0,0,.122-.073.574.574,0,0,0,.17-.206,1.369,1.369,0,0,0,.108-.288,2.177,2.177,0,0,0,.059-.338q.017-.177.031-.359c0-.008,0-.1.007-.281s.009-.416.014-.713.009-.641.014-1.033.009-.8.014-1.231.006-.866,0-1.312-.008-.872-.018-1.28-.022-.784-.038-1.127-.038-.628-.066-.856l1.357-.174q.049.355.08.876t.046,1.13q.014.61.017,1.274t0,1.311q0,.647-.01,1.242t-.014,1.061q-.007.466-.014.769t-.007.372a2.488,2.488,0,0,0,.038.393,1.226,1.226,0,0,0,.177.456,1.065,1.065,0,0,0,.372.348,1.462,1.462,0,0,0,.7.145h.153v1.364h-.223a2.989,2.989,0,0,1-.577-.055,2.935,2.935,0,0,1-.518-.153,2.234,2.234,0,0,1-.431-.23,1.889,1.889,0,0,1-.324-.278,1.434,1.434,0,0,1-.407.369,2.215,2.215,0,0,1-.487.216,2.88,2.88,0,0,1-.5.1,4.083,4.083,0,0,1-.452.028h-.869Z" transform="translate(-328.785 -492.556)" fill="#fff"/><path d="M369.636,503.491h.807c.269,0,.517-.005.744-.017a2.623,2.623,0,0,0,.619-.1,1.442,1.442,0,0,0,.487-.247,1.243,1.243,0,0,0,.348-.456,1.348,1.348,0,0,0,.1-.368,2.215,2.215,0,0,0,.021-.314q0-.09-.014-.275a3.471,3.471,0,0,0-.09-.508,4.525,4.525,0,0,0-.222-.678l-.605-1.488,1.238-.612s.021.052.062.143.1.212.163.365.14.33.219.532.153.416.223.644a7.767,7.767,0,0,1,.362,1.78c0,.075.007.149.007.223a2.768,2.768,0,0,1-.209,1.113,2.667,2.667,0,0,1-.511.786,2.391,2.391,0,0,1-.7.5,3.2,3.2,0,0,1-.887.265,6.916,6.916,0,0,1-1.061.076h-1.106Zm3.353-7.359-1.134,1.134-1.141-1.141,1.134-1.134Z" transform="translate(-335.557 -493.87)" fill="#fff"/><path d="M386.408,492.191q.3,2.824.355,5.064.021,1.155.021,2.17,0,.613-.018,1.635t-.115,2.178l-1.37-.077q.111-1.558.146-2.852.014-.583.014-1.119c0-.432-.007-.84-.021-1.225q-.139-3.374-.376-5.565Z" transform="translate(-344.802 -492.191)" fill="#fff"/><path d="M396.606,507.854a4.634,4.634,0,0,1-.79-.08,8.315,8.315,0,0,1-.908-.212,7.373,7.373,0,0,1-.828-.292,1.969,1.969,0,0,1-.55-.32l.57-1.308a4.168,4.168,0,0,0,.619.323,6,6,0,0,0,1.621.442,4,4,0,0,0,.522.034q.16,0,.438-.024a2.24,2.24,0,0,0,.626-.163,1.448,1.448,0,0,0,.584-.424.575.575,0,0,0,.1-.376,2.022,2.022,0,0,0-.056-.431,3.655,3.655,0,0,0-.247-.714,5.941,5.941,0,0,0-.411-.744,7.391,7.391,0,0,0-.532-.723,8.341,8.341,0,0,0-.609-.657,5.934,5.934,0,0,0-.643-.543,3.627,3.627,0,0,0-.64-.376l.564-1.266a4.907,4.907,0,0,1,.824.487,7.881,7.881,0,0,1,.81.675,8.9,8.9,0,0,1,.755.81,9.162,9.162,0,0,1,.654.9,7.353,7.353,0,0,1,.508.932,5.087,5.087,0,0,1,.316.908,3.216,3.216,0,0,1,.08.7,2.645,2.645,0,0,1-.059.557,1.668,1.668,0,0,1-.153.424,1.865,1.865,0,0,1-.208.314,2.56,2.56,0,0,1-.588.525,3.46,3.46,0,0,1-.727.358,4.333,4.333,0,0,1-.81.2A5.771,5.771,0,0,1,396.606,507.854Z" transform="translate(-349.894 -496.876)" fill="#fff"/></g><g transform="translate(54.4 450.823)"><path d="M252.881,488.6a1.8,1.8,0,0,0,.546.372,1.713,1.713,0,0,0,1.351,0,1.791,1.791,0,0,0,.546-.372,1.672,1.672,0,0,0,.364-.546,1.691,1.691,0,0,0,.13-.658,1.715,1.715,0,1,0-3.429,0,1.7,1.7,0,0,0,.493,1.2Z" transform="translate(-205.833 -484.223)" fill="#fff"/><path d="M266.363,486.152a1.715,1.715,0,0,0-2.935,1.247,1.7,1.7,0,0,0,.13.658,1.68,1.68,0,0,0,.364.546,1.789,1.789,0,0,0,.545.372,1.713,1.713,0,0,0,1.351,0,1.791,1.791,0,0,0,.546-.372,1.672,1.672,0,0,0,.364-.546,1.691,1.691,0,0,0,.13-.658A1.673,1.673,0,0,0,266.363,486.152Z" transform="translate(-212.457 -484.223)" fill="#fff"/><path d="M179.044,529.326a1.674,1.674,0,0,0-1.714,1.732,1.691,1.691,0,0,0,.13.658,1.672,1.672,0,0,0,.364.546,1.791,1.791,0,0,0,.546.372,1.712,1.712,0,0,0,1.351,0,1.789,1.789,0,0,0,.545-.372,1.68,1.68,0,0,0,.364-.546,1.7,1.7,0,0,0,.13-.658,1.674,1.674,0,0,0-1.714-1.732Z" transform="translate(-160.798 -510.419)" fill="#fff"/><path d="M190.084,529.326a1.724,1.724,0,0,0-1.221,2.936,1.791,1.791,0,0,0,.546.372,1.712,1.712,0,0,0,1.351,0,1.8,1.8,0,0,0,.546-.372,1.711,1.711,0,0,0-1.221-2.936Z" transform="translate(-167.422 -510.419)" fill="#fff"/><path d="M239.405,529.326a1.674,1.674,0,0,0-1.714,1.732,1.7,1.7,0,0,0,.13.658,1.679,1.679,0,0,0,.364.546,1.791,1.791,0,0,0,.546.372,1.712,1.712,0,0,0,1.351,0,1.8,1.8,0,0,0,.546-.372,1.711,1.711,0,0,0-1.221-2.936Z" transform="translate(-197.015 -510.419)" fill="#fff"/><path d="M227.885,506.279a.85.85,0,0,1-.848.848h-6.592v-8.01h-2.66v8.01h-4.475c-.511-5.158-4.032-6.935-7.483-7.976l-.768,2.547c3.644,1.1,5.235,2.588,5.58,5.429h-7.205v2.66h23.6a3.513,3.513,0,0,0,3.508-3.509v-7.161h-2.66Z" transform="translate(-176.46 -492.294)" fill="#fff"/><path d="M158.353,496.043a.85.85,0,0,1-.849.848h-5.662c.012-.176.018-.352.018-.531v-14.3H149.2v14.3a5.27,5.27,0,1,1-10.539,0H136a7.93,7.93,0,0,0,15.189,3.191H157.5a3.513,3.513,0,0,0,3.509-3.509v-7.161h-2.66Z" transform="translate(-136 -482.058)" fill="#fff"/></g><path d="M33.941,490.9h3.4v8.488H64.5V490.9h3.4v8.488a3.384,3.384,0,0,1-3.4,3.4H37.336a3.394,3.394,0,0,1-3.4-3.4V490.9m16.976,5.093,9.422-9.269-2.41-2.394-5.314,5.3v-15.7h-3.4v15.7l-5.3-5.3-2.411,2.411Z" transform="translate(-20.365 -26.355)" fill="#f0b90b"/></g></svg>
