<svg xmlns="http://www.w3.org/2000/svg" width="56.381" height="56.751" viewBox="0 0 56.381 56.751"><g transform="translate(-20.002 -1410.002)"><path d="M56.75,1466.925a39.845,39.845,0,0,1-8.557,2.374c-17.083-2.85-26.114-13.878-26.114-31.9v-7.354h0v-6.96c.757.17,1.8.381,3.038.568a1.038,1.038,0,1,0,.312-2.053,38.043,38.043,0,0,1-4.105-.84,1.038,1.038,0,0,0-1.32,1v8.287h0v7.354c0,7.061,1.278,12.962,3.908,18.041,4.5,8.7,12.617,14.059,24.115,15.937a1.071,1.071,0,0,0,.17.014,1.027,1.027,0,0,0,.166-.014,42.055,42.055,0,0,0,9.181-2.53,1.038,1.038,0,0,0,.568-1.355h0a1.039,1.039,0,0,0-1.356-.566Z" transform="translate(0 -4.635)" fill="#55585a"/><path d="M83.512,1416.3a1.041,1.041,0,0,0-.908-.17c-.086.025-8.726,2.418-15.318.591a25.163,25.163,0,0,1-10.783-6.375,1.039,1.039,0,0,0-.768-.341h0a1.041,1.041,0,0,0-.768.341,25.14,25.14,0,0,1-10.783,6.376,21.558,21.558,0,0,1-5.7.689,1.039,1.039,0,0,0,0,2.077h0a23.6,23.6,0,0,0,6.254-.764,27.2,27.2,0,0,0,11-6.213,27.2,27.2,0,0,0,11,6.213c5.619,1.557,12.316.368,15.116-.265v14.312c0,12.471-4.257,21.548-12.649,26.978a1.039,1.039,0,0,0,.565,1.91,1.023,1.023,0,0,0,.563-.167,28.312,28.312,0,0,0,11.668-15.42,43.091,43.091,0,0,0,1.93-13.3v-15.64A1.039,1.039,0,0,0,83.512,1416.3Z" transform="translate(-7.543 0)" fill="#55585a"/><path d="M71.769,1453.8a30.444,30.444,0,0,0,3.1-11.124,1.039,1.039,0,0,0-.933-1.135h0a1.036,1.036,0,0,0-1.135.928v.006a28.379,28.379,0,0,1-2.877,10.366,20.183,20.183,0,0,1-6.129,7.147,28.234,28.234,0,0,1-11.392,4.588,28.251,28.251,0,0,1-11.391-4.588,20.18,20.18,0,0,1-6.13-7.147c-3.055-5.9-3.055-12.4-3.055-14.539v-7.881c1.135.092,2.241.139,3.3.139h0a29.184,29.184,0,0,0,7.751-.965,31.8,31.8,0,0,0,9.518-4.476,31.823,31.823,0,0,0,9.519,4.477,29.177,29.177,0,0,0,7.751.965c1.064,0,2.17-.047,3.3-.139v6.148a1.039,1.039,0,1,0,2.077,0h0v-7.288a1.038,1.038,0,0,0-1.148-1.033,40.034,40.034,0,0,1-4.233.234,27.1,27.1,0,0,1-7.2-.889A29.88,29.88,0,0,1,53.005,1423a1.039,1.039,0,0,0-1.212,0,29.88,29.88,0,0,1-9.467,4.587,27.053,27.053,0,0,1-7.2.889,40,40,0,0,1-4.232-.234,1.039,1.039,0,0,0-1.149,1.033v9.024c0,2.262,0,9.145,3.287,15.494a22.26,22.26,0,0,0,6.754,7.875,30.423,30.423,0,0,0,12.421,4.983,1.029,1.029,0,0,0,.377,0,30.436,30.436,0,0,0,12.421-4.983A22.264,22.264,0,0,0,71.769,1453.8Z" transform="translate(-4.215 -5.537)" fill="#55585a"/><path d="M67.483,1460.961a2.974,2.974,0,0,0-1.039,5.762v1.339a1.039,1.039,0,0,0,2.078,0h0v-1.339a2.974,2.974,0,0,0-1.039-5.762Zm0,2.077a.9.9,0,1,1-.9.9.9.9,0,0,1,.9-.9Z" transform="translate(-19.246 -22.038)" fill="#f0b90b"/><path d="M62.96,1437.187a5.4,5.4,0,0,0-5.392,5.392v3.734H55.194a1.038,1.038,0,0,0-1.039,1.037h0v8.4a7.249,7.249,0,0,0,2.169,5.335,9.4,9.4,0,0,0,6.632,2.25h.093a9.4,9.4,0,0,0,6.632-2.25,7.247,7.247,0,0,0,2.169-5.335v-8.4a1.038,1.038,0,0,0-1.037-1.039H68.347v-3.734A5.4,5.4,0,0,0,62.96,1437.187Zm-3.312,5.392a3.312,3.312,0,0,1,6.624,0v3.734H59.648Zm10.128,13.167c0,3.45-2.513,5.506-6.724,5.506h-.093c-4.211,0-6.724-2.058-6.724-5.506v-7.358H69.776Z" transform="translate(-14.769 -11.756)" fill="#f0b90b"/></g></svg>
