<svg xmlns="http://www.w3.org/2000/svg" width="68.58" height="42" viewBox="0 0 68.58 42"><g transform="translate(75.29 -151)"><path d="M-23.538,193H-58.462a4.825,4.825,0,0,1-4.82-4.82V168.035a4.825,4.825,0,0,1,4.82-4.82h34.924a4.825,4.825,0,0,1,4.82,4.82V188.18A4.825,4.825,0,0,1-23.538,193Zm-34.924-27.785a2.823,2.823,0,0,0-2.82,2.82V188.18a2.824,2.824,0,0,0,2.82,2.82h34.924a2.824,2.824,0,0,0,2.82-2.82V168.035a2.823,2.823,0,0,0-2.82-2.82Z" fill="#f0b90b"/><path d="M-14.844,183.238H-15.97a1,1,0,0,1-1-1V167.97a1,1,0,0,1,1-1h1.126A8.142,8.142,0,0,1-6.71,175.1,8.143,8.143,0,0,1-14.844,183.238Zm-.126-2h.126A6.141,6.141,0,0,0-8.71,175.1a6.141,6.141,0,0,0-6.134-6.134h-.126Z" fill="#55585a"/><path d="M-66.03,183.238h-1.126A8.143,8.143,0,0,1-75.29,175.1a8.142,8.142,0,0,1,8.134-8.134h1.126a1,1,0,0,1,1,1v14.268A1,1,0,0,1-66.03,183.238Zm-1.126-14.268A6.141,6.141,0,0,0-73.29,175.1a6.141,6.141,0,0,0,6.134,6.134h.126V168.97Z" fill="#55585a"/><path d="M-27.985,190h-3a3.256,3.256,0,0,1-3.253-3.253,3.256,3.256,0,0,1,3.253-3.253h3a3.256,3.256,0,0,1,3.253,3.253A3.256,3.256,0,0,1-27.985,190Zm-3-4.506a1.255,1.255,0,0,0-1.253,1.253A1.254,1.254,0,0,0-30.988,188h3a1.255,1.255,0,0,0,1.253-1.253,1.256,1.256,0,0,0-1.253-1.253Z" fill="#55585a"/><path d="M-18.313,187.743h-7.419a1,1,0,0,1-1-1,1,1,0,0,1,1-1h7.419a3.6,3.6,0,0,0,3.6-3.6,1,1,0,0,1,1-1,1,1,0,0,1,1,1A5.6,5.6,0,0,1-18.313,187.743Z" fill="#55585a"/><path d="M-15.97,168.97a1,1,0,0,1-1-1v-1.5C-16.97,159.775-25.224,153-41,153s-24.03,6.775-24.03,13.468v1.5a1,1,0,0,1-1,1,1,1,0,0,1-1-1v-1.5C-67.03,159.018-58.885,151-41,151s26.03,8.018,26.03,15.468v1.5A1,1,0,0,1-15.97,168.97Z" fill="#55585a"/><path d="M-53.015,177.23a4.759,4.759,0,0,1-4.755-4.754,4.76,4.76,0,0,1,4.755-4.755,4.76,4.76,0,0,1,4.754,4.755A4.759,4.759,0,0,1-53.015,177.23Zm0-7.509a2.758,2.758,0,0,0-2.755,2.755,2.757,2.757,0,0,0,2.755,2.754,2.757,2.757,0,0,0,2.754-2.754A2.757,2.757,0,0,0-53.015,169.721Z" fill="#f0b90b"/><path d="M-42.5,177.23a4.759,4.759,0,0,1-4.755-4.754,4.76,4.76,0,0,1,4.755-4.755,4.76,4.76,0,0,1,4.755,4.755A4.759,4.759,0,0,1-42.5,177.23Zm0-7.509a2.758,2.758,0,0,0-2.755,2.755A2.757,2.757,0,0,0-42.5,175.23a2.757,2.757,0,0,0,2.755-2.754A2.757,2.757,0,0,0-42.5,169.721Z" fill="#f0b90b"/><path d="M-47.6,187.084a16.042,16.042,0,0,1-1.77-.1c-7.31-.812-9.028-5.724-9.1-5.933a1,1,0,0,1,.632-1.265,1,1,0,0,1,1.263.626c.061.174,1.455,3.921,7.424,4.584,6.589.725,13.965-3.231,23.212-12.478a1,1,0,0,1,1.415,0,1,1,0,0,1,0,1.414C-33.448,182.858-40.84,187.084-47.6,187.084Z" fill="#f0b90b"/></g></svg>
