<svg xmlns="http://www.w3.org/2000/svg" width="32" height="60.5" viewBox="0 0 32 60.5"><g transform="translate(-116 -19.75)"><path d="M140.932,80.25H123.068A7.076,7.076,0,0,1,116,73.182V26.818a7.076,7.076,0,0,1,7.068-7.068h17.864A7.076,7.076,0,0,1,148,26.818V73.182A7.076,7.076,0,0,1,140.932,80.25Zm-17.864-58.5A5.073,5.073,0,0,0,118,26.818V73.182a5.073,5.073,0,0,0,5.068,5.068h17.864A5.073,5.073,0,0,0,146,73.182V26.818a5.073,5.073,0,0,0-5.068-5.068Z" fill="#55585a"/><path d="M127.5,59.25a1,1,0,0,1-.707-.293l-5.625-5.625a1,1,0,0,1,1.414-1.414l4.918,4.918,13.168-13.168a1,1,0,0,1,1.414,1.414L128.207,58.957A1,1,0,0,1,127.5,59.25Z" fill="#f0b90b"/><path d="M135.75,24.75h-7.5a1,1,0,0,1,0-2h7.5a1,1,0,0,1,0,2Z" fill="#55585a"/><path d="M135.75,77.25h-7.5a1,1,0,0,1,0-2h7.5a1,1,0,0,1,0,2Z" fill="#55585a"/><circle cx="1" cy="1" r="1" transform="translate(139.25 22.75)" fill="#55585a"/></g></svg>
