<svg xmlns="http://www.w3.org/2000/svg" width="58" height="54.382" viewBox="0 0 58 54.382"><g transform="translate(-107 -22.809)"><path d="M157.126,28.231h-46.5a1,1,0,1,1,0-2h46.5a1,1,0,0,1,0,2Z" fill="#f0b90b"/><path d="M161.766,74.058H114.874a1,1,0,0,1,0-2h46.892a1,1,0,0,1,0,2Z" fill="#55585a"/><path d="M112.554,43.791a1,1,0,0,1-.707-.293l-4.554-4.554A1,1,0,0,1,108,37.237h1.622V31.151a1,1,0,0,1,1-1h3.864a1,1,0,0,1,1,1v6.086h1.622a1,1,0,0,1,.707,1.707L113.261,43.5A1,1,0,0,1,112.554,43.791Zm-2.14-4.554,2.14,2.14,2.139-2.14h-.207a1,1,0,0,1-1-1V32.151h-1.864v6.086a1,1,0,0,1-1,1Z" fill="#f0b90b"/><path d="M161.378,70.6h-3.864a1,1,0,0,1-1-1V63.513h-1.622a1,1,0,0,1-.707-1.707l4.554-4.555a1,1,0,0,1,.707-.293h0a1,1,0,0,1,.707.293l4.554,4.555A1,1,0,0,1,164,63.513h-1.622V69.6A1,1,0,0,1,161.378,70.6Zm-2.864-2h1.864V62.513a1,1,0,0,1,1-1h.208l-2.14-2.141-2.14,2.141h.208a1,1,0,0,1,1,1Z" fill="#55585a"/><path d="M114.874,77.191h-4.64a1,1,0,0,1-1-1v-14.6a1,1,0,0,1,1-1h4.64a1,1,0,0,1,1,1v14.6A1,1,0,0,1,114.874,77.191Zm-3.64-2h2.64v-12.6h-2.64Z" fill="#55585a"/><path d="M124.253,65.1h-4.641a1,1,0,0,1-1-1V49.5a1,1,0,0,1,1-1h4.641a1,1,0,0,1,1,1V64.1A1,1,0,0,1,124.253,65.1Zm-3.641-2h2.641V50.5h-2.641Z" fill="#55585a"/><path d="M143.009,61.9h-4.64a1,1,0,0,1-1-1V37.256a1,1,0,0,1,1-1h4.64a1,1,0,0,1,1,1V60.9A1,1,0,0,1,143.009,61.9Zm-3.64-2h2.64V38.256h-2.64Z" fill="#f0b90b"/><path d="M152.388,61.9h-4.641a1,1,0,0,1-1-1V47.086a1,1,0,0,1,1-1h4.641a1,1,0,0,1,1,1V60.9A1,1,0,0,1,152.388,61.9Zm-3.641-2h2.641V48.086h-2.641Z" fill="#55585a"/><path d="M161.766,49.875h-4.64a1,1,0,0,1-1-1V23.809a1,1,0,0,1,1-1h4.64a1,1,0,0,1,1,1V48.875A1,1,0,0,1,161.766,49.875Zm-3.64-2h2.64V24.809h-2.64Z" fill="#55585a"/><path d="M133.631,52.859h-4.64a1,1,0,0,1-1-1v-14.6a1,1,0,0,1,1-1h4.64a1,1,0,0,1,1,1v14.6A1,1,0,0,1,133.631,52.859Zm-3.64-2h2.64v-12.6h-2.64Z" fill="#55585a"/></g></svg>
