<svg xmlns="http://www.w3.org/2000/svg" width="230" height="230" viewBox="0 0 230 230"><g transform="translate(-1249 -3558)"><rect width="230" height="230" transform="translate(1249 3558)" fill="rgba(255,255,255,0)"/><g transform="translate(-2459.299 3226.492)"><path d="M3823.468,531.113a3.723,3.723,0,0,1-3.723-3.723V468.3a3.723,3.723,0,0,1,7.447,0V527.39A3.723,3.723,0,0,1,3823.468,531.113Z" fill="#55585a"/><path d="M3773.842,555a3.726,3.726,0,0,1-3.469-5.076l32.316-82.976a3.724,3.724,0,0,1,6.94,2.7l-32.316,82.976A3.726,3.726,0,0,1,3773.842,555Z" fill="#55585a"/><path d="M3873.095,555a3.726,3.726,0,0,1-3.471-2.373l-32.316-82.976a3.724,3.724,0,0,1,6.94-2.7l32.316,82.976a3.726,3.726,0,0,1-3.469,5.076Z" fill="#55585a"/><path d="M3823.468,363.154a3.724,3.724,0,0,1-3.723-3.724V341.737a3.723,3.723,0,1,1,7.447,0V359.43A3.724,3.724,0,0,1,3823.468,363.154Z" fill="#55585a"/><circle cx="4.062" cy="4.062" r="4.062" transform="translate(3736.67 428.631)" fill="#55585a"/><path d="M3906.205,472.023H3740.732a3.723,3.723,0,0,1-3.723-3.724v-17.36a3.724,3.724,0,1,1,7.447,0v13.637h158.025V363.154H3744.456v51.293a3.724,3.724,0,1,1-7.447,0V359.43a3.723,3.723,0,0,1,3.723-3.724h165.473a3.723,3.723,0,0,1,3.723,3.724V468.3A3.723,3.723,0,0,1,3906.205,472.023Z" fill="#55585a"/><path d="M3817.211,432.118h-56.532a3.724,3.724,0,0,1-3.723-3.724V381a3.724,3.724,0,0,1,3.723-3.724h56.532a3.724,3.724,0,0,1,3.724,3.724v47.392A3.724,3.724,0,0,1,3817.211,432.118ZM3764.4,424.67h49.084V384.726H3764.4Z" fill="#f0b90b"/><path d="M3885.929,384.726h-25.388a3.724,3.724,0,1,1,0-7.448h25.388a3.724,3.724,0,1,1,0,7.448Z" fill="#f0b90b"/><path d="M3885.929,408.422h-45.022a3.724,3.724,0,0,1,0-7.448h45.022a3.724,3.724,0,1,1,0,7.448Z" fill="#f0b90b"/><path d="M3885.929,432.118h-45.022a3.724,3.724,0,0,1,0-7.448h45.022a3.724,3.724,0,1,1,0,7.448Z" fill="#f0b90b"/></g></g></svg>
