<svg xmlns="http://www.w3.org/2000/svg" width="230" height="230" viewBox="0 0 230 230"><g transform="translate(-1249 -3558)"><rect width="230" height="230" transform="translate(1249 3558)" fill="rgba(255,255,255,0)"/><g transform="translate(-2109.656 3227.512)"><circle cx="4.401" cy="4.401" r="4.401" transform="translate(3468.881 456.491)" fill="#f0b90b"/><path d="M3411.355,483.24" fill="none" stroke="#1a1a1a" stroke-linecap="round" stroke-linejoin="round" stroke-width="26"/><path d="M3398.216,516.936a3.723,3.723,0,0,1-3.41-5.218l10.851-24.755h-21.479a3.723,3.723,0,0,1-3.724-3.723V360.692a3.724,3.724,0,0,1,3.724-3.724h178.7a3.724,3.724,0,0,1,3.724,3.724v19.371a3.724,3.724,0,0,1-7.447,0V364.415H3387.9v115.1h23.453a3.724,3.724,0,0,1,3.41,5.219l-7.7,17.556,30.825-22.078a3.726,3.726,0,0,1,2.169-.7h119.092v-64.5a3.724,3.724,0,1,1,7.447,0V483.24a3.723,3.723,0,0,1-3.724,3.723H3441.259l-40.875,29.277A3.716,3.716,0,0,1,3398.216,516.936Z" fill="#55585a"/><path d="M3473.718,444.024a3.724,3.724,0,0,1-3.724-3.724c0-8.726-3.789-11.76-8.586-15.6-5.3-4.246-11.9-9.531-11.9-22.964a24.211,24.211,0,1,1,45.384,11.754,3.724,3.724,0,0,1-6.509-3.62,16.766,16.766,0,1,0-31.427-8.134c0,9.856,4.02,13.075,9.109,17.151,5.333,4.271,11.379,9.112,11.379,21.415A3.725,3.725,0,0,1,3473.718,444.024Z" fill="#f0b90b"/><circle cx="4.062" cy="4.062" r="4.062" transform="translate(3558.732 393.477)" fill="#55585a"/><path d="M3562.878,511.245h-28.455a3.723,3.723,0,1,1,0-7.447h28.455a3.723,3.723,0,1,1,0,7.447Z" fill="#55585a"/><path d="M3562.878,534.01h-50.461a3.724,3.724,0,0,1,0-7.448h50.461a3.724,3.724,0,1,1,0,7.448Z" fill="#55585a"/></g></g></svg>
