<svg xmlns="http://www.w3.org/2000/svg" width="230" height="230" viewBox="0 0 230 230"><g transform="translate(-1249 -3558)"><rect width="230" height="230" transform="translate(1249 3558)" fill="rgba(255,255,255,0)"/><g transform="translate(-2805.191 3221.078)"><path d="M4235.164,541.454H4103.218a3.724,3.724,0,0,1,0-7.448h131.946a17.733,17.733,0,0,0,17.714-17.712V369.838h-124.5V387.55a3.724,3.724,0,1,1-7.448,0V366.115a3.724,3.724,0,0,1,3.724-3.724H4256.6a3.724,3.724,0,0,1,3.724,3.724V516.294A25.189,25.189,0,0,1,4235.164,541.454Z" fill="#55585a"/><path d="M4103.218,541.454a25.189,25.189,0,0,1-25.161-25.16V408.988a3.723,3.723,0,0,1,3.723-3.723h17.714V387.55a3.724,3.724,0,0,1,3.724-3.723h21.436a3.724,3.724,0,0,1,3.724,3.723v59.539a3.724,3.724,0,1,1-7.448,0V391.274h-13.988v17.714a3.724,3.724,0,0,1-3.724,3.724H4085.5V516.294a17.713,17.713,0,0,0,35.426,0V479.665a3.724,3.724,0,1,1,7.448,0v36.629A25.189,25.189,0,0,1,4103.218,541.454Z" fill="#55585a"/><path d="M4103.218,520.018a3.724,3.724,0,0,1-3.724-3.724V387.55a3.724,3.724,0,0,1,7.448,0V516.294A3.724,3.724,0,0,1,4103.218,520.018Z" fill="#55585a"/><path d="M4236.859,415.231h-93.7a3.723,3.723,0,0,1-3.723-3.724V384.285a3.723,3.723,0,0,1,3.723-3.724h93.7a3.724,3.724,0,0,1,3.724,3.724v27.222A3.724,3.724,0,0,1,4236.859,415.231Zm-89.977-7.447h86.254V388.009h-86.254Z" fill="#f0b90b"/><path d="M4180.032,481.964h-36.874a3.723,3.723,0,0,1-3.723-3.724V430.762a3.723,3.723,0,0,1,3.723-3.723h36.874a3.723,3.723,0,0,1,3.724,3.723V478.24A3.724,3.724,0,0,1,4180.032,481.964Zm-33.15-7.447h29.427V434.486h-29.427Z" fill="#f0b90b"/><path d="M4236.859,438.488h-39.373a3.724,3.724,0,0,1,0-7.448h39.373a3.724,3.724,0,1,1,0,7.448Z" fill="#f0b90b"/><path d="M4236.859,458.188h-39.373a3.723,3.723,0,1,1,0-7.447h39.373a3.723,3.723,0,1,1,0,7.447Z" fill="#f0b90b"/><path d="M4236.859,478.043h-39.373a3.723,3.723,0,1,1,0-7.447h39.373a3.723,3.723,0,1,1,0,7.447Z" fill="#f0b90b"/><path d="M4236.859,501.9h-93.7a3.723,3.723,0,0,1,0-7.447h93.7a3.723,3.723,0,1,1,0,7.447Z" fill="#f0b90b"/><path d="M4197.486,520.831h-54.328a3.724,3.724,0,0,1,0-7.447h54.328a3.724,3.724,0,0,1,0,7.447Z" fill="#f0b90b"/><circle cx="4.062" cy="4.062" r="4.062" transform="translate(4120.592 459.315)" fill="#55585a"/></g></g></svg>
