<svg xmlns="http://www.w3.org/2000/svg" width="99.339" height="100" viewBox="0 0 99.339 100"><g transform="translate(-13635.601 6986.955)"><path d="M13700.35-6870.389a70.165,70.165,0,0,1-15.078,4.182c-30.1-5.022-46.012-24.453-46.012-56.207v-12.958h0v-12.264c1.334.3,3.174.671,5.352,1a1.831,1.831,0,0,0,2.084-1.535,1.831,1.831,0,0,0-1.535-2.083,66.578,66.578,0,0,1-7.232-1.48,1.83,1.83,0,0,0-1.6.3,1.832,1.832,0,0,0-.727,1.459v14.6h0v12.958c0,12.442,2.252,22.839,6.885,31.787,7.934,15.325,22.23,24.772,42.49,28.08a1.827,1.827,0,0,0,.3.024,1.8,1.8,0,0,0,.293-.024,74.1,74.1,0,0,0,16.178-4.457,1.83,1.83,0,0,0,1-2.388A1.831,1.831,0,0,0,13700.35-6870.389Z" transform="translate(0.001 -24.433)" fill="#f0b90b"/><path d="M13773.964-6975.862a1.834,1.834,0,0,0-1.6-.3c-.151.043-15.375,4.26-26.988,1.042a44.322,44.322,0,0,1-19-11.233,1.835,1.835,0,0,0-1.354-.6h0a1.836,1.836,0,0,0-1.354.6,44.3,44.3,0,0,1-19,11.235,37.994,37.994,0,0,1-10.045,1.214,1.83,1.83,0,0,0-1.828,1.831,1.83,1.83,0,0,0,1.829,1.829h0a41.623,41.623,0,0,0,11.019-1.346,47.949,47.949,0,0,0,19.377-10.947,47.938,47.938,0,0,0,19.375,10.947c9.9,2.743,21.7.649,26.634-.468v25.217c0,21.974-7.5,37.967-22.287,47.535a1.831,1.831,0,0,0-.542,2.53,1.826,1.826,0,0,0,1.537.836,1.813,1.813,0,0,0,.992-.294,49.874,49.874,0,0,0,20.558-27.17,75.9,75.9,0,0,0,3.4-23.438V-6974.4A1.834,1.834,0,0,0,13773.964-6975.862Z" transform="translate(-39.75)" fill="#f0b90b"/><path d="M13741.629-6890.35a53.655,53.655,0,0,0,5.461-19.6,1.831,1.831,0,0,0-1.646-2,1.826,1.826,0,0,0-2,1.646,50.018,50.018,0,0,1-5.069,18.264,35.567,35.567,0,0,1-10.8,12.593c-5.3,3.841-12.053,6.559-20.071,8.083-8.019-1.524-14.77-4.243-20.071-8.083a35.557,35.557,0,0,1-10.8-12.593c-5.383-10.4-5.383-21.853-5.383-25.617v-13.887c2,.162,3.948.244,5.821.244h0a51.365,51.365,0,0,0,13.657-1.7,56.022,56.022,0,0,0,16.771-7.886,56.046,56.046,0,0,0,16.771,7.887,51.391,51.391,0,0,0,13.657,1.7c1.874,0,3.824-.082,5.822-.244v10.833a1.83,1.83,0,0,0,1.829,1.83,1.83,1.83,0,0,0,1.83-1.83v-12.842a1.833,1.833,0,0,0-.605-1.361,1.828,1.828,0,0,0-1.417-.459,70.839,70.839,0,0,1-7.459.413,47.744,47.744,0,0,1-12.681-1.567,52.659,52.659,0,0,1-16.68-8.082,1.829,1.829,0,0,0-2.135,0,52.654,52.654,0,0,1-16.681,8.082,47.713,47.713,0,0,1-12.681,1.567,70.8,70.8,0,0,1-7.457-.413,1.827,1.827,0,0,0-1.417.459,1.83,1.83,0,0,0-.606,1.361v15.9c0,3.985,0,16.113,5.791,27.3a39.214,39.214,0,0,0,11.9,13.875c5.817,4.215,13.182,7.169,21.886,8.78a1.754,1.754,0,0,0,.332.031,1.772,1.772,0,0,0,.333-.031c8.7-1.611,16.066-4.565,21.885-8.78A39.22,39.22,0,0,0,13741.629-6890.35Z" transform="translate(-22.241 -29.197)" fill="#f0b90b"/><path d="M13786.771-6819.867a5.251,5.251,0,0,0-5.244,5.245,5.25,5.25,0,0,0,3.413,4.908v2.359a1.831,1.831,0,0,0,1.831,1.83,1.83,1.83,0,0,0,1.83-1.83v-2.359a5.249,5.249,0,0,0,3.414-4.908A5.251,5.251,0,0,0,13786.771-6819.867Zm0,3.66a1.586,1.586,0,0,1,1.583,1.585,1.586,1.586,0,0,1-1.583,1.584,1.586,1.586,0,0,1-1.584-1.584A1.586,1.586,0,0,1,13786.771-6816.208Z" transform="translate(-101.42 -116.127)" fill="#55585a"/><path d="M13763.114-6897.816a9.507,9.507,0,0,0-9.5,9.5v6.58h-4.183a1.829,1.829,0,0,0-1.83,1.83v14.794a12.77,12.77,0,0,0,3.822,9.4c2.728,2.594,6.769,3.965,11.686,3.965h.163c4.917,0,8.958-1.371,11.687-3.965a12.77,12.77,0,0,0,3.821-9.4v-14.794a1.829,1.829,0,0,0-1.829-1.83h-4.346v-6.58A9.507,9.507,0,0,0,13763.114-6897.816Zm-5.836,9.5a5.842,5.842,0,0,1,5.836-5.835,5.842,5.842,0,0,1,5.836,5.835v6.58h-11.672Zm17.847,23.2c0,6.077-4.429,9.7-11.849,9.7h-.163c-7.419,0-11.848-3.627-11.848-9.7v-12.965h23.859Z" transform="translate(-77.844 -61.952)" fill="#55585a"/></g></svg>
