<svg xmlns="http://www.w3.org/2000/svg" width="114.197" height="100" viewBox="0 0 114.197 100"><g transform="translate(386.292 7833.344)"><path d="M-304.649-7785.65v-34.338a1.807,1.807,0,0,0-1.294-1.732l-39.015-11.549a1.816,1.816,0,0,0-1.026,0L-385-7821.721a1.807,1.807,0,0,0-1.294,1.732v40.433c0,23.146,38.338,43.876,39.97,44.748a1.8,1.8,0,0,0,.851.213,1.8,1.8,0,0,0,.851-.213,133.386,133.386,0,0,0,14.47-9.275,26.307,26.307,0,0,0,21.2,10.739,26.359,26.359,0,0,0,26.33-26.329A26.371,26.371,0,0,0-304.649-7785.65Zm-78.029-32.988,37.208-11.014,37.208,11.014v32.645q-.341-.009-.683-.008a26.311,26.311,0,0,0-21.318,10.9l-6.5-1.959v-1.7a15.339,15.339,0,0,0,6.641-12.629v-20.261a1.807,1.807,0,0,0-1.807-1.807h-11.205c-1.312-.308-5.736-1.306-7.625-1.2-11.891.653-14.558,8.946-15.152,12.481a1.806,1.806,0,0,0,.4,1.466,1.805,1.805,0,0,0,1.379.641h3.312v8.681a15.339,15.339,0,0,0,6.641,12.629v1.7l-20.423,6.155a1.807,1.807,0,0,0-1.285,1.73v6.14c-4.033-5.2-6.793-10.835-6.793-16.515Zm48.942,10.848v6.334l-5.2-4.986a1.807,1.807,0,0,0-1.25-.5,1.805,1.805,0,0,0-.709.145,1.807,1.807,0,0,0-1.051,1.255,11.3,11.3,0,0,1-6.46,1.857h-13.4c1.129-3.19,4-6.968,11.245-7.366a40.018,40.018,0,0,1,6.8,1.157,1.814,1.814,0,0,0,.42.049h9.61Zm-23.468,7.717h8.795a15.651,15.651,0,0,0,8.379-2.409l6.295,6.031v5.059a11.747,11.747,0,0,1-11.734,11.734,11.747,11.747,0,0,1-11.734-11.734Zm6.641,24.35v-1.193a15.268,15.268,0,0,0,5.093.872,15.267,15.267,0,0,0,5.093-.872v1.193a5.1,5.1,0,0,1-5.093,5.092A5.1,5.1,0,0,1-350.563-7775.723Zm5.094,37.256c-3.5-1.978-17.063-9.971-26.8-20.358v-9.012l18.415-5.551a8.72,8.72,0,0,0,8.386,6.372,8.72,8.72,0,0,0,8.385-6.372l4.842,1.46a26.164,26.164,0,0,0-3.032,12.256,26.168,26.168,0,0,0,3.18,12.535A137.714,137.714,0,0,1-345.47-7738.467Zm36.524,1.51a22.742,22.742,0,0,1-22.716-22.716,22.741,22.741,0,0,1,22.716-22.716,22.742,22.742,0,0,1,22.716,22.716A22.742,22.742,0,0,1-308.946-7736.957Z" fill="#f0b90b"/><path d="M-118.406-7628.283a1.807,1.807,0,0,0-2.529-.362l-10.888,8.164v-5.537a1.807,1.807,0,0,0-1.807-1.807,1.807,1.807,0,0,0-1.807,1.807v9.15c0,.014,0,.026,0,.04,0,.034,0,.069.005.1s0,.051.007.076.009.066.015.1.01.053.016.079.015.062.023.092.016.054.024.081.02.056.031.084.022.056.034.083.024.052.037.078.029.056.045.083.028.047.042.071.036.055.055.081.015.024.024.035.015.017.022.026c.028.036.058.07.088.1.015.017.03.034.046.05a1.632,1.632,0,0,0,.125.115l.054.043c.038.03.076.059.117.084.021.015.043.026.065.04s.07.041.106.06l.066.031c.039.018.078.034.118.05l.061.022c.044.015.088.027.133.039l.054.014c.049.011.1.019.151.025l.044.007a1.873,1.873,0,0,0,.2.011h.007a1.765,1.765,0,0,0,.245-.019l.059-.009a1.677,1.677,0,0,0,.242-.059l.031-.011a1.73,1.73,0,0,0,.224-.095l.032-.016a1.784,1.784,0,0,0,.223-.14c.007,0,.014-.008.021-.014l13.778-10.331A1.807,1.807,0,0,0-118.406-7628.283Z" transform="translate(-175.316 -142.806)" fill="#55585a"/><path d="M-77.678-7766.429h-26.035a1.807,1.807,0,0,1-1.807-1.807,1.807,1.807,0,0,1,1.807-1.807h26.035a1.806,1.806,0,0,1,1.807,1.807A1.806,1.806,0,0,1-77.678-7766.429Z" transform="translate(-196.224 -44.24)" fill="#55585a"/><path d="M-86.511-7733.747h-17.2a1.807,1.807,0,0,1-1.807-1.807,1.807,1.807,0,0,1,1.807-1.807h17.2a1.807,1.807,0,0,1,1.807,1.807A1.807,1.807,0,0,1-86.511-7733.747Z" transform="translate(-196.224 -67.08)" fill="#55585a"/><path d="M-95.344-7701.065h-8.368a1.807,1.807,0,0,1-1.807-1.807,1.807,1.807,0,0,1,1.807-1.807h8.368a1.807,1.807,0,0,1,1.807,1.807A1.807,1.807,0,0,1-95.344-7701.065Z" transform="translate(-196.224 -89.92)" fill="#55585a"/></g></svg>