<svg xmlns="http://www.w3.org/2000/svg" width="142" height="100" viewBox="0 0 142 100"><g transform="translate(-754 -1925.029)"><rect width="142" height="100" transform="translate(754 1925.029)" fill="rgba(0,0,0,0)"/><g transform="translate(-5646.659 1800.424)"><g transform="translate(6413.118 133.404)"><path d="M6499.89,148.479h-19.433a1.58,1.58,0,1,0,0,3.16h19.433a1.58,1.58,0,1,0,0-3.16Z" transform="translate(-6384.386 -126.817)" fill="#55585a"/><path d="M6517.242,164.2h-18.976V149.092h9.131a1.58,1.58,0,0,0,0-3.16h-9.131v-1.624a10.917,10.917,0,0,0-10.921-10.9h-63.308a10.915,10.915,0,0,0-10.919,10.9v38.975a10.931,10.931,0,0,0,10.919,10.921h44.105c.874,0,.874-3.16,0-3.16h-44.105a7.77,7.77,0,0,1-7.759-7.761V144.309a7.724,7.724,0,0,1,1.848-4.993l36.65,25.774a1.583,1.583,0,0,0,1.819,0l36.663-25.774a7.724,7.724,0,0,1,1.848,4.993v3.17c0,.011-.006.022-.006.035s.006.022.006.034v22.971c0,.872,3.161.872,3.161,0v-3.161h18.976a1.58,1.58,0,1,0,0-3.16Zm-61.557-2.332-34.913-24.551a7.725,7.725,0,0,1,3.264-.75h63.308a7.736,7.736,0,0,1,3.265.75Z" transform="translate(-6413.118 -133.404)" fill="#55585a"/></g><circle cx="2.931" cy="2.931" r="2.931" transform="translate(6518.8 173.412)" fill="#55585a"/><path d="M6429.028,184.343a2.931,2.931,0,1,1-2.931-2.917A2.934,2.934,0,0,1,6429.028,184.343Z" transform="translate(4.389 20.983)" fill="#f0b90b"/><g transform="translate(6438.247 168.015)"><path d="M6476.96,178.494a7.384,7.384,0,0,0-3.76-12.348v-2.276a1.58,1.58,0,1,0-3.16,0v2.1h-2.816v-2.1a1.58,1.58,0,1,0-3.16,0v2.1h-3.135a1.58,1.58,0,1,0,0,3.16h2.309v20.163h-2.309a1.58,1.58,0,1,0,0,3.16h3.135v2.1a1.58,1.58,0,1,0,3.16,0v-2.1h2.816v2.1a1.58,1.58,0,1,0,3.16,0v-2.1h.364a7.386,7.386,0,0,0,3.4-13.957Zm-1.088-5.115a4.256,4.256,0,0,1-4.25,4.252H6466.4v-8.5h5.224A4.255,4.255,0,0,1,6475.872,173.379Zm-2.307,15.913H6466.4v-8.5h7.167a4.25,4.25,0,1,1,0,8.5Z" transform="translate(-6418.046 -155.394)" fill="#f0b90b"/><path d="M6482.722,157.491a23.735,23.735,0,0,0-16.968,7.132h-18.1a1.581,1.581,0,0,0,0,3.161h15.49a23.509,23.509,0,0,0-3.415,19.62h-27.542a1.58,1.58,0,0,0,0,3.16h28.594a23.816,23.816,0,1,0,21.944-33.073Zm0,44.473a20.656,20.656,0,1,1,20.655-20.656A20.681,20.681,0,0,1,6482.722,201.964Z" transform="translate(-6430.605 -157.491)" fill="#f0b90b"/><path d="M6454.44,186.034h-11.934a1.581,1.581,0,0,0,0,3.161h11.934a1.581,1.581,0,0,0,0-3.161Z" transform="translate(-6426.096 -145.02)" fill="#f0b90b"/><path d="M6437.168,173.541H6449.1a1.58,1.58,0,1,0,0-3.16h-11.933a1.58,1.58,0,1,0,0,3.16Z" transform="translate(-6428.429 -151.859)" fill="#f0b90b"/></g></g></g></svg>