<svg xmlns="http://www.w3.org/2000/svg" width="99.997" height="100" viewBox="0 0 99.997 100"><g transform="translate(-190.666 -663.14)"><path d="M210.827,700.847c-9.215,7.64-9.561,11.559-9.45,12.578a1.847,1.847,0,0,0,1.835,1.639H223.7a1.842,1.842,0,0,0,1.844-1.842v0a1.841,1.841,0,0,0-1.842-1.844H205.85c.932-1.523,2.953-4.057,7.331-7.687,9.339-7.748,11.544-9.8,11.544-15.651,0-5.809-4.852-10.189-11.29-10.189-6.72,0-11.337,3.822-12.057,9.976a1.845,1.845,0,1,0,3.664.427c.709-6.059,6.106-6.713,8.393-6.713,3.778,0,7.6,2.233,7.6,6.5C221.037,692.014,220.176,693.09,210.827,700.847Z" transform="translate(12.158 16.717)" fill="#55585a"/><path d="M235.879,717.178a1.844,1.844,0,0,0,1.844-1.844v-7.549h4.69a1.845,1.845,0,0,0,0-3.69h-4.688V679.114a1.845,1.845,0,0,0-3.346-1.073l-19.161,26.827a1.844,1.844,0,0,0,1.5,2.917h17.317v7.546A1.846,1.846,0,0,0,235.879,717.178ZM220.3,704.1l13.734-19.227V704.1Z" transform="translate(27.515 16.06)" fill="#55585a"/><path d="M278.82,682.109l2.647-1.4a1.537,1.537,0,0,0,.1-2.66L273.1,672.74a1.534,1.534,0,0,0-2.115.485,1.509,1.509,0,0,0-.235.763l-.363,9.984a1.538,1.538,0,0,0,2.256,1.414l2.912-1.545a46.312,46.312,0,0,1-75.136,51.4,1.844,1.844,0,0,0-2.611,0h0a1.844,1.844,0,0,0,0,2.6l0,0a50,50,0,0,0,81.012-55.742Z" transform="translate(7.504 10.644)" fill="#f0b90b"/><path d="M201.187,730.251l-2.914,1.543a46.313,46.313,0,0,1,75.14-51.4,1.843,1.843,0,0,0,2.607,0h0a1.845,1.845,0,0,0,0-2.609h0a50,50,0,0,0-81.014,55.74l-2.647,1.4a1.536,1.536,0,0,0-.1,2.66l8.465,5.307a1.537,1.537,0,0,0,2.352-1.248l.361-9.984a1.533,1.533,0,0,0-2.25-1.408Z" transform="translate(0 0)" fill="#f0b90b"/></g></svg>
