<svg xmlns="http://www.w3.org/2000/svg" width="100" height="100" viewBox="0 0 100 100"><g transform="translate(48 -307)"><path d="M-24.429,349.143A18.593,18.593,0,0,1-43,330.571,18.593,18.593,0,0,1-24.429,312,18.593,18.593,0,0,1-5.857,330.571,18.593,18.593,0,0,1-24.429,349.143Zm0-34.286a15.733,15.733,0,0,0-15.714,15.714,15.733,15.733,0,0,0,15.714,15.714A15.733,15.733,0,0,0-8.714,330.571,15.733,15.733,0,0,0-24.429,314.857Z" transform="translate(2.143 2.143)" fill="#f0b90b"/><path d="M9.571,349.143a18.571,18.571,0,1,1,18.571-18.571A18.593,18.593,0,0,1,9.571,349.143Zm0-34.286a15.714,15.714,0,1,0,15.714,15.714A15.733,15.733,0,0,0,9.571,314.857Z" transform="translate(16.714 2.143)" fill="#f0b90b"/><path d="M-24.429,383.143A18.593,18.593,0,0,1-43,364.571,18.593,18.593,0,0,1-24.429,346,18.593,18.593,0,0,1-5.857,364.571,18.593,18.593,0,0,1-24.429,383.143Zm0-34.286a15.733,15.733,0,0,0-15.714,15.714,15.733,15.733,0,0,0,15.714,15.714A15.733,15.733,0,0,0-8.714,364.571,15.733,15.733,0,0,0-24.429,348.857Z" transform="translate(2.143 16.714)" fill="#f0b90b"/><path d="M9.571,383.143a18.571,18.571,0,1,1,18.571-18.571A18.593,18.593,0,0,1,9.571,383.143Zm0-34.286a15.714,15.714,0,1,0,15.714,15.714A15.733,15.733,0,0,0,9.571,348.857Z" transform="translate(16.714 16.714)" fill="#f0b90b"/><path d="M15.857,345.714a2.857,2.857,0,1,1,2.857-2.857A2.86,2.86,0,0,1,15.857,345.714Zm0-2.86v0Z" transform="translate(26.143 14.143)" fill="#f0b90b"/><path d="M20.857,339.714a2.857,2.857,0,1,1,2.857-2.857A2.86,2.86,0,0,1,20.857,339.714Zm0-2.86v0Z" transform="translate(28.286 11.571)" fill="#f0b90b"/><path d="M20.857,351.714a2.857,2.857,0,1,1,2.857-2.857A2.86,2.86,0,0,1,20.857,351.714Zm0-2.86v0Z" transform="translate(28.286 16.714)" fill="#f0b90b"/><circle cx="2.857" cy="2.857" r="2.857" transform="translate(-0.857 314.143)" fill="#f0b90b"/><circle cx="2.857" cy="2.857" r="2.857" transform="translate(-9.429 307)" fill="#f0b90b"/><circle cx="2.857" cy="2.857" r="2.857" transform="translate(7.714 307)" fill="#f0b90b"/><circle cx="2.857" cy="2.857" r="2.857" transform="translate(-0.857 394.143)" fill="#f0b90b"/><circle cx="2.857" cy="2.857" r="2.857" transform="translate(7.714 401.286)" fill="#f0b90b"/><circle cx="2.857" cy="2.857" r="2.857" transform="translate(-9.429 401.286)" fill="#f0b90b"/><path d="M-40.143,345.714A2.86,2.86,0,0,1-43,342.857,2.86,2.86,0,0,1-40.143,340a2.86,2.86,0,0,1,2.857,2.857A2.86,2.86,0,0,1-40.143,345.714Zm0-2.857v0Z" transform="translate(2.143 14.143)" fill="#f0b90b"/><path d="M-45.143,351.714A2.86,2.86,0,0,1-48,348.857,2.86,2.86,0,0,1-45.143,346a2.86,2.86,0,0,1,2.857,2.857A2.86,2.86,0,0,1-45.143,351.714Zm0-2.857v0Z" transform="translate(0 16.714)" fill="#f0b90b"/><path d="M-45.143,339.714A2.86,2.86,0,0,1-48,336.857,2.86,2.86,0,0,1-45.143,334a2.86,2.86,0,0,1,2.857,2.857A2.86,2.86,0,0,1-45.143,339.714Zm0-2.857v0Z" transform="translate(0 11.571)" fill="#f0b90b"/><path d="M-32.293,335.326h-1.279A1.427,1.427,0,0,0-35,336.755a1.428,1.428,0,0,0,1.429,1.429h1.854v1.133a1.428,1.428,0,0,0,1.429,1.429,1.428,1.428,0,0,0,1.429-1.429v-1.133h1.3v1.133a1.428,1.428,0,0,0,1.429,1.429,1.428,1.428,0,0,0,1.429-1.429v-1.141a5.491,5.491,0,0,0,5.413-5.481,5.476,5.476,0,0,0-2.619-4.657,5.433,5.433,0,0,0,1.266-3.463A5.482,5.482,0,0,0-24.7,319.3v-1.346a1.428,1.428,0,0,0-1.429-1.429,1.428,1.428,0,0,0-1.429,1.429v1.133h-1.3v-1.133a1.428,1.428,0,0,0-1.429-1.429,1.428,1.428,0,0,0-1.429,1.429v1.133h-1.854A1.428,1.428,0,0,0-35,320.512a1.427,1.427,0,0,0,1.429,1.429h1.279Zm7.519,0h-4.661v-5.264h4.661a2.634,2.634,0,0,1,2.631,2.631A2.636,2.636,0,0,1-24.774,335.326Zm1.279-10.753a2.634,2.634,0,0,1-2.631,2.631h-3.309v-5.264h3.309A2.636,2.636,0,0,1-23.5,324.573Z" transform="translate(5.571 4.081)" fill="#55585a"/><path d="M-21.566,360.419a5.345,5.345,0,0,0-1.844.346,5.371,5.371,0,0,0,1.949-4.119,5.407,5.407,0,0,0-5.4-5.4,5.408,5.408,0,0,0-5.4,5.4,5.367,5.367,0,0,0,1.95,4.119,5.351,5.351,0,0,0-1.844-.346,5.408,5.408,0,0,0-5.4,5.4,5.409,5.409,0,0,0,5.4,5.4,5.408,5.408,0,0,0,5.3-4.367,5.407,5.407,0,0,0,5.3,4.367,5.408,5.408,0,0,0,5.4-5.4A5.407,5.407,0,0,0-21.566,360.419Zm-5.3-6.316a2.547,2.547,0,0,1,2.543,2.543,2.547,2.547,0,0,1-2.543,2.544,2.547,2.547,0,0,1-2.544-2.544A2.547,2.547,0,0,1-26.862,354.1Zm-5.3,14.26a2.547,2.547,0,0,1-2.544-2.544,2.547,2.547,0,0,1,2.544-2.543,2.547,2.547,0,0,1,2.543,2.543A2.547,2.547,0,0,1-32.158,368.363Zm5.3-3.579a5.382,5.382,0,0,0-1.844-3.083,5.339,5.339,0,0,0,1.844.346,5.352,5.352,0,0,0,1.844-.346A5.374,5.374,0,0,0-26.862,364.785Zm5.3,3.579a2.547,2.547,0,0,1-2.544-2.544,2.547,2.547,0,0,1,2.544-2.543,2.547,2.547,0,0,1,2.543,2.543A2.547,2.547,0,0,1-21.566,368.363Z" transform="translate(4.475 18.963)" fill="#55585a"/><g transform="translate(14.961 324.991)"><path d="M8.634,325.89a1.427,1.427,0,0,0-1.429-1.429H-2.5a1.428,1.428,0,0,0-1.429,1.429A1.428,1.428,0,0,0-2.5,327.318h9.7A1.427,1.427,0,0,0,8.634,325.89Z" transform="translate(3.927 -317.508)" fill="#55585a"/><path d="M16.183,321.3a2.8,2.8,0,0,0-2.629-1.7H2.582a1.429,1.429,0,0,0,0,2.857H13.547l-3.7,11.011H-.1a1.429,1.429,0,0,0-1.429,1.429A1.429,1.429,0,0,0-.1,336.32H9.849a2.857,2.857,0,0,0,2.709-1.947L16.21,323.5A2.964,2.964,0,0,0,16.183,321.3Z" transform="translate(4.957 -319.594)" fill="#55585a"/></g><path d="M13.075,367.822H2.629l1.827-4.587H8.215a1.429,1.429,0,0,0,0-2.857H5.593l2.736-6.869a1.428,1.428,0,1,0-2.653-1.057l-3.157,7.926H-.5a1.429,1.429,0,0,0-1.429,1.429A1.428,1.428,0,0,0-.5,363.235h1.88l-2.186,5.487A1.427,1.427,0,0,0,.522,370.68H13.075a1.429,1.429,0,1,0,0-2.857Z" transform="translate(19.745 19.093)" fill="#55585a"/></g></svg>