<svg xmlns="http://www.w3.org/2000/svg" width="68.328" height="100" viewBox="0 0 68.328 100"><g transform="translate(-5173.108 5508.443)"><path d="M5210.569-5495.084a8.028,8.028,0,0,0-4.92.687,5.14,5.14,0,0,0-6.219.6l-5.463,5.115v-.448a8.333,8.333,0,0,0-8.333-8.333h0a5,5,0,0,0-5,5v16.326l-4.081,4.426a6.628,6.628,0,0,0-1.764,4.606,109.6,109.6,0,0,0,1.284,17.358,1.614,1.614,0,0,0,.156.375l-2.722,7.651a6.592,6.592,0,0,0,2.522,7.723l.953.647a6.682,6.682,0,0,0,2.527,7.668l26.988,18.506a1.668,1.668,0,0,1,.725,1.376,5,5,0,0,0,5,5h24.225a4.965,4.965,0,0,0,3.9-1.882,5.017,5.017,0,0,0,.948-4.3l-2.433-9a39.624,39.624,0,0,1-.748-11.983c1.374-17.42-10.3-30-13.267-32.191-5.449-4.016-9.512-8.2-11.153-11.49-2.458-4.93-.8-8.3.8-11.563,1.344-2.735,2.734-5.562.761-8.527A7.333,7.333,0,0,0,5210.569-5495.084Zm-24.936.953a5,5,0,0,1,5,5v3.567l-6.668,6.236v-13.138A1.667,1.667,0,0,1,5185.633-5494.131Zm-7.511,26.979a3.307,3.307,0,0,1,.885-2.3l4.4-4.778c.04-.034.078-.07.114-.108l9.788-9.159a1.646,1.646,0,0,0,.258-.243l8.188-7.668a1.682,1.682,0,0,1,2.345,0l.114-.113a1.284,1.284,0,0,0,.13.132l-.105.135a5,5,0,0,1-.113,6.9l-6.556,6.294-9.231,8.314a3.239,3.239,0,0,0-.875,2.366,8.332,8.332,0,0,0-6.771,5.456l-2.092,5.885c-.342-4.1-.448-8.74-.48-11.112Zm12.655-.311,4.816-4.333a26.883,26.883,0,0,0,.159,4.333Zm-14.134,26.88,7.188-20.226a5.018,5.018,0,0,1,4.745-3.318h14.3a1.682,1.682,0,0,1,.964.311l8.628,6.114a1.273,1.273,0,0,1,.545,1.025,1.284,1.284,0,0,1-.176.667c-.06.1-.136.193-.205.288l-2.707-1.937a8.274,8.274,0,0,0-4.834-1.553H5191.98a8.333,8.333,0,0,0-7.845,5.562l-6,17.052-.217-.146A3.267,3.267,0,0,1,5176.644-5440.582Zm34.875-44.079c-1.684,3.423-3.988,8.113-.791,14.521,2.555,5.122,8.713,10.146,12.156,12.681,2.214,1.629,13.182,13.264,11.921,29.247a43.01,43.01,0,0,0,.833,13.051l2.433,9a1.666,1.666,0,0,1-1.25,2,1.65,1.65,0,0,1-.369.043h-24.234a1.668,1.668,0,0,1-1.667-1.668,5,5,0,0,0-2.167-4.127l-26.989-18.5a3.345,3.345,0,0,1-1.259-3.865l7.139-20.269a5,5,0,0,1,4.7-3.333H5205.1a4.963,4.963,0,0,1,2.9.931l7.7,5.509a1.294,1.294,0,0,1,.35,1.708,4.974,4.974,0,0,1-6.819,1.727c-.074-.045-.147-.091-.219-.139l-3.334-2.225a4.954,4.954,0,0,0-2.772-.844h-5.134a4.956,4.956,0,0,0-4.752,3.455c-.1.311-.239.7-.4,1.133-1.2,3.317-4,11.078,2.353,13.626a1.667,1.667,0,0,0,2.209-.825,1.667,1.667,0,0,0-.825-2.209c-.047-.021-.095-.041-.143-.057-2.8-1.121-2.206-4.57-.458-9.4.176-.487.333-.914.44-1.263a1.637,1.637,0,0,1,1.575-1.128h5.132a1.649,1.649,0,0,1,.918.28l3.333,2.228a8.315,8.315,0,0,0,11.531-2.3q.116-.173.222-.352a4.646,4.646,0,0,0-1.275-6.131l-2.278-1.639c.121-.166.253-.333.355-.5a4.594,4.594,0,0,0-1.3-6.118l-8.626-6.124a5.043,5.043,0,0,0-2.9-.926h-3.759a23.62,23.62,0,0,1,.248-7.757l7.1-6.753a8.333,8.333,0,0,0,1.473-9.751,3.86,3.86,0,0,1,4.559,1.85C5213.319-5488.629,5212.855-5487.392,5211.518-5484.661Z" transform="translate(0 -7.647)" fill="#f0b90b"/><path d="M5271.316-5277.989a1.67,1.67,0,0,0-2.093,1.094,1.67,1.67,0,0,0,1.036,2.074c3.847,1.289,13.835,5.916,13.835,11.753a1.666,1.666,0,0,0,1.667,1.666,1.666,1.666,0,0,0,1.667-1.666C5287.423-5272.506,5271.977-5277.773,5271.316-5277.989Z" transform="translate(-66.887 -160.448)" fill="#f0b90b"/><path d="M5306.517-5299.422a1.668,1.668,0,0,0-2.336-.318,1.667,1.667,0,0,0-.318,2.336h0c2.543,3.333,6.774,7.325,12.486,7.325a1.667,1.667,0,0,0,1.667-1.667,1.667,1.667,0,0,0-1.667-1.667C5312-5293.413,5308.608-5296.682,5306.517-5299.422Z" transform="translate(-90.828 -145.116)" fill="#f0b90b"/><path d="M5312.441-5507.926l-1.589,1.667a1.666,1.666,0,0,0,.057,2.356,1.666,1.666,0,0,0,2.356-.056h0l1.589-1.667a1.667,1.667,0,0,0-.057-2.357,1.667,1.667,0,0,0-2.357.056Z" transform="translate(-95.613)" fill="#55585a"/><path d="M5330.547-5484.883a1.667,1.667,0,0,0-2.056-1.156h0l-2.167.61a1.668,1.668,0,0,0-1.212,2.024,1.669,1.669,0,0,0,2.024,1.213c.03-.008.059-.016.088-.025l2.167-.608a1.667,1.667,0,0,0,1.152-2.057v0Z" transform="translate(-105.829 -15.56)" fill="#55585a"/><path d="M5323.079-5459.872a1.668,1.668,0,0,0-2.025,1.21,1.668,1.668,0,0,0,1.124,2l2.167.61a1.667,1.667,0,0,0,2.069-1.132,1.667,1.667,0,0,0-1.132-2.068l-.037-.011Z" transform="translate(-103.003 -33.792)" fill="#55585a"/></g></svg>
