<svg xmlns="http://www.w3.org/2000/svg" width="136.86" height="99.9" viewBox="0 0 136.86 99.9"><g transform="translate(-3.253 -684.726)"><path d="M133.488,726.76a49.979,49.979,0,0,0-73.154-35.992,1.711,1.711,0,0,0,1.633,3.008A46.514,46.514,0,1,1,40.65,751.152l-.02-.056a46.643,46.643,0,0,1,3.946-40.855,1.711,1.711,0,1,0-2.913-1.8h0a49.8,49.8,0,0,0-2.691,4.968H9.121a1.712,1.712,0,0,0-1.711,1.711h0a1.71,1.71,0,0,0,1.711,1.711h28.4a49.944,49.944,0,0,0-2.662,25.75,50.5,50.5,0,0,0,1.792,7.483H18.793a1.71,1.71,0,0,0-1.711,1.711h0a1.71,1.71,0,0,0,1.711,1.711h19.1a49.4,49.4,0,0,0,9.587,15.086H29.162a1.711,1.711,0,1,0,0,3.422H50.983q1.868,1.653,3.92,3.14a49.573,49.573,0,0,0,29.167,9.489,50.517,50.517,0,0,0,8.022-.641,49.943,49.943,0,0,0,41.4-57.225Z" transform="translate(5.976)" fill="#f0b90b"/><path d="M85.848,761.7A40.189,40.189,0,1,0,62.6,769.1a1.711,1.711,0,0,0,0-3.422,36.755,36.755,0,1,1,21.262-6.769,1.711,1.711,0,0,0,1.984,2.789Z" transform="translate(27.548 5.758)" fill="#f0b90b"/><path d="M33.093,706.228a1.71,1.71,0,0,0-1.711-1.711H4.964a1.71,1.71,0,0,0-1.711,1.711h0a1.71,1.71,0,0,0,1.711,1.711H31.382a1.71,1.71,0,0,0,1.711-1.711Z" transform="translate(0 28.449)" fill="#f0b90b"/><path d="M17.246,692.156h7a1.708,1.708,0,0,0,1.714-1.706v-.007a1.71,1.71,0,0,0-1.711-1.711h-7a1.712,1.712,0,0,0,0,3.425Z" transform="translate(17.658 5.757)" fill="#f0b90b"/><path d="M19.064,719.127H8.678a1.712,1.712,0,0,0-1.711,1.711h0a1.712,1.712,0,0,0,1.711,1.711H19.064a1.71,1.71,0,0,0,1.711-1.711h0a1.71,1.71,0,0,0-1.711-1.711Z" transform="translate(5.339 49.451)" fill="#f0b90b"/><g transform="translate(62.96 721.532)"><path d="M46.967,726.3a11.207,11.207,0,0,1-3.99-4.853,20.308,20.308,0,0,1,0-15.1,11.215,11.215,0,0,1,3.99-4.855,10.828,10.828,0,0,1,11.561,0,11.215,11.215,0,0,1,3.99,4.855,20.34,20.34,0,0,1,0,15.1,11.208,11.208,0,0,1-3.99,4.853,10.827,10.827,0,0,1-11.561,0Zm11.088-4.539q1.985-2.717,1.987-7.863t-1.987-7.864a6.549,6.549,0,0,0-10.615,0q-1.985,2.713-1.987,7.864t1.987,7.863a6.552,6.552,0,0,0,10.615,0Z" transform="translate(-7.948 -699.826)" fill="#55585a"/><line x1="18" y2="26" transform="translate(6.116 0.725)" fill="none" stroke="#55585a" stroke-linecap="round" stroke-width="4"/><g transform="translate(0.102 -0.775)" fill="none" stroke="#55585a" stroke-width="3"><ellipse cx="6.5" cy="7.5" rx="6.5" ry="7.5" stroke="none"/><ellipse cx="6.5" cy="7.5" rx="5" ry="6" fill="none"/></g><g transform="translate(17.102 13.225)" fill="none" stroke="#55585a" stroke-width="3"><ellipse cx="6.5" cy="7.5" rx="6.5" ry="7.5" stroke="none"/><ellipse cx="6.5" cy="7.5" rx="5" ry="6" fill="none"/></g></g></g></svg>
