<svg xmlns="http://www.w3.org/2000/svg" width="131.47" height="74.692" viewBox="0 0 131.47 74.692">
    <defs>
        <clipPath id="2iyo1gok9a">
            <path data-name="Rectangle 5168" style="fill:none" d="M0 0h130.525v39.777H0z"/>
        </clipPath>
    </defs>
    <path data-name="Path 20429" d="M2.39 10.353q-.111.175-.218.385a3.819 3.819 0 0 0-.195.457 7.619 7.619 0 0 0-.29 1.044 7.079 7.079 0 0 0-.131 1.457 3.041 3.041 0 0 0 .139.949 2.725 2.725 0 0 0 .373.75 2.733 2.733 0 0 0 .54.564 3.411 3.411 0 0 0 .631.393 3.625 3.625 0 0 0 .647.238 3.106 3.106 0 0 0 .6.1q.1.008.2.008a4.588 4.588 0 0 0 .695-.06 3.9 3.9 0 0 0 .814-.226 3.729 3.729 0 0 0 .818-.445 3.092 3.092 0 0 0 .687-.679 3.342 3.342 0 0 0 .476-.929 3.745 3.745 0 0 0 .179-1.2q0-.627-.02-1.485T8.287 9.84q-.028-.977-.067-2.013t-.079-2.021q-.04-1.159-.091-2.362T7.935.971L9.491.907q.064 1.278.115 2.489t.091 2.378q.04.992.079 2.033t.067 2.021q.028.981.048 1.842t.02 1.489a5.686 5.686 0 0 1-.254 1.774 4.747 4.747 0 0 1-.679 1.35 4.27 4.27 0 0 1-.977.965 5.378 5.378 0 0 1-1.155.623 5.5 5.5 0 0 1-1.215.322 6.065 6.065 0 0 1-.857.064q-.143 0-.286-.008a5.339 5.339 0 0 1-1-.151 5.287 5.287 0 0 1-1.02-.365 4.8 4.8 0 0 1-.949-.6 3.972 3.972 0 0 1-.79-.861 4.056 4.056 0 0 1-.532-1.143 4.578 4.578 0 0 1-.191-1.366v-.064a9.335 9.335 0 0 1 .159-1.771 8.829 8.829 0 0 1 .333-1.239 4.129 4.129 0 0 1 .476-.969zm13.5 2.691a4.711 4.711 0 0 1-1.489-.206 2.638 2.638 0 0 1-1.047-.636 1.955 1.955 0 0 1-.4-.564 3.066 3.066 0 0 1-.206-.6 2.888 2.888 0 0 1-.075-.56q-.008-.266-.008-.457v-.377q0-.313.012-.806.008-.492.008-1.127t-.008-1.326q0-.683-.016-1.421t-.052-1.429q-.036-.691-.087-1.274t-.123-.957l1.556-.286q.071.4.123.992t.087 1.278q.036.691.056 1.441t.02 1.465v3.986a4.289 4.289 0 0 0 .028.5.661.661 0 0 0 .21.409 1.238 1.238 0 0 0 .544.286 3.161 3.161 0 0 0 .861.1h.159v1.556zm6.916-1.555v1.556h-.159a2.9 2.9 0 0 1-1.334-.274 2.6 2.6 0 0 1-.873-.711 3.263 3.263 0 0 1-.556.433 2.965 2.965 0 0 1-.715.31 5.45 5.45 0 0 1-.965.183 12.286 12.286 0 0 1-1.3.06h-1.183v-1.557h1.183a6.033 6.033 0 0 0 1.29-.119 2.412 2.412 0 0 0 .873-.357 1.434 1.434 0 0 0 .5-.6 2.037 2.037 0 0 0 .159-.834 6.454 6.454 0 0 0-.067-.921 8.039 8.039 0 0 0-.242-1.072l1.493-.421q.079.278.135.536t.1.544q.04.286.075.619t.067.754a5.609 5.609 0 0 0 .087.619 2.174 2.174 0 0 0 .21.6 1.3 1.3 0 0 0 .4.46 1.121 1.121 0 0 0 .663.183zM19.09 4.24l-1.284 1.286-1.3-1.294 1.286-1.294zm3.255.008-1.286 1.294-1.3-1.3 1.286-1.286zm7.225 7.241v1.556h-.159a2.9 2.9 0 0 1-1.334-.274 2.6 2.6 0 0 1-.873-.711 3.263 3.263 0 0 1-.556.433 2.965 2.965 0 0 1-.715.31 5.45 5.45 0 0 1-.965.183 12.286 12.286 0 0 1-1.3.06h-1.183v-1.557h1.183a6.032 6.032 0 0 0 1.29-.119 2.412 2.412 0 0 0 .873-.357 1.434 1.434 0 0 0 .5-.6 2.037 2.037 0 0 0 .159-.834 6.454 6.454 0 0 0-.067-.921 8.04 8.04 0 0 0-.242-1.072l1.493-.421q.079.278.135.536t.1.544q.04.286.075.619t.067.754a5.609 5.609 0 0 0 .087.619 2.174 2.174 0 0 0 .21.6 1.3 1.3 0 0 0 .4.46 1.121 1.121 0 0 0 .663.183zm-4.319 4.152-1.286 1.286-1.3-1.294 1.286-1.294zm3.255.008-1.286 1.294-1.3-1.3 1.286-1.288zm.746-4.16h1.143a12.178 12.178 0 0 0 2.263-.2 15.352 15.352 0 0 0 2.06-.536 19.272 19.272 0 0 0 1.917-.762q.929-.429 1.834-.881-.548-.191-1.048-.413t-.984-.453l-.726-.337q-.353-.163-.683-.29a5.64 5.64 0 0 0-.623-.2 2.184 2.184 0 0 0-.54-.075 1.4 1.4 0 0 0-.619.143 2.461 2.461 0 0 0-.544.361 3.558 3.558 0 0 0-.449.468q-.2.25-.341.468a4.207 4.207 0 0 0-.218.365 1.687 1.687 0 0 0-.075.155l-1.429-.643.067-.139q.06-.123.175-.314t.278-.437a5.387 5.387 0 0 1 .377-.5 4.5 4.5 0 0 1 1.319-1.124 3.052 3.052 0 0 1 1.465-.373 3.561 3.561 0 0 1 .774.087 6.434 6.434 0 0 1 .8.234q.4.147.826.337t.85.389q.468.222.949.437t.965.385a7.809 7.809 0 0 0 .969.274 4.673 4.673 0 0 0 .977.1l.3 1.509q-.365.159-.722.318t-.722.341a1.21 1.21 0 0 0 .29.512 1.96 1.96 0 0 0 .468.357 2.627 2.627 0 0 0 .564.23 5.548 5.548 0 0 0 .584.131 4.61 4.61 0 0 0 .524.06q.238.012.381.012h.158v1.556h-.167a6.978 6.978 0 0 1-1.465-.139 4.993 4.993 0 0 1-1.227-.425 3.579 3.579 0 0 1-.937-.679 2.683 2.683 0 0 1-.591-.909q-.818.4-1.707.79a18.409 18.409 0 0 1-1.878.691 16.242 16.242 0 0 1-2.092.492 14.048 14.048 0 0 1-2.342.187h-1.143zm7.844 4.4-1.29 1.292-1.3-1.3 1.294-1.294zm5.391-4.4h1.532q.46 0 .9-.02a4.007 4.007 0 0 0 .81-.115 2.184 2.184 0 0 0 .659-.282 1.243 1.243 0 0 0 .445-.52 1.54 1.54 0 0 0 .119-.421 2.53 2.53 0 0 0 .024-.357q0-.1-.016-.314a4 4 0 0 0-.1-.58 5.163 5.163 0 0 0-.254-.778l-.691-1.7 1.413-.7q0 .008.071.163t.187.417q.115.262.25.607t.254.734a8.866 8.866 0 0 1 .413 2.033q.008.127.008.254a3.162 3.162 0 0 1-.238 1.27 2.624 2.624 0 0 1-.631.9 3.145 3.145 0 0 1-.9.572 4.51 4.51 0 0 1-1.116.3 8.835 8.835 0 0 1-1.258.087h-1.874zm2.763 4.152-1.286 1.286-1.3-1.294 1.286-1.294zm3.255.008-1.286 1.294-1.3-1.3 1.287-1.288zm5.161-2.612a5.313 5.313 0 0 1-.9-.091 9.62 9.62 0 0 1-1.032-.244 8.5 8.5 0 0 1-.945-.333 2.246 2.246 0 0 1-.627-.367l.651-1.493a4.826 4.826 0 0 0 .707.369 6.89 6.89 0 0 0 .881.31 6.747 6.747 0 0 0 .969.195 4.561 4.561 0 0 0 .6.04q.183 0 .5-.028a2.555 2.555 0 0 0 .715-.187 1.647 1.647 0 0 0 .667-.484.658.658 0 0 0 .114-.422 2.32 2.32 0 0 0-.06-.5 4.144 4.144 0 0 0-.282-.814 6.774 6.774 0 0 0-.468-.85 8.469 8.469 0 0 0-.607-.826 9.434 9.434 0 0 0-.695-.75 6.754 6.754 0 0 0-.734-.619 4.088 4.088 0 0 0-.73-.429l.643-1.445a5.569 5.569 0 0 1 .941.556 9.083 9.083 0 0 1 .925.77 10.257 10.257 0 0 1 .861.925 10.512 10.512 0 0 1 .746 1.024 8.4 8.4 0 0 1 .58 1.064 5.771 5.771 0 0 1 .361 1.036 3.668 3.668 0 0 1 .091.8 3.016 3.016 0 0 1-.067.635 1.923 1.923 0 0 1-.175.484 2.1 2.1 0 0 1-.238.357 2.906 2.906 0 0 1-.671.6 3.966 3.966 0 0 1-.83.409 4.876 4.876 0 0 1-.925.23 6.494 6.494 0 0 1-.961.078zm14.069-5.153q.111.373.222.734t.2.726q.1.381.195.766t.183.762q.083.377.139.742a4.746 4.746 0 0 1 .056.715 4.454 4.454 0 0 1-.2 1.338 5.8 5.8 0 0 1-.564 1.25 7.3 7.3 0 0 1-.86 1.153 10.512 10.512 0 0 1-1.077 1.032 11.767 11.767 0 0 1-1.231.893 13.75 13.75 0 0 1-1.314.734l-.691-1.4a12.929 12.929 0 0 0 1.62-.957 9.084 9.084 0 0 0 1.4-1.187 5.882 5.882 0 0 0 .993-1.362 3.214 3.214 0 0 0 .373-1.493 3.96 3.96 0 0 0-.052-.619q-.052-.326-.131-.667t-.175-.683q-.1-.341-.183-.667-.191-.667-.4-1.334zm.508-3.255-1.294 1.294-1.3-1.3 1.294-1.294zm5.359 3.255q.111.373.222.734t.2.726q.1.381.195.766t.183.762q.083.377.139.742a4.747 4.747 0 0 1 .056.715 4.454 4.454 0 0 1-.2 1.338 5.8 5.8 0 0 1-.564 1.25 7.3 7.3 0 0 1-.857 1.151 10.512 10.512 0 0 1-1.08 1.034 11.767 11.767 0 0 1-1.231.893 13.75 13.75 0 0 1-1.314.734l-.691-1.4a12.929 12.929 0 0 0 1.62-.957 9.084 9.084 0 0 0 1.4-1.187 5.882 5.882 0 0 0 .988-1.366 3.214 3.214 0 0 0 .373-1.493 3.96 3.96 0 0 0-.052-.619q-.052-.326-.131-.667t-.175-.683q-.1-.341-.183-.667-.191-.667-.4-1.334zm4.7-7.376q.341 3.223.4 5.78.024 1.318.024 2.477 0 .7-.02 1.866t-.131 2.485l-1.564-.087q.127-1.778.167-3.255.016-.667.016-1.278 0-.738-.024-1.4-.159-3.851-.429-6.352zm13.622 17.713q-.691 0-1.429-.067a7.07 7.07 0 0 1-1.417-.274 4.851 4.851 0 0 1-1.254-.584 2.981 2.981 0 0 1-.941-1 4.973 4.973 0 0 1-.77-2.866q0-.191.008-.389a16.017 16.017 0 0 1 1.35-5.177l1.453.588a14.034 14.034 0 0 0-1.248 4.998 3.56 3.56 0 0 0 .5 1.985 2.224 2.224 0 0 0 .806.719 3.941 3.941 0 0 0 1 .361 5.789 5.789 0 0 0 1.032.127q.512.016.909.016.23 0 .651-.036t.913-.123a9.948 9.948 0 0 0 1-.234 4.988 4.988 0 0 0 .93-.363 2.387 2.387 0 0 0 .679-.508.986.986 0 0 0 .266-.683.43.43 0 0 0-.087-.226 1.218 1.218 0 0 0-.282-.278 3.982 3.982 0 0 0-.5-.314 6.012 6.012 0 0 0-.762-.333q-.278-.1-.552-.175t-.512-.143q-.238-.064-.437-.107t-.326-.067l-.175-.032.119-1.548h6.258v1.556H97.06a2.688 2.688 0 0 1 .441.449 2.269 2.269 0 0 1 .266.441 1.669 1.669 0 0 1 .127.413 2.326 2.326 0 0 1 .032.365 2.418 2.418 0 0 1-.31 1.2 3.179 3.179 0 0 1-.794.913 4.843 4.843 0 0 1-1.116.654 8.793 8.793 0 0 1-1.29.433 9.742 9.742 0 0 1-1.314.238 10.867 10.867 0 0 1-1.178.071zm10.424-12.536a.478.478 0 0 0-.262.107 1.324 1.324 0 0 0-.3.322 2.824 2.824 0 0 0-.282.524 3.314 3.314 0 0 0-.2.715 1.836 1.836 0 0 0-.024.286 1.4 1.4 0 0 0 .048.363.722.722 0 0 0 .23.349 1.151 1.151 0 0 0 .46.238 3.133 3.133 0 0 0 .639.1q.4.016.762.016t.611-.016a5.514 5.514 0 0 0-.3-1.453 3.368 3.368 0 0 0-.643-1.134 1.926 1.926 0 0 0-.322-.282.7.7 0 0 0-.417-.135zm-3.557 5.8h.159a14.529 14.529 0 0 0 1.616-.083 12.434 12.434 0 0 0 1.326-.214 6.863 6.863 0 0 0 .988-.29 2.226 2.226 0 0 0 .6-.318 1.66 1.66 0 0 0 .167-.159l.127-.143h-.8a5.063 5.063 0 0 1-.834-.067 4.023 4.023 0 0 1-.762-.2 3.026 3.026 0 0 1-.651-.337 2.273 2.273 0 0 1-.5-.464 2.611 2.611 0 0 1-.222-.345 2.124 2.124 0 0 1-.19-.463 2.772 2.772 0 0 1-.087-.6v-.135a4.14 4.14 0 0 1 .048-.6 4.6 4.6 0 0 1 .85-2.017 2.425 2.425 0 0 1 .8-.711 1.952 1.952 0 0 1 .921-.234 2.554 2.554 0 0 1 1.905.929 4.7 4.7 0 0 1 .651.941 6.049 6.049 0 0 1 .464 1.143 6.785 6.785 0 0 1 .242 1.25q.024.278.024.548a5.7 5.7 0 0 1-.048.738 3.429 3.429 0 0 1-.4 1.254 3.128 3.128 0 0 1-.766.905 4.022 4.022 0 0 1-1.064.607 7.459 7.459 0 0 1-1.289.382 11.827 11.827 0 0 1-1.46.183q-.762.052-1.548.06h-.27zm4.788-10.183-1.294 1.294-1.3-1.3 1.292-1.294zm5.527-.794q.341 3.223.4 5.78.024 1.318.024 2.477 0 .7-.02 1.866t-.127 2.485l-1.564-.087q.127-1.778.167-3.255.02-.672.02-1.278 0-.738-.024-1.4-.159-3.851-.429-6.352zm6.461 11.994a4.607 4.607 0 0 1-.445 1.985 7.184 7.184 0 0 1-1.179 1.759 10.367 10.367 0 0 1-1.679 1.489 14.508 14.508 0 0 1-1.945 1.167l-.682-1.4q.569-.3 1.135-.65a10.826 10.826 0 0 0 1.064-.758 9.177 9.177 0 0 0 .921-.853 5.326 5.326 0 0 0 .711-.941 4.119 4.119 0 0 0 .433-1.024 2.963 2.963 0 0 0 .1-.778 2.523 2.523 0 0 0-.016-.294q-.056-.453-.171-.973t-.25-1.02q-.135-.5-.27-.941t-.23-.734l1.493-.46q.3.921.588 1.568a5.608 5.608 0 0 0 .589 1.058 2.145 2.145 0 0 0 .631.6 1.425 1.425 0 0 0 .726.191h.127v1.556h-.135q-.111 0-.286-.008a1.849 1.849 0 0 1-.385-.064 1.924 1.924 0 0 1-.429-.175 1.649 1.649 0 0 1-.417-.333zm7.685-.945q.524.032 1.231.048h.349q.54 0 1.187-.04a11.093 11.093 0 0 0 1.366-.175 5.17 5.17 0 0 0 1.282-.4 2.529 2.529 0 0 0 .905-.7 1.61 1.61 0 0 0 .333-1.032v-.032a1.451 1.451 0 0 0-.123-.615 1.481 1.481 0 0 0-.318-.453 1.591 1.591 0 0 0-.449-.3 2.492 2.492 0 0 0-.52-.171 2.4 2.4 0 0 0-.528-.052 2.366 2.366 0 0 0-.476.052 4.618 4.618 0 0 0-1.27.48 5.466 5.466 0 0 0-1.1.818 7.854 7.854 0 0 0-.973 1.135 14.719 14.719 0 0 0-.895 1.432zm-6.328-.064h.182a3.685 3.685 0 0 0 .8-.075 2.651 2.651 0 0 0 .564-.187 1.462 1.462 0 0 0 .369-.242 1.875 1.875 0 0 0 .226-.25 2.639 2.639 0 0 0 .413-.9q.135-.516.262-1.119.064-.341.135-.659a6.481 6.481 0 0 1 .175-.627l1.5.453q-.1.326-.175.715a4 4 0 0 0-.079.8v.056a3.359 3.359 0 0 0 .1.786 2.335 2.335 0 0 0 .357.778 12.132 12.132 0 0 1 .953-1.663 8.8 8.8 0 0 1 1.215-1.429 7.5 7.5 0 0 1 1.5-1.1 6.683 6.683 0 0 1 1.806-.683 4.025 4.025 0 0 1 .9-.1q.1 0 .4.02a3.093 3.093 0 0 1 .786.187 3.558 3.558 0 0 1 .881.453 3.094 3.094 0 0 1 .7.679 3.009 3.009 0 0 1 .453.885 3.17 3.17 0 0 1 .127.905v.151a3.428 3.428 0 0 1-.365 1.5 3.443 3.443 0 0 1-.861 1.06 4.31 4.31 0 0 1-1.2.691 8.521 8.521 0 0 1-1.4.4 10.912 10.912 0 0 1-1.453.187q-.726.044-1.354.044-.8 0-1.449-.028a5.573 5.573 0 0 1-1.195-.179 3.343 3.343 0 0 1-1-.449 3.874 3.874 0 0 1-.9-.869 2.948 2.948 0 0 1-1.274 1.024 4.91 4.91 0 0 1-1.87.333h-.23z"/>
    <g data-name="Group 10272">
        <g data-name="Group 10271" style="clip-path:url(#2iyo1gok9a)" transform="translate(.945 34.914)">
            <path data-name="Path 20417" d="M795.757 123.088a2.038 2.038 0 0 0 .62.43 1.924 1.924 0 0 0 1.537 0 2.038 2.038 0 0 0 .621-.43 1.933 1.933 0 0 0 .414-.63 1.979 1.979 0 0 0 .148-.76 1.946 1.946 0 0 0-.561-1.44 2 2 0 0 0-2.778 0 1.946 1.946 0 0 0-.561 1.44 1.979 1.979 0 0 0 .148.76 1.935 1.935 0 0 0 .414.63" transform="translate(-742.477 -111.763)" style="fill:#0b0d10"/>
            <path data-name="Path 20418" d="M874.308 120.259a2 2 0 0 0-2.778 0 1.946 1.946 0 0 0-.562 1.44 1.982 1.982 0 0 0 .148.76 1.935 1.935 0 0 0 .414.63 2.037 2.037 0 0 0 .62.43 1.924 1.924 0 0 0 1.536 0 2.039 2.039 0 0 0 .621-.43 1.936 1.936 0 0 0 .414-.63 1.98 1.98 0 0 0 .148-.76 1.946 1.946 0 0 0-.562-1.44" transform="translate(-813.227 -111.763)" style="fill:#0b0d10"/>
            <path data-name="Path 20419" d="M287.377 425.685a1.89 1.89 0 0 0-1.389.56 1.946 1.946 0 0 0-.561 1.44 1.98 1.98 0 0 0 .148.76 1.934 1.934 0 0 0 .414.63 2.039 2.039 0 0 0 .621.43 1.926 1.926 0 0 0 1.537 0 2.039 2.039 0 0 0 .621-.43 1.936 1.936 0 0 0 .414-.63 1.98 1.98 0 0 0 .148-.76 1.946 1.946 0 0 0-.561-1.44 1.89 1.89 0 0 0-1.389-.56" transform="translate(-266.504 -397.464)" style="fill:#0b0d10"/>
            <path data-name="Path 20420" d="M363.15 425.685a1.89 1.89 0 0 0-1.389.56 1.946 1.946 0 0 0-.561 1.44 1.98 1.98 0 0 0 .148.76 1.936 1.936 0 0 0 .414.63 2.039 2.039 0 0 0 .621.43 1.926 1.926 0 0 0 1.537 0 2.039 2.039 0 0 0 .621-.43 1.934 1.934 0 0 0 .414-.63 1.98 1.98 0 0 0 .148-.76 1.946 1.946 0 0 0-.561-1.44 1.89 1.89 0 0 0-1.389-.56" transform="translate(-337.254 -397.464)" style="fill:#0b0d10"/>
            <path data-name="Path 20421" d="M701.664 425.685a1.889 1.889 0 0 0-1.389.56 1.946 1.946 0 0 0-.562 1.44 1.98 1.98 0 0 0 .148.76 1.934 1.934 0 0 0 .414.63 2.038 2.038 0 0 0 .62.43 1.926 1.926 0 0 0 1.537 0 2.04 2.04 0 0 0 .62-.43 1.933 1.933 0 0 0 .414-.63 1.98 1.98 0 0 0 .148-.76 1.946 1.946 0 0 0-.561-1.44 1.89 1.89 0 0 0-1.389-.56" transform="translate(-653.326 -397.464)" style="fill:#0b0d10"/>
            <path data-name="Path 20422" d="M492.4 221.256a.973.973 0 0 1-.965.98h-7.5V213.4h-3.026v8.833h-5.09c-.782-5.831-4.721-7.51-8.512-8.794l-.874 2.94c3.874 1.362 5.617 2.688 6.348 5.854h-8.2v3.071h26.85a4.026 4.026 0 0 0 3.991-4.051V213.4H492.4z" transform="translate(-433.782 -199.255)" style="fill:#0b0d10"/>
            <path data-name="Path 20423" d="M25.544 125.539v7.853a.973.973 0 0 1-.965.979h-6.466V119.3h-3.061v15.21a6 6 0 1 1-11.991 0v-.125H0v.094a9.125 9.125 0 0 0 9.057 9.192 9.066 9.066 0 0 0 8.566-6.228h6.956a4.026 4.026 0 0 0 3.991-4.051v-7.853z" transform="translate(0 -111.391)" style="fill:#0b0d10"/>
            <path data-name="Path 20424" d="M1101.974 0h-50.107a5.567 5.567 0 0 0-5.525 5.607V34.17a5.567 5.567 0 0 0 5.525 5.608h50.107a5.567 5.567 0 0 0 5.525-5.608v-2.31h-6.559a3.881 3.881 0 1 1 0-1.086h6.558V5.607A5.567 5.567 0 0 0 1101.974 0m-34.626 0h1.07v4.11l2.117 2.149a3.764 3.764 0 0 1 2.79-.746 3.842 3.842 0 1 1-3.547 1.514l-2.43-2.466zm-10.3 8.854a3.849 3.849 0 0 1 3.252-3.335V0h1.07v5.52a3.875 3.875 0 1 1-4.322 3.334m43.473 1.808a113.342 113.342 0 0 1-31.244 24.068 3.9 3.9 0 0 1-4.153-.363 43.43 43.43 0 0 1-13.641-14.088 1.507 1.507 0 0 1 .354-2.154 1.49 1.49 0 0 1 2.032.441 16.062 16.062 0 0 0 10.8 6.352 18.3 18.3 0 0 0 7.879-.937c9.2-3.407 17.895-9.073 26.317-15.773a1.457 1.457 0 0 1 1.839.34 1.6 1.6 0 0 1-.178 2.113" transform="translate(-976.974)" style="fill:#f0b90b"/>
            <path data-name="Path 20425" d="M1210.707 13.2a3.875 3.875 0 0 0 1.03-7.681V0h-1.07v5.522a3.884 3.884 0 0 0 .04 7.681" transform="translate(-1127.339 -.004)" style="fill:#0b0d10"/>
            <path data-name="Path 20426" d="M1364.891 8.858a3.82 3.82 0 1 0 4.282-3.341 3.765 3.765 0 0 0-2.79.746l-2.117-2.149V0h-1.07v4.56l2.43 2.466a3.886 3.886 0 0 0-.735 1.827" transform="translate(-1272.822 -.004)" style="fill:#0b0d10"/>
            <path data-name="Path 20427" d="M1759.568 413.948a3.876 3.876 0 1 0 3.285 4.387h6.559v-1.086h-6.558a3.849 3.849 0 0 0-3.286-3.3" transform="translate(-1638.887 -386.474)" style="fill:#0b0d10"/>
            <path data-name="Path 20428" d="M1167.1 121.159c-8.423 6.7-17.12 12.366-26.317 15.773a18.3 18.3 0 0 1-7.879.937 16.062 16.062 0 0 1-10.8-6.352 1.49 1.49 0 0 0-2.032-.441 1.507 1.507 0 0 0-.354 2.154 43.428 43.428 0 0 0 13.641 14.088 3.9 3.9 0 0 0 4.153.363 113.344 113.344 0 0 0 31.245-24.068 1.6 1.6 0 0 0 .178-2.113 1.457 1.457 0 0 0-1.839-.34" transform="translate(-1045.209 -112.95)" style="fill:#0b0d10"/>
        </g>
    </g>
</svg>
