<svg xmlns="http://www.w3.org/2000/svg" width="347" height="49.582" viewBox="0 0 347 49.582">
    <defs>
        <clipPath id="gqhu8muiea">
            <path data-name="Rectangle 5168" style="fill:none" d="M0 0h162.698v49.582H0z"/>
        </clipPath>
    </defs>
    <path data-name="Path 20429" d="M186.102 26.72q-.139.218-.272.48a4.757 4.757 0 0 0-.242.569 9.5 9.5 0 0 0-.361 1.3 8.824 8.824 0 0 0-.163 1.816 3.791 3.791 0 0 0 .173 1.183 3.4 3.4 0 0 0 .465.935 3.407 3.407 0 0 0 .673.7 4.251 4.251 0 0 0 .787.49 4.519 4.519 0 0 0 .807.3 3.872 3.872 0 0 0 .745.127q.129.01.247.01a5.719 5.719 0 0 0 .868-.074 4.862 4.862 0 0 0 1.013-.282 4.648 4.648 0 0 0 1.02-.554 3.854 3.854 0 0 0 .856-.846 4.165 4.165 0 0 0 .593-1.154 4.668 4.668 0 0 0 .223-1.5q0-.782-.025-1.851t-.059-2.286q-.035-1.217-.084-2.509t-.1-2.519q-.049-1.445-.114-2.944t-.144-3.083l1.94-.079q.079 1.593.143 3.1t.114 2.964l.1 2.534q.051 1.297.084 2.519.035 1.222.059 2.3t.025 1.856a7.088 7.088 0 0 1-.317 2.212 5.918 5.918 0 0 1-.845 1.677 5.323 5.323 0 0 1-1.217 1.2 6.7 6.7 0 0 1-1.44.777 6.854 6.854 0 0 1-1.514.4 7.56 7.56 0 0 1-1.069.079q-.178 0-.356-.01a6.655 6.655 0 0 1-1.252-.188 6.59 6.59 0 0 1-1.272-.449 5.985 5.985 0 0 1-1.183-.747 4.951 4.951 0 0 1-.985-1.077 5.056 5.056 0 0 1-.663-1.425 5.706 5.706 0 0 1-.238-1.7v-.081a11.637 11.637 0 0 1 .2-2.207 11.007 11.007 0 0 1 .416-1.544 5.147 5.147 0 0 1 .591-1.207zm16.827 3.358a5.872 5.872 0 0 1-1.859-.258 3.288 3.288 0 0 1-1.3-.792 2.436 2.436 0 0 1-.5-.7 3.821 3.821 0 0 1-.257-.742 3.6 3.6 0 0 1-.094-.7q-.01-.332-.01-.569v-.47q0-.391.015-1 .01-.614.01-1.405t-.005-1.657q0-.851-.02-1.771t-.064-1.781q-.045-.861-.109-1.588t-.153-1.193l1.94-.356q.089.5.153 1.237t.109 1.593q.045.861.069 1.8t.025 1.826v4.968a5.347 5.347 0 0 0 .035.628.825.825 0 0 0 .262.51 1.543 1.543 0 0 0 .678.356 3.94 3.94 0 0 0 1.075.125h.2v1.94zm8.63-1.94v1.94h-.2a3.612 3.612 0 0 1-1.663-.341 3.242 3.242 0 0 1-1.089-.886 4.067 4.067 0 0 1-.693.539 3.7 3.7 0 0 1-.891.386 6.794 6.794 0 0 1-1.2.228 15.314 15.314 0 0 1-1.618.074h-1.476v-1.94h1.475a7.52 7.52 0 0 0 1.608-.148 3.006 3.006 0 0 0 1.089-.445 1.787 1.787 0 0 0 .619-.742 2.539 2.539 0 0 0 .2-1.039 8.045 8.045 0 0 0-.091-1.144 10.022 10.022 0 0 0-.3-1.336l1.861-.525q.1.346.168.668t.119.678q.049.356.094.772t.084.94a6.988 6.988 0 0 0 .109.772 2.71 2.71 0 0 0 .262.752 1.624 1.624 0 0 0 .5.574 1.4 1.4 0 0 0 .826.228zm-4.63-9.035-1.6 1.6-1.623-1.613 1.6-1.613zm4.058.01-1.6 1.613-1.623-1.623 1.6-1.6zm9.006 9.026v1.94h-.2a3.612 3.612 0 0 1-1.664-.342 3.242 3.242 0 0 1-1.089-.886 4.067 4.067 0 0 1-.693.539 3.7 3.7 0 0 1-.891.386 6.794 6.794 0 0 1-1.2.228 15.314 15.314 0 0 1-1.618.074h-1.475v-1.94h1.475a7.52 7.52 0 0 0 1.608-.148 3.007 3.007 0 0 0 1.083-.445 1.787 1.787 0 0 0 .619-.742 2.539 2.539 0 0 0 .2-1.039 8.044 8.044 0 0 0-.085-1.144 10.021 10.021 0 0 0-.3-1.336l1.861-.525q.1.346.168.668t.119.678q.049.356.094.772t.084.94a6.987 6.987 0 0 0 .109.772 2.71 2.71 0 0 0 .262.752 1.624 1.624 0 0 0 .5.574 1.4 1.4 0 0 0 .826.228zm-5.389 5.175-1.6 1.6-1.627-1.609 1.6-1.613zm4.058.01-1.6 1.613-1.627-1.623 1.6-1.6zm.93-5.186h1.425a15.18 15.18 0 0 0 2.821-.252 19.135 19.135 0 0 0 2.567-.666 24.022 24.022 0 0 0 2.39-.95q1.158-.534 2.286-1.1-.683-.238-1.306-.515t-1.227-.564q-.465-.218-.906-.421t-.851-.361a7.031 7.031 0 0 0-.777-.252 2.722 2.722 0 0 0-.673-.094 1.743 1.743 0 0 0-.772.178 3.068 3.068 0 0 0-.678.45 4.435 4.435 0 0 0-.559.584q-.247.312-.426.584a5.243 5.243 0 0 0-.272.455 2.1 2.1 0 0 0-.094.193l-1.781-.8.084-.173q.074-.153.218-.391t.346-.544a6.715 6.715 0 0 1 .47-.623 5.614 5.614 0 0 1 1.638-1.4 3.8 3.8 0 0 1 1.826-.465 4.439 4.439 0 0 1 .965.109 8.02 8.02 0 0 1 .995.292q.5.183 1.029.421t1.059.485q.584.277 1.183.544t1.2.48a9.734 9.734 0 0 0 1.207.341 5.824 5.824 0 0 0 1.217.129l.376 1.88q-.455.2-.9.4t-.9.426a1.509 1.509 0 0 0 .361.638 2.443 2.443 0 0 0 .584.445 3.274 3.274 0 0 0 .7.287 6.915 6.915 0 0 0 .727.163 5.746 5.746 0 0 0 .653.074q.3.015.475.015h.208v1.94h-.208a8.7 8.7 0 0 1-1.831-.183 6.224 6.224 0 0 1-1.529-.529 4.461 4.461 0 0 1-1.163-.848 3.344 3.344 0 0 1-.737-1.133q-1.019.5-2.128.985a22.945 22.945 0 0 1-2.341.861 20.246 20.246 0 0 1-2.608.614 17.51 17.51 0 0 1-2.919.233h-1.425zm9.777 5.482-1.613 1.613-1.627-1.622 1.613-1.613zm6.72-5.483h1.91q.574 0 1.118-.025a5 5 0 0 0 1.012-.142 2.722 2.722 0 0 0 .821-.351 1.549 1.549 0 0 0 .554-.648 1.92 1.92 0 0 0 .148-.525 3.154 3.154 0 0 0 .03-.445q0-.129-.02-.391a4.985 4.985 0 0 0-.129-.722 6.437 6.437 0 0 0-.317-.965l-.861-2.118 1.762-.871q0 .01.089.2t.233.52q.144.327.312.757t.317.915a11.052 11.052 0 0 1 .515 2.534q.01.158.01.317a3.942 3.942 0 0 1-.3 1.583 3.271 3.271 0 0 1-.787 1.118 3.92 3.92 0 0 1-1.123.713 5.622 5.622 0 0 1-1.39.376 11.013 11.013 0 0 1-1.569.109h-2.335zm3.44 5.177-1.6 1.606-1.622-1.615 1.6-1.613zm4.058.01-1.6 1.613-1.623-1.623 1.6-1.6zm6.433-3.256a6.623 6.623 0 0 1-1.123-.114 11.991 11.991 0 0 1-1.291-.3 10.6 10.6 0 0 1-1.177-.417 2.8 2.8 0 0 1-.782-.455l.812-1.861a6.016 6.016 0 0 0 .881.46 8.589 8.589 0 0 0 1.1.386 8.411 8.411 0 0 0 1.207.242 5.685 5.685 0 0 0 .742.049q.228 0 .623-.035a3.185 3.185 0 0 0 .891-.233 2.053 2.053 0 0 0 .831-.6.82.82 0 0 0 .148-.534 2.892 2.892 0 0 0-.079-.614 5.166 5.166 0 0 0-.351-1.014 8.444 8.444 0 0 0-.584-1.059 10.557 10.557 0 0 0-.757-1.029 11.759 11.759 0 0 0-.866-.935 8.419 8.419 0 0 0-.915-.772 5.1 5.1 0 0 0-.91-.534l.8-1.8a6.942 6.942 0 0 1 1.173.693 11.321 11.321 0 0 1 1.153.96 12.785 12.785 0 0 1 1.074 1.153 13.1 13.1 0 0 1 .93 1.277 10.47 10.47 0 0 1 .722 1.326 7.193 7.193 0 0 1 .45 1.291 4.572 4.572 0 0 1 .114 1 3.76 3.76 0 0 1-.084.792 2.4 2.4 0 0 1-.218.6 2.611 2.611 0 0 1-.3.445 3.622 3.622 0 0 1-.836.747 4.944 4.944 0 0 1-1.034.51 6.078 6.078 0 0 1-1.153.287 8.1 8.1 0 0 1-1.188.088zm17.537-6.423q.139.465.277.915t.247.906q.119.475.242.955t.228.95q.1.47.173.925a5.917 5.917 0 0 1 .069.891 5.552 5.552 0 0 1-.252 1.668 7.232 7.232 0 0 1-.7 1.559 9.1 9.1 0 0 1-1.068 1.435 13.1 13.1 0 0 1-1.344 1.286 14.668 14.668 0 0 1-1.534 1.113 17.139 17.139 0 0 1-1.638.915l-.862-1.743a16.116 16.116 0 0 0 2.018-1.19 11.323 11.323 0 0 0 1.747-1.48 7.332 7.332 0 0 0 1.232-1.7 4.007 4.007 0 0 0 .465-1.861 4.936 4.936 0 0 0-.064-.772q-.064-.406-.163-.831t-.218-.851q-.119-.426-.228-.831-.238-.831-.5-1.663zm.633-4.058-1.613 1.613-1.623-1.623 1.613-1.613zm6.68 4.058q.139.465.277.915t.247.906q.119.475.242.955t.228.95q.1.47.173.925a5.917 5.917 0 0 1 .069.891 5.552 5.552 0 0 1-.252 1.668 7.232 7.232 0 0 1-.7 1.559 9.1 9.1 0 0 1-1.067 1.435 13.1 13.1 0 0 1-1.346 1.287 14.668 14.668 0 0 1-1.534 1.113 17.139 17.139 0 0 1-1.638.915l-.861-1.744a16.116 16.116 0 0 0 2.021-1.19 11.323 11.323 0 0 0 1.747-1.48 7.332 7.332 0 0 0 1.232-1.7 4.007 4.007 0 0 0 .465-1.861 4.936 4.936 0 0 0-.066-.769q-.064-.406-.163-.831t-.218-.851q-.119-.426-.228-.831-.238-.831-.5-1.663zm5.859-9.193q.426 4.018.5 7.2.03 1.643.03 3.088 0 .871-.025 2.326t-.163 3.1l-1.942-.108q.158-2.217.208-4.058.02-.831.02-1.593 0-.92-.03-1.742-.2-4.8-.534-7.917zm16.976 22.079q-.861 0-1.781-.084a8.813 8.813 0 0 1-1.767-.341 6.046 6.046 0 0 1-1.564-.727 3.716 3.716 0 0 1-1.172-1.243 6.2 6.2 0 0 1-.96-3.573q0-.238.01-.485a19.964 19.964 0 0 1 1.682-6.453l1.811.732a17.493 17.493 0 0 0-1.554 6.226 4.437 4.437 0 0 0 .619 2.474 2.772 2.772 0 0 0 1 .9 4.913 4.913 0 0 0 1.247.45 7.216 7.216 0 0 0 1.287.158q.638.02 1.133.02.287 0 .812-.045t1.146-.157a12.4 12.4 0 0 0 1.252-.292 6.218 6.218 0 0 0 1.153-.45 2.975 2.975 0 0 0 .846-.633 1.229 1.229 0 0 0 .332-.851.536.536 0 0 0-.109-.282 1.518 1.518 0 0 0-.351-.346 4.964 4.964 0 0 0-.628-.391 7.494 7.494 0 0 0-.95-.416q-.346-.119-.688-.218t-.638-.178q-.3-.079-.544-.134t-.406-.084l-.218-.04.148-1.93h7.808v1.94h-2.553a3.351 3.351 0 0 1 .549.559 2.829 2.829 0 0 1 .332.549 2.081 2.081 0 0 1 .158.515 2.9 2.9 0 0 1 .04.455 3.014 3.014 0 0 1-.386 1.494 3.963 3.963 0 0 1-.99 1.138 6.037 6.037 0 0 1-1.4.816 10.961 10.961 0 0 1-1.608.539 12.143 12.143 0 0 1-1.638.3 13.545 13.545 0 0 1-1.46.088zm12.994-15.627a.6.6 0 0 0-.327.134 1.651 1.651 0 0 0-.376.4 3.52 3.52 0 0 0-.351.653 4.131 4.131 0 0 0-.252.891 2.288 2.288 0 0 0-.03.356 1.741 1.741 0 0 0 .064.455.9.9 0 0 0 .287.435 1.435 1.435 0 0 0 .574.3 3.906 3.906 0 0 0 .8.129q.5.02.95.02t.762-.02a6.873 6.873 0 0 0-.371-1.811 4.2 4.2 0 0 0-.807-1.415 2.4 2.4 0 0 0-.4-.351.877.877 0 0 0-.523-.176zm-4.434 7.235h.2a18.111 18.111 0 0 0 2.014-.1 15.5 15.5 0 0 0 1.65-.272 8.555 8.555 0 0 0 1.232-.361 2.775 2.775 0 0 0 .742-.4 2.069 2.069 0 0 0 .208-.2l.158-.178h-1a6.311 6.311 0 0 1-1.04-.078 5.015 5.015 0 0 1-.95-.252 3.772 3.772 0 0 1-.812-.421 2.833 2.833 0 0 1-.623-.579 3.255 3.255 0 0 1-.277-.43 2.648 2.648 0 0 1-.228-.579 3.455 3.455 0 0 1-.109-.742v-.168a5.16 5.16 0 0 1 .059-.742 5.73 5.73 0 0 1 1.062-2.517 3.023 3.023 0 0 1 1-.886 2.433 2.433 0 0 1 1.148-.292 3.184 3.184 0 0 1 2.375 1.158 5.852 5.852 0 0 1 .812 1.173 7.54 7.54 0 0 1 .579 1.425 8.457 8.457 0 0 1 .3 1.559q.03.346.03.683a7.109 7.109 0 0 1-.059.92 4.274 4.274 0 0 1-.495 1.564 3.9 3.9 0 0 1-.955 1.128 5.014 5.014 0 0 1-1.326.757 9.3 9.3 0 0 1-1.613.46 14.742 14.742 0 0 1-1.816.233q-.95.064-1.93.074h-.336zm5.968-12.7-1.613 1.613-1.623-1.623 1.613-1.609zm6.888-.99q.426 4.018.5 7.2.03 1.643.03 3.088 0 .871-.025 2.326t-.163 3.1l-1.95-.109q.158-2.217.208-4.058.02-.831.02-1.593 0-.92-.03-1.742-.2-4.8-.534-7.917zm8.056 14.946a5.742 5.742 0 0 1-.554 2.474 8.955 8.955 0 0 1-1.47 2.193 12.923 12.923 0 0 1-2.093 1.858 18.084 18.084 0 0 1-2.425 1.465l-.851-1.755q.713-.366 1.415-.81a13.5 13.5 0 0 0 1.33-.941 11.439 11.439 0 0 0 1.148-1.064 6.639 6.639 0 0 0 .886-1.173 5.134 5.134 0 0 0 .539-1.277 3.694 3.694 0 0 0 .129-.97 3.146 3.146 0 0 0-.02-.366q-.073-.564-.216-1.209t-.312-1.272q-.168-.623-.336-1.173t-.287-.915l1.861-.574q.376 1.148.732 1.955a6.99 6.99 0 0 0 .732 1.316 2.674 2.674 0 0 0 .787.747 1.776 1.776 0 0 0 .906.238h.158v1.94h-.168q-.139 0-.356-.01a2.3 2.3 0 0 1-.48-.079 2.4 2.4 0 0 1-.534-.218 2.056 2.056 0 0 1-.52-.416zm9.58-1.175q.653.04 1.534.059h.438q.673 0 1.48-.049a13.827 13.827 0 0 0 1.7-.218 6.445 6.445 0 0 0 1.6-.5 3.153 3.153 0 0 0 1.128-.871 2.007 2.007 0 0 0 .416-1.287v-.04a1.809 1.809 0 0 0-.153-.767 1.845 1.845 0 0 0-.4-.564 1.983 1.983 0 0 0-.559-.376 3.106 3.106 0 0 0-.648-.213 2.988 2.988 0 0 0-.658-.064 2.95 2.95 0 0 0-.594.064 5.756 5.756 0 0 0-1.583.6 6.813 6.813 0 0 0-1.371 1.019 9.789 9.789 0 0 0-1.212 1.407 18.347 18.347 0 0 0-1.118 1.8zm-7.888-.081h.228a4.594 4.594 0 0 0 1-.094 3.3 3.3 0 0 0 .7-.233 1.823 1.823 0 0 0 .46-.3 2.336 2.336 0 0 0 .282-.312 3.29 3.29 0 0 0 .515-1.118q.168-.643.327-1.4.079-.426.168-.821a8.079 8.079 0 0 1 .218-.782l1.87.564q-.119.406-.218.891a4.986 4.986 0 0 0-.1 1v.069a4.187 4.187 0 0 0 .119.98 2.91 2.91 0 0 0 .445.97 15.122 15.122 0 0 1 1.188-2.073 10.964 10.964 0 0 1 1.514-1.781 9.345 9.345 0 0 1 1.865-1.371 8.33 8.33 0 0 1 2.251-.851 5.017 5.017 0 0 1 1.118-.129q.119 0 .5.025a3.855 3.855 0 0 1 .98.233 4.436 4.436 0 0 1 1.1.564 3.856 3.856 0 0 1 .871.846 3.751 3.751 0 0 1 .564 1.1 3.951 3.951 0 0 1 .158 1.128v.188a4.273 4.273 0 0 1-.455 1.87 4.291 4.291 0 0 1-1.074 1.321 5.372 5.372 0 0 1-1.5.861 10.622 10.622 0 0 1-1.747.5 13.6 13.6 0 0 1-1.811.233q-.906.054-1.687.054-1 0-1.806-.035a6.947 6.947 0 0 1-1.48-.213 4.167 4.167 0 0 1-1.247-.559 4.83 4.83 0 0 1-1.118-1.084 3.674 3.674 0 0 1-1.588 1.277 6.12 6.12 0 0 1-2.331.416h-.279z"/>
    <g data-name="Group 10272">
        <g data-name="Group 10271" style="clip-path:url(#gqhu8muiea)">
            <path data-name="Path 20417" d="M795.895 123.923a2.54 2.54 0 0 0 .773.536 2.4 2.4 0 0 0 1.915 0 2.541 2.541 0 0 0 .773-.536 2.41 2.41 0 0 0 .516-.785 2.468 2.468 0 0 0 .184-.947 2.426 2.426 0 0 0-.7-1.794 2.5 2.5 0 0 0-3.462 0 2.426 2.426 0 0 0-.7 1.794 2.468 2.468 0 0 0 .184.947 2.414 2.414 0 0 0 .516.785" transform="translate(-729.483 -109.807)" style="fill:#0b0d10"/>
            <path data-name="Path 20418" d="M875.131 120.4a2.5 2.5 0 0 0-3.462 0 2.426 2.426 0 0 0-.7 1.794 2.468 2.468 0 0 0 .184.947 2.409 2.409 0 0 0 .516.785 2.543 2.543 0 0 0 .773.536 2.4 2.4 0 0 0 1.915 0 2.544 2.544 0 0 0 .774-.536 2.413 2.413 0 0 0 .516-.785 2.468 2.468 0 0 0 .184-.947 2.426 2.426 0 0 0-.7-1.794" transform="translate(-798.995 -109.807)" style="fill:#0b0d10"/>
            <path data-name="Path 20419" d="M287.858 425.685a2.356 2.356 0 0 0-1.731.7 2.426 2.426 0 0 0-.7 1.794 2.468 2.468 0 0 0 .184.947 2.41 2.41 0 0 0 .516.785 2.543 2.543 0 0 0 .773.536 2.4 2.4 0 0 0 1.915 0 2.542 2.542 0 0 0 .773-.536 2.414 2.414 0 0 0 .516-.785 2.468 2.468 0 0 0 .184-.947 2.426 2.426 0 0 0-.7-1.794 2.355 2.355 0 0 0-1.731-.7" transform="translate(-261.84 -390.508)" style="fill:#0b0d10"/>
            <path data-name="Path 20420" d="M363.631 425.685a2.356 2.356 0 0 0-1.731.7 2.426 2.426 0 0 0-.7 1.794 2.468 2.468 0 0 0 .184.947 2.412 2.412 0 0 0 .516.785 2.543 2.543 0 0 0 .773.536 2.4 2.4 0 0 0 1.915 0 2.542 2.542 0 0 0 .773-.536 2.411 2.411 0 0 0 .516-.785 2.468 2.468 0 0 0 .184-.947 2.426 2.426 0 0 0-.7-1.794 2.356 2.356 0 0 0-1.731-.7" transform="translate(-331.352 -390.508)" style="fill:#0b0d10"/>
            <path data-name="Path 20421" d="M702.145 425.685a2.355 2.355 0 0 0-1.731.7 2.426 2.426 0 0 0-.7 1.794 2.468 2.468 0 0 0 .184.947 2.409 2.409 0 0 0 .516.785 2.542 2.542 0 0 0 .773.536 2.4 2.4 0 0 0 1.915 0 2.543 2.543 0 0 0 .773-.536 2.41 2.41 0 0 0 .516-.785 2.468 2.468 0 0 0 .184-.947 2.426 2.426 0 0 0-.7-1.794 2.356 2.356 0 0 0-1.731-.7" transform="translate(-641.892 -390.508)" style="fill:#0b0d10"/>
            <path data-name="Path 20422" d="M499.253 223.192a1.213 1.213 0 0 1-1.2 1.221H488.7V213.4h-3.772v11.01h-6.345c-.975-7.268-5.885-9.361-10.61-10.962l-1.09 3.665c4.829 1.7 7 3.351 7.912 7.3h-10.213v3.829h33.468a5.018 5.018 0 0 0 4.975-5.05V213.4h-3.772z" transform="translate(-426.19 -195.768)" style="fill:#0b0d10"/>
            <path data-name="Path 20423" d="M31.84 127.076v9.789a1.213 1.213 0 0 1-1.2 1.221h-8.062V119.3h-3.816v18.959a7.474 7.474 0 1 1-14.947 0v-.159H0v.117a11.374 11.374 0 0 0 11.289 11.458 11.3 11.3 0 0 0 10.678-7.763h8.671a5.018 5.018 0 0 0 4.975-5.049v-9.789z" transform="translate(0 -109.441)" style="fill:#0b0d10"/>
            <path data-name="Path 20424" d="M1115.687 0h-62.458a6.939 6.939 0 0 0-6.887 6.99v35.6a6.939 6.939 0 0 0 6.887 6.99h62.458a6.939 6.939 0 0 0 6.887-6.99v-2.876h-8.174a4.838 4.838 0 1 1 0-1.354h8.175V6.99a6.939 6.939 0 0 0-6.888-6.99m-43.161 0h1.334v5.124l2.64 2.676a4.692 4.692 0 0 1 3.478-.93 4.789 4.789 0 1 1-4.421 1.887l-3.029-3.074zm-12.835 11.036a4.8 4.8 0 0 1 4.053-4.157V0h1.334v6.88a4.83 4.83 0 1 1-5.387 4.156m54.188 2.254a141.279 141.279 0 0 1-38.946 30 4.857 4.857 0 0 1-5.177-.452 54.135 54.135 0 0 1-17-17.56 1.878 1.878 0 0 1 .441-2.684 1.857 1.857 0 0 1 2.533.549 20.021 20.021 0 0 0 13.457 7.918 22.812 22.812 0 0 0 9.813-1.168c11.464-4.247 22.305-11.309 32.8-19.661a1.816 1.816 0 0 1 2.292.424 1.988 1.988 0 0 1-.222 2.634" transform="translate(-959.875)" style="fill:#f0b90b"/>
            <path data-name="Path 20425" d="M1211.527 16.457a4.831 4.831 0 0 0 1.284-9.574V0h-1.334v6.883a4.842 4.842 0 0 0 .05 9.575" transform="translate(-1107.608 -.004)" style="fill:#0b0d10"/>
            <path data-name="Path 20426" d="M1365.309 11.04a4.762 4.762 0 1 0 5.338-4.164 4.692 4.692 0 0 0-3.478.93l-2.639-2.679V0h-1.33v5.688l3.029 3.074a4.844 4.844 0 0 0-.916 2.277" transform="translate(-1250.546 -.004)" style="fill:#0b0d10"/>
            <path data-name="Path 20427" d="M1760.631 413.956a4.831 4.831 0 1 0 4.1 5.468h8.176v-1.354h-8.175a4.8 4.8 0 0 0-4.1-4.114" transform="translate(-1610.204 -379.71)" style="fill:#0b0d10"/>
            <path data-name="Path 20428" d="M1178.85 121.206c-10.5 8.351-21.34 15.414-32.8 19.661a22.812 22.812 0 0 1-9.821 1.168 20.021 20.021 0 0 1-13.457-7.918 1.857 1.857 0 0 0-2.533-.549 1.879 1.879 0 0 0-.441 2.684 54.135 54.135 0 0 0 17 17.56 4.857 4.857 0 0 0 5.177.452 141.283 141.283 0 0 0 38.946-30 1.988 1.988 0 0 0 .222-2.634 1.816 1.816 0 0 0-2.292-.424" transform="translate(-1026.916 -110.974)" style="fill:#0b0d10"/>
        </g>
    </g>
</svg>
